<svg xmlns="http://www.w3.org/2000/svg" width="48" height="48" viewBox="0 0 48 48">
  <g id="中粗砂夹粘土" transform="translate(-164 -55)">
    <rect id="矩形_11" data-name="矩形 11" width="48" height="48" transform="translate(164 55)" fill="none"/>
    <g id="中粗砂夹粘土-2" data-name="中粗砂夹粘土" transform="translate(164 55)">
      <g id="组_49" data-name="组 49">
        <path id="路径_37" data-name="路径 37" d="M17,0,0,17V31.1L31,0Z" fill="none"/>
        <path id="路径_38" data-name="路径 38" d="M48,.9.9,48H15.5L48,15.5Z" fill="none"/>
        <path id="路径_39" data-name="路径 39" d="M32.4,0l.1.1L.1,32.6H0V47.3L47.3,0Z" fill="none"/>
        <path id="路径_40" data-name="路径 40" d="M48,17,17,48H31.2L48,31.2Z" fill="none"/>
        <path id="路径_41" data-name="路径 41" d="M0,0V15.4L15.4,0Z" fill="none"/>
        <path id="路径_42" data-name="路径 42" d="M32.7,48H48V32.7Z" fill="none"/>
        <path id="路径_43" data-name="路径 43" d="M48,0h-.7L0,47.3V48H.9L48,.9Z" fill="#595758"/>
        <path id="路径_44" data-name="路径 44" d="M48,31.2,31.2,48h1.5L48,32.7Z" fill="#595758"/>
        <path id="路径_45" data-name="路径 45" d="M15.4,0,0,15.4V17L17,0Z" fill="#595758"/>
        <path id="路径_46" data-name="路径 46" d="M32.5.1,32.4,0H31L0,31.1v1.5H.1Z" fill="#595758"/>
        <path id="路径_47" data-name="路径 47" d="M48,15.5,15.5,48H17L48,17Z" fill="#595758"/>
      </g>
      <g id="组_75" data-name="组 75">
        <g id="组_54" data-name="组 54">
          <g id="组_50" data-name="组 50">
            <path id="路径_48" data-name="路径 48" d="M6,3.6A1.58,1.58,0,0,0,4.4,5.2,1.5,1.5,0,0,0,6,6.7,1.561,1.561,0,0,0,7.6,5.2,1.645,1.645,0,0,0,6,3.6Z"/>
          </g>
          <g id="组_51" data-name="组 51">
            <path id="路径_49" data-name="路径 49" d="M18.3,3.6a1.6,1.6,0,1,0,1.6,1.6,1.58,1.58,0,0,0-1.6-1.6Z"/>
          </g>
          <g id="组_52" data-name="组 52">
            <path id="路径_50" data-name="路径 50" d="M30.2,3.6a1.6,1.6,0,1,0,1.6,1.6,1.58,1.58,0,0,0-1.6-1.6Z"/>
          </g>
          <g id="组_53" data-name="组 53">
            <path id="路径_51" data-name="路径 51" d="M41.8,3.6a1.6,1.6,0,1,0,1.6,1.6,1.58,1.58,0,0,0-1.6-1.6Z"/>
          </g>
        </g>
        <g id="组_59" data-name="组 59">
          <g id="组_55" data-name="组 55">
            <path id="路径_52" data-name="路径 52" d="M6.1,13.1a1.6,1.6,0,1,0,1.6,1.6,1.58,1.58,0,0,0-1.6-1.6Z"/>
          </g>
          <g id="组_56" data-name="组 56">
            <path id="路径_53" data-name="路径 53" d="M18.4,13.1A1.6,1.6,0,1,0,20,14.7a1.58,1.58,0,0,0-1.6-1.6Z"/>
          </g>
          <g id="组_57" data-name="组 57">
            <path id="路径_54" data-name="路径 54" d="M30.3,13.1a1.6,1.6,0,1,0,1.6,1.6,1.58,1.58,0,0,0-1.6-1.6Z"/>
          </g>
          <g id="组_58" data-name="组 58">
            <path id="路径_55" data-name="路径 55" d="M41.9,13.1a1.6,1.6,0,1,0,1.6,1.6,1.58,1.58,0,0,0-1.6-1.6Z"/>
          </g>
        </g>
        <g id="组_64" data-name="组 64">
          <g id="组_60" data-name="组 60">
            <path id="路径_56" data-name="路径 56" d="M6.1,22.6a1.6,1.6,0,1,0,1.6,1.6,1.58,1.58,0,0,0-1.6-1.6Z"/>
          </g>
          <g id="组_61" data-name="组 61">
            <path id="路径_57" data-name="路径 57" d="M18.4,22.6a1.6,1.6,0,0,0,0,3.2,1.6,1.6,0,1,0,0-3.2Z"/>
          </g>
          <g id="组_62" data-name="组 62">
            <path id="路径_58" data-name="路径 58" d="M30.3,22.6a1.6,1.6,0,1,0,1.6,1.6,1.58,1.58,0,0,0-1.6-1.6Z"/>
          </g>
          <g id="组_63" data-name="组 63">
            <path id="路径_59" data-name="路径 59" d="M41.9,22.6a1.6,1.6,0,1,0,1.6,1.6,1.58,1.58,0,0,0-1.6-1.6Z"/>
          </g>
        </g>
        <g id="组_69" data-name="组 69">
          <g id="组_65" data-name="组 65">
            <path id="路径_60" data-name="路径 60" d="M6.1,32.1a1.6,1.6,0,1,0,1.6,1.6,1.58,1.58,0,0,0-1.6-1.6Z"/>
          </g>
          <g id="组_66" data-name="组 66">
            <path id="路径_61" data-name="路径 61" d="M18.4,32.1A1.6,1.6,0,1,0,20,33.7a1.58,1.58,0,0,0-1.6-1.6Z"/>
          </g>
          <g id="组_67" data-name="组 67">
            <path id="路径_62" data-name="路径 62" d="M30.3,32.1a1.6,1.6,0,1,0,1.6,1.6,1.58,1.58,0,0,0-1.6-1.6Z"/>
          </g>
          <g id="组_68" data-name="组 68">
            <path id="路径_63" data-name="路径 63" d="M41.9,32.1a1.6,1.6,0,1,0,1.6,1.6,1.58,1.58,0,0,0-1.6-1.6Z"/>
          </g>
        </g>
        <g id="组_74" data-name="组 74">
          <g id="组_70" data-name="组 70">
            <path id="路径_64" data-name="路径 64" d="M6.1,41.6a1.6,1.6,0,1,0,1.6,1.6,1.58,1.58,0,0,0-1.6-1.6Z"/>
          </g>
          <g id="组_71" data-name="组 71">
            <path id="路径_65" data-name="路径 65" d="M18.4,41.6A1.6,1.6,0,1,0,20,43.2a1.58,1.58,0,0,0-1.6-1.6Z"/>
          </g>
          <g id="组_72" data-name="组 72">
            <path id="路径_66" data-name="路径 66" d="M30.3,41.6a1.6,1.6,0,1,0,1.6,1.6,1.58,1.58,0,0,0-1.6-1.6Z"/>
          </g>
          <g id="组_73" data-name="组 73">
            <path id="路径_67" data-name="路径 67" d="M41.9,41.6a1.6,1.6,0,1,0,1.6,1.6,1.58,1.58,0,0,0-1.6-1.6Z"/>
          </g>
        </g>
      </g>
    </g>
  </g>
</svg>
