<svg xmlns="http://www.w3.org/2000/svg" width="48" height="48" viewBox="0 0 48 48">
  <g id="中砂素填土" transform="translate(-48 -55)">
    <rect id="矩形_9" data-name="矩形 9" width="48" height="48" transform="translate(48 55)" fill="none"/>
    <g id="中砂素填土-2" data-name="中砂素填土" transform="translate(48.904 54.3)">
      <g id="组_5" data-name="组 5">
        <g id="组_1" data-name="组 1">
          <path id="路径_1" data-name="路径 1" d="M8.4,7.6a.55.55,0,0,1-.5-.3L5.7,3.1,3.2,7.3a.54.54,0,0,1-.8.2.443.443,0,0,1-.2-.7L5,2.1a.842.842,0,0,1,.7-.4,1.012,1.012,0,0,1,.7.4L9,6.8a.778.778,0,0,1-.2.8Z"/>
          <circle id="椭圆_1" data-name="椭圆 1" cx="0.8" cy="0.8" r="0.8" transform="translate(4.8 9.3)"/>
        </g>
        <g id="组_2" data-name="组 2">
          <path id="路径_2" data-name="路径 2" d="M8.4,19.4a.55.55,0,0,1-.5-.3L5.7,14.9,3.2,19.1a.54.54,0,0,1-.8.2.443.443,0,0,1-.2-.7L5,13.9a.842.842,0,0,1,.7-.4,1.012,1.012,0,0,1,.7.4L9,18.6a.778.778,0,0,1-.2.8Z"/>
          <circle id="椭圆_2" data-name="椭圆 2" cx="0.8" cy="0.8" r="0.8" transform="translate(4.8 21)"/>
        </g>
        <g id="组_3" data-name="组 3">
          <path id="路径_3" data-name="路径 3" d="M8.4,31.2a.55.55,0,0,1-.5-.3L5.7,26.7,3.2,30.9a.54.54,0,0,1-.8.2.443.443,0,0,1-.2-.7L5,25.7a.842.842,0,0,1,.7-.4,1.012,1.012,0,0,1,.7.4L9,30.4a.778.778,0,0,1-.2.8Z"/>
          <circle id="椭圆_3" data-name="椭圆 3" cx="0.8" cy="0.8" r="0.8" transform="translate(4.8 32.8)"/>
        </g>
        <g id="组_4" data-name="组 4">
          <path id="路径_4" data-name="路径 4" d="M8.4,43a.55.55,0,0,1-.5-.3L5.7,38.5,3.2,42.7a.54.54,0,0,1-.8.2.443.443,0,0,1-.2-.7L5,37.5a.842.842,0,0,1,.7-.4,1.012,1.012,0,0,1,.7.4L9,42.2a.778.778,0,0,1-.2.8Z"/>
          <circle id="椭圆_4" data-name="椭圆 4" cx="0.8" cy="0.8" r="0.8" transform="translate(4.8 44.6)"/>
        </g>
      </g>
      <g id="组_9" data-name="组 9">
        <g id="组_6" data-name="组 6">
          <path id="路径_5" data-name="路径 5" d="M20.7,12.4a.55.55,0,0,1-.5-.3L18,7.9l-2.5,4.2a.54.54,0,0,1-.8.2.443.443,0,0,1-.2-.7l2.8-4.7a.842.842,0,0,1,.7-.4,1.012,1.012,0,0,1,.7.4l2.6,4.7a.778.778,0,0,1-.2.8Z"/>
          <circle id="椭圆_5" data-name="椭圆 5" cx="0.8" cy="0.8" r="0.8" transform="translate(17.1 14.1)"/>
        </g>
        <g id="组_7" data-name="组 7">
          <path id="路径_6" data-name="路径 6" d="M20.7,24.2a.55.55,0,0,1-.5-.3L18,19.7l-2.5,4.2a.54.54,0,0,1-.8.2.443.443,0,0,1-.2-.7l2.8-4.7a.842.842,0,0,1,.7-.4,1.012,1.012,0,0,1,.7.4l2.6,4.7a.778.778,0,0,1-.2.8Z"/>
          <circle id="椭圆_6" data-name="椭圆 6" cx="0.8" cy="0.8" r="0.8" transform="translate(17.1 25.9)"/>
        </g>
        <circle id="椭圆_7" data-name="椭圆 7" cx="0.8" cy="0.8" r="0.8" transform="translate(17.1 2.3)"/>
        <g id="组_8" data-name="组 8">
          <path id="路径_7" data-name="路径 7" d="M20.7,36a.55.55,0,0,1-.5-.3L18,31.5l-2.5,4.2a.54.54,0,0,1-.8.2.443.443,0,0,1-.2-.7l2.8-4.7a.842.842,0,0,1,.7-.4,1.012,1.012,0,0,1,.7.4l2.6,4.7a.778.778,0,0,1-.2.8Z"/>
          <circle id="椭圆_8" data-name="椭圆 8" cx="0.8" cy="0.8" r="0.8" transform="translate(17.1 37.7)"/>
        </g>
        <path id="路径_8" data-name="路径 8" d="M20.7,47.8a.55.55,0,0,1-.5-.3L18,43.3l-2.5,4.2a.54.54,0,0,1-.8.2.443.443,0,0,1-.2-.7l2.8-4.7a.842.842,0,0,1,.7-.4,1.012,1.012,0,0,1,.7.4L21.3,47a.778.778,0,0,1-.2.8Z"/>
      </g>
      <g id="组_14" data-name="组 14">
        <g id="组_10" data-name="组 10">
          <path id="路径_9" data-name="路径 9" d="M33,7.6a.55.55,0,0,1-.5-.3L30.3,3.1,27.8,7.3a.54.54,0,0,1-.8.2.443.443,0,0,1-.2-.7l2.8-4.7a.842.842,0,0,1,.7-.4,1.012,1.012,0,0,1,.7.4l2.6,4.7a.778.778,0,0,1-.2.8Z"/>
          <circle id="椭圆_9" data-name="椭圆 9" cx="0.8" cy="0.8" r="0.8" transform="translate(29.3 9.3)"/>
        </g>
        <g id="组_11" data-name="组 11">
          <path id="路径_10" data-name="路径 10" d="M33,19.4a.55.55,0,0,1-.5-.3l-2.2-4.2-2.5,4.2a.54.54,0,0,1-.8.2.443.443,0,0,1-.2-.7l2.8-4.7a.842.842,0,0,1,.7-.4,1.012,1.012,0,0,1,.7.4l2.6,4.7a.778.778,0,0,1-.2.8Z"/>
          <circle id="椭圆_10" data-name="椭圆 10" cx="0.8" cy="0.8" r="0.8" transform="translate(29.3 21)"/>
        </g>
        <g id="组_12" data-name="组 12">
          <path id="路径_11" data-name="路径 11" d="M33,31.2a.55.55,0,0,1-.5-.3l-2.2-4.2-2.5,4.2a.54.54,0,0,1-.8.2.443.443,0,0,1-.2-.7l2.8-4.7a.842.842,0,0,1,.7-.4,1.012,1.012,0,0,1,.7.4l2.6,4.7a.778.778,0,0,1-.2.8Z"/>
          <circle id="椭圆_11" data-name="椭圆 11" cx="0.8" cy="0.8" r="0.8" transform="translate(29.3 32.8)"/>
        </g>
        <g id="组_13" data-name="组 13">
          <path id="路径_12" data-name="路径 12" d="M33,43a.55.55,0,0,1-.5-.3l-2.2-4.2-2.5,4.2a.54.54,0,0,1-.8.2.443.443,0,0,1-.2-.7l2.8-4.7a.842.842,0,0,1,.7-.4,1.012,1.012,0,0,1,.7.4l2.6,4.7a.778.778,0,0,1-.2.8Z"/>
          <circle id="椭圆_12" data-name="椭圆 12" cx="0.8" cy="0.8" r="0.8" transform="translate(29.3 44.6)"/>
        </g>
      </g>
      <g id="组_18" data-name="组 18">
        <g id="组_15" data-name="组 15">
          <path id="路径_13" data-name="路径 13" d="M45.3,12.4a.55.55,0,0,1-.5-.3L42.6,7.9l-2.5,4.2a.54.54,0,0,1-.8.2.443.443,0,0,1-.2-.7l2.8-4.7a.842.842,0,0,1,.7-.4,1.012,1.012,0,0,1,.7.4l2.6,4.7a.778.778,0,0,1-.2.8Z"/>
          <circle id="椭圆_13" data-name="椭圆 13" cx="0.8" cy="0.8" r="0.8" transform="translate(41.6 14.1)"/>
        </g>
        <g id="组_16" data-name="组 16">
          <path id="路径_14" data-name="路径 14" d="M45.3,24.2a.55.55,0,0,1-.5-.3l-2.2-4.2-2.5,4.2a.54.54,0,0,1-.8.2.443.443,0,0,1-.2-.7l2.8-4.7a.842.842,0,0,1,.7-.4,1.012,1.012,0,0,1,.7.4l2.6,4.7a.778.778,0,0,1-.2.8Z"/>
          <circle id="椭圆_14" data-name="椭圆 14" cx="0.8" cy="0.8" r="0.8" transform="translate(41.6 25.9)"/>
        </g>
        <circle id="椭圆_15" data-name="椭圆 15" cx="0.8" cy="0.8" r="0.8" transform="translate(41.6 2.3)"/>
        <g id="组_17" data-name="组 17">
          <path id="路径_15" data-name="路径 15" d="M45.3,36a.55.55,0,0,1-.5-.3l-2.2-4.2-2.5,4.2a.54.54,0,0,1-.8.2.443.443,0,0,1-.2-.7l2.8-4.7a.842.842,0,0,1,.7-.4,1.012,1.012,0,0,1,.7.4l2.6,4.7a.778.778,0,0,1-.2.8Z"/>
          <circle id="椭圆_16" data-name="椭圆 16" cx="0.8" cy="0.8" r="0.8" transform="translate(41.6 37.7)"/>
        </g>
        <path id="路径_16" data-name="路径 16" d="M45.3,47.8a.55.55,0,0,1-.5-.3l-2.2-4.2-2.5,4.2a.54.54,0,0,1-.8.2.443.443,0,0,1-.2-.7l2.8-4.7a.842.842,0,0,1,.7-.4,1.012,1.012,0,0,1,.7.4L45.9,47a.778.778,0,0,1-.2.8Z"/>
      </g>
    </g>
  </g>
</svg>
