<svg xmlns="http://www.w3.org/2000/svg" width="49.108" height="49.306" viewBox="0 0 49.108 49.306">
  <g id="中粗砂夹粉质粘土" transform="translate(-104.645 -54.048)">
    <rect id="矩形_10" data-name="矩形 10" width="48" height="48" transform="translate(105 55)" fill="none"/>
    <g id="中粗砂夹粉质粘土-2" data-name="中粗砂夹粉质粘土" transform="translate(105.1 54.5)">
      <path id="直线_1" data-name="直线 1" d="M.354,48.154l-.707-.707,47.8-47.8.707.707Z" transform="translate(0 0.3)" fill="#595758"/>
      <path id="直线_2" data-name="直线 2" d="M.354,16.854l-.707-.707,16.5-16.5.707.707Z" transform="translate(31.8 32)" fill="#595758"/>
      <path id="直线_3" data-name="直线 3" d="M.355,16.852l-.709-.7,16.4-16.5.709.7Z" transform="translate(-0.1 -0.1)" fill="#595758"/>
      <g id="组_20" data-name="组 20">
        <g id="组_19" data-name="组 19">
          <path id="直线_4" data-name="直线 4" d="M.354,4.754l-.707-.707,4.4-4.4.707.707Z" transform="translate(-0.1 27.6)" fill="#595758"/>
          <path id="直线_5" data-name="直线 5" d="M.355,11.852l-.71-.7L7.266,3.46l.71.7Z" transform="translate(12 8.4)" fill="#595758"/>
          <path id="直线_6" data-name="直线 6" d="M.354,4.854l-.707-.707,4.5-4.5.707.707Z" transform="translate(27.3)" fill="#595758"/>
        </g>
      </g>
      <g id="组_22" data-name="组 22">
        <g id="组_21" data-name="组 21">
          <path id="直线_7" data-name="直线 7" d="M.354,4.554l-.707-.707,4.2-4.2.707.707Z" transform="translate(16.3 44.1)" fill="#595758"/>
          <path id="直线_8" data-name="直线 8" d="M.354,11.754l-.707-.707L7.285,3.408l.707.707Z" transform="translate(28.2 25)" fill="#595758"/>
          <path id="直线_9" data-name="直线 9" d="M.354,4.954l-.707-.707,4.6-4.6.707.707Z" transform="translate(43.5 16.5)" fill="#595758"/>
        </g>
      </g>
      <g id="组_48" data-name="组 48">
        <g id="组_27" data-name="组 27">
          <g id="组_23" data-name="组 23">
            <path id="路径_17" data-name="路径 17" d="M6,3.6A1.58,1.58,0,0,0,4.4,5.2,1.5,1.5,0,0,0,6,6.7,1.561,1.561,0,0,0,7.6,5.2,1.645,1.645,0,0,0,6,3.6Z"/>
          </g>
          <g id="组_24" data-name="组 24">
            <path id="路径_18" data-name="路径 18" d="M18.3,3.6a1.6,1.6,0,1,0,1.6,1.6,1.58,1.58,0,0,0-1.6-1.6Z"/>
          </g>
          <g id="组_25" data-name="组 25">
            <path id="路径_19" data-name="路径 19" d="M30.2,3.6a1.6,1.6,0,1,0,1.6,1.6,1.58,1.58,0,0,0-1.6-1.6Z"/>
          </g>
          <g id="组_26" data-name="组 26">
            <path id="路径_20" data-name="路径 20" d="M41.8,3.6a1.6,1.6,0,1,0,1.6,1.6,1.58,1.58,0,0,0-1.6-1.6Z"/>
          </g>
        </g>
        <g id="组_32" data-name="组 32">
          <g id="组_28" data-name="组 28">
            <path id="路径_21" data-name="路径 21" d="M6.1,13.1a1.6,1.6,0,1,0,1.6,1.6,1.58,1.58,0,0,0-1.6-1.6Z"/>
          </g>
          <g id="组_29" data-name="组 29">
            <path id="路径_22" data-name="路径 22" d="M18.4,13.1A1.6,1.6,0,1,0,20,14.7a1.58,1.58,0,0,0-1.6-1.6Z"/>
          </g>
          <g id="组_30" data-name="组 30">
            <path id="路径_23" data-name="路径 23" d="M30.3,13.1a1.6,1.6,0,1,0,1.6,1.6,1.58,1.58,0,0,0-1.6-1.6Z"/>
          </g>
          <g id="组_31" data-name="组 31">
            <path id="路径_24" data-name="路径 24" d="M41.9,13.1a1.6,1.6,0,1,0,1.6,1.6,1.58,1.58,0,0,0-1.6-1.6Z"/>
          </g>
        </g>
        <g id="组_37" data-name="组 37">
          <g id="组_33" data-name="组 33">
            <path id="路径_25" data-name="路径 25" d="M6.1,22.6a1.6,1.6,0,1,0,1.6,1.6,1.58,1.58,0,0,0-1.6-1.6Z"/>
          </g>
          <g id="组_34" data-name="组 34">
            <path id="路径_26" data-name="路径 26" d="M18.4,22.6a1.6,1.6,0,0,0,0,3.2,1.6,1.6,0,1,0,0-3.2Z"/>
          </g>
          <g id="组_35" data-name="组 35">
            <path id="路径_27" data-name="路径 27" d="M30.3,22.6a1.6,1.6,0,1,0,1.6,1.6,1.58,1.58,0,0,0-1.6-1.6Z"/>
          </g>
          <g id="组_36" data-name="组 36">
            <path id="路径_28" data-name="路径 28" d="M41.9,22.6a1.6,1.6,0,1,0,1.6,1.6,1.58,1.58,0,0,0-1.6-1.6Z"/>
          </g>
        </g>
        <g id="组_42" data-name="组 42">
          <g id="组_38" data-name="组 38">
            <path id="路径_29" data-name="路径 29" d="M6.1,32.1a1.6,1.6,0,1,0,1.6,1.6,1.58,1.58,0,0,0-1.6-1.6Z"/>
          </g>
          <g id="组_39" data-name="组 39">
            <path id="路径_30" data-name="路径 30" d="M18.4,32.1A1.6,1.6,0,1,0,20,33.7a1.58,1.58,0,0,0-1.6-1.6Z"/>
          </g>
          <g id="组_40" data-name="组 40">
            <path id="路径_31" data-name="路径 31" d="M30.3,32.1a1.6,1.6,0,1,0,1.6,1.6,1.58,1.58,0,0,0-1.6-1.6Z"/>
          </g>
          <g id="组_41" data-name="组 41">
            <path id="路径_32" data-name="路径 32" d="M41.9,32.1a1.6,1.6,0,1,0,1.6,1.6,1.58,1.58,0,0,0-1.6-1.6Z"/>
          </g>
        </g>
        <g id="组_47" data-name="组 47">
          <g id="组_43" data-name="组 43">
            <path id="路径_33" data-name="路径 33" d="M6.1,41.6a1.6,1.6,0,1,0,1.6,1.6,1.58,1.58,0,0,0-1.6-1.6Z"/>
          </g>
          <g id="组_44" data-name="组 44">
            <path id="路径_34" data-name="路径 34" d="M18.4,41.6A1.6,1.6,0,1,0,20,43.2a1.58,1.58,0,0,0-1.6-1.6Z"/>
          </g>
          <g id="组_45" data-name="组 45">
            <path id="路径_35" data-name="路径 35" d="M30.3,41.6a1.6,1.6,0,1,0,1.6,1.6,1.58,1.58,0,0,0-1.6-1.6Z"/>
          </g>
          <g id="组_46" data-name="组 46">
            <path id="路径_36" data-name="路径 36" d="M41.9,41.6a1.6,1.6,0,1,0,1.6,1.6,1.58,1.58,0,0,0-1.6-1.6Z"/>
          </g>
        </g>
      </g>
    </g>
  </g>
</svg>
