<?xml version="1.0" encoding="utf-8"?>
<!-- Generator: Adobe Illustrator 22.1.0, SVG Export Plug-In . SVG Version: 6.00 Build 0)  -->
<svg version="1.1" xml:space="preserve" xmlns="http://www.w3.org/2000/svg" x="0px" y="0px" width="48px" height="48px" viewBox="0 0 48 48" enable-background="new 0 0 48 48" xmlns:xlink="http://www.w3.org/1999/xlink">
<style type="text/css">
	.st0{fill:none;stroke:#595758;stroke-miterlimit:10;}
	.st1{fill:none;stroke:#595758;stroke-width:1.0118;stroke-miterlimit:10;}
	.st2{fill:none;stroke:#595758;stroke-width:0.9974;stroke-miterlimit:10;}
</style>
<line class="st0" x1="0" y1="48.1" x2="47.8" y2="0.3"/>
<line class="st1" x1="-0.3" y1="32.4" x2="32.3" y2="-0.2"/>
<line class="st2" x1="16.2" y1="48.3" x2="48.3" y2="16.1"/>
<line class="st0" x1="32.2" y1="48.1" x2="48" y2="32.3"/>
<line class="st0" x1="0" y1="16.1" x2="16" y2="0.1"/>
<path d="M8.8,11.1H7.6c-0.6,0-1.2-0.5-1.2-1.2l0,0c0-0.6,0.5-1.2,1.2-1.2h1.1c0.6,0,1.2,0.5,1.2,1.2l0,0C9.8,10.6,9.4,11.1,8.8,11.1
	z"/>
<path d="M24.5,11.2h-1.2c-0.6,0-1.2-0.5-1.2-1.2l0,0c0-0.6,0.5-1.2,1.2-1.2h1.2c0.6,0,1.2,0.5,1.2,1.2l0,0
	C25.7,10.7,25.1,11.2,24.5,11.2z"/>
<path d="M40.7,11.2h-1.2c-0.6,0-1.2-0.5-1.2-1.2l0,0c0-0.6,0.5-1.2,1.2-1.2h1.2c0.6,0,1.2,0.5,1.2,1.2l0,0
	C41.9,10.7,41.3,11.2,40.7,11.2z"/>
<path class="st0" d="M6.6,6.9c0,0,0.7-3.2,4.3,0.1c3.2,3,4.4-0.9,4.1-1"/>
<path class="st0" d="M22.4,7c0,0,0.7-3.2,4.3,0.1c3.2,3,4.4-0.9,4.1-1"/>
<path class="st0" d="M38.5,7c0,0,0.7-3.2,4.3,0.1c3.2,3,4.4-0.9,4.1-1"/>
<path d="M8.8,27H7.6c-0.6,0-1.2-0.5-1.2-1.2l0,0c0-0.6,0.5-1.2,1.2-1.2h1.1c0.6,0,1.2,0.5,1.2,1.2l0,0C9.8,26.5,9.4,27,8.8,27z"/>
<path d="M24.5,27.2h-1.2c-0.6,0-1.2-0.5-1.2-1.2l0,0c0-0.6,0.5-1.2,1.2-1.2h1.2c0.6,0,1.2,0.5,1.2,1.2l0,0
	C25.7,26.7,25.1,27.2,24.5,27.2z"/>
<path d="M40.7,27.2h-1.2c-0.6,0-1.2-0.5-1.2-1.2l0,0c0-0.6,0.5-1.2,1.2-1.2h1.2c0.6,0,1.2,0.5,1.2,1.2l0,0
	C41.9,26.7,41.3,27.2,40.7,27.2z"/>
<path class="st0" d="M6.6,22.8c0,0,0.7-3.2,4.3,0.1c3.2,3,4.4-0.9,4.1-1"/>
<path class="st0" d="M22.4,23c0,0,0.7-3.2,4.3,0.1c3.2,3,4.4-0.9,4.1-1"/>
<path class="st0" d="M38.5,23c0,0,0.7-3.2,4.3,0.1c3.2,3,4.4-0.9,4.1-1"/>
<path d="M8.8,42.9H7.6c-0.6,0-1.2-0.5-1.2-1.2l0,0c0-0.6,0.5-1.2,1.2-1.2h1.1c0.6,0,1.2,0.5,1.2,1.2l0,0C9.8,42.4,9.4,42.9,8.8,42.9
	z"/>
<path d="M24.5,43.1h-1.2c-0.6,0-1.2-0.5-1.2-1.2l0,0c0-0.6,0.5-1.2,1.2-1.2h1.2c0.6,0,1.2,0.5,1.2,1.2l0,0
	C25.7,42.6,25.1,43.1,24.5,43.1z"/>
<path d="M40.7,43.1h-1.2c-0.6,0-1.2-0.5-1.2-1.2l0,0c0-0.6,0.5-1.2,1.2-1.2h1.2c0.6,0,1.2,0.5,1.2,1.2l0,0
	C41.9,42.6,41.3,43.1,40.7,43.1z"/>
<path class="st0" d="M6.6,38.7c0,0,0.7-3.2,4.3,0.1c3.2,3,4.4-0.9,4.1-1"/>
<path class="st0" d="M22.4,38.9c0,0,0.7-3.2,4.3,0.1c3.2,3,4.4-0.9,4.1-1"/>
<path class="st0" d="M38.5,38.9c0,0,0.7-3.2,4.3,0.1c3.2,3,4.4-0.9,4.1-1"/>
</svg>
