<?xml version="1.0" standalone="no"?><!DOCTYPE svg PUBLIC "-//W3C//DTD SVG 1.1//EN" "http://www.w3.org/Graphics/SVG/1.1/DTD/svg11.dtd"><svg class="icon" width="48px" height="48.00px" viewBox="0 0 1024 1024" version="1.1" xmlns="http://www.w3.org/2000/svg"><path fill="#333333" d="M245.333333 311.466667h-12.8v-81.066667h81.066667v12.8h-68.266667zM70.4 488.533333h-12.8v-78.933333h83.2v12.8H70.4zM245.333333 665.6h-12.8v-81.066667h81.066667v12.8h-68.266667zM70.4 832h-12.8v-78.933333h83.2v12.8H70.4zM424.533333 832h-12.8v-78.933333h83.2v12.8h-70.4zM601.6 663.466667h-12.8v-81.066667h81.066667v12.8h-68.266667zM778.666667 488.533333h-12.8v-78.933333h83.2v12.8h-70.4zM778.666667 832h-12.8v-78.933333h83.2v12.8h-70.4zM426.666667 488.533333h-12.8v-78.933333h83.2v12.8H426.666667zM70.4 145.066667h-12.8V66.133333h83.2v12.8H70.4zM778.666667 145.066667h-12.8V66.133333h83.2v12.8h-70.4zM426.666667 145.066667h-12.8V66.133333h83.2v12.8H426.666667zM601.6 311.466667h-12.8v-81.066667h81.066667v12.8h-68.266667zM955.733333 311.466667h-12.8v-81.066667h51.2v12.8h-38.4zM955.733333 665.6h-12.8v-81.066667h51.2v12.8h-38.4zM245.333333 992h-12.8v-81.066667h81.066667v12.8h-68.266667zM601.6 989.866667h-12.8v-81.066667h81.066667v12.8h-68.266667zM955.733333 992h-12.8v-81.066667h51.2v12.8h-38.4z" /></svg>