<?xml version='1.0' encoding='utf-8'?>
<!DOCTYPE svg PUBLIC '-//W3C//DTD SVG 1.1//EN' 'http://www.w3.org/Graphics/SVG/1.1/DTD/svg11.dtd'>
<!-- Generator: Adobe Illustrator 16.0.0, SVG Export Plug-In . SVG Version: 6.00 Build 0)  -->
<svg version="1.1" xml:space="preserve" xmlns="http://www.w3.org/2000/svg" x="0px" width="48px" viewBox="0 0 48 48" enable-background="new 0 0 48 48" y="0px" xmlns:xlink="http://www.w3.org/1999/xlink" height="48px">
    <g id="二长岩">
        <line y1="3.175" fill="none" stroke-miterlimit="10" x2="9.917" y2="7.509" stroke="#000000" x1="5.583"/>
        <line y1="4.759" fill="none" stroke-miterlimit="10" x2="8.042" y2="8.967" stroke="#000000" x1="3.833"/>
        <line y1="4.759" fill="none" stroke-miterlimit="10" x2="15.646" y2="8.509" stroke="#000000" x1="19.75"/>
        <line y1="2.759" fill="none" stroke-miterlimit="10" x2="14.25" y2="6.592" stroke="#000000" x1="18.083"/>
        <line y1="18.881" fill="none" stroke-miterlimit="10" x2="13.807" y2="14.31" stroke="#000000" x1="17.888"/>
        <line y1="17.4" fill="none" stroke-miterlimit="10" x2="15.761" y2="12.96" stroke="#000000" x1="19.725"/>
        <line y1="16.497" fill="none" stroke-miterlimit="10" x2="8.143" y2="12.985" stroke="#000000" x1="3.833"/>
        <line y1="18.588" fill="none" stroke-miterlimit="10" x2="9.428" y2="14.979" stroke="#000000" x1="5.383"/>
        <line y1="3.175" fill="none" stroke-miterlimit="10" x2="34.334" y2="7.509" stroke="#000000" x1="30"/>
        <line y1="4.759" fill="none" stroke-miterlimit="10" x2="32.459" y2="8.967" stroke="#000000" x1="28.25"/>
        <line y1="4.759" fill="none" stroke-miterlimit="10" x2="40.063" y2="8.509" stroke="#000000" x1="44.167"/>
        <line y1="2.759" fill="none" stroke-miterlimit="10" x2="38.667" y2="6.592" stroke="#000000" x1="42.501"/>
        <line y1="18.881" fill="none" stroke-miterlimit="10" x2="38.224" y2="14.311" stroke="#000000" x1="42.305"/>
        <line y1="17.4" fill="none" stroke-miterlimit="10" x2="40.178" y2="12.96" stroke="#000000" x1="44.142"/>
        <line y1="16.496" fill="none" stroke-miterlimit="10" x2="32.561" y2="12.984" stroke="#000000" x1="28.25"/>
        <line y1="18.588" fill="none" stroke-miterlimit="10" x2="33.846" y2="14.979" stroke="#000000" x1="29.8"/>
        <line y1="27.217" fill="none" stroke-miterlimit="10" x2="8.251" y2="31.551" stroke="#000000" x1="3.917"/>
        <line y1="28.801" fill="none" stroke-miterlimit="10" x2="6.376" y2="33.009" stroke="#000000" x1="2.167"/>
        <line y1="28.801" fill="none" stroke-miterlimit="10" x2="13.98" y2="32.551" stroke="#000000" x1="18.084"/>
        <line y1="26.801" fill="none" stroke-miterlimit="10" x2="12.584" y2="30.635" stroke="#000000" x1="16.417"/>
        <line y1="42.923" fill="none" stroke-miterlimit="10" x2="12.141" y2="38.353" stroke="#000000" x1="16.222"/>
        <line y1="41.442" fill="none" stroke-miterlimit="10" x2="14.095" y2="37.002" stroke="#000000" x1="18.059"/>
        <line y1="40.538" fill="none" stroke-miterlimit="10" x2="6.477" y2="37.026" stroke="#000000" x1="2.167"/>
        <line y1="42.63" fill="none" stroke-miterlimit="10" x2="7.762" y2="39.021" stroke="#000000" x1="3.717"/>
        <line y1="27.217" fill="none" stroke-miterlimit="10" x2="32.668" y2="31.551" stroke="#000000" x1="28.334"/>
        <line y1="28.801" fill="none" stroke-miterlimit="10" x2="30.793" y2="33.009" stroke="#000000" x1="26.584"/>
        <line y1="28.801" fill="none" stroke-miterlimit="10" x2="38.397" y2="32.551" stroke="#000000" x1="42.501"/>
        <line y1="26.801" fill="none" stroke-miterlimit="10" x2="37.001" y2="30.635" stroke="#000000" x1="40.835"/>
        <line y1="42.923" fill="none" stroke-miterlimit="10" x2="36.558" y2="38.353" stroke="#000000" x1="40.639"/>
        <line y1="41.442" fill="none" stroke-miterlimit="10" x2="38.512" y2="37.002" stroke="#000000" x1="42.476"/>
        <line y1="40.538" fill="none" stroke-miterlimit="10" x2="30.895" y2="37.026" stroke="#000000" x1="26.584"/>
        <line y1="42.63" fill="none" stroke-miterlimit="10" x2="32.18" y2="39.021" stroke="#000000" x1="28.134"/>
    </g>
</svg>
