<?xml version='1.0' encoding='utf-8'?>
<!DOCTYPE svg PUBLIC '-//W3C//DTD SVG 1.1//EN' 'http://www.w3.org/Graphics/SVG/1.1/DTD/svg11.dtd'>
<!-- Generator: Adobe Illustrator 16.0.0, SVG Export Plug-In . SVG Version: 6.00 Build 0)  -->
<svg version="1.1" xml:space="preserve" xmlns="http://www.w3.org/2000/svg" x="0px" width="48px" viewBox="0 0 48 48" enable-background="new 0 0 48 48" y="0px" xmlns:xlink="http://www.w3.org/1999/xlink" height="48px">
    <g id="二长斑岩">
        <line y1="4.175" fill="none" stroke-miterlimit="10" x2="10.917" y2="8.509" stroke="#000000" x1="6.583"/>
        <line y1="5.759" fill="none" stroke-miterlimit="10" x2="9.042" y2="9.967" stroke="#000000" x1="4.833"/>
        <line y1="5.759" fill="none" stroke-miterlimit="10" x2="16.646" y2="9.509" stroke="#000000" x1="20.75"/>
        <line y1="3.759" fill="none" stroke-miterlimit="10" x2="15.25" y2="7.592" stroke="#000000" x1="19.083"/>
        <line y1="19.881" fill="none" stroke-miterlimit="10" x2="14.807" y2="15.31" stroke="#000000" x1="18.888"/>
        <line y1="18.4" fill="none" stroke-miterlimit="10" x2="16.761" y2="13.96" stroke="#000000" x1="20.725"/>
        <line y1="17.497" fill="none" stroke-miterlimit="10" x2="9.143" y2="13.985" stroke="#000000" x1="4.833"/>
        <line y1="19.588" fill="none" stroke-miterlimit="10" x2="10.428" y2="15.979" stroke="#000000" x1="6.383"/>
        <line y1="4.175" fill="none" stroke-miterlimit="10" x2="35.334" y2="8.509" stroke="#000000" x1="31"/>
        <line y1="5.759" fill="none" stroke-miterlimit="10" x2="33.459" y2="9.967" stroke="#000000" x1="29.25"/>
        <line y1="5.759" fill="none" stroke-miterlimit="10" x2="41.063" y2="9.509" stroke="#000000" x1="45.167"/>
        <line y1="3.759" fill="none" stroke-miterlimit="10" x2="39.667" y2="7.592" stroke="#000000" x1="43.501"/>
        <line y1="19.881" fill="none" stroke-miterlimit="10" x2="39.224" y2="15.311" stroke="#000000" x1="43.305"/>
        <line y1="18.4" fill="none" stroke-miterlimit="10" x2="41.178" y2="13.96" stroke="#000000" x1="45.142"/>
        <line y1="17.496" fill="none" stroke-miterlimit="10" x2="33.561" y2="13.984" stroke="#000000" x1="29.25"/>
        <line y1="19.588" fill="none" stroke-miterlimit="10" x2="34.846" y2="15.979" stroke="#000000" x1="30.8"/>
        <line y1="28.217" fill="none" stroke-miterlimit="10" x2="9.251" y2="32.551" stroke="#000000" x1="4.917"/>
        <line y1="29.801" fill="none" stroke-miterlimit="10" x2="7.376" y2="34.009" stroke="#000000" x1="3.167"/>
        <line y1="29.801" fill="none" stroke-miterlimit="10" x2="14.98" y2="33.551" stroke="#000000" x1="19.084"/>
        <line y1="27.801" fill="none" stroke-miterlimit="10" x2="13.584" y2="31.635" stroke="#000000" x1="17.417"/>
        <line y1="43.923" fill="none" stroke-miterlimit="10" x2="13.141" y2="39.353" stroke="#000000" x1="17.222"/>
        <line y1="42.442" fill="none" stroke-miterlimit="10" x2="15.095" y2="38.002" stroke="#000000" x1="19.059"/>
        <line y1="41.538" fill="none" stroke-miterlimit="10" x2="7.477" y2="38.026" stroke="#000000" x1="3.167"/>
        <line y1="43.63" fill="none" stroke-miterlimit="10" x2="8.762" y2="40.021" stroke="#000000" x1="4.717"/>
        <line y1="28.217" fill="none" stroke-miterlimit="10" x2="33.668" y2="32.551" stroke="#000000" x1="29.334"/>
        <line y1="29.801" fill="none" stroke-miterlimit="10" x2="31.793" y2="34.009" stroke="#000000" x1="27.584"/>
        <line y1="29.801" fill="none" stroke-miterlimit="10" x2="39.397" y2="33.551" stroke="#000000" x1="43.501"/>
        <line y1="27.801" fill="none" stroke-miterlimit="10" x2="38.001" y2="31.635" stroke="#000000" x1="41.835"/>
        <line y1="43.923" fill="none" stroke-miterlimit="10" x2="37.558" y2="39.353" stroke="#000000" x1="41.639"/>
        <line y1="42.442" fill="none" stroke-miterlimit="10" x2="39.512" y2="38.002" stroke="#000000" x1="43.476"/>
        <line y1="41.538" fill="none" stroke-miterlimit="10" x2="31.895" y2="38.026" stroke="#000000" x1="27.584"/>
        <line y1="43.63" fill="none" stroke-miterlimit="10" x2="33.18" y2="40.021" stroke="#000000" x1="29.134"/>
        <circle r="1.333" stroke-width="0.5" cx="12.667" cy="11.759" fill="none" stroke-miterlimit="10" stroke="#000000"/>
        <circle r="1.25" stroke-width="0.5" cx="22.75" cy="23.175" fill="none" stroke-miterlimit="10" stroke="#000000"/>
        <circle r="1.25" stroke-width="0.5" cx="11.333" cy="35.795" fill="none" stroke-miterlimit="10" stroke="#000000"/>
        <circle r="1.25" stroke-width="0.5" cx="35.731" cy="35.794" fill="none" stroke-miterlimit="10" stroke="#000000"/>
        <circle r="1.25" stroke-width="0.5" cx="36.981" cy="11.759" fill="none" stroke-miterlimit="10" stroke="#000000"/>
    </g>
</svg>
