<svg xmlns="http://www.w3.org/2000/svg" width="48.707" height="48.707" viewBox="0 0 48.707 48.707">
  <g id="亚砂土" transform="translate(-221.646 -54.646)">
    <rect id="矩形_12" data-name="矩形 12" width="48" height="48" transform="translate(222 55)" fill="none"/>
    <g id="亚砂土-2" data-name="亚砂土" transform="translate(222 55)">
      <g id="组_77" data-name="组 77">
        <g id="组_76" data-name="组 76">
          <path id="直线_10" data-name="直线 10" d="M.354,3.854l-.707-.707,3.5-3.5.707.707Z" transform="translate(0 44.5)" fill="#595758"/>
          <path id="直线_11" data-name="直线 11" d="M.354,28.853l-.708-.706L7.769,20l.708.706ZM16.6,12.55l-.708-.706,8.123-8.152.708.706Z" transform="translate(11.7 7.8)" fill="#595758"/>
          <path id="直线_12" data-name="直线 12" d="M.359,3.949l-.717-.7,3.5-3.6.717.7Z" transform="translate(44.2 0.2)" fill="#595758"/>
        </g>
      </g>
      <g id="组_79" data-name="组 79">
        <g id="组_78" data-name="组 78">
          <path id="直线_13" data-name="直线 13" d="M.354,4.554l-.707-.707,4.2-4.2.707.707Z" transform="translate(16.4 43.8)" fill="#595758"/>
          <path id="直线_14" data-name="直线 14" d="M.354,11.954l-.707-.707L7.356,3.537l.707.707Z" transform="translate(28.3 24.5)" fill="#595758"/>
          <path id="直线_15" data-name="直线 15" d="M.354,4.554l-.707-.707,4.2-4.2.707.707Z" transform="translate(43.8 16.4)" fill="#595758"/>
        </g>
      </g>
      <g id="组_81" data-name="组 81">
        <g id="组_80" data-name="组 80">
          <path id="直线_16" data-name="直线 16" d="M.354,3.854l-.707-.707,3.5-3.5.707.707Z" transform="translate(32.2 44.5)" fill="#595758"/>
          <path id="直线_17" data-name="直线 17" d="M.354,3.854l-.707-.707,3.5-3.5.707.707Z" transform="translate(44.5 32.3)" fill="#595758"/>
        </g>
      </g>
      <g id="组_83" data-name="组 83">
        <g id="组_82" data-name="组 82">
          <path id="直线_18" data-name="直线 18" d="M.354,4.554l-.707-.707,4.2-4.2.707.707Z" transform="translate(0 28)" fill="#595758"/>
          <path id="直线_19" data-name="直线 19" d="M.354,12.254l-.707-.707L7.56,3.633l.707.707Z" transform="translate(12.1 8.2)" fill="#595758"/>
          <path id="直线_20" data-name="直线 20" d="M.354,4.554l-.707-.707,4.2-4.2.707.707Z" transform="translate(28)" fill="#595758"/>
        </g>
      </g>
      <g id="组_85" data-name="组 85">
        <g id="组_84" data-name="组 84">
          <path id="直线_21" data-name="直线 21" d="M.354,3.854l-.707-.707,3.5-3.5.707.707Z" transform="translate(0 12.6)" fill="#595758"/>
          <path id="直线_22" data-name="直线 22" d="M.354,3.854l-.707-.707,3.5-3.5.707.707Z" transform="translate(12.5 0.1)" fill="#595758"/>
        </g>
      </g>
    </g>
  </g>
</svg>
