<svg xmlns="http://www.w3.org/2000/svg" width="48" height="48" viewBox="0 0 48 48">
  <g id="人工填土" transform="translate(-280 -55)">
    <rect id="矩形_13" data-name="矩形 13" width="48" height="48" transform="translate(280 55)" fill="none"/>
    <g id="人工填土-2" data-name="人工填土" transform="translate(279.799 54.979)">
      <path id="路径_68" data-name="路径 68" d="M.89,31.866,16.441,47.22l-.689.7L.2,32.564ZM30.284.631l17.7,17.214-.683.7L29.6,1.333ZM1.1,21.524,26.978,47.2l-.691.7L.413,22.22ZM5.837.655,47.185,40.924l-.684.7L5.153,1.357Zm11.922-.3,30.375,29.2-.679.707L17.079,1.061ZM1.089,9.623,39.823,47.379l-.684.7L.405,10.325Z" transform="translate(0 -0.319)" fill="#333"/>
      <path id="路径_69" data-name="路径 69" d="M29.136.276l.686.7L4.863,25.355l-.685-.7ZM51.1,22.309l.678.706L26.218,47.608l-.68-.706ZM21.429.021,22.1.732,4.829,17.121l-.675-.71ZM50.695,33.479l.686.7L37.229,48.021l-.685-.7ZM40.778.644l.681.706L4.813,36.754l-.681-.706Zm10.358.49.683.7L5.078,47.243l-.683-.7Zm-.092,10.75.684.7-35.982,35.1-.685-.7Z" transform="translate(-3.746)" fill="#333"/>
    </g>
  </g>
</svg>
