<?xml version="1.0" standalone="no"?><!DOCTYPE svg PUBLIC "-//W3C//DTD SVG 1.1//EN" "http://www.w3.org/Graphics/SVG/1.1/DTD/svg11.dtd"><svg class="icon" width="48px" height="47.81px" viewBox="0 0 1028 1024" version="1.1" xmlns="http://www.w3.org/2000/svg"><path d="M820.083627 428.8C664.350293 428.8 487.283627 384 485.150293 384c-2.133333 0-108.8-40.533333-236.8-44.8-128-2.133333-236.8 59.733333-238.933333 61.866667-2.133333 2.133333-6.4 0-8.533333-2.133334-2.133333-2.133333 0-6.4 2.133333-8.533333 2.133333 0 108.8-61.866667 236.8-61.866667h6.4c132.266667 4.266667 238.933333 44.8 241.066667 44.8 2.133333 0 174.933333 44.8 330.666666 44.8 153.6 0 200.533333-42.666667 200.533334-42.666666 2.133333-2.133333 6.4-2.133333 8.533333 0 2.133333 2.133333 2.133333 6.4 0 8.533333 0 0-49.066667 44.8-206.933333 44.8z"  /><path d="M820.083627 475.733333c-155.733333 0-332.8-46.933333-334.933334-46.933333-2.133333 0-108.8-42.666667-236.8-44.8-128-2.133333-236.8 59.733333-238.933333 61.866667-2.133333 2.133333-6.4 0-8.533333-2.133334-2.133333-2.133333 0-6.4 2.133333-8.533333 2.133333 0 108.8-61.866667 236.8-61.866667h6.4c132.266667 2.133333 238.933333 44.8 241.066667 44.8 2.133333 0 174.933333 46.933333 330.666666 46.933334 153.6 0 200.533333-42.666667 200.533334-42.666667 2.133333-2.133333 6.4-2.133333 8.533333 0 2.133333 2.133333 2.133333 6.4 0 8.533333 0 0-49.066667 44.8-206.933333 44.8zM820.083627 676.266667c-155.733333 0-332.8-44.8-334.933334-44.8-2.133333 0-108.8-40.533333-236.8-44.8C118.21696 584.533333 11.550293 646.4 9.41696 648.533333c-2.133333 2.133333-6.4 0-8.533333-2.133333-2.133333-2.133333 0-6.4 2.133333-8.533333 2.133333 0 108.8-61.866667 236.8-61.866667h6.4c132.266667 4.266667 238.933333 44.8 241.066667 44.8 2.133333 0 174.933333 44.8 330.666666 44.8 153.6 0 200.533333-42.666667 200.533334-42.666667 2.133333-2.133333 6.4-2.133333 8.533333 0 2.133333 2.133333 2.133333 6.4 0 8.533334 0 0-49.066667 44.8-206.933333 44.8z"  /><path d="M820.083627 721.066667c-155.733333 0-332.8-44.8-334.933334-44.8-2.133333 0-108.8-42.666667-236.8-44.8C118.21696 629.333333 11.550293 691.2 9.41696 693.333333c-2.133333 2.133333-6.4 0-8.533333-2.133333s0-6.4 2.133333-8.533333c2.133333 0 113.066667-64 243.2-61.866667 132.266667 2.133333 238.933333 44.8 241.066667 44.8 0 0 174.933333 44.8 330.666666 44.8 153.6 0 200.533333-42.666667 200.533334-42.666667 2.133333-2.133333 6.4-2.133333 8.533333 0 2.133333 2.133333 2.133333 6.4 0 8.533334 0 0-49.066667 44.8-206.933333 44.8z"  /><path d="M323.01696 445.866667a14.933333 14.933333 0 1 0 29.866667 0 14.933333 14.933333 0 1 0-29.866667 0Z" fill="#040000" /><path d="M269.683627 512a14.933333 14.933333 0 1 0 29.866666 0 14.933333 14.933333 0 1 0-29.866666 0Z" fill="#040000" /><path d="M352.883627 526.933333a14.933333 14.933333 0 1 0 29.866666 0 14.933333 14.933333 0 1 0-29.866666 0Z" fill="#040000" /><path d="M502.21696 825.6a14.933333 14.933333 0 1 0 29.866667 0 14.933333 14.933333 0 1 0-29.866667 0Z" fill="#040000" /><path d="M448.883627 891.733333a14.933333 14.933333 0 1 0 29.866666 0 14.933333 14.933333 0 1 0-29.866666 0Z" fill="#040000" /><path d="M534.21696 908.8a14.933333 14.933333 0 1 0 29.866667 0 14.933333 14.933333 0 1 0-29.866667 0Z" fill="#040000" /><path d="M856.350293 855.466667a14.933333 14.933333 0 1 0 29.866667 0 14.933333 14.933333 0 1 0-29.866667 0Z" fill="#040000" /><path d="M817.950293 928a14.933333 14.933333 0 1 0 29.866667 0 14.933333 14.933333 0 1 0-29.866667 0Z" fill="#040000" /><path d="M903.283627 925.866667a14.933333 14.933333 0 1 0 29.866666 0 14.933333 14.933333 0 1 0-29.866666 0Z" fill="#040000" /><path d="M160.883627 793.6a14.933333 14.933333 0 1 0 29.866666 0 14.933333 14.933333 0 1 0-29.866666 0Z" fill="#040000" /><path d="M141.683627 876.8a14.933333 14.933333 0 1 0 29.866666 0 14.933333 14.933333 0 1 0-29.866666 0Z" fill="#040000" /><path d="M224.883627 853.333333a14.933333 14.933333 0 1 0 29.866666 0 14.933333 14.933333 0 1 0-29.866666 0Z" fill="#040000" /><path d="M677.150293 516.266667a14.933333 14.933333 0 1 0 29.866667 0 14.933333 14.933333 0 1 0-29.866667 0Z" fill="#040000" /><path d="M630.21696 590.933333a14.933333 14.933333 0 1 0 29.866667 0 14.933333 14.933333 0 1 0-29.866667 0Z" fill="#040000" /><path d="M717.683627 593.066667a14.933333 14.933333 0 1 0 29.866666 0 14.933333 14.933333 0 1 0-29.866666 0Z" fill="#040000" /><path d="M837.150293 164.266667a14.933333 14.933333 0 1 0 29.866667 0 14.933333 14.933333 0 1 0-29.866667 0Z" fill="#040000" /><path d="M796.61696 238.933333a14.933333 14.933333 0 1 0 29.866667 0 14.933333 14.933333 0 1 0-29.866667 0Z" fill="#040000" /><path d="M881.950293 238.933333a14.933333 14.933333 0 1 0 29.866667 0 14.933333 14.933333 0 1 0-29.866667 0Z" fill="#040000" /><path d="M508.61696 128a14.933333 14.933333 0 1 0 29.866667 0 14.933333 14.933333 0 1 0-29.866667 0Z" fill="#040000" /><path d="M453.150293 194.133333a14.933333 14.933333 0 1 0 29.866667 0 14.933333 14.933333 0 1 0-29.866667 0Z" fill="#040000" /><path d="M536.350293 211.2a14.933333 14.933333 0 1 0 29.866667 0 14.933333 14.933333 0 1 0-29.866667 0Z" fill="#040000" /><path d="M122.483627 115.2a14.933333 14.933333 0 1 0 29.866666 0 14.933333 14.933333 0 1 0-29.866666 0Z" fill="#040000" /><path d="M99.01696 198.4a14.933333 14.933333 0 1 0 29.866667 0 14.933333 14.933333 0 1 0-29.866667 0Z" fill="#040000" /><path d="M182.21696 179.2a14.933333 14.933333 0 1 0 29.866667 0 14.933333 14.933333 0 1 0-29.866667 0Z" fill="#040000" /><path d="M467.891627 358.698667l47.210666 49.344-16.96 16.213333-47.189333-49.322667zM581.363627 360.213333l16.96 16.213334-47.146667 49.365333-16.981333-16.213333zM436.083627 445.866667h174.933333V469.333333h-174.933333zM436.083627 488.533333h179.2V512h-179.2zM436.083627 541.866667h179.2v23.466666h-179.2zM616.243627 584.490667l0.277333 23.466666-179.2 2.133334-0.256-23.445334z" fill="#d4237a" /><path d="M512.883627 454.4H536.350293v281.6h-23.466666z" fill="#d4237a" /></svg>