<?xml version="1.0" encoding="utf-8"?>
<!-- Generator: Adobe Illustrator 15.0.0, SVG Export Plug-In . SVG Version: 6.00 Build 0)  -->
<!DOCTYPE svg PUBLIC "-//W3C//DTD SVG 1.1//EN" "http://www.w3.org/Graphics/SVG/1.1/DTD/svg11.dtd">
<svg version="1.1" id="图层_1" xmlns="http://www.w3.org/2000/svg" xmlns:xlink="http://www.w3.org/1999/xlink" x="0px" y="0px"
	 width="48px" height="48px" viewBox="0 0 48 48" enable-background="new 0 0 48 48" xml:space="preserve">
<polyline fill="none" stroke="#000000" stroke-miterlimit="10" points="8.444,27.179 0,23.887 8.659,20.546 "/>
<line fill="none" stroke="#000000" stroke-miterlimit="10" x1="8.66" y1="21.492" x2="12.662" y2="21.575"/>
<line fill="none" stroke="#000000" stroke-miterlimit="10" x1="8.66" y1="23.186" x2="12.662" y2="23.269"/>
<line fill="none" stroke="#000000" stroke-miterlimit="10" x1="8.66" y1="24.938" x2="12.662" y2="25.021"/>
<line fill="none" stroke="#000000" stroke-miterlimit="10" x1="8.659" y1="26.452" x2="12.662" y2="26.535"/>
<polyline fill="none" stroke="#000000" stroke-miterlimit="10" points="32.443,14.957 24,11.665 32.659,8.324 "/>
<line fill="none" stroke="#000000" stroke-miterlimit="10" x1="32.66" y1="9.271" x2="36.662" y2="9.354"/>
<line fill="none" stroke="#000000" stroke-miterlimit="10" x1="32.66" y1="10.964" x2="36.662" y2="11.047"/>
<line fill="none" stroke="#000000" stroke-miterlimit="10" x1="32.66" y1="12.716" x2="36.662" y2="12.799"/>
<line fill="none" stroke="#000000" stroke-miterlimit="10" x1="32.659" y1="14.23" x2="36.662" y2="14.313"/>
<polyline fill="none" stroke="#000000" stroke-miterlimit="10" points="32.443,39.316 24,36.025 32.659,32.684 "/>
<line fill="none" stroke="#000000" stroke-miterlimit="10" x1="32.66" y1="33.631" x2="36.662" y2="33.713"/>
<line fill="none" stroke="#000000" stroke-miterlimit="10" x1="32.66" y1="35.324" x2="36.662" y2="35.406"/>
<line fill="none" stroke="#000000" stroke-miterlimit="10" x1="32.66" y1="37.076" x2="36.662" y2="37.158"/>
<line fill="none" stroke="#000000" stroke-miterlimit="10" x1="32.659" y1="38.59" x2="36.662" y2="38.674"/>
</svg>
