<?xml version='1.0' encoding='utf-8'?>
<!DOCTYPE svg PUBLIC '-//W3C//DTD SVG 1.1//EN' 'http://www.w3.org/Graphics/SVG/1.1/DTD/svg11.dtd'>
<!-- Generator: Adobe Illustrator 16.0.0, SVG Export Plug-In . SVG Version: 6.00 Build 0)  -->
<svg version="1.1" xml:space="preserve" xmlns="http://www.w3.org/2000/svg" x="0px" width="48px" viewBox="0 0 48 48" enable-background="new 0 0 48 48" y="0px" xmlns:xlink="http://www.w3.org/1999/xlink" height="48px">
    <g id="凝灰质砂岩">
        <g id="凝灰质砂岩_1_">
            <line y1="3.103" fill="none" stroke-miterlimit="10" x2="48" y2="3.103" stroke="#EFB134" x1="0"/>
            <line y1="18.187" fill="none" stroke-miterlimit="10" x2="48" y2="18.187" stroke="#EFB134" x1="0"/>
            <line y1="33.604" fill="none" stroke-miterlimit="10" x2="48" y2="33.604" stroke="#EFB134" x1="0"/>
            <circle r="1.445" stroke-width="0.5" cx="3.049" cy="9.77" fill="none" stroke-miterlimit="10" stroke="#EFB134"/>
            <line y1="6.77" fill="none" stroke-miterlimit="10" x2="6" y2="15.103" stroke="#EFB134" x1="14.333"/>
            <line y1="7.27" fill="none" stroke-miterlimit="10" x2="42.334" y2="15.687" stroke="#EFB134" x1="33.917"/>
            <circle r="1.445" stroke-width="0.5" cx="44.609" cy="10.033" fill="none" stroke-miterlimit="10" stroke="#EFB134"/>
            <circle r="1.445" stroke-width="0.5" cx="20.209" cy="10.478" fill="none" stroke-miterlimit="10" stroke="#EFB134"/>
            <circle r="1.445" stroke-width="0.5" cx="27.791" cy="10.478" fill="none" stroke-miterlimit="10" stroke="#EFB134"/>
            <circle r="1.445" stroke-width="0.5" cx="2.209" cy="26.704" fill="none" stroke-miterlimit="10" stroke="#EFB134"/>
            <circle r="1.445" stroke-width="0.5" cx="9.791" cy="26.704" fill="none" stroke-miterlimit="10" stroke="#EFB134"/>
            <line y1="21.728" fill="none" stroke-miterlimit="10" x2="24.285" y2="31.68" stroke="#EFB134" x1="14.333"/>
            <circle r="1.445" stroke-width="0.5" cx="27.333" cy="25.938" fill="none" stroke-miterlimit="10" stroke="#EFB134"/>
            <circle r="1.445" stroke-width="0.5" cx="34.915" cy="25.938" fill="none" stroke-miterlimit="10" stroke="#EFB134"/>
            <line y1="21.77" fill="none" stroke-miterlimit="10" x2="38.997" y2="30.104" stroke="#EFB134" x1="47.331"/>
            <ellipse stroke-width="0.5" cx="2.89" cy="42.581" fill="none" ry="1.162" stroke-miterlimit="10" stroke="#EFB134" rx="1.445"/>
            <line y1="44.992" fill="none" stroke-miterlimit="10" x2="5.841" y2="38.294" stroke="#EFB134" x1="14.174"/>
            <line y1="44.59" fill="none" stroke-miterlimit="10" x2="42.175" y2="37.824" stroke="#EFB134" x1="33.758"/>
            <ellipse stroke-width="0.5" cx="44.45" cy="42.368" fill="none" ry="1.16" stroke-miterlimit="10" stroke="#EFB134" rx="1.444"/>
            <ellipse stroke-width="0.5" cx="20.05" cy="42.011" fill="none" ry="1.162" stroke-miterlimit="10" stroke="#EFB134" rx="1.445"/>
            <ellipse stroke-width="0.5" cx="27.631" cy="42.011" fill="none" ry="1.162" stroke-miterlimit="10" stroke="#EFB134" rx="1.445"/>
        </g>
    </g>
</svg>
