<?xml version='1.0' encoding='utf-8'?>
<!DOCTYPE svg PUBLIC '-//W3C//DTD SVG 1.1//EN' 'http://www.w3.org/Graphics/SVG/1.1/DTD/svg11.dtd'>
<!-- Generator: Adobe Illustrator 16.0.0, SVG Export Plug-In . SVG Version: 6.00 Build 0)  -->
<svg version="1.1" xml:space="preserve" xmlns="http://www.w3.org/2000/svg" x="0px" width="48px" viewBox="0 0 48 48" enable-background="new 0 0 48 48" y="0px" xmlns:xlink="http://www.w3.org/1999/xlink" height="48px">
    <g id="卵石">
        <g id="卵石_1_">
            <ellipse cx="7.484" cy="12.55" transform="matrix(-0.2269 -0.9739 0.9739 -0.2269 -3.0409 22.6862)" fill="none" ry="3.871" stroke-miterlimit="10" stroke="#359DD1" rx="5.766"/>
            <ellipse cx="22.908" cy="12.048" transform="matrix(-0.227 -0.9739 0.9739 -0.227 16.3738 37.0931)" fill="none" ry="3.871" stroke-miterlimit="10" stroke="#359DD1" rx="5.766"/>
            <ellipse cx="41.922" cy="12.551" transform="matrix(-0.227 -0.9739 0.9739 -0.227 39.2148 56.227)" fill="none" ry="3.872" stroke-miterlimit="10" stroke="#359DD1" rx="5.765"/>
            <ellipse cx="6.18" cy="35.5" transform="matrix(-0.2271 -0.9739 0.9739 -0.2271 -26.9898 49.581)" fill="none" ry="3.871" stroke-miterlimit="10" stroke="#359DD1" rx="5.766"/>
            <ellipse cx="21.011" cy="35.5" transform="matrix(-0.2271 -0.9739 0.9739 -0.2271 -8.7904 64.0235)" fill="none" ry="3.871" stroke-miterlimit="10" stroke="#359DD1" rx="5.766"/>
            <ellipse cx="36.653" cy="34.225" transform="matrix(-0.2271 -0.9739 0.9739 -0.2271 11.6479 77.6932)" fill="none" ry="3.871" stroke-miterlimit="10" stroke="#359DD1" rx="5.766"/>
        </g>
    </g>
</svg>
