<?xml version="1.0" encoding="utf-8"?>
<!-- Generator: Adobe Illustrator 22.1.0, SVG Export Plug-In . SVG Version: 6.00 Build 0)  -->
<svg version="1.1" xml:space="preserve" xmlns="http://www.w3.org/2000/svg" x="0px" y="0px" width="48px" height="48px" viewBox="0 0 48 48" enable-background="new 0 0 48 48" xmlns:xlink="http://www.w3.org/1999/xlink">
<style type="text/css">
	.st0{fill:none;}
</style>
<polygon points="48,31.4 31.5,48 32.9,48 48,32.8 "/>
<polygon points="15,0 0,15.1 0,16.5 16.4,0 "/>
<polygon points="47.1,0 0,47.5 0,48.1 0.8,48.1 48,0.5 48,0 "/>
<g>
	<path d="M31.4,0l-3.3,3.4c-0.2,0.2-0.2,0.5,0,0.7c0.3,0.3,0.6,0.3,0.8,0l4-4.1H31.4z"/>
	<path d="M25,6.9c-0.2,0-0.3,0.1-0.3,0.2l-6.5,6.6c-0.2,0.2-0.2,0.5,0,0.7s0.5,0.2,0.7,0l6.5-6.6c0.2-0.2,0.2-0.5,0-0.7
		C25.2,7,25.1,6.9,25,6.9z"/>
	<path d="M14,18.2c-0.2,0-0.3,0.1-0.3,0.2L7.2,25c-0.2,0.2-0.2,0.5,0,0.7s0.5,0.2,0.7,0l6.5-6.6c0.2-0.2,0.2-0.5,0-0.7
		C14.3,18.3,14.1,18.2,14,18.2z"/>
	<path d="M3.5,28.2c-0.1,0-0.3,0.1-0.3,0.2L0,31.5v1.4L3.9,29c0.2-0.2,0.2-0.5,0-0.7C3.8,28.3,3.6,28.2,3.5,28.2z"/>
</g>
<g>
	<path d="M19.2,43.9l-4,4.1h1.4l3.3-3.4c0.2-0.2,0.2-0.5,0-0.7C19.7,43.7,19.3,43.7,19.2,43.9z"/>
	<path d="M29.2,33.6l-6.5,6.6c-0.2,0.2-0.2,0.5,0,0.7c0.1,0.1,0.3,0.2,0.3,0.2c0.2,0,0.3-0.1,0.3-0.2l6.5-6.6c0.2-0.2,0.2-0.5,0-0.7
		S29.3,33.5,29.2,33.6z"/>
	<path d="M40.1,22.3l-6.5,6.6c-0.2,0.2-0.2,0.5,0,0.7c0.1,0.1,0.3,0.2,0.3,0.2c0.2,0,0.3-0.1,0.3-0.2l6.5-6.6c0.2-0.2,0.2-0.5,0-0.7
		S40.3,22.2,40.1,22.3z"/>
	<path d="M44.1,19c-0.2,0.2-0.2,0.5,0,0.7c0.1,0.1,0.3,0.2,0.3,0.2s0.3-0.1,0.3-0.2l3.2-3.1v-1.4L44.1,19z"/>
</g>
<g>
	<polygon class="st0" points="31.1,48 0,16.7 0,31.5 16.5,48 	"/>
	<polygon class="st0" points="48,32.9 15.4,0 0.9,0 48,47.6 	"/>
	<polygon class="st0" points="47.1,48 0,0.6 0,15.2 32.5,48 	"/>
	<polygon class="st0" points="0,32.9 0,48 15.1,48 	"/>
	<path class="st0" d="M48,0"/>
	<line class="st0" x1="32.8" y1="0" x2="48" y2="15.3"/>
	<path class="st0" d="M48,31.5"/>
	<polyline class="st0" points="48,16.7 31.4,0 16.9,0 	"/>
	<polyline points="16.9,0 15.4,0 48,32.9 48,31.5 	"/>
	<polygon points="48,15.3 32.8,0 31.4,0 48,16.7 	"/>
	<polygon points="48,48 48,47.6 0.9,0 0,0 0,0.6 47.1,48 	"/>
	<polygon points="32.5,48 0,15.2 0,16.7 31.1,48 	"/>
	<polygon points="16.5,48 0,31.5 0,32.9 15.1,48 	"/>
</g>
</svg>
