<?xml version='1.0' encoding='utf-8'?>
<!DOCTYPE svg PUBLIC '-//W3C//DTD SVG 1.1//EN' 'http://www.w3.org/Graphics/SVG/1.1/DTD/svg11.dtd'>
<!-- Generator: Adobe Illustrator 16.0.0, SVG Export Plug-In . SVG Version: 6.00 Build 0)  -->
<svg version="1.1" xml:space="preserve" xmlns="http://www.w3.org/2000/svg" x="0px" width="48px" viewBox="0 0 48 48" enable-background="new 0 0 48 48" y="0px" xmlns:xlink="http://www.w3.org/1999/xlink" height="48px">
    <g id="变质砂岩">
        <line y1="8.499" fill="none" stroke-miterlimit="10" x2="48" y2="8.499" stroke="#000000" x1="0"/>
        <line y1="11.083" fill="none" stroke-miterlimit="10" x2="48" y2="11.083" stroke="#000000" x1="0"/>
        <line y1="25.166" fill="none" stroke-miterlimit="10" x2="48" y2="25.166" stroke="#000000" x1="0"/>
        <line y1="27.916" fill="none" stroke-miterlimit="10" x2="48" y2="27.916" stroke="#000000" x1="0"/>
        <line y1="43.166" fill="none" stroke-miterlimit="10" x2="48" y2="43.166" stroke="#000000" x1="0"/>
        <line y1="45.083" fill="none" stroke-miterlimit="10" x2="48" y2="45.083" stroke="#000000" x1="0"/>
        <circle r="1.75" stroke-width="0.75" cx="4.917" cy="4.998" fill="none" stroke-miterlimit="10" stroke="#000000"/>
        <circle r="1.75" stroke-width="0.75" cx="13.167" cy="4.998" fill="none" stroke-miterlimit="10" stroke="#000000"/>
        <circle r="1.75" stroke-width="0.75" cx="35.789" cy="20.06" fill="none" stroke-miterlimit="10" stroke="#000000"/>
        <circle r="1.75" stroke-width="0.75" cx="44.376" cy="20.06" fill="none" stroke-miterlimit="10" stroke="#000000"/>
        <circle r="1.75" stroke-width="0.75" cx="24.707" cy="35.081" fill="none" stroke-miterlimit="10" stroke="#000000"/>
        <circle r="1.75" stroke-width="0.75" cx="32.294" cy="35.081" fill="none" stroke-miterlimit="10" stroke="#000000"/>
        <line y1="1.683" fill="none" stroke-miterlimit="10" x2="36.813" y2="7.222" stroke="#000000" x1="31.274"/>
        <line y1="1.713" fill="none" stroke-miterlimit="10" x2="31.306" y2="7.191" stroke="#000000" x1="36.783"/>
        <line y1="16.27" fill="none" stroke-miterlimit="10" x2="23.602" y2="21.809" stroke="#000000" x1="18.063"/>
        <line y1="16.3" fill="none" stroke-miterlimit="10" x2="18.094" y2="21.779" stroke="#000000" x1="23.572"/>
        <line y1="31.936" fill="none" stroke-miterlimit="10" x2="10.456" y2="37.475" stroke="#000000" x1="4.917"/>
        <line y1="31.967" fill="none" stroke-miterlimit="10" x2="4.948" y2="37.445" stroke="#000000" x1="10.426"/>
    </g>
</svg>
