<?xml version='1.0' encoding='utf-8'?>
<!DOCTYPE svg PUBLIC '-//W3C//DTD SVG 1.1//EN' 'http://www.w3.org/Graphics/SVG/1.1/DTD/svg11.dtd'>
<!-- Generator: Adobe Illustrator 16.0.0, SVG Export Plug-In . SVG Version: 6.00 Build 0)  -->
<svg version="1.1" xml:space="preserve" xmlns="http://www.w3.org/2000/svg" x="0px" width="48px" viewBox="0 0 48 48" enable-background="new 0 0 48 48" y="0px" xmlns:xlink="http://www.w3.org/1999/xlink" height="48px">
    <g id="古土壤层">
        <g id="古土壤层_1_">
            <path d="M0.13,17.38c0,0,7.379-3.255,16.784-1.017&#xa;&#x9;&#x9;&#x9;c4.767,0.881,8.49,1.763,12.604-0.204c2.678-0.339,3.396-0.718,8.359,0.319c2.938,0.63,5.941,1.579,10.122-1.336" fill="none" stroke-miterlimit="10" stroke="#040000"/>
            <path d="M0.064,32.236c0,0,3.134,0.949,10.841-0.68&#xa;&#x9;&#x9;&#x9;c2.743-0.541,3.788-1.424,9.535,0c1.959,0.746,4.767,2.85,8.686-0.203c1.96-1.017,3.593-2.711,7.772,0&#xa;&#x9;&#x9;&#x9;c3.004,1.356,2.547,2.576,11.035-0.338" fill="none" stroke-miterlimit="10" stroke="#040000"/>
            <line stroke-width="2" y1="15.888" fill="none" stroke-miterlimit="10" x2="5.935" y2="32.354" stroke="#040000" x1="5.901"/>
            <line stroke-width="2" y1="15.597" fill="none" stroke-miterlimit="10" x2="9.135" y2="31.9" stroke="#040000" x1="9.165"/>
            <line stroke-width="2" y1="16.709" fill="none" stroke-miterlimit="10" x2="21.773" y2="31.9" stroke="#040000" x1="21.773"/>
            <line stroke-width="2" y1="17.184" fill="none" stroke-miterlimit="10" x2="25.758" y2="32.354" stroke="#040000" x1="25.758"/>
            <line stroke-width="2" y1="16.479" fill="none" stroke-miterlimit="10" x2="37.878" y2="31.425" stroke="#040000" x1="37.878"/>
            <line stroke-width="2" y1="17.184" fill="none" stroke-miterlimit="10" x2="41.77" y2="32.729" stroke="#040000" x1="41.75"/>
        </g>
    </g>
</svg>
