<svg xmlns="http://www.w3.org/2000/svg" width="48" height="48" viewBox="0 0 48 48">
  <g id="古土壤" transform="translate(-345 -55)">
    <rect id="矩形_14" data-name="矩形 14" width="48" height="48" transform="translate(345 55)" fill="none"/>
    <g id="古土壤-2" data-name="古土壤" transform="translate(345.4 55)">
      <path id="直线_23" data-name="直线 23" d="M0,4.78A.78.78,0,0,1-.78,4V0A.78.78,0,0,1,0-.78.78.78,0,0,1,.78,0V4A.78.78,0,0,1,0,4.78Z" transform="translate(24 1)"/>
      <path id="直线_24" data-name="直线 24" d="M.8,48H-.8V0H.8Z" transform="translate(4.6)"/>
      <path id="直线_25" data-name="直线 25" d="M.8,48H-.8V0H.8Z" transform="translate(14.6)"/>
      <path id="直线_26" data-name="直线 26" d="M.8,48H-.8V0H.8Z" transform="translate(24)"/>
      <path id="直线_27" data-name="直线 27" d="M.8,48H-.8V0H.8Z" transform="translate(33.9)"/>
      <path id="直线_28" data-name="直线 28" d="M.8,48H-.8V0H.8Z" transform="translate(43.4)"/>
    </g>
  </g>
</svg>
