<?xml version="1.0" encoding="utf-8"?>
<!-- Generator: Adobe Illustrator 21.0.0, SVG Export Plug-In . SVG Version: 6.00 Build 0)  -->
<svg version="1.1" id="图层_1" xmlns="http://www.w3.org/2000/svg" xmlns:xlink="http://www.w3.org/1999/xlink" x="0px" y="0px"
	 width="48px" height="48px" viewBox="0 0 48 48" style="enable-background:new 0 0 48 48;" xml:space="preserve">
<style type="text/css">
	.st0{fill:none;stroke:#595758;stroke-miterlimit:10;}
	.st1{fill:none;stroke:#595758;stroke-miterlimit:10;stroke-dasharray:10.8257,10.8257;}
	.st2{fill:none;stroke:#595758;stroke-miterlimit:10;stroke-dasharray:10.8021,10.8021;}
</style>
<line class="st0" x1="0" y1="48.1" x2="47.8" y2="0.3"/>
<line class="st0" x1="32.2" y1="48.1" x2="48" y2="32.3"/>
<line class="st0" x1="0" y1="16.2" x2="16" y2="0.2"/>
<g>
	<g>
		<line class="st0" x1="0.1" y1="31.8" x2="4.3" y2="27.6"/>
		<line class="st1" x1="12" y1="19.9" x2="23.4" y2="8.4"/>
		<line class="st0" x1="27.3" y1="4.5" x2="31.5" y2="0.3"/>
	</g>
</g>
<g>
	<g>
		<line class="st0" x1="16.5" y1="48.1" x2="20.7" y2="43.9"/>
		<line class="st2" x1="28.4" y1="36.2" x2="39.8" y2="24.8"/>
		<line class="st0" x1="43.7" y1="20.9" x2="47.9" y2="16.7"/>
	</g>
</g>
<g>
	<circle class="st0" cx="4.5" cy="4.5" r="1.5"/>
	<circle class="st0" cx="4.5" cy="12.3" r="1.5"/>
	<circle class="st0" cx="4.5" cy="20.2" r="1.5"/>
	<circle class="st0" cx="4.5" cy="28" r="1.5"/>
	<circle class="st0" cx="4.5" cy="35.8" r="1.5"/>
	<circle class="st0" cx="4.5" cy="43.6" r="1.5"/>
</g>
<g>
	<circle class="st0" cx="17.7" cy="4.5" r="1.5"/>
	<circle class="st0" cx="17.7" cy="12.3" r="1.5"/>
	<circle class="st0" cx="17.7" cy="20.2" r="1.5"/>
	<circle class="st0" cx="17.7" cy="28" r="1.5"/>
	<circle class="st0" cx="17.7" cy="35.8" r="1.5"/>
	<circle class="st0" cx="17.7" cy="43.6" r="1.5"/>
</g>
<g>
	<circle class="st0" cx="44.1" cy="4.5" r="1.5"/>
	<circle class="st0" cx="44.1" cy="12.3" r="1.5"/>
	<circle class="st0" cx="44.1" cy="20.2" r="1.5"/>
	<circle class="st0" cx="44.1" cy="28" r="1.5"/>
	<circle class="st0" cx="44.1" cy="35.8" r="1.5"/>
	<circle class="st0" cx="44.1" cy="43.6" r="1.5"/>
</g>
<g>
	<circle class="st0" cx="30.9" cy="4.5" r="1.5"/>
	<circle class="st0" cx="30.9" cy="12.3" r="1.5"/>
	<circle class="st0" cx="30.9" cy="20.2" r="1.5"/>
	<circle class="st0" cx="30.9" cy="28" r="1.5"/>
	<circle class="st0" cx="30.9" cy="35.8" r="1.5"/>
	<circle class="st0" cx="30.9" cy="43.6" r="1.5"/>
</g>
</svg>
