<?xml version="1.0" encoding="utf-8"?>
<!-- Generator: Adobe Illustrator 21.0.0, SVG Export Plug-In . SVG Version: 6.00 Build 0)  -->
<svg version="1.1" id="图层_1" xmlns="http://www.w3.org/2000/svg" xmlns:xlink="http://www.w3.org/1999/xlink" x="0px" y="0px"
	 width="48px" height="48px" viewBox="0 0 48 48" style="enable-background:new 0 0 48 48;" xml:space="preserve">
<style type="text/css">
	.st0{fill:none;stroke:#595758;stroke-miterlimit:10;}
	.st1{fill:none;stroke:#595758;stroke-miterlimit:10;stroke-dasharray:11.1199,11.1199;}
	.st2{fill:none;stroke:#595758;stroke-miterlimit:10;stroke-dasharray:10.8257,10.8257;}
	.st3{fill:none;stroke:#595758;stroke-miterlimit:10;stroke-dasharray:10.8021,10.8021;}
	.st4{fill:none;stroke:#000000;stroke-miterlimit:10;}
</style>
<g>
	<g>
		<line class="st0" x1="0" y1="48.1" x2="4.2" y2="43.9"/>
		<line class="st1" x1="12.1" y1="36" x2="39.6" y2="8.5"/>
		<line class="st0" x1="43.6" y1="4.5" x2="47.8" y2="0.3"/>
	</g>
</g>
<g>
	<g>
		<line class="st0" x1="32.2" y1="48.1" x2="36.4" y2="43.9"/>
		<line class="st0" x1="43.8" y1="36.5" x2="48" y2="32.3"/>
	</g>
</g>
<g>
	<g>
		<line class="st0" x1="0" y1="16.2" x2="4.2" y2="12"/>
		<line class="st0" x1="11.8" y1="4.4" x2="16" y2="0.2"/>
	</g>
</g>
<g>
	<g>
		<line class="st0" x1="0.1" y1="31.8" x2="4.3" y2="27.6"/>
		<line class="st2" x1="12" y1="19.9" x2="23.4" y2="8.4"/>
		<line class="st0" x1="27.3" y1="4.5" x2="31.5" y2="0.3"/>
	</g>
</g>
<g>
	<g>
		<line class="st0" x1="16.5" y1="48.1" x2="20.7" y2="43.9"/>
		<line class="st3" x1="28.4" y1="36.2" x2="39.8" y2="24.8"/>
		<line class="st0" x1="43.7" y1="20.9" x2="47.9" y2="16.7"/>
	</g>
</g>
<polygon class="st4" points="7.7,5.2 4.9,8.7 8.8,10.6 8.6,6.9 "/>
<polygon class="st4" points="23,5.2 20.3,8.7 24.2,10.6 28.5,7.9 "/>
<polygon class="st4" points="15.3,18.2 14.1,19.7 18,21.6 17.8,17.9 "/>
<polygon class="st4" points="30.6,17.3 28.4,19.5 31.4,21.6 32.8,18.9 "/>
<polygon class="st4" points="39.9,5.4 37.6,7 37.3,9.4 41.1,9.1 "/>
<polygon class="st4" points="7.7,26.6 4.9,30.1 8.8,32 8.6,28.3 "/>
<polygon class="st4" points="23,26.6 20.3,30.1 24.2,32 28.5,29.3 "/>
<polygon class="st4" points="15.3,39.6 14.1,41.1 18,43 17.8,39.3 "/>
<polygon class="st4" points="30.6,38.7 28.4,40.9 31.4,43 32.8,40.3 "/>
<polygon class="st4" points="39.9,26.8 37.6,28.4 37.3,30.8 41.1,30.6 "/>
</svg>
