<?xml version="1.0" encoding="utf-8"?>
<!-- Generator: Adobe Illustrator 21.0.0, SVG Export Plug-In . SVG Version: 6.00 Build 0)  -->
<svg version="1.1" id="图层_1" xmlns="http://www.w3.org/2000/svg" xmlns:xlink="http://www.w3.org/1999/xlink" x="0px" y="0px"
	 width="48px" height="48px" viewBox="0 0 48 48" style="enable-background:new 0 0 48 48;" xml:space="preserve">
<style type="text/css">
	.st0{fill:none;stroke:#595758;stroke-miterlimit:10;}
</style>
<g>
	<line class="st0" x1="0" y1="48.1" x2="47.8" y2="0.3"/>
	<line class="st0" x1="32.2" y1="48.1" x2="48" y2="32.3"/>
	<line class="st0" x1="0" y1="16.2" x2="16" y2="0.2"/>
	<line class="st0" x1="0.1" y1="31.8" x2="31.5" y2="0.3"/>
	<line class="st0" x1="16.5" y1="48.1" x2="47.9" y2="16.7"/>
</g>
<g>
	<circle class="st0" cx="4.2" cy="4.7" r="1.5"/>
	<circle class="st0" cx="4.2" cy="12.5" r="1.5"/>
	<circle class="st0" cx="4.2" cy="20.3" r="1.5"/>
	<circle class="st0" cx="4.2" cy="28.1" r="1.5"/>
	<circle class="st0" cx="4.2" cy="35.9" r="1.5"/>
	<circle class="st0" cx="4.2" cy="43.7" r="1.5"/>
</g>
<g>
	<circle class="st0" cx="17.4" cy="4.7" r="1.5"/>
	<circle class="st0" cx="17.4" cy="12.5" r="1.5"/>
	<circle class="st0" cx="17.4" cy="20.3" r="1.5"/>
	<circle class="st0" cx="17.4" cy="28.1" r="1.5"/>
	<circle class="st0" cx="17.4" cy="35.9" r="1.5"/>
	<circle class="st0" cx="17.4" cy="43.7" r="1.5"/>
</g>
<g>
	<circle class="st0" cx="43.8" cy="4.7" r="1.5"/>
	<circle class="st0" cx="43.8" cy="12.5" r="1.5"/>
	<circle class="st0" cx="43.8" cy="20.3" r="1.5"/>
	<circle class="st0" cx="43.8" cy="28.1" r="1.5"/>
	<circle class="st0" cx="43.8" cy="35.9" r="1.5"/>
	<circle class="st0" cx="43.8" cy="43.7" r="1.5"/>
</g>
<g>
	<circle class="st0" cx="30.6" cy="4.7" r="1.5"/>
	<circle class="st0" cx="30.6" cy="12.5" r="1.5"/>
	<circle class="st0" cx="30.6" cy="20.3" r="1.5"/>
	<circle class="st0" cx="30.6" cy="28.1" r="1.5"/>
	<circle class="st0" cx="30.6" cy="35.9" r="1.5"/>
	<circle class="st0" cx="30.6" cy="43.7" r="1.5"/>
</g>
</svg>
