<?xml version="1.0" encoding="utf-8"?>
<!-- Generator: Adobe Illustrator 22.1.0, SVG Export Plug-In . SVG Version: 6.00 Build 0)  -->
<svg version="1.1" id="图层_1" xmlns="http://www.w3.org/2000/svg" xmlns:xlink="http://www.w3.org/1999/xlink" x="0px" y="0px"
	 viewBox="0 0 48 48" style="enable-background:new 0 0 48 48;" xml:space="preserve">
<style type="text/css">
	.st0{fill:none;stroke:#595758;stroke-miterlimit:10;}
</style>
<path d="M8.8,10.9H7.6c-0.6,0-1.2-0.5-1.2-1.2l0,0c0-0.6,0.5-1.2,1.2-1.2h1.1c0.6,0,1.2,0.5,1.2,1.2l0,0C9.8,10.4,9.4,10.9,8.8,10.9
	z"/>
<path d="M24.5,11h-1.2c-0.6,0-1.2-0.5-1.2-1.2l0,0c0-0.6,0.5-1.2,1.2-1.2h1.2c0.6,0,1.2,0.5,1.2,1.2l0,0C25.7,10.5,25.1,11,24.5,11z
	"/>
<path d="M40.7,11h-1.2c-0.6,0-1.2-0.5-1.2-1.2l0,0c0-0.6,0.5-1.2,1.2-1.2h1.2c0.6,0,1.2,0.5,1.2,1.2l0,0C41.9,10.5,41.3,11,40.7,11z
	"/>
<path class="st0" d="M6.6,6.7c0,0,0.7-3.2,4.3,0.1c3.2,3,4.4-0.9,4.1-1"/>
<path class="st0" d="M22.4,6.8c0,0,0.7-3.2,4.3,0.1c3.2,3,4.4-0.9,4.1-1"/>
<path class="st0" d="M38.5,6.8c0,0,0.7-3.2,4.3,0.1c3.2,3,4.4-0.9,4.1-1"/>
<path d="M8.8,26.8H7.6c-0.6,0-1.2-0.5-1.2-1.2l0,0c0-0.6,0.5-1.2,1.2-1.2h1.1c0.6,0,1.2,0.5,1.2,1.2l0,0C9.8,26.3,9.4,26.8,8.8,26.8
	z"/>
<path d="M24.5,27h-1.2c-0.6,0-1.2-0.5-1.2-1.2l0,0c0-0.6,0.5-1.2,1.2-1.2h1.2c0.6,0,1.2,0.5,1.2,1.2l0,0C25.7,26.5,25.1,27,24.5,27z
	"/>
<path d="M40.7,27h-1.2c-0.6,0-1.2-0.5-1.2-1.2l0,0c0-0.6,0.5-1.2,1.2-1.2h1.2c0.6,0,1.2,0.5,1.2,1.2l0,0C41.9,26.5,41.3,27,40.7,27z
	"/>
<path class="st0" d="M6.6,22.6c0,0,0.7-3.2,4.3,0.1c3.2,3,4.4-0.9,4.1-1"/>
<path class="st0" d="M22.4,22.8c0,0,0.7-3.2,4.3,0.1c3.2,3,4.4-0.9,4.1-1"/>
<path class="st0" d="M38.5,22.8c0,0,0.7-3.2,4.3,0.1c3.2,3,4.4-0.9,4.1-1"/>
<path d="M8.8,42.7H7.6c-0.6,0-1.2-0.5-1.2-1.2l0,0c0-0.6,0.5-1.2,1.2-1.2h1.1c0.6,0,1.2,0.5,1.2,1.2l0,0C9.8,42.2,9.4,42.7,8.8,42.7
	z"/>
<path d="M24.5,42.9h-1.2c-0.6,0-1.2-0.5-1.2-1.2l0,0c0-0.6,0.5-1.2,1.2-1.2h1.2c0.6,0,1.2,0.5,1.2,1.2l0,0
	C25.7,42.4,25.1,42.9,24.5,42.9z"/>
<path d="M40.7,42.9h-1.2c-0.6,0-1.2-0.5-1.2-1.2l0,0c0-0.6,0.5-1.2,1.2-1.2h1.2c0.6,0,1.2,0.5,1.2,1.2l0,0
	C41.9,42.4,41.3,42.9,40.7,42.9z"/>
<path class="st0" d="M6.6,38.5c0,0,0.7-3.2,4.3,0.1c3.2,3,4.4-0.9,4.1-1"/>
<path class="st0" d="M22.4,38.7c0,0,0.7-3.2,4.3,0.1c3.2,3,4.4-0.9,4.1-1"/>
<path class="st0" d="M38.5,38.7c0,0,0.7-3.2,4.3,0.1c3.2,3,4.4-0.9,4.1-1"/>
</svg>
