<svg xmlns="http://www.w3.org/2000/svg" width="48" height="48.25" viewBox="0 0 48 48.25">
  <g id="含粘土中细砂" transform="translate(-2286 -55.75)">
    <path id="路径_3188" data-name="路径 3188" d="M0,0H48V48H0Z" transform="translate(2286 56)" fill="none"/>
    <g id="含粘土中细砂-2" data-name="含粘土中细砂" transform="translate(2286 55.7)">
      <path id="直线_112" data-name="直线 112" d="M48,.5H0v-1H48Z" transform="translate(0 12.1)"/>
      <path id="直线_113" data-name="直线 113" d="M48,.25H0v-.5H48Z" transform="translate(0 0.3)"/>
      <path id="直线_114" data-name="直线 114" d="M48,.25H0v-.5H48Z" transform="translate(0 47.8)"/>
      <path id="直线_115" data-name="直线 115" d="M48,.5H0v-1H48Z" transform="translate(0 24)"/>
      <path id="直线_116" data-name="直线 116" d="M48,.5H0v-1H48Z" transform="translate(0 35.9)"/>
      <g id="组_609" data-name="组 609">
        <path id="路径_1080" data-name="路径 1080" d="M9,43.2H8.2a1.367,1.367,0,0,1-1.4-1.4h0a1.367,1.367,0,0,1,1.4-1.4H9a1.367,1.367,0,0,1,1.4,1.4h0A1.43,1.43,0,0,1,9,43.2Z"/>
        <path id="路径_1081" data-name="路径 1081" d="M16.7,43.2h-.8a1.367,1.367,0,0,1-1.4-1.4h0a1.367,1.367,0,0,1,1.4-1.4h.8a1.367,1.367,0,0,1,1.4,1.4h0A1.43,1.43,0,0,1,16.7,43.2Z"/>
        <path id="路径_1082" data-name="路径 1082" d="M24.4,43.2h-.8a1.367,1.367,0,0,1-1.4-1.4h0a1.367,1.367,0,0,1,1.4-1.4h.8a1.367,1.367,0,0,1,1.4,1.4h0A1.367,1.367,0,0,1,24.4,43.2Z"/>
        <path id="路径_1083" data-name="路径 1083" d="M32.1,43.2h-.8a1.367,1.367,0,0,1-1.4-1.4h0a1.367,1.367,0,0,1,1.4-1.4h.8a1.367,1.367,0,0,1,1.4,1.4h0A1.367,1.367,0,0,1,32.1,43.2Z"/>
        <path id="路径_1084" data-name="路径 1084" d="M39.8,43.2H39a1.367,1.367,0,0,1-1.4-1.4h0A1.367,1.367,0,0,1,39,40.4h.8a1.367,1.367,0,0,1,1.4,1.4h0A1.367,1.367,0,0,1,39.8,43.2Z"/>
        <path id="路径_1085" data-name="路径 1085" d="M48,43.2h-.4a1.367,1.367,0,0,1-1.4-1.4h0a1.367,1.367,0,0,1,1.4-1.4H48"/>
        <path id="路径_1086" data-name="路径 1086" d="M0,40.4H.4a1.367,1.367,0,0,1,1.4,1.4h0A1.367,1.367,0,0,1,.4,43.2H0"/>
      </g>
      <g id="组_610" data-name="组 610">
        <path id="路径_1087" data-name="路径 1087" d="M9,31.3H8.2a1.367,1.367,0,0,1-1.4-1.4h0a1.367,1.367,0,0,1,1.4-1.4H9a1.367,1.367,0,0,1,1.4,1.4h0A1.43,1.43,0,0,1,9,31.3Z"/>
        <path id="路径_1088" data-name="路径 1088" d="M16.7,31.3h-.8a1.367,1.367,0,0,1-1.4-1.4h0a1.367,1.367,0,0,1,1.4-1.4h.8a1.367,1.367,0,0,1,1.4,1.4h0A1.43,1.43,0,0,1,16.7,31.3Z"/>
        <path id="路径_1089" data-name="路径 1089" d="M24.4,31.3h-.8a1.367,1.367,0,0,1-1.4-1.4h0a1.367,1.367,0,0,1,1.4-1.4h.8a1.367,1.367,0,0,1,1.4,1.4h0A1.367,1.367,0,0,1,24.4,31.3Z"/>
        <path id="路径_1090" data-name="路径 1090" d="M32.1,31.3h-.8a1.367,1.367,0,0,1-1.4-1.4h0a1.367,1.367,0,0,1,1.4-1.4h.8a1.367,1.367,0,0,1,1.4,1.4h0A1.367,1.367,0,0,1,32.1,31.3Z"/>
        <path id="路径_1091" data-name="路径 1091" d="M39.8,31.3H39a1.367,1.367,0,0,1-1.4-1.4h0A1.367,1.367,0,0,1,39,28.5h.8a1.367,1.367,0,0,1,1.4,1.4h0A1.367,1.367,0,0,1,39.8,31.3Z"/>
        <path id="路径_1092" data-name="路径 1092" d="M48,31.3h-.4a1.367,1.367,0,0,1-1.4-1.4h0a1.367,1.367,0,0,1,1.4-1.4H48"/>
        <path id="路径_1093" data-name="路径 1093" d="M0,28.5H.4a1.367,1.367,0,0,1,1.4,1.4h0A1.367,1.367,0,0,1,.4,31.3H0"/>
      </g>
      <g id="组_611" data-name="组 611">
        <path id="路径_1094" data-name="路径 1094" d="M9,19.5H8.2a1.367,1.367,0,0,1-1.4-1.4h0a1.367,1.367,0,0,1,1.4-1.4H9a1.367,1.367,0,0,1,1.4,1.4h0A1.506,1.506,0,0,1,9,19.5Z"/>
        <path id="路径_1095" data-name="路径 1095" d="M16.7,19.5h-.8a1.367,1.367,0,0,1-1.4-1.4h0a1.367,1.367,0,0,1,1.4-1.4h.8a1.367,1.367,0,0,1,1.4,1.4h0A1.506,1.506,0,0,1,16.7,19.5Z"/>
        <path id="路径_1096" data-name="路径 1096" d="M24.4,19.5h-.8a1.367,1.367,0,0,1-1.4-1.4h0a1.367,1.367,0,0,1,1.4-1.4h.8a1.367,1.367,0,0,1,1.4,1.4h0A1.43,1.43,0,0,1,24.4,19.5Z"/>
        <path id="路径_1097" data-name="路径 1097" d="M32.1,19.5h-.8a1.367,1.367,0,0,1-1.4-1.4h0a1.367,1.367,0,0,1,1.4-1.4h.8a1.367,1.367,0,0,1,1.4,1.4h0A1.43,1.43,0,0,1,32.1,19.5Z"/>
        <path id="路径_1098" data-name="路径 1098" d="M39.8,19.5H39a1.367,1.367,0,0,1-1.4-1.4h0A1.367,1.367,0,0,1,39,16.7h.8a1.367,1.367,0,0,1,1.4,1.4h0A1.43,1.43,0,0,1,39.8,19.5Z"/>
        <path id="路径_1099" data-name="路径 1099" d="M48,19.5h-.4a1.367,1.367,0,0,1-1.4-1.4h0a1.367,1.367,0,0,1,1.4-1.4H48"/>
        <path id="路径_1100" data-name="路径 1100" d="M0,16.7H.4a1.367,1.367,0,0,1,1.4,1.4h0A1.367,1.367,0,0,1,.4,19.5H0"/>
      </g>
      <g id="组_612" data-name="组 612">
        <path id="路径_1101" data-name="路径 1101" d="M9,7.6H8.2A1.367,1.367,0,0,1,6.8,6.2h0A1.367,1.367,0,0,1,8.2,4.8H9a1.367,1.367,0,0,1,1.4,1.4h0A1.43,1.43,0,0,1,9,7.6Z"/>
        <path id="路径_1102" data-name="路径 1102" d="M16.7,7.6h-.8a1.367,1.367,0,0,1-1.4-1.4h0a1.367,1.367,0,0,1,1.4-1.4h.8a1.367,1.367,0,0,1,1.4,1.4h0A1.43,1.43,0,0,1,16.7,7.6Z"/>
        <path id="路径_1103" data-name="路径 1103" d="M24.4,7.6h-.8a1.367,1.367,0,0,1-1.4-1.4h0a1.367,1.367,0,0,1,1.4-1.4h.8a1.367,1.367,0,0,1,1.4,1.4h0A1.367,1.367,0,0,1,24.4,7.6Z"/>
        <path id="路径_1104" data-name="路径 1104" d="M32.1,7.6h-.8a1.367,1.367,0,0,1-1.4-1.4h0a1.367,1.367,0,0,1,1.4-1.4h.8a1.367,1.367,0,0,1,1.4,1.4h0A1.367,1.367,0,0,1,32.1,7.6Z"/>
        <path id="路径_1105" data-name="路径 1105" d="M39.8,7.6H39a1.367,1.367,0,0,1-1.4-1.4h0A1.367,1.367,0,0,1,39,4.8h.8a1.367,1.367,0,0,1,1.4,1.4h0A1.367,1.367,0,0,1,39.8,7.6Z"/>
        <path id="路径_1106" data-name="路径 1106" d="M48,7.6h-.4a1.367,1.367,0,0,1-1.4-1.4h0a1.367,1.367,0,0,1,1.4-1.4H48"/>
        <path id="路径_1107" data-name="路径 1107" d="M0,4.8H.4A1.367,1.367,0,0,1,1.8,6.2h0A1.367,1.367,0,0,1,.4,7.6H0"/>
      </g>
    </g>
  </g>
</svg>
