<?xml version="1.0" encoding="utf-8"?>
<!-- Generator: Adobe Illustrator 21.0.0, SVG Export Plug-In . SVG Version: 6.00 Build 0)  -->
<svg version="1.1" id="图层_1" xmlns="http://www.w3.org/2000/svg" xmlns:xlink="http://www.w3.org/1999/xlink" x="0px" y="0px"
	 width="48px" height="48px" viewBox="0 0 48 48" style="enable-background:new 0 0 48 48;" xml:space="preserve">
<style type="text/css">
	.st0{fill:#FFFFFF;}
	.st1{fill:none;stroke:#000000;stroke-linecap:round;stroke-miterlimit:10;}
	.st2{fill:none;stroke:#000000;stroke-linecap:round;stroke-miterlimit:10;stroke-dasharray:0.9787,1.9574;}
	.st3{fill:none;stroke:#000000;stroke-linecap:round;stroke-miterlimit:10;stroke-dasharray:3.9091,1.9545;}
</style>
<g>
	<line class="st0" x1="0.5" y1="2.3" x2="47.5" y2="2.3"/>
	<g>
		<line class="st1" x1="0.5" y1="2.3" x2="1" y2="2.3"/>
		<line class="st2" x1="3" y1="2.3" x2="46" y2="2.3"/>
		<line class="st1" x1="47" y1="2.3" x2="47.5" y2="2.3"/>
	</g>
</g>
<g>
	<line class="st0" x1="0.5" y1="7.2" x2="47.5" y2="7.2"/>
	<g>
		<line class="st1" x1="0.5" y1="7.2" x2="2.5" y2="7.2"/>
		<line class="st3" x1="4.5" y1="7.2" x2="44.5" y2="7.2"/>
		<line class="st1" x1="45.5" y1="7.2" x2="47.5" y2="7.2"/>
	</g>
</g>
<g>
	<line class="st0" x1="0.5" y1="12" x2="47.5" y2="12"/>
	<g>
		<line class="st1" x1="0.5" y1="12" x2="1" y2="12"/>
		<line class="st2" x1="3" y1="12" x2="46" y2="12"/>
		<line class="st1" x1="47" y1="12" x2="47.5" y2="12"/>
	</g>
</g>
<g>
	<line class="st0" x1="0.5" y1="16.8" x2="47.5" y2="16.8"/>
	<g>
		<line class="st1" x1="0.5" y1="16.8" x2="2.5" y2="16.8"/>
		<line class="st3" x1="4.5" y1="16.8" x2="44.5" y2="16.8"/>
		<line class="st1" x1="45.5" y1="16.8" x2="47.5" y2="16.8"/>
	</g>
</g>
<g>
	<line class="st0" x1="0.5" y1="21.6" x2="47.5" y2="21.6"/>
	<g>
		<line class="st1" x1="0.5" y1="21.6" x2="1" y2="21.6"/>
		<line class="st2" x1="3" y1="21.6" x2="46" y2="21.6"/>
		<line class="st1" x1="47" y1="21.6" x2="47.5" y2="21.6"/>
	</g>
</g>
<g>
	<line class="st0" x1="0.5" y1="26.4" x2="47.5" y2="26.4"/>
	<g>
		<line class="st1" x1="0.5" y1="26.4" x2="2.5" y2="26.4"/>
		<line class="st3" x1="4.5" y1="26.4" x2="44.5" y2="26.4"/>
		<line class="st1" x1="45.5" y1="26.4" x2="47.5" y2="26.4"/>
	</g>
</g>
<g>
	<line class="st0" x1="0.5" y1="31.2" x2="47.5" y2="31.2"/>
	<g>
		<line class="st1" x1="0.5" y1="31.2" x2="1" y2="31.2"/>
		<line class="st2" x1="3" y1="31.2" x2="46" y2="31.2"/>
		<line class="st1" x1="47" y1="31.2" x2="47.5" y2="31.2"/>
	</g>
</g>
<g>
	<line class="st0" x1="0.5" y1="36" x2="47.5" y2="36"/>
	<g>
		<line class="st1" x1="0.5" y1="36" x2="2.5" y2="36"/>
		<line class="st3" x1="4.5" y1="36" x2="44.5" y2="36"/>
		<line class="st1" x1="45.5" y1="36" x2="47.5" y2="36"/>
	</g>
</g>
<g>
	<line class="st0" x1="0.5" y1="40.8" x2="47.5" y2="40.8"/>
	<g>
		<line class="st1" x1="0.5" y1="40.8" x2="1" y2="40.8"/>
		<line class="st2" x1="3" y1="40.8" x2="46" y2="40.8"/>
		<line class="st1" x1="47" y1="40.8" x2="47.5" y2="40.8"/>
	</g>
</g>
<g>
	<line class="st0" x1="0.5" y1="45.7" x2="47.5" y2="45.7"/>
	<g>
		<line class="st1" x1="0.5" y1="45.7" x2="2.5" y2="45.7"/>
		<line class="st3" x1="4.5" y1="45.7" x2="44.5" y2="45.7"/>
		<line class="st1" x1="45.5" y1="45.7" x2="47.5" y2="45.7"/>
	</g>
</g>
</svg>
