<svg xmlns="http://www.w3.org/2000/svg" width="48" height="48.25" viewBox="0 0 48 48.25">
  <g id="含粘土粗砂" transform="translate(-2402 -55.75)">
    <path id="路径_3190" data-name="路径 3190" d="M0,0H48V48H0Z" transform="translate(2402 56)" fill="none"/>
    <g id="含粘土粗砂-2" data-name="含粘土粗砂" transform="translate(2402 55.7)">
      <path id="直线_122" data-name="直线 122" d="M48,.5H0v-1H48Z" transform="translate(0 12.1)"/>
      <path id="直线_123" data-name="直线 123" d="M48,.25H0v-.5H48Z" transform="translate(0 0.3)"/>
      <path id="直线_124" data-name="直线 124" d="M48,.25H0v-.5H48Z" transform="translate(0 47.8)"/>
      <path id="直线_125" data-name="直线 125" d="M48,.5H0v-1H48Z" transform="translate(0 24)"/>
      <path id="直线_126" data-name="直线 126" d="M48,.5H0v-1H48Z" transform="translate(0 35.9)"/>
      <g id="组_617" data-name="组 617">
        <path id="路径_1136" data-name="路径 1136" d="M9,43.2H8.2a1.367,1.367,0,0,1-1.4-1.4h0a1.367,1.367,0,0,1,1.4-1.4H9a1.367,1.367,0,0,1,1.4,1.4h0A1.43,1.43,0,0,1,9,43.2Z"/>
        <path id="路径_1137" data-name="路径 1137" d="M16.7,43.2h-.8a1.367,1.367,0,0,1-1.4-1.4h0a1.367,1.367,0,0,1,1.4-1.4h.8a1.367,1.367,0,0,1,1.4,1.4h0A1.43,1.43,0,0,1,16.7,43.2Z"/>
        <path id="路径_1138" data-name="路径 1138" d="M24.4,43.2h-.8a1.367,1.367,0,0,1-1.4-1.4h0a1.367,1.367,0,0,1,1.4-1.4h.8a1.367,1.367,0,0,1,1.4,1.4h0A1.367,1.367,0,0,1,24.4,43.2Z"/>
        <path id="路径_1139" data-name="路径 1139" d="M32.1,43.2h-.8a1.367,1.367,0,0,1-1.4-1.4h0a1.367,1.367,0,0,1,1.4-1.4h.8a1.367,1.367,0,0,1,1.4,1.4h0A1.367,1.367,0,0,1,32.1,43.2Z"/>
        <path id="路径_1140" data-name="路径 1140" d="M39.8,43.2H39a1.367,1.367,0,0,1-1.4-1.4h0A1.367,1.367,0,0,1,39,40.4h.8a1.367,1.367,0,0,1,1.4,1.4h0A1.367,1.367,0,0,1,39.8,43.2Z"/>
        <path id="路径_1141" data-name="路径 1141" d="M48,43.2h-.4a1.367,1.367,0,0,1-1.4-1.4h0a1.367,1.367,0,0,1,1.4-1.4H48"/>
        <path id="路径_1142" data-name="路径 1142" d="M0,40.4H.4a1.367,1.367,0,0,1,1.4,1.4h0A1.367,1.367,0,0,1,.4,43.2H0"/>
      </g>
      <g id="组_618" data-name="组 618">
        <path id="路径_1143" data-name="路径 1143" d="M9,31.3H8.2a1.367,1.367,0,0,1-1.4-1.4h0a1.367,1.367,0,0,1,1.4-1.4H9a1.367,1.367,0,0,1,1.4,1.4h0A1.43,1.43,0,0,1,9,31.3Z"/>
        <path id="路径_1144" data-name="路径 1144" d="M16.7,31.3h-.8a1.367,1.367,0,0,1-1.4-1.4h0a1.367,1.367,0,0,1,1.4-1.4h.8a1.367,1.367,0,0,1,1.4,1.4h0A1.43,1.43,0,0,1,16.7,31.3Z"/>
        <path id="路径_1145" data-name="路径 1145" d="M24.4,31.3h-.8a1.367,1.367,0,0,1-1.4-1.4h0a1.367,1.367,0,0,1,1.4-1.4h.8a1.367,1.367,0,0,1,1.4,1.4h0A1.367,1.367,0,0,1,24.4,31.3Z"/>
        <path id="路径_1146" data-name="路径 1146" d="M32.1,31.3h-.8a1.367,1.367,0,0,1-1.4-1.4h0a1.367,1.367,0,0,1,1.4-1.4h.8a1.367,1.367,0,0,1,1.4,1.4h0A1.367,1.367,0,0,1,32.1,31.3Z"/>
        <path id="路径_1147" data-name="路径 1147" d="M39.8,31.3H39a1.367,1.367,0,0,1-1.4-1.4h0A1.367,1.367,0,0,1,39,28.5h.8a1.367,1.367,0,0,1,1.4,1.4h0A1.367,1.367,0,0,1,39.8,31.3Z"/>
        <path id="路径_1148" data-name="路径 1148" d="M48,31.3h-.4a1.367,1.367,0,0,1-1.4-1.4h0a1.367,1.367,0,0,1,1.4-1.4H48"/>
        <path id="路径_1149" data-name="路径 1149" d="M0,28.5H.4a1.367,1.367,0,0,1,1.4,1.4h0A1.367,1.367,0,0,1,.4,31.3H0"/>
      </g>
      <g id="组_619" data-name="组 619">
        <path id="路径_1150" data-name="路径 1150" d="M9,19.5H8.2a1.367,1.367,0,0,1-1.4-1.4h0a1.367,1.367,0,0,1,1.4-1.4H9a1.367,1.367,0,0,1,1.4,1.4h0A1.506,1.506,0,0,1,9,19.5Z"/>
        <path id="路径_1151" data-name="路径 1151" d="M16.7,19.5h-.8a1.367,1.367,0,0,1-1.4-1.4h0a1.367,1.367,0,0,1,1.4-1.4h.8a1.367,1.367,0,0,1,1.4,1.4h0A1.506,1.506,0,0,1,16.7,19.5Z"/>
        <path id="路径_1152" data-name="路径 1152" d="M24.4,19.5h-.8a1.367,1.367,0,0,1-1.4-1.4h0a1.367,1.367,0,0,1,1.4-1.4h.8a1.367,1.367,0,0,1,1.4,1.4h0A1.43,1.43,0,0,1,24.4,19.5Z"/>
        <path id="路径_1153" data-name="路径 1153" d="M32.1,19.5h-.8a1.367,1.367,0,0,1-1.4-1.4h0a1.367,1.367,0,0,1,1.4-1.4h.8a1.367,1.367,0,0,1,1.4,1.4h0A1.43,1.43,0,0,1,32.1,19.5Z"/>
        <path id="路径_1154" data-name="路径 1154" d="M39.8,19.5H39a1.367,1.367,0,0,1-1.4-1.4h0A1.367,1.367,0,0,1,39,16.7h.8a1.367,1.367,0,0,1,1.4,1.4h0A1.43,1.43,0,0,1,39.8,19.5Z"/>
        <path id="路径_1155" data-name="路径 1155" d="M48,19.5h-.4a1.367,1.367,0,0,1-1.4-1.4h0a1.367,1.367,0,0,1,1.4-1.4H48"/>
        <path id="路径_1156" data-name="路径 1156" d="M0,16.7H.4a1.367,1.367,0,0,1,1.4,1.4h0A1.367,1.367,0,0,1,.4,19.5H0"/>
      </g>
      <g id="组_620" data-name="组 620">
        <path id="路径_1157" data-name="路径 1157" d="M9,7.6H8.2A1.367,1.367,0,0,1,6.8,6.2h0A1.367,1.367,0,0,1,8.2,4.8H9a1.367,1.367,0,0,1,1.4,1.4h0A1.43,1.43,0,0,1,9,7.6Z"/>
        <path id="路径_1158" data-name="路径 1158" d="M16.7,7.6h-.8a1.367,1.367,0,0,1-1.4-1.4h0a1.367,1.367,0,0,1,1.4-1.4h.8a1.367,1.367,0,0,1,1.4,1.4h0A1.43,1.43,0,0,1,16.7,7.6Z"/>
        <path id="路径_1159" data-name="路径 1159" d="M24.4,7.6h-.8a1.367,1.367,0,0,1-1.4-1.4h0a1.367,1.367,0,0,1,1.4-1.4h.8a1.367,1.367,0,0,1,1.4,1.4h0A1.367,1.367,0,0,1,24.4,7.6Z"/>
        <path id="路径_1160" data-name="路径 1160" d="M32.1,7.6h-.8a1.367,1.367,0,0,1-1.4-1.4h0a1.367,1.367,0,0,1,1.4-1.4h.8a1.367,1.367,0,0,1,1.4,1.4h0A1.367,1.367,0,0,1,32.1,7.6Z"/>
        <path id="路径_1161" data-name="路径 1161" d="M39.8,7.6H39a1.367,1.367,0,0,1-1.4-1.4h0A1.367,1.367,0,0,1,39,4.8h.8a1.367,1.367,0,0,1,1.4,1.4h0A1.367,1.367,0,0,1,39.8,7.6Z"/>
        <path id="路径_1162" data-name="路径 1162" d="M48,7.6h-.4a1.367,1.367,0,0,1-1.4-1.4h0a1.367,1.367,0,0,1,1.4-1.4H48"/>
        <path id="路径_1163" data-name="路径 1163" d="M0,4.8H.4A1.367,1.367,0,0,1,1.8,6.2h0A1.367,1.367,0,0,1,.4,7.6H0"/>
      </g>
    </g>
  </g>
</svg>
