<svg xmlns="http://www.w3.org/2000/svg" width="48" height="48" viewBox="0 0 48 48">
  <g id="含砾中砂" transform="translate(-916 -55)">
    <rect id="矩形_25" data-name="矩形 25" width="48" height="48" transform="translate(916 55)" fill="none"/>
    <g id="含砾中砂-2" data-name="含砾中砂" transform="translate(916.2 54.254)">
      <g id="组_127" data-name="组 127">
        <g id="组_102" data-name="组 102">
          <g id="组_97" data-name="组 97">
            <path id="路径_259" data-name="路径 259" d="M16.4,3.6A1.6,1.6,0,1,0,18,5.2a1.58,1.58,0,0,0-1.6-1.6Z"/>
          </g>
          <g id="组_99" data-name="组 99">
            <g id="组_98" data-name="组 98">
              <path id="路径_260" data-name="路径 260" d="M12.2,4.3a.789.789,0,0,0-.8.8.961.961,0,0,0,.8.9.789.789,0,0,0,.8-.8.765.765,0,0,0-.8-.9Z"/>
            </g>
          </g>
          <g id="组_101" data-name="组 101">
            <g id="组_100" data-name="组 100">
              <path id="路径_261" data-name="路径 261" d="M20.6,4.3a.789.789,0,0,0-.8.8.876.876,0,0,0,.8.9.789.789,0,0,0,.8-.8.882.882,0,0,0-.8-.9Z"/>
            </g>
          </g>
        </g>
        <g id="组_108" data-name="组 108">
          <g id="组_103" data-name="组 103">
            <path id="路径_262" data-name="路径 262" d="M16.5,13.1a1.6,1.6,0,1,0,1.6,1.6,1.58,1.58,0,0,0-1.6-1.6Z"/>
          </g>
          <g id="组_105" data-name="组 105">
            <g id="组_104" data-name="组 104">
              <path id="路径_263" data-name="路径 263" d="M12.3,13.9a.8.8,0,1,0,.8.8.736.736,0,0,0-.8-.8Z"/>
            </g>
          </g>
          <g id="组_107" data-name="组 107">
            <g id="组_106" data-name="组 106">
              <path id="路径_264" data-name="路径 264" d="M20.6,13.9a.8.8,0,1,0,.8.8c.1-.5-.3-.8-.8-.8Z"/>
            </g>
          </g>
        </g>
        <g id="组_114" data-name="组 114">
          <g id="组_109" data-name="组 109">
            <path id="路径_265" data-name="路径 265" d="M16.5,22.6a1.6,1.6,0,1,0,1.6,1.6,1.58,1.58,0,0,0-1.6-1.6Z"/>
          </g>
          <g id="组_111" data-name="组 111">
            <g id="组_110" data-name="组 110">
              <path id="路径_266" data-name="路径 266" d="M12.3,23.4a.8.8,0,1,0,.8.8.736.736,0,0,0-.8-.8Z"/>
            </g>
          </g>
          <g id="组_113" data-name="组 113">
            <g id="组_112" data-name="组 112">
              <path id="路径_267" data-name="路径 267" d="M20.6,23.4a.8.8,0,1,0,.8.8c.1-.5-.3-.8-.8-.8Z"/>
            </g>
          </g>
        </g>
        <g id="组_120" data-name="组 120">
          <g id="组_115" data-name="组 115">
            <path id="路径_268" data-name="路径 268" d="M16.5,32.2a1.6,1.6,0,1,0,1.6,1.6,1.58,1.58,0,0,0-1.6-1.6Z"/>
          </g>
          <g id="组_117" data-name="组 117">
            <g id="组_116" data-name="组 116">
              <path id="路径_269" data-name="路径 269" d="M12.3,32.9a.789.789,0,0,0-.8.8.86.86,0,0,0,.8.8.789.789,0,0,0,.8-.8.736.736,0,0,0-.8-.8Z"/>
            </g>
          </g>
          <g id="组_119" data-name="组 119">
            <g id="组_118" data-name="组 118">
              <path id="路径_270" data-name="路径 270" d="M20.6,32.9a.789.789,0,0,0-.8.8.86.86,0,0,0,.8.8.789.789,0,0,0,.8-.8c.1-.5-.3-.8-.8-.8Z"/>
            </g>
          </g>
        </g>
        <g id="组_126" data-name="组 126">
          <g id="组_121" data-name="组 121">
            <path id="路径_271" data-name="路径 271" d="M16.5,41.7a1.6,1.6,0,1,0,1.6,1.6,1.58,1.58,0,0,0-1.6-1.6Z"/>
          </g>
          <g id="组_123" data-name="组 123">
            <g id="组_122" data-name="组 122">
              <path id="路径_272" data-name="路径 272" d="M12.3,42.4a.8.8,0,1,0,.8.8.736.736,0,0,0-.8-.8Z"/>
            </g>
          </g>
          <g id="组_125" data-name="组 125">
            <g id="组_124" data-name="组 124">
              <path id="路径_273" data-name="路径 273" d="M20.6,42.4a.8.8,0,1,0,.8.8c.1-.5-.3-.8-.8-.8Z"/>
            </g>
          </g>
        </g>
      </g>
      <g id="组_158" data-name="组 158">
        <g id="组_133" data-name="组 133">
          <g id="组_128" data-name="组 128">
            <path id="路径_274" data-name="路径 274" d="M39.3,3.6a1.6,1.6,0,1,0,1.6,1.6,1.58,1.58,0,0,0-1.6-1.6Z"/>
          </g>
          <g id="组_130" data-name="组 130">
            <g id="组_129" data-name="组 129">
              <path id="路径_275" data-name="路径 275" d="M35.1,4.3a.789.789,0,0,0-.8.8.876.876,0,0,0,.8.9.789.789,0,0,0,.8-.8.817.817,0,0,0-.8-.9Z"/>
            </g>
          </g>
          <g id="组_132" data-name="组 132">
            <g id="组_131" data-name="组 131">
              <path id="路径_276" data-name="路径 276" d="M43.4,4.3a.789.789,0,0,0-.8.8.876.876,0,0,0,.8.9.789.789,0,0,0,.8-.8.817.817,0,0,0-.8-.9Z"/>
            </g>
          </g>
        </g>
        <g id="组_139" data-name="组 139">
          <g id="组_134" data-name="组 134">
            <path id="路径_277" data-name="路径 277" d="M39.3,13.1a1.6,1.6,0,1,0,1.6,1.6,1.58,1.58,0,0,0-1.6-1.6Z"/>
          </g>
          <g id="组_136" data-name="组 136">
            <g id="组_135" data-name="组 135">
              <path id="路径_278" data-name="路径 278" d="M35.1,13.9a.8.8,0,0,0,0,1.6.86.86,0,0,0,.8-.8.736.736,0,0,0-.8-.8Z"/>
            </g>
          </g>
          <g id="组_138" data-name="组 138">
            <g id="组_137" data-name="组 137">
              <path id="路径_279" data-name="路径 279" d="M43.4,13.9a.8.8,0,0,0,0,1.6.86.86,0,0,0,.8-.8.736.736,0,0,0-.8-.8Z"/>
            </g>
          </g>
        </g>
        <g id="组_145" data-name="组 145">
          <g id="组_140" data-name="组 140">
            <path id="路径_280" data-name="路径 280" d="M39.3,22.6a1.6,1.6,0,1,0,1.6,1.6,1.58,1.58,0,0,0-1.6-1.6Z"/>
          </g>
          <g id="组_142" data-name="组 142">
            <g id="组_141" data-name="组 141">
              <path id="路径_281" data-name="路径 281" d="M35.1,23.4a.8.8,0,0,0,0,1.6.86.86,0,0,0,.8-.8.736.736,0,0,0-.8-.8Z"/>
            </g>
          </g>
          <g id="组_144" data-name="组 144">
            <g id="组_143" data-name="组 143">
              <path id="路径_282" data-name="路径 282" d="M43.4,23.4a.8.8,0,0,0,0,1.6.86.86,0,0,0,.8-.8.736.736,0,0,0-.8-.8Z"/>
            </g>
          </g>
        </g>
        <g id="组_151" data-name="组 151">
          <g id="组_146" data-name="组 146">
            <path id="路径_283" data-name="路径 283" d="M39.3,32.2a1.6,1.6,0,1,0,1.6,1.6,1.58,1.58,0,0,0-1.6-1.6Z"/>
          </g>
          <g id="组_148" data-name="组 148">
            <g id="组_147" data-name="组 147">
              <path id="路径_284" data-name="路径 284" d="M35.1,32.9a.789.789,0,0,0-.8.8.8.8,0,1,0,1.6,0,.736.736,0,0,0-.8-.8Z"/>
            </g>
          </g>
          <g id="组_150" data-name="组 150">
            <g id="组_149" data-name="组 149">
              <path id="路径_285" data-name="路径 285" d="M43.4,32.9a.789.789,0,0,0-.8.8.8.8,0,0,0,1.6,0,.736.736,0,0,0-.8-.8Z"/>
            </g>
          </g>
        </g>
        <g id="组_157" data-name="组 157">
          <g id="组_152" data-name="组 152">
            <path id="路径_286" data-name="路径 286" d="M39.3,41.7a1.6,1.6,0,1,0,1.6,1.6,1.58,1.58,0,0,0-1.6-1.6Z"/>
          </g>
          <g id="组_154" data-name="组 154">
            <g id="组_153" data-name="组 153">
              <path id="路径_287" data-name="路径 287" d="M35.1,42.4a.8.8,0,0,0,0,1.6.86.86,0,0,0,.8-.8.736.736,0,0,0-.8-.8Z"/>
            </g>
          </g>
          <g id="组_156" data-name="组 156">
            <g id="组_155" data-name="组 155">
              <path id="路径_288" data-name="路径 288" d="M43.4,42.4a.8.8,0,1,0,0,1.6.86.86,0,0,0,.8-.8.736.736,0,0,0-.8-.8Z"/>
            </g>
          </g>
        </g>
      </g>
      <g id="组_169" data-name="组 169">
        <g id="组_160" data-name="组 160">
          <g id="组_159" data-name="组 159">
            <path id="路径_289" data-name="路径 289" d="M5,3.7A1.58,1.58,0,0,0,3.4,5.3,1.5,1.5,0,0,0,5,6.8,1.561,1.561,0,0,0,6.6,5.3,1.645,1.645,0,0,0,5,3.7Z"/>
          </g>
        </g>
        <g id="组_162" data-name="组 162">
          <g id="组_161" data-name="组 161">
            <path id="路径_290" data-name="路径 290" d="M5.1,13.9a.789.789,0,0,0-.8.8.86.86,0,0,0,.8.8.86.86,0,0,0,.8-.8.789.789,0,0,0-.8-.8Z"/>
          </g>
        </g>
        <g id="组_164" data-name="组 164">
          <g id="组_163" data-name="组 163">
            <path id="路径_291" data-name="路径 291" d="M5.1,32.9a.8.8,0,1,0,0,1.6.86.86,0,0,0,.8-.8.789.789,0,0,0-.8-.8Z"/>
          </g>
        </g>
        <g id="组_166" data-name="组 166">
          <g id="组_165" data-name="组 165">
            <path id="路径_292" data-name="路径 292" d="M5.1,22.6a1.6,1.6,0,1,0,1.6,1.6,1.58,1.58,0,0,0-1.6-1.6Z"/>
          </g>
        </g>
        <g id="组_168" data-name="组 168">
          <g id="组_167" data-name="组 167">
            <path id="路径_293" data-name="路径 293" d="M5.1,41.7a1.6,1.6,0,1,0,1.6,1.6,1.58,1.58,0,0,0-1.6-1.6Z"/>
          </g>
        </g>
      </g>
      <g id="组_180" data-name="组 180">
        <g id="组_171" data-name="组 171">
          <g id="组_170" data-name="组 170">
            <path id="路径_294" data-name="路径 294" d="M27.8,3.7a1.58,1.58,0,0,0-1.6,1.6,1.5,1.5,0,0,0,1.6,1.5,1.561,1.561,0,0,0,1.6-1.5,1.645,1.645,0,0,0-1.6-1.6Z"/>
          </g>
        </g>
        <g id="组_173" data-name="组 173">
          <g id="组_172" data-name="组 172">
            <path id="路径_295" data-name="路径 295" d="M27.9,13.9a.789.789,0,0,0-.8.8.86.86,0,0,0,.8.8.789.789,0,0,0,.8-.8.86.86,0,0,0-.8-.8Z"/>
          </g>
        </g>
        <g id="组_175" data-name="组 175">
          <g id="组_174" data-name="组 174">
            <path id="路径_296" data-name="路径 296" d="M27.9,32.9a.8.8,0,1,0,.8.8.86.86,0,0,0-.8-.8Z"/>
          </g>
        </g>
        <g id="组_177" data-name="组 177">
          <g id="组_176" data-name="组 176">
            <path id="路径_297" data-name="路径 297" d="M27.9,22.6a1.6,1.6,0,1,0,1.6,1.6,1.58,1.58,0,0,0-1.6-1.6Z"/>
          </g>
        </g>
        <g id="组_179" data-name="组 179">
          <g id="组_178" data-name="组 178">
            <path id="路径_298" data-name="路径 298" d="M27.9,41.7a1.6,1.6,0,1,0,1.6,1.6,1.58,1.58,0,0,0-1.6-1.6Z"/>
          </g>
        </g>
      </g>
    </g>
  </g>
</svg>
