<svg xmlns="http://www.w3.org/2000/svg" width="48.819" height="48.82" viewBox="0 0 48.819 48.82">
  <g id="含粘性土粗砂" transform="translate(-2869.645 -55.636)">
    <path id="路径_3198" data-name="路径 3198" d="M0,0H48V48H0Z" transform="translate(2870 56)" fill="none"/>
    <g id="含粘性土粗砂-2" data-name="含粘性土粗砂" transform="translate(2870 56.2)">
      <path id="路径_1314" data-name="路径 1314" d="M13.112,40.431a3.837,3.837,0,0,1-2.552-1.265c-1.137-1.042-2.1-1.509-2.706-1.317-.581.184-.764.949-.766.957l-.977-.214a2.394,2.394,0,0,1,1.44-1.7c.992-.314,2.232.2,3.686,1.535l0,0c.637.6,1.557,1.239,2.319.9a2,2,0,0,0,.983-1.409.43.43,0,0,0,.3.345l.316-.949a.577.577,0,0,1,.385.548,2.894,2.894,0,0,1-1.535,2.359A2.1,2.1,0,0,1,13.112,40.431Z" fill="#595758"/>
      <g id="组_778" data-name="组 778">
        <g id="组_777" data-name="组 777">
          <path id="直线_189" data-name="直线 189" d="M.354,4.554l-.707-.707,4.2-4.2.707.707Z" transform="translate(0 43.7)" fill="#595758"/>
          <path id="直线_190" data-name="直线 190" d="M.354,27.854l-.707-.707,7.863-7.863.707.707ZM16.079,12.128l-.707-.707,7.863-7.863.707.707Z" transform="translate(12.1 8.3)" fill="#595758"/>
          <path id="直线_191" data-name="直线 191" d="M.354,4.554l-.707-.707,4.2-4.2.707.707Z" transform="translate(43.6 0.1)" fill="#595758"/>
        </g>
      </g>
      <g id="组_780" data-name="组 780">
        <g id="组_779" data-name="组 779">
          <path id="直线_192" data-name="直线 192" d="M.364,4.656l-.729-.712,4.2-4.3.729.712Z" transform="translate(32.2 43.6)" fill="#595758"/>
          <path id="直线_193" data-name="直线 193" d="M.364,4.656l-.729-.712,4.2-4.3.729.712Z" transform="translate(43.9 31.6)" fill="#595758"/>
        </g>
      </g>
      <g id="组_782" data-name="组 782">
        <g id="组_781" data-name="组 781">
          <path id="直线_194" data-name="直线 194" d="M.355,4.563l-.71-.726,4.3-4.2.71.726Z" transform="translate(0 11.8)" fill="#595758"/>
          <path id="直线_195" data-name="直线 195" d="M.355,4.563l-.71-.726,4.3-4.2.71.726Z" transform="translate(12.2)" fill="#595758"/>
        </g>
      </g>
      <g id="组_784" data-name="组 784">
        <g id="组_783" data-name="组 783">
          <path id="直线_196" data-name="直线 196" d="M.356,4.564l-.711-.728,4.3-4.2.711.728Z" transform="translate(0.1 27.4)" fill="#595758"/>
          <path id="直线_197" data-name="直线 197" d="M.358,11.961l-.717-.723L7.467,3.48l.717.723Z" transform="translate(12.3 8)" fill="#595758"/>
          <path id="直线_198" data-name="直线 198" d="M.356,4.664l-.712-.728,4.4-4.3.712.728Z" transform="translate(28 -0.2)" fill="#595758"/>
        </g>
      </g>
      <g id="组_786" data-name="组 786">
        <g id="组_785" data-name="组 785">
          <path id="直线_199" data-name="直线 199" d="M.361,4.653l-.723-.706,4.2-4.3.723.706Z" transform="translate(16.5 43.6)" fill="#595758"/>
          <path id="直线_200" data-name="直线 200" d="M.36,11.954l-.721-.708L7.291,3.461l.721.708Z" transform="translate(28.5 24.2)" fill="#595758"/>
          <path id="直线_201" data-name="直线 201" d="M.357,4.657l-.715-.715,4.3-4.3.715.715Z" transform="translate(43.8 16)" fill="#595758"/>
        </g>
      </g>
      <g id="组_812" data-name="组 812">
        <g id="组_791" data-name="组 791">
          <g id="组_787" data-name="组 787">
            <path id="路径_1315" data-name="路径 1315" d="M6,3.4A1.58,1.58,0,0,0,4.4,5,1.5,1.5,0,0,0,6,6.5,1.561,1.561,0,0,0,7.6,5,1.645,1.645,0,0,0,6,3.4Z"/>
          </g>
          <g id="组_788" data-name="组 788">
            <path id="路径_1316" data-name="路径 1316" d="M18.3,3.4A1.6,1.6,0,1,0,19.9,5a1.58,1.58,0,0,0-1.6-1.6Z"/>
          </g>
          <g id="组_789" data-name="组 789">
            <path id="路径_1317" data-name="路径 1317" d="M30.2,3.4A1.6,1.6,0,1,0,31.8,5a1.58,1.58,0,0,0-1.6-1.6Z"/>
          </g>
          <g id="组_790" data-name="组 790">
            <path id="路径_1318" data-name="路径 1318" d="M41.8,3.4A1.6,1.6,0,1,0,43.4,5a1.58,1.58,0,0,0-1.6-1.6Z"/>
          </g>
        </g>
        <g id="组_796" data-name="组 796">
          <g id="组_792" data-name="组 792">
            <path id="路径_1319" data-name="路径 1319" d="M6.1,12.9a1.6,1.6,0,1,0,1.6,1.6,1.58,1.58,0,0,0-1.6-1.6Z"/>
          </g>
          <g id="组_793" data-name="组 793">
            <path id="路径_1320" data-name="路径 1320" d="M18.4,12.9A1.6,1.6,0,1,0,20,14.5a1.58,1.58,0,0,0-1.6-1.6Z"/>
          </g>
          <g id="组_794" data-name="组 794">
            <path id="路径_1321" data-name="路径 1321" d="M30.3,12.9a1.6,1.6,0,1,0,1.6,1.6,1.58,1.58,0,0,0-1.6-1.6Z"/>
          </g>
          <g id="组_795" data-name="组 795">
            <path id="路径_1322" data-name="路径 1322" d="M41.9,12.9a1.6,1.6,0,1,0,1.6,1.6,1.58,1.58,0,0,0-1.6-1.6Z"/>
          </g>
        </g>
        <g id="组_801" data-name="组 801">
          <g id="组_797" data-name="组 797">
            <path id="路径_1323" data-name="路径 1323" d="M6.1,22.4A1.6,1.6,0,1,0,7.7,24a1.58,1.58,0,0,0-1.6-1.6Z"/>
          </g>
          <g id="组_798" data-name="组 798">
            <path id="路径_1324" data-name="路径 1324" d="M18.4,22.4a1.6,1.6,0,0,0,0,3.2,1.6,1.6,0,1,0,0-3.2Z"/>
          </g>
          <g id="组_799" data-name="组 799">
            <path id="路径_1325" data-name="路径 1325" d="M30.3,22.4A1.6,1.6,0,1,0,31.9,24a1.58,1.58,0,0,0-1.6-1.6Z"/>
          </g>
          <g id="组_800" data-name="组 800">
            <path id="路径_1326" data-name="路径 1326" d="M41.9,22.4A1.6,1.6,0,1,0,43.5,24a1.58,1.58,0,0,0-1.6-1.6Z"/>
          </g>
        </g>
        <g id="组_806" data-name="组 806">
          <g id="组_802" data-name="组 802">
            <path id="路径_1327" data-name="路径 1327" d="M6.1,31.8a1.6,1.6,0,1,0,1.6,1.6,1.58,1.58,0,0,0-1.6-1.6Z"/>
          </g>
          <g id="组_803" data-name="组 803">
            <path id="路径_1328" data-name="路径 1328" d="M18.4,31.8A1.6,1.6,0,1,0,20,33.4a1.58,1.58,0,0,0-1.6-1.6Z"/>
          </g>
          <g id="组_804" data-name="组 804">
            <path id="路径_1329" data-name="路径 1329" d="M30.3,31.8a1.6,1.6,0,1,0,1.6,1.6,1.58,1.58,0,0,0-1.6-1.6Z"/>
          </g>
          <g id="组_805" data-name="组 805">
            <path id="路径_1330" data-name="路径 1330" d="M41.9,31.8a1.6,1.6,0,1,0,1.6,1.6,1.58,1.58,0,0,0-1.6-1.6Z"/>
          </g>
        </g>
        <g id="组_811" data-name="组 811">
          <g id="组_807" data-name="组 807">
            <path id="路径_1331" data-name="路径 1331" d="M6.1,41.4A1.6,1.6,0,1,0,7.7,43a1.58,1.58,0,0,0-1.6-1.6Z"/>
          </g>
          <g id="组_808" data-name="组 808">
            <path id="路径_1332" data-name="路径 1332" d="M18.4,41.4a1.6,1.6,0,1,0,0,3.2A1.666,1.666,0,0,0,20,42.9a1.5,1.5,0,0,0-1.6-1.5Z"/>
          </g>
          <g id="组_809" data-name="组 809">
            <path id="路径_1333" data-name="路径 1333" d="M30.3,41.4A1.6,1.6,0,1,0,31.9,43a1.58,1.58,0,0,0-1.6-1.6Z"/>
          </g>
          <g id="组_810" data-name="组 810">
            <path id="路径_1334" data-name="路径 1334" d="M41.9,41.4A1.6,1.6,0,1,0,43.5,43a1.58,1.58,0,0,0-1.6-1.6Z"/>
          </g>
        </g>
      </g>
    </g>
  </g>
</svg>
