<svg xmlns="http://www.w3.org/2000/svg" width="48" height="48.4" viewBox="0 0 48 48.4">
  <g id="含粉质粘土中砂" transform="translate(-1880 -55.6)">
    <path id="路径_3181" data-name="路径 3181" d="M0,0H48V48H0Z" transform="translate(1880 56)" fill="none"/>
    <g id="含粉质粘土中砂-2" data-name="含粉质粘土中砂" transform="translate(1880 55.6)">
      <path id="直线_82" data-name="直线 82" d="M48,.4H0V-.4H48Z" transform="translate(0 0.4)"/>
      <path id="直线_83" data-name="直线 83" d="M48,.4H0V-.4H48Z" transform="translate(0 47.6)"/>
      <g id="组_571" data-name="组 571">
        <path id="路径_844" data-name="路径 844" d="M21,6.4H11a.86.86,0,0,1-.8-.8.86.86,0,0,1,.8-.8H21a.86.86,0,0,1,.8.8A.86.86,0,0,1,21,6.4Z"/>
        <path id="路径_845" data-name="路径 845" d="M37,6.4H27a.86.86,0,0,1-.8-.8.86.86,0,0,1,.8-.8H37a.86.86,0,0,1,.8.8A.86.86,0,0,1,37,6.4Z"/>
        <path id="路径_846" data-name="路径 846" d="M0,4.8H5a.86.86,0,0,1,.8.8.86.86,0,0,1-.8.8H0"/>
        <path id="路径_847" data-name="路径 847" d="M48,6.4H43a.86.86,0,0,1-.8-.8.86.86,0,0,1,.8-.8h5"/>
      </g>
      <g id="组_572" data-name="组 572">
        <path id="路径_848" data-name="路径 848" d="M14.8,11.6H13.3a.684.684,0,0,1-.7-.7h0a.684.684,0,0,1,.7-.7h1.5a.684.684,0,0,1,.7.7h0A.684.684,0,0,1,14.8,11.6Z"/>
        <path id="路径_849" data-name="路径 849" d="M8.1,11.6H6.6a.684.684,0,0,1-.7-.7h0a.684.684,0,0,1,.7-.7H8.1a.684.684,0,0,1,.7.7h0A.684.684,0,0,1,8.1,11.6Z"/>
        <path id="路径_850" data-name="路径 850" d="M21.4,11.6H19.9a.684.684,0,0,1-.7-.7h0a.684.684,0,0,1,.7-.7h1.5a.684.684,0,0,1,.7.7h0A.684.684,0,0,1,21.4,11.6Z"/>
        <path id="路径_851" data-name="路径 851" d="M28.1,11.6H26.6a.684.684,0,0,1-.7-.7h0a.684.684,0,0,1,.7-.7h1.5a.684.684,0,0,1,.7.7h0A.684.684,0,0,1,28.1,11.6Z"/>
        <path id="路径_852" data-name="路径 852" d="M34.7,11.6H33.2a.684.684,0,0,1-.7-.7h0a.684.684,0,0,1,.7-.7h1.5a.684.684,0,0,1,.7.7h0C35.5,11.3,35.1,11.6,34.7,11.6Z"/>
        <path id="路径_853" data-name="路径 853" d="M41.4,11.6H39.9a.684.684,0,0,1-.7-.7h0a.684.684,0,0,1,.7-.7h1.5a.684.684,0,0,1,.7.7h0A.684.684,0,0,1,41.4,11.6Z"/>
        <path id="路径_854" data-name="路径 854" d="M0,10.2H.7a.684.684,0,0,1,.7.7h0a.684.684,0,0,1-.7.7H0"/>
        <path id="路径_855" data-name="路径 855" d="M48,11.6h-.7a.684.684,0,0,1-.7-.7h0a.684.684,0,0,1,.7-.7H48"/>
      </g>
      <path id="直线_84" data-name="直线 84" d="M48,.8H0V-.8H48Z" transform="translate(0 16.1)"/>
      <g id="组_573" data-name="组 573">
        <path id="路径_856" data-name="路径 856" d="M21,22.2H11a.8.8,0,1,1,0-1.6H21a.8.8,0,1,1,0,1.6Z"/>
        <path id="路径_857" data-name="路径 857" d="M37,22.2H27a.8.8,0,1,1,0-1.6H37a.8.8,0,1,1,0,1.6Z"/>
        <path id="路径_858" data-name="路径 858" d="M0,20.6H5a.8.8,0,1,1,0,1.6H0"/>
        <path id="路径_859" data-name="路径 859" d="M48,22.2H43a.8.8,0,0,1,0-1.6h5"/>
      </g>
      <g id="组_574" data-name="组 574">
        <path id="路径_860" data-name="路径 860" d="M14.8,27.3H13.3a.684.684,0,0,1-.7-.7h0a.684.684,0,0,1,.7-.7h1.5a.684.684,0,0,1,.7.7h0A.684.684,0,0,1,14.8,27.3Z"/>
        <path id="路径_861" data-name="路径 861" d="M8.1,27.3H6.6a.684.684,0,0,1-.7-.7h0a.684.684,0,0,1,.7-.7H8.1a.684.684,0,0,1,.7.7h0A.684.684,0,0,1,8.1,27.3Z"/>
        <path id="路径_862" data-name="路径 862" d="M21.4,27.3H19.9a.684.684,0,0,1-.7-.7h0a.684.684,0,0,1,.7-.7h1.5a.684.684,0,0,1,.7.7h0A.684.684,0,0,1,21.4,27.3Z"/>
        <path id="路径_863" data-name="路径 863" d="M28.1,27.3H26.6a.684.684,0,0,1-.7-.7h0a.684.684,0,0,1,.7-.7h1.5a.684.684,0,0,1,.7.7h0A.684.684,0,0,1,28.1,27.3Z"/>
        <path id="路径_864" data-name="路径 864" d="M34.7,27.3H33.2a.684.684,0,0,1-.7-.7h0a.684.684,0,0,1,.7-.7h1.5a.684.684,0,0,1,.7.7h0C35.5,27,35.1,27.3,34.7,27.3Z"/>
        <path id="路径_865" data-name="路径 865" d="M41.4,27.3H39.9a.684.684,0,0,1-.7-.7h0a.684.684,0,0,1,.7-.7h1.5a.684.684,0,0,1,.7.7h0A.684.684,0,0,1,41.4,27.3Z"/>
        <path id="路径_866" data-name="路径 866" d="M0,25.9H.7a.684.684,0,0,1,.7.7h0a.684.684,0,0,1-.7.7H0"/>
        <path id="路径_867" data-name="路径 867" d="M48,27.3h-.7a.684.684,0,0,1-.7-.7h0a.684.684,0,0,1,.7-.7H48"/>
      </g>
      <path id="直线_85" data-name="直线 85" d="M48,.8H0V-.8H48Z" transform="translate(0 31.9)"/>
      <g id="组_575" data-name="组 575">
        <path id="路径_868" data-name="路径 868" d="M21,37.9H11a.8.8,0,1,1,0-1.6H21a.8.8,0,0,1,0,1.6Z"/>
        <path id="路径_869" data-name="路径 869" d="M37,37.9H27a.8.8,0,0,1,0-1.6H37a.8.8,0,0,1,0,1.6Z"/>
        <path id="路径_870" data-name="路径 870" d="M0,36.3H5a.8.8,0,0,1,0,1.6H0"/>
        <path id="路径_871" data-name="路径 871" d="M48,37.9H43a.8.8,0,0,1,0-1.6h5"/>
      </g>
      <g id="组_576" data-name="组 576">
        <path id="路径_872" data-name="路径 872" d="M14.8,43.1H13.3a.684.684,0,0,1-.7-.7h0a.684.684,0,0,1,.7-.7h1.5a.684.684,0,0,1,.7.7h0A.684.684,0,0,1,14.8,43.1Z"/>
        <path id="路径_873" data-name="路径 873" d="M8.1,43.1H6.6a.684.684,0,0,1-.7-.7h0a.684.684,0,0,1,.7-.7H8.1a.684.684,0,0,1,.7.7h0A.684.684,0,0,1,8.1,43.1Z"/>
        <path id="路径_874" data-name="路径 874" d="M21.4,43.1H19.9a.684.684,0,0,1-.7-.7h0a.684.684,0,0,1,.7-.7h1.5a.684.684,0,0,1,.7.7h0A.684.684,0,0,1,21.4,43.1Z"/>
        <path id="路径_875" data-name="路径 875" d="M28.1,43.1H26.6a.684.684,0,0,1-.7-.7h0a.684.684,0,0,1,.7-.7h1.5a.684.684,0,0,1,.7.7h0A.684.684,0,0,1,28.1,43.1Z"/>
        <path id="路径_876" data-name="路径 876" d="M34.7,43.1H33.2a.684.684,0,0,1-.7-.7h0a.684.684,0,0,1,.7-.7h1.5a.684.684,0,0,1,.7.7h0C35.5,42.8,35.1,43.1,34.7,43.1Z"/>
        <path id="路径_877" data-name="路径 877" d="M41.4,43.1H39.9a.684.684,0,0,1-.7-.7h0a.684.684,0,0,1,.7-.7h1.5a.684.684,0,0,1,.7.7h0A.684.684,0,0,1,41.4,43.1Z"/>
        <path id="路径_878" data-name="路径 878" d="M0,41.7H.7a.684.684,0,0,1,.7.7h0a.684.684,0,0,1-.7.7H0"/>
        <path id="路径_879" data-name="路径 879" d="M48,43.1h-.7a.684.684,0,0,1-.7-.7h0a.684.684,0,0,1,.7-.7H48"/>
      </g>
    </g>
  </g>
</svg>
