<?xml version="1.0" encoding="utf-8"?>
<!-- Generator: Adobe Illustrator 21.0.0, SVG Export Plug-In . SVG Version: 6.00 Build 0)  -->
<svg version="1.1" id="图层_1" xmlns="http://www.w3.org/2000/svg" xmlns:xlink="http://www.w3.org/1999/xlink" x="0px" y="0px"
	 width="48px" height="48px" viewBox="0 0 48 48" style="enable-background:new 0 0 48 48;" xml:space="preserve">
<style type="text/css">
	.st0{fill:none;stroke:#595758;stroke-miterlimit:10;}
	.st1{fill:none;stroke:#595758;stroke-miterlimit:10;stroke-dasharray:11.1199,11.1199;}
	.st2{fill:none;stroke:#595758;stroke-miterlimit:10;stroke-dasharray:10.8257,10.8257;}
	.st3{fill:none;stroke:#595758;stroke-miterlimit:10;stroke-dasharray:10.8021,10.8021;}
</style>
<g>
	<g>
		<line class="st0" x1="0" y1="48.1" x2="4.2" y2="43.9"/>
		<line class="st1" x1="12.1" y1="36" x2="39.6" y2="8.5"/>
		<line class="st0" x1="43.6" y1="4.5" x2="47.8" y2="0.3"/>
	</g>
</g>
<g>
	<g>
		<line class="st0" x1="32.2" y1="48.1" x2="36.4" y2="43.9"/>
		<line class="st0" x1="43.8" y1="36.5" x2="48" y2="32.3"/>
	</g>
</g>
<g>
	<g>
		<line class="st0" x1="0" y1="16.2" x2="4.2" y2="12"/>
		<line class="st0" x1="11.8" y1="4.4" x2="16" y2="0.2"/>
	</g>
</g>
<g>
	<g>
		<line class="st0" x1="0.1" y1="31.8" x2="4.3" y2="27.6"/>
		<line class="st2" x1="12" y1="19.9" x2="23.4" y2="8.4"/>
		<line class="st0" x1="27.3" y1="4.5" x2="31.5" y2="0.3"/>
	</g>
</g>
<g>
	<g>
		<line class="st0" x1="16.5" y1="48.1" x2="20.7" y2="43.9"/>
		<line class="st3" x1="28.4" y1="36.2" x2="39.8" y2="24.8"/>
		<line class="st0" x1="43.7" y1="20.9" x2="47.9" y2="16.7"/>
	</g>
</g>
<path class="st0" d="M9.9,5L7.7,4.6c0,0-0.8,1.1-0.6,1.6s1.2,1.3,1.2,1.3L8.1,8.9l2.5,0.9l1.2-1.9l-0.6-1.6l2.2-3l-1.5-0.6
	c0,0-1.5,0.2-1.6,0.6S9.9,5,9.9,5z"/>
<path class="st0" d="M24.6,24.1l-2.2-0.4c0,0-0.8,1.1-0.6,1.6s1.2,1.3,1.2,1.3L22.8,28l2.5,0.9l1.2-1.9l-0.6-1.6l2.2-3l-1.5-0.6
	c0,0-1.5,0.2-1.6,0.6C24.8,22.8,24.6,24.1,24.6,24.1z"/>
<path class="st0" d="M38.8,39.8l-2.2-0.4c0,0-0.8,1.1-0.6,1.6s1.2,1.3,1.2,1.3l-0.3,1.4l2.5,0.9l1.2-1.9L40,41l2.2-3l-1.5-0.6
	c0,0-1.5,0.2-1.6,0.6S38.8,39.8,38.8,39.8z"/>
</svg>
