<svg xmlns="http://www.w3.org/2000/svg" width="48" height="48.4" viewBox="0 0 48 48.4">
  <g id="含粉质粘土中细砂" transform="translate(-1996 -55.6)">
    <path id="路径_3183" data-name="路径 3183" d="M0,0H48V48H0Z" transform="translate(1996 56)" fill="none"/>
    <g id="含粉质粘土中细砂-2" data-name="含粉质粘土中细砂" transform="translate(1996 55.6)">
      <path id="直线_90" data-name="直线 90" d="M48,.4H0V-.4H48Z" transform="translate(0 0.4)"/>
      <path id="直线_91" data-name="直线 91" d="M48,.4H0V-.4H48Z" transform="translate(0 47.6)"/>
      <g id="组_583" data-name="组 583">
        <path id="路径_916" data-name="路径 916" d="M21,6.4H11a.86.86,0,0,1-.8-.8.86.86,0,0,1,.8-.8H21a.86.86,0,0,1,.8.8A.86.86,0,0,1,21,6.4Z"/>
        <path id="路径_917" data-name="路径 917" d="M37,6.4H27a.86.86,0,0,1-.8-.8.86.86,0,0,1,.8-.8H37a.86.86,0,0,1,.8.8A.86.86,0,0,1,37,6.4Z"/>
        <path id="路径_918" data-name="路径 918" d="M0,4.8H5a.86.86,0,0,1,.8.8.86.86,0,0,1-.8.8H0"/>
        <path id="路径_919" data-name="路径 919" d="M48,6.4H43a.86.86,0,0,1-.8-.8.86.86,0,0,1,.8-.8h5"/>
      </g>
      <g id="组_584" data-name="组 584">
        <path id="路径_920" data-name="路径 920" d="M14.8,11.6H13.3a.684.684,0,0,1-.7-.7h0a.684.684,0,0,1,.7-.7h1.5a.684.684,0,0,1,.7.7h0A.684.684,0,0,1,14.8,11.6Z"/>
        <path id="路径_921" data-name="路径 921" d="M8.1,11.6H6.6a.684.684,0,0,1-.7-.7h0a.684.684,0,0,1,.7-.7H8.1a.684.684,0,0,1,.7.7h0A.684.684,0,0,1,8.1,11.6Z"/>
        <path id="路径_922" data-name="路径 922" d="M21.4,11.6H19.9a.684.684,0,0,1-.7-.7h0a.684.684,0,0,1,.7-.7h1.5a.684.684,0,0,1,.7.7h0A.684.684,0,0,1,21.4,11.6Z"/>
        <path id="路径_923" data-name="路径 923" d="M28.1,11.6H26.6a.684.684,0,0,1-.7-.7h0a.684.684,0,0,1,.7-.7h1.5a.684.684,0,0,1,.7.7h0A.684.684,0,0,1,28.1,11.6Z"/>
        <path id="路径_924" data-name="路径 924" d="M34.7,11.6H33.2a.684.684,0,0,1-.7-.7h0a.684.684,0,0,1,.7-.7h1.5a.684.684,0,0,1,.7.7h0C35.5,11.3,35.1,11.6,34.7,11.6Z"/>
        <path id="路径_925" data-name="路径 925" d="M41.4,11.6H39.9a.684.684,0,0,1-.7-.7h0a.684.684,0,0,1,.7-.7h1.5a.684.684,0,0,1,.7.7h0A.684.684,0,0,1,41.4,11.6Z"/>
        <path id="路径_926" data-name="路径 926" d="M0,10.2H.7a.684.684,0,0,1,.7.7h0a.684.684,0,0,1-.7.7H0"/>
        <path id="路径_927" data-name="路径 927" d="M48,11.6h-.7a.684.684,0,0,1-.7-.7h0a.684.684,0,0,1,.7-.7H48"/>
      </g>
      <path id="直线_92" data-name="直线 92" d="M48,.8H0V-.8H48Z" transform="translate(0 16.1)"/>
      <g id="组_585" data-name="组 585">
        <path id="路径_928" data-name="路径 928" d="M21,22.2H11a.8.8,0,1,1,0-1.6H21a.8.8,0,1,1,0,1.6Z"/>
        <path id="路径_929" data-name="路径 929" d="M37,22.2H27a.8.8,0,1,1,0-1.6H37a.8.8,0,1,1,0,1.6Z"/>
        <path id="路径_930" data-name="路径 930" d="M0,20.6H5a.8.8,0,1,1,0,1.6H0"/>
        <path id="路径_931" data-name="路径 931" d="M48,22.2H43a.8.8,0,0,1,0-1.6h5"/>
      </g>
      <g id="组_586" data-name="组 586">
        <path id="路径_932" data-name="路径 932" d="M14.8,27.3H13.3a.684.684,0,0,1-.7-.7h0a.684.684,0,0,1,.7-.7h1.5a.684.684,0,0,1,.7.7h0A.684.684,0,0,1,14.8,27.3Z"/>
        <path id="路径_933" data-name="路径 933" d="M8.1,27.3H6.6a.684.684,0,0,1-.7-.7h0a.684.684,0,0,1,.7-.7H8.1a.684.684,0,0,1,.7.7h0A.684.684,0,0,1,8.1,27.3Z"/>
        <path id="路径_934" data-name="路径 934" d="M21.4,27.3H19.9a.684.684,0,0,1-.7-.7h0a.684.684,0,0,1,.7-.7h1.5a.684.684,0,0,1,.7.7h0A.684.684,0,0,1,21.4,27.3Z"/>
        <path id="路径_935" data-name="路径 935" d="M28.1,27.3H26.6a.684.684,0,0,1-.7-.7h0a.684.684,0,0,1,.7-.7h1.5a.684.684,0,0,1,.7.7h0A.684.684,0,0,1,28.1,27.3Z"/>
        <path id="路径_936" data-name="路径 936" d="M34.7,27.3H33.2a.684.684,0,0,1-.7-.7h0a.684.684,0,0,1,.7-.7h1.5a.684.684,0,0,1,.7.7h0C35.5,27,35.1,27.3,34.7,27.3Z"/>
        <path id="路径_937" data-name="路径 937" d="M41.4,27.3H39.9a.684.684,0,0,1-.7-.7h0a.684.684,0,0,1,.7-.7h1.5a.684.684,0,0,1,.7.7h0A.684.684,0,0,1,41.4,27.3Z"/>
        <path id="路径_938" data-name="路径 938" d="M0,25.9H.7a.684.684,0,0,1,.7.7h0a.684.684,0,0,1-.7.7H0"/>
        <path id="路径_939" data-name="路径 939" d="M48,27.3h-.7a.684.684,0,0,1-.7-.7h0a.684.684,0,0,1,.7-.7H48"/>
      </g>
      <path id="直线_93" data-name="直线 93" d="M48,.8H0V-.8H48Z" transform="translate(0 31.9)"/>
      <g id="组_587" data-name="组 587">
        <path id="路径_940" data-name="路径 940" d="M21,37.9H11a.8.8,0,1,1,0-1.6H21a.8.8,0,0,1,0,1.6Z"/>
        <path id="路径_941" data-name="路径 941" d="M37,37.9H27a.8.8,0,0,1,0-1.6H37a.8.8,0,0,1,0,1.6Z"/>
        <path id="路径_942" data-name="路径 942" d="M0,36.3H5a.8.8,0,0,1,0,1.6H0"/>
        <path id="路径_943" data-name="路径 943" d="M48,37.9H43a.8.8,0,0,1,0-1.6h5"/>
      </g>
      <g id="组_588" data-name="组 588">
        <path id="路径_944" data-name="路径 944" d="M14.8,43.1H13.3a.684.684,0,0,1-.7-.7h0a.684.684,0,0,1,.7-.7h1.5a.684.684,0,0,1,.7.7h0A.684.684,0,0,1,14.8,43.1Z"/>
        <path id="路径_945" data-name="路径 945" d="M8.1,43.1H6.6a.684.684,0,0,1-.7-.7h0a.684.684,0,0,1,.7-.7H8.1a.684.684,0,0,1,.7.7h0A.684.684,0,0,1,8.1,43.1Z"/>
        <path id="路径_946" data-name="路径 946" d="M21.4,43.1H19.9a.684.684,0,0,1-.7-.7h0a.684.684,0,0,1,.7-.7h1.5a.684.684,0,0,1,.7.7h0A.684.684,0,0,1,21.4,43.1Z"/>
        <path id="路径_947" data-name="路径 947" d="M28.1,43.1H26.6a.684.684,0,0,1-.7-.7h0a.684.684,0,0,1,.7-.7h1.5a.684.684,0,0,1,.7.7h0A.684.684,0,0,1,28.1,43.1Z"/>
        <path id="路径_948" data-name="路径 948" d="M34.7,43.1H33.2a.684.684,0,0,1-.7-.7h0a.684.684,0,0,1,.7-.7h1.5a.684.684,0,0,1,.7.7h0C35.5,42.8,35.1,43.1,34.7,43.1Z"/>
        <path id="路径_949" data-name="路径 949" d="M41.4,43.1H39.9a.684.684,0,0,1-.7-.7h0a.684.684,0,0,1,.7-.7h1.5a.684.684,0,0,1,.7.7h0A.684.684,0,0,1,41.4,43.1Z"/>
        <path id="路径_950" data-name="路径 950" d="M0,41.7H.7a.684.684,0,0,1,.7.7h0a.684.684,0,0,1-.7.7H0"/>
        <path id="路径_951" data-name="路径 951" d="M48,43.1h-.7a.684.684,0,0,1-.7-.7h0a.684.684,0,0,1,.7-.7H48"/>
      </g>
    </g>
  </g>
</svg>
