<svg xmlns="http://www.w3.org/2000/svg" width="48.717" height="48.917" viewBox="0 0 48.717 48.917">
  <g id="含砾粘土" transform="translate(-1196.642 -54.642)">
    <rect id="矩形_30" data-name="矩形 30" width="48" height="48" transform="translate(1197 55)" fill="none"/>
    <g id="含砾粘土-2" data-name="含砾粘土" transform="translate(1197 55)">
      <path id="直线_64" data-name="直线 64" d="M.354,48.154l-.707-.707,47.8-47.8.707.707Z" transform="translate(0 0.2)" fill="#595758"/>
      <path id="直线_65" data-name="直线 65" d="M.358,32.358l-.717-.717,32-32,.717.717Z" fill="#595758"/>
      <path id="直线_66" data-name="直线 66" d="M.358,32.358l-.717-.717,32-32,.717.717Z" transform="translate(16 16.2)" fill="#595758"/>
      <path id="直线_67" data-name="直线 67" d="M.354,16.154l-.707-.707,15.8-15.8.707.707Z" transform="translate(32.2 32.2)" fill="#595758"/>
      <path id="直线_68" data-name="直线 68" d="M.354,16.354l-.707-.707,16-16,.707.707Z" transform="translate(0 0.1)" fill="#595758"/>
      <g id="组_372" data-name="组 372">
        <g id="组_368" data-name="组 368">
          <path id="路径_400" data-name="路径 400" d="M6,3A2.155,2.155,0,0,1,8.1,5.1,2.054,2.054,0,0,1,6,7.1a2.007,2.007,0,0,1-2.1-2A2.078,2.078,0,0,1,6,3ZM6,6.1a1.068,1.068,0,0,0,1.1-1A1.144,1.144,0,0,0,6,4,1.076,1.076,0,0,0,4.9,5.1,1,1,0,0,0,6,6.1Z"/>
        </g>
        <g id="组_369" data-name="组 369">
          <path id="路径_401" data-name="路径 401" d="M18.3,3a2.1,2.1,0,1,1-2.1,2.1A2.078,2.078,0,0,1,18.3,3Zm0,3.2a1.1,1.1,0,1,0-1.1-1.1A1.076,1.076,0,0,0,18.3,6.2Z"/>
        </g>
        <g id="组_370" data-name="组 370">
          <path id="路径_402" data-name="路径 402" d="M30.2,3a2.1,2.1,0,1,1-2.1,2.1A2.078,2.078,0,0,1,30.2,3Zm0,3.2a1.1,1.1,0,1,0-1.1-1.1A1.076,1.076,0,0,0,30.2,6.2Z"/>
        </g>
        <g id="组_371" data-name="组 371">
          <path id="路径_403" data-name="路径 403" d="M41.8,3a2.1,2.1,0,1,1-2.1,2.1A2.078,2.078,0,0,1,41.8,3Zm0,3.2a1.1,1.1,0,1,0-1.1-1.1A1.076,1.076,0,0,0,41.8,6.2Z"/>
        </g>
      </g>
      <g id="组_377" data-name="组 377">
        <g id="组_373" data-name="组 373">
          <path id="路径_404" data-name="路径 404" d="M6.1,12.5A2.1,2.1,0,1,1,4,14.6,2.078,2.078,0,0,1,6.1,12.5Zm0,3.2A1.1,1.1,0,1,0,5,14.6,1.076,1.076,0,0,0,6.1,15.7Z"/>
        </g>
        <g id="组_374" data-name="组 374">
          <path id="路径_405" data-name="路径 405" d="M18.4,12.5a2.1,2.1,0,1,1-2.1,2.1A2.078,2.078,0,0,1,18.4,12.5Zm0,3.2a1.1,1.1,0,1,0-1.1-1.1A1.076,1.076,0,0,0,18.4,15.7Z"/>
        </g>
        <g id="组_375" data-name="组 375">
          <path id="路径_406" data-name="路径 406" d="M30.3,12.5a2.1,2.1,0,1,1-2.1,2.1A2.078,2.078,0,0,1,30.3,12.5Zm0,3.2a1.1,1.1,0,1,0-1.1-1.1A1.076,1.076,0,0,0,30.3,15.7Z"/>
        </g>
        <g id="组_376" data-name="组 376">
          <path id="路径_407" data-name="路径 407" d="M41.9,12.5a2.1,2.1,0,1,1-2.1,2.1A2.078,2.078,0,0,1,41.9,12.5Zm0,3.2a1.1,1.1,0,1,0-1.1-1.1A1.076,1.076,0,0,0,41.9,15.7Z"/>
        </g>
      </g>
      <g id="组_382" data-name="组 382">
        <g id="组_378" data-name="组 378">
          <path id="路径_408" data-name="路径 408" d="M6.1,22A2.1,2.1,0,1,1,4,24.1,2.078,2.078,0,0,1,6.1,22Zm0,3.2A1.1,1.1,0,1,0,5,24.1,1.076,1.076,0,0,0,6.1,25.2Z"/>
        </g>
        <g id="组_379" data-name="组 379">
          <path id="路径_409" data-name="路径 409" d="M18.4,22a2.1,2.1,0,1,1,0,4.2,2.1,2.1,0,0,1,0-4.2Zm0,3.2a1.1,1.1,0,1,0,0-2.2,1.1,1.1,0,0,0,0,2.2Z"/>
        </g>
        <g id="组_380" data-name="组 380">
          <path id="路径_410" data-name="路径 410" d="M30.3,22a2.1,2.1,0,1,1-2.1,2.1A2.078,2.078,0,0,1,30.3,22Zm0,3.2a1.1,1.1,0,1,0-1.1-1.1A1.076,1.076,0,0,0,30.3,25.2Z"/>
        </g>
        <g id="组_381" data-name="组 381">
          <path id="路径_411" data-name="路径 411" d="M41.9,22a2.1,2.1,0,1,1-2.1,2.1A2.078,2.078,0,0,1,41.9,22Zm0,3.2a1.1,1.1,0,1,0-1.1-1.1A1.076,1.076,0,0,0,41.9,25.2Z"/>
        </g>
      </g>
      <g id="组_387" data-name="组 387">
        <g id="组_383" data-name="组 383">
          <path id="路径_412" data-name="路径 412" d="M6.1,31.4A2.1,2.1,0,1,1,4,33.5,2.078,2.078,0,0,1,6.1,31.4Zm0,3.2A1.1,1.1,0,1,0,5,33.5,1.076,1.076,0,0,0,6.1,34.6Z"/>
        </g>
        <g id="组_384" data-name="组 384">
          <path id="路径_413" data-name="路径 413" d="M18.4,31.4a2.1,2.1,0,1,1-2.1,2.1A2.078,2.078,0,0,1,18.4,31.4Zm0,3.2a1.1,1.1,0,1,0-1.1-1.1A1.076,1.076,0,0,0,18.4,34.6Z"/>
        </g>
        <g id="组_385" data-name="组 385">
          <path id="路径_414" data-name="路径 414" d="M30.3,31.4a2.1,2.1,0,1,1-2.1,2.1A2.078,2.078,0,0,1,30.3,31.4Zm0,3.2a1.1,1.1,0,1,0-1.1-1.1A1.076,1.076,0,0,0,30.3,34.6Z"/>
        </g>
        <g id="组_386" data-name="组 386">
          <path id="路径_415" data-name="路径 415" d="M41.9,31.4a2.1,2.1,0,1,1-2.1,2.1A2.078,2.078,0,0,1,41.9,31.4Zm0,3.2a1.1,1.1,0,1,0-1.1-1.1A1.076,1.076,0,0,0,41.9,34.6Z"/>
        </g>
      </g>
      <g id="组_392" data-name="组 392">
        <g id="组_388" data-name="组 388">
          <path id="路径_416" data-name="路径 416" d="M6.1,41A2.1,2.1,0,1,1,4,43.1,2.078,2.078,0,0,1,6.1,41Zm0,3.2A1.1,1.1,0,1,0,5,43.1,1.076,1.076,0,0,0,6.1,44.2Z"/>
        </g>
        <g id="组_389" data-name="组 389">
          <path id="路径_417" data-name="路径 417" d="M18.4,41a2.007,2.007,0,0,1,2.1,2,2.154,2.154,0,0,1-2.1,2.2,2.1,2.1,0,1,1,0-4.2Zm0,3.2A1.169,1.169,0,0,0,19.5,43a1,1,0,0,0-1.1-1,1.1,1.1,0,1,0,0,2.2Z"/>
        </g>
        <g id="组_390" data-name="组 390">
          <path id="路径_418" data-name="路径 418" d="M30.3,41a2.1,2.1,0,1,1-2.1,2.1A2.078,2.078,0,0,1,30.3,41Zm0,3.2a1.1,1.1,0,1,0-1.1-1.1A1.076,1.076,0,0,0,30.3,44.2Z"/>
        </g>
        <g id="组_391" data-name="组 391">
          <path id="路径_419" data-name="路径 419" d="M41.9,41a2.1,2.1,0,1,1-2.1,2.1A2.078,2.078,0,0,1,41.9,41Zm0,3.2a1.1,1.1,0,1,0-1.1-1.1A1.076,1.076,0,0,0,41.9,44.2Z"/>
        </g>
      </g>
    </g>
  </g>
</svg>
