<svg xmlns="http://www.w3.org/2000/svg" width="48.819" height="48.82" viewBox="0 0 48.819 48.82">
  <g id="含粘性土粉砂" transform="translate(-2810.645 -55.636)">
    <path id="路径_3197" data-name="路径 3197" d="M0,0H48V48H0Z" transform="translate(2811 56)" fill="none"/>
    <g id="含粘性土粉砂-2" data-name="含粘性土粉砂" transform="translate(2811 56.2)">
      <path id="路径_1293" data-name="路径 1293" d="M13.112,40.431a3.837,3.837,0,0,1-2.552-1.265c-1.137-1.042-2.1-1.509-2.706-1.317-.581.184-.764.949-.766.957l-.977-.214a2.394,2.394,0,0,1,1.44-1.7c.992-.314,2.232.2,3.686,1.535l0,0c.637.6,1.557,1.239,2.319.9a2,2,0,0,0,.983-1.409.43.43,0,0,0,.3.345l.316-.949a.577.577,0,0,1,.385.548,2.894,2.894,0,0,1-1.535,2.359A2.1,2.1,0,0,1,13.112,40.431Z" fill="#595758"/>
      <g id="组_742" data-name="组 742">
        <g id="组_741" data-name="组 741">
          <path id="直线_176" data-name="直线 176" d="M.354,4.554l-.707-.707,4.2-4.2.707.707Z" transform="translate(0 43.7)" fill="#595758"/>
          <path id="直线_177" data-name="直线 177" d="M.354,27.854l-.707-.707,7.863-7.863.707.707ZM16.079,12.128l-.707-.707,7.863-7.863.707.707Z" transform="translate(12.1 8.3)" fill="#595758"/>
          <path id="直线_178" data-name="直线 178" d="M.354,4.554l-.707-.707,4.2-4.2.707.707Z" transform="translate(43.6 0.1)" fill="#595758"/>
        </g>
      </g>
      <g id="组_744" data-name="组 744">
        <g id="组_743" data-name="组 743">
          <path id="直线_179" data-name="直线 179" d="M.364,4.656l-.729-.712,4.2-4.3.729.712Z" transform="translate(32.2 43.6)" fill="#595758"/>
          <path id="直线_180" data-name="直线 180" d="M.364,4.656l-.729-.712,4.2-4.3.729.712Z" transform="translate(43.9 31.6)" fill="#595758"/>
        </g>
      </g>
      <g id="组_746" data-name="组 746">
        <g id="组_745" data-name="组 745">
          <path id="直线_181" data-name="直线 181" d="M.355,4.563l-.71-.726,4.3-4.2.71.726Z" transform="translate(0 11.8)" fill="#595758"/>
          <path id="直线_182" data-name="直线 182" d="M.355,4.563l-.71-.726,4.3-4.2.71.726Z" transform="translate(12.2)" fill="#595758"/>
        </g>
      </g>
      <g id="组_748" data-name="组 748">
        <g id="组_747" data-name="组 747">
          <path id="直线_183" data-name="直线 183" d="M.356,4.564l-.711-.728,4.3-4.2.711.728Z" transform="translate(0.1 27.4)" fill="#595758"/>
          <path id="直线_184" data-name="直线 184" d="M.358,11.961l-.717-.723L7.467,3.48l.717.723Z" transform="translate(12.3 8)" fill="#595758"/>
          <path id="直线_185" data-name="直线 185" d="M.356,4.664l-.712-.728,4.4-4.3.712.728Z" transform="translate(28 -0.2)" fill="#595758"/>
        </g>
      </g>
      <g id="组_750" data-name="组 750">
        <g id="组_749" data-name="组 749">
          <path id="直线_186" data-name="直线 186" d="M.361,4.653l-.723-.706,4.2-4.3.723.706Z" transform="translate(16.5 43.6)" fill="#595758"/>
          <path id="直线_187" data-name="直线 187" d="M.36,11.954l-.721-.708L7.291,3.461l.721.708Z" transform="translate(28.5 24.2)" fill="#595758"/>
          <path id="直线_188" data-name="直线 188" d="M.357,4.657l-.715-.715,4.3-4.3.715.715Z" transform="translate(43.8 16)" fill="#595758"/>
        </g>
      </g>
      <g id="组_776" data-name="组 776">
        <g id="组_755" data-name="组 755">
          <g id="组_751" data-name="组 751">
            <path id="路径_1294" data-name="路径 1294" d="M6,3.4A1.58,1.58,0,0,0,4.4,5,1.5,1.5,0,0,0,6,6.5,1.561,1.561,0,0,0,7.6,5,1.645,1.645,0,0,0,6,3.4Z"/>
          </g>
          <g id="组_752" data-name="组 752">
            <path id="路径_1295" data-name="路径 1295" d="M18.3,3.4A1.6,1.6,0,1,0,19.9,5a1.58,1.58,0,0,0-1.6-1.6Z"/>
          </g>
          <g id="组_753" data-name="组 753">
            <path id="路径_1296" data-name="路径 1296" d="M30.2,3.4A1.6,1.6,0,1,0,31.8,5a1.58,1.58,0,0,0-1.6-1.6Z"/>
          </g>
          <g id="组_754" data-name="组 754">
            <path id="路径_1297" data-name="路径 1297" d="M41.8,3.4A1.6,1.6,0,1,0,43.4,5a1.58,1.58,0,0,0-1.6-1.6Z"/>
          </g>
        </g>
        <g id="组_760" data-name="组 760">
          <g id="组_756" data-name="组 756">
            <path id="路径_1298" data-name="路径 1298" d="M6.1,12.9a1.6,1.6,0,1,0,1.6,1.6,1.58,1.58,0,0,0-1.6-1.6Z"/>
          </g>
          <g id="组_757" data-name="组 757">
            <path id="路径_1299" data-name="路径 1299" d="M18.4,12.9A1.6,1.6,0,1,0,20,14.5a1.58,1.58,0,0,0-1.6-1.6Z"/>
          </g>
          <g id="组_758" data-name="组 758">
            <path id="路径_1300" data-name="路径 1300" d="M30.3,12.9a1.6,1.6,0,1,0,1.6,1.6,1.58,1.58,0,0,0-1.6-1.6Z"/>
          </g>
          <g id="组_759" data-name="组 759">
            <path id="路径_1301" data-name="路径 1301" d="M41.9,12.9a1.6,1.6,0,1,0,1.6,1.6,1.58,1.58,0,0,0-1.6-1.6Z"/>
          </g>
        </g>
        <g id="组_765" data-name="组 765">
          <g id="组_761" data-name="组 761">
            <path id="路径_1302" data-name="路径 1302" d="M6.1,22.4A1.6,1.6,0,1,0,7.7,24a1.58,1.58,0,0,0-1.6-1.6Z"/>
          </g>
          <g id="组_762" data-name="组 762">
            <path id="路径_1303" data-name="路径 1303" d="M18.4,22.4a1.6,1.6,0,0,0,0,3.2,1.6,1.6,0,1,0,0-3.2Z"/>
          </g>
          <g id="组_763" data-name="组 763">
            <path id="路径_1304" data-name="路径 1304" d="M30.3,22.4A1.6,1.6,0,1,0,31.9,24a1.58,1.58,0,0,0-1.6-1.6Z"/>
          </g>
          <g id="组_764" data-name="组 764">
            <path id="路径_1305" data-name="路径 1305" d="M41.9,22.4A1.6,1.6,0,1,0,43.5,24a1.58,1.58,0,0,0-1.6-1.6Z"/>
          </g>
        </g>
        <g id="组_770" data-name="组 770">
          <g id="组_766" data-name="组 766">
            <path id="路径_1306" data-name="路径 1306" d="M6.1,31.8a1.6,1.6,0,1,0,1.6,1.6,1.58,1.58,0,0,0-1.6-1.6Z"/>
          </g>
          <g id="组_767" data-name="组 767">
            <path id="路径_1307" data-name="路径 1307" d="M18.4,31.8A1.6,1.6,0,1,0,20,33.4a1.58,1.58,0,0,0-1.6-1.6Z"/>
          </g>
          <g id="组_768" data-name="组 768">
            <path id="路径_1308" data-name="路径 1308" d="M30.3,31.8a1.6,1.6,0,1,0,1.6,1.6,1.58,1.58,0,0,0-1.6-1.6Z"/>
          </g>
          <g id="组_769" data-name="组 769">
            <path id="路径_1309" data-name="路径 1309" d="M41.9,31.8a1.6,1.6,0,1,0,1.6,1.6,1.58,1.58,0,0,0-1.6-1.6Z"/>
          </g>
        </g>
        <g id="组_775" data-name="组 775">
          <g id="组_771" data-name="组 771">
            <path id="路径_1310" data-name="路径 1310" d="M6.1,41.4A1.6,1.6,0,1,0,7.7,43a1.58,1.58,0,0,0-1.6-1.6Z"/>
          </g>
          <g id="组_772" data-name="组 772">
            <path id="路径_1311" data-name="路径 1311" d="M18.4,41.4a1.6,1.6,0,1,0,0,3.2A1.666,1.666,0,0,0,20,42.9a1.5,1.5,0,0,0-1.6-1.5Z"/>
          </g>
          <g id="组_773" data-name="组 773">
            <path id="路径_1312" data-name="路径 1312" d="M30.3,41.4A1.6,1.6,0,1,0,31.9,43a1.58,1.58,0,0,0-1.6-1.6Z"/>
          </g>
          <g id="组_774" data-name="组 774">
            <path id="路径_1313" data-name="路径 1313" d="M41.9,41.4A1.6,1.6,0,1,0,43.5,43a1.58,1.58,0,0,0-1.6-1.6Z"/>
          </g>
        </g>
      </g>
    </g>
  </g>
</svg>
