<svg xmlns="http://www.w3.org/2000/svg" width="48" height="48.25" viewBox="0 0 48 48.25">
  <g id="含粘土细砂" transform="translate(-2518 -55.75)">
    <path id="路径_3192" data-name="路径 3192" d="M0,0H48V48H0Z" transform="translate(2518 56)" fill="none"/>
    <g id="含粘土细砂-2" data-name="含粘土细砂" transform="translate(2518 55.7)">
      <path id="直线_132" data-name="直线 132" d="M48,.5H0v-1H48Z" transform="translate(0 12.1)"/>
      <path id="直线_133" data-name="直线 133" d="M48,.25H0v-.5H48Z" transform="translate(0 0.3)"/>
      <path id="直线_134" data-name="直线 134" d="M48,.25H0v-.5H48Z" transform="translate(0 47.8)"/>
      <path id="直线_135" data-name="直线 135" d="M48,.5H0v-1H48Z" transform="translate(0 24)"/>
      <path id="直线_136" data-name="直线 136" d="M48,.5H0v-1H48Z" transform="translate(0 35.9)"/>
      <g id="组_625" data-name="组 625">
        <path id="路径_1192" data-name="路径 1192" d="M9,43.2H8.2a1.367,1.367,0,0,1-1.4-1.4h0a1.367,1.367,0,0,1,1.4-1.4H9a1.367,1.367,0,0,1,1.4,1.4h0A1.43,1.43,0,0,1,9,43.2Z"/>
        <path id="路径_1193" data-name="路径 1193" d="M16.7,43.2h-.8a1.367,1.367,0,0,1-1.4-1.4h0a1.367,1.367,0,0,1,1.4-1.4h.8a1.367,1.367,0,0,1,1.4,1.4h0A1.43,1.43,0,0,1,16.7,43.2Z"/>
        <path id="路径_1194" data-name="路径 1194" d="M24.4,43.2h-.8a1.367,1.367,0,0,1-1.4-1.4h0a1.367,1.367,0,0,1,1.4-1.4h.8a1.367,1.367,0,0,1,1.4,1.4h0A1.367,1.367,0,0,1,24.4,43.2Z"/>
        <path id="路径_1195" data-name="路径 1195" d="M32.1,43.2h-.8a1.367,1.367,0,0,1-1.4-1.4h0a1.367,1.367,0,0,1,1.4-1.4h.8a1.367,1.367,0,0,1,1.4,1.4h0A1.367,1.367,0,0,1,32.1,43.2Z"/>
        <path id="路径_1196" data-name="路径 1196" d="M39.8,43.2H39a1.367,1.367,0,0,1-1.4-1.4h0A1.367,1.367,0,0,1,39,40.4h.8a1.367,1.367,0,0,1,1.4,1.4h0A1.367,1.367,0,0,1,39.8,43.2Z"/>
        <path id="路径_1197" data-name="路径 1197" d="M48,43.2h-.4a1.367,1.367,0,0,1-1.4-1.4h0a1.367,1.367,0,0,1,1.4-1.4H48"/>
        <path id="路径_1198" data-name="路径 1198" d="M0,40.4H.4a1.367,1.367,0,0,1,1.4,1.4h0A1.367,1.367,0,0,1,.4,43.2H0"/>
      </g>
      <g id="组_626" data-name="组 626">
        <path id="路径_1199" data-name="路径 1199" d="M9,31.3H8.2a1.367,1.367,0,0,1-1.4-1.4h0a1.367,1.367,0,0,1,1.4-1.4H9a1.367,1.367,0,0,1,1.4,1.4h0A1.43,1.43,0,0,1,9,31.3Z"/>
        <path id="路径_1200" data-name="路径 1200" d="M16.7,31.3h-.8a1.367,1.367,0,0,1-1.4-1.4h0a1.367,1.367,0,0,1,1.4-1.4h.8a1.367,1.367,0,0,1,1.4,1.4h0A1.43,1.43,0,0,1,16.7,31.3Z"/>
        <path id="路径_1201" data-name="路径 1201" d="M24.4,31.3h-.8a1.367,1.367,0,0,1-1.4-1.4h0a1.367,1.367,0,0,1,1.4-1.4h.8a1.367,1.367,0,0,1,1.4,1.4h0A1.367,1.367,0,0,1,24.4,31.3Z"/>
        <path id="路径_1202" data-name="路径 1202" d="M32.1,31.3h-.8a1.367,1.367,0,0,1-1.4-1.4h0a1.367,1.367,0,0,1,1.4-1.4h.8a1.367,1.367,0,0,1,1.4,1.4h0A1.367,1.367,0,0,1,32.1,31.3Z"/>
        <path id="路径_1203" data-name="路径 1203" d="M39.8,31.3H39a1.367,1.367,0,0,1-1.4-1.4h0A1.367,1.367,0,0,1,39,28.5h.8a1.367,1.367,0,0,1,1.4,1.4h0A1.367,1.367,0,0,1,39.8,31.3Z"/>
        <path id="路径_1204" data-name="路径 1204" d="M48,31.3h-.4a1.367,1.367,0,0,1-1.4-1.4h0a1.367,1.367,0,0,1,1.4-1.4H48"/>
        <path id="路径_1205" data-name="路径 1205" d="M0,28.5H.4a1.367,1.367,0,0,1,1.4,1.4h0A1.367,1.367,0,0,1,.4,31.3H0"/>
      </g>
      <g id="组_627" data-name="组 627">
        <path id="路径_1206" data-name="路径 1206" d="M9,19.5H8.2a1.367,1.367,0,0,1-1.4-1.4h0a1.367,1.367,0,0,1,1.4-1.4H9a1.367,1.367,0,0,1,1.4,1.4h0A1.506,1.506,0,0,1,9,19.5Z"/>
        <path id="路径_1207" data-name="路径 1207" d="M16.7,19.5h-.8a1.367,1.367,0,0,1-1.4-1.4h0a1.367,1.367,0,0,1,1.4-1.4h.8a1.367,1.367,0,0,1,1.4,1.4h0A1.506,1.506,0,0,1,16.7,19.5Z"/>
        <path id="路径_1208" data-name="路径 1208" d="M24.4,19.5h-.8a1.367,1.367,0,0,1-1.4-1.4h0a1.367,1.367,0,0,1,1.4-1.4h.8a1.367,1.367,0,0,1,1.4,1.4h0A1.43,1.43,0,0,1,24.4,19.5Z"/>
        <path id="路径_1209" data-name="路径 1209" d="M32.1,19.5h-.8a1.367,1.367,0,0,1-1.4-1.4h0a1.367,1.367,0,0,1,1.4-1.4h.8a1.367,1.367,0,0,1,1.4,1.4h0A1.43,1.43,0,0,1,32.1,19.5Z"/>
        <path id="路径_1210" data-name="路径 1210" d="M39.8,19.5H39a1.367,1.367,0,0,1-1.4-1.4h0A1.367,1.367,0,0,1,39,16.7h.8a1.367,1.367,0,0,1,1.4,1.4h0A1.43,1.43,0,0,1,39.8,19.5Z"/>
        <path id="路径_1211" data-name="路径 1211" d="M48,19.5h-.4a1.367,1.367,0,0,1-1.4-1.4h0a1.367,1.367,0,0,1,1.4-1.4H48"/>
        <path id="路径_1212" data-name="路径 1212" d="M0,16.7H.4a1.367,1.367,0,0,1,1.4,1.4h0A1.367,1.367,0,0,1,.4,19.5H0"/>
      </g>
      <g id="组_628" data-name="组 628">
        <path id="路径_1213" data-name="路径 1213" d="M9,7.6H8.2A1.367,1.367,0,0,1,6.8,6.2h0A1.367,1.367,0,0,1,8.2,4.8H9a1.367,1.367,0,0,1,1.4,1.4h0A1.43,1.43,0,0,1,9,7.6Z"/>
        <path id="路径_1214" data-name="路径 1214" d="M16.7,7.6h-.8a1.367,1.367,0,0,1-1.4-1.4h0a1.367,1.367,0,0,1,1.4-1.4h.8a1.367,1.367,0,0,1,1.4,1.4h0A1.43,1.43,0,0,1,16.7,7.6Z"/>
        <path id="路径_1215" data-name="路径 1215" d="M24.4,7.6h-.8a1.367,1.367,0,0,1-1.4-1.4h0a1.367,1.367,0,0,1,1.4-1.4h.8a1.367,1.367,0,0,1,1.4,1.4h0A1.367,1.367,0,0,1,24.4,7.6Z"/>
        <path id="路径_1216" data-name="路径 1216" d="M32.1,7.6h-.8a1.367,1.367,0,0,1-1.4-1.4h0a1.367,1.367,0,0,1,1.4-1.4h.8a1.367,1.367,0,0,1,1.4,1.4h0A1.367,1.367,0,0,1,32.1,7.6Z"/>
        <path id="路径_1217" data-name="路径 1217" d="M39.8,7.6H39a1.367,1.367,0,0,1-1.4-1.4h0A1.367,1.367,0,0,1,39,4.8h.8a1.367,1.367,0,0,1,1.4,1.4h0A1.367,1.367,0,0,1,39.8,7.6Z"/>
        <path id="路径_1218" data-name="路径 1218" d="M48,7.6h-.4a1.367,1.367,0,0,1-1.4-1.4h0a1.367,1.367,0,0,1,1.4-1.4H48"/>
        <path id="路径_1219" data-name="路径 1219" d="M0,4.8H.4A1.367,1.367,0,0,1,1.8,6.2h0A1.367,1.367,0,0,1,.4,7.6H0"/>
      </g>
    </g>
  </g>
</svg>
