<svg xmlns="http://www.w3.org/2000/svg" width="48" height="48" viewBox="0 0 48 48">
  <g id="含生物碎屑粉土" transform="translate(-862 -55)">
    <rect id="矩形_24" data-name="矩形 24" width="48" height="48" transform="translate(862 55)" fill="none"/>
    <g id="含生物碎屑粉土-2" data-name="含生物碎屑粉土" transform="translate(862 55)">
      <path id="路径_232" data-name="路径 232" d="M44.3,36.3a.758.758,0,0,1-.4.2.52.52,0,0,1-.4-.2.608.608,0,0,1,0-.8L48,30.9v-14l-3.8,3.8a.5.5,0,0,1-.8,0,.608.608,0,0,1,0-.8L48,15.3V.7l-4,4a.5.5,0,0,1-.8,0,.608.608,0,0,1,0-.8L47.1,0H33L28.4,4.5a.758.758,0,0,1-.4.2.52.52,0,0,1-.4-.2.608.608,0,0,1,0-.8L31.3,0h-14L12.6,4.6a.758.758,0,0,1-.4.2.52.52,0,0,1-.4-.2.608.608,0,0,1,0-.8L15.6,0H0V15.2l3.9-3.8a.608.608,0,0,1,.8,0,.468.468,0,0,1,0,.8L0,16.9v14L4,27a.608.608,0,0,1,.8,0,.608.608,0,0,1,0,.8L0,32.6V47.1l3.8-3.8a.468.468,0,0,1,.8,0,.608.608,0,0,1,0,.8L.7,48H15.5l4.7-4.8a.566.566,0,1,1,.8.8l-3.9,4h14l4.7-4.8a.566.566,0,1,1,.8.8l-3.9,4H48V32.6ZM20.4,28.4l-7.9,7.9a.758.758,0,0,1-.4.2.758.758,0,0,1-.4-.2.608.608,0,0,1,0-.8l7.9-7.9a.608.608,0,0,1,.8,0C20.6,27.7,20.6,28.1,20.4,28.4Zm.1-16.1L12.7,20a.758.758,0,0,1-.4.2.52.52,0,0,1-.4-.2.608.608,0,0,1,0-.8l7.8-7.8a.608.608,0,0,1,.8,0A.563.563,0,0,1,20.5,12.3Zm6.9,8.2a.608.608,0,0,1,0-.8l7.9-7.9a.566.566,0,1,1,.8.8l-7.9,7.9a.5.5,0,0,1-.8,0Zm9.2,7.9-7.7,7.8a.758.758,0,0,1-.4.2.52.52,0,0,1-.4-.2.608.608,0,0,1,0-.8l7.7-7.8a.566.566,0,1,1,.8.8Z" fill="none"/>
      <path id="路径_233" data-name="路径 233" d="M4.6,43.3a.468.468,0,0,0-.8,0L0,47.1V48H.7l3.9-3.9A.468.468,0,0,0,4.6,43.3Z" fill="#595758"/>
      <path id="路径_234" data-name="路径 234" d="M19.5,27.5l-7.9,7.9a.608.608,0,0,0,0,.8.758.758,0,0,0,.4.2.758.758,0,0,0,.4-.2l7.9-7.9a.608.608,0,0,0,0-.8C20.2,27.3,19.8,27.3,19.5,27.5Z" fill="#595758"/>
      <path id="路径_235" data-name="路径 235" d="M36.1,12.6a.566.566,0,1,0-.8-.8l-7.9,7.9a.608.608,0,0,0,0,.8.5.5,0,0,0,.8,0Z" fill="#595758"/>
      <path id="路径_236" data-name="路径 236" d="M43.2,4.7a.5.5,0,0,0,.8,0l4-4V0h-.9L43.2,3.9A.468.468,0,0,0,43.2,4.7Z" fill="#595758"/>
      <path id="路径_237" data-name="路径 237" d="M36.8,43.2a.608.608,0,0,0-.8,0L31.3,48H33l3.9-4A.529.529,0,0,0,36.8,43.2Z" fill="#595758"/>
      <path id="路径_238" data-name="路径 238" d="M43.5,36.3a.758.758,0,0,0,.4.2.52.52,0,0,0,.4-.2L48,32.6V30.9l-4.5,4.6A.468.468,0,0,0,43.5,36.3Z" fill="#595758"/>
      <path id="路径_239" data-name="路径 239" d="M4.7,11.4a.608.608,0,0,0-.8,0L0,15.2v1.7l4.7-4.6A.561.561,0,0,0,4.7,11.4Z" fill="#595758"/>
      <path id="路径_240" data-name="路径 240" d="M11.6,4.6a.758.758,0,0,0,.4.2.52.52,0,0,0,.4-.2L17.2,0H15.5L11.7,3.8A.529.529,0,0,0,11.6,4.6Z" fill="#595758"/>
      <path id="路径_241" data-name="路径 241" d="M4.8,27A.608.608,0,0,0,4,27L0,30.9v1.7l4.8-4.7A.561.561,0,0,0,4.8,27Z" fill="#595758"/>
      <path id="路径_242" data-name="路径 242" d="M19.7,11.4l-7.8,7.8a.608.608,0,0,0,0,.8.758.758,0,0,0,.4.2.52.52,0,0,0,.4-.2l7.8-7.8a.566.566,0,1,0-.8-.8Z" fill="#595758"/>
      <path id="路径_243" data-name="路径 243" d="M27.5,4.5a.758.758,0,0,0,.4.2.52.52,0,0,0,.4-.2L33,0H31.3L27.6,3.7A.529.529,0,0,0,27.5,4.5Z" fill="#595758"/>
      <g id="组_86" data-name="组 86">
        <path id="路径_244" data-name="路径 244" d="M20.2,43.2,15.5,48h1.7l3.9-4a.608.608,0,0,0,0-.8A.563.563,0,0,0,20.2,43.2Z" fill="#595758"/>
        <path id="路径_245" data-name="路径 245" d="M35.7,27.5,28,35.3a.608.608,0,0,0,0,.8.758.758,0,0,0,.4.2.52.52,0,0,0,.4-.2l7.7-7.8a.566.566,0,1,0-.8-.8Z" fill="#595758"/>
        <path id="路径_246" data-name="路径 246" d="M43.4,19.8a.608.608,0,0,0,0,.8.5.5,0,0,0,.8,0L48,16.8V15.1Z" fill="#595758"/>
      </g>
      <path id="路径_247" data-name="路径 247" d="M0,.7.8,0H0Z" fill="#595758"/>
      <path id="路径_248" data-name="路径 248" d="M48,47.1l-.9.9H48Z" fill="#595758"/>
      <g id="组_87" data-name="组 87">
        <path id="路径_249" data-name="路径 249" d="M8.7,7.3a2.7,2.7,0,0,1-1.8,1A2.286,2.286,0,0,1,4.6,5.9,2.782,2.782,0,0,1,7,3,1.774,1.774,0,0,1,8.8,4.7c0,.2,0,.3-.2.3s-1.7.2-3.4.2C5.2,7,6.3,7.7,7.1,7.7A2.154,2.154,0,0,0,8.6,7ZM5.3,4.9H7.8c.3,0,.3-.1.3-.2A1.288,1.288,0,0,0,6.7,3.4C6.1,3.4,5.5,3.9,5.3,4.9Z"/>
      </g>
      <g id="组_88" data-name="组 88">
        <path id="路径_250" data-name="路径 250" d="M21.2,16.5a2.7,2.7,0,0,1-1.8,1,2.286,2.286,0,0,1-2.3-2.4,2.782,2.782,0,0,1,2.4-2.9,1.774,1.774,0,0,1,1.8,1.7c0,.2,0,.3-.2.3s-1.7.2-3.4.2c0,1.8,1.1,2.5,1.9,2.5a2.154,2.154,0,0,0,1.5-.7Zm-3.5-2.4h2.5c.3,0,.3-.1.3-.2a1.288,1.288,0,0,0-1.4-1.3A1.68,1.68,0,0,0,17.7,14.1Z"/>
      </g>
      <g id="组_89" data-name="组 89">
        <path id="路径_251" data-name="路径 251" d="M21.2,35.5a2.7,2.7,0,0,1-1.8,1,2.286,2.286,0,0,1-2.3-2.4,2.782,2.782,0,0,1,2.4-2.9,1.774,1.774,0,0,1,1.8,1.7c0,.2,0,.3-.2.3s-1.7.2-3.4.2c0,1.8,1.1,2.5,1.9,2.5a2.154,2.154,0,0,0,1.5-.7Zm-3.5-2.3h2.5c.3,0,.3-.1.3-.2a1.288,1.288,0,0,0-1.4-1.3A1.68,1.68,0,0,0,17.7,33.2Z"/>
      </g>
      <g id="组_90" data-name="组 90">
        <path id="路径_252" data-name="路径 252" d="M33.1,6.9a2.7,2.7,0,0,1-1.8,1A2.286,2.286,0,0,1,29,5.5a2.782,2.782,0,0,1,2.4-2.9,1.774,1.774,0,0,1,1.8,1.7c0,.2,0,.3-.2.3s-1.7.2-3.4.2c0,1.8,1.1,2.5,1.9,2.5A2.154,2.154,0,0,0,33,6.6ZM29.6,4.5h2.5c.3,0,.3-.1.3-.2A1.288,1.288,0,0,0,31,3,1.8,1.8,0,0,0,29.6,4.5Z"/>
      </g>
      <g id="组_91" data-name="组 91">
        <path id="路径_253" data-name="路径 253" d="M33.1,26a2.7,2.7,0,0,1-1.8,1A2.286,2.286,0,0,1,29,24.6a2.782,2.782,0,0,1,2.4-2.9,1.774,1.774,0,0,1,1.8,1.7c0,.2,0,.3-.2.3s-1.7.2-3.4.2c0,1.8,1.1,2.5,1.9,2.5a2.154,2.154,0,0,0,1.5-.7Zm-3.5-2.4h2.5c.3,0,.3-.1.3-.2A1.288,1.288,0,0,0,31,22.1,1.68,1.68,0,0,0,29.6,23.6Z"/>
      </g>
      <g id="组_92" data-name="组 92">
        <path id="路径_254" data-name="路径 254" d="M33.1,45a2.7,2.7,0,0,1-1.8,1A2.286,2.286,0,0,1,29,43.6a2.782,2.782,0,0,1,2.4-2.9,1.774,1.774,0,0,1,1.8,1.7c0,.2,0,.3-.2.3s-1.7.2-3.4.2c0,1.8,1.1,2.5,1.9,2.5a2.154,2.154,0,0,0,1.5-.7Zm-3.5-2.4h2.5c.3,0,.3-.1.3-.2A1.288,1.288,0,0,0,31,41.1,1.8,1.8,0,0,0,29.6,42.6Z"/>
      </g>
      <g id="组_93" data-name="组 93">
        <path id="路径_255" data-name="路径 255" d="M44.7,16.5a2.7,2.7,0,0,1-1.8,1,2.286,2.286,0,0,1-2.3-2.4A2.782,2.782,0,0,1,43,12.2a1.774,1.774,0,0,1,1.8,1.7c0,.2,0,.3-.2.3s-1.7.2-3.4.2c0,1.8,1.1,2.5,1.9,2.5a2.154,2.154,0,0,0,1.5-.7Zm-3.5-2.4h2.5c.3,0,.3-.1.3-.2a1.288,1.288,0,0,0-1.4-1.3A1.68,1.68,0,0,0,41.2,14.1Z"/>
      </g>
      <g id="组_94" data-name="组 94">
        <path id="路径_256" data-name="路径 256" d="M44.7,35.5a2.7,2.7,0,0,1-1.8,1,2.286,2.286,0,0,1-2.3-2.4A2.782,2.782,0,0,1,43,31.2a1.774,1.774,0,0,1,1.8,1.7c0,.2,0,.3-.2.3s-1.7.2-3.4.2c0,1.8,1.1,2.5,1.9,2.5a2.154,2.154,0,0,0,1.5-.7Zm-3.5-2.4h2.5c.3,0,.3-.1.3-.2a1.288,1.288,0,0,0-1.4-1.3A1.68,1.68,0,0,0,41.2,33.1Z"/>
      </g>
      <g id="组_95" data-name="组 95">
        <path id="路径_257" data-name="路径 257" d="M8.7,26.1a2.7,2.7,0,0,1-1.8,1,2.286,2.286,0,0,1-2.3-2.4A2.782,2.782,0,0,1,7,21.8a1.774,1.774,0,0,1,1.8,1.7c0,.2,0,.3-.2.3s-1.7.2-3.4.2c0,1.8,1.1,2.5,1.9,2.5a2.154,2.154,0,0,0,1.5-.7ZM5.3,23.7H7.8c.3,0,.3-.1.3-.2a1.288,1.288,0,0,0-1.4-1.3C6.1,22.2,5.5,22.8,5.3,23.7Z"/>
      </g>
      <g id="组_96" data-name="组 96">
        <path id="路径_258" data-name="路径 258" d="M8.7,45a2.7,2.7,0,0,1-1.8,1,2.286,2.286,0,0,1-2.3-2.4A2.782,2.782,0,0,1,7,40.7a1.774,1.774,0,0,1,1.8,1.7c0,.2,0,.3-.2.3s-1.7.2-3.4.2c0,1.8,1.1,2.5,1.9,2.5a2.154,2.154,0,0,0,1.5-.7ZM5.3,42.6H7.8c.3,0,.3-.1.3-.2a1.288,1.288,0,0,0-1.4-1.3C6.1,41.1,5.5,41.6,5.3,42.6Z"/>
      </g>
    </g>
  </g>
</svg>
