<?xml version="1.0" encoding="utf-8"?>
<!-- Generator: Adobe Illustrator 15.0.0, SVG Export Plug-In . SVG Version: 6.00 Build 0)  -->
<!DOCTYPE svg PUBLIC "-//W3C//DTD SVG 1.1//EN" "http://www.w3.org/Graphics/SVG/1.1/DTD/svg11.dtd">
<svg version="1.1" id="图层_1" xmlns="http://www.w3.org/2000/svg" xmlns:xlink="http://www.w3.org/1999/xlink" x="0px" y="0px"
	 width="48px" height="48px" viewBox="0 0 48 48" enable-background="new 0 0 48 48" xml:space="preserve">
<line fill="none" stroke="#000000" stroke-miterlimit="10" x1="48" y1="0" x2="0" y2="48"/>
<line fill="none" stroke="#000000" stroke-miterlimit="10" x1="35.188" y1="24.813" x2="43.875" y2="16.125"/>
<polyline fill="none" stroke="#000000" stroke-miterlimit="10" points="22.063,37.938 26.433,33.568 30.773,29.228 "/>
<line fill="none" stroke="#000000" stroke-miterlimit="10" x1="12" y1="48" x2="18.134" y2="41.867"/>
<line fill="none" stroke="#000000" stroke-miterlimit="10" x1="36" y1="36" x2="48" y2="24"/>
<line fill="none" stroke="#000000" stroke-miterlimit="10" x1="36" y1="36" x2="24" y2="48"/>
<line fill="none" stroke="#000000" stroke-miterlimit="10" x1="8.121" y1="3.879" x2="12" y2="0"/>
<line fill="none" stroke="#000000" stroke-miterlimit="10" x1="3.878" y1="8.122" x2="0" y2="12"/>
<line fill="none" stroke="#000000" stroke-miterlimit="10" x1="24" y1="-0.182" x2="0" y2="24"/>
<line fill="none" stroke="#000000" stroke-miterlimit="10" x1="44.121" y1="39.879" x2="48" y2="36"/>
<line fill="none" stroke="#000000" stroke-miterlimit="10" x1="39.879" y1="44.121" x2="36" y2="48"/>
<line fill="none" stroke="#000000" stroke-miterlimit="10" x1="23.187" y1="12.566" x2="31.875" y2="3.879"/>
<polyline fill="none" stroke="#000000" stroke-miterlimit="10" points="10.063,25.691 14.432,21.322 18.773,16.981 "/>
<line fill="none" stroke="#000000" stroke-miterlimit="10" x1="0" y1="35.754" x2="6.133" y2="29.621"/>
</svg>
