<svg xmlns="http://www.w3.org/2000/svg" width="48.819" height="48.82" viewBox="0 0 48.819 48.82">
  <g id="含粘性土砾砂" transform="translate(-2751.645 -55.636)">
    <path id="路径_3196" data-name="路径 3196" d="M0,0H48V48H0Z" transform="translate(2752 56)" fill="none"/>
    <g id="含粘性土砾砂-2" data-name="含粘性土砾砂" transform="translate(2752 56.2)">
      <path id="路径_1272" data-name="路径 1272" d="M13.112,40.431a3.837,3.837,0,0,1-2.552-1.265c-1.137-1.042-2.1-1.509-2.706-1.317-.581.184-.764.949-.766.957l-.977-.214a2.394,2.394,0,0,1,1.44-1.7c.992-.314,2.232.2,3.686,1.535l0,0c.637.6,1.557,1.239,2.319.9a2,2,0,0,0,.983-1.409.43.43,0,0,0,.3.345l.316-.949a.577.577,0,0,1,.385.548,2.894,2.894,0,0,1-1.535,2.359A2.1,2.1,0,0,1,13.112,40.431Z" fill="#595758"/>
      <g id="组_706" data-name="组 706">
        <g id="组_705" data-name="组 705">
          <path id="直线_163" data-name="直线 163" d="M.354,4.554l-.707-.707,4.2-4.2.707.707Z" transform="translate(0 43.7)" fill="#595758"/>
          <path id="直线_164" data-name="直线 164" d="M.354,27.854l-.707-.707,7.863-7.863.707.707ZM16.079,12.128l-.707-.707,7.863-7.863.707.707Z" transform="translate(12.1 8.3)" fill="#595758"/>
          <path id="直线_165" data-name="直线 165" d="M.354,4.554l-.707-.707,4.2-4.2.707.707Z" transform="translate(43.6 0.1)" fill="#595758"/>
        </g>
      </g>
      <g id="组_708" data-name="组 708">
        <g id="组_707" data-name="组 707">
          <path id="直线_166" data-name="直线 166" d="M.364,4.656l-.729-.712,4.2-4.3.729.712Z" transform="translate(32.2 43.6)" fill="#595758"/>
          <path id="直线_167" data-name="直线 167" d="M.364,4.656l-.729-.712,4.2-4.3.729.712Z" transform="translate(43.9 31.6)" fill="#595758"/>
        </g>
      </g>
      <g id="组_710" data-name="组 710">
        <g id="组_709" data-name="组 709">
          <path id="直线_168" data-name="直线 168" d="M.355,4.563l-.71-.726,4.3-4.2.71.726Z" transform="translate(0 11.8)" fill="#595758"/>
          <path id="直线_169" data-name="直线 169" d="M.355,4.563l-.71-.726,4.3-4.2.71.726Z" transform="translate(12.2)" fill="#595758"/>
        </g>
      </g>
      <g id="组_712" data-name="组 712">
        <g id="组_711" data-name="组 711">
          <path id="直线_170" data-name="直线 170" d="M.356,4.564l-.711-.728,4.3-4.2.711.728Z" transform="translate(0.1 27.4)" fill="#595758"/>
          <path id="直线_171" data-name="直线 171" d="M.358,11.961l-.717-.723L7.467,3.48l.717.723Z" transform="translate(12.3 8)" fill="#595758"/>
          <path id="直线_172" data-name="直线 172" d="M.356,4.664l-.712-.728,4.4-4.3.712.728Z" transform="translate(28 -0.2)" fill="#595758"/>
        </g>
      </g>
      <g id="组_714" data-name="组 714">
        <g id="组_713" data-name="组 713">
          <path id="直线_173" data-name="直线 173" d="M.361,4.653l-.723-.706,4.2-4.3.723.706Z" transform="translate(16.5 43.6)" fill="#595758"/>
          <path id="直线_174" data-name="直线 174" d="M.36,11.954l-.721-.708L7.291,3.461l.721.708Z" transform="translate(28.5 24.2)" fill="#595758"/>
          <path id="直线_175" data-name="直线 175" d="M.357,4.657l-.715-.715,4.3-4.3.715.715Z" transform="translate(43.8 16)" fill="#595758"/>
        </g>
      </g>
      <g id="组_740" data-name="组 740">
        <g id="组_719" data-name="组 719">
          <g id="组_715" data-name="组 715">
            <path id="路径_1273" data-name="路径 1273" d="M6,3.4A1.58,1.58,0,0,0,4.4,5,1.5,1.5,0,0,0,6,6.5,1.561,1.561,0,0,0,7.6,5,1.645,1.645,0,0,0,6,3.4Z"/>
          </g>
          <g id="组_716" data-name="组 716">
            <path id="路径_1274" data-name="路径 1274" d="M18.3,3.4A1.6,1.6,0,1,0,19.9,5a1.58,1.58,0,0,0-1.6-1.6Z"/>
          </g>
          <g id="组_717" data-name="组 717">
            <path id="路径_1275" data-name="路径 1275" d="M30.2,3.4A1.6,1.6,0,1,0,31.8,5a1.58,1.58,0,0,0-1.6-1.6Z"/>
          </g>
          <g id="组_718" data-name="组 718">
            <path id="路径_1276" data-name="路径 1276" d="M41.8,3.4A1.6,1.6,0,1,0,43.4,5a1.58,1.58,0,0,0-1.6-1.6Z"/>
          </g>
        </g>
        <g id="组_724" data-name="组 724">
          <g id="组_720" data-name="组 720">
            <path id="路径_1277" data-name="路径 1277" d="M6.1,12.9a1.6,1.6,0,1,0,1.6,1.6,1.58,1.58,0,0,0-1.6-1.6Z"/>
          </g>
          <g id="组_721" data-name="组 721">
            <path id="路径_1278" data-name="路径 1278" d="M18.4,12.9A1.6,1.6,0,1,0,20,14.5a1.58,1.58,0,0,0-1.6-1.6Z"/>
          </g>
          <g id="组_722" data-name="组 722">
            <path id="路径_1279" data-name="路径 1279" d="M30.3,12.9a1.6,1.6,0,1,0,1.6,1.6,1.58,1.58,0,0,0-1.6-1.6Z"/>
          </g>
          <g id="组_723" data-name="组 723">
            <path id="路径_1280" data-name="路径 1280" d="M41.9,12.9a1.6,1.6,0,1,0,1.6,1.6,1.58,1.58,0,0,0-1.6-1.6Z"/>
          </g>
        </g>
        <g id="组_729" data-name="组 729">
          <g id="组_725" data-name="组 725">
            <path id="路径_1281" data-name="路径 1281" d="M6.1,22.4A1.6,1.6,0,1,0,7.7,24a1.58,1.58,0,0,0-1.6-1.6Z"/>
          </g>
          <g id="组_726" data-name="组 726">
            <path id="路径_1282" data-name="路径 1282" d="M18.4,22.4a1.6,1.6,0,0,0,0,3.2,1.6,1.6,0,1,0,0-3.2Z"/>
          </g>
          <g id="组_727" data-name="组 727">
            <path id="路径_1283" data-name="路径 1283" d="M30.3,22.4A1.6,1.6,0,1,0,31.9,24a1.58,1.58,0,0,0-1.6-1.6Z"/>
          </g>
          <g id="组_728" data-name="组 728">
            <path id="路径_1284" data-name="路径 1284" d="M41.9,22.4A1.6,1.6,0,1,0,43.5,24a1.58,1.58,0,0,0-1.6-1.6Z"/>
          </g>
        </g>
        <g id="组_734" data-name="组 734">
          <g id="组_730" data-name="组 730">
            <path id="路径_1285" data-name="路径 1285" d="M6.1,31.8a1.6,1.6,0,1,0,1.6,1.6,1.58,1.58,0,0,0-1.6-1.6Z"/>
          </g>
          <g id="组_731" data-name="组 731">
            <path id="路径_1286" data-name="路径 1286" d="M18.4,31.8A1.6,1.6,0,1,0,20,33.4a1.58,1.58,0,0,0-1.6-1.6Z"/>
          </g>
          <g id="组_732" data-name="组 732">
            <path id="路径_1287" data-name="路径 1287" d="M30.3,31.8a1.6,1.6,0,1,0,1.6,1.6,1.58,1.58,0,0,0-1.6-1.6Z"/>
          </g>
          <g id="组_733" data-name="组 733">
            <path id="路径_1288" data-name="路径 1288" d="M41.9,31.8a1.6,1.6,0,1,0,1.6,1.6,1.58,1.58,0,0,0-1.6-1.6Z"/>
          </g>
        </g>
        <g id="组_739" data-name="组 739">
          <g id="组_735" data-name="组 735">
            <path id="路径_1289" data-name="路径 1289" d="M6.1,41.4A1.6,1.6,0,1,0,7.7,43a1.58,1.58,0,0,0-1.6-1.6Z"/>
          </g>
          <g id="组_736" data-name="组 736">
            <path id="路径_1290" data-name="路径 1290" d="M18.4,41.4a1.6,1.6,0,1,0,0,3.2A1.666,1.666,0,0,0,20,42.9a1.5,1.5,0,0,0-1.6-1.5Z"/>
          </g>
          <g id="组_737" data-name="组 737">
            <path id="路径_1291" data-name="路径 1291" d="M30.3,41.4A1.6,1.6,0,1,0,31.9,43a1.58,1.58,0,0,0-1.6-1.6Z"/>
          </g>
          <g id="组_738" data-name="组 738">
            <path id="路径_1292" data-name="路径 1292" d="M41.9,41.4A1.6,1.6,0,1,0,43.5,43a1.58,1.58,0,0,0-1.6-1.6Z"/>
          </g>
        </g>
      </g>
    </g>
  </g>
</svg>
