<svg xmlns="http://www.w3.org/2000/svg" width="48" height="48" viewBox="0 0 48 48">
  <g id="含砾重粉质粘土" transform="translate(-1365 -56)">
    <rect id="矩形_33" data-name="矩形 33" width="48" height="48" transform="translate(1365 56)" fill="none"/>
    <g id="含砾重粉质粘土-2" data-name="含砾重粉质粘土" transform="translate(1365 56)">
      <path id="路径_480" data-name="路径 480" d="M0,0V.8L.8,0Z"/>
      <path id="路径_481" data-name="路径 481" d="M48,48v-.8l-.8.8Z"/>
      <path id="路径_482" data-name="路径 482" d="M33,48,48,32.6V30.8L31.3,48Z"/>
      <path id="路径_483" data-name="路径 483" d="M17.2,48,48,17.6V15.9L15.5,48Z"/>
      <path id="路径_484" data-name="路径 484" d="M15.5,0,0,15.9v1.7L17.2,0Z"/>
      <path id="路径_485" data-name="路径 485" d="M31.3,0,0,30.8v1.7L33,0Z"/>
      <path id="路径_486" data-name="路径 486" d="M20.3,27.5c-.1-.2-.5-.2-.8,0l-7.9,7.9a.608.608,0,0,0,0,.8.758.758,0,0,0,.4.2.758.758,0,0,0,.4-.2l7.9-7.9A.608.608,0,0,0,20.3,27.5Z"/>
      <path id="路径_487" data-name="路径 487" d="M27.4,20.5a.5.5,0,0,0,.8,0l7.9-7.9a.566.566,0,1,0-.8-.8l-7.9,7.9A.608.608,0,0,0,27.4,20.5Z"/>
      <path id="路径_488" data-name="路径 488" d="M47.1,0,43.2,3.9a.571.571,0,0,0,.1.9c.3.3.7,0,.7,0L48,.9V0Z"/>
      <path id="路径_489" data-name="路径 489" d="M4,43.3,0,47.2V48H.8l3.9-3.9a.571.571,0,0,0-.1-.9C4.3,42.9,4,43.3,4,43.3Z"/>
      <g id="组_514" data-name="组 514">
        <path id="椭圆_17" data-name="椭圆 17" d="M3.3-.5A3.8,3.8,0,1,1-.5,3.3,3.8,3.8,0,0,1,3.3-.5Zm0,6.6A2.8,2.8,0,1,0,.5,3.3,2.8,2.8,0,0,0,3.3,6.1Z" transform="translate(9.5 12.5)" fill="#231815"/>
        <path id="椭圆_18" data-name="椭圆 18" d="M3.3-.5A3.8,3.8,0,1,1-.5,3.3,3.8,3.8,0,0,1,3.3-.5Zm0,6.6A2.8,2.8,0,1,0,.5,3.3,2.8,2.8,0,0,0,3.3,6.1Z" transform="translate(11.8 31.7)" fill="#231815"/>
        <path id="椭圆_19" data-name="椭圆 19" d="M3.3-.5A3.8,3.8,0,1,1-.5,3.3,3.8,3.8,0,0,1,3.3-.5Zm0,6.6A2.8,2.8,0,1,0,.5,3.3,2.8,2.8,0,0,0,3.3,6.1Z" transform="translate(32.3 12)" fill="#231815"/>
        <path id="椭圆_20" data-name="椭圆 20" d="M3.3-.5A3.8,3.8,0,1,1-.5,3.3,3.8,3.8,0,0,1,3.3-.5Zm0,6.6A2.8,2.8,0,1,0,.5,3.3,2.8,2.8,0,0,0,3.3,6.1Z" transform="translate(23.6 39.3)" fill="#231815"/>
        <path id="椭圆_21" data-name="椭圆 21" d="M3.3-.5A3.8,3.8,0,1,1-.5,3.3,3.8,3.8,0,0,1,3.3-.5Zm0,6.6A2.8,2.8,0,1,0,.5,3.3,2.8,2.8,0,0,0,3.3,6.1Z" transform="translate(1.8 2.1)" fill="#231815"/>
      </g>
    </g>
  </g>
</svg>
