<?xml version="1.0" encoding="utf-8"?>
<!-- Generator: Adobe Illustrator 22.1.0, SVG Export Plug-In . SVG Version: 6.00 Build 0)  -->
<svg version="1.1" id="图层_1" xmlns="http://www.w3.org/2000/svg" xmlns:xlink="http://www.w3.org/1999/xlink" x="0px" y="0px"
	 width="48px" height="48px" viewBox="0 0 48 48" style="enable-background:new 0 0 48 48;" xml:space="preserve">
<style type="text/css">
	.st0{fill:none;stroke:#000000;stroke-width:0.8;stroke-miterlimit:10;}
	.st1{fill:none;stroke:#000000;stroke-width:1.6;stroke-miterlimit:10;}
</style>
<line class="st0" x1="48" y1="0.4" x2="0" y2="0.4"/>
<line class="st0" x1="48" y1="47.6" x2="0" y2="47.6"/>
<g>
	<path d="M21,6.4H11c-0.4,0-0.8-0.4-0.8-0.8s0.4-0.8,0.8-0.8h10c0.4,0,0.8,0.4,0.8,0.8S21.4,6.4,21,6.4z"/>
	<path d="M37,6.4H27c-0.4,0-0.8-0.4-0.8-0.8s0.4-0.8,0.8-0.8h10c0.4,0,0.8,0.4,0.8,0.8S37.4,6.4,37,6.4z"/>
	<path d="M0,4.8h5c0.4,0,0.8,0.4,0.8,0.8S5.4,6.4,5,6.4H0"/>
	<path d="M48,6.4h-5c-0.4,0-0.8-0.4-0.8-0.8s0.4-0.8,0.8-0.8h5"/>
</g>
<g>
	<path d="M14.8,11.6h-1.5c-0.4,0-0.7-0.3-0.7-0.7v0c0-0.4,0.3-0.7,0.7-0.7h1.5c0.4,0,0.7,0.3,0.7,0.7v0
		C15.5,11.3,15.2,11.6,14.8,11.6z"/>
	<path d="M8.1,11.6H6.6c-0.4,0-0.7-0.3-0.7-0.7v0c0-0.4,0.3-0.7,0.7-0.7h1.5c0.4,0,0.7,0.3,0.7,0.7v0C8.8,11.3,8.5,11.6,8.1,11.6z"
		/>
	<path d="M21.4,11.6h-1.5c-0.4,0-0.7-0.3-0.7-0.7v0c0-0.4,0.3-0.7,0.7-0.7h1.5c0.4,0,0.7,0.3,0.7,0.7v0
		C22.1,11.3,21.8,11.6,21.4,11.6z"/>
	<path d="M28.1,11.6h-1.5c-0.4,0-0.7-0.3-0.7-0.7v0c0-0.4,0.3-0.7,0.7-0.7h1.5c0.4,0,0.7,0.3,0.7,0.7v0
		C28.8,11.3,28.5,11.6,28.1,11.6z"/>
	<path d="M34.7,11.6h-1.5c-0.4,0-0.7-0.3-0.7-0.7v0c0-0.4,0.3-0.7,0.7-0.7h1.5c0.4,0,0.7,0.3,0.7,0.7v0
		C35.5,11.3,35.1,11.6,34.7,11.6z"/>
	<path d="M41.4,11.6h-1.5c-0.4,0-0.7-0.3-0.7-0.7v0c0-0.4,0.3-0.7,0.7-0.7h1.5c0.4,0,0.7,0.3,0.7,0.7v0
		C42.1,11.3,41.8,11.6,41.4,11.6z"/>
	<path d="M0,10.2h0.7c0.4,0,0.7,0.3,0.7,0.7v0c0,0.4-0.3,0.7-0.7,0.7H0"/>
	<path d="M48,11.6h-0.7c-0.4,0-0.7-0.3-0.7-0.7v0c0-0.4,0.3-0.7,0.7-0.7H48"/>
</g>
<line class="st1" x1="48" y1="16.1" x2="0" y2="16.1"/>
<g>
	<path d="M21,22.2H11c-0.4,0-0.8-0.4-0.8-0.8s0.4-0.8,0.8-0.8h10c0.4,0,0.8,0.4,0.8,0.8S21.4,22.2,21,22.2z"/>
	<path d="M37,22.2H27c-0.4,0-0.8-0.4-0.8-0.8s0.4-0.8,0.8-0.8h10c0.4,0,0.8,0.4,0.8,0.8S37.4,22.2,37,22.2z"/>
	<path d="M0,20.6h5c0.4,0,0.8,0.4,0.8,0.8S5.4,22.2,5,22.2H0"/>
	<path d="M48,22.2h-5c-0.4,0-0.8-0.4-0.8-0.8s0.4-0.8,0.8-0.8h5"/>
</g>
<g>
	<path d="M14.8,27.3h-1.5c-0.4,0-0.7-0.3-0.7-0.7v0c0-0.4,0.3-0.7,0.7-0.7h1.5c0.4,0,0.7,0.3,0.7,0.7v0C15.5,27,15.2,27.3,14.8,27.3
		z"/>
	<path d="M8.1,27.3H6.6c-0.4,0-0.7-0.3-0.7-0.7v0c0-0.4,0.3-0.7,0.7-0.7h1.5c0.4,0,0.7,0.3,0.7,0.7v0C8.8,27,8.5,27.3,8.1,27.3z"/>
	<path d="M21.4,27.3h-1.5c-0.4,0-0.7-0.3-0.7-0.7v0c0-0.4,0.3-0.7,0.7-0.7h1.5c0.4,0,0.7,0.3,0.7,0.7v0C22.1,27,21.8,27.3,21.4,27.3
		z"/>
	<path d="M28.1,27.3h-1.5c-0.4,0-0.7-0.3-0.7-0.7v0c0-0.4,0.3-0.7,0.7-0.7h1.5c0.4,0,0.7,0.3,0.7,0.7v0C28.8,27,28.5,27.3,28.1,27.3
		z"/>
	<path d="M34.7,27.3h-1.5c-0.4,0-0.7-0.3-0.7-0.7v0c0-0.4,0.3-0.7,0.7-0.7h1.5c0.4,0,0.7,0.3,0.7,0.7v0C35.5,27,35.1,27.3,34.7,27.3
		z"/>
	<path d="M41.4,27.3h-1.5c-0.4,0-0.7-0.3-0.7-0.7v0c0-0.4,0.3-0.7,0.7-0.7h1.5c0.4,0,0.7,0.3,0.7,0.7v0C42.1,27,41.8,27.3,41.4,27.3
		z"/>
	<path d="M0,25.9h0.7c0.4,0,0.7,0.3,0.7,0.7v0c0,0.4-0.3,0.7-0.7,0.7H0"/>
	<path d="M48,27.3h-0.7c-0.4,0-0.7-0.3-0.7-0.7v0c0-0.4,0.3-0.7,0.7-0.7H48"/>
</g>
<line class="st1" x1="48" y1="31.9" x2="0" y2="31.9"/>
<g>
	<path d="M21,37.9H11c-0.4,0-0.8-0.4-0.8-0.8s0.4-0.8,0.8-0.8h10c0.4,0,0.8,0.4,0.8,0.8S21.4,37.9,21,37.9z"/>
	<path d="M37,37.9H27c-0.4,0-0.8-0.4-0.8-0.8s0.4-0.8,0.8-0.8h10c0.4,0,0.8,0.4,0.8,0.8S37.4,37.9,37,37.9z"/>
	<path d="M0,36.3h5c0.4,0,0.8,0.4,0.8,0.8S5.4,37.9,5,37.9H0"/>
	<path d="M48,37.9h-5c-0.4,0-0.8-0.4-0.8-0.8s0.4-0.8,0.8-0.8h5"/>
</g>
<g>
	<path d="M14.8,43.1h-1.5c-0.4,0-0.7-0.3-0.7-0.7l0,0c0-0.4,0.3-0.7,0.7-0.7h1.5c0.4,0,0.7,0.3,0.7,0.7l0,0
		C15.5,42.8,15.2,43.1,14.8,43.1z"/>
	<path d="M8.1,43.1H6.6c-0.4,0-0.7-0.3-0.7-0.7l0,0c0-0.4,0.3-0.7,0.7-0.7h1.5c0.4,0,0.7,0.3,0.7,0.7l0,0
		C8.8,42.8,8.5,43.1,8.1,43.1z"/>
	<path d="M21.4,43.1h-1.5c-0.4,0-0.7-0.3-0.7-0.7l0,0c0-0.4,0.3-0.7,0.7-0.7h1.5c0.4,0,0.7,0.3,0.7,0.7l0,0
		C22.1,42.8,21.8,43.1,21.4,43.1z"/>
	<path d="M28.1,43.1h-1.5c-0.4,0-0.7-0.3-0.7-0.7l0,0c0-0.4,0.3-0.7,0.7-0.7h1.5c0.4,0,0.7,0.3,0.7,0.7l0,0
		C28.8,42.8,28.5,43.1,28.1,43.1z"/>
	<path d="M34.7,43.1h-1.5c-0.4,0-0.7-0.3-0.7-0.7l0,0c0-0.4,0.3-0.7,0.7-0.7h1.5c0.4,0,0.7,0.3,0.7,0.7l0,0
		C35.5,42.8,35.1,43.1,34.7,43.1z"/>
	<path d="M41.4,43.1h-1.5c-0.4,0-0.7-0.3-0.7-0.7l0,0c0-0.4,0.3-0.7,0.7-0.7h1.5c0.4,0,0.7,0.3,0.7,0.7l0,0
		C42.1,42.8,41.8,43.1,41.4,43.1z"/>
	<path d="M0,41.7h0.7c0.4,0,0.7,0.3,0.7,0.7l0,0c0,0.4-0.3,0.7-0.7,0.7H0"/>
	<path d="M48,43.1h-0.7c-0.4,0-0.7-0.3-0.7-0.7l0,0c0-0.4,0.3-0.7,0.7-0.7H48"/>
</g>
</svg>
