<svg xmlns="http://www.w3.org/2000/svg" width="48" height="48" viewBox="0 0 48 48">
  <g id="含细砂淤泥" transform="translate(-2985 -56)">
    <path id="路径_3200" data-name="路径 3200" d="M0,0H48V48H0Z" transform="translate(2985 56)" fill="none"/>
    <g id="含细砂淤泥-2" data-name="含细砂淤泥" transform="translate(2982.7 55.846)">
      <path id="路径_1356" data-name="路径 1356" d="M8.7,10.9H7.5A1.216,1.216,0,0,1,6.3,9.7h0A1.216,1.216,0,0,1,7.5,8.5H8.6A1.216,1.216,0,0,1,9.8,9.7h0C9.7,10.4,9.3,10.9,8.7,10.9Z"/>
      <path id="路径_1357" data-name="路径 1357" d="M24.5,11H23.3a1.216,1.216,0,0,1-1.2-1.2h0a1.216,1.216,0,0,1,1.2-1.2h1.2a1.216,1.216,0,0,1,1.2,1.2h0A1.216,1.216,0,0,1,24.5,11Z"/>
      <path id="路径_1358" data-name="路径 1358" d="M40.7,11H39.5a1.216,1.216,0,0,1-1.2-1.2h0a1.216,1.216,0,0,1,1.2-1.2h1.2a1.216,1.216,0,0,1,1.2,1.2h0A1.216,1.216,0,0,1,40.7,11Z"/>
      <path id="路径_1359" data-name="路径 1359" d="M13.012,8.431A3.836,3.836,0,0,1,10.46,7.167c-1.134-1.039-2.093-1.507-2.7-1.319-.584.181-.769.954-.771.961l-.976-.216a2.394,2.394,0,0,1,1.44-1.7c.992-.314,2.232.2,3.686,1.535l0,0c.637.6,1.557,1.239,2.319.9a2,2,0,0,0,.983-1.409.43.43,0,0,0,.3.345l.316-.949a.577.577,0,0,1,.385.548,2.894,2.894,0,0,1-1.535,2.359A2.1,2.1,0,0,1,13.012,8.431Z" fill="#595758"/>
      <path id="路径_1360" data-name="路径 1360" d="M28.812,8.531A3.836,3.836,0,0,1,26.26,7.267c-1.137-1.042-2.1-1.51-2.706-1.317-.581.184-.764.949-.766.957l-.977-.214A2.394,2.394,0,0,1,23.252,5c.992-.314,2.232.2,3.686,1.535l0,0c.637.6,1.557,1.239,2.319.9a2,2,0,0,0,.983-1.409.43.43,0,0,0,.3.345l.316-.949a.577.577,0,0,1,.385.548,2.894,2.894,0,0,1-1.535,2.359A2.1,2.1,0,0,1,28.812,8.531Z" fill="#595758"/>
      <path id="路径_1361" data-name="路径 1361" d="M45.012,8.531A3.836,3.836,0,0,1,42.46,7.267c-1.137-1.042-2.1-1.51-2.706-1.317-.581.184-.764.949-.766.957l-.977-.214A2.394,2.394,0,0,1,39.452,5c.992-.314,2.232.2,3.686,1.535l0,0c.637.6,1.557,1.239,2.319.9a2,2,0,0,0,.983-1.409.43.43,0,0,0,.3.345l.316-.949a.577.577,0,0,1,.385.548,2.894,2.894,0,0,1-1.535,2.359A2.1,2.1,0,0,1,45.012,8.531Z" fill="#595758"/>
      <path id="路径_1362" data-name="路径 1362" d="M8.7,26.8H7.5a1.216,1.216,0,0,1-1.2-1.2h0a1.216,1.216,0,0,1,1.2-1.2H8.6a1.216,1.216,0,0,1,1.2,1.2h0C9.7,26.3,9.3,26.8,8.7,26.8Z"/>
      <path id="路径_1363" data-name="路径 1363" d="M24.5,27H23.3a1.216,1.216,0,0,1-1.2-1.2h0a1.216,1.216,0,0,1,1.2-1.2h1.2a1.216,1.216,0,0,1,1.2,1.2h0A1.216,1.216,0,0,1,24.5,27Z"/>
      <path id="路径_1364" data-name="路径 1364" d="M40.7,27H39.5a1.216,1.216,0,0,1-1.2-1.2h0a1.216,1.216,0,0,1,1.2-1.2h1.2a1.216,1.216,0,0,1,1.2,1.2h0A1.216,1.216,0,0,1,40.7,27Z"/>
      <path id="路径_1365" data-name="路径 1365" d="M13.012,24.331a3.836,3.836,0,0,1-2.552-1.265c-1.137-1.042-2.1-1.51-2.706-1.317-.581.184-.764.949-.766.957l-.977-.214a2.394,2.394,0,0,1,1.44-1.7c.992-.314,2.232.2,3.686,1.535l0,0c.637.6,1.557,1.239,2.319.9a2,2,0,0,0,.983-1.409.43.43,0,0,0,.3.345l.316-.949a.577.577,0,0,1,.385.548,2.894,2.894,0,0,1-1.535,2.359A2.1,2.1,0,0,1,13.012,24.331Z" fill="#595758"/>
      <path id="路径_1366" data-name="路径 1366" d="M28.812,24.531a3.836,3.836,0,0,1-2.552-1.265c-1.134-1.039-2.093-1.507-2.7-1.319-.584.181-.769.954-.771.961l-.976-.216a2.394,2.394,0,0,1,1.44-1.7c.992-.314,2.232.2,3.686,1.535l0,0c.637.6,1.557,1.239,2.319.9a2,2,0,0,0,.983-1.409.43.43,0,0,0,.3.345l.316-.949a.577.577,0,0,1,.385.548,2.894,2.894,0,0,1-1.535,2.359A2.1,2.1,0,0,1,28.812,24.531Z" fill="#595758"/>
      <path id="路径_1367" data-name="路径 1367" d="M45.012,24.531a3.836,3.836,0,0,1-2.552-1.265c-1.134-1.039-2.093-1.507-2.7-1.319-.584.181-.769.954-.771.961l-.976-.216a2.394,2.394,0,0,1,1.44-1.7c.992-.314,2.232.2,3.686,1.535l0,0c.637.6,1.557,1.239,2.319.9a2,2,0,0,0,.983-1.409.43.43,0,0,0,.3.345l.316-.949a.577.577,0,0,1,.385.548,2.894,2.894,0,0,1-1.535,2.359A2.1,2.1,0,0,1,45.012,24.531Z" fill="#595758"/>
      <path id="路径_1368" data-name="路径 1368" d="M8.7,42.7H7.5a1.216,1.216,0,0,1-1.2-1.2h0a1.216,1.216,0,0,1,1.2-1.2H8.6a1.216,1.216,0,0,1,1.2,1.2h0C9.7,42.2,9.3,42.7,8.7,42.7Z"/>
      <path id="路径_1369" data-name="路径 1369" d="M24.5,42.9H23.3a1.216,1.216,0,0,1-1.2-1.2h0a1.216,1.216,0,0,1,1.2-1.2h1.2a1.216,1.216,0,0,1,1.2,1.2h0A1.216,1.216,0,0,1,24.5,42.9Z"/>
      <path id="路径_1370" data-name="路径 1370" d="M40.7,42.9H39.5a1.216,1.216,0,0,1-1.2-1.2h0a1.216,1.216,0,0,1,1.2-1.2h1.2a1.216,1.216,0,0,1,1.2,1.2h0A1.216,1.216,0,0,1,40.7,42.9Z"/>
      <path id="路径_1371" data-name="路径 1371" d="M13.012,40.231a3.836,3.836,0,0,1-2.552-1.265c-1.134-1.039-2.093-1.507-2.7-1.319-.584.181-.769.954-.771.961l-.976-.216a2.394,2.394,0,0,1,1.44-1.7c.992-.314,2.232.2,3.686,1.535l0,0c.637.6,1.557,1.239,2.319.9a2,2,0,0,0,.983-1.409.43.43,0,0,0,.3.345l.316-.949a.577.577,0,0,1,.385.548,2.894,2.894,0,0,1-1.535,2.359A2.1,2.1,0,0,1,13.012,40.231Z" fill="#595758"/>
      <path id="路径_1372" data-name="路径 1372" d="M28.812,40.431a3.837,3.837,0,0,1-2.552-1.265c-1.137-1.042-2.1-1.509-2.706-1.317-.581.184-.764.949-.766.957l-.977-.214a2.394,2.394,0,0,1,1.44-1.7c.992-.314,2.232.2,3.686,1.535l0,0c.637.6,1.557,1.239,2.319.9a2,2,0,0,0,.983-1.409.43.43,0,0,0,.3.345l.316-.949a.577.577,0,0,1,.385.548,2.894,2.894,0,0,1-1.535,2.359A2.1,2.1,0,0,1,28.812,40.431Z" fill="#595758"/>
      <path id="路径_1373" data-name="路径 1373" d="M45.012,40.431a3.837,3.837,0,0,1-2.552-1.265c-1.137-1.042-2.1-1.509-2.706-1.317-.581.184-.764.949-.766.957l-.977-.214a2.394,2.394,0,0,1,1.44-1.7c.992-.314,2.232.2,3.686,1.535l0,0c.637.6,1.557,1.239,2.319.9a2,2,0,0,0,.983-1.408.43.43,0,0,0,.3.345l.316-.949a.577.577,0,0,1,.385.548,2.894,2.894,0,0,1-1.535,2.359A2.1,2.1,0,0,1,45.012,40.431Z" fill="#595758"/>
    </g>
  </g>
</svg>
