<?xml version="1.0" encoding="utf-8"?>
<!-- Generator: Adobe Illustrator 21.0.0, SVG Export Plug-In . SVG Version: 6.00 Build 0)  -->
<svg version="1.1" id="图层_1" xmlns="http://www.w3.org/2000/svg" xmlns:xlink="http://www.w3.org/1999/xlink" x="0px" y="0px"
	 width="48px" height="48px" viewBox="0 0 48 48" style="enable-background:new 0 0 48 48;" xml:space="preserve">
<style type="text/css">
	.st0{fill:none;stroke:#595758;stroke-miterlimit:10;}
	.st1{fill:none;stroke:#595758;stroke-miterlimit:10;stroke-dasharray:11.1199,11.1199;}
	.st2{fill:none;stroke:#595758;stroke-miterlimit:10;stroke-dasharray:10.8257,10.8257;}
	.st3{fill:none;stroke:#595758;stroke-miterlimit:10;stroke-dasharray:10.8021,10.8021;}
</style>
<g>
	<g>
		<line class="st0" x1="0" y1="48.1" x2="4.2" y2="43.9"/>
		<line class="st1" x1="12.1" y1="36" x2="39.6" y2="8.5"/>
		<line class="st0" x1="43.6" y1="4.5" x2="47.8" y2="0.3"/>
	</g>
</g>
<g>
	<g>
		<line class="st0" x1="32.2" y1="48.1" x2="36.4" y2="43.9"/>
		<line class="st0" x1="43.8" y1="36.5" x2="48" y2="32.3"/>
	</g>
</g>
<g>
	<g>
		<line class="st0" x1="0" y1="16.2" x2="4.2" y2="12"/>
		<line class="st0" x1="11.8" y1="4.4" x2="16" y2="0.2"/>
	</g>
</g>
<g>
	<g>
		<line class="st0" x1="0.1" y1="31.8" x2="4.3" y2="27.6"/>
		<line class="st2" x1="12" y1="19.9" x2="23.4" y2="8.4"/>
		<line class="st0" x1="27.3" y1="4.5" x2="31.5" y2="0.3"/>
	</g>
</g>
<g>
	<g>
		<line class="st0" x1="16.5" y1="48.1" x2="20.7" y2="43.9"/>
		<line class="st3" x1="28.4" y1="36.2" x2="39.8" y2="24.8"/>
		<line class="st0" x1="43.7" y1="20.9" x2="47.9" y2="16.7"/>
	</g>
</g>
<g>
	<g>
		<g>
			<path d="M6,3.6c-0.9,0-1.6,0.7-1.6,1.6C4.4,6,5.1,6.7,6,6.7S7.6,6,7.6,5.2C7.6,4.3,6.9,3.6,6,3.6L6,3.6z"/>
		</g>
		<g>
			<path d="M18.3,3.6c-0.9,0-1.6,0.7-1.6,1.6c0,0.9,0.7,1.6,1.6,1.6s1.6-0.7,1.6-1.6C19.9,4.3,19.2,3.6,18.3,3.6L18.3,3.6z"/>
		</g>
		<g>
			<path d="M30.2,3.6c-0.9,0-1.6,0.7-1.6,1.6c0,0.9,0.7,1.6,1.6,1.6s1.6-0.7,1.6-1.6C31.8,4.3,31.1,3.6,30.2,3.6L30.2,3.6z"/>
		</g>
		<g>
			<path d="M41.8,3.6c-0.9,0-1.6,0.7-1.6,1.6c0,0.9,0.7,1.6,1.6,1.6s1.6-0.7,1.6-1.6C43.4,4.3,42.7,3.6,41.8,3.6L41.8,3.6z"/>
		</g>
	</g>
	<g>
		<g>
			<path d="M6.1,13.1c-0.9,0-1.6,0.7-1.6,1.6c0,0.9,0.7,1.6,1.6,1.6s1.6-0.7,1.6-1.6C7.7,13.8,7,13.1,6.1,13.1L6.1,13.1z"/>
		</g>
		<g>
			<path d="M18.4,13.1c-0.9,0-1.6,0.7-1.6,1.6c0,0.9,0.7,1.6,1.6,1.6s1.6-0.7,1.6-1.6C20,13.8,19.3,13.1,18.4,13.1L18.4,13.1z"/>
		</g>
		<g>
			<path d="M30.3,13.1c-0.9,0-1.6,0.7-1.6,1.6c0,0.9,0.7,1.6,1.6,1.6s1.6-0.7,1.6-1.6C31.9,13.8,31.2,13.1,30.3,13.1L30.3,13.1z"/>
		</g>
		<g>
			<path d="M41.9,13.1c-0.9,0-1.6,0.7-1.6,1.6c0,0.9,0.7,1.6,1.6,1.6c0.9,0,1.6-0.7,1.6-1.6C43.5,13.8,42.8,13.1,41.9,13.1
				L41.9,13.1z"/>
		</g>
	</g>
	<g>
		<g>
			<path d="M6.1,22.6c-0.9,0-1.6,0.7-1.6,1.6s0.7,1.6,1.6,1.6s1.6-0.7,1.6-1.6S7,22.6,6.1,22.6L6.1,22.6z"/>
		</g>
		<g>
			<path d="M18.4,22.6c-0.9,0-1.6,0.7-1.6,1.6s0.7,1.6,1.6,1.6S20,25,20,24.2S19.3,22.6,18.4,22.6L18.4,22.6z"/>
		</g>
		<g>
			<path d="M30.3,22.6c-0.9,0-1.6,0.7-1.6,1.6s0.7,1.6,1.6,1.6s1.6-0.7,1.6-1.6S31.2,22.6,30.3,22.6L30.3,22.6z"/>
		</g>
		<g>
			<path d="M41.9,22.6c-0.9,0-1.6,0.7-1.6,1.6s0.7,1.6,1.6,1.6c0.9,0,1.6-0.7,1.6-1.6S42.8,22.6,41.9,22.6L41.9,22.6z"/>
		</g>
	</g>
	<g>
		<g>
			<path d="M6.1,32.1c-0.9,0-1.6,0.7-1.6,1.6c0,0.9,0.7,1.6,1.6,1.6s1.6-0.7,1.6-1.6C7.7,32.8,7,32.1,6.1,32.1L6.1,32.1z"/>
		</g>
		<g>
			<path d="M18.4,32.1c-0.9,0-1.6,0.7-1.6,1.6c0,0.9,0.7,1.6,1.6,1.6s1.6-0.7,1.6-1.6C20,32.8,19.3,32.1,18.4,32.1L18.4,32.1z"/>
		</g>
		<g>
			<path d="M30.3,32.1c-0.9,0-1.6,0.7-1.6,1.6c0,0.9,0.7,1.6,1.6,1.6s1.6-0.7,1.6-1.6C31.9,32.8,31.2,32.1,30.3,32.1L30.3,32.1z"/>
		</g>
		<g>
			<path d="M41.9,32.1c-0.9,0-1.6,0.7-1.6,1.6c0,0.9,0.7,1.6,1.6,1.6c0.9,0,1.6-0.7,1.6-1.6C43.5,32.8,42.8,32.1,41.9,32.1
				L41.9,32.1z"/>
		</g>
	</g>
	<g>
		<g>
			<path d="M6.1,41.6c-0.9,0-1.6,0.7-1.6,1.6c0,0.9,0.7,1.6,1.6,1.6s1.6-0.7,1.6-1.6C7.7,42.3,7,41.6,6.1,41.6L6.1,41.6z"/>
		</g>
		<g>
			<path d="M18.4,41.6c-0.9,0-1.6,0.7-1.6,1.6c0,0.9,0.7,1.6,1.6,1.6s1.6-0.7,1.6-1.6C20,42.3,19.3,41.6,18.4,41.6L18.4,41.6z"/>
		</g>
		<g>
			<path d="M30.3,41.6c-0.9,0-1.6,0.7-1.6,1.6c0,0.9,0.7,1.6,1.6,1.6s1.6-0.7,1.6-1.6C31.9,42.3,31.2,41.6,30.3,41.6L30.3,41.6z"/>
		</g>
		<g>
			<path d="M41.9,41.6c-0.9,0-1.6,0.7-1.6,1.6c0,0.9,0.7,1.6,1.6,1.6s1.6-0.7,1.6-1.6C43.5,42.3,42.8,41.6,41.9,41.6L41.9,41.6z"/>
		</g>
	</g>
</g>
</svg>
