<svg xmlns="http://www.w3.org/2000/svg" width="48" height="48" viewBox="0 0 48 48">
  <g id="含粉土粗砂" transform="translate(-1655 -55)">
    <rect id="矩形_38" data-name="矩形 38" width="48" height="48" transform="translate(1655 55)" fill="none"/>
    <g id="含粉土粗砂-2" data-name="含粉土粗砂" transform="translate(1655 54.95)">
      <g id="组_547" data-name="组 547">
        <path id="路径_682" data-name="路径 682" d="M14.8,3.7H13.3a.684.684,0,0,1-.7-.7h0a.684.684,0,0,1,.7-.7h1.5a.684.684,0,0,1,.7.7h0A.684.684,0,0,1,14.8,3.7Z"/>
        <path id="路径_683" data-name="路径 683" d="M8.1,3.7H6.6A.684.684,0,0,1,5.9,3h0a.684.684,0,0,1,.7-.7H8.1a.684.684,0,0,1,.7.7h0A.684.684,0,0,1,8.1,3.7Z"/>
        <path id="路径_684" data-name="路径 684" d="M21.4,3.7H19.9a.684.684,0,0,1-.7-.7h0a.684.684,0,0,1,.7-.7h1.5a.684.684,0,0,1,.7.7h0A.684.684,0,0,1,21.4,3.7Z"/>
        <path id="路径_685" data-name="路径 685" d="M28.1,3.7H26.6a.684.684,0,0,1-.7-.7h0a.684.684,0,0,1,.7-.7h1.5a.684.684,0,0,1,.7.7h0A.684.684,0,0,1,28.1,3.7Z"/>
        <path id="路径_686" data-name="路径 686" d="M34.7,3.7H33.2a.684.684,0,0,1-.7-.7h0a.684.684,0,0,1,.7-.7h1.5a.684.684,0,0,1,.7.7h0C35.5,3.4,35.1,3.7,34.7,3.7Z"/>
        <path id="路径_687" data-name="路径 687" d="M41.4,3.7H39.9a.684.684,0,0,1-.7-.7h0a.684.684,0,0,1,.7-.7h1.5a.684.684,0,0,1,.7.7h0A.684.684,0,0,1,41.4,3.7Z"/>
        <path id="路径_688" data-name="路径 688" d="M0,2.3H.7a.751.751,0,0,1,.7.7h0a.684.684,0,0,1-.7.7H0"/>
        <path id="路径_689" data-name="路径 689" d="M48,3.7h-.7a.684.684,0,0,1-.7-.7h0a.684.684,0,0,1,.7-.7H48"/>
      </g>
      <g id="组_548" data-name="组 548">
        <path id="路径_690" data-name="路径 690" d="M21,9.8H11a.86.86,0,0,1-.8-.8.86.86,0,0,1,.8-.8H21a.86.86,0,0,1,.8.8A.86.86,0,0,1,21,9.8Z"/>
        <path id="路径_691" data-name="路径 691" d="M37,9.8H27a.86.86,0,0,1-.8-.8.86.86,0,0,1,.8-.8H37a.86.86,0,0,1,.8.8A.86.86,0,0,1,37,9.8Z"/>
        <path id="路径_692" data-name="路径 692" d="M0,8.2H5a.86.86,0,0,1,.8.8.86.86,0,0,1-.8.8H0"/>
        <path id="路径_693" data-name="路径 693" d="M48,9.8H43a.86.86,0,0,1-.8-.8.86.86,0,0,1,.8-.8h5"/>
      </g>
      <g id="组_549" data-name="组 549">
        <path id="路径_694" data-name="路径 694" d="M14.8,15.7H13.3a.684.684,0,0,1-.7-.7h0a.684.684,0,0,1,.7-.7h1.5a.684.684,0,0,1,.7.7h0A.684.684,0,0,1,14.8,15.7Z"/>
        <path id="路径_695" data-name="路径 695" d="M8.1,15.7H6.6a.684.684,0,0,1-.7-.7h0a.684.684,0,0,1,.7-.7H8.1a.684.684,0,0,1,.7.7h0A.684.684,0,0,1,8.1,15.7Z"/>
        <path id="路径_696" data-name="路径 696" d="M21.4,15.7H19.9a.684.684,0,0,1-.7-.7h0a.684.684,0,0,1,.7-.7h1.5a.684.684,0,0,1,.7.7h0A.684.684,0,0,1,21.4,15.7Z"/>
        <path id="路径_697" data-name="路径 697" d="M28.1,15.7H26.6a.684.684,0,0,1-.7-.7h0a.684.684,0,0,1,.7-.7h1.5a.684.684,0,0,1,.7.7h0A.684.684,0,0,1,28.1,15.7Z"/>
        <path id="路径_698" data-name="路径 698" d="M34.7,15.7H33.2a.684.684,0,0,1-.7-.7h0a.684.684,0,0,1,.7-.7h1.5a.684.684,0,0,1,.7.7h0C35.5,15.4,35.1,15.7,34.7,15.7Z"/>
        <path id="路径_699" data-name="路径 699" d="M41.4,15.7H39.9a.684.684,0,0,1-.7-.7h0a.684.684,0,0,1,.7-.7h1.5a.684.684,0,0,1,.7.7h0A.684.684,0,0,1,41.4,15.7Z"/>
        <path id="路径_700" data-name="路径 700" d="M0,14.3H.7a.684.684,0,0,1,.7.7h0a.684.684,0,0,1-.7.7H0"/>
        <path id="路径_701" data-name="路径 701" d="M48,15.7h-.7a.684.684,0,0,1-.7-.7h0a.684.684,0,0,1,.7-.7H48"/>
      </g>
      <g id="组_550" data-name="组 550">
        <path id="路径_702" data-name="路径 702" d="M21,21.8H11a.8.8,0,1,1,0-1.6H21a.8.8,0,0,1,0,1.6Z"/>
        <path id="路径_703" data-name="路径 703" d="M37,21.8H27a.8.8,0,0,1,0-1.6H37a.8.8,0,1,1,0,1.6Z"/>
        <path id="路径_704" data-name="路径 704" d="M0,20.2H5a.8.8,0,1,1,0,1.6H0"/>
        <path id="路径_705" data-name="路径 705" d="M48,21.8H43a.8.8,0,0,1,0-1.6h5"/>
      </g>
      <g id="组_551" data-name="组 551">
        <path id="路径_706" data-name="路径 706" d="M14.8,27.7H13.3a.684.684,0,0,1-.7-.7h0a.684.684,0,0,1,.7-.7h1.5a.684.684,0,0,1,.7.7h0A.684.684,0,0,1,14.8,27.7Z"/>
        <path id="路径_707" data-name="路径 707" d="M8.1,27.7H6.6a.684.684,0,0,1-.7-.7h0a.684.684,0,0,1,.7-.7H8.1a.684.684,0,0,1,.7.7h0A.684.684,0,0,1,8.1,27.7Z"/>
        <path id="路径_708" data-name="路径 708" d="M21.4,27.7H19.9a.684.684,0,0,1-.7-.7h0a.684.684,0,0,1,.7-.7h1.5a.684.684,0,0,1,.7.7h0A.684.684,0,0,1,21.4,27.7Z"/>
        <path id="路径_709" data-name="路径 709" d="M28.1,27.7H26.6a.684.684,0,0,1-.7-.7h0a.684.684,0,0,1,.7-.7h1.5a.684.684,0,0,1,.7.7h0A.684.684,0,0,1,28.1,27.7Z"/>
        <path id="路径_710" data-name="路径 710" d="M34.7,27.7H33.2a.684.684,0,0,1-.7-.7h0a.684.684,0,0,1,.7-.7h1.5a.684.684,0,0,1,.7.7h0C35.5,27.4,35.1,27.7,34.7,27.7Z"/>
        <path id="路径_711" data-name="路径 711" d="M41.4,27.7H39.9a.684.684,0,0,1-.7-.7h0a.684.684,0,0,1,.7-.7h1.5a.684.684,0,0,1,.7.7h0A.684.684,0,0,1,41.4,27.7Z"/>
        <path id="路径_712" data-name="路径 712" d="M0,26.3H.7a.684.684,0,0,1,.7.7h0a.684.684,0,0,1-.7.7H0"/>
        <path id="路径_713" data-name="路径 713" d="M48,27.7h-.7a.684.684,0,0,1-.7-.7h0a.684.684,0,0,1,.7-.7H48"/>
      </g>
      <g id="组_552" data-name="组 552">
        <path id="路径_714" data-name="路径 714" d="M21,33.8H11a.8.8,0,1,1,0-1.6H21a.8.8,0,0,1,0,1.6Z"/>
        <path id="路径_715" data-name="路径 715" d="M37,33.8H27a.8.8,0,1,1,0-1.6H37a.8.8,0,0,1,0,1.6Z"/>
        <path id="路径_716" data-name="路径 716" d="M0,32.2H5a.8.8,0,1,1,0,1.6H0"/>
        <path id="路径_717" data-name="路径 717" d="M48,33.8H43a.8.8,0,0,1,0-1.6h5"/>
      </g>
      <g id="组_553" data-name="组 553">
        <path id="路径_718" data-name="路径 718" d="M14.8,39.7H13.3a.684.684,0,0,1-.7-.7h0a.684.684,0,0,1,.7-.7h1.5a.684.684,0,0,1,.7.7h0A.684.684,0,0,1,14.8,39.7Z"/>
        <path id="路径_719" data-name="路径 719" d="M8.1,39.7H6.6a.684.684,0,0,1-.7-.7h0a.684.684,0,0,1,.7-.7H8.1a.684.684,0,0,1,.7.7h0A.684.684,0,0,1,8.1,39.7Z"/>
        <path id="路径_720" data-name="路径 720" d="M21.4,39.7H19.9a.684.684,0,0,1-.7-.7h0a.684.684,0,0,1,.7-.7h1.5a.684.684,0,0,1,.7.7h0A.684.684,0,0,1,21.4,39.7Z"/>
        <path id="路径_721" data-name="路径 721" d="M28.1,39.7H26.6a.684.684,0,0,1-.7-.7h0a.684.684,0,0,1,.7-.7h1.5a.684.684,0,0,1,.7.7h0A.684.684,0,0,1,28.1,39.7Z"/>
        <path id="路径_722" data-name="路径 722" d="M34.7,39.7H33.2a.684.684,0,0,1-.7-.7h0a.684.684,0,0,1,.7-.7h1.5a.684.684,0,0,1,.7.7h0C35.5,39.4,35.1,39.7,34.7,39.7Z"/>
        <path id="路径_723" data-name="路径 723" d="M41.4,39.7H39.9a.684.684,0,0,1-.7-.7h0a.684.684,0,0,1,.7-.7h1.5a.684.684,0,0,1,.7.7h0A.684.684,0,0,1,41.4,39.7Z"/>
        <path id="路径_724" data-name="路径 724" d="M0,38.3H.7a.684.684,0,0,1,.7.7h0a.684.684,0,0,1-.7.7H0"/>
        <path id="路径_725" data-name="路径 725" d="M48,39.7h-.7a.684.684,0,0,1-.7-.7h0a.684.684,0,0,1,.7-.7H48"/>
      </g>
      <g id="组_554" data-name="组 554">
        <path id="路径_726" data-name="路径 726" d="M21,45.8H11a.8.8,0,1,1,0-1.6H21a.8.8,0,1,1,0,1.6Z"/>
        <path id="路径_727" data-name="路径 727" d="M37,45.8H27a.8.8,0,0,1,0-1.6H37a.8.8,0,0,1,0,1.6Z"/>
        <path id="路径_728" data-name="路径 728" d="M0,44.2H5a.8.8,0,1,1,0,1.6H0"/>
        <path id="路径_729" data-name="路径 729" d="M48,45.8H43a.8.8,0,0,1,0-1.6h5"/>
      </g>
    </g>
  </g>
</svg>
