<svg xmlns="http://www.w3.org/2000/svg" width="48.819" height="48.82" viewBox="0 0 48.819 48.82">
  <g id="含粘性土细砂" transform="translate(-2928.645 -55.636)">
    <path id="路径_3199" data-name="路径 3199" d="M0,0H48V48H0Z" transform="translate(2929 56)" fill="none"/>
    <g id="含粘性土细砂-2" data-name="含粘性土细砂" transform="translate(2929 56.2)">
      <path id="路径_1335" data-name="路径 1335" d="M13.112,40.431a3.837,3.837,0,0,1-2.552-1.265c-1.137-1.042-2.1-1.509-2.706-1.317-.581.184-.764.949-.766.957l-.977-.214a2.394,2.394,0,0,1,1.44-1.7c.992-.314,2.232.2,3.686,1.535l0,0c.637.6,1.557,1.239,2.319.9a2,2,0,0,0,.983-1.409.43.43,0,0,0,.3.345l.316-.949a.577.577,0,0,1,.385.548,2.894,2.894,0,0,1-1.535,2.359A2.1,2.1,0,0,1,13.112,40.431Z" fill="#595758"/>
      <g id="组_814" data-name="组 814">
        <g id="组_813" data-name="组 813">
          <path id="直线_202" data-name="直线 202" d="M.354,4.554l-.707-.707,4.2-4.2.707.707Z" transform="translate(0 43.7)" fill="#595758"/>
          <path id="直线_203" data-name="直线 203" d="M.354,27.854l-.707-.707,7.863-7.863.707.707ZM16.079,12.128l-.707-.707,7.863-7.863.707.707Z" transform="translate(12.1 8.3)" fill="#595758"/>
          <path id="直线_204" data-name="直线 204" d="M.354,4.554l-.707-.707,4.2-4.2.707.707Z" transform="translate(43.6 0.1)" fill="#595758"/>
        </g>
      </g>
      <g id="组_816" data-name="组 816">
        <g id="组_815" data-name="组 815">
          <path id="直线_205" data-name="直线 205" d="M.364,4.656l-.729-.712,4.2-4.3.729.712Z" transform="translate(32.2 43.6)" fill="#595758"/>
          <path id="直线_206" data-name="直线 206" d="M.364,4.656l-.729-.712,4.2-4.3.729.712Z" transform="translate(43.9 31.6)" fill="#595758"/>
        </g>
      </g>
      <g id="组_818" data-name="组 818">
        <g id="组_817" data-name="组 817">
          <path id="直线_207" data-name="直线 207" d="M.355,4.563l-.71-.726,4.3-4.2.71.726Z" transform="translate(0 11.8)" fill="#595758"/>
          <path id="直线_208" data-name="直线 208" d="M.355,4.563l-.71-.726,4.3-4.2.71.726Z" transform="translate(12.2)" fill="#595758"/>
        </g>
      </g>
      <g id="组_820" data-name="组 820">
        <g id="组_819" data-name="组 819">
          <path id="直线_209" data-name="直线 209" d="M.356,4.564l-.711-.728,4.3-4.2.711.728Z" transform="translate(0.1 27.4)" fill="#595758"/>
          <path id="直线_210" data-name="直线 210" d="M.358,11.961l-.717-.723L7.467,3.48l.717.723Z" transform="translate(12.3 8)" fill="#595758"/>
          <path id="直线_211" data-name="直线 211" d="M.356,4.664l-.712-.728,4.4-4.3.712.728Z" transform="translate(28 -0.2)" fill="#595758"/>
        </g>
      </g>
      <g id="组_822" data-name="组 822">
        <g id="组_821" data-name="组 821">
          <path id="直线_212" data-name="直线 212" d="M.361,4.653l-.723-.706,4.2-4.3.723.706Z" transform="translate(16.5 43.6)" fill="#595758"/>
          <path id="直线_213" data-name="直线 213" d="M.36,11.954l-.721-.708L7.291,3.461l.721.708Z" transform="translate(28.5 24.2)" fill="#595758"/>
          <path id="直线_214" data-name="直线 214" d="M.357,4.657l-.715-.715,4.3-4.3.715.715Z" transform="translate(43.8 16)" fill="#595758"/>
        </g>
      </g>
      <g id="组_848" data-name="组 848">
        <g id="组_827" data-name="组 827">
          <g id="组_823" data-name="组 823">
            <path id="路径_1336" data-name="路径 1336" d="M6,3.4A1.58,1.58,0,0,0,4.4,5,1.5,1.5,0,0,0,6,6.5,1.561,1.561,0,0,0,7.6,5,1.645,1.645,0,0,0,6,3.4Z"/>
          </g>
          <g id="组_824" data-name="组 824">
            <path id="路径_1337" data-name="路径 1337" d="M18.3,3.4A1.6,1.6,0,1,0,19.9,5a1.58,1.58,0,0,0-1.6-1.6Z"/>
          </g>
          <g id="组_825" data-name="组 825">
            <path id="路径_1338" data-name="路径 1338" d="M30.2,3.4A1.6,1.6,0,1,0,31.8,5a1.58,1.58,0,0,0-1.6-1.6Z"/>
          </g>
          <g id="组_826" data-name="组 826">
            <path id="路径_1339" data-name="路径 1339" d="M41.8,3.4A1.6,1.6,0,1,0,43.4,5a1.58,1.58,0,0,0-1.6-1.6Z"/>
          </g>
        </g>
        <g id="组_832" data-name="组 832">
          <g id="组_828" data-name="组 828">
            <path id="路径_1340" data-name="路径 1340" d="M6.1,12.9a1.6,1.6,0,1,0,1.6,1.6,1.58,1.58,0,0,0-1.6-1.6Z"/>
          </g>
          <g id="组_829" data-name="组 829">
            <path id="路径_1341" data-name="路径 1341" d="M18.4,12.9A1.6,1.6,0,1,0,20,14.5a1.58,1.58,0,0,0-1.6-1.6Z"/>
          </g>
          <g id="组_830" data-name="组 830">
            <path id="路径_1342" data-name="路径 1342" d="M30.3,12.9a1.6,1.6,0,1,0,1.6,1.6,1.58,1.58,0,0,0-1.6-1.6Z"/>
          </g>
          <g id="组_831" data-name="组 831">
            <path id="路径_1343" data-name="路径 1343" d="M41.9,12.9a1.6,1.6,0,1,0,1.6,1.6,1.58,1.58,0,0,0-1.6-1.6Z"/>
          </g>
        </g>
        <g id="组_837" data-name="组 837">
          <g id="组_833" data-name="组 833">
            <path id="路径_1344" data-name="路径 1344" d="M6.1,22.4A1.6,1.6,0,1,0,7.7,24a1.58,1.58,0,0,0-1.6-1.6Z"/>
          </g>
          <g id="组_834" data-name="组 834">
            <path id="路径_1345" data-name="路径 1345" d="M18.4,22.4a1.6,1.6,0,0,0,0,3.2,1.6,1.6,0,1,0,0-3.2Z"/>
          </g>
          <g id="组_835" data-name="组 835">
            <path id="路径_1346" data-name="路径 1346" d="M30.3,22.4A1.6,1.6,0,1,0,31.9,24a1.58,1.58,0,0,0-1.6-1.6Z"/>
          </g>
          <g id="组_836" data-name="组 836">
            <path id="路径_1347" data-name="路径 1347" d="M41.9,22.4A1.6,1.6,0,1,0,43.5,24a1.58,1.58,0,0,0-1.6-1.6Z"/>
          </g>
        </g>
        <g id="组_842" data-name="组 842">
          <g id="组_838" data-name="组 838">
            <path id="路径_1348" data-name="路径 1348" d="M6.1,31.8a1.6,1.6,0,1,0,1.6,1.6,1.58,1.58,0,0,0-1.6-1.6Z"/>
          </g>
          <g id="组_839" data-name="组 839">
            <path id="路径_1349" data-name="路径 1349" d="M18.4,31.8A1.6,1.6,0,1,0,20,33.4a1.58,1.58,0,0,0-1.6-1.6Z"/>
          </g>
          <g id="组_840" data-name="组 840">
            <path id="路径_1350" data-name="路径 1350" d="M30.3,31.8a1.6,1.6,0,1,0,1.6,1.6,1.58,1.58,0,0,0-1.6-1.6Z"/>
          </g>
          <g id="组_841" data-name="组 841">
            <path id="路径_1351" data-name="路径 1351" d="M41.9,31.8a1.6,1.6,0,1,0,1.6,1.6,1.58,1.58,0,0,0-1.6-1.6Z"/>
          </g>
        </g>
        <g id="组_847" data-name="组 847">
          <g id="组_843" data-name="组 843">
            <path id="路径_1352" data-name="路径 1352" d="M6.1,41.4A1.6,1.6,0,1,0,7.7,43a1.58,1.58,0,0,0-1.6-1.6Z"/>
          </g>
          <g id="组_844" data-name="组 844">
            <path id="路径_1353" data-name="路径 1353" d="M18.4,41.4a1.6,1.6,0,1,0,0,3.2A1.666,1.666,0,0,0,20,42.9a1.5,1.5,0,0,0-1.6-1.5Z"/>
          </g>
          <g id="组_845" data-name="组 845">
            <path id="路径_1354" data-name="路径 1354" d="M30.3,41.4A1.6,1.6,0,1,0,31.9,43a1.58,1.58,0,0,0-1.6-1.6Z"/>
          </g>
          <g id="组_846" data-name="组 846">
            <path id="路径_1355" data-name="路径 1355" d="M41.9,41.4A1.6,1.6,0,1,0,43.5,43a1.58,1.58,0,0,0-1.6-1.6Z"/>
          </g>
        </g>
      </g>
    </g>
  </g>
</svg>
