<svg xmlns="http://www.w3.org/2000/svg" width="48" height="48" viewBox="0 0 48 48">
  <g id="含粉土中粗砂" transform="translate(-1481 -55)">
    <rect id="矩形_35" data-name="矩形 35" width="48" height="48" transform="translate(1481 55)" fill="none"/>
    <g id="含粉土中粗砂-2" data-name="含粉土中粗砂" transform="translate(1481 54.95)">
      <g id="组_523" data-name="组 523">
        <path id="路径_538" data-name="路径 538" d="M14.8,3.7H13.3a.684.684,0,0,1-.7-.7h0a.684.684,0,0,1,.7-.7h1.5a.684.684,0,0,1,.7.7h0A.684.684,0,0,1,14.8,3.7Z"/>
        <path id="路径_539" data-name="路径 539" d="M8.1,3.7H6.6A.684.684,0,0,1,5.9,3h0a.684.684,0,0,1,.7-.7H8.1a.684.684,0,0,1,.7.7h0A.684.684,0,0,1,8.1,3.7Z"/>
        <path id="路径_540" data-name="路径 540" d="M21.4,3.7H19.9a.684.684,0,0,1-.7-.7h0a.684.684,0,0,1,.7-.7h1.5a.684.684,0,0,1,.7.7h0A.684.684,0,0,1,21.4,3.7Z"/>
        <path id="路径_541" data-name="路径 541" d="M28.1,3.7H26.6a.684.684,0,0,1-.7-.7h0a.684.684,0,0,1,.7-.7h1.5a.684.684,0,0,1,.7.7h0A.684.684,0,0,1,28.1,3.7Z"/>
        <path id="路径_542" data-name="路径 542" d="M34.7,3.7H33.2a.684.684,0,0,1-.7-.7h0a.684.684,0,0,1,.7-.7h1.5a.684.684,0,0,1,.7.7h0C35.5,3.4,35.1,3.7,34.7,3.7Z"/>
        <path id="路径_543" data-name="路径 543" d="M41.4,3.7H39.9a.684.684,0,0,1-.7-.7h0a.684.684,0,0,1,.7-.7h1.5a.684.684,0,0,1,.7.7h0A.684.684,0,0,1,41.4,3.7Z"/>
        <path id="路径_544" data-name="路径 544" d="M0,2.3H.7a.751.751,0,0,1,.7.7h0a.684.684,0,0,1-.7.7H0"/>
        <path id="路径_545" data-name="路径 545" d="M48,3.7h-.7a.684.684,0,0,1-.7-.7h0a.684.684,0,0,1,.7-.7H48"/>
      </g>
      <g id="组_524" data-name="组 524">
        <path id="路径_546" data-name="路径 546" d="M21,9.8H11a.86.86,0,0,1-.8-.8.86.86,0,0,1,.8-.8H21a.86.86,0,0,1,.8.8A.86.86,0,0,1,21,9.8Z"/>
        <path id="路径_547" data-name="路径 547" d="M37,9.8H27a.86.86,0,0,1-.8-.8.86.86,0,0,1,.8-.8H37a.86.86,0,0,1,.8.8A.86.86,0,0,1,37,9.8Z"/>
        <path id="路径_548" data-name="路径 548" d="M0,8.2H5a.86.86,0,0,1,.8.8.86.86,0,0,1-.8.8H0"/>
        <path id="路径_549" data-name="路径 549" d="M48,9.8H43a.86.86,0,0,1-.8-.8.86.86,0,0,1,.8-.8h5"/>
      </g>
      <g id="组_525" data-name="组 525">
        <path id="路径_550" data-name="路径 550" d="M14.8,15.7H13.3a.684.684,0,0,1-.7-.7h0a.684.684,0,0,1,.7-.7h1.5a.684.684,0,0,1,.7.7h0A.684.684,0,0,1,14.8,15.7Z"/>
        <path id="路径_551" data-name="路径 551" d="M8.1,15.7H6.6a.684.684,0,0,1-.7-.7h0a.684.684,0,0,1,.7-.7H8.1a.684.684,0,0,1,.7.7h0A.684.684,0,0,1,8.1,15.7Z"/>
        <path id="路径_552" data-name="路径 552" d="M21.4,15.7H19.9a.684.684,0,0,1-.7-.7h0a.684.684,0,0,1,.7-.7h1.5a.684.684,0,0,1,.7.7h0A.684.684,0,0,1,21.4,15.7Z"/>
        <path id="路径_553" data-name="路径 553" d="M28.1,15.7H26.6a.684.684,0,0,1-.7-.7h0a.684.684,0,0,1,.7-.7h1.5a.684.684,0,0,1,.7.7h0A.684.684,0,0,1,28.1,15.7Z"/>
        <path id="路径_554" data-name="路径 554" d="M34.7,15.7H33.2a.684.684,0,0,1-.7-.7h0a.684.684,0,0,1,.7-.7h1.5a.684.684,0,0,1,.7.7h0C35.5,15.4,35.1,15.7,34.7,15.7Z"/>
        <path id="路径_555" data-name="路径 555" d="M41.4,15.7H39.9a.684.684,0,0,1-.7-.7h0a.684.684,0,0,1,.7-.7h1.5a.684.684,0,0,1,.7.7h0A.684.684,0,0,1,41.4,15.7Z"/>
        <path id="路径_556" data-name="路径 556" d="M0,14.3H.7a.684.684,0,0,1,.7.7h0a.684.684,0,0,1-.7.7H0"/>
        <path id="路径_557" data-name="路径 557" d="M48,15.7h-.7a.684.684,0,0,1-.7-.7h0a.684.684,0,0,1,.7-.7H48"/>
      </g>
      <g id="组_526" data-name="组 526">
        <path id="路径_558" data-name="路径 558" d="M21,21.8H11a.8.8,0,1,1,0-1.6H21a.8.8,0,0,1,0,1.6Z"/>
        <path id="路径_559" data-name="路径 559" d="M37,21.8H27a.8.8,0,0,1,0-1.6H37a.8.8,0,1,1,0,1.6Z"/>
        <path id="路径_560" data-name="路径 560" d="M0,20.2H5a.8.8,0,1,1,0,1.6H0"/>
        <path id="路径_561" data-name="路径 561" d="M48,21.8H43a.8.8,0,0,1,0-1.6h5"/>
      </g>
      <g id="组_527" data-name="组 527">
        <path id="路径_562" data-name="路径 562" d="M14.8,27.7H13.3a.684.684,0,0,1-.7-.7h0a.684.684,0,0,1,.7-.7h1.5a.684.684,0,0,1,.7.7h0A.684.684,0,0,1,14.8,27.7Z"/>
        <path id="路径_563" data-name="路径 563" d="M8.1,27.7H6.6a.684.684,0,0,1-.7-.7h0a.684.684,0,0,1,.7-.7H8.1a.684.684,0,0,1,.7.7h0A.684.684,0,0,1,8.1,27.7Z"/>
        <path id="路径_564" data-name="路径 564" d="M21.4,27.7H19.9a.684.684,0,0,1-.7-.7h0a.684.684,0,0,1,.7-.7h1.5a.684.684,0,0,1,.7.7h0A.684.684,0,0,1,21.4,27.7Z"/>
        <path id="路径_565" data-name="路径 565" d="M28.1,27.7H26.6a.684.684,0,0,1-.7-.7h0a.684.684,0,0,1,.7-.7h1.5a.684.684,0,0,1,.7.7h0A.684.684,0,0,1,28.1,27.7Z"/>
        <path id="路径_566" data-name="路径 566" d="M34.7,27.7H33.2a.684.684,0,0,1-.7-.7h0a.684.684,0,0,1,.7-.7h1.5a.684.684,0,0,1,.7.7h0C35.5,27.4,35.1,27.7,34.7,27.7Z"/>
        <path id="路径_567" data-name="路径 567" d="M41.4,27.7H39.9a.684.684,0,0,1-.7-.7h0a.684.684,0,0,1,.7-.7h1.5a.684.684,0,0,1,.7.7h0A.684.684,0,0,1,41.4,27.7Z"/>
        <path id="路径_568" data-name="路径 568" d="M0,26.3H.7a.684.684,0,0,1,.7.7h0a.684.684,0,0,1-.7.7H0"/>
        <path id="路径_569" data-name="路径 569" d="M48,27.7h-.7a.684.684,0,0,1-.7-.7h0a.684.684,0,0,1,.7-.7H48"/>
      </g>
      <g id="组_528" data-name="组 528">
        <path id="路径_570" data-name="路径 570" d="M21,33.8H11a.8.8,0,1,1,0-1.6H21a.8.8,0,0,1,0,1.6Z"/>
        <path id="路径_571" data-name="路径 571" d="M37,33.8H27a.8.8,0,1,1,0-1.6H37a.8.8,0,0,1,0,1.6Z"/>
        <path id="路径_572" data-name="路径 572" d="M0,32.2H5a.8.8,0,1,1,0,1.6H0"/>
        <path id="路径_573" data-name="路径 573" d="M48,33.8H43a.8.8,0,0,1,0-1.6h5"/>
      </g>
      <g id="组_529" data-name="组 529">
        <path id="路径_574" data-name="路径 574" d="M14.8,39.7H13.3a.684.684,0,0,1-.7-.7h0a.684.684,0,0,1,.7-.7h1.5a.684.684,0,0,1,.7.7h0A.684.684,0,0,1,14.8,39.7Z"/>
        <path id="路径_575" data-name="路径 575" d="M8.1,39.7H6.6a.684.684,0,0,1-.7-.7h0a.684.684,0,0,1,.7-.7H8.1a.684.684,0,0,1,.7.7h0A.684.684,0,0,1,8.1,39.7Z"/>
        <path id="路径_576" data-name="路径 576" d="M21.4,39.7H19.9a.684.684,0,0,1-.7-.7h0a.684.684,0,0,1,.7-.7h1.5a.684.684,0,0,1,.7.7h0A.684.684,0,0,1,21.4,39.7Z"/>
        <path id="路径_577" data-name="路径 577" d="M28.1,39.7H26.6a.684.684,0,0,1-.7-.7h0a.684.684,0,0,1,.7-.7h1.5a.684.684,0,0,1,.7.7h0A.684.684,0,0,1,28.1,39.7Z"/>
        <path id="路径_578" data-name="路径 578" d="M34.7,39.7H33.2a.684.684,0,0,1-.7-.7h0a.684.684,0,0,1,.7-.7h1.5a.684.684,0,0,1,.7.7h0C35.5,39.4,35.1,39.7,34.7,39.7Z"/>
        <path id="路径_579" data-name="路径 579" d="M41.4,39.7H39.9a.684.684,0,0,1-.7-.7h0a.684.684,0,0,1,.7-.7h1.5a.684.684,0,0,1,.7.7h0A.684.684,0,0,1,41.4,39.7Z"/>
        <path id="路径_580" data-name="路径 580" d="M0,38.3H.7a.684.684,0,0,1,.7.7h0a.684.684,0,0,1-.7.7H0"/>
        <path id="路径_581" data-name="路径 581" d="M48,39.7h-.7a.684.684,0,0,1-.7-.7h0a.684.684,0,0,1,.7-.7H48"/>
      </g>
      <g id="组_530" data-name="组 530">
        <path id="路径_582" data-name="路径 582" d="M21,45.8H11a.8.8,0,1,1,0-1.6H21a.8.8,0,1,1,0,1.6Z"/>
        <path id="路径_583" data-name="路径 583" d="M37,45.8H27a.8.8,0,0,1,0-1.6H37a.8.8,0,0,1,0,1.6Z"/>
        <path id="路径_584" data-name="路径 584" d="M0,44.2H5a.8.8,0,1,1,0,1.6H0"/>
        <path id="路径_585" data-name="路径 585" d="M48,45.8H43a.8.8,0,0,1,0-1.6h5"/>
      </g>
    </g>
  </g>
</svg>
