<svg xmlns="http://www.w3.org/2000/svg" width="48.819" height="48.82" viewBox="0 0 48.819 48.82">
  <g id="含砾粗砂" transform="translate(-1138.645 -54.636)">
    <rect id="矩形_29" data-name="矩形 29" width="48" height="48" transform="translate(1139 55)" fill="none"/>
    <g id="含砾粗砂-2" data-name="含砾粗砂" transform="translate(1139 55.2)">
      <path id="路径_379" data-name="路径 379" d="M13.112,40.431a3.837,3.837,0,0,1-2.552-1.265c-1.137-1.042-2.1-1.509-2.706-1.317-.581.184-.764.949-.766.957l-.977-.214a2.394,2.394,0,0,1,1.44-1.7c.992-.314,2.232.2,3.686,1.535l0,0c.637.6,1.557,1.239,2.319.9a2,2,0,0,0,.983-1.409.43.43,0,0,0,.3.345l.316-.949a.577.577,0,0,1,.385.548,2.894,2.894,0,0,1-1.535,2.359A2.1,2.1,0,0,1,13.112,40.431Z" fill="#595758"/>
      <g id="组_333" data-name="组 333">
        <g id="组_332" data-name="组 332">
          <path id="直线_51" data-name="直线 51" d="M.354,4.554l-.707-.707,4.2-4.2.707.707Z" transform="translate(0 43.7)" fill="#595758"/>
          <path id="直线_52" data-name="直线 52" d="M.354,27.854l-.707-.707,7.863-7.863.707.707ZM16.079,12.128l-.707-.707,7.863-7.863.707.707Z" transform="translate(12.1 8.3)" fill="#595758"/>
          <path id="直线_53" data-name="直线 53" d="M.354,4.554l-.707-.707,4.2-4.2.707.707Z" transform="translate(43.6 0.1)" fill="#595758"/>
        </g>
      </g>
      <g id="组_335" data-name="组 335">
        <g id="组_334" data-name="组 334">
          <path id="直线_54" data-name="直线 54" d="M.364,4.656l-.729-.712,4.2-4.3.729.712Z" transform="translate(32.2 43.6)" fill="#595758"/>
          <path id="直线_55" data-name="直线 55" d="M.364,4.656l-.729-.712,4.2-4.3.729.712Z" transform="translate(43.9 31.6)" fill="#595758"/>
        </g>
      </g>
      <g id="组_337" data-name="组 337">
        <g id="组_336" data-name="组 336">
          <path id="直线_56" data-name="直线 56" d="M.355,4.563l-.71-.726,4.3-4.2.71.726Z" transform="translate(0 11.8)" fill="#595758"/>
          <path id="直线_57" data-name="直线 57" d="M.355,4.563l-.71-.726,4.3-4.2.71.726Z" transform="translate(12.2)" fill="#595758"/>
        </g>
      </g>
      <g id="组_339" data-name="组 339">
        <g id="组_338" data-name="组 338">
          <path id="直线_58" data-name="直线 58" d="M.356,4.564l-.711-.728,4.3-4.2.711.728Z" transform="translate(0.1 27.4)" fill="#595758"/>
          <path id="直线_59" data-name="直线 59" d="M.358,11.961l-.717-.723L7.467,3.48l.717.723Z" transform="translate(12.3 8)" fill="#595758"/>
          <path id="直线_60" data-name="直线 60" d="M.356,4.664l-.712-.728,4.4-4.3.712.728Z" transform="translate(28 -0.2)" fill="#595758"/>
        </g>
      </g>
      <g id="组_341" data-name="组 341">
        <g id="组_340" data-name="组 340">
          <path id="直线_61" data-name="直线 61" d="M.361,4.653l-.723-.706,4.2-4.3.723.706Z" transform="translate(16.5 43.6)" fill="#595758"/>
          <path id="直线_62" data-name="直线 62" d="M.36,11.954l-.721-.708L7.291,3.461l.721.708Z" transform="translate(28.5 24.2)" fill="#595758"/>
          <path id="直线_63" data-name="直线 63" d="M.357,4.657l-.715-.715,4.3-4.3.715.715Z" transform="translate(43.8 16)" fill="#595758"/>
        </g>
      </g>
      <g id="组_367" data-name="组 367">
        <g id="组_346" data-name="组 346">
          <g id="组_342" data-name="组 342">
            <path id="路径_380" data-name="路径 380" d="M6,3.4A1.58,1.58,0,0,0,4.4,5,1.5,1.5,0,0,0,6,6.5,1.561,1.561,0,0,0,7.6,5,1.645,1.645,0,0,0,6,3.4Z"/>
          </g>
          <g id="组_343" data-name="组 343">
            <path id="路径_381" data-name="路径 381" d="M18.3,3.4A1.6,1.6,0,1,0,19.9,5a1.58,1.58,0,0,0-1.6-1.6Z"/>
          </g>
          <g id="组_344" data-name="组 344">
            <path id="路径_382" data-name="路径 382" d="M30.2,3.4A1.6,1.6,0,1,0,31.8,5a1.58,1.58,0,0,0-1.6-1.6Z"/>
          </g>
          <g id="组_345" data-name="组 345">
            <path id="路径_383" data-name="路径 383" d="M41.8,3.4A1.6,1.6,0,1,0,43.4,5a1.58,1.58,0,0,0-1.6-1.6Z"/>
          </g>
        </g>
        <g id="组_351" data-name="组 351">
          <g id="组_347" data-name="组 347">
            <path id="路径_384" data-name="路径 384" d="M6.1,12.9a1.6,1.6,0,1,0,1.6,1.6,1.58,1.58,0,0,0-1.6-1.6Z"/>
          </g>
          <g id="组_348" data-name="组 348">
            <path id="路径_385" data-name="路径 385" d="M18.4,12.9A1.6,1.6,0,1,0,20,14.5a1.58,1.58,0,0,0-1.6-1.6Z"/>
          </g>
          <g id="组_349" data-name="组 349">
            <path id="路径_386" data-name="路径 386" d="M30.3,12.9a1.6,1.6,0,1,0,1.6,1.6,1.58,1.58,0,0,0-1.6-1.6Z"/>
          </g>
          <g id="组_350" data-name="组 350">
            <path id="路径_387" data-name="路径 387" d="M41.9,12.9a1.6,1.6,0,1,0,1.6,1.6,1.58,1.58,0,0,0-1.6-1.6Z"/>
          </g>
        </g>
        <g id="组_356" data-name="组 356">
          <g id="组_352" data-name="组 352">
            <path id="路径_388" data-name="路径 388" d="M6.1,22.4A1.6,1.6,0,1,0,7.7,24a1.58,1.58,0,0,0-1.6-1.6Z"/>
          </g>
          <g id="组_353" data-name="组 353">
            <path id="路径_389" data-name="路径 389" d="M18.4,22.4a1.6,1.6,0,0,0,0,3.2,1.6,1.6,0,1,0,0-3.2Z"/>
          </g>
          <g id="组_354" data-name="组 354">
            <path id="路径_390" data-name="路径 390" d="M30.3,22.4A1.6,1.6,0,1,0,31.9,24a1.58,1.58,0,0,0-1.6-1.6Z"/>
          </g>
          <g id="组_355" data-name="组 355">
            <path id="路径_391" data-name="路径 391" d="M41.9,22.4A1.6,1.6,0,1,0,43.5,24a1.58,1.58,0,0,0-1.6-1.6Z"/>
          </g>
        </g>
        <g id="组_361" data-name="组 361">
          <g id="组_357" data-name="组 357">
            <path id="路径_392" data-name="路径 392" d="M6.1,31.8a1.6,1.6,0,1,0,1.6,1.6,1.58,1.58,0,0,0-1.6-1.6Z"/>
          </g>
          <g id="组_358" data-name="组 358">
            <path id="路径_393" data-name="路径 393" d="M18.4,31.8A1.6,1.6,0,1,0,20,33.4a1.58,1.58,0,0,0-1.6-1.6Z"/>
          </g>
          <g id="组_359" data-name="组 359">
            <path id="路径_394" data-name="路径 394" d="M30.3,31.8a1.6,1.6,0,1,0,1.6,1.6,1.58,1.58,0,0,0-1.6-1.6Z"/>
          </g>
          <g id="组_360" data-name="组 360">
            <path id="路径_395" data-name="路径 395" d="M41.9,31.8a1.6,1.6,0,1,0,1.6,1.6,1.58,1.58,0,0,0-1.6-1.6Z"/>
          </g>
        </g>
        <g id="组_366" data-name="组 366">
          <g id="组_362" data-name="组 362">
            <path id="路径_396" data-name="路径 396" d="M6.1,41.4A1.6,1.6,0,1,0,7.7,43a1.58,1.58,0,0,0-1.6-1.6Z"/>
          </g>
          <g id="组_363" data-name="组 363">
            <path id="路径_397" data-name="路径 397" d="M18.4,41.4a1.6,1.6,0,1,0,0,3.2A1.666,1.666,0,0,0,20,42.9a1.5,1.5,0,0,0-1.6-1.5Z"/>
          </g>
          <g id="组_364" data-name="组 364">
            <path id="路径_398" data-name="路径 398" d="M30.3,41.4A1.6,1.6,0,1,0,31.9,43a1.58,1.58,0,0,0-1.6-1.6Z"/>
          </g>
          <g id="组_365" data-name="组 365">
            <path id="路径_399" data-name="路径 399" d="M41.9,41.4A1.6,1.6,0,1,0,43.5,43a1.58,1.58,0,0,0-1.6-1.6Z"/>
          </g>
        </g>
      </g>
    </g>
  </g>
</svg>
