<svg xmlns="http://www.w3.org/2000/svg" width="48.708" height="48.707" viewBox="0 0 48.708 48.707">
  <g id="含砾粉质粘土" transform="translate(-1080.646 -54.646)">
    <rect id="矩形_28" data-name="矩形 28" width="48" height="48" transform="translate(1081 55)" fill="none"/>
    <g id="含砾粉质粘土-2" data-name="含砾粉质粘土" transform="translate(1081 55)">
      <g id="组_306" data-name="组 306">
        <path id="直线_42" data-name="直线 42" d="M.354,48.253l-.708-.706,47.8-47.9.708.706Z" transform="translate(0 0.1)" fill="#595758"/>
        <path id="直线_43" data-name="直线 43" d="M.355,16.252l-.709-.7,15.8-15.9.709.7Z" transform="translate(32.2 32.1)" fill="#595758"/>
        <path id="直线_44" data-name="直线 44" d="M.354,16.154l-.707-.707,15.8-15.8.707.707Z" fill="#595758"/>
        <g id="组_303" data-name="组 303">
          <g id="组_302" data-name="组 302">
            <path id="直线_45" data-name="直线 45" d="M.354,4.554l-.707-.707,4.2-4.2.707.707Z" transform="translate(0.1 27.4)" fill="#595758"/>
            <path id="直线_46" data-name="直线 46" d="M.357,11.95l-.713-.7L7.231,3.528l.713.7Z" transform="translate(12 8.2)" fill="#595758"/>
            <path id="直线_47" data-name="直线 47" d="M.354,4.554l-.707-.707,4.2-4.2.707.707Z" transform="translate(27.3 0.1)" fill="#595758"/>
          </g>
        </g>
        <g id="组_305" data-name="组 305">
          <g id="组_304" data-name="组 304">
            <path id="直线_48" data-name="直线 48" d="M.354,4.554l-.707-.707,4.2-4.2.707.707Z" transform="translate(16.5 43.8)" fill="#595758"/>
            <path id="直线_49" data-name="直线 49" d="M.354,11.754l-.707-.707L7.285,3.408l.707.707Z" transform="translate(28.4 24.6)" fill="#595758"/>
            <path id="直线_50" data-name="直线 50" d="M.358,4.649l-.715-.7,4.2-4.3.715.7Z" transform="translate(43.7 16.5)" fill="#595758"/>
          </g>
        </g>
      </g>
      <g id="组_311" data-name="组 311">
        <g id="组_307" data-name="组 307">
          <path id="路径_359" data-name="路径 359" d="M6,3A2.155,2.155,0,0,1,8.1,5.1,2.054,2.054,0,0,1,6,7.1a2.007,2.007,0,0,1-2.1-2A2.078,2.078,0,0,1,6,3ZM6,6.1a1.068,1.068,0,0,0,1.1-1A1.144,1.144,0,0,0,6,4,1.076,1.076,0,0,0,4.9,5.1,1,1,0,0,0,6,6.1Z"/>
        </g>
        <g id="组_308" data-name="组 308">
          <path id="路径_360" data-name="路径 360" d="M18.3,3a2.1,2.1,0,1,1-2.1,2.1A2.078,2.078,0,0,1,18.3,3Zm0,3.2a1.1,1.1,0,1,0-1.1-1.1A1.076,1.076,0,0,0,18.3,6.2Z"/>
        </g>
        <g id="组_309" data-name="组 309">
          <path id="路径_361" data-name="路径 361" d="M30.2,3a2.1,2.1,0,1,1-2.1,2.1A2.078,2.078,0,0,1,30.2,3Zm0,3.2a1.1,1.1,0,1,0-1.1-1.1A1.076,1.076,0,0,0,30.2,6.2Z"/>
        </g>
        <g id="组_310" data-name="组 310">
          <path id="路径_362" data-name="路径 362" d="M41.8,3a2.1,2.1,0,1,1-2.1,2.1A2.078,2.078,0,0,1,41.8,3Zm0,3.2a1.1,1.1,0,1,0-1.1-1.1A1.076,1.076,0,0,0,41.8,6.2Z"/>
        </g>
      </g>
      <g id="组_316" data-name="组 316">
        <g id="组_312" data-name="组 312">
          <path id="路径_363" data-name="路径 363" d="M6.1,12.5A2.1,2.1,0,1,1,4,14.6,2.078,2.078,0,0,1,6.1,12.5Zm0,3.2A1.1,1.1,0,1,0,5,14.6,1.076,1.076,0,0,0,6.1,15.7Z"/>
        </g>
        <g id="组_313" data-name="组 313">
          <path id="路径_364" data-name="路径 364" d="M18.4,12.5a2.1,2.1,0,1,1-2.1,2.1A2.078,2.078,0,0,1,18.4,12.5Zm0,3.2a1.1,1.1,0,1,0-1.1-1.1A1.076,1.076,0,0,0,18.4,15.7Z"/>
        </g>
        <g id="组_314" data-name="组 314">
          <path id="路径_365" data-name="路径 365" d="M30.3,12.5a2.1,2.1,0,1,1-2.1,2.1A2.078,2.078,0,0,1,30.3,12.5Zm0,3.2a1.1,1.1,0,1,0-1.1-1.1A1.076,1.076,0,0,0,30.3,15.7Z"/>
        </g>
        <g id="组_315" data-name="组 315">
          <path id="路径_366" data-name="路径 366" d="M41.9,12.5a2.1,2.1,0,1,1-2.1,2.1A2.078,2.078,0,0,1,41.9,12.5Zm0,3.2a1.1,1.1,0,1,0-1.1-1.1A1.076,1.076,0,0,0,41.9,15.7Z"/>
        </g>
      </g>
      <g id="组_321" data-name="组 321">
        <g id="组_317" data-name="组 317">
          <path id="路径_367" data-name="路径 367" d="M6.1,22A2.1,2.1,0,1,1,4,24.1,2.078,2.078,0,0,1,6.1,22Zm0,3.2A1.1,1.1,0,1,0,5,24.1,1.076,1.076,0,0,0,6.1,25.2Z"/>
        </g>
        <g id="组_318" data-name="组 318">
          <path id="路径_368" data-name="路径 368" d="M18.4,22a2.1,2.1,0,1,1,0,4.2,2.1,2.1,0,0,1,0-4.2Zm0,3.2a1.1,1.1,0,1,0,0-2.2,1.1,1.1,0,0,0,0,2.2Z"/>
        </g>
        <g id="组_319" data-name="组 319">
          <path id="路径_369" data-name="路径 369" d="M30.3,22a2.1,2.1,0,1,1-2.1,2.1A2.078,2.078,0,0,1,30.3,22Zm0,3.2a1.1,1.1,0,1,0-1.1-1.1A1.076,1.076,0,0,0,30.3,25.2Z"/>
        </g>
        <g id="组_320" data-name="组 320">
          <path id="路径_370" data-name="路径 370" d="M41.9,22a2.1,2.1,0,1,1-2.1,2.1A2.078,2.078,0,0,1,41.9,22Zm0,3.2a1.1,1.1,0,1,0-1.1-1.1A1.076,1.076,0,0,0,41.9,25.2Z"/>
        </g>
      </g>
      <g id="组_326" data-name="组 326">
        <g id="组_322" data-name="组 322">
          <path id="路径_371" data-name="路径 371" d="M6.1,31.4A2.1,2.1,0,1,1,4,33.5,2.078,2.078,0,0,1,6.1,31.4Zm0,3.2A1.1,1.1,0,1,0,5,33.5,1.076,1.076,0,0,0,6.1,34.6Z"/>
        </g>
        <g id="组_323" data-name="组 323">
          <path id="路径_372" data-name="路径 372" d="M18.4,31.4a2.1,2.1,0,1,1-2.1,2.1A2.078,2.078,0,0,1,18.4,31.4Zm0,3.2a1.1,1.1,0,1,0-1.1-1.1A1.076,1.076,0,0,0,18.4,34.6Z"/>
        </g>
        <g id="组_324" data-name="组 324">
          <path id="路径_373" data-name="路径 373" d="M30.3,31.4a2.1,2.1,0,1,1-2.1,2.1A2.078,2.078,0,0,1,30.3,31.4Zm0,3.2a1.1,1.1,0,1,0-1.1-1.1A1.076,1.076,0,0,0,30.3,34.6Z"/>
        </g>
        <g id="组_325" data-name="组 325">
          <path id="路径_374" data-name="路径 374" d="M41.9,31.4a2.1,2.1,0,1,1-2.1,2.1A2.078,2.078,0,0,1,41.9,31.4Zm0,3.2a1.1,1.1,0,1,0-1.1-1.1A1.076,1.076,0,0,0,41.9,34.6Z"/>
        </g>
      </g>
      <g id="组_331" data-name="组 331">
        <g id="组_327" data-name="组 327">
          <path id="路径_375" data-name="路径 375" d="M6.1,41A2.1,2.1,0,1,1,4,43.1,2.078,2.078,0,0,1,6.1,41Zm0,3.2A1.1,1.1,0,1,0,5,43.1,1.076,1.076,0,0,0,6.1,44.2Z"/>
        </g>
        <g id="组_328" data-name="组 328">
          <path id="路径_376" data-name="路径 376" d="M18.4,41a2.007,2.007,0,0,1,2.1,2,2.154,2.154,0,0,1-2.1,2.2,2.1,2.1,0,1,1,0-4.2Zm0,3.2A1.169,1.169,0,0,0,19.5,43a1,1,0,0,0-1.1-1,1.1,1.1,0,1,0,0,2.2Z"/>
        </g>
        <g id="组_329" data-name="组 329">
          <path id="路径_377" data-name="路径 377" d="M30.3,41a2.1,2.1,0,1,1-2.1,2.1A2.078,2.078,0,0,1,30.3,41Zm0,3.2a1.1,1.1,0,1,0-1.1-1.1A1.076,1.076,0,0,0,30.3,44.2Z"/>
        </g>
        <g id="组_330" data-name="组 330">
          <path id="路径_378" data-name="路径 378" d="M41.9,41a2.1,2.1,0,1,1-2.1,2.1A2.078,2.078,0,0,1,41.9,41Zm0,3.2a1.1,1.1,0,1,0-1.1-1.1A1.076,1.076,0,0,0,41.9,44.2Z"/>
        </g>
      </g>
    </g>
  </g>
</svg>
