<svg xmlns="http://www.w3.org/2000/svg" width="48" height="48.4" viewBox="0 0 48 48.4">
  <g id="含粉质粘土细砂" transform="translate(-2112 -55.6)">
    <path id="路径_3185" data-name="路径 3185" d="M0,0H48V48H0Z" transform="translate(2112 56)" fill="none"/>
    <g id="含粉质粘土细砂-2" data-name="含粉质粘土细砂" transform="translate(2112 55.6)">
      <path id="直线_98" data-name="直线 98" d="M48,.4H0V-.4H48Z" transform="translate(0 0.4)"/>
      <path id="直线_99" data-name="直线 99" d="M48,.4H0V-.4H48Z" transform="translate(0 47.6)"/>
      <g id="组_595" data-name="组 595">
        <path id="路径_988" data-name="路径 988" d="M21,6.4H11a.86.86,0,0,1-.8-.8.86.86,0,0,1,.8-.8H21a.86.86,0,0,1,.8.8A.86.86,0,0,1,21,6.4Z"/>
        <path id="路径_989" data-name="路径 989" d="M37,6.4H27a.86.86,0,0,1-.8-.8.86.86,0,0,1,.8-.8H37a.86.86,0,0,1,.8.8A.86.86,0,0,1,37,6.4Z"/>
        <path id="路径_990" data-name="路径 990" d="M0,4.8H5a.86.86,0,0,1,.8.8.86.86,0,0,1-.8.8H0"/>
        <path id="路径_991" data-name="路径 991" d="M48,6.4H43a.86.86,0,0,1-.8-.8.86.86,0,0,1,.8-.8h5"/>
      </g>
      <g id="组_596" data-name="组 596">
        <path id="路径_992" data-name="路径 992" d="M14.8,11.6H13.3a.684.684,0,0,1-.7-.7h0a.684.684,0,0,1,.7-.7h1.5a.684.684,0,0,1,.7.7h0A.684.684,0,0,1,14.8,11.6Z"/>
        <path id="路径_993" data-name="路径 993" d="M8.1,11.6H6.6a.684.684,0,0,1-.7-.7h0a.684.684,0,0,1,.7-.7H8.1a.684.684,0,0,1,.7.7h0A.684.684,0,0,1,8.1,11.6Z"/>
        <path id="路径_994" data-name="路径 994" d="M21.4,11.6H19.9a.684.684,0,0,1-.7-.7h0a.684.684,0,0,1,.7-.7h1.5a.684.684,0,0,1,.7.7h0A.684.684,0,0,1,21.4,11.6Z"/>
        <path id="路径_995" data-name="路径 995" d="M28.1,11.6H26.6a.684.684,0,0,1-.7-.7h0a.684.684,0,0,1,.7-.7h1.5a.684.684,0,0,1,.7.7h0A.684.684,0,0,1,28.1,11.6Z"/>
        <path id="路径_996" data-name="路径 996" d="M34.7,11.6H33.2a.684.684,0,0,1-.7-.7h0a.684.684,0,0,1,.7-.7h1.5a.684.684,0,0,1,.7.7h0C35.5,11.3,35.1,11.6,34.7,11.6Z"/>
        <path id="路径_997" data-name="路径 997" d="M41.4,11.6H39.9a.684.684,0,0,1-.7-.7h0a.684.684,0,0,1,.7-.7h1.5a.684.684,0,0,1,.7.7h0A.684.684,0,0,1,41.4,11.6Z"/>
        <path id="路径_998" data-name="路径 998" d="M0,10.2H.7a.684.684,0,0,1,.7.7h0a.684.684,0,0,1-.7.7H0"/>
        <path id="路径_999" data-name="路径 999" d="M48,11.6h-.7a.684.684,0,0,1-.7-.7h0a.684.684,0,0,1,.7-.7H48"/>
      </g>
      <path id="直线_100" data-name="直线 100" d="M48,.8H0V-.8H48Z" transform="translate(0 16.1)"/>
      <g id="组_597" data-name="组 597">
        <path id="路径_1000" data-name="路径 1000" d="M21,22.2H11a.8.8,0,1,1,0-1.6H21a.8.8,0,1,1,0,1.6Z"/>
        <path id="路径_1001" data-name="路径 1001" d="M37,22.2H27a.8.8,0,1,1,0-1.6H37a.8.8,0,1,1,0,1.6Z"/>
        <path id="路径_1002" data-name="路径 1002" d="M0,20.6H5a.8.8,0,1,1,0,1.6H0"/>
        <path id="路径_1003" data-name="路径 1003" d="M48,22.2H43a.8.8,0,0,1,0-1.6h5"/>
      </g>
      <g id="组_598" data-name="组 598">
        <path id="路径_1004" data-name="路径 1004" d="M14.8,27.3H13.3a.684.684,0,0,1-.7-.7h0a.684.684,0,0,1,.7-.7h1.5a.684.684,0,0,1,.7.7h0A.684.684,0,0,1,14.8,27.3Z"/>
        <path id="路径_1005" data-name="路径 1005" d="M8.1,27.3H6.6a.684.684,0,0,1-.7-.7h0a.684.684,0,0,1,.7-.7H8.1a.684.684,0,0,1,.7.7h0A.684.684,0,0,1,8.1,27.3Z"/>
        <path id="路径_1006" data-name="路径 1006" d="M21.4,27.3H19.9a.684.684,0,0,1-.7-.7h0a.684.684,0,0,1,.7-.7h1.5a.684.684,0,0,1,.7.7h0A.684.684,0,0,1,21.4,27.3Z"/>
        <path id="路径_1007" data-name="路径 1007" d="M28.1,27.3H26.6a.684.684,0,0,1-.7-.7h0a.684.684,0,0,1,.7-.7h1.5a.684.684,0,0,1,.7.7h0A.684.684,0,0,1,28.1,27.3Z"/>
        <path id="路径_1008" data-name="路径 1008" d="M34.7,27.3H33.2a.684.684,0,0,1-.7-.7h0a.684.684,0,0,1,.7-.7h1.5a.684.684,0,0,1,.7.7h0C35.5,27,35.1,27.3,34.7,27.3Z"/>
        <path id="路径_1009" data-name="路径 1009" d="M41.4,27.3H39.9a.684.684,0,0,1-.7-.7h0a.684.684,0,0,1,.7-.7h1.5a.684.684,0,0,1,.7.7h0A.684.684,0,0,1,41.4,27.3Z"/>
        <path id="路径_1010" data-name="路径 1010" d="M0,25.9H.7a.684.684,0,0,1,.7.7h0a.684.684,0,0,1-.7.7H0"/>
        <path id="路径_1011" data-name="路径 1011" d="M48,27.3h-.7a.684.684,0,0,1-.7-.7h0a.684.684,0,0,1,.7-.7H48"/>
      </g>
      <path id="直线_101" data-name="直线 101" d="M48,.8H0V-.8H48Z" transform="translate(0 31.9)"/>
      <g id="组_599" data-name="组 599">
        <path id="路径_1012" data-name="路径 1012" d="M21,37.9H11a.8.8,0,1,1,0-1.6H21a.8.8,0,0,1,0,1.6Z"/>
        <path id="路径_1013" data-name="路径 1013" d="M37,37.9H27a.8.8,0,0,1,0-1.6H37a.8.8,0,0,1,0,1.6Z"/>
        <path id="路径_1014" data-name="路径 1014" d="M0,36.3H5a.8.8,0,0,1,0,1.6H0"/>
        <path id="路径_1015" data-name="路径 1015" d="M48,37.9H43a.8.8,0,0,1,0-1.6h5"/>
      </g>
      <g id="组_600" data-name="组 600">
        <path id="路径_1016" data-name="路径 1016" d="M14.8,43.1H13.3a.684.684,0,0,1-.7-.7h0a.684.684,0,0,1,.7-.7h1.5a.684.684,0,0,1,.7.7h0A.684.684,0,0,1,14.8,43.1Z"/>
        <path id="路径_1017" data-name="路径 1017" d="M8.1,43.1H6.6a.684.684,0,0,1-.7-.7h0a.684.684,0,0,1,.7-.7H8.1a.684.684,0,0,1,.7.7h0A.684.684,0,0,1,8.1,43.1Z"/>
        <path id="路径_1018" data-name="路径 1018" d="M21.4,43.1H19.9a.684.684,0,0,1-.7-.7h0a.684.684,0,0,1,.7-.7h1.5a.684.684,0,0,1,.7.7h0A.684.684,0,0,1,21.4,43.1Z"/>
        <path id="路径_1019" data-name="路径 1019" d="M28.1,43.1H26.6a.684.684,0,0,1-.7-.7h0a.684.684,0,0,1,.7-.7h1.5a.684.684,0,0,1,.7.7h0A.684.684,0,0,1,28.1,43.1Z"/>
        <path id="路径_1020" data-name="路径 1020" d="M34.7,43.1H33.2a.684.684,0,0,1-.7-.7h0a.684.684,0,0,1,.7-.7h1.5a.684.684,0,0,1,.7.7h0C35.5,42.8,35.1,43.1,34.7,43.1Z"/>
        <path id="路径_1021" data-name="路径 1021" d="M41.4,43.1H39.9a.684.684,0,0,1-.7-.7h0a.684.684,0,0,1,.7-.7h1.5a.684.684,0,0,1,.7.7h0A.684.684,0,0,1,41.4,43.1Z"/>
        <path id="路径_1022" data-name="路径 1022" d="M0,41.7H.7a.684.684,0,0,1,.7.7h0a.684.684,0,0,1-.7.7H0"/>
        <path id="路径_1023" data-name="路径 1023" d="M48,43.1h-.7a.684.684,0,0,1-.7-.7h0a.684.684,0,0,1,.7-.7H48"/>
      </g>
    </g>
  </g>
</svg>
