<svg xmlns="http://www.w3.org/2000/svg" width="48" height="48.4" viewBox="0 0 48 48.4">
  <g id="含粉质粘土中粗砂" transform="translate(-1938 -55.6)">
    <path id="路径_3182" data-name="路径 3182" d="M0,0H48V48H0Z" transform="translate(1938 56)" fill="none"/>
    <g id="含粉质粘土中粗砂-2" data-name="含粉质粘土中粗砂" transform="translate(1938 55.6)">
      <path id="直线_86" data-name="直线 86" d="M48,.4H0V-.4H48Z" transform="translate(0 0.4)"/>
      <path id="直线_87" data-name="直线 87" d="M48,.4H0V-.4H48Z" transform="translate(0 47.6)"/>
      <g id="组_577" data-name="组 577">
        <path id="路径_880" data-name="路径 880" d="M21,6.4H11a.86.86,0,0,1-.8-.8.86.86,0,0,1,.8-.8H21a.86.86,0,0,1,.8.8A.86.86,0,0,1,21,6.4Z"/>
        <path id="路径_881" data-name="路径 881" d="M37,6.4H27a.86.86,0,0,1-.8-.8.86.86,0,0,1,.8-.8H37a.86.86,0,0,1,.8.8A.86.86,0,0,1,37,6.4Z"/>
        <path id="路径_882" data-name="路径 882" d="M0,4.8H5a.86.86,0,0,1,.8.8.86.86,0,0,1-.8.8H0"/>
        <path id="路径_883" data-name="路径 883" d="M48,6.4H43a.86.86,0,0,1-.8-.8.86.86,0,0,1,.8-.8h5"/>
      </g>
      <g id="组_578" data-name="组 578">
        <path id="路径_884" data-name="路径 884" d="M14.8,11.6H13.3a.684.684,0,0,1-.7-.7h0a.684.684,0,0,1,.7-.7h1.5a.684.684,0,0,1,.7.7h0A.684.684,0,0,1,14.8,11.6Z"/>
        <path id="路径_885" data-name="路径 885" d="M8.1,11.6H6.6a.684.684,0,0,1-.7-.7h0a.684.684,0,0,1,.7-.7H8.1a.684.684,0,0,1,.7.7h0A.684.684,0,0,1,8.1,11.6Z"/>
        <path id="路径_886" data-name="路径 886" d="M21.4,11.6H19.9a.684.684,0,0,1-.7-.7h0a.684.684,0,0,1,.7-.7h1.5a.684.684,0,0,1,.7.7h0A.684.684,0,0,1,21.4,11.6Z"/>
        <path id="路径_887" data-name="路径 887" d="M28.1,11.6H26.6a.684.684,0,0,1-.7-.7h0a.684.684,0,0,1,.7-.7h1.5a.684.684,0,0,1,.7.7h0A.684.684,0,0,1,28.1,11.6Z"/>
        <path id="路径_888" data-name="路径 888" d="M34.7,11.6H33.2a.684.684,0,0,1-.7-.7h0a.684.684,0,0,1,.7-.7h1.5a.684.684,0,0,1,.7.7h0C35.5,11.3,35.1,11.6,34.7,11.6Z"/>
        <path id="路径_889" data-name="路径 889" d="M41.4,11.6H39.9a.684.684,0,0,1-.7-.7h0a.684.684,0,0,1,.7-.7h1.5a.684.684,0,0,1,.7.7h0A.684.684,0,0,1,41.4,11.6Z"/>
        <path id="路径_890" data-name="路径 890" d="M0,10.2H.7a.684.684,0,0,1,.7.7h0a.684.684,0,0,1-.7.7H0"/>
        <path id="路径_891" data-name="路径 891" d="M48,11.6h-.7a.684.684,0,0,1-.7-.7h0a.684.684,0,0,1,.7-.7H48"/>
      </g>
      <path id="直线_88" data-name="直线 88" d="M48,.8H0V-.8H48Z" transform="translate(0 16.1)"/>
      <g id="组_579" data-name="组 579">
        <path id="路径_892" data-name="路径 892" d="M21,22.2H11a.8.8,0,1,1,0-1.6H21a.8.8,0,1,1,0,1.6Z"/>
        <path id="路径_893" data-name="路径 893" d="M37,22.2H27a.8.8,0,1,1,0-1.6H37a.8.8,0,1,1,0,1.6Z"/>
        <path id="路径_894" data-name="路径 894" d="M0,20.6H5a.8.8,0,1,1,0,1.6H0"/>
        <path id="路径_895" data-name="路径 895" d="M48,22.2H43a.8.8,0,0,1,0-1.6h5"/>
      </g>
      <g id="组_580" data-name="组 580">
        <path id="路径_896" data-name="路径 896" d="M14.8,27.3H13.3a.684.684,0,0,1-.7-.7h0a.684.684,0,0,1,.7-.7h1.5a.684.684,0,0,1,.7.7h0A.684.684,0,0,1,14.8,27.3Z"/>
        <path id="路径_897" data-name="路径 897" d="M8.1,27.3H6.6a.684.684,0,0,1-.7-.7h0a.684.684,0,0,1,.7-.7H8.1a.684.684,0,0,1,.7.7h0A.684.684,0,0,1,8.1,27.3Z"/>
        <path id="路径_898" data-name="路径 898" d="M21.4,27.3H19.9a.684.684,0,0,1-.7-.7h0a.684.684,0,0,1,.7-.7h1.5a.684.684,0,0,1,.7.7h0A.684.684,0,0,1,21.4,27.3Z"/>
        <path id="路径_899" data-name="路径 899" d="M28.1,27.3H26.6a.684.684,0,0,1-.7-.7h0a.684.684,0,0,1,.7-.7h1.5a.684.684,0,0,1,.7.7h0A.684.684,0,0,1,28.1,27.3Z"/>
        <path id="路径_900" data-name="路径 900" d="M34.7,27.3H33.2a.684.684,0,0,1-.7-.7h0a.684.684,0,0,1,.7-.7h1.5a.684.684,0,0,1,.7.7h0C35.5,27,35.1,27.3,34.7,27.3Z"/>
        <path id="路径_901" data-name="路径 901" d="M41.4,27.3H39.9a.684.684,0,0,1-.7-.7h0a.684.684,0,0,1,.7-.7h1.5a.684.684,0,0,1,.7.7h0A.684.684,0,0,1,41.4,27.3Z"/>
        <path id="路径_902" data-name="路径 902" d="M0,25.9H.7a.684.684,0,0,1,.7.7h0a.684.684,0,0,1-.7.7H0"/>
        <path id="路径_903" data-name="路径 903" d="M48,27.3h-.7a.684.684,0,0,1-.7-.7h0a.684.684,0,0,1,.7-.7H48"/>
      </g>
      <path id="直线_89" data-name="直线 89" d="M48,.8H0V-.8H48Z" transform="translate(0 31.9)"/>
      <g id="组_581" data-name="组 581">
        <path id="路径_904" data-name="路径 904" d="M21,37.9H11a.8.8,0,1,1,0-1.6H21a.8.8,0,0,1,0,1.6Z"/>
        <path id="路径_905" data-name="路径 905" d="M37,37.9H27a.8.8,0,0,1,0-1.6H37a.8.8,0,0,1,0,1.6Z"/>
        <path id="路径_906" data-name="路径 906" d="M0,36.3H5a.8.8,0,0,1,0,1.6H0"/>
        <path id="路径_907" data-name="路径 907" d="M48,37.9H43a.8.8,0,0,1,0-1.6h5"/>
      </g>
      <g id="组_582" data-name="组 582">
        <path id="路径_908" data-name="路径 908" d="M14.8,43.1H13.3a.684.684,0,0,1-.7-.7h0a.684.684,0,0,1,.7-.7h1.5a.684.684,0,0,1,.7.7h0A.684.684,0,0,1,14.8,43.1Z"/>
        <path id="路径_909" data-name="路径 909" d="M8.1,43.1H6.6a.684.684,0,0,1-.7-.7h0a.684.684,0,0,1,.7-.7H8.1a.684.684,0,0,1,.7.7h0A.684.684,0,0,1,8.1,43.1Z"/>
        <path id="路径_910" data-name="路径 910" d="M21.4,43.1H19.9a.684.684,0,0,1-.7-.7h0a.684.684,0,0,1,.7-.7h1.5a.684.684,0,0,1,.7.7h0A.684.684,0,0,1,21.4,43.1Z"/>
        <path id="路径_911" data-name="路径 911" d="M28.1,43.1H26.6a.684.684,0,0,1-.7-.7h0a.684.684,0,0,1,.7-.7h1.5a.684.684,0,0,1,.7.7h0A.684.684,0,0,1,28.1,43.1Z"/>
        <path id="路径_912" data-name="路径 912" d="M34.7,43.1H33.2a.684.684,0,0,1-.7-.7h0a.684.684,0,0,1,.7-.7h1.5a.684.684,0,0,1,.7.7h0C35.5,42.8,35.1,43.1,34.7,43.1Z"/>
        <path id="路径_913" data-name="路径 913" d="M41.4,43.1H39.9a.684.684,0,0,1-.7-.7h0a.684.684,0,0,1,.7-.7h1.5a.684.684,0,0,1,.7.7h0A.684.684,0,0,1,41.4,43.1Z"/>
        <path id="路径_914" data-name="路径 914" d="M0,41.7H.7a.684.684,0,0,1,.7.7h0a.684.684,0,0,1-.7.7H0"/>
        <path id="路径_915" data-name="路径 915" d="M48,43.1h-.7a.684.684,0,0,1-.7-.7h0a.684.684,0,0,1,.7-.7H48"/>
      </g>
    </g>
  </g>
</svg>
