<svg xmlns="http://www.w3.org/2000/svg" width="48.819" height="48.82" viewBox="0 0 48.819 48.82">
  <g id="含粘性土中砂" transform="translate(-2575.645 -55.636)">
    <path id="路径_3193" data-name="路径 3193" d="M0,0H48V48H0Z" transform="translate(2576 56)" fill="none"/>
    <g id="含粘性土中砂-2" data-name="含粘性土中砂" transform="translate(2576 56.2)">
      <path id="路径_1220" data-name="路径 1220" d="M13.112,40.431a3.837,3.837,0,0,1-2.552-1.265c-1.137-1.042-2.1-1.509-2.706-1.317-.581.184-.764.949-.766.957l-.977-.214a2.394,2.394,0,0,1,1.44-1.7c.992-.314,2.232.2,3.686,1.535l0,0c.637.6,1.557,1.239,2.319.9a2,2,0,0,0,.983-1.409.43.43,0,0,0,.3.345l.316-.949a.577.577,0,0,1,.385.548,2.894,2.894,0,0,1-1.535,2.359A2.1,2.1,0,0,1,13.112,40.431Z" fill="#595758"/>
      <g id="组_630" data-name="组 630">
        <g id="组_629" data-name="组 629">
          <path id="直线_137" data-name="直线 137" d="M.354,4.554l-.707-.707,4.2-4.2.707.707Z" transform="translate(0 43.7)" fill="#595758"/>
          <path id="直线_138" data-name="直线 138" d="M.354,27.854l-.707-.707,7.863-7.863.707.707ZM16.079,12.128l-.707-.707,7.863-7.863.707.707Z" transform="translate(12.1 8.3)" fill="#595758"/>
          <path id="直线_139" data-name="直线 139" d="M.354,4.554l-.707-.707,4.2-4.2.707.707Z" transform="translate(43.6 0.1)" fill="#595758"/>
        </g>
      </g>
      <g id="组_632" data-name="组 632">
        <g id="组_631" data-name="组 631">
          <path id="直线_140" data-name="直线 140" d="M.364,4.656l-.729-.712,4.2-4.3.729.712Z" transform="translate(32.2 43.6)" fill="#595758"/>
          <path id="直线_141" data-name="直线 141" d="M.364,4.656l-.729-.712,4.2-4.3.729.712Z" transform="translate(43.9 31.6)" fill="#595758"/>
        </g>
      </g>
      <g id="组_634" data-name="组 634">
        <g id="组_633" data-name="组 633">
          <path id="直线_142" data-name="直线 142" d="M.355,4.563l-.71-.726,4.3-4.2.71.726Z" transform="translate(0 11.8)" fill="#595758"/>
          <path id="直线_143" data-name="直线 143" d="M.355,4.563l-.71-.726,4.3-4.2.71.726Z" transform="translate(12.2)" fill="#595758"/>
        </g>
      </g>
      <g id="组_636" data-name="组 636">
        <g id="组_635" data-name="组 635">
          <path id="直线_144" data-name="直线 144" d="M.356,4.564l-.711-.728,4.3-4.2.711.728Z" transform="translate(0.1 27.4)" fill="#595758"/>
          <path id="直线_145" data-name="直线 145" d="M.358,11.961l-.717-.723L7.467,3.48l.717.723Z" transform="translate(12.3 8)" fill="#595758"/>
          <path id="直线_146" data-name="直线 146" d="M.356,4.664l-.712-.728,4.4-4.3.712.728Z" transform="translate(28 -0.2)" fill="#595758"/>
        </g>
      </g>
      <g id="组_638" data-name="组 638">
        <g id="组_637" data-name="组 637">
          <path id="直线_147" data-name="直线 147" d="M.361,4.653l-.723-.706,4.2-4.3.723.706Z" transform="translate(16.5 43.6)" fill="#595758"/>
          <path id="直线_148" data-name="直线 148" d="M.36,11.954l-.721-.708L7.291,3.461l.721.708Z" transform="translate(28.5 24.2)" fill="#595758"/>
          <path id="直线_149" data-name="直线 149" d="M.357,4.657l-.715-.715,4.3-4.3.715.715Z" transform="translate(43.8 16)" fill="#595758"/>
        </g>
      </g>
      <g id="组_664" data-name="组 664">
        <g id="组_643" data-name="组 643">
          <g id="组_639" data-name="组 639">
            <path id="路径_1221" data-name="路径 1221" d="M6,3.4A1.58,1.58,0,0,0,4.4,5,1.5,1.5,0,0,0,6,6.5,1.561,1.561,0,0,0,7.6,5,1.645,1.645,0,0,0,6,3.4Z"/>
          </g>
          <g id="组_640" data-name="组 640">
            <path id="路径_1222" data-name="路径 1222" d="M18.3,3.4A1.6,1.6,0,1,0,19.9,5a1.58,1.58,0,0,0-1.6-1.6Z"/>
          </g>
          <g id="组_641" data-name="组 641">
            <path id="路径_1223" data-name="路径 1223" d="M30.2,3.4A1.6,1.6,0,1,0,31.8,5a1.58,1.58,0,0,0-1.6-1.6Z"/>
          </g>
          <g id="组_642" data-name="组 642">
            <path id="路径_1224" data-name="路径 1224" d="M41.8,3.4A1.6,1.6,0,1,0,43.4,5a1.58,1.58,0,0,0-1.6-1.6Z"/>
          </g>
        </g>
        <g id="组_648" data-name="组 648">
          <g id="组_644" data-name="组 644">
            <path id="路径_1225" data-name="路径 1225" d="M6.1,12.9a1.6,1.6,0,1,0,1.6,1.6,1.58,1.58,0,0,0-1.6-1.6Z"/>
          </g>
          <g id="组_645" data-name="组 645">
            <path id="路径_1226" data-name="路径 1226" d="M18.4,12.9A1.6,1.6,0,1,0,20,14.5a1.58,1.58,0,0,0-1.6-1.6Z"/>
          </g>
          <g id="组_646" data-name="组 646">
            <path id="路径_1227" data-name="路径 1227" d="M30.3,12.9a1.6,1.6,0,1,0,1.6,1.6,1.58,1.58,0,0,0-1.6-1.6Z"/>
          </g>
          <g id="组_647" data-name="组 647">
            <path id="路径_1228" data-name="路径 1228" d="M41.9,12.9a1.6,1.6,0,1,0,1.6,1.6,1.58,1.58,0,0,0-1.6-1.6Z"/>
          </g>
        </g>
        <g id="组_653" data-name="组 653">
          <g id="组_649" data-name="组 649">
            <path id="路径_1229" data-name="路径 1229" d="M6.1,22.4A1.6,1.6,0,1,0,7.7,24a1.58,1.58,0,0,0-1.6-1.6Z"/>
          </g>
          <g id="组_650" data-name="组 650">
            <path id="路径_1230" data-name="路径 1230" d="M18.4,22.4a1.6,1.6,0,0,0,0,3.2,1.6,1.6,0,1,0,0-3.2Z"/>
          </g>
          <g id="组_651" data-name="组 651">
            <path id="路径_1231" data-name="路径 1231" d="M30.3,22.4A1.6,1.6,0,1,0,31.9,24a1.58,1.58,0,0,0-1.6-1.6Z"/>
          </g>
          <g id="组_652" data-name="组 652">
            <path id="路径_1232" data-name="路径 1232" d="M41.9,22.4A1.6,1.6,0,1,0,43.5,24a1.58,1.58,0,0,0-1.6-1.6Z"/>
          </g>
        </g>
        <g id="组_658" data-name="组 658">
          <g id="组_654" data-name="组 654">
            <path id="路径_1233" data-name="路径 1233" d="M6.1,31.8a1.6,1.6,0,1,0,1.6,1.6,1.58,1.58,0,0,0-1.6-1.6Z"/>
          </g>
          <g id="组_655" data-name="组 655">
            <path id="路径_1234" data-name="路径 1234" d="M18.4,31.8A1.6,1.6,0,1,0,20,33.4a1.58,1.58,0,0,0-1.6-1.6Z"/>
          </g>
          <g id="组_656" data-name="组 656">
            <path id="路径_1235" data-name="路径 1235" d="M30.3,31.8a1.6,1.6,0,1,0,1.6,1.6,1.58,1.58,0,0,0-1.6-1.6Z"/>
          </g>
          <g id="组_657" data-name="组 657">
            <path id="路径_1236" data-name="路径 1236" d="M41.9,31.8a1.6,1.6,0,1,0,1.6,1.6,1.58,1.58,0,0,0-1.6-1.6Z"/>
          </g>
        </g>
        <g id="组_663" data-name="组 663">
          <g id="组_659" data-name="组 659">
            <path id="路径_1237" data-name="路径 1237" d="M6.1,41.4A1.6,1.6,0,1,0,7.7,43a1.58,1.58,0,0,0-1.6-1.6Z"/>
          </g>
          <g id="组_660" data-name="组 660">
            <path id="路径_1238" data-name="路径 1238" d="M18.4,41.4a1.6,1.6,0,1,0,0,3.2A1.666,1.666,0,0,0,20,42.9a1.5,1.5,0,0,0-1.6-1.5Z"/>
          </g>
          <g id="组_661" data-name="组 661">
            <path id="路径_1239" data-name="路径 1239" d="M30.3,41.4A1.6,1.6,0,1,0,31.9,43a1.58,1.58,0,0,0-1.6-1.6Z"/>
          </g>
          <g id="组_662" data-name="组 662">
            <path id="路径_1240" data-name="路径 1240" d="M41.9,41.4A1.6,1.6,0,1,0,43.5,43a1.58,1.58,0,0,0-1.6-1.6Z"/>
          </g>
        </g>
      </g>
    </g>
  </g>
</svg>
