<svg xmlns="http://www.w3.org/2000/svg" width="48.707" height="48.707" viewBox="0 0 48.707 48.707">
  <g id="含砾粉土" transform="translate(-971.646 -54.646)">
    <rect id="矩形_26" data-name="矩形 26" width="48" height="48" transform="translate(972 55)" fill="none"/>
    <g id="含砾粉土-2" data-name="含砾粉土" transform="translate(972 55)">
      <g id="组_191" data-name="组 191">
        <g id="组_182" data-name="组 182">
          <g id="组_181" data-name="组 181">
            <path id="直线_29" data-name="直线 29" d="M.354,4.554l-.707-.707,4.2-4.2.707.707Z" transform="translate(0 43.8)" fill="#595758"/>
            <path id="直线_30" data-name="直线 30" d="M.354,27.854l-.707-.707,7.863-7.863.707.707ZM16.079,12.128l-.707-.707,7.863-7.863.707.707Z" transform="translate(12.1 8.3)" fill="#595758"/>
            <path id="直线_31" data-name="直线 31" d="M.354,4.554l-.707-.707,4.2-4.2.707.707Z" transform="translate(43.6 0.1)" fill="#595758"/>
          </g>
        </g>
        <g id="组_184" data-name="组 184">
          <g id="组_183" data-name="组 183">
            <path id="直线_32" data-name="直线 32" d="M.354,4.554l-.707-.707,4.2-4.2.707.707Z" transform="translate(32.2 43.8)" fill="#595758"/>
            <path id="直线_33" data-name="直线 33" d="M.354,4.554l-.707-.707,4.2-4.2.707.707Z" transform="translate(43.8 32.1)" fill="#595758"/>
          </g>
        </g>
        <g id="组_186" data-name="组 186">
          <g id="组_185" data-name="组 185">
            <path id="直线_34" data-name="直线 34" d="M.354,4.554l-.707-.707,4.2-4.2.707.707Z" transform="translate(0 11.8)" fill="#595758"/>
            <path id="直线_35" data-name="直线 35" d="M.354,4.554l-.707-.707,4.2-4.2.707.707Z" transform="translate(11.8)" fill="#595758"/>
          </g>
        </g>
        <g id="组_188" data-name="组 188">
          <g id="组_187" data-name="组 187">
            <path id="直线_36" data-name="直线 36" d="M.354,4.554l-.707-.707,4.2-4.2.707.707Z" transform="translate(0.1 27.4)" fill="#595758"/>
            <path id="直线_37" data-name="直线 37" d="M.357,11.95l-.713-.7L7.231,3.528l.713.7Z" transform="translate(12 8.2)" fill="#595758"/>
            <path id="直线_38" data-name="直线 38" d="M.354,4.554l-.707-.707,4.2-4.2.707.707Z" transform="translate(27.3 0.1)" fill="#595758"/>
          </g>
        </g>
        <g id="组_190" data-name="组 190">
          <g id="组_189" data-name="组 189">
            <path id="直线_39" data-name="直线 39" d="M.354,4.554l-.707-.707,4.2-4.2.707.707Z" transform="translate(16.5 43.8)" fill="#595758"/>
            <path id="直线_40" data-name="直线 40" d="M.354,11.754l-.707-.707L7.285,3.408l.707.707Z" transform="translate(28.4 24.6)" fill="#595758"/>
            <path id="直线_41" data-name="直线 41" d="M.358,4.649l-.715-.7,4.2-4.3.715.7Z" transform="translate(43.7 16.5)" fill="#595758"/>
          </g>
        </g>
      </g>
      <g id="组_217" data-name="组 217">
        <g id="组_196" data-name="组 196">
          <g id="组_192" data-name="组 192">
            <path id="路径_299" data-name="路径 299" d="M6.1,2.9A2.133,2.133,0,0,1,8.1,5,2.054,2.054,0,0,1,6,7,2.007,2.007,0,0,1,3.9,5,2.1,2.1,0,0,1,6.1,2.9ZM6,6A1.068,1.068,0,0,0,7.1,5a1.141,1.141,0,0,0-1-1.1A1.1,1.1,0,0,0,4.9,5,1,1,0,0,0,6,6Z"/>
          </g>
          <g id="组_193" data-name="组 193">
            <path id="路径_300" data-name="路径 300" d="M18.3,2.9a2.065,2.065,0,0,1,1.536.617A2.124,2.124,0,0,1,20.4,5a2.1,2.1,0,1,1-2.1-2.1Zm0,3.2A1.076,1.076,0,0,0,19.4,5a1.023,1.023,0,0,0-1.1-1.1,1.1,1.1,0,1,0,0,2.2Z"/>
          </g>
          <g id="组_194" data-name="组 194">
            <path id="路径_301" data-name="路径 301" d="M30.3,2.9A2.155,2.155,0,0,1,32.4,5a2.1,2.1,0,1,1-2.1-2.1Zm0,3.2A1.076,1.076,0,0,0,31.4,5a1.144,1.144,0,0,0-1.1-1.1,1.1,1.1,0,1,0,0,2.2Z"/>
          </g>
          <g id="组_195" data-name="组 195">
            <path id="路径_302" data-name="路径 302" d="M41.8,2.9a2.065,2.065,0,0,1,1.536.617A2.124,2.124,0,0,1,43.9,5a2.1,2.1,0,1,1-2.1-2.1Zm0,3.2A1.076,1.076,0,0,0,42.9,5a1.023,1.023,0,0,0-1.1-1.1,1.1,1.1,0,0,0,0,2.2Z"/>
          </g>
        </g>
        <g id="组_201" data-name="组 201">
          <g id="组_197" data-name="组 197">
            <path id="路径_303" data-name="路径 303" d="M6.1,12.4a2.065,2.065,0,0,1,1.536.617A2.124,2.124,0,0,1,8.2,14.5a2.1,2.1,0,1,1-2.1-2.1Zm0,3.2a1.076,1.076,0,0,0,1.1-1.1,1.023,1.023,0,0,0-1.1-1.1,1.1,1.1,0,0,0,0,2.2Z"/>
          </g>
          <g id="组_198" data-name="组 198">
            <path id="路径_304" data-name="路径 304" d="M18.4,12.4a2.1,2.1,0,1,1-2.1,2.1A2.078,2.078,0,0,1,18.4,12.4Zm0,3.2a1.1,1.1,0,1,0-1.1-1.1A1.076,1.076,0,0,0,18.4,15.6Z"/>
          </g>
          <g id="组_199" data-name="组 199">
            <path id="路径_305" data-name="路径 305" d="M30.3,12.4a2.065,2.065,0,0,1,1.536.617A2.124,2.124,0,0,1,32.4,14.5a2.1,2.1,0,1,1-2.1-2.1Zm0,3.2a1.076,1.076,0,0,0,1.1-1.1,1.023,1.023,0,0,0-1.1-1.1,1.1,1.1,0,1,0,0,2.2Z"/>
          </g>
          <g id="组_200" data-name="组 200">
            <path id="路径_306" data-name="路径 306" d="M42,12.4a2.155,2.155,0,0,1,2.1,2.1A2.1,2.1,0,1,1,42,12.4Zm0,3.2a1.076,1.076,0,0,0,1.1-1.1A1.144,1.144,0,0,0,42,13.4a1.1,1.1,0,0,0,0,2.2Z"/>
          </g>
        </g>
        <g id="组_206" data-name="组 206">
          <g id="组_202" data-name="组 202">
            <path id="路径_307" data-name="路径 307" d="M6.1,21.9a2.065,2.065,0,0,1,1.536.617A2.124,2.124,0,0,1,8.2,24a2.1,2.1,0,1,1-2.1-2.1Zm0,3.2A1.076,1.076,0,0,0,7.2,24a1.023,1.023,0,0,0-1.1-1.1,1.1,1.1,0,0,0,0,2.2Z"/>
          </g>
          <g id="组_203" data-name="组 203">
            <path id="路径_308" data-name="路径 308" d="M18.4,21.9a2.1,2.1,0,1,1,0,4.2,2.1,2.1,0,0,1,0-4.2Zm0,3.2a1.1,1.1,0,1,0,0-2.2,1.1,1.1,0,1,0,0,2.2Z"/>
          </g>
          <g id="组_204" data-name="组 204">
            <path id="路径_309" data-name="路径 309" d="M30.3,21.9a2.065,2.065,0,0,1,1.536.617A2.124,2.124,0,0,1,32.4,24a2.1,2.1,0,1,1-2.1-2.1Zm0,3.2A1.076,1.076,0,0,0,31.4,24a1.023,1.023,0,0,0-1.1-1.1,1.1,1.1,0,1,0,0,2.2Z"/>
          </g>
          <g id="组_205" data-name="组 205">
            <path id="路径_310" data-name="路径 310" d="M42,21.9A2.155,2.155,0,0,1,44.1,24,2.1,2.1,0,1,1,42,21.9Zm0,3.2A1.076,1.076,0,0,0,43.1,24,1.144,1.144,0,0,0,42,22.9a1.1,1.1,0,0,0,0,2.2Z"/>
          </g>
        </g>
        <g id="组_211" data-name="组 211">
          <g id="组_207" data-name="组 207">
            <path id="路径_311" data-name="路径 311" d="M6.1,31.3a2.065,2.065,0,0,1,1.536.617A2.124,2.124,0,0,1,8.2,33.4a2.078,2.078,0,0,1-2.1,2.1A2.155,2.155,0,0,1,4,33.4,2.078,2.078,0,0,1,6.1,31.3Zm0,3.2a1.076,1.076,0,0,0,1.1-1.1,1.023,1.023,0,0,0-1.1-1.1A1.076,1.076,0,0,0,5,33.4,1.144,1.144,0,0,0,6.1,34.5Z"/>
          </g>
          <g id="组_208" data-name="组 208">
            <path id="路径_312" data-name="路径 312" d="M18.4,31.3a2.1,2.1,0,1,1-2.1,2.1A2.078,2.078,0,0,1,18.4,31.3Zm0,3.2a1.1,1.1,0,1,0-1.1-1.1A1.076,1.076,0,0,0,18.4,34.5Z"/>
          </g>
          <g id="组_209" data-name="组 209">
            <path id="路径_313" data-name="路径 313" d="M30.3,31.3a2.065,2.065,0,0,1,1.536.617A2.124,2.124,0,0,1,32.4,33.4a2.1,2.1,0,1,1-2.1-2.1Zm0,3.2a1.076,1.076,0,0,0,1.1-1.1,1.023,1.023,0,0,0-1.1-1.1,1.1,1.1,0,1,0,0,2.2Z"/>
          </g>
          <g id="组_210" data-name="组 210">
            <path id="路径_314" data-name="路径 314" d="M42,31.3a2.155,2.155,0,0,1,2.1,2.1A2.1,2.1,0,1,1,42,31.3Zm0,3.2a1.076,1.076,0,0,0,1.1-1.1A1.144,1.144,0,0,0,42,32.3a1.1,1.1,0,1,0,0,2.2Z"/>
          </g>
        </g>
        <g id="组_216" data-name="组 216">
          <g id="组_212" data-name="组 212">
            <path id="路径_315" data-name="路径 315" d="M6.1,40.9a2.065,2.065,0,0,1,1.536.617A2.124,2.124,0,0,1,8.2,43a2.1,2.1,0,1,1-2.1-2.1Zm0,3.2A1.076,1.076,0,0,0,7.2,43a1.023,1.023,0,0,0-1.1-1.1,1.1,1.1,0,1,0,0,2.2Z"/>
          </g>
          <g id="组_213" data-name="组 213">
            <path id="路径_316" data-name="路径 316" d="M18.4,40.9a2.007,2.007,0,0,1,2.1,2,2.154,2.154,0,0,1-2.1,2.2,2.1,2.1,0,1,1,0-4.2Zm0,3.2a1.169,1.169,0,0,0,1.1-1.2,1,1,0,0,0-1.1-1,1.1,1.1,0,1,0,0,2.2Z"/>
          </g>
          <g id="组_214" data-name="组 214">
            <path id="路径_317" data-name="路径 317" d="M30.3,40.9a2.065,2.065,0,0,1,1.536.617A2.124,2.124,0,0,1,32.4,43a2.1,2.1,0,1,1-2.1-2.1Zm0,3.2A1.076,1.076,0,0,0,31.4,43a1.023,1.023,0,0,0-1.1-1.1,1.1,1.1,0,1,0,0,2.2Z"/>
          </g>
          <g id="组_215" data-name="组 215">
            <path id="路径_318" data-name="路径 318" d="M42,40.9A2.155,2.155,0,0,1,44.1,43,2.1,2.1,0,1,1,42,40.9Zm0,3.2A1.076,1.076,0,0,0,43.1,43,1.144,1.144,0,0,0,42,41.9a1.1,1.1,0,0,0,0,2.2Z"/>
          </g>
        </g>
      </g>
    </g>
  </g>
</svg>
