<svg xmlns="http://www.w3.org/2000/svg" width="48" height="48" viewBox="0 0 48 48">
  <g id="含粉土粗砾砂" transform="translate(-1713 -55)">
    <path id="路径_3178" data-name="路径 3178" d="M0,0H48V48H0Z" transform="translate(1713 55)" fill="none"/>
    <g id="含粉土粗砾砂-2" data-name="含粉土粗砾砂" transform="translate(1713 54.95)">
      <g id="组_555" data-name="组 555">
        <path id="路径_730" data-name="路径 730" d="M14.8,3.7H13.3a.684.684,0,0,1-.7-.7h0a.684.684,0,0,1,.7-.7h1.5a.684.684,0,0,1,.7.7h0A.684.684,0,0,1,14.8,3.7Z"/>
        <path id="路径_731" data-name="路径 731" d="M8.1,3.7H6.6A.684.684,0,0,1,5.9,3h0a.684.684,0,0,1,.7-.7H8.1a.684.684,0,0,1,.7.7h0A.684.684,0,0,1,8.1,3.7Z"/>
        <path id="路径_732" data-name="路径 732" d="M21.4,3.7H19.9a.684.684,0,0,1-.7-.7h0a.684.684,0,0,1,.7-.7h1.5a.684.684,0,0,1,.7.7h0A.684.684,0,0,1,21.4,3.7Z"/>
        <path id="路径_733" data-name="路径 733" d="M28.1,3.7H26.6a.684.684,0,0,1-.7-.7h0a.684.684,0,0,1,.7-.7h1.5a.684.684,0,0,1,.7.7h0A.684.684,0,0,1,28.1,3.7Z"/>
        <path id="路径_734" data-name="路径 734" d="M34.7,3.7H33.2a.684.684,0,0,1-.7-.7h0a.684.684,0,0,1,.7-.7h1.5a.684.684,0,0,1,.7.7h0C35.5,3.4,35.1,3.7,34.7,3.7Z"/>
        <path id="路径_735" data-name="路径 735" d="M41.4,3.7H39.9a.684.684,0,0,1-.7-.7h0a.684.684,0,0,1,.7-.7h1.5a.684.684,0,0,1,.7.7h0A.684.684,0,0,1,41.4,3.7Z"/>
        <path id="路径_736" data-name="路径 736" d="M0,2.3H.7a.751.751,0,0,1,.7.7h0a.684.684,0,0,1-.7.7H0"/>
        <path id="路径_737" data-name="路径 737" d="M48,3.7h-.7a.684.684,0,0,1-.7-.7h0a.684.684,0,0,1,.7-.7H48"/>
      </g>
      <g id="组_556" data-name="组 556">
        <path id="路径_738" data-name="路径 738" d="M21,9.8H11a.86.86,0,0,1-.8-.8.86.86,0,0,1,.8-.8H21a.86.86,0,0,1,.8.8A.86.86,0,0,1,21,9.8Z"/>
        <path id="路径_739" data-name="路径 739" d="M37,9.8H27a.86.86,0,0,1-.8-.8.86.86,0,0,1,.8-.8H37a.86.86,0,0,1,.8.8A.86.86,0,0,1,37,9.8Z"/>
        <path id="路径_740" data-name="路径 740" d="M0,8.2H5a.86.86,0,0,1,.8.8.86.86,0,0,1-.8.8H0"/>
        <path id="路径_741" data-name="路径 741" d="M48,9.8H43a.86.86,0,0,1-.8-.8.86.86,0,0,1,.8-.8h5"/>
      </g>
      <g id="组_557" data-name="组 557">
        <path id="路径_742" data-name="路径 742" d="M14.8,15.7H13.3a.684.684,0,0,1-.7-.7h0a.684.684,0,0,1,.7-.7h1.5a.684.684,0,0,1,.7.7h0A.684.684,0,0,1,14.8,15.7Z"/>
        <path id="路径_743" data-name="路径 743" d="M8.1,15.7H6.6a.684.684,0,0,1-.7-.7h0a.684.684,0,0,1,.7-.7H8.1a.684.684,0,0,1,.7.7h0A.684.684,0,0,1,8.1,15.7Z"/>
        <path id="路径_744" data-name="路径 744" d="M21.4,15.7H19.9a.684.684,0,0,1-.7-.7h0a.684.684,0,0,1,.7-.7h1.5a.684.684,0,0,1,.7.7h0A.684.684,0,0,1,21.4,15.7Z"/>
        <path id="路径_745" data-name="路径 745" d="M28.1,15.7H26.6a.684.684,0,0,1-.7-.7h0a.684.684,0,0,1,.7-.7h1.5a.684.684,0,0,1,.7.7h0A.684.684,0,0,1,28.1,15.7Z"/>
        <path id="路径_746" data-name="路径 746" d="M34.7,15.7H33.2a.684.684,0,0,1-.7-.7h0a.684.684,0,0,1,.7-.7h1.5a.684.684,0,0,1,.7.7h0C35.5,15.4,35.1,15.7,34.7,15.7Z"/>
        <path id="路径_747" data-name="路径 747" d="M41.4,15.7H39.9a.684.684,0,0,1-.7-.7h0a.684.684,0,0,1,.7-.7h1.5a.684.684,0,0,1,.7.7h0A.684.684,0,0,1,41.4,15.7Z"/>
        <path id="路径_748" data-name="路径 748" d="M0,14.3H.7a.684.684,0,0,1,.7.7h0a.684.684,0,0,1-.7.7H0"/>
        <path id="路径_749" data-name="路径 749" d="M48,15.7h-.7a.684.684,0,0,1-.7-.7h0a.684.684,0,0,1,.7-.7H48"/>
      </g>
      <g id="组_558" data-name="组 558">
        <path id="路径_750" data-name="路径 750" d="M21,21.8H11a.8.8,0,1,1,0-1.6H21a.8.8,0,0,1,0,1.6Z"/>
        <path id="路径_751" data-name="路径 751" d="M37,21.8H27a.8.8,0,0,1,0-1.6H37a.8.8,0,1,1,0,1.6Z"/>
        <path id="路径_752" data-name="路径 752" d="M0,20.2H5a.8.8,0,1,1,0,1.6H0"/>
        <path id="路径_753" data-name="路径 753" d="M48,21.8H43a.8.8,0,0,1,0-1.6h5"/>
      </g>
      <g id="组_559" data-name="组 559">
        <path id="路径_754" data-name="路径 754" d="M14.8,27.7H13.3a.684.684,0,0,1-.7-.7h0a.684.684,0,0,1,.7-.7h1.5a.684.684,0,0,1,.7.7h0A.684.684,0,0,1,14.8,27.7Z"/>
        <path id="路径_755" data-name="路径 755" d="M8.1,27.7H6.6a.684.684,0,0,1-.7-.7h0a.684.684,0,0,1,.7-.7H8.1a.684.684,0,0,1,.7.7h0A.684.684,0,0,1,8.1,27.7Z"/>
        <path id="路径_756" data-name="路径 756" d="M21.4,27.7H19.9a.684.684,0,0,1-.7-.7h0a.684.684,0,0,1,.7-.7h1.5a.684.684,0,0,1,.7.7h0A.684.684,0,0,1,21.4,27.7Z"/>
        <path id="路径_757" data-name="路径 757" d="M28.1,27.7H26.6a.684.684,0,0,1-.7-.7h0a.684.684,0,0,1,.7-.7h1.5a.684.684,0,0,1,.7.7h0A.684.684,0,0,1,28.1,27.7Z"/>
        <path id="路径_758" data-name="路径 758" d="M34.7,27.7H33.2a.684.684,0,0,1-.7-.7h0a.684.684,0,0,1,.7-.7h1.5a.684.684,0,0,1,.7.7h0C35.5,27.4,35.1,27.7,34.7,27.7Z"/>
        <path id="路径_759" data-name="路径 759" d="M41.4,27.7H39.9a.684.684,0,0,1-.7-.7h0a.684.684,0,0,1,.7-.7h1.5a.684.684,0,0,1,.7.7h0A.684.684,0,0,1,41.4,27.7Z"/>
        <path id="路径_760" data-name="路径 760" d="M0,26.3H.7a.684.684,0,0,1,.7.7h0a.684.684,0,0,1-.7.7H0"/>
        <path id="路径_761" data-name="路径 761" d="M48,27.7h-.7a.684.684,0,0,1-.7-.7h0a.684.684,0,0,1,.7-.7H48"/>
      </g>
      <g id="组_560" data-name="组 560">
        <path id="路径_762" data-name="路径 762" d="M21,33.8H11a.8.8,0,1,1,0-1.6H21a.8.8,0,0,1,0,1.6Z"/>
        <path id="路径_763" data-name="路径 763" d="M37,33.8H27a.8.8,0,1,1,0-1.6H37a.8.8,0,0,1,0,1.6Z"/>
        <path id="路径_764" data-name="路径 764" d="M0,32.2H5a.8.8,0,1,1,0,1.6H0"/>
        <path id="路径_765" data-name="路径 765" d="M48,33.8H43a.8.8,0,0,1,0-1.6h5"/>
      </g>
      <g id="组_561" data-name="组 561">
        <path id="路径_766" data-name="路径 766" d="M14.8,39.7H13.3a.684.684,0,0,1-.7-.7h0a.684.684,0,0,1,.7-.7h1.5a.684.684,0,0,1,.7.7h0A.684.684,0,0,1,14.8,39.7Z"/>
        <path id="路径_767" data-name="路径 767" d="M8.1,39.7H6.6a.684.684,0,0,1-.7-.7h0a.684.684,0,0,1,.7-.7H8.1a.684.684,0,0,1,.7.7h0A.684.684,0,0,1,8.1,39.7Z"/>
        <path id="路径_768" data-name="路径 768" d="M21.4,39.7H19.9a.684.684,0,0,1-.7-.7h0a.684.684,0,0,1,.7-.7h1.5a.684.684,0,0,1,.7.7h0A.684.684,0,0,1,21.4,39.7Z"/>
        <path id="路径_769" data-name="路径 769" d="M28.1,39.7H26.6a.684.684,0,0,1-.7-.7h0a.684.684,0,0,1,.7-.7h1.5a.684.684,0,0,1,.7.7h0A.684.684,0,0,1,28.1,39.7Z"/>
        <path id="路径_770" data-name="路径 770" d="M34.7,39.7H33.2a.684.684,0,0,1-.7-.7h0a.684.684,0,0,1,.7-.7h1.5a.684.684,0,0,1,.7.7h0C35.5,39.4,35.1,39.7,34.7,39.7Z"/>
        <path id="路径_771" data-name="路径 771" d="M41.4,39.7H39.9a.684.684,0,0,1-.7-.7h0a.684.684,0,0,1,.7-.7h1.5a.684.684,0,0,1,.7.7h0A.684.684,0,0,1,41.4,39.7Z"/>
        <path id="路径_772" data-name="路径 772" d="M0,38.3H.7a.684.684,0,0,1,.7.7h0a.684.684,0,0,1-.7.7H0"/>
        <path id="路径_773" data-name="路径 773" d="M48,39.7h-.7a.684.684,0,0,1-.7-.7h0a.684.684,0,0,1,.7-.7H48"/>
      </g>
      <g id="组_562" data-name="组 562">
        <path id="路径_774" data-name="路径 774" d="M21,45.8H11a.8.8,0,1,1,0-1.6H21a.8.8,0,1,1,0,1.6Z"/>
        <path id="路径_775" data-name="路径 775" d="M37,45.8H27a.8.8,0,0,1,0-1.6H37a.8.8,0,0,1,0,1.6Z"/>
        <path id="路径_776" data-name="路径 776" d="M0,44.2H5a.8.8,0,1,1,0,1.6H0"/>
        <path id="路径_777" data-name="路径 777" d="M48,45.8H43a.8.8,0,0,1,0-1.6h5"/>
      </g>
    </g>
  </g>
</svg>
