<svg xmlns="http://www.w3.org/2000/svg" width="48" height="48" viewBox="0 0 48 48">
  <g id="含粘性土砂" transform="translate(-2694 -56)">
    <path id="路径_3195" data-name="路径 3195" d="M0,0H48V48H0Z" transform="translate(2694 56)" fill="none"/>
    <g id="含粘性土砂-2" data-name="含粘性土砂" transform="translate(2694 56)">
      <g id="组_678" data-name="组 678">
        <path id="路径_1241" data-name="路径 1241" d="M17,0,0,17V31.1L31,0Z" fill="none"/>
        <path id="路径_1242" data-name="路径 1242" d="M48,.9.9,48H15.5L48,15.5Z" fill="none"/>
        <path id="路径_1243" data-name="路径 1243" d="M32.4,0l.1.1L.1,32.6H0V47.3L47.3,0Z" fill="none"/>
        <path id="路径_1244" data-name="路径 1244" d="M48,17,17,48H31.2L48,31.2Z" fill="none"/>
        <path id="路径_1245" data-name="路径 1245" d="M0,0V15.4L15.4,0Z" fill="none"/>
        <path id="路径_1246" data-name="路径 1246" d="M32.7,48H48V32.7Z" fill="none"/>
        <path id="路径_1247" data-name="路径 1247" d="M48,0h-.7L0,47.3V48H.9L48,.9Z" fill="#595758"/>
        <path id="路径_1248" data-name="路径 1248" d="M48,31.2,31.2,48h1.5L48,32.7Z" fill="#595758"/>
        <path id="路径_1249" data-name="路径 1249" d="M15.4,0,0,15.4V17L17,0Z" fill="#595758"/>
        <path id="路径_1250" data-name="路径 1250" d="M32.5.1,32.4,0H31L0,31.1v1.5H.1Z" fill="#595758"/>
        <path id="路径_1251" data-name="路径 1251" d="M48,15.5,15.5,48H17L48,17Z" fill="#595758"/>
      </g>
      <g id="组_704" data-name="组 704">
        <g id="组_683" data-name="组 683">
          <g id="组_679" data-name="组 679">
            <path id="路径_1252" data-name="路径 1252" d="M6,3.6A1.58,1.58,0,0,0,4.4,5.2,1.5,1.5,0,0,0,6,6.7,1.561,1.561,0,0,0,7.6,5.2,1.645,1.645,0,0,0,6,3.6Z"/>
          </g>
          <g id="组_680" data-name="组 680">
            <path id="路径_1253" data-name="路径 1253" d="M18.3,3.6a1.6,1.6,0,1,0,1.6,1.6,1.58,1.58,0,0,0-1.6-1.6Z"/>
          </g>
          <g id="组_681" data-name="组 681">
            <path id="路径_1254" data-name="路径 1254" d="M30.2,3.6a1.6,1.6,0,1,0,1.6,1.6,1.58,1.58,0,0,0-1.6-1.6Z"/>
          </g>
          <g id="组_682" data-name="组 682">
            <path id="路径_1255" data-name="路径 1255" d="M41.8,3.6a1.6,1.6,0,1,0,1.6,1.6,1.58,1.58,0,0,0-1.6-1.6Z"/>
          </g>
        </g>
        <g id="组_688" data-name="组 688">
          <g id="组_684" data-name="组 684">
            <path id="路径_1256" data-name="路径 1256" d="M6.1,13.1a1.6,1.6,0,1,0,1.6,1.6,1.58,1.58,0,0,0-1.6-1.6Z"/>
          </g>
          <g id="组_685" data-name="组 685">
            <path id="路径_1257" data-name="路径 1257" d="M18.4,13.1A1.6,1.6,0,1,0,20,14.7a1.58,1.58,0,0,0-1.6-1.6Z"/>
          </g>
          <g id="组_686" data-name="组 686">
            <path id="路径_1258" data-name="路径 1258" d="M30.3,13.1a1.6,1.6,0,1,0,1.6,1.6,1.58,1.58,0,0,0-1.6-1.6Z"/>
          </g>
          <g id="组_687" data-name="组 687">
            <path id="路径_1259" data-name="路径 1259" d="M41.9,13.1a1.6,1.6,0,1,0,1.6,1.6,1.58,1.58,0,0,0-1.6-1.6Z"/>
          </g>
        </g>
        <g id="组_693" data-name="组 693">
          <g id="组_689" data-name="组 689">
            <path id="路径_1260" data-name="路径 1260" d="M6.1,22.6a1.6,1.6,0,1,0,1.6,1.6,1.58,1.58,0,0,0-1.6-1.6Z"/>
          </g>
          <g id="组_690" data-name="组 690">
            <path id="路径_1261" data-name="路径 1261" d="M18.4,22.6a1.6,1.6,0,0,0,0,3.2,1.6,1.6,0,1,0,0-3.2Z"/>
          </g>
          <g id="组_691" data-name="组 691">
            <path id="路径_1262" data-name="路径 1262" d="M30.3,22.6a1.6,1.6,0,1,0,1.6,1.6,1.58,1.58,0,0,0-1.6-1.6Z"/>
          </g>
          <g id="组_692" data-name="组 692">
            <path id="路径_1263" data-name="路径 1263" d="M41.9,22.6a1.6,1.6,0,1,0,1.6,1.6,1.58,1.58,0,0,0-1.6-1.6Z"/>
          </g>
        </g>
        <g id="组_698" data-name="组 698">
          <g id="组_694" data-name="组 694">
            <path id="路径_1264" data-name="路径 1264" d="M6.1,32.1a1.6,1.6,0,1,0,1.6,1.6,1.58,1.58,0,0,0-1.6-1.6Z"/>
          </g>
          <g id="组_695" data-name="组 695">
            <path id="路径_1265" data-name="路径 1265" d="M18.4,32.1A1.6,1.6,0,1,0,20,33.7a1.58,1.58,0,0,0-1.6-1.6Z"/>
          </g>
          <g id="组_696" data-name="组 696">
            <path id="路径_1266" data-name="路径 1266" d="M30.3,32.1a1.6,1.6,0,1,0,1.6,1.6,1.58,1.58,0,0,0-1.6-1.6Z"/>
          </g>
          <g id="组_697" data-name="组 697">
            <path id="路径_1267" data-name="路径 1267" d="M41.9,32.1a1.6,1.6,0,1,0,1.6,1.6,1.58,1.58,0,0,0-1.6-1.6Z"/>
          </g>
        </g>
        <g id="组_703" data-name="组 703">
          <g id="组_699" data-name="组 699">
            <path id="路径_1268" data-name="路径 1268" d="M6.1,41.6a1.6,1.6,0,1,0,1.6,1.6,1.58,1.58,0,0,0-1.6-1.6Z"/>
          </g>
          <g id="组_700" data-name="组 700">
            <path id="路径_1269" data-name="路径 1269" d="M18.4,41.6A1.6,1.6,0,1,0,20,43.2a1.58,1.58,0,0,0-1.6-1.6Z"/>
          </g>
          <g id="组_701" data-name="组 701">
            <path id="路径_1270" data-name="路径 1270" d="M30.3,41.6a1.6,1.6,0,1,0,1.6,1.6,1.58,1.58,0,0,0-1.6-1.6Z"/>
          </g>
          <g id="组_702" data-name="组 702">
            <path id="路径_1271" data-name="路径 1271" d="M41.9,41.6a1.6,1.6,0,1,0,1.6,1.6,1.58,1.58,0,0,0-1.6-1.6Z"/>
          </g>
        </g>
      </g>
    </g>
  </g>
</svg>
