<svg xmlns="http://www.w3.org/2000/svg" width="48" height="48" viewBox="0 0 48 48">
  <g id="含粉土中砂" transform="translate(-1423 -55)">
    <rect id="矩形_34" data-name="矩形 34" width="48" height="48" transform="translate(1423 55)" fill="none"/>
    <g id="含粉土中砂-2" data-name="含粉土中砂" transform="translate(1423 54.95)">
      <g id="组_515" data-name="组 515">
        <path id="路径_490" data-name="路径 490" d="M14.8,3.7H13.3a.684.684,0,0,1-.7-.7h0a.684.684,0,0,1,.7-.7h1.5a.684.684,0,0,1,.7.7h0A.684.684,0,0,1,14.8,3.7Z"/>
        <path id="路径_491" data-name="路径 491" d="M8.1,3.7H6.6A.684.684,0,0,1,5.9,3h0a.684.684,0,0,1,.7-.7H8.1a.684.684,0,0,1,.7.7h0A.684.684,0,0,1,8.1,3.7Z"/>
        <path id="路径_492" data-name="路径 492" d="M21.4,3.7H19.9a.684.684,0,0,1-.7-.7h0a.684.684,0,0,1,.7-.7h1.5a.684.684,0,0,1,.7.7h0A.684.684,0,0,1,21.4,3.7Z"/>
        <path id="路径_493" data-name="路径 493" d="M28.1,3.7H26.6a.684.684,0,0,1-.7-.7h0a.684.684,0,0,1,.7-.7h1.5a.684.684,0,0,1,.7.7h0A.684.684,0,0,1,28.1,3.7Z"/>
        <path id="路径_494" data-name="路径 494" d="M34.7,3.7H33.2a.684.684,0,0,1-.7-.7h0a.684.684,0,0,1,.7-.7h1.5a.684.684,0,0,1,.7.7h0C35.5,3.4,35.1,3.7,34.7,3.7Z"/>
        <path id="路径_495" data-name="路径 495" d="M41.4,3.7H39.9a.684.684,0,0,1-.7-.7h0a.684.684,0,0,1,.7-.7h1.5a.684.684,0,0,1,.7.7h0A.684.684,0,0,1,41.4,3.7Z"/>
        <path id="路径_496" data-name="路径 496" d="M0,2.3H.7a.751.751,0,0,1,.7.7h0a.684.684,0,0,1-.7.7H0"/>
        <path id="路径_497" data-name="路径 497" d="M48,3.7h-.7a.684.684,0,0,1-.7-.7h0a.684.684,0,0,1,.7-.7H48"/>
      </g>
      <g id="组_516" data-name="组 516">
        <path id="路径_498" data-name="路径 498" d="M21,9.8H11a.86.86,0,0,1-.8-.8.86.86,0,0,1,.8-.8H21a.86.86,0,0,1,.8.8A.86.86,0,0,1,21,9.8Z"/>
        <path id="路径_499" data-name="路径 499" d="M37,9.8H27a.86.86,0,0,1-.8-.8.86.86,0,0,1,.8-.8H37a.86.86,0,0,1,.8.8A.86.86,0,0,1,37,9.8Z"/>
        <path id="路径_500" data-name="路径 500" d="M0,8.2H5a.86.86,0,0,1,.8.8.86.86,0,0,1-.8.8H0"/>
        <path id="路径_501" data-name="路径 501" d="M48,9.8H43a.86.86,0,0,1-.8-.8.86.86,0,0,1,.8-.8h5"/>
      </g>
      <g id="组_517" data-name="组 517">
        <path id="路径_502" data-name="路径 502" d="M14.8,15.7H13.3a.684.684,0,0,1-.7-.7h0a.684.684,0,0,1,.7-.7h1.5a.684.684,0,0,1,.7.7h0A.684.684,0,0,1,14.8,15.7Z"/>
        <path id="路径_503" data-name="路径 503" d="M8.1,15.7H6.6a.684.684,0,0,1-.7-.7h0a.684.684,0,0,1,.7-.7H8.1a.684.684,0,0,1,.7.7h0A.684.684,0,0,1,8.1,15.7Z"/>
        <path id="路径_504" data-name="路径 504" d="M21.4,15.7H19.9a.684.684,0,0,1-.7-.7h0a.684.684,0,0,1,.7-.7h1.5a.684.684,0,0,1,.7.7h0A.684.684,0,0,1,21.4,15.7Z"/>
        <path id="路径_505" data-name="路径 505" d="M28.1,15.7H26.6a.684.684,0,0,1-.7-.7h0a.684.684,0,0,1,.7-.7h1.5a.684.684,0,0,1,.7.7h0A.684.684,0,0,1,28.1,15.7Z"/>
        <path id="路径_506" data-name="路径 506" d="M34.7,15.7H33.2a.684.684,0,0,1-.7-.7h0a.684.684,0,0,1,.7-.7h1.5a.684.684,0,0,1,.7.7h0C35.5,15.4,35.1,15.7,34.7,15.7Z"/>
        <path id="路径_507" data-name="路径 507" d="M41.4,15.7H39.9a.684.684,0,0,1-.7-.7h0a.684.684,0,0,1,.7-.7h1.5a.684.684,0,0,1,.7.7h0A.684.684,0,0,1,41.4,15.7Z"/>
        <path id="路径_508" data-name="路径 508" d="M0,14.3H.7a.684.684,0,0,1,.7.7h0a.684.684,0,0,1-.7.7H0"/>
        <path id="路径_509" data-name="路径 509" d="M48,15.7h-.7a.684.684,0,0,1-.7-.7h0a.684.684,0,0,1,.7-.7H48"/>
      </g>
      <g id="组_518" data-name="组 518">
        <path id="路径_510" data-name="路径 510" d="M21,21.8H11a.8.8,0,1,1,0-1.6H21a.8.8,0,0,1,0,1.6Z"/>
        <path id="路径_511" data-name="路径 511" d="M37,21.8H27a.8.8,0,0,1,0-1.6H37a.8.8,0,1,1,0,1.6Z"/>
        <path id="路径_512" data-name="路径 512" d="M0,20.2H5a.8.8,0,1,1,0,1.6H0"/>
        <path id="路径_513" data-name="路径 513" d="M48,21.8H43a.8.8,0,0,1,0-1.6h5"/>
      </g>
      <g id="组_519" data-name="组 519">
        <path id="路径_514" data-name="路径 514" d="M14.8,27.7H13.3a.684.684,0,0,1-.7-.7h0a.684.684,0,0,1,.7-.7h1.5a.684.684,0,0,1,.7.7h0A.684.684,0,0,1,14.8,27.7Z"/>
        <path id="路径_515" data-name="路径 515" d="M8.1,27.7H6.6a.684.684,0,0,1-.7-.7h0a.684.684,0,0,1,.7-.7H8.1a.684.684,0,0,1,.7.7h0A.684.684,0,0,1,8.1,27.7Z"/>
        <path id="路径_516" data-name="路径 516" d="M21.4,27.7H19.9a.684.684,0,0,1-.7-.7h0a.684.684,0,0,1,.7-.7h1.5a.684.684,0,0,1,.7.7h0A.684.684,0,0,1,21.4,27.7Z"/>
        <path id="路径_517" data-name="路径 517" d="M28.1,27.7H26.6a.684.684,0,0,1-.7-.7h0a.684.684,0,0,1,.7-.7h1.5a.684.684,0,0,1,.7.7h0A.684.684,0,0,1,28.1,27.7Z"/>
        <path id="路径_518" data-name="路径 518" d="M34.7,27.7H33.2a.684.684,0,0,1-.7-.7h0a.684.684,0,0,1,.7-.7h1.5a.684.684,0,0,1,.7.7h0C35.5,27.4,35.1,27.7,34.7,27.7Z"/>
        <path id="路径_519" data-name="路径 519" d="M41.4,27.7H39.9a.684.684,0,0,1-.7-.7h0a.684.684,0,0,1,.7-.7h1.5a.684.684,0,0,1,.7.7h0A.684.684,0,0,1,41.4,27.7Z"/>
        <path id="路径_520" data-name="路径 520" d="M0,26.3H.7a.684.684,0,0,1,.7.7h0a.684.684,0,0,1-.7.7H0"/>
        <path id="路径_521" data-name="路径 521" d="M48,27.7h-.7a.684.684,0,0,1-.7-.7h0a.684.684,0,0,1,.7-.7H48"/>
      </g>
      <g id="组_520" data-name="组 520">
        <path id="路径_522" data-name="路径 522" d="M21,33.8H11a.8.8,0,1,1,0-1.6H21a.8.8,0,0,1,0,1.6Z"/>
        <path id="路径_523" data-name="路径 523" d="M37,33.8H27a.8.8,0,1,1,0-1.6H37a.8.8,0,0,1,0,1.6Z"/>
        <path id="路径_524" data-name="路径 524" d="M0,32.2H5a.8.8,0,1,1,0,1.6H0"/>
        <path id="路径_525" data-name="路径 525" d="M48,33.8H43a.8.8,0,0,1,0-1.6h5"/>
      </g>
      <g id="组_521" data-name="组 521">
        <path id="路径_526" data-name="路径 526" d="M14.8,39.7H13.3a.684.684,0,0,1-.7-.7h0a.684.684,0,0,1,.7-.7h1.5a.684.684,0,0,1,.7.7h0A.684.684,0,0,1,14.8,39.7Z"/>
        <path id="路径_527" data-name="路径 527" d="M8.1,39.7H6.6a.684.684,0,0,1-.7-.7h0a.684.684,0,0,1,.7-.7H8.1a.684.684,0,0,1,.7.7h0A.684.684,0,0,1,8.1,39.7Z"/>
        <path id="路径_528" data-name="路径 528" d="M21.4,39.7H19.9a.684.684,0,0,1-.7-.7h0a.684.684,0,0,1,.7-.7h1.5a.684.684,0,0,1,.7.7h0A.684.684,0,0,1,21.4,39.7Z"/>
        <path id="路径_529" data-name="路径 529" d="M28.1,39.7H26.6a.684.684,0,0,1-.7-.7h0a.684.684,0,0,1,.7-.7h1.5a.684.684,0,0,1,.7.7h0A.684.684,0,0,1,28.1,39.7Z"/>
        <path id="路径_530" data-name="路径 530" d="M34.7,39.7H33.2a.684.684,0,0,1-.7-.7h0a.684.684,0,0,1,.7-.7h1.5a.684.684,0,0,1,.7.7h0C35.5,39.4,35.1,39.7,34.7,39.7Z"/>
        <path id="路径_531" data-name="路径 531" d="M41.4,39.7H39.9a.684.684,0,0,1-.7-.7h0a.684.684,0,0,1,.7-.7h1.5a.684.684,0,0,1,.7.7h0A.684.684,0,0,1,41.4,39.7Z"/>
        <path id="路径_532" data-name="路径 532" d="M0,38.3H.7a.684.684,0,0,1,.7.7h0a.684.684,0,0,1-.7.7H0"/>
        <path id="路径_533" data-name="路径 533" d="M48,39.7h-.7a.684.684,0,0,1-.7-.7h0a.684.684,0,0,1,.7-.7H48"/>
      </g>
      <g id="组_522" data-name="组 522">
        <path id="路径_534" data-name="路径 534" d="M21,45.8H11a.8.8,0,1,1,0-1.6H21a.8.8,0,1,1,0,1.6Z"/>
        <path id="路径_535" data-name="路径 535" d="M37,45.8H27a.8.8,0,0,1,0-1.6H37a.8.8,0,0,1,0,1.6Z"/>
        <path id="路径_536" data-name="路径 536" d="M0,44.2H5a.8.8,0,1,1,0,1.6H0"/>
        <path id="路径_537" data-name="路径 537" d="M48,45.8H43a.8.8,0,0,1,0-1.6h5"/>
      </g>
    </g>
  </g>
</svg>
