<?xml version="1.0" encoding="utf-8"?>
<!-- Generator: Adobe Illustrator 21.0.0, SVG Export Plug-In . SVG Version: 6.00 Build 0)  -->
<svg version="1.1" id="图层_1" xmlns="http://www.w3.org/2000/svg" xmlns:xlink="http://www.w3.org/1999/xlink" x="0px" y="0px"
	 width="48px" height="48px" viewBox="0 0 48 48" style="enable-background:new 0 0 48 48;" xml:space="preserve">
<style type="text/css">
	.st0{fill:none;stroke:#595758;stroke-miterlimit:10;}
	.st1{fill:none;stroke:#595758;stroke-miterlimit:10;stroke-dasharray:10.8257,10.8257;}
	.st2{fill:none;stroke:#595758;stroke-miterlimit:10;stroke-dasharray:10.8021,10.8021;}
	.st3{fill:none;stroke:#000000;stroke-miterlimit:10;}
</style>
<line class="st0" x1="0" y1="48.1" x2="47.8" y2="0.3"/>
<line class="st0" x1="32.2" y1="48.1" x2="48" y2="32.3"/>
<line class="st0" x1="0" y1="16.2" x2="16" y2="0.2"/>
<g>
	<g>
		<line class="st0" x1="0.1" y1="31.8" x2="4.3" y2="27.6"/>
		<line class="st1" x1="12" y1="19.9" x2="23.4" y2="8.4"/>
		<line class="st0" x1="27.3" y1="4.5" x2="31.5" y2="0.3"/>
	</g>
</g>
<g>
	<g>
		<line class="st0" x1="16.5" y1="48.1" x2="20.7" y2="43.9"/>
		<line class="st2" x1="28.4" y1="36.2" x2="39.8" y2="24.8"/>
		<line class="st0" x1="43.7" y1="20.9" x2="47.9" y2="16.7"/>
	</g>
</g>
<g>
	<polygon class="st3" points="10,16.1 8.1,19.4 11.9,19.4 	"/>
	<polygon class="st3" points="25.8,16.1 23.9,19.4 27.7,19.4 	"/>
	<polygon class="st3" points="42.3,16.1 40.4,19.4 44.2,19.4 	"/>
</g>
<g>
	<polygon class="st3" points="6,4.5 4.1,7.8 7.9,7.8 	"/>
	<polygon class="st3" points="22,4.5 20.1,7.8 23.9,7.8 	"/>
	<polygon class="st3" points="36.5,4.5 34.6,7.8 38.4,7.8 	"/>
</g>
<g>
	<polygon class="st3" points="6.7,27.6 4.8,31 8.7,31 	"/>
	<polygon class="st3" points="22.7,27.6 20.8,31 24.7,31 	"/>
	<polygon class="st3" points="37.3,27.6 35.3,31 39.2,31 	"/>
</g>
<g>
	<polygon class="st3" points="10.3,39.2 8.4,42.5 12.2,42.5 	"/>
	<polygon class="st3" points="26.1,39.2 24.2,42.5 28,42.5 	"/>
	<polygon class="st3" points="42.5,39.2 40.6,42.5 44.4,42.5 	"/>
</g>
</svg>
