<?xml version='1.0' encoding='utf-8'?>
<!DOCTYPE svg PUBLIC '-//W3C//DTD SVG 1.1//EN' 'http://www.w3.org/Graphics/SVG/1.1/DTD/svg11.dtd'>
<!-- Generator: Adobe Illustrator 16.0.0, SVG Export Plug-In . SVG Version: 6.00 Build 0)  -->
<svg version="1.1" xml:space="preserve" xmlns="http://www.w3.org/2000/svg" x="0px" width="48px" viewBox="0 0 48 48" enable-background="new 0 0 48 48" y="0px" xmlns:xlink="http://www.w3.org/1999/xlink" height="48px">
    <g id="含燧石结核灰岩">
        <line y1="9.411" fill="none" stroke-miterlimit="10" x2="48" y2="9.411" stroke="#000000" x1="0"/>
        <line y1="21.744" fill="none" stroke-miterlimit="10" x2="48" y2="21.744" stroke="#000000" x1="0"/>
        <line y1="34.077" fill="none" stroke-miterlimit="10" x2="48" y2="34.077" stroke="#000000" x1="0"/>
        <line y1="45.41" fill="none" stroke-miterlimit="10" x2="48" y2="45.41" stroke="#000000" x1="0"/>
        <line y1="0" fill="none" stroke-miterlimit="10" x2="8.417" y2="4.827" stroke="#000000" x1="8.417"/>
        <line y1="4.827" fill="none" stroke-miterlimit="10" x2="5.417" y2="9.411" stroke="#000000" x1="8.417"/>
        <line y1="4.827" fill="none" stroke-miterlimit="10" x2="11.167" y2="9.411" stroke="#000000" x1="8.417"/>
        <line y1="0" fill="none" stroke-miterlimit="10" x2="35.334" y2="4.827" stroke="#000000" x1="35.334"/>
        <line y1="4.827" fill="none" stroke-miterlimit="10" x2="32.334" y2="9.41" stroke="#000000" x1="35.334"/>
        <line y1="4.827" fill="none" stroke-miterlimit="10" x2="38.084" y2="9.41" stroke="#000000" x1="35.334"/>
        <line y1="22.494" fill="none" stroke-miterlimit="10" x2="8.542" y2="27.826" stroke="#000000" x1="8.542"/>
        <line y1="27.826" fill="none" stroke-miterlimit="10" x2="4.75" y2="33.66" stroke="#000000" x1="8.542"/>
        <line y1="27.826" fill="none" stroke-miterlimit="10" x2="11.833" y2="33.305" stroke="#000000" x1="8.542"/>
        <line y1="22.494" fill="none" stroke-miterlimit="10" x2="36" y2="27.948" stroke="#000000" x1="36"/>
        <line y1="27.948" fill="none" stroke-miterlimit="10" x2="32.229" y2="33.305" stroke="#000000" x1="36"/>
        <line y1="27.948" fill="none" stroke-miterlimit="10" x2="39.417" y2="33.66" stroke="#000000" x1="36"/>
        <line y1="9.911" fill="none" stroke-miterlimit="10" x2="22.5" y2="15.911" stroke="#000000" x1="22.5"/>
        <line y1="15.911" fill="none" stroke-miterlimit="10" x2="19" y2="21.244" stroke="#000000" x1="22.5"/>
        <line y1="15.911" fill="none" stroke-miterlimit="10" x2="25.834" y2="21.244" stroke="#000000" x1="22.5"/>
        <line y1="34.66" fill="none" stroke-miterlimit="10" x2="23.167" y2="39.994" stroke="#000000" x1="23.167"/>
        <line y1="39.994" fill="none" stroke-miterlimit="10" x2="19.5" y2="45.327" stroke="#000000" x1="23.167"/>
        <line y1="39.994" fill="none" stroke-miterlimit="10" x2="26.417" y2="45.327" stroke="#000000" x1="23.167"/>
    </g>
</svg>
