<svg xmlns="http://www.w3.org/2000/svg" width="48.707" height="48.707" viewBox="0 0 48.707 48.707">
  <g id="含砾粘性土" transform="translate(-1255.646 -54.646)">
    <rect id="矩形_31" data-name="矩形 31" width="48" height="48" transform="translate(1256 55)" fill="none"/>
    <g id="含砾粘性土-2" data-name="含砾粘性土" transform="translate(1256 55)">
      <g id="组_403" data-name="组 403">
        <g id="组_394" data-name="组 394">
          <g id="组_393" data-name="组 393">
            <path id="直线_69" data-name="直线 69" d="M.354,4.554l-.707-.707,4.2-4.2.707.707Z" transform="translate(0 43.8)" fill="#595758"/>
            <path id="直线_70" data-name="直线 70" d="M.354,27.854l-.707-.707,7.863-7.863.707.707ZM16.079,12.128l-.707-.707,7.863-7.863.707.707Z" transform="translate(12.1 8.3)" fill="#595758"/>
            <path id="直线_71" data-name="直线 71" d="M.354,4.554l-.707-.707,4.2-4.2.707.707Z" transform="translate(43.6 0.1)" fill="#595758"/>
          </g>
        </g>
        <g id="组_396" data-name="组 396">
          <g id="组_395" data-name="组 395">
            <path id="直线_72" data-name="直线 72" d="M.354,4.554l-.707-.707,4.2-4.2.707.707Z" transform="translate(32.2 43.8)" fill="#595758"/>
            <path id="直线_73" data-name="直线 73" d="M.354,4.554l-.707-.707,4.2-4.2.707.707Z" transform="translate(43.8 32.1)" fill="#595758"/>
          </g>
        </g>
        <g id="组_398" data-name="组 398">
          <g id="组_397" data-name="组 397">
            <path id="直线_74" data-name="直线 74" d="M.354,4.554l-.707-.707,4.2-4.2.707.707Z" transform="translate(0 11.8)" fill="#595758"/>
            <path id="直线_75" data-name="直线 75" d="M.354,4.554l-.707-.707,4.2-4.2.707.707Z" transform="translate(11.8)" fill="#595758"/>
          </g>
        </g>
        <g id="组_400" data-name="组 400">
          <g id="组_399" data-name="组 399">
            <path id="直线_76" data-name="直线 76" d="M.354,4.554l-.707-.707,4.2-4.2.707.707Z" transform="translate(0.1 27.4)" fill="#595758"/>
            <path id="直线_77" data-name="直线 77" d="M.357,11.95l-.713-.7L7.231,3.528l.713.7Z" transform="translate(12 8.2)" fill="#595758"/>
            <path id="直线_78" data-name="直线 78" d="M.354,4.554l-.707-.707,4.2-4.2.707.707Z" transform="translate(27.3 0.1)" fill="#595758"/>
          </g>
        </g>
        <g id="组_402" data-name="组 402">
          <g id="组_401" data-name="组 401">
            <path id="直线_79" data-name="直线 79" d="M.354,4.554l-.707-.707,4.2-4.2.707.707Z" transform="translate(16.5 43.8)" fill="#595758"/>
            <path id="直线_80" data-name="直线 80" d="M.354,11.754l-.707-.707L7.285,3.408l.707.707Z" transform="translate(28.4 24.6)" fill="#595758"/>
            <path id="直线_81" data-name="直线 81" d="M.358,4.649l-.715-.7,4.2-4.3.715.7Z" transform="translate(43.7 16.5)" fill="#595758"/>
          </g>
        </g>
      </g>
      <g id="组_429" data-name="组 429">
        <g id="组_408" data-name="组 408">
          <g id="组_404" data-name="组 404">
            <path id="路径_420" data-name="路径 420" d="M6.1,2.9A2.133,2.133,0,0,1,8.1,5,2.054,2.054,0,0,1,6,7,2.007,2.007,0,0,1,3.9,5,2.1,2.1,0,0,1,6.1,2.9ZM6,6A1.068,1.068,0,0,0,7.1,5a1.141,1.141,0,0,0-1-1.1A1.1,1.1,0,0,0,4.9,5,1,1,0,0,0,6,6Z"/>
          </g>
          <g id="组_405" data-name="组 405">
            <path id="路径_421" data-name="路径 421" d="M18.3,2.9a2.065,2.065,0,0,1,1.536.617A2.124,2.124,0,0,1,20.4,5a2.1,2.1,0,1,1-2.1-2.1Zm0,3.2A1.076,1.076,0,0,0,19.4,5a1.023,1.023,0,0,0-1.1-1.1,1.1,1.1,0,1,0,0,2.2Z"/>
          </g>
          <g id="组_406" data-name="组 406">
            <path id="路径_422" data-name="路径 422" d="M30.3,2.9A2.155,2.155,0,0,1,32.4,5a2.1,2.1,0,1,1-2.1-2.1Zm0,3.2A1.076,1.076,0,0,0,31.4,5a1.144,1.144,0,0,0-1.1-1.1,1.1,1.1,0,1,0,0,2.2Z"/>
          </g>
          <g id="组_407" data-name="组 407">
            <path id="路径_423" data-name="路径 423" d="M41.8,2.9a2.065,2.065,0,0,1,1.536.617A2.124,2.124,0,0,1,43.9,5a2.1,2.1,0,1,1-2.1-2.1Zm0,3.2A1.076,1.076,0,0,0,42.9,5a1.023,1.023,0,0,0-1.1-1.1,1.1,1.1,0,0,0,0,2.2Z"/>
          </g>
        </g>
        <g id="组_413" data-name="组 413">
          <g id="组_409" data-name="组 409">
            <path id="路径_424" data-name="路径 424" d="M6.1,12.4a2.065,2.065,0,0,1,1.536.617A2.124,2.124,0,0,1,8.2,14.5a2.1,2.1,0,1,1-2.1-2.1Zm0,3.2a1.076,1.076,0,0,0,1.1-1.1,1.023,1.023,0,0,0-1.1-1.1,1.1,1.1,0,0,0,0,2.2Z"/>
          </g>
          <g id="组_410" data-name="组 410">
            <path id="路径_425" data-name="路径 425" d="M18.4,12.4a2.1,2.1,0,1,1-2.1,2.1A2.078,2.078,0,0,1,18.4,12.4Zm0,3.2a1.1,1.1,0,1,0-1.1-1.1A1.076,1.076,0,0,0,18.4,15.6Z"/>
          </g>
          <g id="组_411" data-name="组 411">
            <path id="路径_426" data-name="路径 426" d="M30.3,12.4a2.065,2.065,0,0,1,1.536.617A2.124,2.124,0,0,1,32.4,14.5a2.1,2.1,0,1,1-2.1-2.1Zm0,3.2a1.076,1.076,0,0,0,1.1-1.1,1.023,1.023,0,0,0-1.1-1.1,1.1,1.1,0,1,0,0,2.2Z"/>
          </g>
          <g id="组_412" data-name="组 412">
            <path id="路径_427" data-name="路径 427" d="M42,12.4a2.155,2.155,0,0,1,2.1,2.1A2.1,2.1,0,1,1,42,12.4Zm0,3.2a1.076,1.076,0,0,0,1.1-1.1A1.144,1.144,0,0,0,42,13.4a1.1,1.1,0,0,0,0,2.2Z"/>
          </g>
        </g>
        <g id="组_418" data-name="组 418">
          <g id="组_414" data-name="组 414">
            <path id="路径_428" data-name="路径 428" d="M6.1,21.9a2.065,2.065,0,0,1,1.536.617A2.124,2.124,0,0,1,8.2,24a2.1,2.1,0,1,1-2.1-2.1Zm0,3.2A1.076,1.076,0,0,0,7.2,24a1.023,1.023,0,0,0-1.1-1.1,1.1,1.1,0,0,0,0,2.2Z"/>
          </g>
          <g id="组_415" data-name="组 415">
            <path id="路径_429" data-name="路径 429" d="M18.4,21.9a2.1,2.1,0,1,1,0,4.2,2.1,2.1,0,0,1,0-4.2Zm0,3.2a1.1,1.1,0,1,0,0-2.2,1.1,1.1,0,1,0,0,2.2Z"/>
          </g>
          <g id="组_416" data-name="组 416">
            <path id="路径_430" data-name="路径 430" d="M30.3,21.9a2.065,2.065,0,0,1,1.536.617A2.124,2.124,0,0,1,32.4,24a2.1,2.1,0,1,1-2.1-2.1Zm0,3.2A1.076,1.076,0,0,0,31.4,24a1.023,1.023,0,0,0-1.1-1.1,1.1,1.1,0,1,0,0,2.2Z"/>
          </g>
          <g id="组_417" data-name="组 417">
            <path id="路径_431" data-name="路径 431" d="M42,21.9A2.155,2.155,0,0,1,44.1,24,2.1,2.1,0,1,1,42,21.9Zm0,3.2A1.076,1.076,0,0,0,43.1,24,1.144,1.144,0,0,0,42,22.9a1.1,1.1,0,0,0,0,2.2Z"/>
          </g>
        </g>
        <g id="组_423" data-name="组 423">
          <g id="组_419" data-name="组 419">
            <path id="路径_432" data-name="路径 432" d="M6.1,31.3a2.065,2.065,0,0,1,1.536.617A2.124,2.124,0,0,1,8.2,33.4a2.078,2.078,0,0,1-2.1,2.1A2.155,2.155,0,0,1,4,33.4,2.078,2.078,0,0,1,6.1,31.3Zm0,3.2a1.076,1.076,0,0,0,1.1-1.1,1.023,1.023,0,0,0-1.1-1.1A1.076,1.076,0,0,0,5,33.4,1.144,1.144,0,0,0,6.1,34.5Z"/>
          </g>
          <g id="组_420" data-name="组 420">
            <path id="路径_433" data-name="路径 433" d="M18.4,31.3a2.1,2.1,0,1,1-2.1,2.1A2.078,2.078,0,0,1,18.4,31.3Zm0,3.2a1.1,1.1,0,1,0-1.1-1.1A1.076,1.076,0,0,0,18.4,34.5Z"/>
          </g>
          <g id="组_421" data-name="组 421">
            <path id="路径_434" data-name="路径 434" d="M30.3,31.3a2.065,2.065,0,0,1,1.536.617A2.124,2.124,0,0,1,32.4,33.4a2.1,2.1,0,1,1-2.1-2.1Zm0,3.2a1.076,1.076,0,0,0,1.1-1.1,1.023,1.023,0,0,0-1.1-1.1,1.1,1.1,0,1,0,0,2.2Z"/>
          </g>
          <g id="组_422" data-name="组 422">
            <path id="路径_435" data-name="路径 435" d="M42,31.3a2.155,2.155,0,0,1,2.1,2.1A2.1,2.1,0,1,1,42,31.3Zm0,3.2a1.076,1.076,0,0,0,1.1-1.1A1.144,1.144,0,0,0,42,32.3a1.1,1.1,0,1,0,0,2.2Z"/>
          </g>
        </g>
        <g id="组_428" data-name="组 428">
          <g id="组_424" data-name="组 424">
            <path id="路径_436" data-name="路径 436" d="M6.1,40.9a2.065,2.065,0,0,1,1.536.617A2.124,2.124,0,0,1,8.2,43a2.1,2.1,0,1,1-2.1-2.1Zm0,3.2A1.076,1.076,0,0,0,7.2,43a1.023,1.023,0,0,0-1.1-1.1,1.1,1.1,0,1,0,0,2.2Z"/>
          </g>
          <g id="组_425" data-name="组 425">
            <path id="路径_437" data-name="路径 437" d="M18.4,40.9a2.007,2.007,0,0,1,2.1,2,2.154,2.154,0,0,1-2.1,2.2,2.1,2.1,0,1,1,0-4.2Zm0,3.2a1.169,1.169,0,0,0,1.1-1.2,1,1,0,0,0-1.1-1,1.1,1.1,0,1,0,0,2.2Z"/>
          </g>
          <g id="组_426" data-name="组 426">
            <path id="路径_438" data-name="路径 438" d="M30.3,40.9a2.065,2.065,0,0,1,1.536.617A2.124,2.124,0,0,1,32.4,43a2.1,2.1,0,1,1-2.1-2.1Zm0,3.2A1.076,1.076,0,0,0,31.4,43a1.023,1.023,0,0,0-1.1-1.1,1.1,1.1,0,1,0,0,2.2Z"/>
          </g>
          <g id="组_427" data-name="组 427">
            <path id="路径_439" data-name="路径 439" d="M42,40.9A2.155,2.155,0,0,1,44.1,43,2.1,2.1,0,1,1,42,40.9Zm0,3.2A1.076,1.076,0,0,0,43.1,43,1.144,1.144,0,0,0,42,41.9a1.1,1.1,0,0,0,0,2.2Z"/>
          </g>
        </g>
      </g>
    </g>
  </g>
</svg>
