<svg xmlns="http://www.w3.org/2000/svg" width="48" height="48.4" viewBox="0 0 48 48.4">
  <g id="含粉质粘土粗砾砂" transform="translate(-2054 -55.6)">
    <path id="路径_3184" data-name="路径 3184" d="M0,0H48V48H0Z" transform="translate(2054 56)" fill="none"/>
    <g id="含粉质粘土粗砾砂-2" data-name="含粉质粘土粗砾砂" transform="translate(2054 55.6)">
      <path id="直线_94" data-name="直线 94" d="M48,.4H0V-.4H48Z" transform="translate(0 0.4)"/>
      <path id="直线_95" data-name="直线 95" d="M48,.4H0V-.4H48Z" transform="translate(0 47.6)"/>
      <g id="组_589" data-name="组 589">
        <path id="路径_952" data-name="路径 952" d="M21,6.4H11a.86.86,0,0,1-.8-.8.86.86,0,0,1,.8-.8H21a.86.86,0,0,1,.8.8A.86.86,0,0,1,21,6.4Z"/>
        <path id="路径_953" data-name="路径 953" d="M37,6.4H27a.86.86,0,0,1-.8-.8.86.86,0,0,1,.8-.8H37a.86.86,0,0,1,.8.8A.86.86,0,0,1,37,6.4Z"/>
        <path id="路径_954" data-name="路径 954" d="M0,4.8H5a.86.86,0,0,1,.8.8.86.86,0,0,1-.8.8H0"/>
        <path id="路径_955" data-name="路径 955" d="M48,6.4H43a.86.86,0,0,1-.8-.8.86.86,0,0,1,.8-.8h5"/>
      </g>
      <g id="组_590" data-name="组 590">
        <path id="路径_956" data-name="路径 956" d="M14.8,11.6H13.3a.684.684,0,0,1-.7-.7h0a.684.684,0,0,1,.7-.7h1.5a.684.684,0,0,1,.7.7h0A.684.684,0,0,1,14.8,11.6Z"/>
        <path id="路径_957" data-name="路径 957" d="M8.1,11.6H6.6a.684.684,0,0,1-.7-.7h0a.684.684,0,0,1,.7-.7H8.1a.684.684,0,0,1,.7.7h0A.684.684,0,0,1,8.1,11.6Z"/>
        <path id="路径_958" data-name="路径 958" d="M21.4,11.6H19.9a.684.684,0,0,1-.7-.7h0a.684.684,0,0,1,.7-.7h1.5a.684.684,0,0,1,.7.7h0A.684.684,0,0,1,21.4,11.6Z"/>
        <path id="路径_959" data-name="路径 959" d="M28.1,11.6H26.6a.684.684,0,0,1-.7-.7h0a.684.684,0,0,1,.7-.7h1.5a.684.684,0,0,1,.7.7h0A.684.684,0,0,1,28.1,11.6Z"/>
        <path id="路径_960" data-name="路径 960" d="M34.7,11.6H33.2a.684.684,0,0,1-.7-.7h0a.684.684,0,0,1,.7-.7h1.5a.684.684,0,0,1,.7.7h0C35.5,11.3,35.1,11.6,34.7,11.6Z"/>
        <path id="路径_961" data-name="路径 961" d="M41.4,11.6H39.9a.684.684,0,0,1-.7-.7h0a.684.684,0,0,1,.7-.7h1.5a.684.684,0,0,1,.7.7h0A.684.684,0,0,1,41.4,11.6Z"/>
        <path id="路径_962" data-name="路径 962" d="M0,10.2H.7a.684.684,0,0,1,.7.7h0a.684.684,0,0,1-.7.7H0"/>
        <path id="路径_963" data-name="路径 963" d="M48,11.6h-.7a.684.684,0,0,1-.7-.7h0a.684.684,0,0,1,.7-.7H48"/>
      </g>
      <path id="直线_96" data-name="直线 96" d="M48,.8H0V-.8H48Z" transform="translate(0 16.1)"/>
      <g id="组_591" data-name="组 591">
        <path id="路径_964" data-name="路径 964" d="M21,22.2H11a.8.8,0,1,1,0-1.6H21a.8.8,0,1,1,0,1.6Z"/>
        <path id="路径_965" data-name="路径 965" d="M37,22.2H27a.8.8,0,1,1,0-1.6H37a.8.8,0,1,1,0,1.6Z"/>
        <path id="路径_966" data-name="路径 966" d="M0,20.6H5a.8.8,0,1,1,0,1.6H0"/>
        <path id="路径_967" data-name="路径 967" d="M48,22.2H43a.8.8,0,0,1,0-1.6h5"/>
      </g>
      <g id="组_592" data-name="组 592">
        <path id="路径_968" data-name="路径 968" d="M14.8,27.3H13.3a.684.684,0,0,1-.7-.7h0a.684.684,0,0,1,.7-.7h1.5a.684.684,0,0,1,.7.7h0A.684.684,0,0,1,14.8,27.3Z"/>
        <path id="路径_969" data-name="路径 969" d="M8.1,27.3H6.6a.684.684,0,0,1-.7-.7h0a.684.684,0,0,1,.7-.7H8.1a.684.684,0,0,1,.7.7h0A.684.684,0,0,1,8.1,27.3Z"/>
        <path id="路径_970" data-name="路径 970" d="M21.4,27.3H19.9a.684.684,0,0,1-.7-.7h0a.684.684,0,0,1,.7-.7h1.5a.684.684,0,0,1,.7.7h0A.684.684,0,0,1,21.4,27.3Z"/>
        <path id="路径_971" data-name="路径 971" d="M28.1,27.3H26.6a.684.684,0,0,1-.7-.7h0a.684.684,0,0,1,.7-.7h1.5a.684.684,0,0,1,.7.7h0A.684.684,0,0,1,28.1,27.3Z"/>
        <path id="路径_972" data-name="路径 972" d="M34.7,27.3H33.2a.684.684,0,0,1-.7-.7h0a.684.684,0,0,1,.7-.7h1.5a.684.684,0,0,1,.7.7h0C35.5,27,35.1,27.3,34.7,27.3Z"/>
        <path id="路径_973" data-name="路径 973" d="M41.4,27.3H39.9a.684.684,0,0,1-.7-.7h0a.684.684,0,0,1,.7-.7h1.5a.684.684,0,0,1,.7.7h0A.684.684,0,0,1,41.4,27.3Z"/>
        <path id="路径_974" data-name="路径 974" d="M0,25.9H.7a.684.684,0,0,1,.7.7h0a.684.684,0,0,1-.7.7H0"/>
        <path id="路径_975" data-name="路径 975" d="M48,27.3h-.7a.684.684,0,0,1-.7-.7h0a.684.684,0,0,1,.7-.7H48"/>
      </g>
      <path id="直线_97" data-name="直线 97" d="M48,.8H0V-.8H48Z" transform="translate(0 31.9)"/>
      <g id="组_593" data-name="组 593">
        <path id="路径_976" data-name="路径 976" d="M21,37.9H11a.8.8,0,1,1,0-1.6H21a.8.8,0,0,1,0,1.6Z"/>
        <path id="路径_977" data-name="路径 977" d="M37,37.9H27a.8.8,0,0,1,0-1.6H37a.8.8,0,0,1,0,1.6Z"/>
        <path id="路径_978" data-name="路径 978" d="M0,36.3H5a.8.8,0,0,1,0,1.6H0"/>
        <path id="路径_979" data-name="路径 979" d="M48,37.9H43a.8.8,0,0,1,0-1.6h5"/>
      </g>
      <g id="组_594" data-name="组 594">
        <path id="路径_980" data-name="路径 980" d="M14.8,43.1H13.3a.684.684,0,0,1-.7-.7h0a.684.684,0,0,1,.7-.7h1.5a.684.684,0,0,1,.7.7h0A.684.684,0,0,1,14.8,43.1Z"/>
        <path id="路径_981" data-name="路径 981" d="M8.1,43.1H6.6a.684.684,0,0,1-.7-.7h0a.684.684,0,0,1,.7-.7H8.1a.684.684,0,0,1,.7.7h0A.684.684,0,0,1,8.1,43.1Z"/>
        <path id="路径_982" data-name="路径 982" d="M21.4,43.1H19.9a.684.684,0,0,1-.7-.7h0a.684.684,0,0,1,.7-.7h1.5a.684.684,0,0,1,.7.7h0A.684.684,0,0,1,21.4,43.1Z"/>
        <path id="路径_983" data-name="路径 983" d="M28.1,43.1H26.6a.684.684,0,0,1-.7-.7h0a.684.684,0,0,1,.7-.7h1.5a.684.684,0,0,1,.7.7h0A.684.684,0,0,1,28.1,43.1Z"/>
        <path id="路径_984" data-name="路径 984" d="M34.7,43.1H33.2a.684.684,0,0,1-.7-.7h0a.684.684,0,0,1,.7-.7h1.5a.684.684,0,0,1,.7.7h0C35.5,42.8,35.1,43.1,34.7,43.1Z"/>
        <path id="路径_985" data-name="路径 985" d="M41.4,43.1H39.9a.684.684,0,0,1-.7-.7h0a.684.684,0,0,1,.7-.7h1.5a.684.684,0,0,1,.7.7h0A.684.684,0,0,1,41.4,43.1Z"/>
        <path id="路径_986" data-name="路径 986" d="M0,41.7H.7a.684.684,0,0,1,.7.7h0a.684.684,0,0,1-.7.7H0"/>
        <path id="路径_987" data-name="路径 987" d="M48,43.1h-.7a.684.684,0,0,1-.7-.7h0a.684.684,0,0,1,.7-.7H48"/>
      </g>
    </g>
  </g>
</svg>
