<svg xmlns="http://www.w3.org/2000/svg" width="48" height="48.25" viewBox="0 0 48 48.25">
  <g id="含粘土中砂" transform="translate(-2170 -55.75)">
    <path id="路径_3186" data-name="路径 3186" d="M0,0H48V48H0Z" transform="translate(2170 56)" fill="none"/>
    <g id="含粘土中砂-2" data-name="含粘土中砂" transform="translate(2170 55.7)">
      <path id="直线_102" data-name="直线 102" d="M48,.5H0v-1H48Z" transform="translate(0 12.1)"/>
      <path id="直线_103" data-name="直线 103" d="M48,.25H0v-.5H48Z" transform="translate(0 0.3)"/>
      <path id="直线_104" data-name="直线 104" d="M48,.25H0v-.5H48Z" transform="translate(0 47.8)"/>
      <path id="直线_105" data-name="直线 105" d="M48,.5H0v-1H48Z" transform="translate(0 24)"/>
      <path id="直线_106" data-name="直线 106" d="M48,.5H0v-1H48Z" transform="translate(0 35.9)"/>
      <g id="组_601" data-name="组 601">
        <path id="路径_1024" data-name="路径 1024" d="M9,43.2H8.2a1.367,1.367,0,0,1-1.4-1.4h0a1.367,1.367,0,0,1,1.4-1.4H9a1.367,1.367,0,0,1,1.4,1.4h0A1.43,1.43,0,0,1,9,43.2Z"/>
        <path id="路径_1025" data-name="路径 1025" d="M16.7,43.2h-.8a1.367,1.367,0,0,1-1.4-1.4h0a1.367,1.367,0,0,1,1.4-1.4h.8a1.367,1.367,0,0,1,1.4,1.4h0A1.43,1.43,0,0,1,16.7,43.2Z"/>
        <path id="路径_1026" data-name="路径 1026" d="M24.4,43.2h-.8a1.367,1.367,0,0,1-1.4-1.4h0a1.367,1.367,0,0,1,1.4-1.4h.8a1.367,1.367,0,0,1,1.4,1.4h0A1.367,1.367,0,0,1,24.4,43.2Z"/>
        <path id="路径_1027" data-name="路径 1027" d="M32.1,43.2h-.8a1.367,1.367,0,0,1-1.4-1.4h0a1.367,1.367,0,0,1,1.4-1.4h.8a1.367,1.367,0,0,1,1.4,1.4h0A1.367,1.367,0,0,1,32.1,43.2Z"/>
        <path id="路径_1028" data-name="路径 1028" d="M39.8,43.2H39a1.367,1.367,0,0,1-1.4-1.4h0A1.367,1.367,0,0,1,39,40.4h.8a1.367,1.367,0,0,1,1.4,1.4h0A1.367,1.367,0,0,1,39.8,43.2Z"/>
        <path id="路径_1029" data-name="路径 1029" d="M48,43.2h-.4a1.367,1.367,0,0,1-1.4-1.4h0a1.367,1.367,0,0,1,1.4-1.4H48"/>
        <path id="路径_1030" data-name="路径 1030" d="M0,40.4H.4a1.367,1.367,0,0,1,1.4,1.4h0A1.367,1.367,0,0,1,.4,43.2H0"/>
      </g>
      <g id="组_602" data-name="组 602">
        <path id="路径_1031" data-name="路径 1031" d="M9,31.3H8.2a1.367,1.367,0,0,1-1.4-1.4h0a1.367,1.367,0,0,1,1.4-1.4H9a1.367,1.367,0,0,1,1.4,1.4h0A1.43,1.43,0,0,1,9,31.3Z"/>
        <path id="路径_1032" data-name="路径 1032" d="M16.7,31.3h-.8a1.367,1.367,0,0,1-1.4-1.4h0a1.367,1.367,0,0,1,1.4-1.4h.8a1.367,1.367,0,0,1,1.4,1.4h0A1.43,1.43,0,0,1,16.7,31.3Z"/>
        <path id="路径_1033" data-name="路径 1033" d="M24.4,31.3h-.8a1.367,1.367,0,0,1-1.4-1.4h0a1.367,1.367,0,0,1,1.4-1.4h.8a1.367,1.367,0,0,1,1.4,1.4h0A1.367,1.367,0,0,1,24.4,31.3Z"/>
        <path id="路径_1034" data-name="路径 1034" d="M32.1,31.3h-.8a1.367,1.367,0,0,1-1.4-1.4h0a1.367,1.367,0,0,1,1.4-1.4h.8a1.367,1.367,0,0,1,1.4,1.4h0A1.367,1.367,0,0,1,32.1,31.3Z"/>
        <path id="路径_1035" data-name="路径 1035" d="M39.8,31.3H39a1.367,1.367,0,0,1-1.4-1.4h0A1.367,1.367,0,0,1,39,28.5h.8a1.367,1.367,0,0,1,1.4,1.4h0A1.367,1.367,0,0,1,39.8,31.3Z"/>
        <path id="路径_1036" data-name="路径 1036" d="M48,31.3h-.4a1.367,1.367,0,0,1-1.4-1.4h0a1.367,1.367,0,0,1,1.4-1.4H48"/>
        <path id="路径_1037" data-name="路径 1037" d="M0,28.5H.4a1.367,1.367,0,0,1,1.4,1.4h0A1.367,1.367,0,0,1,.4,31.3H0"/>
      </g>
      <g id="组_603" data-name="组 603">
        <path id="路径_1038" data-name="路径 1038" d="M9,19.5H8.2a1.367,1.367,0,0,1-1.4-1.4h0a1.367,1.367,0,0,1,1.4-1.4H9a1.367,1.367,0,0,1,1.4,1.4h0A1.506,1.506,0,0,1,9,19.5Z"/>
        <path id="路径_1039" data-name="路径 1039" d="M16.7,19.5h-.8a1.367,1.367,0,0,1-1.4-1.4h0a1.367,1.367,0,0,1,1.4-1.4h.8a1.367,1.367,0,0,1,1.4,1.4h0A1.506,1.506,0,0,1,16.7,19.5Z"/>
        <path id="路径_1040" data-name="路径 1040" d="M24.4,19.5h-.8a1.367,1.367,0,0,1-1.4-1.4h0a1.367,1.367,0,0,1,1.4-1.4h.8a1.367,1.367,0,0,1,1.4,1.4h0A1.43,1.43,0,0,1,24.4,19.5Z"/>
        <path id="路径_1041" data-name="路径 1041" d="M32.1,19.5h-.8a1.367,1.367,0,0,1-1.4-1.4h0a1.367,1.367,0,0,1,1.4-1.4h.8a1.367,1.367,0,0,1,1.4,1.4h0A1.43,1.43,0,0,1,32.1,19.5Z"/>
        <path id="路径_1042" data-name="路径 1042" d="M39.8,19.5H39a1.367,1.367,0,0,1-1.4-1.4h0A1.367,1.367,0,0,1,39,16.7h.8a1.367,1.367,0,0,1,1.4,1.4h0A1.43,1.43,0,0,1,39.8,19.5Z"/>
        <path id="路径_1043" data-name="路径 1043" d="M48,19.5h-.4a1.367,1.367,0,0,1-1.4-1.4h0a1.367,1.367,0,0,1,1.4-1.4H48"/>
        <path id="路径_1044" data-name="路径 1044" d="M0,16.7H.4a1.367,1.367,0,0,1,1.4,1.4h0A1.367,1.367,0,0,1,.4,19.5H0"/>
      </g>
      <g id="组_604" data-name="组 604">
        <path id="路径_1045" data-name="路径 1045" d="M9,7.6H8.2A1.367,1.367,0,0,1,6.8,6.2h0A1.367,1.367,0,0,1,8.2,4.8H9a1.367,1.367,0,0,1,1.4,1.4h0A1.43,1.43,0,0,1,9,7.6Z"/>
        <path id="路径_1046" data-name="路径 1046" d="M16.7,7.6h-.8a1.367,1.367,0,0,1-1.4-1.4h0a1.367,1.367,0,0,1,1.4-1.4h.8a1.367,1.367,0,0,1,1.4,1.4h0A1.43,1.43,0,0,1,16.7,7.6Z"/>
        <path id="路径_1047" data-name="路径 1047" d="M24.4,7.6h-.8a1.367,1.367,0,0,1-1.4-1.4h0a1.367,1.367,0,0,1,1.4-1.4h.8a1.367,1.367,0,0,1,1.4,1.4h0A1.367,1.367,0,0,1,24.4,7.6Z"/>
        <path id="路径_1048" data-name="路径 1048" d="M32.1,7.6h-.8a1.367,1.367,0,0,1-1.4-1.4h0a1.367,1.367,0,0,1,1.4-1.4h.8a1.367,1.367,0,0,1,1.4,1.4h0A1.367,1.367,0,0,1,32.1,7.6Z"/>
        <path id="路径_1049" data-name="路径 1049" d="M39.8,7.6H39a1.367,1.367,0,0,1-1.4-1.4h0A1.367,1.367,0,0,1,39,4.8h.8a1.367,1.367,0,0,1,1.4,1.4h0A1.367,1.367,0,0,1,39.8,7.6Z"/>
        <path id="路径_1050" data-name="路径 1050" d="M48,7.6h-.4a1.367,1.367,0,0,1-1.4-1.4h0a1.367,1.367,0,0,1,1.4-1.4H48"/>
        <path id="路径_1051" data-name="路径 1051" d="M0,4.8H.4A1.367,1.367,0,0,1,1.8,6.2h0A1.367,1.367,0,0,1,.4,7.6H0"/>
      </g>
    </g>
  </g>
</svg>
