<svg xmlns="http://www.w3.org/2000/svg" width="48" height="48" viewBox="0 0 48 48">
  <g id="含砾细砂" transform="translate(-1310 -55)">
    <rect id="矩形_32" data-name="矩形 32" width="48" height="48" transform="translate(1310 55)" fill="none"/>
    <g id="含砾细砂-2" data-name="含砾细砂" transform="translate(1310.2 54.4)">
      <g id="组_460" data-name="组 460">
        <g id="组_435" data-name="组 435">
          <g id="组_430" data-name="组 430">
            <path id="路径_440" data-name="路径 440" d="M16.4,3.6A1.6,1.6,0,1,0,18,5.2a1.58,1.58,0,0,0-1.6-1.6Z"/>
          </g>
          <g id="组_432" data-name="组 432">
            <g id="组_431" data-name="组 431">
              <path id="路径_441" data-name="路径 441" d="M12.2,4.3a.789.789,0,0,0-.8.8.961.961,0,0,0,.8.9.789.789,0,0,0,.8-.8.765.765,0,0,0-.8-.9Z"/>
            </g>
          </g>
          <g id="组_434" data-name="组 434">
            <g id="组_433" data-name="组 433">
              <path id="路径_442" data-name="路径 442" d="M20.6,4.3a.789.789,0,0,0-.8.8.876.876,0,0,0,.8.9.789.789,0,0,0,.8-.8.882.882,0,0,0-.8-.9Z"/>
            </g>
          </g>
        </g>
        <g id="组_441" data-name="组 441">
          <g id="组_436" data-name="组 436">
            <path id="路径_443" data-name="路径 443" d="M16.5,13.1a1.6,1.6,0,1,0,1.6,1.6,1.58,1.58,0,0,0-1.6-1.6Z"/>
          </g>
          <g id="组_438" data-name="组 438">
            <g id="组_437" data-name="组 437">
              <path id="路径_444" data-name="路径 444" d="M12.3,13.9a.8.8,0,1,0,.8.8.736.736,0,0,0-.8-.8Z"/>
            </g>
          </g>
          <g id="组_440" data-name="组 440">
            <g id="组_439" data-name="组 439">
              <path id="路径_445" data-name="路径 445" d="M20.6,13.9a.8.8,0,1,0,.8.8c.1-.5-.3-.8-.8-.8Z"/>
            </g>
          </g>
        </g>
        <g id="组_447" data-name="组 447">
          <g id="组_442" data-name="组 442">
            <path id="路径_446" data-name="路径 446" d="M16.5,22.6a1.6,1.6,0,1,0,1.6,1.6,1.58,1.58,0,0,0-1.6-1.6Z"/>
          </g>
          <g id="组_444" data-name="组 444">
            <g id="组_443" data-name="组 443">
              <path id="路径_447" data-name="路径 447" d="M12.3,23.4a.8.8,0,1,0,.8.8.736.736,0,0,0-.8-.8Z"/>
            </g>
          </g>
          <g id="组_446" data-name="组 446">
            <g id="组_445" data-name="组 445">
              <path id="路径_448" data-name="路径 448" d="M20.6,23.4a.8.8,0,1,0,.8.8c.1-.5-.3-.8-.8-.8Z"/>
            </g>
          </g>
        </g>
        <g id="组_453" data-name="组 453">
          <g id="组_448" data-name="组 448">
            <path id="路径_449" data-name="路径 449" d="M16.5,32.2a1.6,1.6,0,1,0,1.6,1.6,1.58,1.58,0,0,0-1.6-1.6Z"/>
          </g>
          <g id="组_450" data-name="组 450">
            <g id="组_449" data-name="组 449">
              <path id="路径_450" data-name="路径 450" d="M12.3,32.9a.789.789,0,0,0-.8.8.86.86,0,0,0,.8.8.789.789,0,0,0,.8-.8.736.736,0,0,0-.8-.8Z"/>
            </g>
          </g>
          <g id="组_452" data-name="组 452">
            <g id="组_451" data-name="组 451">
              <path id="路径_451" data-name="路径 451" d="M20.6,32.9a.789.789,0,0,0-.8.8.86.86,0,0,0,.8.8.789.789,0,0,0,.8-.8c.1-.5-.3-.8-.8-.8Z"/>
            </g>
          </g>
        </g>
        <g id="组_459" data-name="组 459">
          <g id="组_454" data-name="组 454">
            <path id="路径_452" data-name="路径 452" d="M16.5,41.7a1.6,1.6,0,1,0,1.6,1.6,1.58,1.58,0,0,0-1.6-1.6Z"/>
          </g>
          <g id="组_456" data-name="组 456">
            <g id="组_455" data-name="组 455">
              <path id="路径_453" data-name="路径 453" d="M12.3,42.4a.8.8,0,1,0,.8.8.736.736,0,0,0-.8-.8Z"/>
            </g>
          </g>
          <g id="组_458" data-name="组 458">
            <g id="组_457" data-name="组 457">
              <path id="路径_454" data-name="路径 454" d="M20.6,42.4a.8.8,0,1,0,.8.8c.1-.5-.3-.8-.8-.8Z"/>
            </g>
          </g>
        </g>
      </g>
      <g id="组_491" data-name="组 491">
        <g id="组_466" data-name="组 466">
          <g id="组_461" data-name="组 461">
            <path id="路径_455" data-name="路径 455" d="M39.3,3.6a1.6,1.6,0,1,0,1.6,1.6,1.58,1.58,0,0,0-1.6-1.6Z"/>
          </g>
          <g id="组_463" data-name="组 463">
            <g id="组_462" data-name="组 462">
              <path id="路径_456" data-name="路径 456" d="M35.1,4.3a.789.789,0,0,0-.8.8.876.876,0,0,0,.8.9.789.789,0,0,0,.8-.8.817.817,0,0,0-.8-.9Z"/>
            </g>
          </g>
          <g id="组_465" data-name="组 465">
            <g id="组_464" data-name="组 464">
              <path id="路径_457" data-name="路径 457" d="M43.4,4.3a.789.789,0,0,0-.8.8.876.876,0,0,0,.8.9.789.789,0,0,0,.8-.8.817.817,0,0,0-.8-.9Z"/>
            </g>
          </g>
        </g>
        <g id="组_472" data-name="组 472">
          <g id="组_467" data-name="组 467">
            <path id="路径_458" data-name="路径 458" d="M39.3,13.1a1.6,1.6,0,1,0,1.6,1.6,1.58,1.58,0,0,0-1.6-1.6Z"/>
          </g>
          <g id="组_469" data-name="组 469">
            <g id="组_468" data-name="组 468">
              <path id="路径_459" data-name="路径 459" d="M35.1,13.9a.8.8,0,0,0,0,1.6.86.86,0,0,0,.8-.8.736.736,0,0,0-.8-.8Z"/>
            </g>
          </g>
          <g id="组_471" data-name="组 471">
            <g id="组_470" data-name="组 470">
              <path id="路径_460" data-name="路径 460" d="M43.4,13.9a.8.8,0,0,0,0,1.6.86.86,0,0,0,.8-.8.736.736,0,0,0-.8-.8Z"/>
            </g>
          </g>
        </g>
        <g id="组_478" data-name="组 478">
          <g id="组_473" data-name="组 473">
            <path id="路径_461" data-name="路径 461" d="M39.3,22.6a1.6,1.6,0,1,0,1.6,1.6,1.58,1.58,0,0,0-1.6-1.6Z"/>
          </g>
          <g id="组_475" data-name="组 475">
            <g id="组_474" data-name="组 474">
              <path id="路径_462" data-name="路径 462" d="M35.1,23.4a.8.8,0,0,0,0,1.6.86.86,0,0,0,.8-.8.736.736,0,0,0-.8-.8Z"/>
            </g>
          </g>
          <g id="组_477" data-name="组 477">
            <g id="组_476" data-name="组 476">
              <path id="路径_463" data-name="路径 463" d="M43.4,23.4a.8.8,0,0,0,0,1.6.86.86,0,0,0,.8-.8.736.736,0,0,0-.8-.8Z"/>
            </g>
          </g>
        </g>
        <g id="组_484" data-name="组 484">
          <g id="组_479" data-name="组 479">
            <path id="路径_464" data-name="路径 464" d="M39.3,32.2a1.6,1.6,0,1,0,1.6,1.6,1.58,1.58,0,0,0-1.6-1.6Z"/>
          </g>
          <g id="组_481" data-name="组 481">
            <g id="组_480" data-name="组 480">
              <path id="路径_465" data-name="路径 465" d="M35.1,32.9a.789.789,0,0,0-.8.8.8.8,0,1,0,1.6,0,.736.736,0,0,0-.8-.8Z"/>
            </g>
          </g>
          <g id="组_483" data-name="组 483">
            <g id="组_482" data-name="组 482">
              <path id="路径_466" data-name="路径 466" d="M43.4,32.9a.789.789,0,0,0-.8.8.8.8,0,0,0,1.6,0,.736.736,0,0,0-.8-.8Z"/>
            </g>
          </g>
        </g>
        <g id="组_490" data-name="组 490">
          <g id="组_485" data-name="组 485">
            <path id="路径_467" data-name="路径 467" d="M39.3,41.7a1.6,1.6,0,1,0,1.6,1.6,1.58,1.58,0,0,0-1.6-1.6Z"/>
          </g>
          <g id="组_487" data-name="组 487">
            <g id="组_486" data-name="组 486">
              <path id="路径_468" data-name="路径 468" d="M35.1,42.4a.8.8,0,0,0,0,1.6.86.86,0,0,0,.8-.8.736.736,0,0,0-.8-.8Z"/>
            </g>
          </g>
          <g id="组_489" data-name="组 489">
            <g id="组_488" data-name="组 488">
              <path id="路径_469" data-name="路径 469" d="M43.4,42.4a.8.8,0,1,0,0,1.6.86.86,0,0,0,.8-.8.736.736,0,0,0-.8-.8Z"/>
            </g>
          </g>
        </g>
      </g>
      <g id="组_502" data-name="组 502">
        <g id="组_493" data-name="组 493">
          <g id="组_492" data-name="组 492">
            <path id="路径_470" data-name="路径 470" d="M5,3.7A1.58,1.58,0,0,0,3.4,5.3,1.5,1.5,0,0,0,5,6.8,1.561,1.561,0,0,0,6.6,5.3,1.645,1.645,0,0,0,5,3.7Z"/>
          </g>
        </g>
        <g id="组_495" data-name="组 495">
          <g id="组_494" data-name="组 494">
            <path id="路径_471" data-name="路径 471" d="M5.1,13.9a.789.789,0,0,0-.8.8.86.86,0,0,0,.8.8.86.86,0,0,0,.8-.8.789.789,0,0,0-.8-.8Z"/>
          </g>
        </g>
        <g id="组_497" data-name="组 497">
          <g id="组_496" data-name="组 496">
            <path id="路径_472" data-name="路径 472" d="M5.1,32.9a.8.8,0,1,0,0,1.6.86.86,0,0,0,.8-.8.789.789,0,0,0-.8-.8Z"/>
          </g>
        </g>
        <g id="组_499" data-name="组 499">
          <g id="组_498" data-name="组 498">
            <path id="路径_473" data-name="路径 473" d="M5.1,22.6a1.6,1.6,0,1,0,1.6,1.6,1.58,1.58,0,0,0-1.6-1.6Z"/>
          </g>
        </g>
        <g id="组_501" data-name="组 501">
          <g id="组_500" data-name="组 500">
            <path id="路径_474" data-name="路径 474" d="M5.1,41.7a1.6,1.6,0,1,0,1.6,1.6,1.58,1.58,0,0,0-1.6-1.6Z"/>
          </g>
        </g>
      </g>
      <g id="组_513" data-name="组 513">
        <g id="组_504" data-name="组 504">
          <g id="组_503" data-name="组 503">
            <path id="路径_475" data-name="路径 475" d="M27.8,3.7a1.58,1.58,0,0,0-1.6,1.6,1.5,1.5,0,0,0,1.6,1.5,1.561,1.561,0,0,0,1.6-1.5,1.645,1.645,0,0,0-1.6-1.6Z"/>
          </g>
        </g>
        <g id="组_506" data-name="组 506">
          <g id="组_505" data-name="组 505">
            <path id="路径_476" data-name="路径 476" d="M27.9,13.9a.789.789,0,0,0-.8.8.86.86,0,0,0,.8.8.789.789,0,0,0,.8-.8.86.86,0,0,0-.8-.8Z"/>
          </g>
        </g>
        <g id="组_508" data-name="组 508">
          <g id="组_507" data-name="组 507">
            <path id="路径_477" data-name="路径 477" d="M27.9,32.9a.8.8,0,1,0,.8.8.86.86,0,0,0-.8-.8Z"/>
          </g>
        </g>
        <g id="组_510" data-name="组 510">
          <g id="组_509" data-name="组 509">
            <path id="路径_478" data-name="路径 478" d="M27.9,22.6a1.6,1.6,0,1,0,1.6,1.6,1.58,1.58,0,0,0-1.6-1.6Z"/>
          </g>
        </g>
        <g id="组_512" data-name="组 512">
          <g id="组_511" data-name="组 511">
            <path id="路径_479" data-name="路径 479" d="M27.9,41.7a1.6,1.6,0,1,0,1.6,1.6,1.58,1.58,0,0,0-1.6-1.6Z"/>
          </g>
        </g>
      </g>
    </g>
  </g>
</svg>
