<svg xmlns="http://www.w3.org/2000/svg" width="48" height="48" viewBox="0 0 48 48">
  <g id="含粉土中细砂" transform="translate(-1539 -55)">
    <rect id="矩形_36" data-name="矩形 36" width="48" height="48" transform="translate(1539 55)" fill="none"/>
    <g id="含粉土中细砂-2" data-name="含粉土中细砂" transform="translate(1539 54.95)">
      <g id="组_531" data-name="组 531">
        <path id="路径_586" data-name="路径 586" d="M14.8,3.7H13.3a.684.684,0,0,1-.7-.7h0a.684.684,0,0,1,.7-.7h1.5a.684.684,0,0,1,.7.7h0A.684.684,0,0,1,14.8,3.7Z"/>
        <path id="路径_587" data-name="路径 587" d="M8.1,3.7H6.6A.684.684,0,0,1,5.9,3h0a.684.684,0,0,1,.7-.7H8.1a.684.684,0,0,1,.7.7h0A.684.684,0,0,1,8.1,3.7Z"/>
        <path id="路径_588" data-name="路径 588" d="M21.4,3.7H19.9a.684.684,0,0,1-.7-.7h0a.684.684,0,0,1,.7-.7h1.5a.684.684,0,0,1,.7.7h0A.684.684,0,0,1,21.4,3.7Z"/>
        <path id="路径_589" data-name="路径 589" d="M28.1,3.7H26.6a.684.684,0,0,1-.7-.7h0a.684.684,0,0,1,.7-.7h1.5a.684.684,0,0,1,.7.7h0A.684.684,0,0,1,28.1,3.7Z"/>
        <path id="路径_590" data-name="路径 590" d="M34.7,3.7H33.2a.684.684,0,0,1-.7-.7h0a.684.684,0,0,1,.7-.7h1.5a.684.684,0,0,1,.7.7h0C35.5,3.4,35.1,3.7,34.7,3.7Z"/>
        <path id="路径_591" data-name="路径 591" d="M41.4,3.7H39.9a.684.684,0,0,1-.7-.7h0a.684.684,0,0,1,.7-.7h1.5a.684.684,0,0,1,.7.7h0A.684.684,0,0,1,41.4,3.7Z"/>
        <path id="路径_592" data-name="路径 592" d="M0,2.3H.7a.751.751,0,0,1,.7.7h0a.684.684,0,0,1-.7.7H0"/>
        <path id="路径_593" data-name="路径 593" d="M48,3.7h-.7a.684.684,0,0,1-.7-.7h0a.684.684,0,0,1,.7-.7H48"/>
      </g>
      <g id="组_532" data-name="组 532">
        <path id="路径_594" data-name="路径 594" d="M21,9.8H11a.86.86,0,0,1-.8-.8.86.86,0,0,1,.8-.8H21a.86.86,0,0,1,.8.8A.86.86,0,0,1,21,9.8Z"/>
        <path id="路径_595" data-name="路径 595" d="M37,9.8H27a.86.86,0,0,1-.8-.8.86.86,0,0,1,.8-.8H37a.86.86,0,0,1,.8.8A.86.86,0,0,1,37,9.8Z"/>
        <path id="路径_596" data-name="路径 596" d="M0,8.2H5a.86.86,0,0,1,.8.8.86.86,0,0,1-.8.8H0"/>
        <path id="路径_597" data-name="路径 597" d="M48,9.8H43a.86.86,0,0,1-.8-.8.86.86,0,0,1,.8-.8h5"/>
      </g>
      <g id="组_533" data-name="组 533">
        <path id="路径_598" data-name="路径 598" d="M14.8,15.7H13.3a.684.684,0,0,1-.7-.7h0a.684.684,0,0,1,.7-.7h1.5a.684.684,0,0,1,.7.7h0A.684.684,0,0,1,14.8,15.7Z"/>
        <path id="路径_599" data-name="路径 599" d="M8.1,15.7H6.6a.684.684,0,0,1-.7-.7h0a.684.684,0,0,1,.7-.7H8.1a.684.684,0,0,1,.7.7h0A.684.684,0,0,1,8.1,15.7Z"/>
        <path id="路径_600" data-name="路径 600" d="M21.4,15.7H19.9a.684.684,0,0,1-.7-.7h0a.684.684,0,0,1,.7-.7h1.5a.684.684,0,0,1,.7.7h0A.684.684,0,0,1,21.4,15.7Z"/>
        <path id="路径_601" data-name="路径 601" d="M28.1,15.7H26.6a.684.684,0,0,1-.7-.7h0a.684.684,0,0,1,.7-.7h1.5a.684.684,0,0,1,.7.7h0A.684.684,0,0,1,28.1,15.7Z"/>
        <path id="路径_602" data-name="路径 602" d="M34.7,15.7H33.2a.684.684,0,0,1-.7-.7h0a.684.684,0,0,1,.7-.7h1.5a.684.684,0,0,1,.7.7h0C35.5,15.4,35.1,15.7,34.7,15.7Z"/>
        <path id="路径_603" data-name="路径 603" d="M41.4,15.7H39.9a.684.684,0,0,1-.7-.7h0a.684.684,0,0,1,.7-.7h1.5a.684.684,0,0,1,.7.7h0A.684.684,0,0,1,41.4,15.7Z"/>
        <path id="路径_604" data-name="路径 604" d="M0,14.3H.7a.684.684,0,0,1,.7.7h0a.684.684,0,0,1-.7.7H0"/>
        <path id="路径_605" data-name="路径 605" d="M48,15.7h-.7a.684.684,0,0,1-.7-.7h0a.684.684,0,0,1,.7-.7H48"/>
      </g>
      <g id="组_534" data-name="组 534">
        <path id="路径_606" data-name="路径 606" d="M21,21.8H11a.8.8,0,1,1,0-1.6H21a.8.8,0,0,1,0,1.6Z"/>
        <path id="路径_607" data-name="路径 607" d="M37,21.8H27a.8.8,0,0,1,0-1.6H37a.8.8,0,1,1,0,1.6Z"/>
        <path id="路径_608" data-name="路径 608" d="M0,20.2H5a.8.8,0,1,1,0,1.6H0"/>
        <path id="路径_609" data-name="路径 609" d="M48,21.8H43a.8.8,0,0,1,0-1.6h5"/>
      </g>
      <g id="组_535" data-name="组 535">
        <path id="路径_610" data-name="路径 610" d="M14.8,27.7H13.3a.684.684,0,0,1-.7-.7h0a.684.684,0,0,1,.7-.7h1.5a.684.684,0,0,1,.7.7h0A.684.684,0,0,1,14.8,27.7Z"/>
        <path id="路径_611" data-name="路径 611" d="M8.1,27.7H6.6a.684.684,0,0,1-.7-.7h0a.684.684,0,0,1,.7-.7H8.1a.684.684,0,0,1,.7.7h0A.684.684,0,0,1,8.1,27.7Z"/>
        <path id="路径_612" data-name="路径 612" d="M21.4,27.7H19.9a.684.684,0,0,1-.7-.7h0a.684.684,0,0,1,.7-.7h1.5a.684.684,0,0,1,.7.7h0A.684.684,0,0,1,21.4,27.7Z"/>
        <path id="路径_613" data-name="路径 613" d="M28.1,27.7H26.6a.684.684,0,0,1-.7-.7h0a.684.684,0,0,1,.7-.7h1.5a.684.684,0,0,1,.7.7h0A.684.684,0,0,1,28.1,27.7Z"/>
        <path id="路径_614" data-name="路径 614" d="M34.7,27.7H33.2a.684.684,0,0,1-.7-.7h0a.684.684,0,0,1,.7-.7h1.5a.684.684,0,0,1,.7.7h0C35.5,27.4,35.1,27.7,34.7,27.7Z"/>
        <path id="路径_615" data-name="路径 615" d="M41.4,27.7H39.9a.684.684,0,0,1-.7-.7h0a.684.684,0,0,1,.7-.7h1.5a.684.684,0,0,1,.7.7h0A.684.684,0,0,1,41.4,27.7Z"/>
        <path id="路径_616" data-name="路径 616" d="M0,26.3H.7a.684.684,0,0,1,.7.7h0a.684.684,0,0,1-.7.7H0"/>
        <path id="路径_617" data-name="路径 617" d="M48,27.7h-.7a.684.684,0,0,1-.7-.7h0a.684.684,0,0,1,.7-.7H48"/>
      </g>
      <g id="组_536" data-name="组 536">
        <path id="路径_618" data-name="路径 618" d="M21,33.8H11a.8.8,0,1,1,0-1.6H21a.8.8,0,0,1,0,1.6Z"/>
        <path id="路径_619" data-name="路径 619" d="M37,33.8H27a.8.8,0,1,1,0-1.6H37a.8.8,0,0,1,0,1.6Z"/>
        <path id="路径_620" data-name="路径 620" d="M0,32.2H5a.8.8,0,1,1,0,1.6H0"/>
        <path id="路径_621" data-name="路径 621" d="M48,33.8H43a.8.8,0,0,1,0-1.6h5"/>
      </g>
      <g id="组_537" data-name="组 537">
        <path id="路径_622" data-name="路径 622" d="M14.8,39.7H13.3a.684.684,0,0,1-.7-.7h0a.684.684,0,0,1,.7-.7h1.5a.684.684,0,0,1,.7.7h0A.684.684,0,0,1,14.8,39.7Z"/>
        <path id="路径_623" data-name="路径 623" d="M8.1,39.7H6.6a.684.684,0,0,1-.7-.7h0a.684.684,0,0,1,.7-.7H8.1a.684.684,0,0,1,.7.7h0A.684.684,0,0,1,8.1,39.7Z"/>
        <path id="路径_624" data-name="路径 624" d="M21.4,39.7H19.9a.684.684,0,0,1-.7-.7h0a.684.684,0,0,1,.7-.7h1.5a.684.684,0,0,1,.7.7h0A.684.684,0,0,1,21.4,39.7Z"/>
        <path id="路径_625" data-name="路径 625" d="M28.1,39.7H26.6a.684.684,0,0,1-.7-.7h0a.684.684,0,0,1,.7-.7h1.5a.684.684,0,0,1,.7.7h0A.684.684,0,0,1,28.1,39.7Z"/>
        <path id="路径_626" data-name="路径 626" d="M34.7,39.7H33.2a.684.684,0,0,1-.7-.7h0a.684.684,0,0,1,.7-.7h1.5a.684.684,0,0,1,.7.7h0C35.5,39.4,35.1,39.7,34.7,39.7Z"/>
        <path id="路径_627" data-name="路径 627" d="M41.4,39.7H39.9a.684.684,0,0,1-.7-.7h0a.684.684,0,0,1,.7-.7h1.5a.684.684,0,0,1,.7.7h0A.684.684,0,0,1,41.4,39.7Z"/>
        <path id="路径_628" data-name="路径 628" d="M0,38.3H.7a.684.684,0,0,1,.7.7h0a.684.684,0,0,1-.7.7H0"/>
        <path id="路径_629" data-name="路径 629" d="M48,39.7h-.7a.684.684,0,0,1-.7-.7h0a.684.684,0,0,1,.7-.7H48"/>
      </g>
      <g id="组_538" data-name="组 538">
        <path id="路径_630" data-name="路径 630" d="M21,45.8H11a.8.8,0,1,1,0-1.6H21a.8.8,0,1,1,0,1.6Z"/>
        <path id="路径_631" data-name="路径 631" d="M37,45.8H27a.8.8,0,0,1,0-1.6H37a.8.8,0,0,1,0,1.6Z"/>
        <path id="路径_632" data-name="路径 632" d="M0,44.2H5a.8.8,0,1,1,0,1.6H0"/>
        <path id="路径_633" data-name="路径 633" d="M48,45.8H43a.8.8,0,0,1,0-1.6h5"/>
      </g>
    </g>
  </g>
</svg>
