<svg xmlns="http://www.w3.org/2000/svg" width="48.818" height="48.709" viewBox="0 0 48.818 48.709">
  <g id="含粘性土卵石" transform="translate(-2634.646 -55.646)">
    <path id="路径_3194" data-name="路径 3194" d="M0,0H48V48H0Z" transform="translate(2635 56)" fill="none"/>
    <g id="含粘性土卵石-2" data-name="含粘性土卵石" transform="translate(2635 56)">
      <g id="组_666" data-name="组 666">
        <g id="组_665" data-name="组 665">
          <path id="直线_150" data-name="直线 150" d="M.354,4.554l-.707-.707,4.2-4.2.707.707Z" transform="translate(0 43.8)" fill="#595758"/>
          <path id="直线_151" data-name="直线 151" d="M.354,27.854l-.707-.707,7.863-7.863.707.707ZM16.079,12.128l-.707-.707,7.863-7.863.707.707Z" transform="translate(12.1 8.3)" fill="#595758"/>
          <path id="直线_152" data-name="直线 152" d="M.354,4.554l-.707-.707,4.2-4.2.707.707Z" transform="translate(43.6 0.1)" fill="#595758"/>
        </g>
      </g>
      <g id="组_668" data-name="组 668">
        <g id="组_667" data-name="组 667">
          <path id="直线_153" data-name="直线 153" d="M.364,4.656l-.729-.712,4.2-4.3.729.712Z" transform="translate(32.2 43.7)" fill="#595758"/>
          <path id="直线_154" data-name="直线 154" d="M.364,4.656l-.729-.712,4.2-4.3.729.712Z" transform="translate(43.9 31.6)" fill="#595758"/>
        </g>
      </g>
      <g id="组_670" data-name="组 670">
        <g id="组_669" data-name="组 669">
          <path id="直线_155" data-name="直线 155" d="M.354,4.554l-.707-.707,4.2-4.2.707.707Z" transform="translate(0 11.8)" fill="#595758"/>
          <path id="直线_156" data-name="直线 156" d="M.354,4.554l-.707-.707,4.2-4.2.707.707Z" transform="translate(11.8)" fill="#595758"/>
        </g>
      </g>
      <g id="组_672" data-name="组 672">
        <g id="组_671" data-name="组 671">
          <path id="直线_157" data-name="直线 157" d="M.354,4.554l-.707-.707,4.2-4.2.707.707Z" transform="translate(0.1 27.4)" fill="#595758"/>
          <path id="直线_158" data-name="直线 158" d="M.357,11.95l-.713-.7L7.231,3.528l.713.7Z" transform="translate(12 8.2)" fill="#595758"/>
          <path id="直线_159" data-name="直线 159" d="M.354,4.554l-.707-.707,4.2-4.2.707.707Z" transform="translate(27.3 0.1)" fill="#595758"/>
        </g>
      </g>
      <g id="组_674" data-name="组 674">
        <g id="组_673" data-name="组 673">
          <path id="直线_160" data-name="直线 160" d="M.361,4.653l-.722-.705,4.2-4.3.722.705Z" transform="translate(16.5 43.7)" fill="#595758"/>
          <path id="直线_161" data-name="直线 161" d="M.358,11.955l-.717-.711L7.319,3.5l.717.711Z" transform="translate(28.4 24.2)" fill="#595758"/>
          <path id="直线_162" data-name="直线 162" d="M.365,4.749l-.73-.7,4.2-4.4.73.7Z" transform="translate(43.8 16)" fill="#595758"/>
        </g>
      </g>
      <g id="组_675" data-name="组 675">
        <path id="椭圆_22" data-name="椭圆 22" d="M2.5-.5A2.656,2.656,0,0,1,4.682.8,5.213,5.213,0,0,1,5.5,3.7a5.213,5.213,0,0,1-.818,2.9A2.656,2.656,0,0,1,2.5,7.9,2.656,2.656,0,0,1,.318,6.6,5.213,5.213,0,0,1-.5,3.7,5.213,5.213,0,0,1,.318.8,2.656,2.656,0,0,1,2.5-.5Zm0,7.4c1.084,0,2-1.465,2-3.2S3.584.5,2.5.5.5,1.965.5,3.7,1.416,6.9,2.5,6.9Z" transform="matrix(0.974, -0.227, 0.227, 0.974, 2.934, 4.054)"/>
        <path id="椭圆_23" data-name="椭圆 23" d="M1.9-.5C3.246-.5,4.3.993,4.3,2.9S3.246,6.3,1.9,6.3-.5,4.807-.5,2.9.554-.5,1.9-.5Zm0,5.8c.759,0,1.4-1.1,1.4-2.4S2.659.5,1.9.5.5,1.6.5,2.9,1.141,5.3,1.9,5.3Z" transform="translate(15.502 4.715) rotate(-13.12)"/>
        <path id="椭圆_24" data-name="椭圆 24" d="M1.9-.5C3.246-.5,4.3.993,4.3,2.9S3.246,6.3,1.9,6.3-.5,4.807-.5,2.9.554-.5,1.9-.5Zm0,5.8c.759,0,1.4-1.1,1.4-2.4S2.659.5,1.9.5.5,1.6.5,2.9,1.141,5.3,1.9,5.3Z" transform="translate(39.301 4.706) rotate(-13.12)"/>
        <path id="椭圆_25" data-name="椭圆 25" d="M2.5-.5A2.656,2.656,0,0,1,4.682.8,5.213,5.213,0,0,1,5.5,3.7a5.213,5.213,0,0,1-.818,2.9A2.656,2.656,0,0,1,2.5,7.9,2.656,2.656,0,0,1,.318,6.6,5.213,5.213,0,0,1-.5,3.7,5.213,5.213,0,0,1,.318.8,2.656,2.656,0,0,1,2.5-.5Zm0,7.4c1.084,0,2-1.465,2-3.2S3.584.5,2.5.5.5,1.965.5,3.7,1.416,6.9,2.5,6.9Z" transform="translate(26.635 4.068) rotate(-13.12)"/>
      </g>
      <g id="组_676" data-name="组 676">
        <path id="椭圆_26" data-name="椭圆 26" d="M2.5-.5A2.656,2.656,0,0,1,4.682.8,5.213,5.213,0,0,1,5.5,3.7a5.213,5.213,0,0,1-.818,2.9A2.656,2.656,0,0,1,2.5,7.9,2.656,2.656,0,0,1,.318,6.6,5.213,5.213,0,0,1-.5,3.7,5.213,5.213,0,0,1,.318.8,2.656,2.656,0,0,1,2.5-.5Zm0,7.4c1.084,0,2-1.465,2-3.2S3.584.5,2.5.5.5,1.965.5,3.7,1.416,6.9,2.5,6.9Z" transform="matrix(0.974, -0.227, 0.227, 0.974, 2.922, 20.455)"/>
        <path id="椭圆_27" data-name="椭圆 27" d="M1.9-.5C3.246-.5,4.3.993,4.3,2.9S3.246,6.3,1.9,6.3-.5,4.807-.5,2.9.554-.5,1.9-.5Zm0,5.8c.759,0,1.4-1.1,1.4-2.4S2.659.5,1.9.5.5,1.6.5,2.9,1.141,5.3,1.9,5.3Z" transform="translate(15.49 21.117) rotate(-13.12)"/>
        <path id="椭圆_28" data-name="椭圆 28" d="M1.9-.5C3.246-.5,4.3.993,4.3,2.9S3.246,6.3,1.9,6.3-.5,4.807-.5,2.9.554-.5,1.9-.5Zm0,5.8c.759,0,1.4-1.1,1.4-2.4S2.659.5,1.9.5.5,1.6.5,2.9,1.141,5.3,1.9,5.3Z" transform="translate(39.289 21.107) rotate(-13.12)"/>
        <path id="椭圆_29" data-name="椭圆 29" d="M2.5-.5A2.656,2.656,0,0,1,4.682.8,5.213,5.213,0,0,1,5.5,3.7a5.213,5.213,0,0,1-.818,2.9A2.656,2.656,0,0,1,2.5,7.9,2.656,2.656,0,0,1,.318,6.6,5.213,5.213,0,0,1-.5,3.7,5.213,5.213,0,0,1,.318.8,2.656,2.656,0,0,1,2.5-.5Zm0,7.4c1.084,0,2-1.465,2-3.2S3.584.5,2.5.5.5,1.965.5,3.7,1.416,6.9,2.5,6.9Z" transform="translate(26.624 20.469) rotate(-13.12)"/>
      </g>
      <g id="组_677" data-name="组 677">
        <path id="椭圆_30" data-name="椭圆 30" d="M2.5-.5A2.656,2.656,0,0,1,4.682.8,5.213,5.213,0,0,1,5.5,3.7a5.213,5.213,0,0,1-.818,2.9A2.656,2.656,0,0,1,2.5,7.9,2.656,2.656,0,0,1,.318,6.6,5.213,5.213,0,0,1-.5,3.7,5.213,5.213,0,0,1,.318.8,2.656,2.656,0,0,1,2.5-.5Zm0,7.4c1.084,0,2-1.465,2-3.2S3.584.5,2.5.5.5,1.965.5,3.7,1.416,6.9,2.5,6.9Z" transform="matrix(0.974, -0.227, 0.227, 0.974, 2.934, 36.953)"/>
        <path id="椭圆_31" data-name="椭圆 31" d="M1.9-.5C3.246-.5,4.3.993,4.3,2.9S3.246,6.3,1.9,6.3-.5,4.807-.5,2.9.554-.5,1.9-.5Zm0,5.8c.759,0,1.4-1.1,1.4-2.4S2.659.5,1.9.5.5,1.6.5,2.9,1.141,5.3,1.9,5.3Z" transform="translate(15.502 37.615) rotate(-13.12)"/>
        <path id="椭圆_32" data-name="椭圆 32" d="M1.9-.5C3.246-.5,4.3.993,4.3,2.9S3.246,6.3,1.9,6.3-.5,4.807-.5,2.9.554-.5,1.9-.5Zm0,5.8c.759,0,1.4-1.1,1.4-2.4S2.659.5,1.9.5.5,1.6.5,2.9,1.141,5.3,1.9,5.3Z" transform="translate(39.301 37.606) rotate(-13.12)"/>
        <path id="椭圆_33" data-name="椭圆 33" d="M2.5-.5A2.656,2.656,0,0,1,4.682.8,5.213,5.213,0,0,1,5.5,3.7a5.213,5.213,0,0,1-.818,2.9A2.656,2.656,0,0,1,2.5,7.9,2.656,2.656,0,0,1,.318,6.6,5.213,5.213,0,0,1-.5,3.7,5.213,5.213,0,0,1,.318.8,2.656,2.656,0,0,1,2.5-.5Zm0,7.4c1.084,0,2-1.465,2-3.2S3.584.5,2.5.5.5,1.965.5,3.7,1.416,6.9,2.5,6.9Z" transform="translate(26.635 36.968) rotate(-13.12)"/>
      </g>
    </g>
  </g>
</svg>
