<svg xmlns="http://www.w3.org/2000/svg" width="48" height="48" viewBox="0 0 48 48">
  <g id="含砾粉砂" transform="translate(-1026 -55)">
    <rect id="矩形_27" data-name="矩形 27" width="48" height="48" transform="translate(1026 55)" fill="none"/>
    <g id="含砾粉砂-2" data-name="含砾粉砂" transform="translate(1026.2 54.75)">
      <g id="组_248" data-name="组 248">
        <g id="组_223" data-name="组 223">
          <g id="组_218" data-name="组 218">
            <path id="路径_319" data-name="路径 319" d="M16.4,3.6A1.6,1.6,0,1,0,18,5.2a1.58,1.58,0,0,0-1.6-1.6Z"/>
          </g>
          <g id="组_220" data-name="组 220">
            <g id="组_219" data-name="组 219">
              <path id="路径_320" data-name="路径 320" d="M12.2,4.3a.789.789,0,0,0-.8.8.961.961,0,0,0,.8.9.789.789,0,0,0,.8-.8.765.765,0,0,0-.8-.9Z"/>
            </g>
          </g>
          <g id="组_222" data-name="组 222">
            <g id="组_221" data-name="组 221">
              <path id="路径_321" data-name="路径 321" d="M20.6,4.3a.789.789,0,0,0-.8.8.876.876,0,0,0,.8.9.789.789,0,0,0,.8-.8.882.882,0,0,0-.8-.9Z"/>
            </g>
          </g>
        </g>
        <g id="组_229" data-name="组 229">
          <g id="组_224" data-name="组 224">
            <path id="路径_322" data-name="路径 322" d="M16.5,13.1a1.6,1.6,0,1,0,1.6,1.6,1.58,1.58,0,0,0-1.6-1.6Z"/>
          </g>
          <g id="组_226" data-name="组 226">
            <g id="组_225" data-name="组 225">
              <path id="路径_323" data-name="路径 323" d="M12.3,13.9a.8.8,0,1,0,.8.8.736.736,0,0,0-.8-.8Z"/>
            </g>
          </g>
          <g id="组_228" data-name="组 228">
            <g id="组_227" data-name="组 227">
              <path id="路径_324" data-name="路径 324" d="M20.6,13.9a.8.8,0,1,0,.8.8c.1-.5-.3-.8-.8-.8Z"/>
            </g>
          </g>
        </g>
        <g id="组_235" data-name="组 235">
          <g id="组_230" data-name="组 230">
            <path id="路径_325" data-name="路径 325" d="M16.5,22.6a1.6,1.6,0,1,0,1.6,1.6,1.58,1.58,0,0,0-1.6-1.6Z"/>
          </g>
          <g id="组_232" data-name="组 232">
            <g id="组_231" data-name="组 231">
              <path id="路径_326" data-name="路径 326" d="M12.3,23.4a.8.8,0,1,0,.8.8.736.736,0,0,0-.8-.8Z"/>
            </g>
          </g>
          <g id="组_234" data-name="组 234">
            <g id="组_233" data-name="组 233">
              <path id="路径_327" data-name="路径 327" d="M20.6,23.4a.8.8,0,1,0,.8.8c.1-.5-.3-.8-.8-.8Z"/>
            </g>
          </g>
        </g>
        <g id="组_241" data-name="组 241">
          <g id="组_236" data-name="组 236">
            <path id="路径_328" data-name="路径 328" d="M16.5,32.2a1.6,1.6,0,1,0,1.6,1.6,1.58,1.58,0,0,0-1.6-1.6Z"/>
          </g>
          <g id="组_238" data-name="组 238">
            <g id="组_237" data-name="组 237">
              <path id="路径_329" data-name="路径 329" d="M12.3,32.9a.789.789,0,0,0-.8.8.86.86,0,0,0,.8.8.789.789,0,0,0,.8-.8.736.736,0,0,0-.8-.8Z"/>
            </g>
          </g>
          <g id="组_240" data-name="组 240">
            <g id="组_239" data-name="组 239">
              <path id="路径_330" data-name="路径 330" d="M20.6,32.9a.789.789,0,0,0-.8.8.86.86,0,0,0,.8.8.789.789,0,0,0,.8-.8c.1-.5-.3-.8-.8-.8Z"/>
            </g>
          </g>
        </g>
        <g id="组_247" data-name="组 247">
          <g id="组_242" data-name="组 242">
            <path id="路径_331" data-name="路径 331" d="M16.5,41.7a1.6,1.6,0,1,0,1.6,1.6,1.58,1.58,0,0,0-1.6-1.6Z"/>
          </g>
          <g id="组_244" data-name="组 244">
            <g id="组_243" data-name="组 243">
              <path id="路径_332" data-name="路径 332" d="M12.3,42.4a.8.8,0,1,0,.8.8.736.736,0,0,0-.8-.8Z"/>
            </g>
          </g>
          <g id="组_246" data-name="组 246">
            <g id="组_245" data-name="组 245">
              <path id="路径_333" data-name="路径 333" d="M20.6,42.4a.8.8,0,1,0,.8.8c.1-.5-.3-.8-.8-.8Z"/>
            </g>
          </g>
        </g>
      </g>
      <g id="组_279" data-name="组 279">
        <g id="组_254" data-name="组 254">
          <g id="组_249" data-name="组 249">
            <path id="路径_334" data-name="路径 334" d="M39.3,3.6a1.6,1.6,0,1,0,1.6,1.6,1.58,1.58,0,0,0-1.6-1.6Z"/>
          </g>
          <g id="组_251" data-name="组 251">
            <g id="组_250" data-name="组 250">
              <path id="路径_335" data-name="路径 335" d="M35.1,4.3a.789.789,0,0,0-.8.8.876.876,0,0,0,.8.9.789.789,0,0,0,.8-.8.817.817,0,0,0-.8-.9Z"/>
            </g>
          </g>
          <g id="组_253" data-name="组 253">
            <g id="组_252" data-name="组 252">
              <path id="路径_336" data-name="路径 336" d="M43.4,4.3a.789.789,0,0,0-.8.8.876.876,0,0,0,.8.9.789.789,0,0,0,.8-.8.817.817,0,0,0-.8-.9Z"/>
            </g>
          </g>
        </g>
        <g id="组_260" data-name="组 260">
          <g id="组_255" data-name="组 255">
            <path id="路径_337" data-name="路径 337" d="M39.3,13.1a1.6,1.6,0,1,0,1.6,1.6,1.58,1.58,0,0,0-1.6-1.6Z"/>
          </g>
          <g id="组_257" data-name="组 257">
            <g id="组_256" data-name="组 256">
              <path id="路径_338" data-name="路径 338" d="M35.1,13.9a.8.8,0,0,0,0,1.6.86.86,0,0,0,.8-.8.736.736,0,0,0-.8-.8Z"/>
            </g>
          </g>
          <g id="组_259" data-name="组 259">
            <g id="组_258" data-name="组 258">
              <path id="路径_339" data-name="路径 339" d="M43.4,13.9a.8.8,0,0,0,0,1.6.86.86,0,0,0,.8-.8.736.736,0,0,0-.8-.8Z"/>
            </g>
          </g>
        </g>
        <g id="组_266" data-name="组 266">
          <g id="组_261" data-name="组 261">
            <path id="路径_340" data-name="路径 340" d="M39.3,22.6a1.6,1.6,0,1,0,1.6,1.6,1.58,1.58,0,0,0-1.6-1.6Z"/>
          </g>
          <g id="组_263" data-name="组 263">
            <g id="组_262" data-name="组 262">
              <path id="路径_341" data-name="路径 341" d="M35.1,23.4a.8.8,0,0,0,0,1.6.86.86,0,0,0,.8-.8.736.736,0,0,0-.8-.8Z"/>
            </g>
          </g>
          <g id="组_265" data-name="组 265">
            <g id="组_264" data-name="组 264">
              <path id="路径_342" data-name="路径 342" d="M43.4,23.4a.8.8,0,0,0,0,1.6.86.86,0,0,0,.8-.8.736.736,0,0,0-.8-.8Z"/>
            </g>
          </g>
        </g>
        <g id="组_272" data-name="组 272">
          <g id="组_267" data-name="组 267">
            <path id="路径_343" data-name="路径 343" d="M39.3,32.2a1.6,1.6,0,1,0,1.6,1.6,1.58,1.58,0,0,0-1.6-1.6Z"/>
          </g>
          <g id="组_269" data-name="组 269">
            <g id="组_268" data-name="组 268">
              <path id="路径_344" data-name="路径 344" d="M35.1,32.9a.789.789,0,0,0-.8.8.8.8,0,1,0,1.6,0,.736.736,0,0,0-.8-.8Z"/>
            </g>
          </g>
          <g id="组_271" data-name="组 271">
            <g id="组_270" data-name="组 270">
              <path id="路径_345" data-name="路径 345" d="M43.4,32.9a.789.789,0,0,0-.8.8.8.8,0,0,0,1.6,0,.736.736,0,0,0-.8-.8Z"/>
            </g>
          </g>
        </g>
        <g id="组_278" data-name="组 278">
          <g id="组_273" data-name="组 273">
            <path id="路径_346" data-name="路径 346" d="M39.3,41.7a1.6,1.6,0,1,0,1.6,1.6,1.58,1.58,0,0,0-1.6-1.6Z"/>
          </g>
          <g id="组_275" data-name="组 275">
            <g id="组_274" data-name="组 274">
              <path id="路径_347" data-name="路径 347" d="M35.1,42.4a.8.8,0,0,0,0,1.6.86.86,0,0,0,.8-.8.736.736,0,0,0-.8-.8Z"/>
            </g>
          </g>
          <g id="组_277" data-name="组 277">
            <g id="组_276" data-name="组 276">
              <path id="路径_348" data-name="路径 348" d="M43.4,42.4a.8.8,0,1,0,0,1.6.86.86,0,0,0,.8-.8.736.736,0,0,0-.8-.8Z"/>
            </g>
          </g>
        </g>
      </g>
      <g id="组_290" data-name="组 290">
        <g id="组_281" data-name="组 281">
          <g id="组_280" data-name="组 280">
            <path id="路径_349" data-name="路径 349" d="M5,3.7A1.58,1.58,0,0,0,3.4,5.3,1.5,1.5,0,0,0,5,6.8,1.561,1.561,0,0,0,6.6,5.3,1.645,1.645,0,0,0,5,3.7Z"/>
          </g>
        </g>
        <g id="组_283" data-name="组 283">
          <g id="组_282" data-name="组 282">
            <path id="路径_350" data-name="路径 350" d="M5.1,13.9a.789.789,0,0,0-.8.8.86.86,0,0,0,.8.8.86.86,0,0,0,.8-.8.789.789,0,0,0-.8-.8Z"/>
          </g>
        </g>
        <g id="组_285" data-name="组 285">
          <g id="组_284" data-name="组 284">
            <path id="路径_351" data-name="路径 351" d="M5.1,32.9a.8.8,0,1,0,0,1.6.86.86,0,0,0,.8-.8.789.789,0,0,0-.8-.8Z"/>
          </g>
        </g>
        <g id="组_287" data-name="组 287">
          <g id="组_286" data-name="组 286">
            <path id="路径_352" data-name="路径 352" d="M5.1,22.6a1.6,1.6,0,1,0,1.6,1.6,1.58,1.58,0,0,0-1.6-1.6Z"/>
          </g>
        </g>
        <g id="组_289" data-name="组 289">
          <g id="组_288" data-name="组 288">
            <path id="路径_353" data-name="路径 353" d="M5.1,41.7a1.6,1.6,0,1,0,1.6,1.6,1.58,1.58,0,0,0-1.6-1.6Z"/>
          </g>
        </g>
      </g>
      <g id="组_301" data-name="组 301">
        <g id="组_292" data-name="组 292">
          <g id="组_291" data-name="组 291">
            <path id="路径_354" data-name="路径 354" d="M27.8,3.7a1.58,1.58,0,0,0-1.6,1.6,1.5,1.5,0,0,0,1.6,1.5,1.561,1.561,0,0,0,1.6-1.5,1.645,1.645,0,0,0-1.6-1.6Z"/>
          </g>
        </g>
        <g id="组_294" data-name="组 294">
          <g id="组_293" data-name="组 293">
            <path id="路径_355" data-name="路径 355" d="M27.9,13.9a.789.789,0,0,0-.8.8.86.86,0,0,0,.8.8.789.789,0,0,0,.8-.8.86.86,0,0,0-.8-.8Z"/>
          </g>
        </g>
        <g id="组_296" data-name="组 296">
          <g id="组_295" data-name="组 295">
            <path id="路径_356" data-name="路径 356" d="M27.9,32.9a.8.8,0,1,0,.8.8.86.86,0,0,0-.8-.8Z"/>
          </g>
        </g>
        <g id="组_298" data-name="组 298">
          <g id="组_297" data-name="组 297">
            <path id="路径_357" data-name="路径 357" d="M27.9,22.6a1.6,1.6,0,1,0,1.6,1.6,1.58,1.58,0,0,0-1.6-1.6Z"/>
          </g>
        </g>
        <g id="组_300" data-name="组 300">
          <g id="组_299" data-name="组 299">
            <path id="路径_358" data-name="路径 358" d="M27.9,41.7a1.6,1.6,0,1,0,1.6,1.6,1.58,1.58,0,0,0-1.6-1.6Z"/>
          </g>
        </g>
      </g>
    </g>
  </g>
</svg>
