<svg xmlns="http://www.w3.org/2000/svg" width="48" height="48.25" viewBox="0 0 48 48.25">
  <g id="含粘土粉细砂" transform="translate(-2344 -55.75)">
    <path id="路径_3189" data-name="路径 3189" d="M0,0H48V48H0Z" transform="translate(2344 56)" fill="none"/>
    <g id="含粘土粉细砂-2" data-name="含粘土粉细砂" transform="translate(2344 55.7)">
      <path id="直线_117" data-name="直线 117" d="M48,.5H0v-1H48Z" transform="translate(0 12.1)"/>
      <path id="直线_118" data-name="直线 118" d="M48,.25H0v-.5H48Z" transform="translate(0 0.3)"/>
      <path id="直线_119" data-name="直线 119" d="M48,.25H0v-.5H48Z" transform="translate(0 47.8)"/>
      <path id="直线_120" data-name="直线 120" d="M48,.5H0v-1H48Z" transform="translate(0 24)"/>
      <path id="直线_121" data-name="直线 121" d="M48,.5H0v-1H48Z" transform="translate(0 35.9)"/>
      <g id="组_613" data-name="组 613">
        <path id="路径_1108" data-name="路径 1108" d="M9,43.2H8.2a1.367,1.367,0,0,1-1.4-1.4h0a1.367,1.367,0,0,1,1.4-1.4H9a1.367,1.367,0,0,1,1.4,1.4h0A1.43,1.43,0,0,1,9,43.2Z"/>
        <path id="路径_1109" data-name="路径 1109" d="M16.7,43.2h-.8a1.367,1.367,0,0,1-1.4-1.4h0a1.367,1.367,0,0,1,1.4-1.4h.8a1.367,1.367,0,0,1,1.4,1.4h0A1.43,1.43,0,0,1,16.7,43.2Z"/>
        <path id="路径_1110" data-name="路径 1110" d="M24.4,43.2h-.8a1.367,1.367,0,0,1-1.4-1.4h0a1.367,1.367,0,0,1,1.4-1.4h.8a1.367,1.367,0,0,1,1.4,1.4h0A1.367,1.367,0,0,1,24.4,43.2Z"/>
        <path id="路径_1111" data-name="路径 1111" d="M32.1,43.2h-.8a1.367,1.367,0,0,1-1.4-1.4h0a1.367,1.367,0,0,1,1.4-1.4h.8a1.367,1.367,0,0,1,1.4,1.4h0A1.367,1.367,0,0,1,32.1,43.2Z"/>
        <path id="路径_1112" data-name="路径 1112" d="M39.8,43.2H39a1.367,1.367,0,0,1-1.4-1.4h0A1.367,1.367,0,0,1,39,40.4h.8a1.367,1.367,0,0,1,1.4,1.4h0A1.367,1.367,0,0,1,39.8,43.2Z"/>
        <path id="路径_1113" data-name="路径 1113" d="M48,43.2h-.4a1.367,1.367,0,0,1-1.4-1.4h0a1.367,1.367,0,0,1,1.4-1.4H48"/>
        <path id="路径_1114" data-name="路径 1114" d="M0,40.4H.4a1.367,1.367,0,0,1,1.4,1.4h0A1.367,1.367,0,0,1,.4,43.2H0"/>
      </g>
      <g id="组_614" data-name="组 614">
        <path id="路径_1115" data-name="路径 1115" d="M9,31.3H8.2a1.367,1.367,0,0,1-1.4-1.4h0a1.367,1.367,0,0,1,1.4-1.4H9a1.367,1.367,0,0,1,1.4,1.4h0A1.43,1.43,0,0,1,9,31.3Z"/>
        <path id="路径_1116" data-name="路径 1116" d="M16.7,31.3h-.8a1.367,1.367,0,0,1-1.4-1.4h0a1.367,1.367,0,0,1,1.4-1.4h.8a1.367,1.367,0,0,1,1.4,1.4h0A1.43,1.43,0,0,1,16.7,31.3Z"/>
        <path id="路径_1117" data-name="路径 1117" d="M24.4,31.3h-.8a1.367,1.367,0,0,1-1.4-1.4h0a1.367,1.367,0,0,1,1.4-1.4h.8a1.367,1.367,0,0,1,1.4,1.4h0A1.367,1.367,0,0,1,24.4,31.3Z"/>
        <path id="路径_1118" data-name="路径 1118" d="M32.1,31.3h-.8a1.367,1.367,0,0,1-1.4-1.4h0a1.367,1.367,0,0,1,1.4-1.4h.8a1.367,1.367,0,0,1,1.4,1.4h0A1.367,1.367,0,0,1,32.1,31.3Z"/>
        <path id="路径_1119" data-name="路径 1119" d="M39.8,31.3H39a1.367,1.367,0,0,1-1.4-1.4h0A1.367,1.367,0,0,1,39,28.5h.8a1.367,1.367,0,0,1,1.4,1.4h0A1.367,1.367,0,0,1,39.8,31.3Z"/>
        <path id="路径_1120" data-name="路径 1120" d="M48,31.3h-.4a1.367,1.367,0,0,1-1.4-1.4h0a1.367,1.367,0,0,1,1.4-1.4H48"/>
        <path id="路径_1121" data-name="路径 1121" d="M0,28.5H.4a1.367,1.367,0,0,1,1.4,1.4h0A1.367,1.367,0,0,1,.4,31.3H0"/>
      </g>
      <g id="组_615" data-name="组 615">
        <path id="路径_1122" data-name="路径 1122" d="M9,19.5H8.2a1.367,1.367,0,0,1-1.4-1.4h0a1.367,1.367,0,0,1,1.4-1.4H9a1.367,1.367,0,0,1,1.4,1.4h0A1.506,1.506,0,0,1,9,19.5Z"/>
        <path id="路径_1123" data-name="路径 1123" d="M16.7,19.5h-.8a1.367,1.367,0,0,1-1.4-1.4h0a1.367,1.367,0,0,1,1.4-1.4h.8a1.367,1.367,0,0,1,1.4,1.4h0A1.506,1.506,0,0,1,16.7,19.5Z"/>
        <path id="路径_1124" data-name="路径 1124" d="M24.4,19.5h-.8a1.367,1.367,0,0,1-1.4-1.4h0a1.367,1.367,0,0,1,1.4-1.4h.8a1.367,1.367,0,0,1,1.4,1.4h0A1.43,1.43,0,0,1,24.4,19.5Z"/>
        <path id="路径_1125" data-name="路径 1125" d="M32.1,19.5h-.8a1.367,1.367,0,0,1-1.4-1.4h0a1.367,1.367,0,0,1,1.4-1.4h.8a1.367,1.367,0,0,1,1.4,1.4h0A1.43,1.43,0,0,1,32.1,19.5Z"/>
        <path id="路径_1126" data-name="路径 1126" d="M39.8,19.5H39a1.367,1.367,0,0,1-1.4-1.4h0A1.367,1.367,0,0,1,39,16.7h.8a1.367,1.367,0,0,1,1.4,1.4h0A1.43,1.43,0,0,1,39.8,19.5Z"/>
        <path id="路径_1127" data-name="路径 1127" d="M48,19.5h-.4a1.367,1.367,0,0,1-1.4-1.4h0a1.367,1.367,0,0,1,1.4-1.4H48"/>
        <path id="路径_1128" data-name="路径 1128" d="M0,16.7H.4a1.367,1.367,0,0,1,1.4,1.4h0A1.367,1.367,0,0,1,.4,19.5H0"/>
      </g>
      <g id="组_616" data-name="组 616">
        <path id="路径_1129" data-name="路径 1129" d="M9,7.6H8.2A1.367,1.367,0,0,1,6.8,6.2h0A1.367,1.367,0,0,1,8.2,4.8H9a1.367,1.367,0,0,1,1.4,1.4h0A1.43,1.43,0,0,1,9,7.6Z"/>
        <path id="路径_1130" data-name="路径 1130" d="M16.7,7.6h-.8a1.367,1.367,0,0,1-1.4-1.4h0a1.367,1.367,0,0,1,1.4-1.4h.8a1.367,1.367,0,0,1,1.4,1.4h0A1.43,1.43,0,0,1,16.7,7.6Z"/>
        <path id="路径_1131" data-name="路径 1131" d="M24.4,7.6h-.8a1.367,1.367,0,0,1-1.4-1.4h0a1.367,1.367,0,0,1,1.4-1.4h.8a1.367,1.367,0,0,1,1.4,1.4h0A1.367,1.367,0,0,1,24.4,7.6Z"/>
        <path id="路径_1132" data-name="路径 1132" d="M32.1,7.6h-.8a1.367,1.367,0,0,1-1.4-1.4h0a1.367,1.367,0,0,1,1.4-1.4h.8a1.367,1.367,0,0,1,1.4,1.4h0A1.367,1.367,0,0,1,32.1,7.6Z"/>
        <path id="路径_1133" data-name="路径 1133" d="M39.8,7.6H39a1.367,1.367,0,0,1-1.4-1.4h0A1.367,1.367,0,0,1,39,4.8h.8a1.367,1.367,0,0,1,1.4,1.4h0A1.367,1.367,0,0,1,39.8,7.6Z"/>
        <path id="路径_1134" data-name="路径 1134" d="M48,7.6h-.4a1.367,1.367,0,0,1-1.4-1.4h0a1.367,1.367,0,0,1,1.4-1.4H48"/>
        <path id="路径_1135" data-name="路径 1135" d="M0,4.8H.4A1.367,1.367,0,0,1,1.8,6.2h0A1.367,1.367,0,0,1,.4,7.6H0"/>
      </g>
    </g>
  </g>
</svg>
