<?xml version="1.0" encoding="utf-8"?>
<!-- Generator: Adobe Illustrator 21.0.0, SVG Export Plug-In . SVG Version: 6.00 Build 0)  -->
<svg version="1.1" id="图层_1" xmlns="http://www.w3.org/2000/svg" xmlns:xlink="http://www.w3.org/1999/xlink" x="0px" y="0px"
	 width="48px" height="48px" viewBox="0 0 48 48" style="enable-background:new 0 0 48 48;" xml:space="preserve">
<style type="text/css">
	.st0{fill:none;stroke:#595758;stroke-miterlimit:10;}
	.st1{fill:none;stroke:#595758;stroke-miterlimit:10;stroke-dasharray:10.8257,10.8257;}
	.st2{fill:none;stroke:#595758;stroke-miterlimit:10;stroke-dasharray:10.8021,10.8021;}
</style>
<line class="st0" x1="0" y1="48.1" x2="47.8" y2="0.3"/>
<line class="st0" x1="32.2" y1="48.1" x2="48" y2="32.3"/>
<line class="st0" x1="0" y1="16.2" x2="16" y2="0.2"/>
<g>
	<g>
		<line class="st0" x1="0.1" y1="31.8" x2="4.3" y2="27.6"/>
		<line class="st1" x1="12" y1="19.9" x2="23.4" y2="8.4"/>
		<line class="st0" x1="27.3" y1="4.5" x2="31.5" y2="0.3"/>
	</g>
</g>
<g>
	<g>
		<line class="st0" x1="16.5" y1="48.1" x2="20.7" y2="43.9"/>
		<line class="st2" x1="28.4" y1="36.2" x2="39.8" y2="24.8"/>
		<line class="st0" x1="43.7" y1="20.9" x2="47.9" y2="16.7"/>
	</g>
</g>
<polygon points="4.4,4.5 3.1,5.8 9.7,4.5 "/>
<polygon points="16.4,2.8 15,7.6 21.7,2.8 "/>
<polygon points="28.4,3.3 27.3,5.7 32.6,3.3 "/>
<polygon points="41.4,3.9 40.7,5.1 44.1,3.9 "/>
<polygon points="4.4,23.3 3.1,24.7 9.7,23.3 "/>
<polygon points="16.4,21.6 15,26.4 21.7,21.6 "/>
<polygon points="28.4,22.1 27.3,24.5 32.6,22.1 "/>
<polygon points="41.4,22.7 40.7,23.9 44.1,22.7 "/>
<polygon points="36.3,13.3 35,14.7 41.6,13.3 "/>
<polygon points="10.5,13.4 9.4,15.8 14.8,13.4 "/>
<polygon points="23.1,13.4 21.4,14.6 29.5,13.4 "/>
<polygon points="4.4,41.8 3.1,43.1 9.7,41.8 "/>
<polygon points="16.4,40 15,44.9 21.7,40 "/>
<polygon points="28.4,40.6 27.3,43 32.6,40.6 "/>
<polygon points="41.4,41.2 40.7,42.4 44.1,41.2 "/>
<polygon points="36.3,31.8 35,33.1 41.6,31.8 "/>
<polygon points="10.5,31.9 9.4,34.3 14.8,31.9 "/>
<polygon points="23.1,31.9 21.4,33.1 29.5,31.9 "/>
</svg>
