<?xml version='1.0' encoding='utf-8'?>
<!DOCTYPE svg PUBLIC '-//W3C//DTD SVG 1.1//EN' 'http://www.w3.org/Graphics/SVG/1.1/DTD/svg11.dtd'>
<!-- Generator: Adobe Illustrator 16.0.0, SVG Export Plug-In . SVG Version: 6.00 Build 0)  -->
<svg version="1.1" xml:space="preserve" xmlns="http://www.w3.org/2000/svg" x="0px" width="48px" viewBox="0 0 48 48" enable-background="new 0 0 48 48" y="0px" xmlns:xlink="http://www.w3.org/1999/xlink" height="48px">
    <g id="响岩">
        <line y1="14.683" fill="none" stroke-miterlimit="10" x2="48" y2="14.683" stroke="#000000" x1="0"/>
        <line y1="31.267" fill="none" stroke-miterlimit="10" x2="48" y2="31.267" stroke="#000000" x1="0"/>
        <line y1="46.184" fill="none" stroke-miterlimit="10" x2="48" y2="46.184" stroke="#000000" x1="0"/>
        <line y1="8.433" fill="none" stroke-miterlimit="10" x2="6.25" y2="14.683" stroke="#000000" x1="6.25"/>
        <line y1="4.183" fill="none" stroke-miterlimit="10" x2="6.25" y2="8.433" stroke="#000000" x1="3.583"/>
        <line y1="4.183" fill="none" stroke-miterlimit="10" x2="6.25" y2="8.433" stroke="#000000" x1="8.5"/>
        <line y1="8.433" fill="none" stroke-miterlimit="10" x2="29" y2="14.684" stroke="#000000" x1="29"/>
        <line y1="4.183" fill="none" stroke-miterlimit="10" x2="29" y2="8.433" stroke="#000000" x1="26.334"/>
        <line y1="4.183" fill="none" stroke-miterlimit="10" x2="29" y2="8.433" stroke="#000000" x1="31.25"/>
        <line y1="25.016" fill="none" stroke-miterlimit="10" x2="17.166" y2="31.267" stroke="#000000" x1="17.166"/>
        <line y1="20.766" fill="none" stroke-miterlimit="10" x2="17.166" y2="25.016" stroke="#000000" x1="14.5"/>
        <line y1="20.766" fill="none" stroke-miterlimit="10" x2="17.166" y2="25.016" stroke="#000000" x1="19.416"/>
        <line y1="25.016" fill="none" stroke-miterlimit="10" x2="39.916" y2="31.267" stroke="#000000" x1="39.916"/>
        <line y1="20.766" fill="none" stroke-miterlimit="10" x2="39.916" y2="25.016" stroke="#000000" x1="37.25"/>
        <line y1="20.766" fill="none" stroke-miterlimit="10" x2="39.916" y2="25.016" stroke="#000000" x1="42.166"/>
        <line y1="39.184" fill="none" stroke-miterlimit="10" x2="4.583" y2="45.434" stroke="#000000" x1="4.583"/>
        <line y1="34.934" fill="none" stroke-miterlimit="10" x2="4.583" y2="39.184" stroke="#000000" x1="1.917"/>
        <line y1="34.934" fill="none" stroke-miterlimit="10" x2="4.583" y2="39.184" stroke="#000000" x1="6.833"/>
        <line y1="39.184" fill="none" stroke-miterlimit="10" x2="28.333" y2="45.434" stroke="#000000" x1="28.333"/>
        <line y1="34.934" fill="none" stroke-miterlimit="10" x2="28.333" y2="39.184" stroke="#000000" x1="25.667"/>
        <line y1="34.934" fill="none" stroke-miterlimit="10" x2="28.333" y2="39.184" stroke="#000000" x1="30.583"/>
    </g>
</svg>
