<?xml version='1.0' encoding='utf-8'?>
<!DOCTYPE svg PUBLIC '-//W3C//DTD SVG 1.1//EN' 'http://www.w3.org/Graphics/SVG/1.1/DTD/svg11.dtd'>
<!-- Generator: Adobe Illustrator 16.0.0, SVG Export Plug-In . SVG Version: 6.00 Build 0)  -->
<svg version="1.1" xml:space="preserve" xmlns="http://www.w3.org/2000/svg" x="0px" width="48px" viewBox="0 0 48 48" enable-background="new 0 0 48 48" y="0px" xmlns:xlink="http://www.w3.org/1999/xlink" height="48px">
    <g id="块石">
        <g id="块石_1_">
            <polygon fill="none" stroke-miterlimit="10" points="13.1,14.456 14.354,12.422 &#xa;&#x9;&#x9;&#x9;8.709,10.386 1.807,12.929 1.178,14.965 6.826,16.491 &#x9;&#x9;" stroke="#040000" stroke-linecap="square"/>
            <polygon fill="none" stroke-miterlimit="10" points="35.473,14.456 36.727,12.422 &#xa;&#x9;&#x9;&#x9;31.082,10.386 24.179,12.929 23.55,14.965 29.198,16.491 &#x9;&#x9;" stroke="#040000" stroke-linecap="square"/>
            <polygon fill="none" stroke-miterlimit="10" points="22.295,35.499 23.549,33.466 &#xa;&#x9;&#x9;&#x9;17.906,31.43 11.002,33.973 10.374,36.009 16.022,37.534 &#x9;&#x9;" stroke="#040000" stroke-linecap="square"/>
            <polygon fill="none" stroke-miterlimit="10" points="46.087,35.498 47.341,33.465 &#xa;&#x9;&#x9;&#x9;41.697,31.43 34.794,33.973 34.165,36.008 39.813,37.533 &#x9;&#x9;" stroke="#040000" stroke-linecap="square"/>
        </g>
    </g>
</svg>
