<?xml version='1.0' encoding='utf-8'?>
<!DOCTYPE svg PUBLIC '-//W3C//DTD SVG 1.1//EN' 'http://www.w3.org/Graphics/SVG/1.1/DTD/svg11.dtd'>
<!-- Generator: Adobe Illustrator 16.0.0, SVG Export Plug-In . SVG Version: 6.00 Build 0)  -->
<svg version="1.1" xml:space="preserve" xmlns="http://www.w3.org/2000/svg" x="0px" width="48px" viewBox="0 0 48 48" enable-background="new 0 0 48 48" y="0px" xmlns:xlink="http://www.w3.org/1999/xlink" height="48px">
    <g id="大理岩">
        <line y1="8.499" fill="none" stroke-miterlimit="10" x2="48" y2="8.499" stroke="#171C61" x1="0"/>
        <line y1="11.083" fill="none" stroke-miterlimit="10" x2="48" y2="11.083" stroke="#171C61" x1="0"/>
        <line y1="25.166" fill="none" stroke-miterlimit="10" x2="48" y2="25.166" stroke="#171C61" x1="0"/>
        <line y1="27.916" fill="none" stroke-miterlimit="10" x2="48" y2="27.916" stroke="#171C61" x1="0"/>
        <line y1="43.166" fill="none" stroke-miterlimit="10" x2="48" y2="43.166" stroke="#171C61" x1="0"/>
        <line y1="45.083" fill="none" stroke-miterlimit="10" x2="48" y2="45.083" stroke="#171C61" x1="0"/>
        <line y1="0" fill="none" stroke-miterlimit="10" x2="6.334" y2="8.083" stroke="#171C61" x1="6.334"/>
        <line y1="0" fill="none" stroke-miterlimit="10" x2="9.084" y2="8.083" stroke="#171C61" x1="9.084"/>
        <line y1="0" fill="none" stroke-miterlimit="10" x2="29.084" y2="8.082" stroke="#171C61" x1="29.084"/>
        <line y1="0" fill="none" stroke-miterlimit="10" x2="31.834" y2="8.082" stroke="#171C61" x1="31.834"/>
        <line y1="11" fill="none" stroke-miterlimit="10" x2="18.084" y2="25.332" stroke="#171C61" x1="18.084"/>
        <line y1="11" fill="none" stroke-miterlimit="10" x2="20.834" y2="25.332" stroke="#171C61" x1="20.834"/>
        <line y1="11" fill="none" stroke-miterlimit="10" x2="40.834" y2="25.332" stroke="#171C61" x1="40.834"/>
        <line y1="11" fill="none" stroke-miterlimit="10" x2="43.584" y2="25.332" stroke="#171C61" x1="43.584"/>
        <line y1="28.417" fill="none" stroke-miterlimit="10" x2="6.334" y2="42.832" stroke="#171C61" x1="6.334"/>
        <line y1="28.417" fill="none" stroke-miterlimit="10" x2="9.084" y2="42.832" stroke="#171C61" x1="9.084"/>
        <line y1="28.417" fill="none" stroke-miterlimit="10" x2="29.084" y2="42.832" stroke="#171C61" x1="29.084"/>
        <line y1="28.417" fill="none" stroke-miterlimit="10" x2="31.834" y2="42.832" stroke="#171C61" x1="31.834"/>
        <line y1="45.583" fill="none" stroke-miterlimit="10" x2="18.084" y2="48" stroke="#171C61" x1="18.084"/>
        <line y1="45.583" fill="none" stroke-miterlimit="10" x2="20.834" y2="48" stroke="#171C61" x1="20.834"/>
        <line y1="45.583" fill="none" stroke-miterlimit="10" x2="40.834" y2="48" stroke="#171C61" x1="40.834"/>
        <line y1="45.083" fill="none" stroke-miterlimit="10" x2="43.584" y2="48" stroke="#171C61" x1="43.584"/>
    </g>
</svg>
