<?xml version='1.0' encoding='utf-8'?>
<!DOCTYPE svg PUBLIC '-//W3C//DTD SVG 1.1//EN' 'http://www.w3.org/Graphics/SVG/1.1/DTD/svg11.dtd'>
<!-- Generator: Adobe Illustrator 16.0.0, SVG Export Plug-In . SVG Version: 6.00 Build 0)  -->
<svg version="1.1" xml:space="preserve" xmlns="http://www.w3.org/2000/svg" x="0px" width="48px" viewBox="0 0 48 48" enable-background="new 0 0 48 48" y="0px" xmlns:xlink="http://www.w3.org/1999/xlink" height="48px">
    <g id="姜石">
        <g id="姜石_1_">
            <polygon fill="none" stroke-miterlimit="10" points="4.443,11.109 6.065,10.203 &#xa;&#x9;&#x9;&#x9;8.786,10.331 11.572,10.554 13.303,11.376 12.962,13.292 11.225,13.854 9.22,12.838 8.19,13.397 8.398,13.999 9.906,15.29 &#xa;&#x9;&#x9;&#x9;7.828,16.234 7.009,14.49 5.036,13.53 5.098,15.235 3.118,14.592 2.786,12.447 &#x9;&#x9;" stroke="#212830" stroke-linecap="square"/>
            <polygon fill="none" stroke-miterlimit="10" points="25.656,12.582 27.279,11.675 &#xa;&#x9;&#x9;&#x9;30.001,11.802 32.786,12.026 34.518,12.848 34.177,14.764 32.438,15.325 30.436,14.311 29.404,14.869 29.611,15.471 31.12,16.762 &#xa;&#x9;&#x9;&#x9;29.041,17.706 28.223,15.961 26.25,15.002 26.313,16.707 24.332,16.064 24,13.919 &#x9;&#x9;" stroke="#212830" stroke-linecap="square"/>
            <polygon fill="none" stroke-miterlimit="10" points="16.542,32.412 18.036,31.577 &#xa;&#x9;&#x9;&#x9;20.542,31.693 23.108,31.9 24.702,32.658 24.389,34.422 22.788,34.939 20.941,34.005 19.994,34.52 20.186,35.074 21.574,36.264 &#xa;&#x9;&#x9;&#x9;19.659,37.132 18.905,35.525 17.088,34.643 17.145,36.212 15.322,35.62 15.016,33.645 &#x9;&#x9;" stroke="#212830" stroke-linecap="square"/>
            <polygon fill="none" stroke-miterlimit="10" points="37.292,31.693 38.787,30.857 &#xa;&#x9;&#x9;&#x9;41.293,30.977 43.859,31.182 45.453,31.938 45.141,33.703 43.539,34.221 41.691,33.286 40.744,33.8 40.936,34.354 42.324,35.543 &#xa;&#x9;&#x9;&#x9;40.41,36.412 39.656,34.807 37.839,33.923 37.896,35.492 36.072,34.9 35.768,32.925 &#x9;&#x9;" stroke="#212830" stroke-linecap="square"/>
        </g>
    </g>
</svg>
