<?xml version='1.0' encoding='utf-8'?>
<!DOCTYPE svg PUBLIC '-//W3C//DTD SVG 1.1//EN' 'http://www.w3.org/Graphics/SVG/1.1/DTD/svg11.dtd'>
<!-- Generator: Adobe Illustrator 16.0.0, SVG Export Plug-In . SVG Version: 6.00 Build 0)  -->
<svg version="1.1" xml:space="preserve" xmlns="http://www.w3.org/2000/svg" x="0px" width="48px" viewBox="0 0 48 48" enable-background="new 0 0 48 48" y="0px" xmlns:xlink="http://www.w3.org/1999/xlink" height="48px">
    <g id="安山凝灰岩">
        <line y1="12.759" fill="none" stroke-miterlimit="10" x2="48" y2="12.759" stroke="#000000" x1="0"/>
        <line y1="31.092" fill="none" stroke-miterlimit="10" x2="48" y2="31.092" stroke="#000000" x1="0"/>
        <polyline fill="none" stroke-miterlimit="10" points="2.333,2.092 6.167,10.509 10,2.092 &#x9;" stroke="#000000"/>
        <polyline fill="none" stroke-miterlimit="10" points="25.695,1.632 29.529,10.048 33.362,1.632 &#x9;" stroke="#000000"/>
        <polyline fill="none" stroke-miterlimit="10" points="12.58,16.976 16.413,25.393 20.246,16.976 &#x9;" stroke="#000000"/>
        <polyline fill="none" stroke-miterlimit="10" points="34.941,17.516 38.775,25.932 42.608,17.516 &#x9;" stroke="#000000"/>
        <polyline fill="none" stroke-miterlimit="10" points="3.065,36.322 6.899,44.738 10.732,36.322 &#x9;" stroke="#000000"/>
        <polyline fill="none" stroke-miterlimit="10" points="25.428,36.861 29.262,45.277 33.094,36.861 &#x9;" stroke="#000000"/>
        <circle r="1.254" stroke-width="0.5" cx="16.413" cy="6.301" fill="none" stroke-miterlimit="10" stroke="#000000"/>
        <circle r="1.254" stroke-width="0.5" cx="4.32" cy="22.978" fill="none" stroke-miterlimit="10" stroke="#000000"/>
        <circle r="1.254" stroke-width="0.5" cx="27.575" cy="21.724" fill="none" stroke-miterlimit="10" stroke="#000000"/>
        <circle r="1.254" stroke-width="0.5" cx="40.887" cy="6.301" fill="none" stroke-miterlimit="10" stroke="#000000"/>
        <circle r="1.254" stroke-width="0.5" cx="17.667" cy="41.069" fill="none" stroke-miterlimit="10" stroke="#000000"/>
        <circle r="1.254" stroke-width="0.5" cx="41.354" cy="40.53" fill="none" stroke-miterlimit="10" stroke="#000000"/>
    </g>
</svg>
