<?xml version='1.0' encoding='utf-8'?>
<!DOCTYPE svg PUBLIC '-//W3C//DTD SVG 1.1//EN' 'http://www.w3.org/Graphics/SVG/1.1/DTD/svg11.dtd'>
<!-- Generator: Adobe Illustrator 16.0.0, SVG Export Plug-In . SVG Version: 6.00 Build 0)  -->
<svg version="1.1" xml:space="preserve" xmlns="http://www.w3.org/2000/svg" x="0px" width="48px" viewBox="0 0 48 48" enable-background="new 0 0 48 48" y="0px" xmlns:xlink="http://www.w3.org/1999/xlink" height="48px">
    <g id="断层泥">
        <line y1="0" fill="none" stroke-miterlimit="10" stroke-dasharray="6,2" x2="0.335" y2="40.666" stroke="#595758" x1="41.001"/>
        <line y1="0" fill="none" stroke-miterlimit="10" stroke-dasharray="6,2" x2="0.293" y2="18.125" stroke="#595758" x1="18.417"/>
        <line y1="15.998" fill="none" stroke-miterlimit="10" stroke-dasharray="6,2" x2="16.042" y2="47.956" stroke="#595758" x1="48"/>
        <path d="M20.334,14.998c0,0-4.068-4.996,2.874-5.46&#xa;&#x9;&#x9;c6.275-0.422,2.536-5.959,2.043-5.79" fill="none" stroke-miterlimit="10" stroke="#595758"/>
        <path d="M4.71,28.875c0,0-4.068-4.997,2.874-5.46&#xa;&#x9;&#x9;c6.275-0.422,2.536-5.959,2.043-5.79" fill="none" stroke-miterlimit="10" stroke="#595758"/>
        <path d="M38.686,14.689c0,0-4.068-4.996,2.874-5.461&#xa;&#x9;&#x9;c6.275-0.422,2.536-5.959,2.043-5.79" fill="none" stroke-miterlimit="10" stroke="#595758"/>
        <path d="M25.71,31.01c0,0-4.068-4.996,2.874-5.461&#xa;&#x9;&#x9;c6.275-0.422,2.536-5.959,2.043-5.79" fill="none" stroke-miterlimit="10" stroke="#595758"/>
        <path d="M7.551,46.293c0,0-4.068-4.996,2.874-5.461&#xa;&#x9;&#x9;c6.275-0.422,2.536-5.959,2.043-5.789" fill="none" stroke-miterlimit="10" stroke="#595758"/>
        <path d="M36.166,44.575c0,0-4.068-4.996,2.874-5.461&#xa;&#x9;&#x9;c6.275-0.422,2.536-5.959,2.043-5.79" fill="none" stroke-miterlimit="10" stroke="#595758"/>
        <path d="M1.944,11.254c0,0-4.068-4.996,2.874-5.461&#xa;&#x9;&#x9;c6.275-0.422,2.536-5.959,2.043-5.79" fill="none" stroke-miterlimit="10" stroke="#595758"/>
    </g>
</svg>
