<?xml version='1.0' encoding='utf-8'?>
<!DOCTYPE svg PUBLIC '-//W3C//DTD SVG 1.1//EN' 'http://www.w3.org/Graphics/SVG/1.1/DTD/svg11.dtd'>
<!-- Generator: Adobe Illustrator 16.0.0, SVG Export Plug-In . SVG Version: 6.00 Build 0)  -->
<svg version="1.1" xml:space="preserve" xmlns="http://www.w3.org/2000/svg" x="0px" width="48px" viewBox="0 0 48 48" enable-background="new 0 0 48 48" y="0px" xmlns:xlink="http://www.w3.org/1999/xlink" height="48px">
    <g id="断层片状岩">
        <path d="M37.944,11.226c0,0-0.468-4.19,3.953-4.737&#xa;&#x9;&#x9;c5.09-0.484,3.727-5.297,3.209-5.235" fill="none" stroke-miterlimit="10" stroke="#595758"/>
        <ellipse cx="30.508" cy="17.59" transform="matrix(-0.8484 -0.5293 0.5293 -0.8484 47.0815 48.6614)" fill="none" ry="4.958" stroke-miterlimit="10" stroke="#595758" rx="2.5"/>
        <ellipse cx="5.723" cy="41.203" transform="matrix(-0.8483 -0.5294 0.5294 -0.8483 -11.2358 79.1869)" fill="none" ry="4.958" stroke-miterlimit="10" stroke="#595758" rx="2.5"/>
        <path d="M14.232,34.374c0,0-0.468-4.19,3.953-4.737&#xa;&#x9;&#x9;c5.09-0.483,3.727-5.297,3.209-5.234" fill="none" stroke-miterlimit="10" stroke="#595758"/>
        <ellipse cx="21.063" cy="5.665" transform="matrix(-0.8484 -0.5293 0.5293 -0.8484 35.9351 21.62)" fill="none" ry="4.958" stroke-miterlimit="10" stroke="#595758" rx="2.5"/>
        <path d="M2.964,21.198c0,0-0.468-4.19,3.953-4.737&#xa;&#x9;&#x9;c5.09-0.483,3.727-5.297,3.209-5.234" fill="none" stroke-miterlimit="10" stroke="#595758"/>
        <ellipse cx="25.329" cy="43.064" transform="matrix(-0.8484 -0.5293 0.5293 -0.8484 24.0254 93.0085)" fill="none" ry="4.958" stroke-miterlimit="10" stroke="#595758" rx="2.5"/>
        <path d="M37.944,31.973c0,0-0.468-4.19,3.953-4.737&#xa;&#x9;&#x9;c5.09-0.483,3.727-5.297,3.209-5.234" fill="none" stroke-miterlimit="10" stroke="#595758"/>
    </g>
</svg>
