<?xml version='1.0' encoding='utf-8'?>
<!DOCTYPE svg PUBLIC '-//W3C//DTD SVG 1.1//EN' 'http://www.w3.org/Graphics/SVG/1.1/DTD/svg11.dtd'>
<!-- Generator: Adobe Illustrator 16.0.0, SVG Export Plug-In . SVG Version: 6.00 Build 0)  -->
<svg version="1.1" xml:space="preserve" xmlns="http://www.w3.org/2000/svg" x="0px" width="48px" viewBox="0 0 48 48" enable-background="new 0 0 48 48" y="0px" xmlns:xlink="http://www.w3.org/1999/xlink" height="48px">
    <g id="断层角砾岩">
        <path d="M33.553,15.65c0,0-4.067-4.996,2.874-5.46&#xa;&#x9;&#x9;c6.275-0.422,2.536-5.959,2.043-5.79" fill="none" stroke-miterlimit="10" stroke="#595758"/>
        <polygon fill="none" stroke-miterlimit="10" points="28.764,20.819 33.264,17.176 27.264,14.605 &#x9;" stroke="#595758"/>
        <path d="M19.5,30.873c0,0-4.067-4.996,2.874-5.46&#xa;&#x9;&#x9;c6.276-0.422,2.536-5.959,2.043-5.79" fill="none" stroke-miterlimit="10" stroke="#595758"/>
        <polygon fill="none" stroke-miterlimit="10" points="13.85,36.887 18.35,33.244 12.35,30.673 &#x9;" stroke="#595758"/>
        <path d="M3.431,46.764c0,0-4.067-4.996,2.874-5.459&#xa;&#x9;&#x9;c6.276-0.422,2.536-5.96,2.043-5.79" fill="none" stroke-miterlimit="10" stroke="#595758"/>
        <path d="M2.109,16.657c0,0-4.067-4.996,2.874-5.46&#xa;&#x9;&#x9;c6.275-0.422,2.536-5.959,2.043-5.79" fill="none" stroke-miterlimit="10" stroke="#595758"/>
        <polygon fill="none" stroke-miterlimit="10" points="13.188,21.48 17.688,17.838 11.688,15.267 &#x9;" stroke="#595758"/>
        <path d="M20.793,12.738c0,0-4.067-4.996,2.875-5.458&#xa;&#x9;&#x9;c6.276-0.422,2.536-5.96,2.043-5.791" fill="none" stroke-miterlimit="10" stroke="#595758"/>
        <polygon fill="none" stroke-miterlimit="10" points="12.039,7.11 16.539,3.469 10.539,0.897 &#x9;" stroke="#595758"/>
        <path d="M29.345,38.82c0,0-4.067-4.996,2.874-5.46&#xa;&#x9;&#x9;c6.275-0.422,2.536-5.96,2.043-5.79" fill="none" stroke-miterlimit="10" stroke="#595758"/>
        <polygon fill="none" stroke-miterlimit="10" points="23.644,45.364 28.144,41.722 22.144,39.151 &#x9;" stroke="#595758"/>
        <polygon fill="none" stroke-miterlimit="10" points="40.919,25.831 45.419,22.188 39.419,19.618 &#x9;" stroke="#595758"/>
        <polygon fill="none" stroke-miterlimit="10" points="40.529,44.244 45.029,40.602 39.029,38.03 &#x9;" stroke="#595758"/>
        <path d="M2.556,30.872c0,0-4.067-4.996,2.875-5.459&#xa;&#x9;&#x9;c6.275-0.422,2.535-5.96,2.043-5.791" fill="none" stroke-miterlimit="10" stroke="#595758"/>
        <polygon fill="none" stroke-miterlimit="10" points="42.874,7.111 47.374,3.468 41.374,0.898 &#x9;" stroke="#595758"/>
    </g>
</svg>
