<svg xmlns="http://www.w3.org/2000/svg" width="48" height="48" viewBox="0 0 48 48">
  <g id="新黄土" transform="translate(-3092 -56)">
    <path id="路径_3202" data-name="路径 3202" d="M0,0H48V48H0Z" transform="translate(3092 56)" fill="none"/>
    <g id="新黄土-2" data-name="新黄土" transform="translate(3091.65 56.15)">
      <path id="路径_1374" data-name="路径 1374" d="M6.4,46h0a.576.576,0,0,1-.6-.6V2.4a.576.576,0,0,1,.6-.6h0a.576.576,0,0,1,.6.6v43C6.9,45.7,6.7,46,6.4,46Z"/>
      <path id="路径_1375" data-name="路径 1375" d="M18.4,46h0a.576.576,0,0,1-.6-.6V2.4a.576.576,0,0,1,.6-.6h0a.576.576,0,0,1,.6.6v43C18.9,45.7,18.7,46,18.4,46Z"/>
      <path id="路径_1376" data-name="路径 1376" d="M42.3,46h0a.576.576,0,0,1-.6-.6V2.4a.576.576,0,0,1,.6-.6h0a.576.576,0,0,1,.6.6v43C42.8,45.7,42.5,46,42.3,46Z"/>
      <path id="路径_1377" data-name="路径 1377" d="M30.4,46h0a.576.576,0,0,1-.6-.6V2.4a.576.576,0,0,1,.6-.6h0a.576.576,0,0,1,.6.6v43C30.9,45.7,30.7,46,30.4,46Z"/>
    </g>
  </g>
</svg>
