<?xml version="1.0" encoding="utf-8"?>
<!-- Generator: Adobe Illustrator 16.0.0, SVG Export Plug-In . SVG Version: 6.00 Build 0)  -->
<!DOCTYPE svg PUBLIC "-//W3C//DTD SVG 1.1//EN" "http://www.w3.org/Graphics/SVG/1.1/DTD/svg11.dtd">
<svg version="1.1" id="图层_1" xmlns="http://www.w3.org/2000/svg" xmlns:xlink="http://www.w3.org/1999/xlink" x="0px" y="0px"
	 width="48px" height="48px" viewBox="0 0 48 48" enable-background="new 0 0 48 48" xml:space="preserve">
<line fill="none" stroke="#000000" stroke-miterlimit="10" x1="48" y1="0" x2="0" y2="48"/>
<line fill="none" stroke="#000000" stroke-miterlimit="10" x1="12" y1="0" x2="0" y2="12"/>
<line fill="none" stroke="#000000" stroke-miterlimit="10" x1="48" y1="36" x2="36" y2="48"/>
<line fill="none" stroke="#000000" stroke-miterlimit="10" x1="24" y1="36" x2="48" y2="12"/>
<line fill="none" stroke="#000000" stroke-miterlimit="10" x1="24" y1="36" x2="12" y2="48"/>
<line fill="none" stroke="#000000" stroke-miterlimit="10" x1="36" y1="36" x2="48" y2="24"/>
<line fill="none" stroke="#000000" stroke-miterlimit="10" x1="36" y1="36" x2="24" y2="48"/>
<line fill="none" stroke="#000000" stroke-miterlimit="10" x1="24" y1="12" x2="0" y2="36"/>
<line fill="none" stroke="#000000" stroke-miterlimit="10" x1="24" y1="12" x2="36" y2="0"/>
<line fill="none" stroke="#000000" stroke-miterlimit="10" x1="12" y1="12" x2="24" y2="0"/>
<line fill="none" stroke="#000000" stroke-miterlimit="10" x1="12" y1="12" x2="0" y2="24"/>
<path fill="none" stroke="#000000" stroke-width="0.5" stroke-miterlimit="10" d="M42.911,8.667
	c-0.596-0.304-1.734,0.725-1.917,1.458c-0.262,1.051,0.872,1.109,1.346,1.628c1.385,1.517,0.032,3.611-1.715,3.414"/>
<path fill="none" stroke="#000000" stroke-width="0.5" stroke-miterlimit="10" d="M27.031,25.022
	c-0.596-0.304-1.734,0.725-1.917,1.458c-0.262,1.052,0.872,1.109,1.346,1.629c1.385,1.516,0.032,3.611-1.715,3.414"/>
<path fill="none" stroke="#000000" stroke-width="0.5" stroke-miterlimit="10" d="M14.286,37.931
	c-0.596-0.303-1.734,0.725-1.917,1.459c-0.262,1.051,0.872,1.109,1.346,1.628c1.385,1.517,0.032,3.61-1.715,3.413"/>
<path fill="none" stroke="#000000" stroke-width="0.5" stroke-miterlimit="10" d="M41.769,22.564
	c-0.596-0.304-1.734,0.725-1.917,1.458c-0.262,1.051,0.872,1.109,1.346,1.627c1.385,1.518,0.032,3.611-1.715,3.414"/>
<path fill="none" stroke="#000000" stroke-width="0.5" stroke-miterlimit="10" d="M28.911,34.647
	c-0.596-0.304-1.734,0.725-1.917,1.458c-0.262,1.052,0.872,1.109,1.346,1.629c1.385,1.516,0.032,3.61-1.715,3.413"/>
<path fill="none" stroke="#000000" stroke-width="0.5" stroke-miterlimit="10" d="M39.482,36.565
	c-0.596-0.303-1.734,0.725-1.917,1.459c-0.262,1.051,0.872,1.109,1.346,1.628c1.385,1.517,0.032,3.61-1.715,3.413"/>
<path fill="none" stroke="#000000" stroke-width="0.5" stroke-miterlimit="10" d="M34.094,5.383
	c-0.596-0.304-1.734,0.725-1.917,1.458c-0.262,1.051,0.872,1.109,1.346,1.628c1.385,1.517,0.032,3.611-1.715,3.414"/>
<path fill="none" stroke="#000000" stroke-width="0.5" stroke-miterlimit="10" d="M22.18,18.055
	c-0.596-0.304-1.734,0.725-1.917,1.458c-0.262,1.051,0.872,1.109,1.346,1.628c1.385,1.517,0.032,3.611-1.715,3.414"/>
<path fill="none" stroke="#000000" stroke-width="0.5" stroke-miterlimit="10" d="M8.647,32.203
	c-0.596-0.305-1.734,0.725-1.917,1.458c-0.262,1.052,0.872,1.108,1.346,1.628c1.385,1.517,0.032,3.611-1.715,3.414"/>
<path fill="none" stroke="#000000" stroke-width="0.5" stroke-miterlimit="10" d="M22.179,5.383
	c-0.596-0.304-1.734,0.725-1.917,1.458c-0.262,1.051,0.872,1.109,1.346,1.628c1.385,1.517,0.031,3.611-1.715,3.414"/>
<path fill="none" stroke="#000000" stroke-width="0.5" stroke-miterlimit="10" d="M10.933,16.667
	c-0.596-0.304-1.734,0.725-1.917,1.458c-0.262,1.051,0.872,1.109,1.346,1.628c1.385,1.517,0.032,3.611-1.715,3.414"/>
<path fill="none" stroke="#000000" stroke-width="0.5" stroke-miterlimit="10" d="M9.79,6.055C9.194,5.751,8.056,6.779,7.873,7.513
	C7.611,8.564,8.745,8.622,9.219,9.141c1.385,1.517,0.032,3.611-1.715,3.414"/>
<path fill="none" stroke="#000000" stroke-width="0.5" stroke-miterlimit="10" d="M3.924,0.899C3.328,0.595,2.189,1.624,2.007,2.357
	C1.745,3.409,2.879,3.466,3.353,3.985c1.385,1.517,0.032,3.611-1.715,3.414"/>
<path fill="none" stroke="#000000" stroke-width="0.5" stroke-miterlimit="10" d="M46.374,41.215
	c-0.596-0.305-1.734,0.725-1.917,1.458c-0.262,1.052,0.872,1.108,1.346,1.628c1.385,1.517,0.032,3.611-1.715,3.414"/>
</svg>
