<?xml version='1.0' encoding='utf-8'?>
<!DOCTYPE svg PUBLIC '-//W3C//DTD SVG 1.1//EN' 'http://www.w3.org/Graphics/SVG/1.1/DTD/svg11.dtd'>
<!-- Generator: Adobe Illustrator 16.0.0, SVG Export Plug-In . SVG Version: 6.00 Build 0)  -->
<svg version="1.1" xml:space="preserve" xmlns="http://www.w3.org/2000/svg" x="0px" width="48px" viewBox="0 0 48 48" enable-background="new 0 0 48 48" y="0px" xmlns:xlink="http://www.w3.org/1999/xlink" height="48px">
    <g id="杂填土">
        <line y1="0" fill="none" stroke-miterlimit="10" x2="47.798" y2="47.798" stroke="#000000" x1="0"/>
        <line y1="13" fill="none" stroke-miterlimit="10" x2="35.266" y2="48" stroke="#000000" x1="0.265"/>
        <line y1="29.116" fill="none" stroke-miterlimit="10" x2="20.407" y2="48.262" stroke="#000000" x1="0.052"/>
        <path d="M13.67,47.959" fill="none" stroke-miterlimit="10" stroke="#000000"/>
        <line y1="0.173" fill="none" stroke-miterlimit="10" x2="48" y2="35.689" stroke="#000000" x1="12.484"/>
        <line y1="0" fill="none" stroke-miterlimit="10" x2="48" y2="19.647" stroke="#000000" x1="28.098"/>
        <path d="M33.79,0" fill="none" stroke-miterlimit="10" stroke="#000000"/>
        <line y1="38.536" fill="none" stroke-miterlimit="10" x2="9.836" y2="35.068" stroke="#000000" x1="6.49"/>
        <line y1="40.438" fill="none" stroke-miterlimit="10" x2="11.64" y2="36.768" stroke="#000000" x1="8.192"/>
        <line y1="42.354" fill="none" stroke-miterlimit="10" x2="13.604" y2="38.584" stroke="#000000" x1="9.814"/>
        <line y1="21.834" fill="none" stroke-miterlimit="10" x2="9.34" y2="18.366" stroke="#000000" x1="5.994"/>
        <line y1="23.771" fill="none" stroke-miterlimit="10" x2="11.115" y2="20.101" stroke="#000000" x1="7.667"/>
        <line y1="25.705" fill="none" stroke-miterlimit="10" x2="13.181" y2="21.936" stroke="#000000" x1="9.391"/>
        <line y1="36.713" fill="none" stroke-miterlimit="10" x2="23.934" y2="33.245" stroke="#000000" x1="20.587"/>
        <line y1="38.649" fill="none" stroke-miterlimit="10" x2="25.709" y2="34.979" stroke="#000000" x1="22.261"/>
        <line y1="40.584" fill="none" stroke-miterlimit="10" x2="27.774" y2="36.814" stroke="#000000" x1="23.985"/>
        <line y1="6.758" fill="none" stroke-miterlimit="10" x2="6.805" y2="3.29" stroke="#000000" x1="3.458"/>
        <line y1="8.694" fill="none" stroke-miterlimit="10" x2="8.58" y2="5.024" stroke="#000000" x1="5.131"/>
        <line y1="10.629" fill="none" stroke-miterlimit="10" x2="10.645" y2="6.859" stroke="#000000" x1="6.855"/>
        <line y1="40.922" fill="none" stroke-miterlimit="10" x2="40.502" y2="37.454" stroke="#000000" x1="37.156"/>
        <line y1="42.858" fill="none" stroke-miterlimit="10" x2="42.277" y2="39.188" stroke="#000000" x1="38.829"/>
        <line y1="44.793" fill="none" stroke-miterlimit="10" x2="44.343" y2="41.023" stroke="#000000" x1="40.553"/>
        <line y1="23.594" fill="none" stroke-miterlimit="10" x2="23.753" y2="20.126" stroke="#000000" x1="20.407"/>
        <line y1="25.53" fill="none" stroke-miterlimit="10" x2="25.528" y2="21.86" stroke="#000000" x1="22.08"/>
        <line y1="27.465" fill="none" stroke-miterlimit="10" x2="27.594" y2="23.695" stroke="#000000" x1="23.804"/>
        <line y1="7.372" fill="none" stroke-miterlimit="10" x2="19.948" y2="3.904" stroke="#000000" x1="16.602"/>
        <line y1="9.308" fill="none" stroke-miterlimit="10" x2="21.723" y2="5.638" stroke="#000000" x1="18.275"/>
        <line y1="11.467" fill="none" stroke-miterlimit="10" x2="23.789" y2="7.473" stroke="#000000" x1="19.948"/>
        <line y1="25.245" fill="none" stroke-miterlimit="10" x2="37.555" y2="21.777" stroke="#000000" x1="34.209"/>
        <line y1="27.182" fill="none" stroke-miterlimit="10" x2="39.33" y2="23.512" stroke="#000000" x1="35.882"/>
        <line y1="29.116" fill="none" stroke-miterlimit="10" x2="41.396" y2="25.347" stroke="#000000" x1="37.605"/>
        <line y1="7.99" fill="none" stroke-miterlimit="10" x2="36.727" y2="4.522" stroke="#000000" x1="33.38"/>
        <line y1="9.926" fill="none" stroke-miterlimit="10" x2="38.501" y2="6.256" stroke="#000000" x1="35.054"/>
        <line y1="11.861" fill="none" stroke-miterlimit="10" x2="40.567" y2="8.091" stroke="#000000" x1="36.777"/>
    </g>
</svg>
