<?xml version="1.0" encoding="utf-8"?>
<!-- Generator: Adobe Illustrator 22.1.0, SVG Export Plug-In . SVG Version: 6.00 Build 0)  -->
<svg version="1.1" xml:space="preserve" xmlns="http://www.w3.org/2000/svg" x="0px" y="0px" width="48px" height="48px" viewBox="0 0 48 48" enable-background="new 0 0 48 48" xmlns:xlink="http://www.w3.org/1999/xlink">
<style type="text/css">
	.st0{fill:#595758;}
</style>
<g>
</g>
<path class="st0" d="M42.5,6c-0.1,0-0.3,0-0.4-0.1c-0.2-0.2-0.2-0.5,0-0.7L44,3.3c0.2-0.2,0.5-0.2,0.7,0c0.2,0.2,0.2,0.5,0,0.7
	l-1.8,1.8C42.8,5.9,42.6,6,42.5,6z"/>
<g>
	<path class="st0" d="M0.1,48.4c-0.1,0-0.3,0-0.4-0.1c-0.2-0.2-0.2-0.5,0-0.7l2.9-2.8c0.2-0.2,0.5-0.2,0.7,0c0.2,0.2,0.2,0.5,0,0.7
		l-2.9,2.8C0.3,48.4,0.2,48.4,0.1,48.4z"/>
	<path class="st0" d="M6.2,42.4c-0.1,0-0.3,0-0.4-0.1c-0.2-0.2-0.2-0.5,0-0.7l6.5-6.5c0.2-0.2,0.5-0.2,0.7,0c0.2,0.2,0.2,0.5,0,0.7
		l-6.5,6.5C6.4,42.4,6.3,42.4,6.2,42.4z M15.9,32.7c-0.1,0-0.3,0-0.4-0.1c-0.2-0.2-0.2-0.5,0-0.7l6.5-6.5c0.2-0.2,0.5-0.2,0.7,0
		c0.2,0.2,0.2,0.5,0,0.7l-6.5,6.5C16.2,32.6,16,32.7,15.9,32.7z M25.6,22.9c-0.1,0-0.3,0-0.4-0.1c-0.2-0.2-0.2-0.5,0-0.7l6.5-6.5
		c0.2-0.2,0.5-0.2,0.7,0c0.2,0.2,0.2,0.5,0,0.7L26,22.8C25.9,22.9,25.8,22.9,25.6,22.9z M35.3,13.2c-0.1,0-0.3,0-0.4-0.1
		c-0.2-0.2-0.2-0.5,0-0.7l6.5-6.5c0.2-0.2,0.5-0.2,0.7,0c0.2,0.2,0.2,0.5,0,0.7L35.7,13C35.6,13.1,35.5,13.2,35.3,13.2z"/>
	<path class="st0" d="M45.1,3.4c-0.1,0-0.3,0-0.4-0.1c-0.2-0.2-0.2-0.5,0-0.7l2.9-2.8c0.2-0.2,0.5-0.2,0.7,0c0.2,0.2,0.2,0.5,0,0.7
		l-2.9,2.8C45.3,3.4,45.2,3.4,45.1,3.4z"/>
</g>
<path class="st0" d="M13.4,35.2c-0.1,0-0.3,0-0.4-0.1c-0.2-0.2-0.2-0.5,0-0.7l1.8-1.8c0.2-0.2,0.5-0.2,0.7,0c0.2,0.2,0.2,0.5,0,0.7
	l-1.8,1.8C13.6,35.2,13.5,35.2,13.4,35.2z"/>
<path class="st0" d="M3.7,45c-0.1,0-0.3,0-0.4-0.1c-0.2-0.2-0.2-0.5,0-0.7l1.8-1.8c0.2-0.2,0.5-0.2,0.7,0C6,42.5,6,42.8,5.8,43
	L4,44.8C3.9,44.9,3.8,45,3.7,45z"/>
<path class="st0" d="M32.9,15.7c-0.1,0-0.3,0-0.4-0.1c-0.2-0.2-0.2-0.5,0-0.7l1.8-1.8c0.2-0.2,0.5-0.2,0.7,0c0.2,0.2,0.2,0.5,0,0.7
	l-1.8,1.8C33.1,15.7,33,15.7,32.9,15.7z"/>
<path class="st0" d="M23.1,25.5c-0.1,0-0.3,0-0.4-0.1c-0.2-0.2-0.2-0.5,0-0.7l1.8-1.8c0.2-0.2,0.5-0.2,0.7,0c0.2,0.2,0.2,0.5,0,0.7
	l-1.8,1.8C23.4,25.4,23.2,25.5,23.1,25.5z"/>
<g>
	<path class="st0" d="M33.5,48.1c-0.1,0-0.3,0-0.4-0.1c-0.2-0.2-0.2-0.5,0-0.7l4.7-4.9c0.2-0.2,0.5-0.2,0.7,0c0.2,0.2,0.2,0.5,0,0.7
		l-4.7,4.9C33.8,48,33.6,48.1,33.5,48.1z M41.4,39.9c-0.1,0-0.3,0-0.4-0.1c-0.2-0.2-0.2-0.5,0-0.7l6.4-6.6c0.2-0.2,0.5-0.2,0.7,0
		c0.2,0.2,0.2,0.5,0,0.7l-6.4,6.6C41.6,39.8,41.5,39.9,41.4,39.9z"/>
	<path class="st0" d="M38.9,42.5c-0.1,0-0.3,0-0.4-0.1c-0.2-0.2-0.2-0.5,0-0.7l1.8-1.9c0.2-0.2,0.5-0.2,0.7,0c0.2,0.2,0.2,0.5,0,0.7
		l-1.8,1.9C39.2,42.4,39,42.5,38.9,42.5z"/>
</g>
<path class="st0" d="M0,16.8c-0.1,0-0.3,0-0.4-0.1c-0.2-0.2-0.2-0.5,0-0.7l6.5-6.5c0.2-0.2,0.5-0.2,0.7,0C7,9.6,7,9.9,6.8,10.1
	l-6.5,6.5C0.3,16.7,0.1,16.8,0,16.8z M9.7,7C9.6,7,9.5,7,9.4,6.9c-0.2-0.2-0.2-0.5,0-0.7l6-6c0.2-0.2,0.5-0.2,0.7,0
	c0.2,0.2,0.2,0.5,0,0.7l-6,6C10,7,9.9,7,9.7,7z"/>
<path class="st0" d="M7.2,9.6c-0.1,0-0.3,0-0.4-0.1c-0.2-0.2-0.2-0.5,0-0.7l1.8-1.8c0.2-0.2,0.5-0.2,0.7,0c0.2,0.2,0.2,0.5,0,0.7
	L7.5,9.4C7.4,9.5,7.3,9.6,7.2,9.6z"/>
<g>
	<g>
		<path class="st0" d="M3,29.4c-0.1,0-0.3-0.1-0.4-0.2c-0.2-0.2-0.2-0.5,0-0.7l6.6-6.4c0.2-0.2,0.5-0.2,0.7,0c0.2,0.2,0.2,0.5,0,0.7
			l-6.6,6.4C3.3,29.3,3.2,29.4,3,29.4z M12.9,19.7c-0.1,0-0.3-0.1-0.4-0.2c-0.2-0.2-0.2-0.5,0-0.7l6.6-6.4c0.2-0.2,0.5-0.2,0.7,0
			c0.2,0.2,0.2,0.5,0,0.7l-6.6,6.4C13.2,19.7,13,19.7,12.9,19.7z M22.8,10.1c-0.1,0-0.3-0.1-0.4-0.2c-0.2-0.2-0.2-0.5,0-0.7L29,2.9
			c0.2-0.2,0.5-0.2,0.7,0c0.2,0.2,0.2,0.5,0,0.7L23.1,10C23,10.1,22.9,10.1,22.8,10.1z"/>
		<path class="st0" d="M10.3,22.3c-0.1,0-0.3-0.1-0.4-0.2c-0.2-0.2-0.2-0.5,0-0.7l1.9-1.8c0.2-0.2,0.5-0.2,0.7,0
			c0.2,0.2,0.2,0.5,0,0.7l-1.9,1.8C10.6,22.2,10.5,22.3,10.3,22.3z"/>
		<path class="st0" d="M30.1,3.1c-0.1,0-0.3-0.1-0.4-0.2c-0.2-0.2-0.2-0.5,0-0.7l1.9-1.8c0.2-0.2,0.5-0.2,0.7,0
			c0.2,0.2,0.2,0.5,0,0.7l-1.9,1.8C30.4,3,30.2,3.1,30.1,3.1z"/>
		<path class="st0" d="M20.2,12.7c-0.1,0-0.3-0.1-0.4-0.2c-0.2-0.2-0.2-0.5,0-0.7l1.9-1.8c0.2-0.2,0.5-0.2,0.7,0
			c0.2,0.2,0.2,0.5,0,0.7l-1.9,1.8C20.5,12.6,20.3,12.7,20.2,12.7z"/>
	</g>
	<path class="st0" d="M0.5,31.9c-0.1,0-0.3-0.1-0.4-0.2c-0.2-0.2-0.2-0.5,0-0.7L2,29.2c0.2-0.2,0.5-0.2,0.7,0c0.2,0.2,0.2,0.5,0,0.7
		l-1.9,1.8C0.7,31.8,0.6,31.9,0.5,31.9z"/>
</g>
<g>
	<g>
		<path class="st0" d="M19.2,45.9c-0.1,0-0.3,0-0.4-0.1c-0.2-0.2-0.2-0.5,0-0.7l6.5-6.5c0.2-0.2,0.5-0.2,0.7,0
			c0.2,0.2,0.2,0.5,0,0.7l-6.5,6.5C19.5,45.8,19.4,45.9,19.2,45.9z M29,36.1c-0.1,0-0.3,0-0.4-0.1c-0.2-0.2-0.2-0.5,0-0.7l6.5-6.5
			c0.2-0.2,0.5-0.2,0.7,0c0.2,0.2,0.2,0.5,0,0.7L29.3,36C29.2,36.1,29.1,36.1,29,36.1z M38.7,26.4c-0.1,0-0.3,0-0.4-0.1
			c-0.2-0.2-0.2-0.5,0-0.7l6.5-6.5c0.2-0.2,0.5-0.2,0.7,0c0.2,0.2,0.2,0.5,0,0.7L39,26.2C38.9,26.3,38.8,26.4,38.7,26.4z"/>
		<path class="st0" d="M26.4,38.7c-0.1,0-0.3,0-0.4-0.1c-0.2-0.2-0.2-0.5,0-0.7l1.8-1.8c0.2-0.2,0.5-0.2,0.7,0
			c0.2,0.2,0.2,0.5,0,0.7l-1.8,1.8C26.7,38.6,26.6,38.7,26.4,38.7z"/>
		<path class="st0" d="M45.9,19.2c-0.1,0-0.3,0-0.4-0.1c-0.2-0.2-0.2-0.5,0-0.7l1.8-1.8c0.2-0.2,0.5-0.2,0.7,0
			c0.2,0.2,0.2,0.5,0,0.7L46.3,19C46.2,19.1,46,19.2,45.9,19.2z"/>
		<path class="st0" d="M36.2,28.9c-0.1,0-0.3,0-0.4-0.1c-0.2-0.2-0.2-0.5,0-0.7l1.8-1.8c0.2-0.2,0.5-0.2,0.7,0
			c0.2,0.2,0.2,0.5,0,0.7l-1.8,1.8C36.4,28.9,36.3,28.9,36.2,28.9z"/>
	</g>
	<path class="st0" d="M16.7,48.4c-0.1,0-0.3,0-0.4-0.1c-0.2-0.2-0.2-0.5,0-0.7l1.8-1.8c0.2-0.2,0.5-0.2,0.7,0c0.2,0.2,0.2,0.5,0,0.7
		l-1.8,1.8C17,48.4,16.9,48.4,16.7,48.4z"/>
</g>
</svg>
