<?xml version="1.0" encoding="utf-8"?>
<!-- Generator: Adobe Illustrator 22.1.0, SVG Export Plug-In . SVG Version: 6.00 Build 0)  -->
<svg version="1.1" xml:space="preserve" xmlns="http://www.w3.org/2000/svg" x="0px" width="48px" viewBox="0 0 48 48" enable-background="new 0 0 48 48" y="0px" xmlns:xlink="http://www.w3.org/1999/xlink" height="48px">
<style type="text/css">
	.st0{fill:none;stroke:#595758;stroke-miterlimit:10;}
</style>
<g>
	<g>
		<line class="st0" x1="0.4" y1="47.7" x2="47.7" y2="0.3"/>
		<g>
			<line class="st0" x1="16.4" y1="48" x2="44.9" y2="19.5"/>
			<line class="st0" x1="28.4" y1="36.1" x2="39.9" y2="24.5"/>
			<line class="st0" x1="43.8" y1="20.7" x2="48" y2="16.4"/>
		</g>
		<g>
			<g>
				<line class="st0" x1="32.2" y1="48.1" x2="46.2" y2="34.1"/>
				<line class="st0" x1="44.5" y1="35.8" x2="48" y2="32.3"/>
			</g>
		</g>
		<g>
			<g>
				<line class="st0" x1="0" y1="32.3" x2="32.2" y2="0"/>
				<path class="st0" d="M32.2,0"/>
			</g>
		</g>
		<g>
			<g>
				<line class="st0" x1="0" y1="16.1" x2="16" y2="0.1"/>
				<path class="st0" d="M16,0.1"/>
				<path class="st0" d="M12.5,3.6"/>
			</g>
		</g>
	</g>
	<g>
		<line class="st0" x1="47.6" y1="47.9" x2="0.2" y2="0.5"/>
		<g>
			<line class="st0" x1="47.9" y1="31.8" x2="19.4" y2="3.3"/>
			<line class="st0" x1="36" y1="19.8" x2="24.4" y2="8.3"/>
			<line class="st0" x1="20.5" y1="4.4" x2="16.3" y2="0.2"/>
		</g>
		<g>
			<g>
				<line class="st0" x1="47.9" y1="16" x2="34" y2="2"/>
				<line class="st0" x1="35.7" y1="3.7" x2="32.2" y2="0.2"/>
			</g>
		</g>
		<g>
			<g>
				<line class="st0" x1="32.1" y1="48.2" x2="-0.1" y2="16"/>
				<path class="st0" d="M-0.1,16"/>
			</g>
		</g>
		<g>
			<g>
				<line class="st0" x1="16" y1="48.2" x2="0" y2="32.2"/>
				<path class="st0" d="M0,32.2"/>
				<path class="st0" d="M3.5,35.7"/>
			</g>
		</g>
	</g>
	<path d="M-0.2,16c0-0.3,0.2-0.5,0.5-0.5h3.3c0.3,0,0.5,0.2,0.5,0.5c0,0.3-0.2,0.5-0.5,0.5H0.3C0,16.5-0.2,16.3-0.2,16z M8.6,16
		c0-0.3,0.2-0.5,0.5-0.5h3.3c0.3,0,0.5,0.2,0.5,0.5c0,0.3-0.2,0.5-0.5,0.5H9.1C8.8,16.5,8.6,16.3,8.6,16z M17.3,16
		c0-0.3,0.2-0.5,0.5-0.5h3.3c0.3,0,0.5,0.2,0.5,0.5c0,0.3-0.2,0.5-0.5,0.5h-3.3C17.5,16.5,17.3,16.3,17.3,16z M26.1,16
		c0-0.3,0.2-0.5,0.5-0.5h3.3c0.3,0,0.5,0.2,0.5,0.5c0,0.3-0.2,0.5-0.5,0.5h-3.3C26.3,16.5,26.1,16.3,26.1,16z M34.9,16
		c0-0.3,0.2-0.5,0.5-0.5h3.3c0.3,0,0.5,0.2,0.5,0.5c0,0.3-0.2,0.5-0.5,0.5h-3.3C35.1,16.5,34.9,16.3,34.9,16z M43.6,16
		c0-0.3,0.2-0.5,0.5-0.5h3.3c0.3,0,0.5,0.2,0.5,0.5c0,0.3-0.2,0.5-0.5,0.5h-3.3C43.8,16.5,43.6,16.3,43.6,16z"/>
	<path d="M-0.2,32.1c0-0.3,0.2-0.5,0.5-0.5h3.3c0.3,0,0.5,0.2,0.5,0.5c0,0.3-0.2,0.5-0.5,0.5H0.3C0,32.6-0.2,32.4-0.2,32.1z
		 M8.6,32.1c0-0.3,0.2-0.5,0.5-0.5h3.3c0.3,0,0.5,0.2,0.5,0.5c0,0.3-0.2,0.5-0.5,0.5H9.1C8.8,32.6,8.6,32.4,8.6,32.1z M17.3,32.1
		c0-0.3,0.2-0.5,0.5-0.5h3.3c0.3,0,0.5,0.2,0.5,0.5c0,0.3-0.2,0.5-0.5,0.5h-3.3C17.5,32.6,17.3,32.4,17.3,32.1z M26.1,32.1
		c0-0.3,0.2-0.5,0.5-0.5h3.3c0.3,0,0.5,0.2,0.5,0.5c0,0.3-0.2,0.5-0.5,0.5h-3.3C26.3,32.6,26.1,32.4,26.1,32.1z M34.9,32.1
		c0-0.3,0.2-0.5,0.5-0.5h3.3c0.3,0,0.5,0.2,0.5,0.5c0,0.3-0.2,0.5-0.5,0.5h-3.3C35.1,32.6,34.9,32.4,34.9,32.1z M43.6,32.1
		c0-0.3,0.2-0.5,0.5-0.5h3.3c0.3,0,0.5,0.2,0.5,0.5c0,0.3-0.2,0.5-0.5,0.5h-3.3C43.8,32.6,43.6,32.4,43.6,32.1z"/>
	<path d="M-0.2,47.5c0-0.3,0.2-0.5,0.5-0.5h3.3c0.3,0,0.5,0.2,0.5,0.5C4.2,47.8,4,48,3.6,48H0.3C0,48-0.2,47.8-0.2,47.5z M8.6,47.5
		c0-0.3,0.2-0.5,0.5-0.5h3.3c0.3,0,0.5,0.2,0.5,0.5c0,0.3-0.2,0.5-0.5,0.5H9.1C8.8,48,8.6,47.8,8.6,47.5z M17.3,47.5
		c0-0.3,0.2-0.5,0.5-0.5h3.3c0.3,0,0.5,0.2,0.5,0.5c0,0.3-0.2,0.5-0.5,0.5h-3.3C17.5,48,17.3,47.8,17.3,47.5z M26.1,47.5
		c0-0.3,0.2-0.5,0.5-0.5h3.3c0.3,0,0.5,0.2,0.5,0.5c0,0.3-0.2,0.5-0.5,0.5h-3.3C26.3,48,26.1,47.8,26.1,47.5z M34.9,47.5
		c0-0.3,0.2-0.5,0.5-0.5h3.3c0.3,0,0.5,0.2,0.5,0.5c0,0.3-0.2,0.5-0.5,0.5h-3.3C35.1,48,34.9,47.8,34.9,47.5z M43.6,47.5
		c0-0.3,0.2-0.5,0.5-0.5h3.3c0.3,0,0.5,0.2,0.5,0.5c0,0.3-0.2,0.5-0.5,0.5h-3.3C43.8,48,43.6,47.8,43.6,47.5z"/>
</g>
</svg>
