<?xml version='1.0' encoding='utf-8'?>
<!DOCTYPE svg PUBLIC '-//W3C//DTD SVG 1.1//EN' 'http://www.w3.org/Graphics/SVG/1.1/DTD/svg11.dtd'>
<!-- Generator: Adobe Illustrator 16.0.0, SVG Export Plug-In . SVG Version: 6.00 Build 0)  -->
<svg version="1.1" xml:space="preserve" xmlns="http://www.w3.org/2000/svg" x="0px" width="48px" viewBox="0 0 48 48" enable-background="new 0 0 48 48" y="0px" xmlns:xlink="http://www.w3.org/1999/xlink" height="48px">
    <g id="泥灰岩">
        <g id="泥灰岩_1_">
            <line y1="3.394" fill="none" stroke-miterlimit="10" x2="48" y2="3.394" stroke="#7D4E22" x1="0"/>
            <line y1="39.811" fill="none" stroke-miterlimit="10" x2="48" y2="39.811" stroke="#7D4E22" x1="0"/>
            <line y1="15.977" fill="none" stroke-miterlimit="10" x2="48" y2="15.977" stroke="#7D4E22" x1="0"/>
            <line y1="28.061" fill="none" stroke-miterlimit="10" x2="48" y2="28.061" stroke="#7D4E22" x1="0"/>
            <line y1="0" fill="none" stroke-miterlimit="10" x2="6.167" y2="3.394" stroke="#7D4E22" x1="6.167"/>
            <line y1="0" fill="none" stroke-miterlimit="10" x2="31.791" y2="3.394" stroke="#7D4E22" x1="31.791"/>
            <line y1="3.394" fill="none" stroke-miterlimit="10" x2="17.167" y2="16.31" stroke="#7D4E22" x1="17.167"/>
            <line y1="15.977" fill="none" stroke-miterlimit="10" x2="5.5" y2="28.061" stroke="#7D4E22" x1="5.5"/>
            <line y1="15.977" fill="none" stroke-miterlimit="10" x2="32.167" y2="28.061" stroke="#7D4E22" x1="32.167"/>
            <line y1="28.477" fill="none" stroke-miterlimit="10" x2="17.167" y2="39.811" stroke="#7D4E22" x1="17.167"/>
            <line y1="40.227" fill="none" stroke-miterlimit="10" x2="5.5" y2="48" stroke="#7D4E22" x1="5.5"/>
            <line y1="40.227" fill="none" stroke-miterlimit="10" x2="32.167" y2="48" stroke="#7D4E22" x1="32.167"/>
            <line y1="3.394" fill="none" stroke-miterlimit="10" x2="44.334" y2="15.977" stroke="#7D4E22" x1="44.334"/>
            <line y1="28.061" fill="none" stroke-miterlimit="10" x2="44.334" y2="39.811" stroke="#7D4E22" x1="44.334"/>
            <line y1="44.113" fill="none" stroke-miterlimit="10" x2="23.25" y2="44.113" stroke="#7D4E22" x1="12.583"/>
            <line y1="44.113" fill="none" stroke-miterlimit="10" x2="45.167" y2="44.113" stroke="#7D4E22" x1="37.334"/>
            <line y1="33.936" fill="none" stroke-miterlimit="10" x2="35.5" y2="33.936" stroke="#7D4E22" x1="24"/>
            <line y1="34.145" fill="none" stroke-miterlimit="10" x2="12.583" y2="34.145" stroke="#7D4E22" x1="3.417"/>
            <line y1="22.019" fill="none" stroke-miterlimit="10" x2="23.25" y2="22.019" stroke="#7D4E22" x1="11.5"/>
            <line y1="22.56" fill="none" stroke-miterlimit="10" x2="45.917" y2="22.56" stroke="#7D4E22" x1="37.334"/>
            <line y1="9.685" fill="none" stroke-miterlimit="10" x2="6.75" y2="9.685" stroke="#7D4E22" x1="0"/>
            <line y1="9.852" fill="none" stroke-miterlimit="10" x2="35" y2="9.852" stroke="#7D4E22" x1="23.667"/>
        </g>
    </g>
</svg>
