<?xml version='1.0' encoding='utf-8'?>
<!DOCTYPE svg PUBLIC '-//W3C//DTD SVG 1.1//EN' 'http://www.w3.org/Graphics/SVG/1.1/DTD/svg11.dtd'>
<!-- Generator: Adobe Illustrator 16.0.0, SVG Export Plug-In . SVG Version: 6.00 Build 0)  -->
<svg version="1.1" xml:space="preserve" xmlns="http://www.w3.org/2000/svg" x="0px" width="48px" viewBox="0 0 48 48" enable-background="new 0 0 48 48" y="0px" xmlns:xlink="http://www.w3.org/1999/xlink" height="48px">
    <g id="泥炭">
        <g id="泥炭_1_">
            <path d="M4.789,38.158c0,0-3.214-0.717,0.083-4.274&#xa;&#x9;&#x9;&#x9;c2.98-3.217-0.88-4.434-1.051-4.11" fill="none" stroke-miterlimit="10" stroke="#595758"/>
            <path d="M12.1,19.246c0,0-3.214-0.717,0.083-4.274&#xa;&#x9;&#x9;&#x9;c2.98-3.216-0.881-4.434-1.051-4.111" fill="none" stroke-miterlimit="10" stroke="#595758"/>
            <path d="M25.424,19.246c0,0-3.214-0.715,0.082-4.273&#xa;&#x9;&#x9;&#x9;c2.98-3.216-0.881-4.433-1.051-4.11" fill="none" stroke-miterlimit="10" stroke="#595758"/>
            <path d="M32.109,38.158c0,0-3.213-0.717,0.084-4.274&#xa;&#x9;&#x9;&#x9;c2.979-3.216-0.881-4.434-1.051-4.11" fill="none" stroke-miterlimit="10" stroke="#595758"/>
            <path d="M38.563,18.385c0,0-3.213-0.718,0.082-4.275&#xa;&#x9;&#x9;&#x9;c2.98-3.216-0.879-4.434-1.049-4.111" fill="none" stroke-miterlimit="10" stroke="#595758"/>
            <path d="M19.063,37.551c0,0-3.214-0.717,0.083-4.273&#xa;&#x9;&#x9;&#x9;c2.98-3.217-0.88-4.435-1.05-4.11" fill="none" stroke-miterlimit="10" stroke="#595758"/>
            <path d="M43.645,37.551c0,0-3.215-0.717,0.082-4.273&#xa;&#x9;&#x9;&#x9;c2.98-3.217-0.881-4.434-1.051-4.11" fill="none" stroke-miterlimit="10" stroke="#595758"/>
        </g>
    </g>
</svg>
