<?xml version='1.0' encoding='utf-8'?>
<!DOCTYPE svg PUBLIC '-//W3C//DTD SVG 1.1//EN' 'http://www.w3.org/Graphics/SVG/1.1/DTD/svg11.dtd'>
<!-- Generator: Adobe Illustrator 16.0.0, SVG Export Plug-In . SVG Version: 6.00 Build 0)  -->
<svg version="1.1" xml:space="preserve" xmlns="http://www.w3.org/2000/svg" x="0px" width="48px" viewBox="0 0 48 48" enable-background="new 0 0 48 48" y="0px" xmlns:xlink="http://www.w3.org/1999/xlink" height="48px">
    <g id="泥炭质土">
        <g id="泥炭质土_1_">
            <path d="M3.748,38.158c0,0-3.177-0.717,0.082-4.274&#xa;&#x9;&#x9;&#x9;c2.946-3.217-0.87-4.434-1.039-4.11" fill="none" stroke-miterlimit="10" stroke="#595758"/>
            <path d="M10.976,19.246c0,0-3.178-0.717,0.082-4.274&#xa;&#x9;&#x9;&#x9;c2.946-3.216-0.871-4.434-1.039-4.111" fill="none" stroke-miterlimit="10" stroke="#595758"/>
            <path d="M24.148,19.246c0,0-3.178-0.715,0.081-4.273&#xa;&#x9;&#x9;&#x9;c2.947-3.216-0.871-4.433-1.039-4.11" fill="none" stroke-miterlimit="10" stroke="#595758"/>
            <path d="M30.757,38.158c0,0-3.176-0.717,0.083-4.274&#xa;&#x9;&#x9;&#x9;c2.946-3.216-0.87-4.434-1.038-4.11" fill="none" stroke-miterlimit="10" stroke="#595758"/>
            <path d="M37.137,18.385c0,0-3.176-0.718,0.081-4.275&#xa;&#x9;&#x9;&#x9;c2.947-3.216-0.868-4.434-1.037-4.111" fill="none" stroke-miterlimit="10" stroke="#595758"/>
            <path d="M17.859,37.551c0,0-3.177-0.717,0.082-4.273&#xa;&#x9;&#x9;&#x9;c2.946-3.217-0.87-4.435-1.038-4.11" fill="none" stroke-miterlimit="10" stroke="#595758"/>
            <path d="M42.161,37.551c0,0-3.179-0.717,0.081-4.273&#xa;&#x9;&#x9;&#x9;c2.946-3.217-0.871-4.434-1.039-4.11" fill="none" stroke-miterlimit="10" stroke="#595758"/>
            <line y1="0" fill="none" stroke-miterlimit="10" x2="0.157" y2="6.375" stroke="#595758" x1="6.459"/>
            <line y1="0" fill="none" stroke-miterlimit="10" x2="10.003" y2="8.593" stroke="#595758" x1="18.498"/>
            <line y1="0" fill="none" stroke-miterlimit="10" x2="22.855" y2="8.739" stroke="#595758" x1="31.493"/>
            <line y1="0.41" fill="none" stroke-miterlimit="10" x2="39.614" y2="8.739" stroke="#595758" x1="47.848"/>
            <line y1="20.654" fill="none" stroke-miterlimit="10" x2="0.321" y2="23.315" stroke="#595758" x1="2.952"/>
            <line y1="17.89" fill="none" stroke-miterlimit="10" x2="5.515" y2="28.742" stroke="#595758" x1="16.243"/>
            <line y1="20.251" fill="none" stroke-miterlimit="10" x2="20.86" y2="29.32" stroke="#595758" x1="29.825"/>
            <line y1="36.684" fill="none" stroke-miterlimit="10" x2="4.922" y2="46.12" stroke="#595758" x1="14.252"/>
            <line y1="18.88" fill="none" stroke-miterlimit="10" x2="40.008" y2="26.413" stroke="#595758" x1="47.456"/>
            <line y1="39.559" fill="none" stroke-miterlimit="10" x2="19.054" y2="47.875" stroke="#595758" x1="27.274"/>
            <line y1="43.717" fill="none" stroke-miterlimit="10" x2="37.552" y2="47.875" stroke="#595758" x1="41.62"/>
        </g>
    </g>
</svg>
