<?xml version='1.0' encoding='utf-8'?>
<!DOCTYPE svg PUBLIC '-//W3C//DTD SVG 1.1//EN' 'http://www.w3.org/Graphics/SVG/1.1/DTD/svg11.dtd'>
<!-- Generator: Adobe Illustrator 16.0.0, SVG Export Plug-In . SVG Version: 6.00 Build 0)  -->
<svg version="1.1" xml:space="preserve" xmlns="http://www.w3.org/2000/svg" x="0px" width="48px" viewBox="0 0 48 48" enable-background="new 0 0 48 48" y="0px" xmlns:xlink="http://www.w3.org/1999/xlink" height="48px">
    <g id="流纹凝灰岩">
        <line y1="2.406" fill="none" stroke-miterlimit="10" x2="10.646" y2="6.385" stroke="#000000" x1="6.667"/>
        <line y1="6.385" fill="none" stroke-miterlimit="10" x2="18.313" y2="2.385" stroke="#000000" x1="14.313"/>
        <line y1="17.272" fill="none" stroke-miterlimit="10" x2="6.271" y2="21.01" stroke="#000000" x1="10.333"/>
        <line y1="17.272" fill="none" stroke-miterlimit="10" x2="18.417" y2="21.01" stroke="#000000" x1="14.554"/>
        <line y1="2.406" fill="none" stroke-miterlimit="10" x2="36.583" y2="6.385" stroke="#000000" x1="32.604"/>
        <line y1="6.385" fill="none" stroke-miterlimit="10" x2="43.249" y2="2.385" stroke="#000000" x1="39.249"/>
        <line y1="17.272" fill="none" stroke-miterlimit="10" x2="32.207" y2="21.01" stroke="#000000" x1="36.27"/>
        <line y1="17.272" fill="none" stroke-miterlimit="10" x2="43.353" y2="21.01" stroke="#000000" x1="39.491"/>
        <line y1="27.791" fill="none" stroke-miterlimit="10" x2="11.716" y2="31.77" stroke="#000000" x1="7.736"/>
        <line y1="31.77" fill="none" stroke-miterlimit="10" x2="19.382" y2="27.77" stroke="#000000" x1="15.382"/>
        <line y1="39.656" fill="none" stroke-miterlimit="10" x2="7.34" y2="43.395" stroke="#000000" x1="11.403"/>
        <line y1="39.656" fill="none" stroke-miterlimit="10" x2="19.486" y2="43.395" stroke="#000000" x1="15.624"/>
        <line y1="27.791" fill="none" stroke-miterlimit="10" x2="37.652" y2="31.77" stroke="#000000" x1="33.673"/>
        <line y1="31.77" fill="none" stroke-miterlimit="10" x2="44.318" y2="27.77" stroke="#000000" x1="40.318"/>
        <line y1="39.656" fill="none" stroke-miterlimit="10" x2="33.276" y2="43.395" stroke="#000000" x1="37.339"/>
        <line y1="39.656" fill="none" stroke-miterlimit="10" x2="44.422" y2="43.395" stroke="#000000" x1="40.561"/>
        <line y1="11.259" fill="none" stroke-miterlimit="10" x2="48" y2="11.259" stroke="#000000" x1="0"/>
        <line y1="24.759" fill="none" stroke-miterlimit="10" x2="48" y2="24.759" stroke="#000000" x1="0"/>
        <line y1="36.509" fill="none" stroke-miterlimit="10" x2="48" y2="36.509" stroke="#000000" x1="0"/>
        <line y1="47.342" fill="none" stroke-miterlimit="10" x2="48" y2="47.342" stroke="#000000" x1="0"/>
        <circle r="1.365" stroke-width="0.5" cx="26" cy="5.259" fill="none" stroke-miterlimit="10" stroke="#000000"/>
        <circle r="1.365" stroke-width="0.5" cx="26" cy="18.5" fill="none" stroke-miterlimit="10" stroke="#000000"/>
        <circle r="1.365" stroke-width="0.5" cx="26.635" cy="30.404" fill="none" stroke-miterlimit="10" stroke="#000000"/>
        <circle r="1.365" stroke-width="0.5" cx="26.635" cy="41.526" fill="none" stroke-miterlimit="10" stroke="#000000"/>
        <circle r="1.365" stroke-width="0.5" cx="3.687" cy="5.259" fill="none" stroke-miterlimit="10" stroke="#000000"/>
        <circle r="1.365" stroke-width="0.5" cx="3.687" cy="18.5" fill="none" stroke-miterlimit="10" stroke="#000000"/>
        <circle r="1.365" stroke-width="0.5" cx="4.321" cy="30.404" fill="none" stroke-miterlimit="10" stroke="#000000"/>
        <circle r="1.365" stroke-width="0.5" cx="4.321" cy="41.526" fill="none" stroke-miterlimit="10" stroke="#000000"/>
    </g>
</svg>
