<?xml version='1.0' encoding='utf-8'?>
<!DOCTYPE svg PUBLIC '-//W3C//DTD SVG 1.1//EN' 'http://www.w3.org/Graphics/SVG/1.1/DTD/svg11.dtd'>
<!-- Generator: Adobe Illustrator 16.0.0, SVG Export Plug-In . SVG Version: 6.00 Build 0)  -->
<svg version="1.1" xml:space="preserve" xmlns="http://www.w3.org/2000/svg" x="0px" width="48px" viewBox="0 0 48 48" enable-background="new 0 0 48 48" y="0px" xmlns:xlink="http://www.w3.org/1999/xlink" height="48px">
    <g id="流纹岩">
        <line y1="3.509" fill="none" stroke-miterlimit="10" x2="6.646" y2="7.488" stroke="#000000" x1="2.667"/>
        <line y1="7.488" fill="none" stroke-miterlimit="10" x2="16.313" y2="3.488" stroke="#000000" x1="12.313"/>
        <line y1="12.375" fill="none" stroke-miterlimit="10" x2="2.271" y2="16.113" stroke="#000000" x1="6.333"/>
        <line y1="12.375" fill="none" stroke-miterlimit="10" x2="16.417" y2="16.113" stroke="#000000" x1="12.554"/>
        <line y1="3.509" fill="none" stroke-miterlimit="10" x2="34.583" y2="7.488" stroke="#000000" x1="30.604"/>
        <line y1="7.488" fill="none" stroke-miterlimit="10" x2="44.249" y2="3.488" stroke="#000000" x1="40.249"/>
        <line y1="12.375" fill="none" stroke-miterlimit="10" x2="30.207" y2="16.113" stroke="#000000" x1="34.27"/>
        <line y1="12.375" fill="none" stroke-miterlimit="10" x2="44.353" y2="16.113" stroke="#000000" x1="40.491"/>
        <line y1="29.894" fill="none" stroke-miterlimit="10" x2="7.716" y2="33.873" stroke="#000000" x1="3.736"/>
        <line y1="33.873" fill="none" stroke-miterlimit="10" x2="17.382" y2="29.873" stroke="#000000" x1="13.382"/>
        <line y1="38.76" fill="none" stroke-miterlimit="10" x2="3.34" y2="42.498" stroke="#000000" x1="7.403"/>
        <line y1="38.76" fill="none" stroke-miterlimit="10" x2="17.486" y2="42.498" stroke="#000000" x1="13.624"/>
        <line y1="29.894" fill="none" stroke-miterlimit="10" x2="35.652" y2="33.873" stroke="#000000" x1="31.673"/>
        <line y1="33.873" fill="none" stroke-miterlimit="10" x2="45.318" y2="29.873" stroke="#000000" x1="41.318"/>
        <line y1="38.76" fill="none" stroke-miterlimit="10" x2="31.276" y2="42.498" stroke="#000000" x1="35.339"/>
        <line y1="38.76" fill="none" stroke-miterlimit="10" x2="45.422" y2="42.498" stroke="#000000" x1="41.561"/>
    </g>
</svg>
