<?xml version='1.0' encoding='utf-8'?>
<!DOCTYPE svg PUBLIC '-//W3C//DTD SVG 1.1//EN' 'http://www.w3.org/Graphics/SVG/1.1/DTD/svg11.dtd'>
<!-- Generator: Adobe Illustrator 16.0.0, SVG Export Plug-In . SVG Version: 6.00 Build 0)  -->
<svg version="1.1" xml:space="preserve" xmlns="http://www.w3.org/2000/svg" x="0px" width="48px" viewBox="0 0 48 48" enable-background="new 0 0 48 48" y="0px" xmlns:xlink="http://www.w3.org/1999/xlink" height="48px">
    <g id="流纹斑岩">
        <line y1="4.509" fill="none" stroke-miterlimit="10" x2="6.646" y2="8.488" stroke="#000000" x1="2.667"/>
        <line y1="8.488" fill="none" stroke-miterlimit="10" x2="16.313" y2="4.488" stroke="#000000" x1="12.313"/>
        <line y1="13.375" fill="none" stroke-miterlimit="10" x2="2.271" y2="17.113" stroke="#000000" x1="6.333"/>
        <line y1="13.375" fill="none" stroke-miterlimit="10" x2="16.417" y2="17.113" stroke="#000000" x1="12.554"/>
        <line y1="4.509" fill="none" stroke-miterlimit="10" x2="34.583" y2="8.488" stroke="#000000" x1="30.604"/>
        <line y1="8.488" fill="none" stroke-miterlimit="10" x2="44.249" y2="4.488" stroke="#000000" x1="40.249"/>
        <line y1="13.375" fill="none" stroke-miterlimit="10" x2="30.207" y2="17.113" stroke="#000000" x1="34.27"/>
        <line y1="13.375" fill="none" stroke-miterlimit="10" x2="44.353" y2="17.113" stroke="#000000" x1="40.491"/>
        <line y1="30.894" fill="none" stroke-miterlimit="10" x2="7.716" y2="34.873" stroke="#000000" x1="3.736"/>
        <line y1="34.873" fill="none" stroke-miterlimit="10" x2="17.382" y2="30.873" stroke="#000000" x1="13.382"/>
        <line y1="39.76" fill="none" stroke-miterlimit="10" x2="3.34" y2="43.498" stroke="#000000" x1="7.403"/>
        <line y1="39.76" fill="none" stroke-miterlimit="10" x2="17.486" y2="43.498" stroke="#000000" x1="13.624"/>
        <line y1="30.894" fill="none" stroke-miterlimit="10" x2="35.652" y2="34.873" stroke="#000000" x1="31.673"/>
        <line y1="34.873" fill="none" stroke-miterlimit="10" x2="45.318" y2="30.873" stroke="#000000" x1="41.318"/>
        <line y1="39.76" fill="none" stroke-miterlimit="10" x2="31.276" y2="43.498" stroke="#000000" x1="35.339"/>
        <line y1="39.76" fill="none" stroke-miterlimit="10" x2="45.422" y2="43.498" stroke="#000000" x1="41.561"/>
        <circle r="1.118" stroke-width="0.5" cx="9.256" cy="2.795" fill="none" stroke-miterlimit="10" stroke="#000000"/>
        <circle r="1.118" stroke-width="0.5" cx="9.256" cy="11.422" fill="none" stroke-miterlimit="10" stroke="#000000"/>
        <circle r="1.118" stroke-width="0.5" cx="9.768" cy="24.632" fill="none" stroke-miterlimit="10" stroke="#000000"/>
        <circle r="1.118" stroke-width="0.5" cx="10.374" cy="37.089" fill="none" stroke-miterlimit="10" stroke="#000000"/>
        <circle r="1.118" stroke-width="0.5" cx="9.768" cy="45.985" fill="none" stroke-miterlimit="10" stroke="#000000"/>
        <circle r="1.118" stroke-width="0.5" cx="37.31" cy="1.92" fill="none" stroke-miterlimit="10" stroke="#000000"/>
        <circle r="1.118" stroke-width="0.5" cx="37.31" cy="10.547" fill="none" stroke-miterlimit="10" stroke="#000000"/>
        <circle r="1.118" stroke-width="0.5" cx="37.822" cy="23.758" fill="none" stroke-miterlimit="10" stroke="#000000"/>
        <circle r="1.118" stroke-width="0.5" cx="38.428" cy="36.214" fill="none" stroke-miterlimit="10" stroke="#000000"/>
        <circle r="1.118" stroke-width="0.5" cx="37.822" cy="45.11" fill="none" stroke-miterlimit="10" stroke="#000000"/>
    </g>
</svg>
