<?xml version='1.0' encoding='utf-8'?>
<!DOCTYPE svg PUBLIC '-//W3C//DTD SVG 1.1//EN' 'http://www.w3.org/Graphics/SVG/1.1/DTD/svg11.dtd'>
<!-- Generator: Adobe Illustrator 16.0.0, SVG Export Plug-In . SVG Version: 6.00 Build 0)  -->
<svg version="1.1" xml:space="preserve" xmlns="http://www.w3.org/2000/svg" x="0px" width="48px" viewBox="0 0 48 48" enable-background="new 0 0 48 48" y="0px" xmlns:xlink="http://www.w3.org/1999/xlink" height="48px">
    <g id="涡卷灰岩">
        <line y1="10.417" fill="none" stroke-miterlimit="10" x2="48" y2="10.417" stroke="#000000" x1="0"/>
        <line y1="22.423" fill="none" stroke-miterlimit="10" x2="48" y2="22.423" stroke="#000000" x1="0"/>
        <line y1="34" fill="none" stroke-miterlimit="10" x2="48" y2="34" stroke="#000000" x1="0"/>
        <line y1="45.166" fill="none" stroke-miterlimit="10" x2="48" y2="45.166" stroke="#000000" x1="0"/>
        <line y1="0" fill="none" stroke-miterlimit="10" x2="8.25" y2="10.417" stroke="#000000" x1="8.25"/>
        <line y1="10.417" fill="none" stroke-miterlimit="10" x2="18.75" y2="22.423" stroke="#000000" x1="18.75"/>
        <line y1="34" fill="none" stroke-miterlimit="10" x2="18.75" y2="45.166" stroke="#000000" x1="18.75"/>
        <line y1="0" fill="none" stroke-miterlimit="10" x2="32.084" y2="10.417" stroke="#000000" x1="32.084"/>
        <line y1="10.417" fill="none" stroke-miterlimit="10" x2="40.667" y2="22.423" stroke="#000000" x1="40.667"/>
        <line y1="22.833" fill="none" stroke-miterlimit="10" x2="8.25" y2="33.651" stroke="#000000" x1="8.25"/>
        <line y1="22.833" fill="none" stroke-miterlimit="10" x2="32.084" y2="34" stroke="#000000" x1="32.084"/>
        <line y1="33.651" fill="none" stroke-miterlimit="10" x2="40.667" y2="44.817" stroke="#000000" x1="40.667"/>
        <line y1="45.166" fill="none" stroke-miterlimit="10" x2="32.084" y2="48" stroke="#000000" x1="32.084"/>
        <line y1="45.582" fill="none" stroke-miterlimit="10" x2="7.94" y2="48" stroke="#000000" x1="7.94"/>
        <text transform="matrix(1 0 0 1 16.5835 9.3452)" font-family="'SimSun'" font-size="12">9</text>
        <text transform="matrix(1 0 0 1 37.668 9.6787)" font-family="'SimSun'" font-size="12">9</text>
        <text transform="matrix(1 0 0 1 5.084 20.7622)" font-family="'SimSun'" font-size="12">9</text>
        <text transform="matrix(1 0 0 1 29.168 20.7622)" font-family="'SimSun'" font-size="12">9</text>
        <text transform="matrix(1 0 0 1 16.1675 32.5117)" font-family="'SimSun'" font-size="12">9</text>
        <text transform="matrix(1 0 0 1 37.668 32.5127)" font-family="'SimSun'" font-size="12">9</text>
        <text transform="matrix(1 0 0 1 5.084 43.9297)" font-family="'SimSun'" font-size="12">9</text>
        <text transform="matrix(1 0 0 1 28.418 43.5137)" font-family="'SimSun'" font-size="12">9</text>
    </g>
</svg>
