<?xml version="1.0" encoding="utf-8"?>
<!-- Generator: Adobe Illustrator 21.0.0, SVG Export Plug-In . SVG Version: 6.00 Build 0)  -->
<svg version="1.1" id="图层_1" xmlns="http://www.w3.org/2000/svg" xmlns:xlink="http://www.w3.org/1999/xlink" x="0px" y="0px"
	 width="48px" height="48px" viewBox="0 0 48 48" style="enable-background:new 0 0 48 48;" xml:space="preserve">
<style type="text/css">
	.st0{fill:none;stroke:#595758;stroke-miterlimit:10;}
</style>
<g>
	<g>
		<line class="st0" x1="0.4" y1="47.7" x2="47.7" y2="0.3"/>
		<g>
			<line class="st0" x1="16.4" y1="48" x2="44.9" y2="19.5"/>
			<line class="st0" x1="28.4" y1="36.1" x2="39.9" y2="24.5"/>
			<line class="st0" x1="43.8" y1="20.7" x2="48" y2="16.4"/>
		</g>
		<g>
			<g>
				<line class="st0" x1="32.2" y1="48.1" x2="46.2" y2="34.1"/>
				<line class="st0" x1="44.5" y1="35.8" x2="48" y2="32.3"/>
			</g>
		</g>
		<g>
			<g>
				<line class="st0" x1="0" y1="32.3" x2="32.2" y2="0"/>
				<path class="st0" d="M32.2,0"/>
			</g>
		</g>
		<g>
			<g>
				<line class="st0" x1="0" y1="16.1" x2="16" y2="0.1"/>
				<path class="st0" d="M16,0.1"/>
				<path class="st0" d="M12.5,3.6"/>
			</g>
		</g>
	</g>
	<path class="st0" d="M3.8,10.5c0,0,0.7-3.2,4.3,0.1c3.2,3,4.4-0.9,4.1-1"/>
	<path class="st0" d="M26.4,9.2c0,0,0.7-3.2,4.3,0.1c3.2,3,4.4-0.9,4.1-1"/>
	<path class="st0" d="M36.8,22.5c0,0,0.7-3.2,4.3,0.1c3.2,3,4.4-0.9,4.1-1"/>
	<path class="st0" d="M2.6,37.7c0,0,0.7-3.2,4.3,0.1c3.2,3,4.4-0.9,4.1-1"/>
	<path class="st0" d="M26.4,36.4c0,0,0.7-3.2,4.3,0.1c3.2,3,4.4-0.9,4.1-1"/>
	<path class="st0" d="M12.2,23.4c0,0,0.7-3.2,4.3,0.1c3.2,3,4.4-0.9,4.1-1"/>
	<g>
		<line class="st0" x1="47.6" y1="47.9" x2="0.2" y2="0.5"/>
		<g>
			<line class="st0" x1="47.9" y1="31.8" x2="19.4" y2="3.3"/>
			<line class="st0" x1="36" y1="19.8" x2="24.4" y2="8.3"/>
			<line class="st0" x1="20.5" y1="4.4" x2="16.3" y2="0.2"/>
		</g>
		<g>
			<g>
				<line class="st0" x1="47.9" y1="16" x2="34" y2="2"/>
				<line class="st0" x1="35.7" y1="3.7" x2="32.2" y2="0.2"/>
			</g>
		</g>
		<g>
			<g>
				<line class="st0" x1="32.1" y1="48.2" x2="-0.1" y2="16"/>
				<path class="st0" d="M-0.1,16"/>
			</g>
		</g>
		<g>
			<g>
				<line class="st0" x1="16" y1="48.2" x2="0" y2="32.2"/>
				<path class="st0" d="M0,32.2"/>
				<path class="st0" d="M3.5,35.7"/>
			</g>
		</g>
	</g>
</g>
</svg>
