<?xml version='1.0' encoding='utf-8'?>
<!DOCTYPE svg PUBLIC '-//W3C//DTD SVG 1.1//EN' 'http://www.w3.org/Graphics/SVG/1.1/DTD/svg11.dtd'>
<!-- Generator: Adobe Illustrator 16.0.0, SVG Export Plug-In . SVG Version: 6.00 Build 0)  -->
<svg version="1.1" xml:space="preserve" xmlns="http://www.w3.org/2000/svg" x="0px" width="48px" viewBox="0 0 48 48" enable-background="new 0 0 48 48" y="0px" xmlns:xlink="http://www.w3.org/1999/xlink" height="48px">
    <g id="淤泥">
        <path d="M3.791,10.449c0,0,0.726-3.212,4.274,0.095&#xa;&#x9;&#x9;c3.208,2.989,4.436-0.868,4.113-1.039" fill="none" stroke-miterlimit="10" stroke="#595758"/>
        <path d="M26.385,9.136c0,0,0.727-3.212,4.274,0.095&#xa;&#x9;&#x9;c3.208,2.989,4.437-0.868,4.114-1.039" fill="none" stroke-miterlimit="10" stroke="#595758"/>
        <path d="M36.797,22.449c0,0,0.725-3.212,4.273,0.095&#xa;&#x9;&#x9;c3.207,2.989,4.436-0.868,4.113-1.039" fill="none" stroke-miterlimit="10" stroke="#595758"/>
        <path d="M2.581,37.664c0,0,0.726-3.212,4.274,0.095&#xa;&#x9;&#x9;c3.208,2.989,4.436-0.868,4.114-1.038" fill="none" stroke-miterlimit="10" stroke="#595758"/>
        <path d="M26.385,36.352c0,0,0.727-3.213,4.274,0.094&#xa;&#x9;&#x9;c3.208,2.99,4.437-0.867,4.114-1.038" fill="none" stroke-miterlimit="10" stroke="#595758"/>
        <path d="M12.228,23.375c0,0,0.726-3.212,4.274,0.095&#xa;&#x9;&#x9;c3.208,2.989,4.436-0.868,4.114-1.039" fill="none" stroke-miterlimit="10" stroke="#595758"/>
    </g>
</svg>
