<svg xmlns="http://www.w3.org/2000/svg" width="48" height="48" viewBox="0 0 48 48">
  <g id="淤泥质粉质黏" transform="translate(-4434 -56)">
    <path id="路径_3226" data-name="路径 3226" d="M0,0H48V48H0Z" transform="translate(4434 56)" fill="none"/>
    <g id="淤泥质粉质黏-2" data-name="淤泥质粉质黏" transform="translate(4434.828 56.952)">
      <path id="路径_1725" data-name="路径 1725" d="M46.845,39H-.5V7.1H46.845ZM.5,38H45.845V8.1H.5Z" transform="translate(0 0)"/>
      <path id="直线_379" data-name="直线 379" d="M.5,7.821h-1V0h1Z" transform="translate(4.538 14.455)"/>
      <path id="直线_380" data-name="直线 380" d="M.5,5.31h-1V0h1Z" transform="translate(4.538 33.186)"/>
      <path id="直线_381" data-name="直线 381" d="M.5,7.821h-1V0h1Z" transform="translate(20.759 14.455)"/>
      <path id="直线_382" data-name="直线 382" d="M.5,5.31h-1V0h1Z" transform="translate(20.759 33.186)"/>
      <path id="直线_383" data-name="直线 383" d="M.5,7.821h-1V0h1Z" transform="translate(40.069 14.455)"/>
      <path id="直线_384" data-name="直线 384" d="M.5,5.31h-1V0h1Z" transform="translate(40.069 33.186)"/>
      <path id="直线_385" data-name="直线 385" d="M.5,6.469h-1V0h1Z" transform="translate(13.035 7.6)"/>
      <path id="直线_386" data-name="直线 386" d="M.5,7.821h-1V0h1Z" transform="translate(13.035 23.628)"/>
      <path id="直线_387" data-name="直线 387" d="M.5,6.469h-1V0h1Z" transform="translate(30.704 7.6)"/>
      <path id="直线_388" data-name="直线 388" d="M.5,7.821h-1V0h1Z" transform="translate(30.704 23.628)"/>
      <path id="路径_1726" data-name="路径 1726" d="M3.966,30.269a2.147,2.147,0,0,1-2.024-1.355,3.786,3.786,0,0,1-.307-1.2A1.417,1.417,0,0,0,.2,26.6a.5.5,0,0,1,0-1,2.42,2.42,0,0,1,2.423,1.953l.006.034,0,.035a2.75,2.75,0,0,0,.231.9,1.134,1.134,0,0,0,1.1.747A1.944,1.944,0,0,0,5.7,27.8a.5.5,0,0,1,.967.257A2.9,2.9,0,0,1,3.966,30.269Z" transform="translate(-0.007 -0.638)"/>
      <path id="路径_1727" data-name="路径 1727" d="M14.645,20.7a1.9,1.9,0,0,1-1.686-1.136,3.681,3.681,0,0,1-.353-1.02L12.6,18.5c-.017-.13-.142-.7-1.046-.7a.914.914,0,0,0-.657.2.55.55,0,0,0-.1.388v-.008l-.987.164a1.545,1.545,0,0,1,.324-1.187,1.77,1.77,0,0,1,1.424-.554,1.872,1.872,0,0,1,2.041,1.59c.027.137.279,1.307,1.049,1.307.856,0,1.431-.381,1.431-.948a.5.5,0,0,1,1,0C17.076,19.687,16.315,20.7,14.645,20.7Z" transform="translate(-0.355 -0.334)"/>
      <path id="路径_1728" data-name="路径 1728" d="M22.045,30a1.9,1.9,0,0,1-1.686-1.136,3.681,3.681,0,0,1-.353-1.02L20,27.8c-.017-.13-.142-.7-1.046-.7a.914.914,0,0,0-.657.2.55.55,0,0,0-.1.388v-.008l-.987.164a1.545,1.545,0,0,1,.324-1.187,1.77,1.77,0,0,1,1.424-.554A1.872,1.872,0,0,1,21,27.689c.027.137.279,1.307,1.049,1.307.856,0,1.431-.381,1.431-.948a.5.5,0,0,1,1,0C24.476,28.987,23.715,30,22.045,30Z" transform="translate(-0.61 -0.655)"/>
      <path id="路径_1729" data-name="路径 1729" d="M32.645,20.2a1.9,1.9,0,0,1-1.686-1.136,3.681,3.681,0,0,1-.353-1.02L30.6,18c-.017-.13-.142-.7-1.046-.7a.9.9,0,0,0-.661.2.561.561,0,0,0-.1.376.5.5,0,1,1-.987.164,1.545,1.545,0,0,1,.324-1.187,1.77,1.77,0,0,1,1.424-.554,1.872,1.872,0,0,1,2.041,1.59c.027.137.279,1.307,1.049,1.307.856,0,1.431-.381,1.431-.948a.5.5,0,0,1,1,0C35.076,19.187,34.315,20.2,32.645,20.2Z" transform="translate(-0.975 -0.317)"/>
      <path id="路径_1730" data-name="路径 1730" d="M32.645,39.4a1.9,1.9,0,0,1-1.686-1.136,3.681,3.681,0,0,1-.353-1.02L30.6,37.2c-.017-.13-.142-.7-1.046-.7a.9.9,0,0,0-.661.2.561.561,0,0,0-.1.376.5.5,0,1,1-.987.165,1.545,1.545,0,0,1,.324-1.187,1.77,1.77,0,0,1,1.424-.554,1.872,1.872,0,0,1,2.041,1.59c.027.137.279,1.307,1.049,1.307.856,0,1.431-.381,1.431-.948a.5.5,0,0,1,1,0C35.076,38.387,34.315,39.4,32.645,39.4Z" transform="translate(-0.975 -0.979)"/>
      <path id="路径_1731" data-name="路径 1731" d="M42.645,30a1.9,1.9,0,0,1-1.686-1.136,3.681,3.681,0,0,1-.353-1.02L40.6,27.8c-.017-.13-.142-.7-1.046-.7a.914.914,0,0,0-.657.2.55.55,0,0,0-.1.388v-.008l-.987.164a1.546,1.546,0,0,1,.324-1.187,1.77,1.77,0,0,1,1.424-.554,1.872,1.872,0,0,1,2.041,1.59c.027.137.279,1.307,1.049,1.307.856,0,1.431-.381,1.431-.948a.5.5,0,1,1,1,0C45.076,28.987,44.315,30,42.645,30Z" transform="translate(-1.32 -0.655)"/>
      <path id="路径_1732" data-name="路径 1732" d="M42.745,9.838A1.9,1.9,0,0,1,41.059,8.7a3.681,3.681,0,0,1-.353-1.02.5.5,0,0,1,.987-.165c.006.036.245,1.321,1.051,1.321.856,0,1.431-.381,1.431-.948a.5.5,0,1,1,1,0C45.176,8.828,44.415,9.838,42.745,9.838Z" transform="translate(-1.42 0)"/>
      <path id="路径_1733" data-name="路径 1733" d="M21.245,9.838A1.9,1.9,0,0,1,19.559,8.7a3.681,3.681,0,0,1-.353-1.02.5.5,0,0,1,.987-.166h0c0,.013.238,1.321,1.052,1.321.856,0,1.431-.381,1.431-.948a.5.5,0,1,1,1,0C23.676,8.828,22.915,9.838,21.245,9.838Z" transform="translate(-0.679 0)"/>
      <path id="路径_1734" data-name="路径 1734" d="M4.445,9.838A1.9,1.9,0,0,1,2.759,8.7a3.682,3.682,0,0,1-.353-1.02.5.5,0,0,1,.987-.166h0c0,.013.238,1.321,1.052,1.321.856,0,1.431-.381,1.431-.948a.5.5,0,0,1,1,0C6.876,8.828,6.115,9.838,4.445,9.838Z" transform="translate(-0.1 0)"/>
      <path id="路径_1735" data-name="路径 1735" d="M14.645,39.4a1.9,1.9,0,0,1-1.686-1.136,3.681,3.681,0,0,1-.353-1.02L12.6,37.2c-.017-.13-.142-.7-1.046-.7a.9.9,0,0,0-.661.2.561.561,0,0,0-.1.376.5.5,0,1,1-.987.165,1.546,1.546,0,0,1,.324-1.187,1.77,1.77,0,0,1,1.424-.554,1.872,1.872,0,0,1,2.041,1.59c.027.137.279,1.307,1.049,1.307.856,0,1.431-.381,1.431-.948a.5.5,0,1,1,1,0C17.076,38.387,16.315,39.4,14.645,39.4Z" transform="translate(-0.355 -0.979)"/>
    </g>
  </g>
</svg>
