<svg xmlns="http://www.w3.org/2000/svg" width="48.711" height="48.807" viewBox="0 0 48.711 48.807">
  <g id="淤泥质土_1_" transform="translate(-3509.646 -55.646)">
    <path id="路径_3210" data-name="路径 3210" d="M0,0H48V48H0Z" transform="translate(3510 56)" fill="none"/>
    <g id="淤泥质土_1_2" data-name="淤泥质土_1_" transform="translate(3510 56)">
      <path id="直线_237" data-name="直线 237" d="M.354,48.154l-.707-.707,47.8-47.8.707.707Z" transform="translate(0 0.3)" fill="#595758"/>
      <g id="组_864" data-name="组 864">
        <g id="组_863" data-name="组 863">
          <path id="直线_238" data-name="直线 238" d="M.349,4.558l-.7-.715,4.3-4.2.7.715Z" transform="translate(16.4 43.8)" fill="#595758"/>
          <path id="直线_239" data-name="直线 239" d="M.355,11.952l-.71-.7L7.321,3.505l.71.7Z" transform="translate(28.4 24.5)" fill="#595758"/>
          <path id="直线_240" data-name="直线 240" d="M.358,4.649l-.715-.7,4.2-4.3.715.7Z" transform="translate(43.8 16.4)" fill="#595758"/>
        </g>
      </g>
      <path id="直线_241" data-name="直线 241" d="M.354,16.154l-.707-.707,15.8-15.8.707.707Z" transform="translate(32.2 32.3)" fill="#595758"/>
      <g id="组_866" data-name="组 866">
        <g id="组_865" data-name="组 865">
          <path id="直线_242" data-name="直线 242" d="M.354,4.654l-.707-.707,4.3-4.3.707.707Z" transform="translate(0 28)" fill="#595758"/>
          <path id="直线_243" data-name="直线 243" d="M.355,12.252l-.71-.7L7.525,3.6l.71.7Z" transform="translate(12.2 8.2)" fill="#595758"/>
          <path id="直线_244" data-name="直线 244" d="M.354,4.554l-.707-.707,4.2-4.2.707.707Z" transform="translate(28)" fill="#595758"/>
        </g>
      </g>
      <path id="直线_245" data-name="直线 245" d="M.354,16.354l-.707-.707,16-16,.707.707Z" transform="translate(0 0.1)" fill="#595758"/>
      <path id="路径_1474" data-name="路径 1474" d="M10.312,12.231A3.836,3.836,0,0,1,7.76,10.967c-1.134-1.039-2.093-1.507-2.7-1.319-.584.181-.769.954-.771.961l-.976-.216a2.394,2.394,0,0,1,1.44-1.7c.992-.314,2.232.2,3.686,1.535l0,0c.637.6,1.557,1.239,2.319.9a2,2,0,0,0,.983-1.409.43.43,0,0,0,.3.345l.316-.949a.577.577,0,0,1,.385.548,2.894,2.894,0,0,1-1.535,2.359A2.1,2.1,0,0,1,10.312,12.231Z" fill="#595758"/>
      <path id="路径_1475" data-name="路径 1475" d="M32.912,10.931A3.836,3.836,0,0,1,30.36,9.667c-1.134-1.039-2.093-1.507-2.7-1.319-.584.181-.769.954-.771.961l-.976-.216a2.394,2.394,0,0,1,1.44-1.7c.992-.314,2.232.2,3.686,1.535l0,0c.637.6,1.557,1.239,2.319.9a2,2,0,0,0,.983-1.409.43.43,0,0,0,.3.345l.316-.949a.577.577,0,0,1,.385.548,2.894,2.894,0,0,1-1.535,2.359A2.1,2.1,0,0,1,32.912,10.931Z" fill="#595758"/>
      <path id="路径_1476" data-name="路径 1476" d="M43.312,24.231a3.836,3.836,0,0,1-2.551-1.264c-1.137-1.042-2.1-1.51-2.707-1.317-.581.184-.764.949-.766.957l-.977-.214a2.394,2.394,0,0,1,1.44-1.7c.992-.314,2.232.2,3.686,1.535l0,0c.637.6,1.557,1.239,2.319.9a2,2,0,0,0,.983-1.409.43.43,0,0,0,.3.345l.316-.949a.577.577,0,0,1,.385.548,2.894,2.894,0,0,1-1.535,2.359A2.1,2.1,0,0,1,43.312,24.231Z" fill="#595758"/>
      <path id="路径_1477" data-name="路径 1477" d="M9.112,39.431A3.837,3.837,0,0,1,6.56,38.166c-1.137-1.042-2.1-1.509-2.706-1.317-.581.184-.764.949-.766.957l-.977-.214a2.394,2.394,0,0,1,1.44-1.7c.992-.314,2.232.2,3.686,1.535l0,0c.637.6,1.557,1.239,2.319.9a2,2,0,0,0,.983-1.409.43.43,0,0,0,.3.345l.316-.949a.577.577,0,0,1,.385.548,2.894,2.894,0,0,1-1.535,2.359A2.1,2.1,0,0,1,9.112,39.431Z" fill="#595758"/>
      <path id="路径_1478" data-name="路径 1478" d="M32.912,38.131a3.836,3.836,0,0,1-2.552-1.265c-1.134-1.039-2.093-1.507-2.7-1.319-.584.181-.769.954-.771.961l-.976-.216a2.394,2.394,0,0,1,1.44-1.7c.992-.314,2.232.2,3.686,1.535l0,0c.637.6,1.557,1.239,2.319.9a2,2,0,0,0,.983-1.409.43.43,0,0,0,.3.345l.316-.949a.577.577,0,0,1,.385.548,2.894,2.894,0,0,1-1.535,2.359A2.1,2.1,0,0,1,32.912,38.131Z" fill="#595758"/>
      <path id="路径_1479" data-name="路径 1479" d="M18.712,25.131a3.836,3.836,0,0,1-2.552-1.265c-1.134-1.039-2.093-1.507-2.7-1.319-.584.181-.769.954-.771.961l-.976-.216a2.394,2.394,0,0,1,1.44-1.7c.992-.314,2.232.2,3.686,1.535l0,0c.637.6,1.557,1.239,2.319.9a2,2,0,0,0,.983-1.409.43.43,0,0,0,.3.345l.316-.949a.577.577,0,0,1,.385.548,2.894,2.894,0,0,1-1.535,2.359A2.1,2.1,0,0,1,18.712,25.131Z" fill="#595758"/>
    </g>
  </g>
</svg>
