<svg xmlns="http://www.w3.org/2000/svg" width="48.707" height="48.607" viewBox="0 0 48.707 48.607">
  <g id="淤泥质粘质粉土夹粉砂" transform="translate(-4784.646 -55.646)">
    <path id="路径_3232" data-name="路径 3232" d="M0,0H48V48H0Z" transform="translate(4785 56)" fill="none"/>
    <g id="淤泥质粘质粉土夹粉砂-2" data-name="淤泥质粘质粉土夹粉砂" transform="translate(4785 56)">
      <path id="路径_1818" data-name="路径 1818" d="M13.112,40.431a3.837,3.837,0,0,1-2.552-1.265c-1.137-1.042-2.1-1.509-2.706-1.317-.581.184-.764.949-.766.957l-.977-.214a2.394,2.394,0,0,1,1.44-1.7c.992-.314,2.232.2,3.686,1.535l0,0c.637.6,1.557,1.239,2.319.9a2,2,0,0,0,.983-1.409.43.43,0,0,0,.3.345l.316-.949a.577.577,0,0,1,.385.548,2.894,2.894,0,0,1-1.535,2.359A2.1,2.1,0,0,1,13.112,40.431Z" fill="#595758"/>
      <g id="组_1001" data-name="组 1001">
        <g id="组_992" data-name="组 992">
          <g id="组_991" data-name="组 991">
            <path id="直线_430" data-name="直线 430" d="M.354,4.554l-.707-.707,4.2-4.2.707.707Z" transform="translate(0 43.7)" fill="#595758"/>
            <path id="直线_431" data-name="直线 431" d="M.354,27.854l-.707-.707,7.863-7.863.707.707ZM16.079,12.128l-.707-.707,7.863-7.863.707.707Z" transform="translate(12.1 8.3)" fill="#595758"/>
            <path id="直线_432" data-name="直线 432" d="M.354,4.554l-.707-.707,4.2-4.2.707.707Z" transform="translate(43.6 0.1)" fill="#595758"/>
          </g>
        </g>
        <g id="组_994" data-name="组 994">
          <g id="组_993" data-name="组 993">
            <path id="直线_433" data-name="直线 433" d="M.354,4.554l-.707-.707,4.2-4.2.707.707Z" transform="translate(32.2 43.7)" fill="#595758"/>
            <path id="直线_434" data-name="直线 434" d="M.354,4.554l-.707-.707,4.2-4.2.707.707Z" transform="translate(43.8 32.1)" fill="#595758"/>
          </g>
        </g>
        <g id="组_996" data-name="组 996">
          <g id="组_995" data-name="组 995">
            <path id="直线_435" data-name="直线 435" d="M.354,4.554l-.707-.707,4.2-4.2.707.707Z" transform="translate(0 11.8)" fill="#595758"/>
            <path id="直线_436" data-name="直线 436" d="M.354,4.554l-.707-.707,4.2-4.2.707.707Z" transform="translate(11.8)" fill="#595758"/>
          </g>
        </g>
        <g id="组_998" data-name="组 998">
          <g id="组_997" data-name="组 997">
            <path id="直线_437" data-name="直线 437" d="M.354,4.554l-.707-.707,4.2-4.2.707.707Z" transform="translate(0.1 27.4)" fill="#595758"/>
            <path id="直线_438" data-name="直线 438" d="M.355,11.852l-.71-.7L7.266,3.46l.71.7Z" transform="translate(12 8.2)" fill="#595758"/>
            <path id="直线_439" data-name="直线 439" d="M.354,4.554l-.707-.707,4.2-4.2.707.707Z" transform="translate(27.3 0.1)" fill="#595758"/>
          </g>
        </g>
        <g id="组_1000" data-name="组 1000">
          <g id="组_999" data-name="组 999">
            <path id="直线_440" data-name="直线 440" d="M.354,4.554l-.707-.707,4.2-4.2.707.707Z" transform="translate(16.5 43.7)" fill="#595758"/>
            <path id="直线_441" data-name="直线 441" d="M.354,11.754l-.707-.707L7.285,3.408l.707.707Z" transform="translate(28.4 24.6)" fill="#595758"/>
            <path id="直线_442" data-name="直线 442" d="M.354,4.554l-.707-.707,4.2-4.2.707.707Z" transform="translate(43.7 16.5)" fill="#595758"/>
          </g>
        </g>
      </g>
      <g id="组_1002" data-name="组 1002">
        <path id="路径_1819" data-name="路径 1819" d="M8.7,11.1H7.5A1.216,1.216,0,0,1,6.3,9.9h0A1.216,1.216,0,0,1,7.5,8.7H8.6A1.216,1.216,0,0,1,9.8,9.9h0C9.7,10.6,9.3,11.1,8.7,11.1Z"/>
        <path id="路径_1820" data-name="路径 1820" d="M24.4,11.2H23.2A1.216,1.216,0,0,1,22,10h0a1.216,1.216,0,0,1,1.2-1.2h1.2A1.216,1.216,0,0,1,25.6,10h0A1.216,1.216,0,0,1,24.4,11.2Z"/>
        <path id="路径_1821" data-name="路径 1821" d="M40.6,11.2H39.4A1.216,1.216,0,0,1,38.2,10h0a1.216,1.216,0,0,1,1.2-1.2h1.2A1.216,1.216,0,0,1,41.8,10h0A1.216,1.216,0,0,1,40.6,11.2Z"/>
        <path id="路径_1822" data-name="路径 1822" d="M13.012,8.631A3.836,3.836,0,0,1,10.46,7.367c-1.134-1.039-2.093-1.507-2.7-1.319-.584.181-.769.954-.771.961l-.976-.216a2.394,2.394,0,0,1,1.44-1.7c.992-.314,2.232.2,3.686,1.535l0,0c.637.6,1.557,1.239,2.319.9a2,2,0,0,0,.983-1.409.43.43,0,0,0,.3.345l.316-.949a.577.577,0,0,1,.385.548,2.894,2.894,0,0,1-1.535,2.359A2.1,2.1,0,0,1,13.012,8.631Z" fill="#595758"/>
        <path id="路径_1823" data-name="路径 1823" d="M28.812,8.731A3.836,3.836,0,0,1,26.26,7.467c-1.134-1.039-2.093-1.507-2.7-1.319-.584.181-.769.954-.771.961l-.976-.216a2.394,2.394,0,0,1,1.44-1.7c.992-.314,2.232.2,3.686,1.535l0,0c.637.6,1.557,1.239,2.319.9a2,2,0,0,0,.983-1.409.43.43,0,0,0,.3.345l.316-.949a.577.577,0,0,1,.385.548,2.894,2.894,0,0,1-1.535,2.359A2.1,2.1,0,0,1,28.812,8.731Z" fill="#595758"/>
        <path id="路径_1824" data-name="路径 1824" d="M44.912,8.731A3.836,3.836,0,0,1,42.36,7.467c-1.134-1.039-2.093-1.507-2.7-1.319-.584.181-.769.954-.771.961l-.976-.216a2.394,2.394,0,0,1,1.44-1.7c.992-.314,2.232.2,3.686,1.535l0,0c.637.6,1.557,1.239,2.319.9a2,2,0,0,0,.983-1.409.43.43,0,0,0,.3.345l.316-.949a.577.577,0,0,1,.385.548,2.894,2.894,0,0,1-1.535,2.359A2.1,2.1,0,0,1,44.912,8.731Z" fill="#595758"/>
        <path id="路径_1825" data-name="路径 1825" d="M8.7,27H7.5a1.216,1.216,0,0,1-1.2-1.2h0a1.216,1.216,0,0,1,1.2-1.2H8.6a1.216,1.216,0,0,1,1.2,1.2h0C9.7,26.5,9.3,27,8.7,27Z"/>
        <path id="路径_1826" data-name="路径 1826" d="M24.4,27.2H23.2A1.216,1.216,0,0,1,22,26h0a1.216,1.216,0,0,1,1.2-1.2h1.2A1.216,1.216,0,0,1,25.6,26h0A1.216,1.216,0,0,1,24.4,27.2Z"/>
        <path id="路径_1827" data-name="路径 1827" d="M40.6,27.2H39.4A1.216,1.216,0,0,1,38.2,26h0a1.216,1.216,0,0,1,1.2-1.2h1.2A1.216,1.216,0,0,1,41.8,26h0A1.216,1.216,0,0,1,40.6,27.2Z"/>
        <path id="路径_1828" data-name="路径 1828" d="M13.012,24.531a3.836,3.836,0,0,1-2.552-1.265c-1.134-1.039-2.093-1.507-2.7-1.319-.584.181-.769.954-.771.961l-.976-.216A2.394,2.394,0,0,1,7.452,21c.992-.314,2.232.2,3.686,1.535l0,0c.637.6,1.557,1.239,2.319.9a2,2,0,0,0,.983-1.409.43.43,0,0,0,.3.345l.316-.949a.577.577,0,0,1,.385.548,2.894,2.894,0,0,1-1.535,2.359A2.1,2.1,0,0,1,13.012,24.531Z" fill="#595758"/>
        <path id="路径_1829" data-name="路径 1829" d="M28.812,24.731a3.836,3.836,0,0,1-2.552-1.265c-1.134-1.039-2.093-1.507-2.7-1.319-.584.181-.769.954-.771.961l-.976-.216a2.394,2.394,0,0,1,1.44-1.7c.992-.314,2.232.2,3.686,1.535l0,0c.637.6,1.557,1.239,2.319.9a2,2,0,0,0,.983-1.409.43.43,0,0,0,.3.345l.316-.949a.577.577,0,0,1,.385.548,2.894,2.894,0,0,1-1.535,2.359A2.1,2.1,0,0,1,28.812,24.731Z" fill="#595758"/>
        <path id="路径_1830" data-name="路径 1830" d="M44.912,24.731a3.836,3.836,0,0,1-2.552-1.265c-1.134-1.039-2.093-1.507-2.7-1.319-.584.181-.769.954-.771.961l-.976-.216a2.394,2.394,0,0,1,1.44-1.7c.992-.314,2.232.2,3.686,1.535l0,0c.637.6,1.557,1.239,2.319.9a2,2,0,0,0,.983-1.409.43.43,0,0,0,.3.345l.316-.949a.577.577,0,0,1,.385.548,2.894,2.894,0,0,1-1.535,2.359A2.1,2.1,0,0,1,44.912,24.731Z" fill="#595758"/>
        <path id="路径_1831" data-name="路径 1831" d="M8.7,42.9H7.5a1.216,1.216,0,0,1-1.2-1.2h0a1.216,1.216,0,0,1,1.2-1.2H8.6a1.216,1.216,0,0,1,1.2,1.2h0C9.7,42.4,9.3,42.9,8.7,42.9Z"/>
        <path id="路径_1832" data-name="路径 1832" d="M24.4,43.1H23.2A1.216,1.216,0,0,1,22,41.9h0a1.216,1.216,0,0,1,1.2-1.2h1.2a1.216,1.216,0,0,1,1.2,1.2h0A1.216,1.216,0,0,1,24.4,43.1Z"/>
        <path id="路径_1833" data-name="路径 1833" d="M40.6,43.1H39.4a1.216,1.216,0,0,1-1.2-1.2h0a1.216,1.216,0,0,1,1.2-1.2h1.2a1.216,1.216,0,0,1,1.2,1.2h0A1.216,1.216,0,0,1,40.6,43.1Z"/>
        <path id="路径_1834" data-name="路径 1834" d="M13.012,40.431a3.837,3.837,0,0,1-2.552-1.265c-1.134-1.039-2.093-1.507-2.7-1.318-.584.181-.769.954-.771.961l-.976-.216a2.394,2.394,0,0,1,1.44-1.7c.992-.314,2.232.2,3.686,1.535l0,0c.637.6,1.557,1.239,2.319.9a2,2,0,0,0,.983-1.408.43.43,0,0,0,.3.345l.316-.949a.577.577,0,0,1,.385.548,2.894,2.894,0,0,1-1.535,2.359A2.1,2.1,0,0,1,13.012,40.431Z" fill="#595758"/>
        <path id="路径_1835" data-name="路径 1835" d="M28.812,40.631a3.836,3.836,0,0,1-2.552-1.265c-1.137-1.042-2.1-1.51-2.706-1.317-.581.184-.764.949-.766.957l-.977-.214a2.394,2.394,0,0,1,1.44-1.7c.992-.314,2.232.2,3.686,1.535l0,0c.637.6,1.557,1.239,2.319.9a2,2,0,0,0,.983-1.409.43.43,0,0,0,.3.345l.316-.949a.577.577,0,0,1,.385.548,2.894,2.894,0,0,1-1.535,2.359A2.1,2.1,0,0,1,28.812,40.631Z" fill="#595758"/>
        <path id="路径_1836" data-name="路径 1836" d="M44.912,40.631a3.836,3.836,0,0,1-2.552-1.265c-1.137-1.042-2.1-1.51-2.706-1.317-.581.184-.764.949-.766.957l-.977-.214a2.394,2.394,0,0,1,1.44-1.7c.992-.314,2.232.2,3.686,1.535l0,0c.637.6,1.557,1.239,2.319.9a2,2,0,0,0,.983-1.409.43.43,0,0,0,.3.345l.316-.949a.577.577,0,0,1,.385.548,2.894,2.894,0,0,1-1.535,2.359A2.1,2.1,0,0,1,44.912,40.631Z" fill="#595758"/>
      </g>
    </g>
  </g>
</svg>
