<svg xmlns="http://www.w3.org/2000/svg" width="49.586" height="49.38" viewBox="0 0 49.586 49.38">
  <g id="淤泥质砂质粉土" transform="translate(-3743.646 -55.467)">
    <path id="路径_3214" data-name="路径 3214" d="M0,0H48V48H0Z" transform="translate(3744 56)" fill="none"/>
    <g id="淤泥质砂质粉土-2" data-name="淤泥质砂质粉土" transform="translate(3744.3 56.1)">
      <path id="路径_1524" data-name="路径 1524" d="M13.112,8.531A3.836,3.836,0,0,1,10.56,7.267c-1.137-1.042-2.1-1.51-2.706-1.317-.581.184-.764.949-.766.957l-.977-.214A2.394,2.394,0,0,1,7.552,5c.992-.314,2.232.2,3.686,1.535l0,0c.637.6,1.557,1.239,2.319.9a2,2,0,0,0,.983-1.409.43.43,0,0,0,.3.345l.316-.949a.577.577,0,0,1,.385.548,2.894,2.894,0,0,1-1.535,2.359A2.1,2.1,0,0,1,13.112,8.531Z" fill="#595758"/>
      <path id="路径_1525" data-name="路径 1525" d="M28.912,8.631A3.836,3.836,0,0,1,26.36,7.367c-1.134-1.039-2.093-1.507-2.7-1.319-.584.181-.769.954-.771.961l-.976-.216a2.394,2.394,0,0,1,1.44-1.7c.992-.314,2.232.2,3.686,1.535l0,0c.637.6,1.557,1.239,2.319.9a2,2,0,0,0,.983-1.409.43.43,0,0,0,.3.345l.316-.949a.577.577,0,0,1,.385.548,2.894,2.894,0,0,1-1.535,2.359A2.1,2.1,0,0,1,28.912,8.631Z" fill="#595758"/>
      <path id="路径_1526" data-name="路径 1526" d="M45.012,8.631A3.836,3.836,0,0,1,42.46,7.367c-1.137-1.042-2.1-1.51-2.706-1.317-.581.184-.764.949-.766.957l-.977-.214a2.394,2.394,0,0,1,1.44-1.7c.992-.314,2.232.2,3.686,1.535l0,0c.637.6,1.557,1.239,2.319.9a2,2,0,0,0,.983-1.409.43.43,0,0,0,.3.345l.316-.949a.577.577,0,0,1,.385.548,2.894,2.894,0,0,1-1.535,2.359A2.1,2.1,0,0,1,45.012,8.631Z" fill="#595758"/>
      <path id="路径_1527" data-name="路径 1527" d="M13.112,24.431a3.836,3.836,0,0,1-2.552-1.265c-1.137-1.042-2.1-1.51-2.706-1.317-.581.184-.764.949-.766.957l-.977-.214a2.394,2.394,0,0,1,1.44-1.7c.992-.314,2.232.2,3.686,1.535l0,0c.637.6,1.557,1.239,2.319.9a2,2,0,0,0,.983-1.409.43.43,0,0,0,.3.345l.316-.949a.577.577,0,0,1,.385.548,2.894,2.894,0,0,1-1.535,2.359A2.1,2.1,0,0,1,13.112,24.431Z" fill="#595758"/>
      <path id="路径_1528" data-name="路径 1528" d="M28.912,24.631a3.836,3.836,0,0,1-2.552-1.265c-1.137-1.042-2.1-1.51-2.706-1.317-.581.184-.764.949-.766.957l-.977-.214a2.394,2.394,0,0,1,1.44-1.7c.992-.314,2.232.2,3.686,1.535l0,0c.637.6,1.557,1.239,2.319.9a2,2,0,0,0,.983-1.409.43.43,0,0,0,.3.345l.316-.949a.577.577,0,0,1,.385.548,2.894,2.894,0,0,1-1.535,2.359A2.1,2.1,0,0,1,28.912,24.631Z" fill="#595758"/>
      <path id="路径_1529" data-name="路径 1529" d="M45.012,24.631a3.836,3.836,0,0,1-2.552-1.265c-1.137-1.042-2.1-1.51-2.706-1.317-.581.184-.764.949-.766.957l-.977-.214a2.394,2.394,0,0,1,1.44-1.7c.992-.314,2.232.2,3.686,1.535l0,0c.637.6,1.557,1.239,2.319.9a2,2,0,0,0,.983-1.409.43.43,0,0,0,.3.345l.316-.949a.577.577,0,0,1,.385.548,2.894,2.894,0,0,1-1.535,2.359A2.1,2.1,0,0,1,45.012,24.631Z" fill="#595758"/>
      <path id="路径_1530" data-name="路径 1530" d="M13.112,40.431a3.837,3.837,0,0,1-2.552-1.265c-1.137-1.042-2.1-1.509-2.706-1.317-.581.184-.764.949-.766.957l-.977-.214a2.394,2.394,0,0,1,1.44-1.7c.992-.314,2.232.2,3.686,1.535l0,0c.637.6,1.557,1.239,2.319.9a2,2,0,0,0,.983-1.409.43.43,0,0,0,.3.345l.316-.949a.577.577,0,0,1,.385.548,2.894,2.894,0,0,1-1.535,2.359A2.1,2.1,0,0,1,13.112,40.431Z" fill="#595758"/>
      <path id="路径_1531" data-name="路径 1531" d="M28.912,40.531a3.837,3.837,0,0,1-2.552-1.265c-1.134-1.039-2.093-1.507-2.7-1.318-.584.181-.769.954-.771.961l-.976-.216a2.394,2.394,0,0,1,1.44-1.7c.992-.314,2.232.2,3.686,1.535l0,0c.637.6,1.557,1.239,2.319.9a2,2,0,0,0,.983-1.409.43.43,0,0,0,.3.345l.316-.949a.577.577,0,0,1,.385.548,2.894,2.894,0,0,1-1.535,2.359A2.1,2.1,0,0,1,28.912,40.531Z" fill="#595758"/>
      <path id="路径_1532" data-name="路径 1532" d="M45.012,40.531a3.837,3.837,0,0,1-2.552-1.265c-1.137-1.042-2.1-1.509-2.706-1.317-.581.184-.764.949-.766.957l-.977-.214a2.394,2.394,0,0,1,1.44-1.7c.992-.314,2.232.2,3.686,1.535l0,0c.637.6,1.557,1.239,2.319.9a2,2,0,0,0,.983-1.408.43.43,0,0,0,.3.345l.316-.949a.577.577,0,0,1,.385.548,2.894,2.894,0,0,1-1.535,2.359A2.1,2.1,0,0,1,45.012,40.531Z" fill="#595758"/>
      <path id="直线_256" data-name="直线 256" d="M.085,31.947a.633.633,0,0,1-.447-1.08l.7-.7a.633.633,0,1,1,.894.894l-.7.7A.631.631,0,0,1,.085,31.947Zm2.784-2.784a.632.632,0,0,1-.447-1.08l.7-.7a.632.632,0,1,1,.894.894l-.7.7A.631.631,0,0,1,2.869,29.164ZM5.652,26.38a.633.633,0,0,1-.447-1.08l.7-.7A.632.632,0,1,1,6.8,25.5l-.7.7A.631.631,0,0,1,5.652,26.38ZM8.436,23.6a.632.632,0,0,1-.447-1.08l.7-.7a.633.633,0,0,1,.894.894l-.7.7A.631.631,0,0,1,8.436,23.6Zm2.784-2.784a.633.633,0,0,1-.447-1.08l.7-.7a.633.633,0,0,1,.894.894l-.7.7A.631.631,0,0,1,11.219,20.813ZM14,18.03a.633.633,0,0,1-.447-1.08l.7-.7a.632.632,0,0,1,.894.894l-.7.7A.631.631,0,0,1,14,18.03Zm2.784-2.784a.632.632,0,0,1-.447-1.08l.7-.7a.633.633,0,0,1,.894.894l-.7.7A.631.631,0,0,1,16.787,15.246Zm2.784-2.784a.633.633,0,0,1-.447-1.08l.7-.7a.633.633,0,0,1,.894.894l-.7.7A.631.631,0,0,1,19.57,12.462Zm2.784-2.784a.632.632,0,0,1-.447-1.08l.7-.7A.632.632,0,1,1,23.5,8.8l-.7.7A.631.631,0,0,1,22.354,9.679ZM25.137,6.9a.633.633,0,0,1-.447-1.08l.7-.7a.632.632,0,1,1,.894.894l-.7.7A.631.631,0,0,1,25.137,6.9Zm2.784-2.784a.633.633,0,0,1-.447-1.08l.7-.7a.633.633,0,0,1,.894.894l-.7.7A.631.631,0,0,1,27.921,4.112ZM30.7,1.328a.633.633,0,0,1-.447-1.08l.7-.7a.633.633,0,0,1,.895,0,.633.633,0,0,1,0,.894l-.7.7A.631.631,0,0,1,30.7,1.328Z" fill="#595758"/>
      <path id="直线_257" data-name="直线 257" d="M.086,31.847A.633.633,0,0,1-.36,30.766l.7-.694a.633.633,0,0,1,.892.9l-.7.694A.631.631,0,0,1,.086,31.847Zm2.792-2.775a.632.632,0,0,1-.446-1.081l.7-.694a.632.632,0,1,1,.892.9l-.7.694A.631.631,0,0,1,2.878,29.073ZM5.671,26.3a.632.632,0,0,1-.446-1.081l.7-.694a.633.633,0,1,1,.892.9l-.7.694A.631.631,0,0,1,5.671,26.3Zm2.792-2.775a.633.633,0,0,1-.446-1.081l.7-.694a.632.632,0,1,1,.892.9l-.7.694A.631.631,0,0,1,8.463,23.523Zm2.792-2.775a.632.632,0,0,1-.446-1.081l.7-.694a.632.632,0,0,1,.892.9l-.7.694A.631.631,0,0,1,11.255,20.749Zm2.792-2.775a.633.633,0,0,1-.446-1.081l.7-.694a.632.632,0,1,1,.892.9l-.7.694A.631.631,0,0,1,14.048,17.974ZM16.84,15.2a.633.633,0,0,1-.446-1.081l.7-.694a.632.632,0,1,1,.892.9l-.7.694A.631.631,0,0,1,16.84,15.2Zm2.792-2.775a.632.632,0,0,1-.446-1.081l.7-.694a.632.632,0,0,1,.892.9l-.7.694A.631.631,0,0,1,19.632,12.425ZM22.425,9.65a.633.633,0,0,1-.446-1.081l.7-.694a.633.633,0,1,1,.892.9l-.7.694A.631.631,0,0,1,22.425,9.65Zm2.792-2.775a.632.632,0,0,1-.446-1.081l.7-.694a.632.632,0,0,1,.892.9l-.7.694A.631.631,0,0,1,25.217,6.875ZM28.01,4.1a.633.633,0,0,1-.446-1.081l.7-.694a.632.632,0,0,1,.892.9l-.7.694A.631.631,0,0,1,28.01,4.1ZM30.8,1.326A.632.632,0,0,1,30.356.245l.7-.694a.633.633,0,0,1,.894,0,.633.633,0,0,1,0,.894l-.7.694A.631.631,0,0,1,30.8,1.326Z" transform="translate(16.8 16.9)" fill="#595758"/>
      <g id="组_870" data-name="组 870">
        <g id="组_869" data-name="组 869">
          <path id="直线_258" data-name="直线 258" d="M.354,3.854l-.707-.707,3.5-3.5.707.707Z" transform="translate(-0.3 12.5)" fill="#595758"/>
          <path id="直线_259" data-name="直线 259" d="M.354,3.854l-.707-.707,3.5-3.5.707.707Z" transform="translate(12.2)" fill="#595758"/>
        </g>
      </g>
      <g id="组_872" data-name="组 872">
        <g id="组_871" data-name="组 871">
          <path id="直线_260" data-name="直线 260" d="M.354,3.854l-.707-.707,3.5-3.5.707.707Z" transform="translate(32.2 44.5)" fill="#595758"/>
          <path id="直线_261" data-name="直线 261" d="M.354,3.854l-.707-.707,3.5-3.5.707.707Z" transform="translate(44.7 32)" fill="#595758"/>
        </g>
      </g>
      <g id="组_873" data-name="组 873">
        <path id="直线_262" data-name="直线 262" d="M.354,38.054l-.707-.707,7.071-7.071.707.707Zm9.9-9.9-.707-.707,7.071-7.071.707.707Zm9.9-9.9-.707-.707,7.071-7.071.707.707Zm9.9-9.9-.707-.707L36.416.577l.707.707Z" transform="translate(5.8 4.7)" fill="#595758"/>
        <path id="直线_263" data-name="直线 263" d="M.349,3.859l-.7-.717,3.6-3.5.7.717Z" transform="translate(-0.1 44.5)" fill="#595758"/>
        <path id="直线_264" data-name="直线 264" d="M.354,3.854l-.707-.707,3.5-3.5.707.707Z" transform="translate(44.5 -0.1)" fill="#595758"/>
      </g>
    </g>
  </g>
</svg>
