<?xml version="1.0" encoding="utf-8"?>
<!-- Generator: Adobe Illustrator 22.1.0, SVG Export Plug-In . SVG Version: 6.00 Build 0)  -->
<svg version="1.1" id="图层_1" xmlns="http://www.w3.org/2000/svg" xmlns:xlink="http://www.w3.org/1999/xlink" x="0px" y="0px"
	 viewBox="0 0 48 48" style="enable-background:new 0 0 48 48;" xml:space="preserve">
<style type="text/css">
	.st0{fill:none;stroke:#595758;stroke-miterlimit:10;}
	.st1{fill:none;stroke:#595758;stroke-miterlimit:10;stroke-dasharray:10.9025,10.9025;}
	.st2{fill:none;stroke:#595758;stroke-miterlimit:10;stroke-dasharray:11.1913,11.1913;}
</style>
<g id="淤泥质土_1_">
	<line class="st0" x1="0" y1="48.1" x2="47.8" y2="0.3"/>
	<g>
		<g>
			<line class="st0" x1="16.4" y1="48" x2="20.7" y2="43.8"/>
			<line class="st1" x1="28.4" y1="36.1" x2="39.9" y2="24.5"/>
			<line class="st0" x1="43.8" y1="20.7" x2="48" y2="16.4"/>
		</g>
	</g>
	<line class="st0" x1="32.2" y1="48.1" x2="48" y2="32.3"/>
	<g>
		<g>
			<line class="st0" x1="0" y1="32.3" x2="4.3" y2="28"/>
			<line class="st2" x1="12.2" y1="20.1" x2="24" y2="8.2"/>
			<line class="st0" x1="28" y1="4.2" x2="32.2" y2="0"/>
		</g>
	</g>
	<line class="st0" x1="0" y1="16.1" x2="16" y2="0.1"/>
	<path class="st0" d="M3.8,10.5c0,0,0.7-3.2,4.3,0.1c3.2,3,4.4-0.9,4.1-1"/>
	<path class="st0" d="M26.4,9.2c0,0,0.7-3.2,4.3,0.1c3.2,3,4.4-0.9,4.1-1"/>
	<path class="st0" d="M36.8,22.5c0,0,0.7-3.2,4.3,0.1c3.2,3,4.4-0.9,4.1-1"/>
	<path class="st0" d="M2.6,37.7c0,0,0.7-3.2,4.3,0.1c3.2,3,4.4-0.9,4.1-1"/>
	<path class="st0" d="M26.4,36.4c0,0,0.7-3.2,4.3,0.1c3.2,3,4.4-0.9,4.1-1"/>
	<path class="st0" d="M12.2,23.4c0,0,0.7-3.2,4.3,0.1c3.2,3,4.4-0.9,4.1-1"/>
</g>
</svg>
