<?xml version="1.0" encoding="utf-8"?>
<!-- Generator: Adobe Illustrator 21.0.0, SVG Export Plug-In . SVG Version: 6.00 Build 0)  -->
<svg version="1.1" id="图层_1" xmlns="http://www.w3.org/2000/svg" xmlns:xlink="http://www.w3.org/1999/xlink" x="0px" y="0px"
	 width="48px" height="48px" viewBox="0 0 48 48" style="enable-background:new 0 0 48 48;" xml:space="preserve">
<style type="text/css">
	.st0{fill:none;stroke:#595758;stroke-miterlimit:10;}
</style>
<line class="st0" x1="0" y1="48.1" x2="47.8" y2="0.3"/>
<line class="st0" x1="32.2" y1="48.1" x2="48" y2="32.3"/>
<g>
	<line class="st0" x1="0" y1="32.3" x2="32.5" y2="-0.2"/>
</g>
<g>
	<line class="st0" x1="15.6" y1="47.8" x2="48.1" y2="15.3"/>
</g>
<line class="st0" x1="0" y1="16.1" x2="16" y2="0.1"/>
<path class="st0" d="M3.8,10.5c0,0,0.7-3.2,4.3,0.1c3.2,3,4.4-0.9,4.1-1"/>
<path class="st0" d="M26.4,9.2c0,0,0.7-3.2,4.3,0.1c3.2,3,4.4-0.9,4.1-1"/>
<path class="st0" d="M36.8,22.5c0,0,0.7-3.2,4.3,0.1c3.2,3,4.4-0.9,4.1-1"/>
<path class="st0" d="M2.6,37.7c0,0,0.7-3.2,4.3,0.1c3.2,3,4.4-0.9,4.1-1"/>
<path class="st0" d="M26.4,36.4c0,0,0.7-3.2,4.3,0.1c3.2,3,4.4-0.9,4.1-1"/>
<path class="st0" d="M12.2,23.4c0,0,0.7-3.2,4.3,0.1c3.2,3,4.4-0.9,4.1-1"/>
<g>
	<line class="st0" x1="8.2" y1="3.1" x2="12.2" y2="6.7"/>
	<line class="st0" x1="6.3" y1="4.9" x2="10.4" y2="8.6"/>
	<line class="st0" x1="4.5" y1="6.8" x2="8.5" y2="10.4"/>
</g>
<g>
	<line class="st0" x1="8.2" y1="20.1" x2="12.2" y2="23.7"/>
	<line class="st0" x1="6.3" y1="21.9" x2="10.4" y2="25.5"/>
	<line class="st0" x1="4.5" y1="23.8" x2="8.5" y2="27.4"/>
</g>
<g>
	<line class="st0" x1="8.2" y1="35.7" x2="12.2" y2="39.4"/>
	<line class="st0" x1="6.3" y1="37.5" x2="10.4" y2="41.2"/>
	<line class="st0" x1="4.5" y1="39.4" x2="8.5" y2="43.1"/>
</g>
<g>
	<line class="st0" x1="24.4" y1="2.4" x2="28.4" y2="6.1"/>
	<line class="st0" x1="22.5" y1="4.3" x2="26.6" y2="7.9"/>
	<line class="st0" x1="20.7" y1="6.1" x2="24.7" y2="9.8"/>
</g>
<g>
	<line class="st0" x1="24.4" y1="19.4" x2="28.4" y2="23"/>
	<line class="st0" x1="22.5" y1="21.2" x2="26.6" y2="24.8"/>
	<line class="st0" x1="20.7" y1="23.1" x2="24.7" y2="26.7"/>
</g>
<g>
	<line class="st0" x1="24.4" y1="35.1" x2="28.4" y2="38.7"/>
	<line class="st0" x1="22.5" y1="36.9" x2="26.6" y2="40.5"/>
	<line class="st0" x1="20.7" y1="38.8" x2="24.7" y2="42.4"/>
</g>
<g>
	<line class="st0" x1="41.2" y1="2.1" x2="45.2" y2="5.7"/>
	<line class="st0" x1="39.3" y1="3.9" x2="43.4" y2="7.5"/>
	<line class="st0" x1="37.5" y1="5.8" x2="41.5" y2="9.4"/>
</g>
<g>
	<line class="st0" x1="41.2" y1="19" x2="45.2" y2="22.6"/>
	<line class="st0" x1="39.3" y1="20.8" x2="43.4" y2="24.5"/>
	<line class="st0" x1="37.5" y1="22.7" x2="41.5" y2="26.3"/>
</g>
<g>
	<line class="st0" x1="41.2" y1="34.7" x2="45.2" y2="38.3"/>
	<line class="st0" x1="39.3" y1="36.5" x2="43.4" y2="40.1"/>
	<line class="st0" x1="37.5" y1="38.4" x2="41.5" y2="42"/>
</g>
</svg>
