<svg xmlns="http://www.w3.org/2000/svg" width="49.311" height="49.21" viewBox="0 0 49.311 49.21">
  <g id="淤泥质粘土与粉砂互层" transform="translate(-4492.642 -55.642)">
    <path id="路径_3227" data-name="路径 3227" d="M0,0H48V48H0Z" transform="translate(4493 56)" fill="none"/>
    <g id="淤泥质粘土与粉砂互层-2" data-name="淤泥质粘土与粉砂互层" transform="translate(4493.3 56.2)">
      <path id="直线_389" data-name="直线 389" d="M.354,48.154l-.707-.707,47.8-47.8.707.707Z" transform="translate(0 0.3)" fill="#595758"/>
      <path id="直线_390" data-name="直线 390" d="M.358,32.958l-.715-.715,32.6-32.6.715.715Z" transform="translate(-0.3 -0.2)" fill="#595758"/>
      <path id="直线_391" data-name="直线 391" d="M.353,32.552l-.706-.7,32.1-32.2.706.7Z" transform="translate(16.2 16.1)" fill="#595758"/>
      <path id="直线_392" data-name="直线 392" d="M.354,16.154l-.707-.707,15.8-15.8.707.707Z" transform="translate(32.2 32.3)" fill="#595758"/>
      <path id="直线_393" data-name="直线 393" d="M.354,16.354l-.707-.707,16-16,.707.707Z" transform="translate(0 0.1)" fill="#595758"/>
      <path id="路径_1736" data-name="路径 1736" d="M8.8,11.1H7.6A1.216,1.216,0,0,1,6.4,9.9h0A1.216,1.216,0,0,1,7.6,8.7H8.7A1.216,1.216,0,0,1,9.9,9.9h0C9.8,10.6,9.4,11.1,8.8,11.1Z"/>
      <path id="路径_1737" data-name="路径 1737" d="M24.5,11.2H23.3A1.216,1.216,0,0,1,22.1,10h0a1.216,1.216,0,0,1,1.2-1.2h1.2A1.216,1.216,0,0,1,25.7,10h0A1.216,1.216,0,0,1,24.5,11.2Z"/>
      <path id="路径_1738" data-name="路径 1738" d="M40.7,11.2H39.5A1.216,1.216,0,0,1,38.3,10h0a1.216,1.216,0,0,1,1.2-1.2h1.2A1.216,1.216,0,0,1,41.9,10h0A1.216,1.216,0,0,1,40.7,11.2Z"/>
      <path id="路径_1739" data-name="路径 1739" d="M13.112,8.631A3.836,3.836,0,0,1,10.56,7.367c-1.137-1.042-2.1-1.51-2.706-1.317-.581.184-.764.949-.766.957l-.977-.214a2.394,2.394,0,0,1,1.44-1.7c.992-.314,2.232.2,3.686,1.535l0,0c.637.6,1.557,1.239,2.319.9a2,2,0,0,0,.983-1.409.43.43,0,0,0,.3.345l.316-.949a.577.577,0,0,1,.385.548,2.894,2.894,0,0,1-1.535,2.359A2.1,2.1,0,0,1,13.112,8.631Z" fill="#595758"/>
      <path id="路径_1740" data-name="路径 1740" d="M28.912,8.731A3.836,3.836,0,0,1,26.36,7.467c-1.137-1.042-2.1-1.51-2.706-1.317-.581.184-.764.949-.766.957l-.977-.214a2.394,2.394,0,0,1,1.44-1.7c.992-.314,2.232.2,3.686,1.535l0,0c.637.6,1.557,1.239,2.319.9a2,2,0,0,0,.983-1.409.43.43,0,0,0,.3.345l.316-.949a.577.577,0,0,1,.385.548,2.894,2.894,0,0,1-1.535,2.359A2.1,2.1,0,0,1,28.912,8.731Z" fill="#595758"/>
      <path id="路径_1741" data-name="路径 1741" d="M45.012,8.731A3.836,3.836,0,0,1,42.46,7.467c-1.134-1.039-2.093-1.507-2.7-1.319-.584.181-.769.954-.771.961l-.976-.216a2.394,2.394,0,0,1,1.44-1.7c.992-.314,2.232.2,3.686,1.535l0,0c.637.6,1.557,1.239,2.319.9a2,2,0,0,0,.983-1.409.43.43,0,0,0,.3.345l.316-.949a.577.577,0,0,1,.385.548,2.894,2.894,0,0,1-1.535,2.359A2.1,2.1,0,0,1,45.012,8.731Z" fill="#595758"/>
      <path id="路径_1742" data-name="路径 1742" d="M8.8,27H7.6a1.216,1.216,0,0,1-1.2-1.2h0a1.216,1.216,0,0,1,1.2-1.2H8.7a1.216,1.216,0,0,1,1.2,1.2h0C9.8,26.5,9.4,27,8.8,27Z"/>
      <path id="路径_1743" data-name="路径 1743" d="M24.5,27.2H23.3A1.216,1.216,0,0,1,22.1,26h0a1.216,1.216,0,0,1,1.2-1.2h1.2A1.216,1.216,0,0,1,25.7,26h0A1.216,1.216,0,0,1,24.5,27.2Z"/>
      <path id="路径_1744" data-name="路径 1744" d="M40.7,27.2H39.5A1.216,1.216,0,0,1,38.3,26h0a1.216,1.216,0,0,1,1.2-1.2h1.2A1.216,1.216,0,0,1,41.9,26h0A1.216,1.216,0,0,1,40.7,27.2Z"/>
      <path id="路径_1745" data-name="路径 1745" d="M13.112,24.531a3.836,3.836,0,0,1-2.552-1.265c-1.137-1.042-2.1-1.51-2.706-1.317-.581.184-.764.949-.766.957l-.977-.214A2.394,2.394,0,0,1,7.552,21c.992-.314,2.232.2,3.686,1.535l0,0c.637.6,1.557,1.239,2.319.9a2,2,0,0,0,.983-1.409.43.43,0,0,0,.3.345l.316-.949a.577.577,0,0,1,.385.548,2.894,2.894,0,0,1-1.535,2.359A2.1,2.1,0,0,1,13.112,24.531Z" fill="#595758"/>
      <path id="路径_1746" data-name="路径 1746" d="M28.912,24.731a3.836,3.836,0,0,1-2.552-1.265c-1.134-1.039-2.093-1.507-2.7-1.319-.584.181-.769.954-.771.961l-.976-.216a2.394,2.394,0,0,1,1.44-1.7c.992-.314,2.232.2,3.686,1.535l0,0c.637.6,1.557,1.239,2.319.9a2,2,0,0,0,.983-1.409.43.43,0,0,0,.3.345l.316-.949a.577.577,0,0,1,.385.548,2.894,2.894,0,0,1-1.535,2.359A2.1,2.1,0,0,1,28.912,24.731Z" fill="#595758"/>
      <path id="路径_1747" data-name="路径 1747" d="M45.012,24.731a3.836,3.836,0,0,1-2.552-1.265c-1.134-1.039-2.093-1.507-2.7-1.319-.584.181-.769.954-.771.961l-.976-.216a2.394,2.394,0,0,1,1.44-1.7c.992-.314,2.232.2,3.686,1.535l0,0c.637.6,1.557,1.239,2.319.9a2,2,0,0,0,.983-1.409.43.43,0,0,0,.3.345l.316-.949a.577.577,0,0,1,.385.548,2.894,2.894,0,0,1-1.535,2.359A2.1,2.1,0,0,1,45.012,24.731Z" fill="#595758"/>
      <path id="路径_1748" data-name="路径 1748" d="M8.8,42.9H7.6a1.216,1.216,0,0,1-1.2-1.2h0a1.216,1.216,0,0,1,1.2-1.2H8.7a1.216,1.216,0,0,1,1.2,1.2h0C9.8,42.4,9.4,42.9,8.8,42.9Z"/>
      <path id="路径_1749" data-name="路径 1749" d="M24.5,43.1H23.3a1.216,1.216,0,0,1-1.2-1.2h0a1.216,1.216,0,0,1,1.2-1.2h1.2a1.216,1.216,0,0,1,1.2,1.2h0A1.216,1.216,0,0,1,24.5,43.1Z"/>
      <path id="路径_1750" data-name="路径 1750" d="M40.7,43.1H39.5a1.216,1.216,0,0,1-1.2-1.2h0a1.216,1.216,0,0,1,1.2-1.2h1.2a1.216,1.216,0,0,1,1.2,1.2h0A1.216,1.216,0,0,1,40.7,43.1Z"/>
      <path id="路径_1751" data-name="路径 1751" d="M13.112,40.431a3.837,3.837,0,0,1-2.552-1.265c-1.137-1.042-2.1-1.509-2.706-1.317-.581.184-.764.949-.766.957l-.977-.214a2.394,2.394,0,0,1,1.44-1.7c.992-.314,2.232.2,3.686,1.535l0,0c.637.6,1.557,1.239,2.319.9a2,2,0,0,0,.983-1.409.43.43,0,0,0,.3.345l.316-.949a.577.577,0,0,1,.385.548,2.894,2.894,0,0,1-1.535,2.359A2.1,2.1,0,0,1,13.112,40.431Z" fill="#595758"/>
      <path id="路径_1752" data-name="路径 1752" d="M28.912,40.631a3.836,3.836,0,0,1-2.552-1.265c-1.134-1.039-2.093-1.507-2.7-1.319-.584.181-.769.954-.771.961l-.976-.216a2.394,2.394,0,0,1,1.44-1.7c.992-.314,2.232.2,3.686,1.535l0,0c.637.6,1.557,1.239,2.319.9a2,2,0,0,0,.983-1.409.43.43,0,0,0,.3.345l.316-.949a.577.577,0,0,1,.385.548,2.894,2.894,0,0,1-1.535,2.359A2.1,2.1,0,0,1,28.912,40.631Z" fill="#595758"/>
      <path id="路径_1753" data-name="路径 1753" d="M45.012,40.631a3.836,3.836,0,0,1-2.552-1.265c-1.137-1.042-2.1-1.51-2.706-1.317-.581.184-.764.949-.766.957l-.977-.214a2.394,2.394,0,0,1,1.44-1.7c.992-.314,2.232.2,3.686,1.535l0,0c.637.6,1.557,1.239,2.319.9a2,2,0,0,0,.983-1.409.43.43,0,0,0,.3.345l.316-.949a.577.577,0,0,1,.385.548,2.894,2.894,0,0,1-1.535,2.359A2.1,2.1,0,0,1,45.012,40.631Z" fill="#595758"/>
    </g>
  </g>
</svg>
