<svg xmlns="http://www.w3.org/2000/svg" width="48" height="48" viewBox="0 0 48 48">
  <g id="淤泥混砂" transform="translate(-3400 -56)">
    <path id="路径_3208" data-name="路径 3208" d="M0,0H48V48H0Z" transform="translate(3400 56)" fill="none"/>
    <g id="淤泥混砂-2" data-name="淤泥混砂" transform="translate(3398.5 55.896)">
      <path id="路径_1450" data-name="路径 1450" d="M8.9,10.9H7.7A1.216,1.216,0,0,1,6.5,9.7h0A1.216,1.216,0,0,1,7.7,8.5H8.8A1.216,1.216,0,0,1,10,9.7h0C9.9,10.4,9.5,10.9,8.9,10.9Z"/>
      <path id="路径_1451" data-name="路径 1451" d="M24.6,11.1H23.4a1.216,1.216,0,0,1-1.2-1.2h0a1.216,1.216,0,0,1,1.2-1.2h1.2a1.216,1.216,0,0,1,1.2,1.2h0A1.216,1.216,0,0,1,24.6,11.1Z"/>
      <path id="路径_1452" data-name="路径 1452" d="M40.8,11.1H39.6a1.216,1.216,0,0,1-1.2-1.2h0a1.216,1.216,0,0,1,1.2-1.2h1.2A1.216,1.216,0,0,1,42,9.9h0A1.216,1.216,0,0,1,40.8,11.1Z"/>
      <path id="路径_1453" data-name="路径 1453" d="M13.212,8.431A3.836,3.836,0,0,1,10.66,7.167c-1.137-1.042-2.1-1.51-2.706-1.317-.581.184-.764.949-.766.957l-.977-.214a2.394,2.394,0,0,1,1.44-1.7c.992-.314,2.232.2,3.686,1.535l0,0c.637.6,1.557,1.239,2.319.9a2,2,0,0,0,.983-1.409.43.43,0,0,0,.3.345l.316-.949a.577.577,0,0,1,.385.548,2.894,2.894,0,0,1-1.535,2.359A2.1,2.1,0,0,1,13.212,8.431Z" fill="#595758"/>
      <path id="路径_1454" data-name="路径 1454" d="M29.012,8.631A3.836,3.836,0,0,1,26.46,7.367c-1.137-1.042-2.1-1.51-2.706-1.317-.581.184-.764.949-.766.957l-.977-.214a2.394,2.394,0,0,1,1.44-1.7c.992-.314,2.232.2,3.686,1.535l0,0c.637.6,1.557,1.239,2.319.9a2,2,0,0,0,.983-1.409.43.43,0,0,0,.3.345l.316-.949a.577.577,0,0,1,.385.548,2.894,2.894,0,0,1-1.535,2.359A2.1,2.1,0,0,1,29.012,8.631Z" fill="#595758"/>
      <path id="路径_1455" data-name="路径 1455" d="M45.212,8.631a3.836,3.836,0,0,1-2.551-1.264c-1.137-1.042-2.1-1.51-2.707-1.317-.581.184-.764.949-.766.957l-.977-.214a2.394,2.394,0,0,1,1.44-1.7c.992-.314,2.232.2,3.686,1.535l0,0c.637.6,1.557,1.239,2.319.9a2,2,0,0,0,.983-1.409.43.43,0,0,0,.3.345l.316-.949a.577.577,0,0,1,.385.548,2.894,2.894,0,0,1-1.535,2.359A2.1,2.1,0,0,1,45.212,8.631Z" fill="#595758"/>
      <path id="路径_1456" data-name="路径 1456" d="M8.9,26.8H7.7a1.216,1.216,0,0,1-1.2-1.2h0a1.216,1.216,0,0,1,1.2-1.2H8.8A1.216,1.216,0,0,1,10,25.6h0C9.9,26.3,9.5,26.8,8.9,26.8Z"/>
      <path id="路径_1457" data-name="路径 1457" d="M24.6,27H23.4a1.216,1.216,0,0,1-1.2-1.2h0a1.216,1.216,0,0,1,1.2-1.2h1.2a1.216,1.216,0,0,1,1.2,1.2h0A1.216,1.216,0,0,1,24.6,27Z"/>
      <path id="路径_1458" data-name="路径 1458" d="M40.8,27H39.6a1.216,1.216,0,0,1-1.2-1.2h0a1.216,1.216,0,0,1,1.2-1.2h1.2A1.216,1.216,0,0,1,42,25.8h0A1.216,1.216,0,0,1,40.8,27Z"/>
      <path id="路径_1459" data-name="路径 1459" d="M13.212,24.331a3.836,3.836,0,0,1-2.552-1.265c-1.134-1.039-2.093-1.507-2.7-1.319-.584.181-.769.954-.771.961l-.976-.216a2.394,2.394,0,0,1,1.44-1.7c.992-.314,2.232.2,3.686,1.535l0,0c.637.6,1.557,1.239,2.319.9a2,2,0,0,0,.983-1.409.43.43,0,0,0,.3.345l.316-.949a.577.577,0,0,1,.385.548,2.894,2.894,0,0,1-1.535,2.359A2.1,2.1,0,0,1,13.212,24.331Z" fill="#595758"/>
      <path id="路径_1460" data-name="路径 1460" d="M29.012,24.531a3.836,3.836,0,0,1-2.552-1.265c-1.134-1.039-2.093-1.507-2.7-1.319-.584.181-.769.954-.771.961l-.976-.216a2.394,2.394,0,0,1,1.44-1.7c.992-.314,2.232.2,3.686,1.535l0,0c.637.6,1.557,1.239,2.319.9a2,2,0,0,0,.983-1.409.43.43,0,0,0,.3.345l.316-.949a.577.577,0,0,1,.385.548,2.894,2.894,0,0,1-1.535,2.359A2.1,2.1,0,0,1,29.012,24.531Z" fill="#595758"/>
      <path id="路径_1461" data-name="路径 1461" d="M45.212,24.531a3.836,3.836,0,0,1-2.551-1.264c-1.137-1.042-2.1-1.51-2.707-1.317-.581.184-.764.949-.766.957l-.977-.214a2.394,2.394,0,0,1,1.44-1.7c.992-.314,2.232.2,3.686,1.535l0,0c.637.6,1.557,1.239,2.319.9a2,2,0,0,0,.983-1.409.43.43,0,0,0,.3.345l.316-.949a.577.577,0,0,1,.385.548,2.894,2.894,0,0,1-1.535,2.359A2.1,2.1,0,0,1,45.212,24.531Z" fill="#595758"/>
      <path id="路径_1462" data-name="路径 1462" d="M8.9,42.8H7.7a1.216,1.216,0,0,1-1.2-1.2h0a1.216,1.216,0,0,1,1.2-1.2H8.8A1.216,1.216,0,0,1,10,41.6h0C9.9,42.3,9.5,42.8,8.9,42.8Z"/>
      <path id="路径_1463" data-name="路径 1463" d="M24.6,42.9H23.4a1.216,1.216,0,0,1-1.2-1.2h0a1.216,1.216,0,0,1,1.2-1.2h1.2a1.216,1.216,0,0,1,1.2,1.2h0A1.216,1.216,0,0,1,24.6,42.9Z"/>
      <path id="路径_1464" data-name="路径 1464" d="M40.8,42.9H39.6a1.216,1.216,0,0,1-1.2-1.2h0a1.216,1.216,0,0,1,1.2-1.2h1.2A1.216,1.216,0,0,1,42,41.7h0A1.216,1.216,0,0,1,40.8,42.9Z"/>
      <path id="路径_1465" data-name="路径 1465" d="M13.212,40.331a3.836,3.836,0,0,1-2.552-1.265c-1.134-1.039-2.093-1.507-2.7-1.319-.584.181-.769.954-.771.961l-.976-.216a2.394,2.394,0,0,1,1.44-1.7c.992-.314,2.232.2,3.686,1.535l0,0c.637.6,1.557,1.239,2.319.9a2,2,0,0,0,.983-1.409.43.43,0,0,0,.3.345l.316-.949a.577.577,0,0,1,.385.548,2.894,2.894,0,0,1-1.535,2.359A2.1,2.1,0,0,1,13.212,40.331Z" fill="#595758"/>
      <path id="路径_1466" data-name="路径 1466" d="M29.012,40.431a3.837,3.837,0,0,1-2.552-1.265c-1.137-1.042-2.1-1.509-2.706-1.317-.581.184-.764.949-.766.957l-.977-.214a2.394,2.394,0,0,1,1.44-1.7c.992-.314,2.232.2,3.686,1.535l0,0c.637.6,1.557,1.239,2.319.9a2,2,0,0,0,.983-1.409.43.43,0,0,0,.3.345l.316-.949a.577.577,0,0,1,.385.548,2.894,2.894,0,0,1-1.535,2.359A2.1,2.1,0,0,1,29.012,40.431Z" fill="#595758"/>
      <path id="路径_1467" data-name="路径 1467" d="M45.212,40.431a3.836,3.836,0,0,1-2.552-1.265c-1.134-1.039-2.093-1.507-2.7-1.318-.584.181-.769.954-.771.961l-.976-.216a2.394,2.394,0,0,1,1.44-1.7c.992-.314,2.232.2,3.686,1.535l0,0c.637.6,1.557,1.239,2.319.9a2,2,0,0,0,.983-1.408.43.43,0,0,0,.3.345l.316-.949a.577.577,0,0,1,.385.548,2.894,2.894,0,0,1-1.535,2.359A2.1,2.1,0,0,1,45.212,40.431Z" fill="#595758"/>
    </g>
  </g>
</svg>
