<svg xmlns="http://www.w3.org/2000/svg" width="48.707" height="48.607" viewBox="0 0 48.707 48.607">
  <g id="淤泥质粘质粉土夹薄层粉砂" transform="translate(-4842.646 -55.646)">
    <path id="路径_3233" data-name="路径 3233" d="M0,0H48V48H0Z" transform="translate(4843 56)" fill="none"/>
    <g id="淤泥质粘质粉土夹薄层粉砂-2" data-name="淤泥质粘质粉土夹薄层粉砂" transform="translate(4843 56)">
      <path id="路径_1837" data-name="路径 1837" d="M13.112,40.431a3.837,3.837,0,0,1-2.552-1.265c-1.137-1.042-2.1-1.509-2.706-1.317-.581.184-.764.949-.766.957l-.977-.214a2.394,2.394,0,0,1,1.44-1.7c.992-.314,2.232.2,3.686,1.535l0,0c.637.6,1.557,1.239,2.319.9a2,2,0,0,0,.983-1.409.43.43,0,0,0,.3.345l.316-.949a.577.577,0,0,1,.385.548,2.894,2.894,0,0,1-1.535,2.359A2.1,2.1,0,0,1,13.112,40.431Z" fill="#595758"/>
      <g id="组_1013" data-name="组 1013">
        <g id="组_1004" data-name="组 1004">
          <g id="组_1003" data-name="组 1003">
            <path id="直线_443" data-name="直线 443" d="M.354,4.554l-.707-.707,4.2-4.2.707.707Z" transform="translate(0 43.7)" fill="#595758"/>
            <path id="直线_444" data-name="直线 444" d="M.354,27.854l-.707-.707,7.863-7.863.707.707ZM16.079,12.128l-.707-.707,7.863-7.863.707.707Z" transform="translate(12.1 8.3)" fill="#595758"/>
            <path id="直线_445" data-name="直线 445" d="M.354,4.554l-.707-.707,4.2-4.2.707.707Z" transform="translate(43.6 0.1)" fill="#595758"/>
          </g>
        </g>
        <g id="组_1006" data-name="组 1006">
          <g id="组_1005" data-name="组 1005">
            <path id="直线_446" data-name="直线 446" d="M.354,4.554l-.707-.707,4.2-4.2.707.707Z" transform="translate(32.2 43.7)" fill="#595758"/>
            <path id="直线_447" data-name="直线 447" d="M.354,4.554l-.707-.707,4.2-4.2.707.707Z" transform="translate(43.8 32.1)" fill="#595758"/>
          </g>
        </g>
        <g id="组_1008" data-name="组 1008">
          <g id="组_1007" data-name="组 1007">
            <path id="直线_448" data-name="直线 448" d="M.354,4.554l-.707-.707,4.2-4.2.707.707Z" transform="translate(0 11.8)" fill="#595758"/>
            <path id="直线_449" data-name="直线 449" d="M.354,4.554l-.707-.707,4.2-4.2.707.707Z" transform="translate(11.8)" fill="#595758"/>
          </g>
        </g>
        <g id="组_1010" data-name="组 1010">
          <g id="组_1009" data-name="组 1009">
            <path id="直线_450" data-name="直线 450" d="M.354,4.554l-.707-.707,4.2-4.2.707.707Z" transform="translate(0.1 27.4)" fill="#595758"/>
            <path id="直线_451" data-name="直线 451" d="M.355,11.852l-.71-.7L7.266,3.46l.71.7Z" transform="translate(12 8.2)" fill="#595758"/>
            <path id="直线_452" data-name="直线 452" d="M.354,4.554l-.707-.707,4.2-4.2.707.707Z" transform="translate(27.3 0.1)" fill="#595758"/>
          </g>
        </g>
        <g id="组_1012" data-name="组 1012">
          <g id="组_1011" data-name="组 1011">
            <path id="直线_453" data-name="直线 453" d="M.354,4.554l-.707-.707,4.2-4.2.707.707Z" transform="translate(16.5 43.7)" fill="#595758"/>
            <path id="直线_454" data-name="直线 454" d="M.354,11.754l-.707-.707L7.285,3.408l.707.707Z" transform="translate(28.4 24.6)" fill="#595758"/>
            <path id="直线_455" data-name="直线 455" d="M.354,4.554l-.707-.707,4.2-4.2.707.707Z" transform="translate(43.7 16.5)" fill="#595758"/>
          </g>
        </g>
      </g>
      <g id="组_1014" data-name="组 1014">
        <path id="路径_1838" data-name="路径 1838" d="M8.7,11.1H7.5A1.216,1.216,0,0,1,6.3,9.9h0A1.216,1.216,0,0,1,7.5,8.7H8.6A1.216,1.216,0,0,1,9.8,9.9h0C9.7,10.6,9.3,11.1,8.7,11.1Z"/>
        <path id="路径_1839" data-name="路径 1839" d="M24.4,11.2H23.2A1.216,1.216,0,0,1,22,10h0a1.216,1.216,0,0,1,1.2-1.2h1.2A1.216,1.216,0,0,1,25.6,10h0A1.216,1.216,0,0,1,24.4,11.2Z"/>
        <path id="路径_1840" data-name="路径 1840" d="M40.6,11.2H39.4A1.216,1.216,0,0,1,38.2,10h0a1.216,1.216,0,0,1,1.2-1.2h1.2A1.216,1.216,0,0,1,41.8,10h0A1.216,1.216,0,0,1,40.6,11.2Z"/>
        <path id="路径_1841" data-name="路径 1841" d="M13.012,8.631A3.836,3.836,0,0,1,10.46,7.367c-1.134-1.039-2.093-1.507-2.7-1.319-.584.181-.769.954-.771.961l-.976-.216a2.394,2.394,0,0,1,1.44-1.7c.992-.314,2.232.2,3.686,1.535l0,0c.637.6,1.557,1.239,2.319.9a2,2,0,0,0,.983-1.409.43.43,0,0,0,.3.345l.316-.949a.577.577,0,0,1,.385.548,2.894,2.894,0,0,1-1.535,2.359A2.1,2.1,0,0,1,13.012,8.631Z" fill="#595758"/>
        <path id="路径_1842" data-name="路径 1842" d="M28.812,8.731A3.836,3.836,0,0,1,26.26,7.467c-1.134-1.039-2.093-1.507-2.7-1.319-.584.181-.769.954-.771.961l-.976-.216a2.394,2.394,0,0,1,1.44-1.7c.992-.314,2.232.2,3.686,1.535l0,0c.637.6,1.557,1.239,2.319.9a2,2,0,0,0,.983-1.409.43.43,0,0,0,.3.345l.316-.949a.577.577,0,0,1,.385.548,2.894,2.894,0,0,1-1.535,2.359A2.1,2.1,0,0,1,28.812,8.731Z" fill="#595758"/>
        <path id="路径_1843" data-name="路径 1843" d="M44.912,8.731A3.836,3.836,0,0,1,42.36,7.467c-1.134-1.039-2.093-1.507-2.7-1.319-.584.181-.769.954-.771.961l-.976-.216a2.394,2.394,0,0,1,1.44-1.7c.992-.314,2.232.2,3.686,1.535l0,0c.637.6,1.557,1.239,2.319.9a2,2,0,0,0,.983-1.409.43.43,0,0,0,.3.345l.316-.949a.577.577,0,0,1,.385.548,2.894,2.894,0,0,1-1.535,2.359A2.1,2.1,0,0,1,44.912,8.731Z" fill="#595758"/>
        <path id="路径_1844" data-name="路径 1844" d="M8.7,27H7.5a1.216,1.216,0,0,1-1.2-1.2h0a1.216,1.216,0,0,1,1.2-1.2H8.6a1.216,1.216,0,0,1,1.2,1.2h0C9.7,26.5,9.3,27,8.7,27Z"/>
        <path id="路径_1845" data-name="路径 1845" d="M24.4,27.2H23.2A1.216,1.216,0,0,1,22,26h0a1.216,1.216,0,0,1,1.2-1.2h1.2A1.216,1.216,0,0,1,25.6,26h0A1.216,1.216,0,0,1,24.4,27.2Z"/>
        <path id="路径_1846" data-name="路径 1846" d="M40.6,27.2H39.4A1.216,1.216,0,0,1,38.2,26h0a1.216,1.216,0,0,1,1.2-1.2h1.2A1.216,1.216,0,0,1,41.8,26h0A1.216,1.216,0,0,1,40.6,27.2Z"/>
        <path id="路径_1847" data-name="路径 1847" d="M13.012,24.531a3.836,3.836,0,0,1-2.552-1.265c-1.134-1.039-2.093-1.507-2.7-1.319-.584.181-.769.954-.771.961l-.976-.216A2.394,2.394,0,0,1,7.452,21c.992-.314,2.232.2,3.686,1.535l0,0c.637.6,1.557,1.239,2.319.9a2,2,0,0,0,.983-1.409.43.43,0,0,0,.3.345l.316-.949a.577.577,0,0,1,.385.548,2.894,2.894,0,0,1-1.535,2.359A2.1,2.1,0,0,1,13.012,24.531Z" fill="#595758"/>
        <path id="路径_1848" data-name="路径 1848" d="M28.812,24.731a3.836,3.836,0,0,1-2.552-1.265c-1.134-1.039-2.093-1.507-2.7-1.319-.584.181-.769.954-.771.961l-.976-.216a2.394,2.394,0,0,1,1.44-1.7c.992-.314,2.232.2,3.686,1.535l0,0c.637.6,1.557,1.239,2.319.9a2,2,0,0,0,.983-1.409.43.43,0,0,0,.3.345l.316-.949a.577.577,0,0,1,.385.548,2.894,2.894,0,0,1-1.535,2.359A2.1,2.1,0,0,1,28.812,24.731Z" fill="#595758"/>
        <path id="路径_1849" data-name="路径 1849" d="M44.912,24.731a3.836,3.836,0,0,1-2.552-1.265c-1.134-1.039-2.093-1.507-2.7-1.319-.584.181-.769.954-.771.961l-.976-.216a2.394,2.394,0,0,1,1.44-1.7c.992-.314,2.232.2,3.686,1.535l0,0c.637.6,1.557,1.239,2.319.9a2,2,0,0,0,.983-1.409.43.43,0,0,0,.3.345l.316-.949a.577.577,0,0,1,.385.548,2.894,2.894,0,0,1-1.535,2.359A2.1,2.1,0,0,1,44.912,24.731Z" fill="#595758"/>
        <path id="路径_1850" data-name="路径 1850" d="M8.7,42.9H7.5a1.216,1.216,0,0,1-1.2-1.2h0a1.216,1.216,0,0,1,1.2-1.2H8.6a1.216,1.216,0,0,1,1.2,1.2h0C9.7,42.4,9.3,42.9,8.7,42.9Z"/>
        <path id="路径_1851" data-name="路径 1851" d="M24.4,43.1H23.2A1.216,1.216,0,0,1,22,41.9h0a1.216,1.216,0,0,1,1.2-1.2h1.2a1.216,1.216,0,0,1,1.2,1.2h0A1.216,1.216,0,0,1,24.4,43.1Z"/>
        <path id="路径_1852" data-name="路径 1852" d="M40.6,43.1H39.4a1.216,1.216,0,0,1-1.2-1.2h0a1.216,1.216,0,0,1,1.2-1.2h1.2a1.216,1.216,0,0,1,1.2,1.2h0A1.216,1.216,0,0,1,40.6,43.1Z"/>
        <path id="路径_1853" data-name="路径 1853" d="M13.012,40.431a3.837,3.837,0,0,1-2.552-1.265c-1.134-1.039-2.093-1.507-2.7-1.318-.584.181-.769.954-.771.961l-.976-.216a2.394,2.394,0,0,1,1.44-1.7c.992-.314,2.232.2,3.686,1.535l0,0c.637.6,1.557,1.239,2.319.9a2,2,0,0,0,.983-1.408.43.43,0,0,0,.3.345l.316-.949a.577.577,0,0,1,.385.548,2.894,2.894,0,0,1-1.535,2.359A2.1,2.1,0,0,1,13.012,40.431Z" fill="#595758"/>
        <path id="路径_1854" data-name="路径 1854" d="M28.812,40.631a3.836,3.836,0,0,1-2.552-1.265c-1.137-1.042-2.1-1.51-2.706-1.317-.581.184-.764.949-.766.957l-.977-.214a2.394,2.394,0,0,1,1.44-1.7c.992-.314,2.232.2,3.686,1.535l0,0c.637.6,1.557,1.239,2.319.9a2,2,0,0,0,.983-1.409.43.43,0,0,0,.3.345l.316-.949a.577.577,0,0,1,.385.548,2.894,2.894,0,0,1-1.535,2.359A2.1,2.1,0,0,1,28.812,40.631Z" fill="#595758"/>
        <path id="路径_1855" data-name="路径 1855" d="M44.912,40.631a3.836,3.836,0,0,1-2.552-1.265c-1.137-1.042-2.1-1.51-2.706-1.317-.581.184-.764.949-.766.957l-.977-.214a2.394,2.394,0,0,1,1.44-1.7c.992-.314,2.232.2,3.686,1.535l0,0c.637.6,1.557,1.239,2.319.9a2,2,0,0,0,.983-1.409.43.43,0,0,0,.3.345l.316-.949a.577.577,0,0,1,.385.548,2.894,2.894,0,0,1-1.535,2.359A2.1,2.1,0,0,1,44.912,40.631Z" fill="#595758"/>
      </g>
    </g>
  </g>
</svg>
