<svg xmlns="http://www.w3.org/2000/svg" width="48.711" height="48.807" viewBox="0 0 48.711 48.807">
  <g id="淤泥质亚砂土" transform="translate(-3451.646 -55.646)">
    <path id="路径_3209" data-name="路径 3209" d="M0,0H48V48H0Z" transform="translate(3452 56)" fill="none"/>
    <g id="淤泥质亚砂土-2" data-name="淤泥质亚砂土" transform="translate(3452 56)">
      <g id="组_854" data-name="组 854">
        <g id="组_853" data-name="组 853">
          <path id="直线_224" data-name="直线 224" d="M.354,3.954l-.707-.707,3.6-3.6.707.707Z" transform="translate(0 44.5)" fill="#595758"/>
          <path id="直线_225" data-name="直线 225" d="M.354,28.854l-.707-.707,8.137-8.137.707.707ZM16.628,12.579l-.707-.707,8.137-8.137.707.707Z" transform="translate(11.7 7.9)" fill="#595758"/>
          <path id="直线_226" data-name="直线 226" d="M.349,3.859l-.7-.717,3.6-3.5.7.717Z" transform="translate(44.2 0.3)" fill="#595758"/>
        </g>
      </g>
      <g id="组_856" data-name="组 856">
        <g id="组_855" data-name="组 855">
          <path id="直线_227" data-name="直线 227" d="M.349,4.558l-.7-.715,4.3-4.2.7.715Z" transform="translate(16.4 43.8)" fill="#595758"/>
          <path id="直线_228" data-name="直线 228" d="M.355,11.952l-.71-.7L7.321,3.505l.71.7Z" transform="translate(28.4 24.5)" fill="#595758"/>
          <path id="直线_229" data-name="直线 229" d="M.358,4.649l-.715-.7,4.2-4.3.715.7Z" transform="translate(43.8 16.4)" fill="#595758"/>
        </g>
      </g>
      <g id="组_858" data-name="组 858">
        <g id="组_857" data-name="组 857">
          <path id="直线_230" data-name="直线 230" d="M.354,3.954l-.707-.707,3.6-3.6.707.707Z" transform="translate(32.2 44.5)" fill="#595758"/>
          <path id="直线_231" data-name="直线 231" d="M.354,3.854l-.707-.707,3.5-3.5.707.707Z" transform="translate(44.5 32.3)" fill="#595758"/>
        </g>
      </g>
      <g id="组_860" data-name="组 860">
        <g id="组_859" data-name="组 859">
          <path id="直线_232" data-name="直线 232" d="M.354,4.654l-.707-.707,4.3-4.3.707.707Z" transform="translate(0 28)" fill="#595758"/>
          <path id="直线_233" data-name="直线 233" d="M.355,12.252l-.71-.7L7.525,3.6l.71.7Z" transform="translate(12.2 8.2)" fill="#595758"/>
          <path id="直线_234" data-name="直线 234" d="M.354,4.554l-.707-.707,4.2-4.2.707.707Z" transform="translate(28)" fill="#595758"/>
        </g>
      </g>
      <g id="组_862" data-name="组 862">
        <g id="组_861" data-name="组 861">
          <path id="直线_235" data-name="直线 235" d="M.354,3.854l-.707-.707,3.5-3.5.707.707Z" transform="translate(0 12.6)" fill="#595758"/>
          <path id="直线_236" data-name="直线 236" d="M.354,3.854l-.707-.707,3.5-3.5.707.707Z" transform="translate(12.5 0.1)" fill="#595758"/>
        </g>
      </g>
      <path id="路径_1468" data-name="路径 1468" d="M10.312,12.231A3.836,3.836,0,0,1,7.76,10.967c-1.134-1.039-2.093-1.507-2.7-1.319-.584.181-.769.954-.771.961l-.976-.216a2.394,2.394,0,0,1,1.44-1.7c.992-.314,2.232.2,3.686,1.535l0,0c.637.6,1.557,1.239,2.319.9a2,2,0,0,0,.983-1.409.43.43,0,0,0,.3.345l.316-.949a.577.577,0,0,1,.385.548,2.894,2.894,0,0,1-1.535,2.359A2.1,2.1,0,0,1,10.312,12.231Z" fill="#595758"/>
      <path id="路径_1469" data-name="路径 1469" d="M32.912,10.931A3.836,3.836,0,0,1,30.36,9.667c-1.134-1.039-2.093-1.507-2.7-1.319-.584.181-.769.954-.771.961l-.976-.216a2.394,2.394,0,0,1,1.44-1.7c.992-.314,2.232.2,3.686,1.535l0,0c.637.6,1.557,1.239,2.319.9a2,2,0,0,0,.983-1.409.43.43,0,0,0,.3.345l.316-.949a.577.577,0,0,1,.385.548,2.894,2.894,0,0,1-1.535,2.359A2.1,2.1,0,0,1,32.912,10.931Z" fill="#595758"/>
      <path id="路径_1470" data-name="路径 1470" d="M43.312,24.231a3.836,3.836,0,0,1-2.551-1.264c-1.137-1.042-2.1-1.51-2.707-1.317-.581.184-.764.949-.766.957l-.977-.214a2.394,2.394,0,0,1,1.44-1.7c.992-.314,2.232.2,3.686,1.535l0,0c.637.6,1.557,1.239,2.319.9a2,2,0,0,0,.983-1.409.43.43,0,0,0,.3.345l.316-.949a.577.577,0,0,1,.385.548,2.894,2.894,0,0,1-1.535,2.359A2.1,2.1,0,0,1,43.312,24.231Z" fill="#595758"/>
      <path id="路径_1471" data-name="路径 1471" d="M9.112,39.431A3.837,3.837,0,0,1,6.56,38.166c-1.137-1.042-2.1-1.509-2.706-1.317-.581.184-.764.949-.766.957l-.977-.214a2.394,2.394,0,0,1,1.44-1.7c.992-.314,2.232.2,3.686,1.535l0,0c.637.6,1.557,1.239,2.319.9a2,2,0,0,0,.983-1.409.43.43,0,0,0,.3.345l.316-.949a.577.577,0,0,1,.385.548,2.894,2.894,0,0,1-1.535,2.359A2.1,2.1,0,0,1,9.112,39.431Z" fill="#595758"/>
      <path id="路径_1472" data-name="路径 1472" d="M32.912,38.131a3.836,3.836,0,0,1-2.552-1.265c-1.134-1.039-2.093-1.507-2.7-1.319-.584.181-.769.954-.771.961l-.976-.216a2.394,2.394,0,0,1,1.44-1.7c.992-.314,2.232.2,3.686,1.535l0,0c.637.6,1.557,1.239,2.319.9a2,2,0,0,0,.983-1.409.43.43,0,0,0,.3.345l.316-.949a.577.577,0,0,1,.385.548,2.894,2.894,0,0,1-1.535,2.359A2.1,2.1,0,0,1,32.912,38.131Z" fill="#595758"/>
      <path id="路径_1473" data-name="路径 1473" d="M18.712,25.131a3.836,3.836,0,0,1-2.552-1.265c-1.134-1.039-2.093-1.507-2.7-1.319-.584.181-.769.954-.771.961l-.976-.216a2.394,2.394,0,0,1,1.44-1.7c.992-.314,2.232.2,3.686,1.535l0,0c.637.6,1.557,1.239,2.319.9a2,2,0,0,0,.983-1.409.43.43,0,0,0,.3.345l.316-.949a.577.577,0,0,1,.385.548,2.894,2.894,0,0,1-1.535,2.359A2.1,2.1,0,0,1,18.712,25.131Z" fill="#595758"/>
    </g>
  </g>
</svg>
