<?xml version='1.0' encoding='utf-8'?>
<!DOCTYPE svg PUBLIC '-//W3C//DTD SVG 1.1//EN' 'http://www.w3.org/Graphics/SVG/1.1/DTD/svg11.dtd'>
<!-- Generator: Adobe Illustrator 16.0.0, SVG Export Plug-In . SVG Version: 6.00 Build 0)  -->
<svg version="1.1" xml:space="preserve" xmlns="http://www.w3.org/2000/svg" x="0px" width="48px" viewBox="0 0 48 48" enable-background="new 0 0 48 48" y="0px" xmlns:xlink="http://www.w3.org/1999/xlink" height="48px">
    <g id="淤泥质土">
        <g id="淤泥质土_1_">
            <line y1="48.059" fill="none" stroke-miterlimit="10" x2="47.755" y2="0.262" stroke="#595758" x1="0.037"/>
            <g>
                <g>
                    <line y1="48.045" fill="none" stroke-miterlimit="10" x2="20.662" y2="43.799" stroke="#595758" x1="16.423"/>
                    <line y1="36.083" fill="none" stroke-miterlimit="10" stroke-dasharray="10.9025,10.9025" x2="39.919" y2="24.51" stroke="#595758" x1="28.365"/>
                    <line y1="20.652" fill="none" stroke-miterlimit="10" x2="48.01" y2="16.406" stroke="#595758" x1="43.771"/>
                </g>
            </g>
            <line y1="48.059" fill="none" stroke-miterlimit="10" x2="48.032" y2="32.284" stroke="#595758" x1="32.217"/>
            <g>
                <g>
                    <line y1="32.252" fill="none" stroke-miterlimit="10" x2="4.263" y2="28.006" stroke="#595758" x1="0.023"/>
                    <line y1="20.086" fill="none" stroke-miterlimit="10" stroke-dasharray="11.1913,11.1913" x2="24.03" y2="8.206" stroke="#595758" x1="12.169"/>
                    <line y1="4.246" fill="none" stroke-miterlimit="10" x2="32.223" y2="0" stroke="#595758" x1="27.982"/>
                </g>
            </g>
            <line y1="16.139" fill="none" stroke-miterlimit="10" x2="16.021" y2="0.103" stroke="#595758" x1="0.01"/>
            <path d="M3.791,10.508c0,0,0.726-3.212,4.274,0.095&#xa;&#x9;&#x9;&#x9;c3.208,2.989,4.436-0.868,4.113-1.039" fill="none" stroke-miterlimit="10" stroke="#595758"/>
            <path d="M26.385,9.195c0,0,0.727-3.212,4.274,0.095&#xa;&#x9;&#x9;&#x9;c3.208,2.989,4.437-0.868,4.114-1.039" fill="none" stroke-miterlimit="10" stroke="#595758"/>
            <path d="M36.797,22.508c0,0,0.725-3.212,4.273,0.095&#xa;&#x9;&#x9;&#x9;c3.207,2.989,4.436-0.868,4.113-1.039" fill="none" stroke-miterlimit="10" stroke="#595758"/>
            <path d="M2.581,37.723c0,0,0.726-3.212,4.274,0.096&#xa;&#x9;&#x9;&#x9;c3.208,2.988,4.436-0.868,4.114-1.039" fill="none" stroke-miterlimit="10" stroke="#595758"/>
            <path d="M26.385,36.409c0,0,0.727-3.212,4.274,0.095&#xa;&#x9;&#x9;&#x9;c3.208,2.989,4.437-0.868,4.114-1.039" fill="none" stroke-miterlimit="10" stroke="#595758"/>
            <path d="M12.228,23.434c0,0,0.726-3.212,4.274,0.095&#xa;&#x9;&#x9;&#x9;c3.208,2.989,4.436-0.868,4.114-1.039" fill="none" stroke-miterlimit="10" stroke="#595758"/>
        </g>
    </g>
</svg>
