<svg xmlns="http://www.w3.org/2000/svg" width="48.711" height="48.807" viewBox="0 0 48.711 48.807">
  <g id="淤泥质土_1_" transform="translate(-4201.646 -55.646)">
    <path id="路径_3222" data-name="路径 3222" d="M0,0H48V48H0Z" transform="translate(4202 56)" fill="none"/>
    <g id="淤泥质土_1_2" data-name="淤泥质土_1_" transform="translate(4202 56)">
      <path id="直线_343" data-name="直线 343" d="M.354,48.154l-.707-.707,47.8-47.8.707.707Z" transform="translate(0 0.3)" fill="#595758"/>
      <g id="组_947" data-name="组 947">
        <g id="组_946" data-name="组 946">
          <path id="直线_344" data-name="直线 344" d="M.349,4.558l-.7-.715,4.3-4.2.7.715Z" transform="translate(16.4 43.8)" fill="#595758"/>
          <path id="直线_345" data-name="直线 345" d="M.355,11.952l-.71-.7L7.321,3.505l.71.7Z" transform="translate(28.4 24.5)" fill="#595758"/>
          <path id="直线_346" data-name="直线 346" d="M.358,4.649l-.715-.7,4.2-4.3.715.7Z" transform="translate(43.8 16.4)" fill="#595758"/>
        </g>
      </g>
      <path id="直线_347" data-name="直线 347" d="M.354,16.154l-.707-.707,15.8-15.8.707.707Z" transform="translate(32.2 32.3)" fill="#595758"/>
      <g id="组_949" data-name="组 949">
        <g id="组_948" data-name="组 948">
          <path id="直线_348" data-name="直线 348" d="M.354,4.654l-.707-.707,4.3-4.3.707.707Z" transform="translate(0 28)" fill="#595758"/>
          <path id="直线_349" data-name="直线 349" d="M.355,12.252l-.71-.7L7.525,3.6l.71.7Z" transform="translate(12.2 8.2)" fill="#595758"/>
          <path id="直线_350" data-name="直线 350" d="M.354,4.554l-.707-.707,4.2-4.2.707.707Z" transform="translate(28)" fill="#595758"/>
        </g>
      </g>
      <path id="直线_351" data-name="直线 351" d="M.354,16.354l-.707-.707,16-16,.707.707Z" transform="translate(0 0.1)" fill="#595758"/>
      <path id="路径_1665" data-name="路径 1665" d="M10.312,12.231A3.836,3.836,0,0,1,7.76,10.967c-1.134-1.039-2.093-1.507-2.7-1.319-.584.181-.769.954-.771.961l-.976-.216a2.394,2.394,0,0,1,1.44-1.7c.992-.314,2.232.2,3.686,1.535l0,0c.637.6,1.557,1.239,2.319.9a2,2,0,0,0,.983-1.409.43.43,0,0,0,.3.345l.316-.949a.577.577,0,0,1,.385.548,2.894,2.894,0,0,1-1.535,2.359A2.1,2.1,0,0,1,10.312,12.231Z" fill="#595758"/>
      <path id="路径_1666" data-name="路径 1666" d="M32.912,10.931A3.836,3.836,0,0,1,30.36,9.667c-1.134-1.039-2.093-1.507-2.7-1.319-.584.181-.769.954-.771.961l-.976-.216a2.394,2.394,0,0,1,1.44-1.7c.992-.314,2.232.2,3.686,1.535l0,0c.637.6,1.557,1.239,2.319.9a2,2,0,0,0,.983-1.409.43.43,0,0,0,.3.345l.316-.949a.577.577,0,0,1,.385.548,2.894,2.894,0,0,1-1.535,2.359A2.1,2.1,0,0,1,32.912,10.931Z" fill="#595758"/>
      <path id="路径_1667" data-name="路径 1667" d="M43.312,24.231a3.836,3.836,0,0,1-2.551-1.264c-1.137-1.042-2.1-1.51-2.707-1.317-.581.184-.764.949-.766.957l-.977-.214a2.394,2.394,0,0,1,1.44-1.7c.992-.314,2.232.2,3.686,1.535l0,0c.637.6,1.557,1.239,2.319.9a2,2,0,0,0,.983-1.409.43.43,0,0,0,.3.345l.316-.949a.577.577,0,0,1,.385.548,2.894,2.894,0,0,1-1.535,2.359A2.1,2.1,0,0,1,43.312,24.231Z" fill="#595758"/>
      <path id="路径_1668" data-name="路径 1668" d="M9.112,39.431A3.837,3.837,0,0,1,6.56,38.166c-1.137-1.042-2.1-1.509-2.706-1.317-.581.184-.764.949-.766.957l-.977-.214a2.394,2.394,0,0,1,1.44-1.7c.992-.314,2.232.2,3.686,1.535l0,0c.637.6,1.557,1.239,2.319.9a2,2,0,0,0,.983-1.409.43.43,0,0,0,.3.345l.316-.949a.577.577,0,0,1,.385.548,2.894,2.894,0,0,1-1.535,2.359A2.1,2.1,0,0,1,9.112,39.431Z" fill="#595758"/>
      <path id="路径_1669" data-name="路径 1669" d="M32.912,38.131a3.836,3.836,0,0,1-2.552-1.265c-1.134-1.039-2.093-1.507-2.7-1.319-.584.181-.769.954-.771.961l-.976-.216a2.394,2.394,0,0,1,1.44-1.7c.992-.314,2.232.2,3.686,1.535l0,0c.637.6,1.557,1.239,2.319.9a2,2,0,0,0,.983-1.409.43.43,0,0,0,.3.345l.316-.949a.577.577,0,0,1,.385.548,2.894,2.894,0,0,1-1.535,2.359A2.1,2.1,0,0,1,32.912,38.131Z" fill="#595758"/>
      <path id="路径_1670" data-name="路径 1670" d="M18.712,25.131a3.836,3.836,0,0,1-2.552-1.265c-1.134-1.039-2.093-1.507-2.7-1.319-.584.181-.769.954-.771.961l-.976-.216a2.394,2.394,0,0,1,1.44-1.7c.992-.314,2.232.2,3.686,1.535l0,0c.637.6,1.557,1.239,2.319.9a2,2,0,0,0,.983-1.409.43.43,0,0,0,.3.345l.316-.949a.577.577,0,0,1,.385.548,2.894,2.894,0,0,1-1.535,2.359A2.1,2.1,0,0,1,18.712,25.131Z" fill="#595758"/>
    </g>
  </g>
</svg>
