<?xml version="1.0" encoding="utf-8"?>
<!-- Generator: Adobe Illustrator 21.0.0, SVG Export Plug-In . SVG Version: 6.00 Build 0)  -->
<svg version="1.1" id="图层_1" xmlns="http://www.w3.org/2000/svg" xmlns:xlink="http://www.w3.org/1999/xlink" x="0px" y="0px"
	 width="48px" height="48px" viewBox="0 0 48 48" style="enable-background:new 0 0 48 48;" xml:space="preserve">
<style type="text/css">
	.st0{fill:none;stroke:#595758;stroke-miterlimit:10;}
	.st1{fill:none;}
</style>
<path class="st0" d="M3.8,10.5c0,0,0.7-3.2,4.3,0.1c3.2,3,4.4-0.9,4.1-1"/>
<path class="st0" d="M26.4,9.2c0,0,0.7-3.2,4.3,0.1c3.2,3,4.4-0.9,4.1-1"/>
<path class="st0" d="M36.8,22.5c0,0,0.7-3.2,4.3,0.1c3.2,3,4.4-0.9,4.1-1"/>
<path class="st0" d="M2.6,37.7c0,0,0.7-3.2,4.3,0.1c3.2,3,4.4-0.9,4.1-1"/>
<path class="st0" d="M26.4,36.4c0,0,0.7-3.2,4.3,0.1c3.2,3,4.4-0.9,4.1-1"/>
<path class="st0" d="M12.2,23.4c0,0,0.7-3.2,4.3,0.1c3.2,3,4.4-0.9,4.1-1"/>
<g>
	<polyline class="st0" points="6,9.8 4.3,11.3 2.1,13.2 6,16.4 	"/>
	<line class="st0" x1="11.6" y1="11.5" x2="5" y2="11.6"/>
	<line class="st0" x1="11.6" y1="14.6" x2="5" y2="14.7"/>
</g>
<g>
	<polyline class="st0" points="28.5,8.5 26.8,9.9 24.6,11.8 28.5,15 	"/>
	<line class="st0" x1="34.1" y1="10.2" x2="27.5" y2="10.2"/>
	<line class="st0" x1="34.1" y1="13.3" x2="27.5" y2="13.3"/>
</g>
<g>
	<polyline class="st0" points="14.9,22.7 13.2,24.2 11,26.1 14.9,29.3 	"/>
	<line class="st0" x1="20.5" y1="24.5" x2="13.9" y2="24.5"/>
	<line class="st0" x1="20.5" y1="27.6" x2="13.9" y2="27.6"/>
</g>
<g>
	<polyline class="st0" points="39.6,22 37.9,23.5 35.8,25.4 39.6,28.6 	"/>
	<line class="st0" x1="45.2" y1="23.7" x2="38.6" y2="23.8"/>
	<line class="st0" x1="45.2" y1="26.8" x2="38.6" y2="26.9"/>
</g>
<g>
	<polyline class="st0" points="5.4,37.2 3.7,38.7 1.6,40.6 5.4,43.8 	"/>
	<line class="st0" x1="11" y1="38.9" x2="4.4" y2="39"/>
	<line class="st0" x1="11" y1="42" x2="4.4" y2="42.1"/>
</g>
<g>
	<polyline class="st0" points="28.9,35.5 27.2,37 25.1,38.9 28.9,42.1 	"/>
	<line class="st0" x1="34.6" y1="37.3" x2="28" y2="37.3"/>
	<line class="st0" x1="34.6" y1="40.4" x2="28" y2="40.4"/>
</g>
<rect class="st1" width="48" height="48"/>
</svg>
