<svg xmlns="http://www.w3.org/2000/svg" width="49.107" height="49.407" viewBox="0 0 49.107 49.407">
  <g id="淤泥质重粉质粘土" transform="translate(-4951.246 -55.646)">
    <path id="路径_3235" data-name="路径 3235" d="M0,0H48V48H0Z" transform="translate(4952 56)" fill="none"/>
    <g id="淤泥质重粉质粘土-2" data-name="淤泥质重粉质粘土" transform="translate(4951.8 56.6)">
      <path id="直线_456" data-name="直线 456" d="M.354,38.054l-.707-.707,7.071-7.071.707.707Zm9.9-9.9-.707-.707,7.071-7.071.707.707Zm9.9-9.9-.707-.707,7.071-7.071.707.707Zm9.9-9.9-.707-.707L36.416.577l.707.707Z" transform="translate(5.7 4.8)" fill="#595758"/>
      <path id="直线_457" data-name="直线 457" d="M.354,16.154l-.707-.707,15.8-15.8.707.707Z" transform="translate(32.2 32.1)" fill="#595758"/>
      <path id="直线_458" data-name="直线 458" d="M.354,32.354l-.707-.707,32-32,.707.707Z" transform="translate(-0.2 -0.2)" fill="#595758"/>
      <path id="直线_459" data-name="直线 459" d="M.354,32.354l-.707-.707,32-32,.707.707Z" transform="translate(16.2 16.1)" fill="#595758"/>
      <path id="直线_460" data-name="直线 460" d="M.354,16.154l-.707-.707,15.8-15.8.707.707Z" fill="#595758"/>
      <path id="直线_461" data-name="直线 461" d="M.354,16.154l-.707-.707,15.8-15.8.707.707Z" transform="translate(0.4 -0.6)" fill="#595758"/>
      <path id="直线_462" data-name="直线 462" d="M.354,3.854l-.707-.707,3.5-3.5.707.707Z" transform="translate(-0.1 44.6)" fill="#595758"/>
      <path id="直线_463" data-name="直线 463" d="M.354,3.854l-.707-.707,3.5-3.5.707.707Z" transform="translate(44.5)" fill="#595758"/>
      <path id="路径_1874" data-name="路径 1874" d="M13.112,8.531A3.836,3.836,0,0,1,10.56,7.267c-1.137-1.042-2.1-1.51-2.706-1.317-.581.184-.764.949-.766.957l-.977-.214A2.394,2.394,0,0,1,7.552,5c.992-.314,2.232.2,3.686,1.535l0,0c.637.6,1.557,1.239,2.319.9a2,2,0,0,0,.983-1.409.43.43,0,0,0,.3.345l.316-.949a.577.577,0,0,1,.385.548,2.894,2.894,0,0,1-1.535,2.359A2.1,2.1,0,0,1,13.112,8.531Z" fill="#595758"/>
      <path id="路径_1875" data-name="路径 1875" d="M28.912,8.631A3.836,3.836,0,0,1,26.36,7.367c-1.134-1.039-2.093-1.507-2.7-1.319-.584.181-.769.954-.771.961l-.976-.216a2.394,2.394,0,0,1,1.44-1.7c.992-.314,2.232.2,3.686,1.535l0,0c.637.6,1.557,1.239,2.319.9a2,2,0,0,0,.983-1.409.43.43,0,0,0,.3.345l.316-.949a.577.577,0,0,1,.385.548,2.894,2.894,0,0,1-1.535,2.359A2.1,2.1,0,0,1,28.912,8.631Z" fill="#595758"/>
      <path id="路径_1876" data-name="路径 1876" d="M45.012,8.631A3.836,3.836,0,0,1,42.46,7.367c-1.137-1.042-2.1-1.51-2.706-1.317-.581.184-.764.949-.766.957l-.977-.214a2.394,2.394,0,0,1,1.44-1.7c.992-.314,2.232.2,3.686,1.535l0,0c.637.6,1.557,1.239,2.319.9a2,2,0,0,0,.983-1.409.43.43,0,0,0,.3.345l.316-.949a.577.577,0,0,1,.385.548,2.894,2.894,0,0,1-1.535,2.359A2.1,2.1,0,0,1,45.012,8.631Z" fill="#595758"/>
      <path id="路径_1877" data-name="路径 1877" d="M13.112,24.431a3.836,3.836,0,0,1-2.552-1.265c-1.137-1.042-2.1-1.51-2.706-1.317-.581.184-.764.949-.766.957l-.977-.214a2.394,2.394,0,0,1,1.44-1.7c.992-.314,2.232.2,3.686,1.535l0,0c.637.6,1.557,1.239,2.319.9a2,2,0,0,0,.983-1.409.43.43,0,0,0,.3.345l.316-.949a.577.577,0,0,1,.385.548,2.894,2.894,0,0,1-1.535,2.359A2.1,2.1,0,0,1,13.112,24.431Z" fill="#595758"/>
      <path id="路径_1878" data-name="路径 1878" d="M28.912,24.631a3.836,3.836,0,0,1-2.552-1.265c-1.137-1.042-2.1-1.51-2.706-1.317-.581.184-.764.949-.766.957l-.977-.214a2.394,2.394,0,0,1,1.44-1.7c.992-.314,2.232.2,3.686,1.535l0,0c.637.6,1.557,1.239,2.319.9a2,2,0,0,0,.983-1.409.43.43,0,0,0,.3.345l.316-.949a.577.577,0,0,1,.385.548,2.894,2.894,0,0,1-1.535,2.359A2.1,2.1,0,0,1,28.912,24.631Z" fill="#595758"/>
      <path id="路径_1879" data-name="路径 1879" d="M45.012,24.631a3.836,3.836,0,0,1-2.552-1.265c-1.137-1.042-2.1-1.51-2.706-1.317-.581.184-.764.949-.766.957l-.977-.214a2.394,2.394,0,0,1,1.44-1.7c.992-.314,2.232.2,3.686,1.535l0,0c.637.6,1.557,1.239,2.319.9a2,2,0,0,0,.983-1.409.43.43,0,0,0,.3.345l.316-.949a.577.577,0,0,1,.385.548,2.894,2.894,0,0,1-1.535,2.359A2.1,2.1,0,0,1,45.012,24.631Z" fill="#595758"/>
      <path id="路径_1880" data-name="路径 1880" d="M13.112,40.431a3.837,3.837,0,0,1-2.552-1.265c-1.137-1.042-2.1-1.509-2.706-1.317-.581.184-.764.949-.766.957l-.977-.214a2.394,2.394,0,0,1,1.44-1.7c.992-.314,2.232.2,3.686,1.535l0,0c.637.6,1.557,1.239,2.319.9a2,2,0,0,0,.983-1.409.43.43,0,0,0,.3.345l.316-.949a.577.577,0,0,1,.385.548,2.894,2.894,0,0,1-1.535,2.359A2.1,2.1,0,0,1,13.112,40.431Z" fill="#595758"/>
      <path id="路径_1881" data-name="路径 1881" d="M28.912,40.531a3.837,3.837,0,0,1-2.552-1.265c-1.134-1.039-2.093-1.507-2.7-1.318-.584.181-.769.954-.771.961l-.976-.216a2.394,2.394,0,0,1,1.44-1.7c.992-.314,2.232.2,3.686,1.535l0,0c.637.6,1.557,1.239,2.319.9a2,2,0,0,0,.983-1.409.43.43,0,0,0,.3.345l.316-.949a.577.577,0,0,1,.385.548,2.894,2.894,0,0,1-1.535,2.359A2.1,2.1,0,0,1,28.912,40.531Z" fill="#595758"/>
      <path id="路径_1882" data-name="路径 1882" d="M45.012,40.531a3.837,3.837,0,0,1-2.552-1.265c-1.137-1.042-2.1-1.509-2.706-1.317-.581.184-.764.949-.766.957l-.977-.214a2.394,2.394,0,0,1,1.44-1.7c.992-.314,2.232.2,3.686,1.535l0,0c.637.6,1.557,1.239,2.319.9a2,2,0,0,0,.983-1.408.43.43,0,0,0,.3.345l.316-.949a.577.577,0,0,1,.385.548,2.894,2.894,0,0,1-1.535,2.359A2.1,2.1,0,0,1,45.012,40.531Z" fill="#595758"/>
    </g>
  </g>
</svg>
