<svg xmlns="http://www.w3.org/2000/svg" width="48" height="48" viewBox="0 0 48 48">
  <g id="淤泥质土" transform="translate(-3568 -56)">
    <path id="路径_3211" data-name="路径 3211" d="M0,0H48V48H0Z" transform="translate(3568 56)" fill="none"/>
    <g id="淤泥质土-2" data-name="淤泥质土" transform="translate(3567.7 55.508)">
      <path id="路径_1480" data-name="路径 1480" d="M.3,7S1.4,4.9,3,4.7a6.1,6.1,0,0,1,3.8.9c1.7.9,2.4,1.8,4.3,1.7a3.154,3.154,0,0,0,2.6-2A3.908,3.908,0,0,1,13,7a3.289,3.289,0,0,1-2.3,1.1,9.365,9.365,0,0,1-5-1.7C2.9,4.5.3,7,.3,7Z"/>
      <path id="路径_1481" data-name="路径 1481" d="M22.9,6.6S24,4.5,25.6,4.3a6.1,6.1,0,0,1,3.8.9c1.7.9,2.4,1.8,4.3,1.7a3.154,3.154,0,0,0,2.6-2,3.367,3.367,0,0,1-.6,1.7,3.289,3.289,0,0,1-2.3,1.1,9.365,9.365,0,0,1-5-1.7C25.6,4.1,22.9,6.6,22.9,6.6Z"/>
      <path id="路径_1482" data-name="路径 1482" d="M11.5,19.2s1.1-2.1,2.7-2.3a6.1,6.1,0,0,1,3.8.9c1.7.9,2.4,1.8,4.3,1.7a3.154,3.154,0,0,0,2.6-2,3.367,3.367,0,0,1-.6,1.7A3.289,3.289,0,0,1,22,20.3a9.365,9.365,0,0,1-5-1.7C14.2,16.6,11.5,19.2,11.5,19.2Z"/>
      <path id="路径_1483" data-name="路径 1483" d="M34.4,18.8s1.1-2.1,2.7-2.3a6.1,6.1,0,0,1,3.8.9c1.7.9,2.4,1.8,4.3,1.7a3.154,3.154,0,0,0,2.6-2,3.367,3.367,0,0,1-.6,1.7,3.289,3.289,0,0,1-2.3,1.1,9.365,9.365,0,0,1-5-1.7C37.1,16.2,34.4,18.8,34.4,18.8Z"/>
      <path id="路径_1484" data-name="路径 1484" d="M11.5,43.6s1.1-2.1,2.7-2.3a6.1,6.1,0,0,1,3.8.9c1.7.9,2.4,1.8,4.3,1.7a3.154,3.154,0,0,0,2.6-2,3.367,3.367,0,0,1-.6,1.7A3.289,3.289,0,0,1,22,44.7,9.365,9.365,0,0,1,17,43C14.2,41,11.5,43.6,11.5,43.6Z"/>
      <path id="路径_1485" data-name="路径 1485" d="M34.4,43.1s1.1-2.1,2.7-2.3a6.1,6.1,0,0,1,3.8.9c1.7.9,2.4,1.8,4.3,1.7a3.154,3.154,0,0,0,2.6-2,3.367,3.367,0,0,1-.6,1.7,3.289,3.289,0,0,1-2.3,1.1,9.365,9.365,0,0,1-5-1.7C37.1,40.6,34.4,43.1,34.4,43.1Z"/>
      <path id="路径_1486" data-name="路径 1486" d="M.3,31.4S1.4,29.3,3,29.1a6.1,6.1,0,0,1,3.8.9c1.7.9,2.4,1.8,4.3,1.7a3.154,3.154,0,0,0,2.6-2,3.367,3.367,0,0,1-.6,1.7,3.289,3.289,0,0,1-2.3,1.1,9.365,9.365,0,0,1-5-1.7C2.9,28.8.3,31.4.3,31.4Z"/>
      <path id="路径_1487" data-name="路径 1487" d="M22.9,31s1.1-2.1,2.7-2.3a6.1,6.1,0,0,1,3.8.9c1.7.9,2.4,1.8,4.3,1.7a3.154,3.154,0,0,0,2.6-2,3.367,3.367,0,0,1-.6,1.7,3.289,3.289,0,0,1-2.3,1.1,9.365,9.365,0,0,1-5-1.7C25.6,28.4,22.9,31,22.9,31Z"/>
    </g>
  </g>
</svg>
