<?xml version="1.0" standalone="no"?><!DOCTYPE svg PUBLIC "-//W3C//DTD SVG 1.1//EN" "http://www.w3.org/Graphics/SVG/1.1/DTD/svg11.dtd"><svg class="icon" width="48px" height="47.72px" viewBox="0 0 1030 1024" version="1.1" xmlns="http://www.w3.org/2000/svg"><path fill="#333333" d="M96 241.066667h21.333333v172.8h-21.333333zM96 654.933333h21.333333v117.333334h-21.333333zM454.4 241.066667h21.333333v172.8h-21.333333zM454.4 654.933333h21.333333v117.333334h-21.333333zM881.066667 241.066667h21.333333v172.8h-21.333333zM881.066667 654.933333h21.333333v117.333334h-21.333333zM283.733333 443.733333h21.333334v172.8h-21.333334zM674.133333 443.733333h21.333334v172.8h-21.333334zM93.866667 576c-38.4 0-51.2-38.4-51.2-57.6 0 0-6.4-23.466667-32-23.466667-6.4 0-10.666667-4.266667-10.666667-10.666666s4.266667-10.666667 10.666667-10.666667c36.266667 0 51.2 27.733333 53.333333 42.666667 0 2.133333 2.133333 38.4 29.866667 38.4 29.866667 0 38.4-32 38.4-32 2.133333-6.4 8.533333-10.666667 12.8-8.533334 6.4 2.133333 8.533333 6.4 8.533333 12.8-4.266667 17.066667-23.466667 49.066667-59.733333 49.066667zM322.133333 371.2c-29.866667 0-42.666667-29.866667-44.8-46.933333 0-4.266667-2.133333-17.066667-23.466666-17.066667-4.266667 0-10.666667 0-14.933334 4.266667-2.133333 4.266667-2.133333 8.533333-2.133333 8.533333 0 6.4-4.266667 10.666667-8.533333 12.8-6.4 0-10.666667-2.133333-12.8-8.533333 0-2.133333-2.133333-14.933333 6.4-25.6 6.4-8.533333 17.066667-12.8 32-12.8 34.133333 0 44.8 23.466667 44.8 36.266666 0 0 6.4 27.733333 23.466666 27.733334 19.2 0 32-8.533333 32-21.333334 0-6.4 4.266667-10.666667 10.666667-10.666666s10.666667 4.266667 10.666667 10.666666c0 21.333333-17.066667 42.666667-53.333334 42.666667zM480 569.6c-29.866667 0-42.666667-29.866667-44.8-46.933333 0-4.266667-2.133333-17.066667-23.466667-17.066667-4.266667 0-10.666667 0-14.933333 4.266667-2.133333 4.266667-2.133333 8.533333-2.133333 8.533333 0 6.4-2.133333 10.666667-8.533334 12.8-6.4 0-10.666667-2.133333-12.8-8.533333 0-2.133333-2.133333-14.933333 6.4-25.6 6.4-8.533333 17.066667-12.8 32-12.8 34.133333 0 44.8 23.466667 44.8 36.266666 0 0 6.4 27.733333 23.466667 27.733334 19.2 0 32-8.533333 32-21.333334 0-6.4 4.266667-10.666667 10.666667-10.666666s10.666667 4.266667 10.666666 10.666666c0 21.333333-17.066667 42.666667-53.333333 42.666667zM706.133333 360.533333c-29.866667 0-42.666667-29.866667-44.8-46.933333 0-4.266667-2.133333-17.066667-23.466666-17.066667-4.266667 0-10.666667 0-14.933334 4.266667-2.133333 4.266667-2.133333 8.533333-2.133333 8.533333 0 6.4-2.133333 10.666667-8.533333 12.8-6.4 0-10.666667-2.133333-12.8-8.533333 0-2.133333-2.133333-14.933333 6.4-25.6 6.4-8.533333 17.066667-12.8 32-12.8 32 0 44.8 23.466667 44.8 36.266667 0 0 6.4 27.733333 23.466666 27.733333 19.2 0 32-8.533333 32-21.333333 0-6.4 4.266667-10.666667 10.666667-10.666667s10.666667 4.266667 10.666667 10.666667c0 21.333333-17.066667 42.666667-53.333334 42.666666zM706.133333 770.133333c-29.866667 0-42.666667-29.866667-44.8-46.933333 0-4.266667-2.133333-17.066667-23.466666-17.066667-4.266667 0-10.666667 0-14.933334 4.266667-2.133333 4.266667-2.133333 8.533333-2.133333 8.533333 0 6.4-2.133333 10.666667-8.533333 12.8-6.4 0-10.666667-2.133333-12.8-8.533333 0-2.133333-2.133333-14.933333 6.4-25.6 6.4-8.533333 17.066667-12.8 32-12.8 32 0 44.8 23.466667 44.8 36.266667 0 0 6.4 27.733333 23.466666 27.733333 19.2 0 32-8.533333 32-21.333333 0-6.4 4.266667-10.666667 10.666667-10.666667s10.666667 4.266667 10.666667 10.666667c0 21.333333-17.066667 42.666667-53.333334 42.666666zM919.466667 569.6c-29.866667 0-42.666667-29.866667-44.8-46.933333 0-4.266667-2.133333-17.066667-23.466667-17.066667-4.266667 0-10.666667 0-14.933333 4.266667-2.133333 4.266667-2.133333 8.533333-2.133334 8.533333 0 6.4-2.133333 10.666667-8.533333 12.8-6.4 0-10.666667-2.133333-12.8-8.533333 0-2.133333-2.133333-14.933333 6.4-25.6 6.4-8.533333 17.066667-12.8 32-12.8 32 0 44.8 23.466667 44.8 36.266666 0 0 6.4 27.733333 23.466667 27.733334 19.2 0 32-8.533333 32-21.333334 0-6.4 4.266667-10.666667 10.666666-10.666666s10.666667 4.266667 10.666667 10.666666c0 21.333333-17.066667 42.666667-53.333333 42.666667zM283.733333 8.533333h21.333334v172.8h-21.333334zM674.133333 8.533333h21.333334v172.8h-21.333334zM93.866667 140.8c-38.4 0-51.2-38.4-51.2-57.6 0 0-6.4-23.466667-32-23.466667-6.4 0-10.666667-4.266667-10.666667-10.666666s4.266667-10.666667 10.666667-10.666667c36.266667 0 51.2 27.733333 53.333333 42.666667 0 2.133333 2.133333 38.4 29.866667 38.4 29.866667 0 38.4-32 38.4-32 2.133333-6.4 8.533333-10.666667 12.8-8.533334 6.4 2.133333 10.666667 8.533333 8.533333 12.8-4.266667 17.066667-23.466667 49.066667-59.733333 49.066667zM480 134.4c-29.866667 0-42.666667-29.866667-44.8-46.933333 0-4.266667-2.133333-17.066667-23.466667-17.066667-4.266667 0-10.666667 0-14.933333 4.266667-2.133333 4.266667-2.133333 8.533333-2.133333 8.533333 0 6.4-2.133333 10.666667-8.533334 12.8-6.4 0-10.666667-2.133333-12.8-8.533333 0-2.133333-2.133333-14.933333 6.4-25.6 6.4-8.533333 17.066667-12.8 32-12.8 34.133333 0 44.8 23.466667 44.8 36.266666 0 0 6.4 27.733333 23.466667 27.733334 19.2 0 32-8.533333 32-21.333334 0-6.4 4.266667-10.666667 10.666667-10.666666s10.666667 4.266667 10.666666 10.666666c0 21.333333-17.066667 42.666667-53.333333 42.666667zM919.466667 134.4c-29.866667 0-42.666667-29.866667-44.8-46.933333 0-4.266667-2.133333-17.066667-23.466667-17.066667-4.266667 0-10.666667 0-14.933333 4.266667-2.133333 4.266667-2.133333 8.533333-2.133334 8.533333 0 6.4-2.133333 10.666667-8.533333 12.8-6.4 0-10.666667-2.133333-12.8-8.533333 0-2.133333-2.133333-14.933333 6.4-25.6 6.4-8.533333 17.066667-12.8 32-12.8 32 0 44.8 23.466667 44.8 36.266666 0 0 6.4 27.733333 23.466667 27.733334 19.2 0 32-8.533333 32-21.333334 0-6.4 4.266667-10.666667 10.666666-10.666666s10.666667 4.266667 10.666667 10.666666c0 21.333333-17.066667 42.666667-53.333333 42.666667zM283.733333 851.2h21.333334V1024h-21.333334zM674.133333 851.2h21.333334V1024h-21.333334zM93.866667 983.466667c-38.4 0-51.2-38.4-51.2-57.6 0 0-6.4-23.466667-32-23.466667-6.4 0-10.666667-4.266667-10.666667-10.666667s4.266667-10.666667 10.666667-10.666666c36.266667 0 51.2 27.733333 53.333333 42.666666 0 2.133333 2.133333 38.4 29.866667 38.4 29.866667 0 38.4-32 38.4-32 2.133333-6.4 6.4-8.533333 12.8-8.533333 6.4 2.133333 8.533333 6.4 8.533333 12.8-4.266667 17.066667-23.466667 49.066667-59.733333 49.066667zM480 977.066667c-29.866667 0-42.666667-29.866667-44.8-46.933334 0-4.266667-2.133333-17.066667-23.466667-17.066666-4.266667 0-10.666667 0-14.933333 4.266666-2.133333 4.266667-2.133333 8.533333-2.133333 8.533334 0 6.4-2.133333 10.666667-8.533334 12.8-6.4 0-10.666667-2.133333-12.8-8.533334 0-2.133333-2.133333-14.933333 6.4-25.6 6.4-8.533333 17.066667-12.8 32-12.8 34.133333 0 44.8 23.466667 44.8 36.266667 0 0 6.4 27.733333 23.466667 27.733333 19.2 0 32-8.533333 32-21.333333 0-6.4 4.266667-10.666667 10.666667-10.666667s10.666667 4.266667 10.666666 10.666667c0 21.333333-17.066667 42.666667-53.333333 42.666667zM919.466667 977.066667c-29.866667 0-42.666667-29.866667-44.8-46.933334 0-4.266667-2.133333-17.066667-23.466667-17.066666-4.266667 0-10.666667 0-14.933333 4.266666-2.133333 4.266667-2.133333 8.533333-2.133334 8.533334 0 6.4-2.133333 10.666667-8.533333 12.8-6.4 0-10.666667-2.133333-12.8-8.533334 0-2.133333-2.133333-14.933333 6.4-25.6 6.4-8.533333 17.066667-12.8 32-12.8 32 0 44.8 23.466667 44.8 36.266667 0 0 6.4 27.733333 23.466667 27.733333 19.2 0 32-8.533333 32-21.333333 0-6.4 4.266667-10.666667 10.666666-10.666667s10.666667 4.266667 10.666667 10.666667c0 21.333333-17.066667 42.666667-53.333333 42.666667zM322.133333 770.133333c-29.866667 0-42.666667-29.866667-44.8-46.933333 0-4.266667-2.133333-17.066667-23.466666-17.066667-4.266667 0-10.666667 0-14.933334 4.266667-2.133333 4.266667-2.133333 8.533333-2.133333 8.533333 0 6.4-4.266667 10.666667-8.533333 12.8-6.4 0-10.666667-2.133333-12.8-8.533333 0-2.133333-2.133333-14.933333 6.4-25.6 6.4-8.533333 17.066667-12.8 32-12.8 34.133333 0 44.8 23.466667 44.8 36.266667 0 0 6.4 27.733333 23.466666 27.733333 19.2 0 32-8.533333 32-21.333333 0-6.4 4.266667-10.666667 10.666667-10.666667s10.666667 4.266667 10.666667 10.666667c0 21.333333-17.066667 42.666667-53.333334 42.666666z" /></svg>