<svg xmlns="http://www.w3.org/2000/svg" width="48" height="48" viewBox="0 0 48 48">
  <g id="淤泥质细砂" transform="translate(-4896 -56)">
    <path id="路径_3234" data-name="路径 3234" d="M0,0H48V48H0Z" transform="translate(4896 56)" fill="none"/>
    <g id="淤泥质细砂-2" data-name="淤泥质细砂" transform="translate(4894.5 55.497)">
      <path id="路径_1856" data-name="路径 1856" d="M8.9,11.2H7.7A1.216,1.216,0,0,1,6.5,10h0A1.216,1.216,0,0,1,7.7,8.8H8.8A1.216,1.216,0,0,1,10,10h0C9.9,10.7,9.5,11.2,8.9,11.2Z"/>
      <path id="路径_1857" data-name="路径 1857" d="M24.6,11.4H23.4a1.216,1.216,0,0,1-1.2-1.2h0A1.216,1.216,0,0,1,23.4,9h1.2a1.216,1.216,0,0,1,1.2,1.2h0A1.216,1.216,0,0,1,24.6,11.4Z"/>
      <path id="路径_1858" data-name="路径 1858" d="M40.8,11.4H39.6a1.216,1.216,0,0,1-1.2-1.2h0A1.216,1.216,0,0,1,39.6,9h1.2A1.216,1.216,0,0,1,42,10.2h0A1.216,1.216,0,0,1,40.8,11.4Z"/>
      <path id="路径_1859" data-name="路径 1859" d="M13.212,8.731A3.836,3.836,0,0,1,10.66,7.467c-1.137-1.042-2.1-1.51-2.706-1.317-.581.184-.764.949-.766.957l-.977-.214a2.394,2.394,0,0,1,1.44-1.7c.992-.314,2.232.2,3.686,1.535l0,0c.637.6,1.557,1.239,2.319.9a2,2,0,0,0,.983-1.409.43.43,0,0,0,.3.345l.316-.949a.577.577,0,0,1,.385.548,2.894,2.894,0,0,1-1.535,2.359A2.1,2.1,0,0,1,13.212,8.731Z" fill="#595758"/>
      <path id="路径_1860" data-name="路径 1860" d="M28.912,8.931A3.836,3.836,0,0,1,26.36,7.667c-1.134-1.039-2.093-1.507-2.7-1.319-.584.181-.769.954-.771.961l-.976-.216a2.394,2.394,0,0,1,1.44-1.7c.992-.314,2.232.2,3.686,1.535l0,0c.637.6,1.557,1.239,2.319.9a2,2,0,0,0,.983-1.409.43.43,0,0,0,.3.345l.316-.949a.577.577,0,0,1,.385.548,2.894,2.894,0,0,1-1.535,2.359A2.1,2.1,0,0,1,28.912,8.931Z" fill="#595758"/>
      <path id="路径_1861" data-name="路径 1861" d="M45.112,8.931A3.836,3.836,0,0,1,42.56,7.667c-1.137-1.042-2.1-1.51-2.706-1.317-.581.184-.764.949-.766.957l-.977-.214a2.394,2.394,0,0,1,1.44-1.7c.992-.314,2.232.2,3.686,1.535l0,0c.637.6,1.557,1.239,2.319.9a2,2,0,0,0,.983-1.409.43.43,0,0,0,.3.345l.316-.949a.577.577,0,0,1,.385.548,2.894,2.894,0,0,1-1.535,2.359A2.1,2.1,0,0,1,45.112,8.931Z" fill="#595758"/>
      <path id="路径_1862" data-name="路径 1862" d="M8.9,27.1H7.7a1.216,1.216,0,0,1-1.2-1.2h0a1.216,1.216,0,0,1,1.2-1.2H8.8A1.216,1.216,0,0,1,10,25.9h0C9.9,26.6,9.5,27.1,8.9,27.1Z"/>
      <path id="路径_1863" data-name="路径 1863" d="M24.6,27.3H23.4a1.216,1.216,0,0,1-1.2-1.2h0a1.216,1.216,0,0,1,1.2-1.2h1.2a1.216,1.216,0,0,1,1.2,1.2h0A1.216,1.216,0,0,1,24.6,27.3Z"/>
      <path id="路径_1864" data-name="路径 1864" d="M40.8,27.3H39.6a1.216,1.216,0,0,1-1.2-1.2h0a1.216,1.216,0,0,1,1.2-1.2h1.2A1.216,1.216,0,0,1,42,26.1h0A1.216,1.216,0,0,1,40.8,27.3Z"/>
      <path id="路径_1865" data-name="路径 1865" d="M13.212,24.631a3.836,3.836,0,0,1-2.552-1.265c-1.134-1.039-2.093-1.507-2.7-1.319-.584.181-.769.954-.771.961l-.976-.216a2.394,2.394,0,0,1,1.44-1.7c.992-.314,2.232.2,3.686,1.535l0,0c.637.6,1.557,1.239,2.319.9a2,2,0,0,0,.983-1.409.43.43,0,0,0,.3.345l.316-.949a.577.577,0,0,1,.385.548,2.894,2.894,0,0,1-1.535,2.359A2.1,2.1,0,0,1,13.212,24.631Z" fill="#595758"/>
      <path id="路径_1866" data-name="路径 1866" d="M28.912,24.831a3.836,3.836,0,0,1-2.552-1.265c-1.137-1.042-2.1-1.51-2.706-1.317-.581.184-.764.949-.766.957l-.977-.214a2.394,2.394,0,0,1,1.44-1.7c.992-.314,2.232.2,3.686,1.535l0,0c.637.6,1.557,1.239,2.319.9a2,2,0,0,0,.983-1.409.43.43,0,0,0,.3.345l.316-.949a.577.577,0,0,1,.385.548,2.894,2.894,0,0,1-1.535,2.359A2.1,2.1,0,0,1,28.912,24.831Z" fill="#595758"/>
      <path id="路径_1867" data-name="路径 1867" d="M45.112,24.831a3.836,3.836,0,0,1-2.552-1.265c-1.137-1.042-2.1-1.51-2.706-1.317-.581.184-.764.949-.766.957l-.977-.214a2.394,2.394,0,0,1,1.44-1.7c.992-.314,2.232.2,3.686,1.535l0,0c.637.6,1.557,1.239,2.319.9a2,2,0,0,0,.983-1.409.43.43,0,0,0,.3.345l.316-.949a.577.577,0,0,1,.385.548,2.894,2.894,0,0,1-1.535,2.359A2.1,2.1,0,0,1,45.112,24.831Z" fill="#595758"/>
      <path id="路径_1868" data-name="路径 1868" d="M8.9,43.1H7.7a1.216,1.216,0,0,1-1.2-1.2h0a1.216,1.216,0,0,1,1.2-1.2H8.8A1.216,1.216,0,0,1,10,41.9h0C9.9,42.6,9.5,43.1,8.9,43.1Z"/>
      <path id="路径_1869" data-name="路径 1869" d="M24.6,43.3H23.4a1.216,1.216,0,0,1-1.2-1.2h0a1.216,1.216,0,0,1,1.2-1.2h1.2a1.216,1.216,0,0,1,1.2,1.2h0A1.216,1.216,0,0,1,24.6,43.3Z"/>
      <path id="路径_1870" data-name="路径 1870" d="M40.8,43.3H39.6a1.216,1.216,0,0,1-1.2-1.2h0a1.216,1.216,0,0,1,1.2-1.2h1.2A1.216,1.216,0,0,1,42,42.1h0A1.216,1.216,0,0,1,40.8,43.3Z"/>
      <path id="路径_1871" data-name="路径 1871" d="M13.212,40.631a3.836,3.836,0,0,1-2.552-1.265c-1.134-1.039-2.093-1.507-2.7-1.319-.584.181-.769.954-.771.961l-.976-.216a2.394,2.394,0,0,1,1.44-1.7c.992-.314,2.232.2,3.686,1.535l0,0c.637.6,1.557,1.239,2.319.9a2,2,0,0,0,.983-1.409.43.43,0,0,0,.3.345l.316-.949a.577.577,0,0,1,.385.548,2.894,2.894,0,0,1-1.535,2.359A2.1,2.1,0,0,1,13.212,40.631Z" fill="#595758"/>
      <path id="路径_1872" data-name="路径 1872" d="M28.912,40.831a3.836,3.836,0,0,1-2.552-1.265c-1.134-1.039-2.093-1.507-2.7-1.319-.584.181-.769.954-.771.961l-.976-.216a2.394,2.394,0,0,1,1.44-1.7c.992-.314,2.232.2,3.686,1.535l0,0c.637.6,1.557,1.239,2.319.9a2,2,0,0,0,.983-1.409.43.43,0,0,0,.3.345l.316-.949a.577.577,0,0,1,.385.548,2.894,2.894,0,0,1-1.535,2.359A2.1,2.1,0,0,1,28.912,40.831Z" fill="#595758"/>
      <path id="路径_1873" data-name="路径 1873" d="M45.112,40.831a3.836,3.836,0,0,1-2.552-1.265c-1.137-1.042-2.1-1.51-2.706-1.317-.581.184-.764.949-.766.957l-.977-.214a2.394,2.394,0,0,1,1.44-1.7c.992-.314,2.232.2,3.686,1.535l0,0c.637.6,1.557,1.239,2.319.9a2,2,0,0,0,.983-1.409.43.43,0,0,0,.3.345l.316-.949a.577.577,0,0,1,.385.548,2.894,2.894,0,0,1-1.535,2.359A2.1,2.1,0,0,1,45.112,40.831Z" fill="#595758"/>
    </g>
  </g>
</svg>
