<?xml version="1.0" encoding="utf-8"?>
<!-- Generator: Adobe Illustrator 21.0.0, SVG Export Plug-In . SVG Version: 6.00 Build 0)  -->
<svg version="1.1" id="图层_1" xmlns="http://www.w3.org/2000/svg" xmlns:xlink="http://www.w3.org/1999/xlink" x="0px" y="0px"
	 width="48px" height="48px" viewBox="0 0 48 48" enable-background="new 0 0 48 48" xml:space="preserve">
<g id="淤泥质土_1_">
	<line fill="none" stroke="#595758" stroke-miterlimit="10" x1="0.037" y1="48.059" x2="47.755" y2="0.262"/>
	<g>
		<g>
			<line fill="none" stroke="#595758" stroke-miterlimit="10" x1="16.423" y1="48.045" x2="20.662" y2="43.799"/>
			
				<line fill="none" stroke="#595758" stroke-miterlimit="10" stroke-dasharray="10.9025,10.9025" x1="28.365" y1="36.083" x2="39.919" y2="24.51"/>
			<line fill="none" stroke="#595758" stroke-miterlimit="10" x1="43.771" y1="20.652" x2="48.01" y2="16.406"/>
		</g>
	</g>
	<line fill="none" stroke="#595758" stroke-miterlimit="10" x1="32.217" y1="48.059" x2="48.032" y2="32.284"/>
	<g>
		<g>
			<line fill="none" stroke="#595758" stroke-miterlimit="10" x1="0.023" y1="32.252" x2="4.263" y2="28.006"/>
			
				<line fill="none" stroke="#595758" stroke-miterlimit="10" stroke-dasharray="11.1913,11.1913" x1="12.169" y1="20.086" x2="24.03" y2="8.206"/>
			<line fill="none" stroke="#595758" stroke-miterlimit="10" x1="27.982" y1="4.246" x2="32.223" y2="0"/>
		</g>
	</g>
	<line fill="none" stroke="#595758" stroke-miterlimit="10" x1="0.01" y1="16.139" x2="16.021" y2="0.103"/>
	<path fill="none" stroke="#595758" stroke-miterlimit="10" d="M3.791,10.508c0,0,0.726-3.212,4.274,0.095
		c3.208,2.989,4.436-0.868,4.113-1.039"/>
	<path fill="none" stroke="#595758" stroke-miterlimit="10" d="M26.385,9.195c0,0,0.727-3.212,4.274,0.095
		c3.208,2.989,4.437-0.868,4.114-1.039"/>
	<path fill="none" stroke="#595758" stroke-miterlimit="10" d="M36.797,22.508c0,0,0.725-3.212,4.273,0.095
		c3.207,2.989,4.436-0.868,4.113-1.039"/>
	<path fill="none" stroke="#595758" stroke-miterlimit="10" d="M2.581,37.723c0,0,0.726-3.212,4.274,0.096
		c3.208,2.988,4.436-0.868,4.114-1.039"/>
	<path fill="none" stroke="#595758" stroke-miterlimit="10" d="M26.385,36.409c0,0,0.727-3.212,4.274,0.095
		c3.208,2.989,4.437-0.868,4.114-1.039"/>
	<path fill="none" stroke="#595758" stroke-miterlimit="10" d="M12.228,23.434c0,0,0.726-3.212,4.274,0.095
		c3.208,2.989,4.436-0.868,4.114-1.039"/>
</g>
</svg>
