<?xml version='1.0' encoding='utf-8'?>
<!DOCTYPE svg PUBLIC '-//W3C//DTD SVG 1.1//EN' 'http://www.w3.org/Graphics/SVG/1.1/DTD/svg11.dtd'>
<!-- Generator: Adobe Illustrator 16.0.0, SVG Export Plug-In . SVG Version: 6.00 Build 0)  -->
<svg version="1.1" xml:space="preserve" xmlns="http://www.w3.org/2000/svg" x="0px" width="48px" viewBox="0 0 48 48" enable-background="new 0 0 48 48" y="0px" xmlns:xlink="http://www.w3.org/1999/xlink" height="48px">
    <g id="角砾">
        <g id="角砾_1_">
            <polygon stroke-width="0.75" fill="none" stroke-miterlimit="10" points="10.543,15.675 16.43,5.917 &#xa;&#x9;&#x9;&#x9;21.753,15.675 &#x9;&#x9;" stroke="#359DD1"/>
            <line stroke-width="0.75" y1="10.18" fill="none" stroke-miterlimit="10" x2="18.729" y2="10.132" stroke="#359DD1" x1="13.858"/>
            <line stroke-width="0.75" y1="6.324" fill="none" stroke-miterlimit="10" x2="15.22" y2="15.675" stroke="#359DD1" x1="16.652"/>
            <polygon stroke-width="0.75" fill="none" stroke-miterlimit="10" points="9.049,41.355 3.37,31.477 &#xa;&#x9;&#x9;&#x9;14.483,31.552 &#x9;&#x9;" stroke="#359DD1"/>
            <line stroke-width="0.75" y1="34.09" fill="none" stroke-miterlimit="10" x2="12.875" y2="34.454" stroke="#359DD1" x1="4.872"/>
            <line stroke-width="0.75" y1="31.496" fill="none" stroke-miterlimit="10" x2="10.49" y2="38.756" stroke="#359DD1" x1="6.31"/>
            <polygon stroke-width="0.75" fill="none" stroke-miterlimit="10" points="41.616,5.917 44.004,17.06 &#xa;&#x9;&#x9;&#x9;33.445,13.59 &#x9;&#x9;" stroke="#359DD1"/>
            <line stroke-width="0.75" y1="13.017" fill="none" stroke-miterlimit="10" x2="40.415" y2="15.736" stroke="#359DD1" x1="43.255"/>
            <line stroke-width="0.75" y1="16.915" fill="none" stroke-miterlimit="10" x2="36.092" y2="11.488" stroke="#359DD1" x1="43.564"/>
            <polygon stroke-width="0.75" fill="none" stroke-miterlimit="10" points="34.422,35.042 24.935,41.355 &#xa;&#x9;&#x9;&#x9;24.283,30.261 &#x9;&#x9;" stroke="#359DD1"/>
            <line stroke-width="0.75" y1="38.598" fill="none" stroke-miterlimit="10" x2="24.653" y2="36.563" stroke="#359DD1" x1="29.078"/>
            <line stroke-width="0.75" y1="40.895" fill="none" stroke-miterlimit="10" x2="30.191" y2="33.048" stroke="#359DD1" x1="24.908"/>
        </g>
    </g>
</svg>
