<?xml version='1.0' encoding='utf-8'?>
<!DOCTYPE svg PUBLIC '-//W3C//DTD SVG 1.1//EN' 'http://www.w3.org/Graphics/SVG/1.1/DTD/svg11.dtd'>
<!-- Generator: Adobe Illustrator 16.0.0, SVG Export Plug-In . SVG Version: 6.00 Build 0)  -->
<svg version="1.1" xml:space="preserve" xmlns="http://www.w3.org/2000/svg" x="0px" width="48px" viewBox="0 0 48 48" enable-background="new 0 0 48 48" y="0px" xmlns:xlink="http://www.w3.org/1999/xlink" height="48px">
    <g id="滑石片岩">
        <path d="M0,5.729c0,0,4.472-5.303,10.327-0.495&#xa;&#x9;&#x9;c1.734,0.907,3.685,2.5,9.919-0.357c2.004-0.824,6.233-3.275,11.004-0.016c1.789,1.006,4.281,2.544,8.836-0.369&#xa;&#x9;&#x9;c1.354-0.604,5.096-3.902,8.129,1.43" fill="none" stroke-miterlimit="10" stroke="#000000"/>
        <path d="M0.108,18.307c0,0,4.472-5.303,10.327-0.494&#xa;&#x9;&#x9;c1.734,0.906,3.685,2.5,9.919-0.357c2.004-0.824,6.233-3.275,11.004-0.016c1.789,1.006,4.281,2.542,8.836-0.369&#xa;&#x9;&#x9;c1.354-0.604,5.096-3.902,8.129,1.43" fill="none" stroke-miterlimit="10" stroke="#000000"/>
        <path d="M0.108,39.972c0,0,4.472-5.303,10.327-0.494&#xa;&#x9;&#x9;c1.734,0.906,3.685,2.5,9.919-0.357c2.004-0.824,6.233-3.275,11.004-0.016c1.789,1.006,4.281,2.543,8.836-0.369&#xa;&#x9;&#x9;c1.354-0.604,5.096-3.901,8.129,1.43" fill="none" stroke-miterlimit="10" stroke="#000000"/>
        <path d="M0.001,29.453c0,0,4.472-5.303,10.327-0.494&#xa;&#x9;&#x9;c1.734,0.906,3.685,2.5,9.919-0.357c2.004-0.824,6.233-3.275,11.004-0.016c1.789,1.006,4.281,2.543,8.836-0.369&#xa;&#x9;&#x9;c1.354-0.604,5.096-3.901,8.129,1.43" fill="none" stroke-miterlimit="10" stroke="#000000"/>
        <path d="M2.529,9.64c0,0,3-1.458,4.833,1.625" stroke-width="0.5" fill="none" stroke-miterlimit="10" stroke="#000000"/>
        <path d="M26.945,9.16c0,0,3-1.459,4.833,1.625" stroke-width="0.5" fill="none" stroke-miterlimit="10" stroke="#000000"/>
        <path d="M1.398,33.095c0,0,3-1.459,4.833,1.625" stroke-width="0.5" fill="none" stroke-miterlimit="10" stroke="#000000"/>
        <path d="M25.814,32.614c0,0,3-1.459,4.833,1.625" stroke-width="0.5" fill="none" stroke-miterlimit="10" stroke="#000000"/>
        <path d="M16.023,22.949c0,0,3-1.459,4.833,1.625" stroke-width="0.5" fill="none" stroke-miterlimit="10" stroke="#000000"/>
        <path d="M40.439,22.469c0,0,3-1.459,4.833,1.625" stroke-width="0.5" fill="none" stroke-miterlimit="10" stroke="#000000"/>
        <path d="M17.082,44.036c0,0,3-1.459,4.833,1.625" stroke-width="0.5" fill="none" stroke-miterlimit="10" stroke="#000000"/>
        <path d="M38.023,44.035c0,0,3-1.459,4.832,1.625" stroke-width="0.5" fill="none" stroke-miterlimit="10" stroke="#000000"/>
    </g>
</svg>
