<svg xmlns="http://www.w3.org/2000/svg" width="48.3" height="48.2" viewBox="0 0 48.3 48.2">
  <g id="炉灰" transform="translate(-5236 -56)">
    <path id="路径_3240" data-name="路径 3240" d="M0,0H48V48H0Z" transform="translate(5236 56)" fill="none"/>
    <g id="炉灰-2" data-name="炉灰" transform="translate(5236.1 56.1)">
      <path id="路径_1955" data-name="路径 1955" d="M40.8,40.1l7.4,7.4V32.8h0Z" fill="none"/>
      <path id="路径_1956" data-name="路径 1956" d="M7.9,24.7.6,32.1l7.3,7.3,7.4-7.3Z" fill="none"/>
      <path id="路径_1957" data-name="路径 1957" d="M47.3-.1,32.8,0l7.3,7.2Z" fill="none"/>
      <path id="路径_1958" data-name="路径 1958" d="M24,24.7l-7.3,7.4L24,39.4,31.4,32Z" fill="none"/>
      <path id="路径_1959" data-name="路径 1959" d="M16.8,48H31.2L24,40.8Z" fill="none"/>
      <path id="路径_1960" data-name="路径 1960" d="M33,48H47.3l-7.2-7.2Z" fill="none"/>
      <path id="路径_1961" data-name="路径 1961" d="M32.1,31.4,39.4,24,32,16.7,24.7,24Z" fill="none"/>
      <path id="路径_1962" data-name="路径 1962" d="M24,23.3,31.3,16,24,8.6l-7.3,7.3Z" fill="none"/>
      <path id="路径_1963" data-name="路径 1963" d="M39.4,7.9,32,.6,24.7,7.9,32,15.3Z" fill="none"/>
      <path id="路径_1964" data-name="路径 1964" d="M48.2,31.4h0l-.1-14.7L40.8,24Z" fill="none"/>
      <path id="路径_1965" data-name="路径 1965" d="M23.3,7.9,15.9.6,8.6,7.9,16,15.3Z" fill="none"/>
      <path id="路径_1966" data-name="路径 1966" d="M8.6,24,16,31.4,23.3,24,16,16.6Z" fill="none"/>
      <path id="路径_1967" data-name="路径 1967" d="M-.1.6,0,15.2,7.2,7.9Z" fill="none"/>
      <path id="路径_1968" data-name="路径 1968" d="M0,16.8V31.2L7.2,24Z" fill="none"/>
      <path id="路径_1969" data-name="路径 1969" d="M8.6,40.1,16,47.5l7.3-7.4L16,32.7Z" fill="none"/>
      <rect id="矩形_4" data-name="矩形 4" width="10.4" height="10.4" transform="translate(24.732 40.089) rotate(-45)" fill="none"/>
      <path id="路径_1970" data-name="路径 1970" d="M31.2,0H16.8L24,7.2Z" fill="none"/>
      <path id="路径_1971" data-name="路径 1971" d="M15.1,0,.8.1,7.9,7.2Z" fill="none"/>
      <rect id="矩形_5" data-name="矩形 5" width="10.4" height="10.4" transform="translate(32.766 32.103) rotate(-45)" fill="none"/>
      <path id="路径_1972" data-name="路径 1972" d="M32.7,16l7.4,7.3L47.4,16,40.1,8.6Z" fill="none"/>
      <path id="路径_1973" data-name="路径 1973" d="M.7,48.1,15.2,48,7.9,40.8Z" fill="none"/>
      <path id="路径_1974" data-name="路径 1974" d="M40.7,7.9l7.4,7.4V.6Z" fill="none"/>
      <path id="路径_1975" data-name="路径 1975" d="M0,32.9.1,47.3l7.1-7.2Z" fill="none"/>
      <path id="路径_1976" data-name="路径 1976" d="M47.9.5V-.1h-.8L39.9,7.2,32.7,0H31.1L23.9,7.3,16.7,0H15L7.9,7.2.8,0H0V.6L7.2,7.9,0,15.1v1.6L7.3,24,.1,31.2v1.6L7.3,40,.2,47.2V48H.8L8,40.7l7.2,7.2h1.6L24,40.7l7.2,7.2h1.7L40,40.7l7.1,7.2H48v-.5L40.7,40,48,32.7h0V31.3h0L40.6,24l7.3-7.4V15.2L40.6,7.8Zm-16,0,7.3,7.4-7.3,7.4L24.6,7.9Zm0,16.1L39.2,24,32,31.3,24.6,24Zm-8-8L31.2,16l-7.3,7.3-7.3-7.4ZM23.3,24,16,31.4,8.6,24l7.3-7.4ZM15.9.5l7.3,7.4-7.3,7.3L8.6,7.8ZM.6,15.9,7.9,8.5l7.3,7.4L7.9,23.3ZM7.9,39.4.6,32l7.3-7.4L15.2,32Zm8,8.1L8.6,40.1l7.3-7.4,7.3,7.4ZM16.6,32l7.3-7.4L31.2,32l-7.3,7.4ZM32,47.5l-7.3-7.4L32,32.7l7.3,7.4ZM47.3,32.1,40,39.4,32.6,32l7.3-7.3Zm0-16.2L40,23.3l-7.3-7.4L40,8.5Z"/>
    </g>
  </g>
</svg>
