<?xml version='1.0' encoding='utf-8'?>
<!DOCTYPE svg PUBLIC '-//W3C//DTD SVG 1.1//EN' 'http://www.w3.org/Graphics/SVG/1.1/DTD/svg11.dtd'>
<!-- Generator: Adobe Illustrator 16.0.0, SVG Export Plug-In . SVG Version: 6.00 Build 0)  -->
<svg version="1.1" xml:space="preserve" xmlns="http://www.w3.org/2000/svg" x="0px" width="48px" viewBox="0 0 48 48" enable-background="new 0 0 48 48" y="0px" xmlns:xlink="http://www.w3.org/1999/xlink" height="48px">
    <g id="炭质板岩">
        <path d="M0.107,31.955c0,0,4.472-5.303,10.327-0.494&#xa;&#x9;&#x9;c1.734,0.906,3.685,2.5,9.919-0.357c2.004-0.824,6.233-3.275,11.004-0.016c1.789,1.006,4.281,2.543,8.836-0.369&#xa;&#x9;&#x9;c1.354-0.604,5.096-3.9,8.129,1.43" fill="none" stroke-miterlimit="10" stroke="#000000"/>
        <path d="M0.107,29.383c0,0,4.472-5.303,10.327-0.494&#xa;&#x9;&#x9;c1.734,0.906,3.685,2.5,9.919-0.357c2.004-0.824,6.233-3.275,11.004-0.016c1.789,1.006,4.281,2.543,8.836-0.369&#xa;&#x9;&#x9;c1.354-0.604,5.096-3.9,8.129,1.43" fill="none" stroke-miterlimit="10" stroke="#000000"/>
        <path d="M0.107,15.96c0,0,4.472-5.303,10.327-0.494&#xa;&#x9;&#x9;c1.734,0.906,3.685,2.5,9.919-0.357c2.004-0.824,6.233-3.275,11.004-0.016c1.789,1.006,4.281,2.543,8.836-0.369&#xa;&#x9;&#x9;c1.354-0.604,5.096-3.901,8.129,1.43" fill="none" stroke-miterlimit="10" stroke="#000000"/>
        <path d="M0.107,13.388c0,0,4.472-5.302,10.327-0.494&#xa;&#x9;&#x9;c1.734,0.906,3.685,2.5,9.919-0.357c2.004-0.824,6.233-3.275,11.004-0.016c1.789,1.006,4.281,2.543,8.836-0.369&#xa;&#x9;&#x9;c1.354-0.604,5.096-3.901,8.129,1.43" fill="none" stroke-miterlimit="10" stroke="#000000"/>
        <path d="M0,46.029c0,0,4.472-5.303,10.327-0.494&#xa;&#x9;&#x9;c1.734,0.906,3.685,2.5,9.919-0.357c2.004-0.824,6.233-3.275,11.004-0.016c1.789,1.006,4.281,2.543,8.836-0.369&#xa;&#x9;&#x9;c1.354-0.604,5.096-3.9,8.129,1.43" fill="none" stroke-miterlimit="10" stroke="#000000"/>
        <path d="M0,43.457c0,0,4.472-5.303,10.327-0.494&#xa;&#x9;&#x9;c1.734,0.906,3.685,2.5,9.919-0.357c2.004-0.824,6.233-3.275,11.004-0.016c1.789,1.006,4.281,2.543,8.836-0.369&#xa;&#x9;&#x9;c1.354-0.604,5.096-3.9,8.129,1.43" fill="none" stroke-miterlimit="10" stroke="#000000"/>
        <line stroke-width="2" y1="2.748" fill="none" stroke-miterlimit="10" x2="9.834" y2="2.748" stroke="#000000" x1="2.167"/>
        <line stroke-width="2" y1="5.581" fill="none" stroke-miterlimit="10" x2="31.834" y2="5.581" stroke="#000000" x1="24.167"/>
        <line stroke-width="2" y1="21.081" fill="none" stroke-miterlimit="10" x2="18.876" y2="21.081" stroke="#000000" x1="11.209"/>
        <line stroke-width="2" y1="24" fill="none" stroke-miterlimit="10" x2="47.168" y2="24" stroke="#000000" x1="39.502"/>
        <line stroke-width="2" y1="34.497" fill="none" stroke-miterlimit="10" x2="8.584" y2="34.497" stroke="#000000" x1="0.917"/>
        <line stroke-width="2" y1="37.329" fill="none" stroke-miterlimit="10" x2="30.584" y2="37.329" stroke="#000000" x1="22.918"/>
    </g>
</svg>
