<?xml version='1.0' encoding='utf-8'?>
<!DOCTYPE svg PUBLIC '-//W3C//DTD SVG 1.1//EN' 'http://www.w3.org/Graphics/SVG/1.1/DTD/svg11.dtd'>
<!-- Generator: Adobe Illustrator 16.0.0, SVG Export Plug-In . SVG Version: 6.00 Build 0)  -->
<svg version="1.1" xml:space="preserve" xmlns="http://www.w3.org/2000/svg" x="0px" width="48px" viewBox="0 0 48 48" enable-background="new 0 0 48 48" y="0px" xmlns:xlink="http://www.w3.org/1999/xlink" height="48px">
    <g id="玄武岩">
        <polyline fill="none" stroke-miterlimit="10" points="2,11.6 2,5.1 12.083,5.1 12.083,8.35 &#x9;" stroke="#F6BBC6"/>
        <polyline fill="none" stroke-miterlimit="10" points="24,11.6 24,5.101 34.084,5.101 34.084,8.351 &#x9;" stroke="#F6BBC6"/>
        <polyline fill="none" stroke-miterlimit="10" points="1.583,43.434 1.583,36.934 11.667,36.934 11.667,40.184 &#x9;&#xa;&#x9;&#x9;" stroke="#F6BBC6"/>
        <polyline fill="none" stroke-miterlimit="10" points="23.583,43.434 23.583,36.934 33.668,36.934 33.668,40.184 &#x9;&#xa;&#x9;&#x9;" stroke="#F6BBC6"/>
        <polyline fill="none" stroke-miterlimit="10" points="13,27.6 13,21.101 23.083,21.101 23.083,24.351 &#x9;" stroke="#F6BBC6"/>
        <polyline fill="none" stroke-miterlimit="10" points="35,27.6 35,21.101 45.084,21.101 45.084,24.351 &#x9;" stroke="#F6BBC6"/>
    </g>
</svg>
