<svg xmlns="http://www.w3.org/2000/svg" width="48" height="48" viewBox="0 0 48 48">
  <g id="生物碎屑岩" transform="translate(-5295 -56)">
    <path id="路径_3241" data-name="路径 3241" d="M0,0H48V48H0Z" transform="translate(5295 56)" fill="none"/>
    <g id="生物碎屑岩-2" data-name="生物碎屑岩" transform="translate(5295 56)">
      <path id="路径_1977" data-name="路径 1977" d="M44.3,36.3a.758.758,0,0,1-.4.2.52.52,0,0,1-.4-.2.608.608,0,0,1,0-.8L48,30.9v-14l-3.8,3.8a.5.5,0,0,1-.8,0,.608.608,0,0,1,0-.8L48,15.3V.7l-4,4a.5.5,0,0,1-.8,0,.608.608,0,0,1,0-.8L47.1,0H33L28.4,4.5a.758.758,0,0,1-.4.2.52.52,0,0,1-.4-.2.608.608,0,0,1,0-.8L31.3,0h-14L12.6,4.6a.758.758,0,0,1-.4.2.52.52,0,0,1-.4-.2.608.608,0,0,1,0-.8L15.6,0H0V15.2l3.9-3.8a.608.608,0,0,1,.8,0,.468.468,0,0,1,0,.8L0,16.9v14L4,27a.608.608,0,0,1,.8,0,.608.608,0,0,1,0,.8L0,32.6V47.1l3.8-3.8a.468.468,0,0,1,.8,0,.608.608,0,0,1,0,.8L.7,48H15.5l4.7-4.8a.566.566,0,1,1,.8.8l-3.9,4h14l4.7-4.8a.566.566,0,1,1,.8.8l-3.9,4H48V32.6ZM20.4,28.4l-7.9,7.9a.758.758,0,0,1-.4.2.758.758,0,0,1-.4-.2.608.608,0,0,1,0-.8l7.9-7.9a.608.608,0,0,1,.8,0C20.6,27.7,20.6,28.1,20.4,28.4Zm.1-16.1L12.7,20a.758.758,0,0,1-.4.2.52.52,0,0,1-.4-.2.608.608,0,0,1,0-.8l7.8-7.8a.608.608,0,0,1,.8,0A.563.563,0,0,1,20.5,12.3Zm6.9,8.2a.608.608,0,0,1,0-.8l7.9-7.9a.566.566,0,1,1,.8.8l-7.9,7.9a.5.5,0,0,1-.8,0Zm9.2,7.9-7.7,7.8a.758.758,0,0,1-.4.2.52.52,0,0,1-.4-.2.608.608,0,0,1,0-.8l7.7-7.8a.566.566,0,1,1,.8.8Z" fill="none"/>
      <path id="路径_1978" data-name="路径 1978" d="M4.6,43.3a.468.468,0,0,0-.8,0L0,47.1V48H.7l3.9-3.9A.468.468,0,0,0,4.6,43.3Z" fill="#595758"/>
      <path id="路径_1979" data-name="路径 1979" d="M19.5,27.5l-7.9,7.9a.608.608,0,0,0,0,.8.758.758,0,0,0,.4.2.758.758,0,0,0,.4-.2l7.9-7.9a.608.608,0,0,0,0-.8C20.2,27.3,19.8,27.3,19.5,27.5Z" fill="#595758"/>
      <path id="路径_1980" data-name="路径 1980" d="M36.1,12.6a.566.566,0,1,0-.8-.8l-7.9,7.9a.608.608,0,0,0,0,.8.5.5,0,0,0,.8,0Z" fill="#595758"/>
      <path id="路径_1981" data-name="路径 1981" d="M43.2,4.7a.5.5,0,0,0,.8,0l4-4V0h-.9L43.2,3.9A.468.468,0,0,0,43.2,4.7Z" fill="#595758"/>
      <path id="路径_1982" data-name="路径 1982" d="M36.8,43.2a.608.608,0,0,0-.8,0L31.3,48H33l3.9-4A.529.529,0,0,0,36.8,43.2Z" fill="#595758"/>
      <path id="路径_1983" data-name="路径 1983" d="M43.5,36.3a.758.758,0,0,0,.4.2.52.52,0,0,0,.4-.2L48,32.6V30.9l-4.5,4.6A.468.468,0,0,0,43.5,36.3Z" fill="#595758"/>
      <path id="路径_1984" data-name="路径 1984" d="M4.7,11.4a.608.608,0,0,0-.8,0L0,15.2v1.7l4.7-4.6A.561.561,0,0,0,4.7,11.4Z" fill="#595758"/>
      <path id="路径_1985" data-name="路径 1985" d="M11.6,4.6a.758.758,0,0,0,.4.2.52.52,0,0,0,.4-.2L17.2,0H15.5L11.7,3.8A.529.529,0,0,0,11.6,4.6Z" fill="#595758"/>
      <path id="路径_1986" data-name="路径 1986" d="M4.8,27A.608.608,0,0,0,4,27L0,30.9v1.7l4.8-4.7A.561.561,0,0,0,4.8,27Z" fill="#595758"/>
      <path id="路径_1987" data-name="路径 1987" d="M19.7,11.4l-7.8,7.8a.608.608,0,0,0,0,.8.758.758,0,0,0,.4.2.52.52,0,0,0,.4-.2l7.8-7.8a.566.566,0,1,0-.8-.8Z" fill="#595758"/>
      <path id="路径_1988" data-name="路径 1988" d="M27.5,4.5a.758.758,0,0,0,.4.2.52.52,0,0,0,.4-.2L33,0H31.3L27.6,3.7A.529.529,0,0,0,27.5,4.5Z" fill="#595758"/>
      <g id="组_1033" data-name="组 1033">
        <path id="路径_1989" data-name="路径 1989" d="M20.2,43.2,15.5,48h1.7l3.9-4a.608.608,0,0,0,0-.8A.563.563,0,0,0,20.2,43.2Z" fill="#595758"/>
        <path id="路径_1990" data-name="路径 1990" d="M35.7,27.5,28,35.3a.608.608,0,0,0,0,.8.758.758,0,0,0,.4.2.52.52,0,0,0,.4-.2l7.7-7.8a.566.566,0,1,0-.8-.8Z" fill="#595758"/>
        <path id="路径_1991" data-name="路径 1991" d="M43.4,19.8a.608.608,0,0,0,0,.8.5.5,0,0,0,.8,0L48,16.8V15.1Z" fill="#595758"/>
      </g>
      <path id="路径_1992" data-name="路径 1992" d="M0,.7.8,0H0Z" fill="#595758"/>
      <path id="路径_1993" data-name="路径 1993" d="M48,47.1l-.9.9H48Z" fill="#595758"/>
      <g id="组_1034" data-name="组 1034">
        <path id="路径_1994" data-name="路径 1994" d="M8.7,7.3a2.7,2.7,0,0,1-1.8,1A2.286,2.286,0,0,1,4.6,5.9,2.782,2.782,0,0,1,7,3,1.774,1.774,0,0,1,8.8,4.7c0,.2,0,.3-.2.3s-1.7.2-3.4.2C5.2,7,6.3,7.7,7.1,7.7A2.154,2.154,0,0,0,8.6,7ZM5.3,4.9H7.8c.3,0,.3-.1.3-.2A1.288,1.288,0,0,0,6.7,3.4C6.1,3.4,5.5,3.9,5.3,4.9Z"/>
      </g>
      <g id="组_1035" data-name="组 1035">
        <path id="路径_1995" data-name="路径 1995" d="M21.2,16.5a2.7,2.7,0,0,1-1.8,1,2.286,2.286,0,0,1-2.3-2.4,2.782,2.782,0,0,1,2.4-2.9,1.774,1.774,0,0,1,1.8,1.7c0,.2,0,.3-.2.3s-1.7.2-3.4.2c0,1.8,1.1,2.5,1.9,2.5a2.154,2.154,0,0,0,1.5-.7Zm-3.5-2.4h2.5c.3,0,.3-.1.3-.2a1.288,1.288,0,0,0-1.4-1.3A1.68,1.68,0,0,0,17.7,14.1Z"/>
      </g>
      <g id="组_1036" data-name="组 1036">
        <path id="路径_1996" data-name="路径 1996" d="M21.2,35.5a2.7,2.7,0,0,1-1.8,1,2.286,2.286,0,0,1-2.3-2.4,2.782,2.782,0,0,1,2.4-2.9,1.774,1.774,0,0,1,1.8,1.7c0,.2,0,.3-.2.3s-1.7.2-3.4.2c0,1.8,1.1,2.5,1.9,2.5a2.154,2.154,0,0,0,1.5-.7Zm-3.5-2.3h2.5c.3,0,.3-.1.3-.2a1.288,1.288,0,0,0-1.4-1.3A1.68,1.68,0,0,0,17.7,33.2Z"/>
      </g>
      <g id="组_1037" data-name="组 1037">
        <path id="路径_1997" data-name="路径 1997" d="M33.1,6.9a2.7,2.7,0,0,1-1.8,1A2.286,2.286,0,0,1,29,5.5a2.782,2.782,0,0,1,2.4-2.9,1.774,1.774,0,0,1,1.8,1.7c0,.2,0,.3-.2.3s-1.7.2-3.4.2c0,1.8,1.1,2.5,1.9,2.5A2.154,2.154,0,0,0,33,6.6ZM29.6,4.5h2.5c.3,0,.3-.1.3-.2A1.288,1.288,0,0,0,31,3,1.8,1.8,0,0,0,29.6,4.5Z"/>
      </g>
      <g id="组_1038" data-name="组 1038">
        <path id="路径_1998" data-name="路径 1998" d="M33.1,26a2.7,2.7,0,0,1-1.8,1A2.286,2.286,0,0,1,29,24.6a2.782,2.782,0,0,1,2.4-2.9,1.774,1.774,0,0,1,1.8,1.7c0,.2,0,.3-.2.3s-1.7.2-3.4.2c0,1.8,1.1,2.5,1.9,2.5a2.154,2.154,0,0,0,1.5-.7Zm-3.5-2.4h2.5c.3,0,.3-.1.3-.2A1.288,1.288,0,0,0,31,22.1,1.68,1.68,0,0,0,29.6,23.6Z"/>
      </g>
      <g id="组_1039" data-name="组 1039">
        <path id="路径_1999" data-name="路径 1999" d="M33.1,45a2.7,2.7,0,0,1-1.8,1A2.286,2.286,0,0,1,29,43.6a2.782,2.782,0,0,1,2.4-2.9,1.774,1.774,0,0,1,1.8,1.7c0,.2,0,.3-.2.3s-1.7.2-3.4.2c0,1.8,1.1,2.5,1.9,2.5a2.154,2.154,0,0,0,1.5-.7Zm-3.5-2.4h2.5c.3,0,.3-.1.3-.2A1.288,1.288,0,0,0,31,41.1,1.8,1.8,0,0,0,29.6,42.6Z"/>
      </g>
      <g id="组_1040" data-name="组 1040">
        <path id="路径_2000" data-name="路径 2000" d="M44.7,16.5a2.7,2.7,0,0,1-1.8,1,2.286,2.286,0,0,1-2.3-2.4A2.782,2.782,0,0,1,43,12.2a1.774,1.774,0,0,1,1.8,1.7c0,.2,0,.3-.2.3s-1.7.2-3.4.2c0,1.8,1.1,2.5,1.9,2.5a2.154,2.154,0,0,0,1.5-.7Zm-3.5-2.4h2.5c.3,0,.3-.1.3-.2a1.288,1.288,0,0,0-1.4-1.3A1.68,1.68,0,0,0,41.2,14.1Z"/>
      </g>
      <g id="组_1041" data-name="组 1041">
        <path id="路径_2001" data-name="路径 2001" d="M44.7,35.5a2.7,2.7,0,0,1-1.8,1,2.286,2.286,0,0,1-2.3-2.4A2.782,2.782,0,0,1,43,31.2a1.774,1.774,0,0,1,1.8,1.7c0,.2,0,.3-.2.3s-1.7.2-3.4.2c0,1.8,1.1,2.5,1.9,2.5a2.154,2.154,0,0,0,1.5-.7Zm-3.5-2.4h2.5c.3,0,.3-.1.3-.2a1.288,1.288,0,0,0-1.4-1.3A1.68,1.68,0,0,0,41.2,33.1Z"/>
      </g>
      <g id="组_1042" data-name="组 1042">
        <path id="路径_2002" data-name="路径 2002" d="M8.7,26.1a2.7,2.7,0,0,1-1.8,1,2.286,2.286,0,0,1-2.3-2.4A2.782,2.782,0,0,1,7,21.8a1.774,1.774,0,0,1,1.8,1.7c0,.2,0,.3-.2.3s-1.7.2-3.4.2c0,1.8,1.1,2.5,1.9,2.5a2.154,2.154,0,0,0,1.5-.7ZM5.3,23.7H7.8c.3,0,.3-.1.3-.2a1.288,1.288,0,0,0-1.4-1.3C6.1,22.2,5.5,22.8,5.3,23.7Z"/>
      </g>
      <g id="组_1043" data-name="组 1043">
        <path id="路径_2003" data-name="路径 2003" d="M8.7,45a2.7,2.7,0,0,1-1.8,1,2.286,2.286,0,0,1-2.3-2.4A2.782,2.782,0,0,1,7,40.7a1.774,1.774,0,0,1,1.8,1.7c0,.2,0,.3-.2.3s-1.7.2-3.4.2c0,1.8,1.1,2.5,1.9,2.5a2.154,2.154,0,0,0,1.5-.7ZM5.3,42.6H7.8c.3,0,.3-.1.3-.2a1.288,1.288,0,0,0-1.4-1.3C6.1,41.1,5.5,41.6,5.3,42.6Z"/>
      </g>
    </g>
  </g>
</svg>
