<?xml version='1.0' encoding='utf-8'?>
<!DOCTYPE svg PUBLIC '-//W3C//DTD SVG 1.1//EN' 'http://www.w3.org/Graphics/SVG/1.1/DTD/svg11.dtd'>
<!-- Generator: Adobe Illustrator 16.0.0, SVG Export Plug-In . SVG Version: 6.00 Build 0)  -->
<svg version="1.1" xml:space="preserve" xmlns="http://www.w3.org/2000/svg" x="0px" width="48px" viewBox="0 0 48 48" enable-background="new 0 0 48 48" y="0px" xmlns:xlink="http://www.w3.org/1999/xlink" height="48px">
    <g id="生物碎屑灰岩">
        <line y1="9.128" fill="none" stroke-miterlimit="10" x2="48" y2="9.128" stroke="#000000" x1="0"/>
        <line y1="20.338" fill="none" stroke-miterlimit="10" x2="48" y2="20.338" stroke="#000000" x1="0"/>
        <line y1="31.58" fill="none" stroke-miterlimit="10" x2="48" y2="31.58" stroke="#000000" x1="0"/>
        <line y1="42.999" fill="none" stroke-miterlimit="10" x2="48" y2="42.999" stroke="#000000" x1="0"/>
        <line y1="0" fill="none" stroke-miterlimit="10" x2="9.677" y2="9.128" stroke="#000000" x1="9.677"/>
        <line y1="20.709" fill="none" stroke-miterlimit="10" x2="9.677" y2="31.58" stroke="#000000" x1="9.677"/>
        <line y1="42.999" fill="none" stroke-miterlimit="10" x2="9.355" y2="48" stroke="#000000" x1="9.355"/>
        <line y1="9.128" fill="none" stroke-miterlimit="10" x2="36.693" y2="20.338" stroke="#000000" x1="36.693"/>
        <line y1="31.58" fill="none" stroke-miterlimit="10" x2="36.693" y2="42.645" stroke="#000000" x1="36.693"/>
        <g>
            <path d="M36.074,2.561c0-0.191,0.119-0.384,0.365-0.577c0.244-0.191,0.609-0.288,1.097-0.288c0.558,0,0.993,0.156,1.307,0.468&#xa;&#x9;&#x9;&#x9;c0.313,0.313,0.47,0.638,0.47,0.973c0,0.673-0.278,1.297-0.836,1.874c-0.56,0.577-1.357,1.009-2.402,1.297l-0.418-0.36&#xa;&#x9;&#x9;&#x9;c0.694-0.288,1.217-0.589,1.567-0.901c0.348-0.313,0.521-0.638,0.521-0.973c0-0.24-0.278-0.457-0.835-0.648&#xa;&#x9;&#x9;&#x9;C36.351,3.234,36.074,2.946,36.074,2.561z"/>
        </g>
        <g>
            <path d="M8.267,14.254c0-0.191,0.119-0.384,0.365-0.577c0.244-0.191,0.609-0.288,1.097-0.288c0.558,0,0.993,0.156,1.307,0.468&#xa;&#x9;&#x9;&#x9;c0.313,0.313,0.47,0.638,0.47,0.973c0,0.673-0.278,1.297-0.836,1.874c-0.56,0.577-1.357,1.009-2.402,1.297l-0.418-0.36&#xa;&#x9;&#x9;&#x9;c0.694-0.288,1.217-0.589,1.567-0.901c0.348-0.313,0.521-0.638,0.521-0.973c0-0.24-0.278-0.457-0.835-0.648&#xa;&#x9;&#x9;&#x9;C8.543,14.928,8.267,14.64,8.267,14.254z"/>
        </g>
        <g>
            <path d="M35.283,24.703c0-0.191,0.119-0.384,0.365-0.577c0.244-0.191,0.609-0.288,1.097-0.288c0.558,0,0.993,0.156,1.306,0.468&#xa;&#x9;&#x9;&#x9;c0.314,0.313,0.471,0.638,0.471,0.973c0,0.674-0.279,1.297-0.836,1.874c-0.56,0.577-1.357,1.009-2.402,1.298l-0.418-0.361&#xa;&#x9;&#x9;&#x9;c0.694-0.287,1.217-0.588,1.567-0.9c0.348-0.313,0.521-0.638,0.521-0.973c0-0.24-0.278-0.457-0.835-0.648&#xa;&#x9;&#x9;&#x9;C35.56,25.377,35.283,25.088,35.283,24.703z"/>
        </g>
        <g>
            <path d="M8.267,36.751c0-0.191,0.119-0.384,0.365-0.577c0.244-0.191,0.609-0.287,1.097-0.287c0.558,0,0.993,0.156,1.306,0.468&#xa;&#x9;&#x9;&#x9;c0.314,0.313,0.471,0.638,0.471,0.974c0,0.674-0.279,1.297-0.836,1.873c-0.56,0.578-1.357,1.01-2.402,1.299l-0.418-0.361&#xa;&#x9;&#x9;&#x9;c0.694-0.287,1.217-0.588,1.567-0.9c0.348-0.313,0.521-0.639,0.521-0.973c0-0.24-0.278-0.457-0.835-0.648&#xa;&#x9;&#x9;&#x9;C8.543,37.426,8.267,37.137,8.267,36.751z"/>
        </g>
    </g>
</svg>
