<?xml version='1.0' encoding='utf-8'?>
<!DOCTYPE svg PUBLIC '-//W3C//DTD SVG 1.1//EN' 'http://www.w3.org/Graphics/SVG/1.1/DTD/svg11.dtd'>
<!-- Generator: Adobe Illustrator 16.0.0, SVG Export Plug-In . SVG Version: 6.00 Build 0)  -->
<svg version="1.1" xml:space="preserve" xmlns="http://www.w3.org/2000/svg" x="0px" width="48px" viewBox="0 0 48 48" enable-background="new 0 0 48 48" y="0px" xmlns:xlink="http://www.w3.org/1999/xlink" height="48px">
    <g id="石榴片麻岩">
        <path d="M0.107,30.539c0,0,4.472-5.303,10.327-0.494&#xa;&#x9;&#x9;c1.734,0.906,3.685,2.5,9.919-0.357c2.004-0.824,6.233-3.275,11.004-0.016c1.789,1.006,4.281,2.543,8.836-0.369&#xa;&#x9;&#x9;c1.354-0.604,5.096-3.9,8.129,1.43" fill="none" stroke-miterlimit="10" stroke="#000000"/>
        <path d="M0.107,27.967c0,0,4.472-5.302,10.327-0.494&#xa;&#x9;&#x9;c1.734,0.906,3.685,2.5,9.919-0.357c2.004-0.824,6.233-3.275,11.004-0.016c1.789,1.006,4.281,2.543,8.836-0.369&#xa;&#x9;&#x9;c1.354-0.604,5.096-3.9,8.129,1.43" fill="none" stroke-miterlimit="10" stroke-dasharray="8,5" stroke="#000000"/>
        <path d="M0.107,14.544c0,0,4.472-5.303,10.327-0.494&#xa;&#x9;&#x9;c1.734,0.906,3.685,2.5,9.919-0.357c2.004-0.824,6.233-3.275,11.004-0.016c1.789,1.006,4.281,2.543,8.836-0.369&#xa;&#x9;&#x9;c1.354-0.604,5.096-3.901,8.129,1.43" fill="none" stroke-miterlimit="10" stroke="#000000"/>
        <path d="M0.107,11.972c0,0,4.472-5.302,10.327-0.494&#xa;&#x9;&#x9;c1.734,0.906,3.685,2.5,9.919-0.357c2.004-0.824,6.233-3.275,11.004-0.016c1.789,1.006,4.281,2.543,8.836-0.369&#xa;&#x9;&#x9;c1.354-0.604,5.096-3.901,8.129,1.43" fill="none" stroke-miterlimit="10" stroke-dasharray="8,5" stroke="#000000"/>
        <path d="M0,44.613c0,0,4.472-5.303,10.327-0.494&#xa;&#x9;&#x9;c1.734,0.906,3.685,2.5,9.919-0.357c2.004-0.824,6.233-3.275,11.004-0.016c1.789,1.006,4.281,2.543,8.836-0.369&#xa;&#x9;&#x9;c1.354-0.604,5.096-3.9,8.129,1.43" fill="none" stroke-miterlimit="10" stroke="#000000"/>
        <path d="M0,42.041c0,0,4.472-5.303,10.327-0.494&#xa;&#x9;&#x9;c1.734,0.906,3.685,2.5,9.919-0.357c2.004-0.824,6.233-3.275,11.004-0.016c1.789,1.006,4.281,2.543,8.836-0.369&#xa;&#x9;&#x9;c1.354-0.604,5.096-3.9,8.129,1.43" fill="none" stroke-miterlimit="10" stroke-dasharray="8,5" stroke="#000000"/>
        <circle r="0.777" stroke-width="0.25" cx="29.584" cy="37.972" fill="none" stroke-miterlimit="10" stroke-dasharray="8,5" stroke="#000000"/>
        <circle r="2" stroke-width="0.25" cx="29.584" cy="37.972" fill="none" stroke-miterlimit="10" stroke="#000000"/>
        <circle r="0.777" stroke-width="0.25" cx="4.834" cy="30.972" fill="none" stroke-miterlimit="10" stroke-dasharray="8,5" stroke="#000000"/>
        <circle r="2" stroke-width="0.25" cx="4.834" cy="30.972" fill="none" stroke-miterlimit="10" stroke="#000000"/>
        <circle r="0.778" stroke-width="0.25" cx="22.279" cy="22.778" fill="none" stroke-miterlimit="10" stroke-dasharray="8,5" stroke="#000000"/>
        <circle r="2" stroke-width="0.25" cx="22.279" cy="22.778" fill="none" stroke-miterlimit="10" stroke="#000000"/>
        <circle r="0.777" stroke-width="0.25" cx="43.474" cy="15.532" fill="none" stroke-miterlimit="10" stroke-dasharray="8,5" stroke="#000000"/>
        <circle r="2" stroke-width="0.25" cx="43.474" cy="15.532" fill="none" stroke-miterlimit="10" stroke="#000000"/>
        <circle r="0.777" stroke-width="0.25" cx="29.584" cy="7.083" fill="none" stroke-miterlimit="10" stroke-dasharray="8,5" stroke="#000000"/>
        <circle r="2" stroke-width="0.25" cx="29.584" cy="7.083" fill="none" stroke-miterlimit="10" stroke="#000000"/>
        <circle r="0.777" stroke-width="0.25" cx="4.057" cy="2.583" fill="none" stroke-miterlimit="10" stroke-dasharray="8,5" stroke="#000000"/>
        <circle r="2" stroke-width="0.25" cx="4.057" cy="2.583" fill="none" stroke-miterlimit="10" stroke="#000000"/>
    </g>
</svg>
