<?xml version='1.0' encoding='utf-8'?>
<!DOCTYPE svg PUBLIC '-//W3C//DTD SVG 1.1//EN' 'http://www.w3.org/Graphics/SVG/1.1/DTD/svg11.dtd'>
<!-- Generator: Adobe Illustrator 16.0.0, SVG Export Plug-In . SVG Version: 6.00 Build 0)  -->
<svg version="1.1" xml:space="preserve" xmlns="http://www.w3.org/2000/svg" x="0px" width="48px" viewBox="0 0 48 48" enable-background="new 0 0 48 48" y="0px" xmlns:xlink="http://www.w3.org/1999/xlink" height="48px">
    <g id="石榴石片岩">
        <path d="M-0.324,5.261c0,0,4.472-5.303,10.327-0.495&#xa;&#x9;&#x9;c1.734,0.907,3.685,2.5,9.919-0.357c2.004-0.824,6.233-3.275,11.004-0.016c1.789,1.006,4.281,2.544,8.836-0.369&#xa;&#x9;&#x9;c1.354-0.604,5.096-3.902,8.129,1.43" fill="none" stroke-miterlimit="10" stroke="#000000"/>
        <path d="M-0.216,17.839c0,0,4.472-5.303,10.327-0.494&#xa;&#x9;&#x9;c1.734,0.906,3.685,2.5,9.919-0.357c2.004-0.824,6.233-3.275,11.004-0.016c1.789,1.006,4.281,2.542,8.836-0.369&#xa;&#x9;&#x9;C41.225,16,44.967,12.701,48,18.033" fill="none" stroke-miterlimit="10" stroke="#000000"/>
        <path d="M-0.216,39.504c0,0,4.472-5.303,10.327-0.494&#xa;&#x9;&#x9;c1.734,0.906,3.685,2.5,9.919-0.357c2.004-0.824,6.233-3.275,11.004-0.016c1.789,1.006,4.281,2.543,8.836-0.369&#xa;&#x9;&#x9;c1.354-0.604,5.096-3.901,8.129,1.43" fill="none" stroke-miterlimit="10" stroke="#000000"/>
        <path d="M-0.323,28.985c0,0,4.472-5.303,10.327-0.494&#xa;&#x9;&#x9;c1.734,0.906,3.685,2.5,9.919-0.357c2.004-0.824,6.233-3.275,11.004-0.016c1.789,1.006,4.281,2.543,8.836-0.369&#xa;&#x9;&#x9;c1.354-0.604,5.096-3.901,8.129,1.43" fill="none" stroke-miterlimit="10" stroke="#000000"/>
        <circle r="1.833" stroke-width="0.75" cx="4.084" cy="9.167" fill="none" stroke-miterlimit="10" stroke="#000000"/>
        <circle r="1.834" stroke-width="0.75" cx="30.324" cy="10.134" fill="none" stroke-miterlimit="10" stroke="#000000"/>
        <circle r="1.833" stroke-width="0.75" cx="18.949" cy="22.833" fill="none" stroke-miterlimit="10" stroke="#000000"/>
        <circle r="1.834" stroke-width="0.75" cx="44.039" cy="22.499" fill="none" stroke-miterlimit="10" stroke="#000000"/>
        <circle r="1.833" stroke-width="0.75" cx="4.548" cy="32.811" fill="none" stroke-miterlimit="10" stroke="#000000"/>
        <circle r="1.834" stroke-width="0.75" cx="29.305" cy="33.779" fill="none" stroke-miterlimit="10" stroke="#000000"/>
        <circle r="1.833" stroke-width="0.75" cx="18.949" cy="43.572" fill="none" stroke-miterlimit="10" stroke="#000000"/>
        <circle r="1.834" stroke-width="0.75" cx="41.873" cy="44.541" fill="none" stroke-miterlimit="10" stroke="#000000"/>
    </g>
</svg>
