<?xml version='1.0' encoding='utf-8'?>
<!DOCTYPE svg PUBLIC '-//W3C//DTD SVG 1.1//EN' 'http://www.w3.org/Graphics/SVG/1.1/DTD/svg11.dtd'>
<!-- Generator: Adobe Illustrator 16.0.0, SVG Export Plug-In . SVG Version: 6.00 Build 0)  -->
<svg version="1.1" xml:space="preserve" xmlns="http://www.w3.org/2000/svg" x="0px" width="48px" viewBox="0 0 48 48" enable-background="new 0 0 48 48" y="0px" xmlns:xlink="http://www.w3.org/1999/xlink" height="48px">
    <g id="石英片岩">
        <path d="M0,5.886c0,0,4.472-5.303,10.327-0.495&#xa;&#x9;&#x9;c1.734,0.907,3.685,2.5,9.919-0.357c2.004-0.824,6.233-3.275,11.004-0.016c1.789,1.006,4.281,2.544,8.836-0.369&#xa;&#x9;&#x9;c1.354-0.604,5.096-3.902,8.129,1.43" fill="none" stroke-miterlimit="10" stroke="#000000"/>
        <path d="M0.108,18.464c0,0,4.472-5.303,10.327-0.494&#xa;&#x9;&#x9;c1.734,0.906,3.685,2.5,9.919-0.357c2.004-0.824,6.233-3.275,11.004-0.016c1.789,1.006,4.281,2.542,8.836-0.369&#xa;&#x9;&#x9;c1.354-0.604,5.096-3.902,8.129,1.43" fill="none" stroke-miterlimit="10" stroke="#000000"/>
        <path d="M0.108,40.129c0,0,4.472-5.303,10.327-0.494&#xa;&#x9;&#x9;c1.734,0.906,3.685,2.5,9.919-0.357c2.004-0.824,6.233-3.275,11.004-0.016c1.789,1.006,4.281,2.543,8.836-0.369&#xa;&#x9;&#x9;c1.354-0.604,5.096-3.901,8.129,1.43" fill="none" stroke-miterlimit="10" stroke="#000000"/>
        <path d="M0.001,29.61c0,0,4.472-5.303,10.327-0.494&#xa;&#x9;&#x9;c1.734,0.906,3.685,2.5,9.919-0.357c2.004-0.824,6.233-3.275,11.004-0.016c1.789,1.006,4.281,2.543,8.836-0.369&#xa;&#x9;&#x9;c1.354-0.604,5.096-3.901,8.129,1.43" fill="none" stroke-miterlimit="10" stroke="#000000"/>
        <circle r="0.991" stroke-width="0.5" cx="4.408" cy="9.792" fill="none" stroke-miterlimit="10" stroke="#000000"/>
        <circle r="0.99" stroke-width="0.5" cx="29.398" cy="9.791" fill="none" stroke-miterlimit="10" stroke="#000000"/>
        <circle r="0.99" stroke-width="0.5" cx="19.273" cy="23.458" fill="none" stroke-miterlimit="10" stroke="#000000"/>
        <circle r="0.99" stroke-width="0.5" cx="44.363" cy="23.124" fill="none" stroke-miterlimit="10" stroke="#000000"/>
        <circle r="0.991" stroke-width="0.5" cx="4.945" cy="33.436" fill="none" stroke-miterlimit="10" stroke="#000000"/>
        <circle r="0.99" stroke-width="0.5" cx="29.398" cy="33.436" fill="none" stroke-miterlimit="10" stroke="#000000"/>
        <circle r="0.99" stroke-width="0.5" cx="19.273" cy="44.365" fill="none" stroke-miterlimit="10" stroke="#000000"/>
        <circle r="0.99" stroke-width="0.5" cx="42.197" cy="45.165" fill="none" stroke-miterlimit="10" stroke="#000000"/>
    </g>
</svg>
