<?xml version='1.0' encoding='utf-8'?>
<!DOCTYPE svg PUBLIC '-//W3C//DTD SVG 1.1//EN' 'http://www.w3.org/Graphics/SVG/1.1/DTD/svg11.dtd'>
<!-- Generator: Adobe Illustrator 16.0.0, SVG Export Plug-In . SVG Version: 6.00 Build 0)  -->
<svg version="1.1" xml:space="preserve" xmlns="http://www.w3.org/2000/svg" x="0px" width="48px" viewBox="0 0 48 48" enable-background="new 0 0 48 48" y="0px" xmlns:xlink="http://www.w3.org/1999/xlink" height="48px">
    <g id="石英千玫岩">
        <path d="M0,7.252c0,0,4.472-5.302,10.327-0.494&#xa;&#x9;&#x9;c1.734,0.906,3.685,2.5,9.919-0.357c2.004-0.824,6.233-3.275,11.004-0.016c1.789,1.006,4.281,2.543,8.836-0.369&#xa;&#x9;&#x9;c1.354-0.604,5.096-3.901,8.129,1.43" fill="none" stroke-miterlimit="10" stroke-dasharray="8,5" stroke="#000000"/>
        <path d="M0,32.132c0,0,4.472-5.302,10.327-0.494&#xa;&#x9;&#x9;c1.734,0.906,3.685,2.5,9.919-0.357c2.004-0.824,6.233-3.274,11.004-0.016c1.789,1.006,4.281,2.543,8.836-0.369&#xa;&#x9;&#x9;c1.354-0.604,5.096-3.9,8.129,1.43" fill="none" stroke-miterlimit="10" stroke-dasharray="8,5" stroke="#000000"/>
        <circle r="1.667" stroke-width="0.75" cx="3.25" cy="16.831" fill="none" stroke-miterlimit="10" stroke="#000000"/>
        <circle r="1.667" stroke-width="0.75" cx="14.227" cy="21.745" fill="none" stroke-miterlimit="10" stroke="#000000"/>
        <circle r="1.667" stroke-width="0.75" cx="28.227" cy="17.669" fill="none" stroke-miterlimit="10" stroke="#000000"/>
        <circle r="1.667" stroke-width="0.75" cx="41.581" cy="21.003" fill="none" stroke-miterlimit="10" stroke="#000000"/>
        <circle r="1.667" stroke-width="0.75" cx="4.14" cy="37.812" fill="none" stroke-miterlimit="10" stroke="#000000"/>
        <circle r="1.667" stroke-width="0.75" cx="15.117" cy="42.726" fill="none" stroke-miterlimit="10" stroke="#000000"/>
        <circle r="1.667" stroke-width="0.75" cx="29.116" cy="38.651" fill="none" stroke-miterlimit="10" stroke="#000000"/>
        <circle r="1.667" stroke-width="0.75" cx="42.471" cy="41.985" fill="none" stroke-miterlimit="10" stroke="#000000"/>
    </g>
</svg>
