<svg xmlns="http://www.w3.org/2000/svg" width="48.811" height="48.907" viewBox="0 0 48.811 48.907">
  <g id="矸石" transform="translate(-5353.747 -55.647)">
    <path id="路径_3242" data-name="路径 3242" d="M0,0H48V48H0Z" transform="translate(5354 56)" fill="none"/>
    <g id="矸石-2" data-name="矸石" transform="translate(5354.2 56)">
      <g id="组_1051" data-name="组 1051">
        <path id="直线_491" data-name="直线 491" d="M.354,47.753l-.708-.706,47.3-47.4.708.706Z" transform="translate(0.4 0.3)" fill="#595758"/>
        <g id="组_1044" data-name="组 1044">
          <path id="直线_492" data-name="直线 492" d="M.354,28.854l-.707-.707,28.5-28.5.707.707Z" transform="translate(16.4 19.5)" fill="#595758"/>
          <path id="直线_493" data-name="直线 493" d="M.355,11.952l-.71-.7,11.5-11.6.71.7Z" transform="translate(28.4 24.5)" fill="#595758"/>
          <path id="直线_494" data-name="直线 494" d="M.358,4.649l-.715-.7,4.2-4.3.715.7Z" transform="translate(43.8 16.4)" fill="#595758"/>
        </g>
        <g id="组_1046" data-name="组 1046">
          <g id="组_1045" data-name="组 1045">
            <path id="直线_495" data-name="直线 495" d="M.354,14.354l-.707-.707,14-14,.707.707Z" transform="translate(32.2 34.1)" fill="#595758"/>
            <path id="直线_496" data-name="直线 496" d="M.354,3.854l-.707-.707,3.5-3.5.707.707Z" transform="translate(44.5 32.3)" fill="#595758"/>
          </g>
        </g>
        <g id="组_1048" data-name="组 1048">
          <g id="组_1047" data-name="组 1047">
            <path id="直线_497" data-name="直线 497" d="M.354,32.653l-.708-.706,32.2-32.3.708.706Z" fill="#595758"/>
            <path id="路径_2004" data-name="路径 2004" fill="#595758"/>
          </g>
        </g>
        <g id="组_1050" data-name="组 1050">
          <g id="组_1049" data-name="组 1049">
            <path id="直线_498" data-name="直线 498" d="M.354,16.354l-.707-.707,16-16,.707.707Z" transform="translate(0 0.1)" fill="#595758"/>
            <path id="路径_2005" data-name="路径 2005" fill="#595758"/>
            <path id="路径_2006" data-name="路径 2006" fill="#595758"/>
          </g>
        </g>
      </g>
      <g id="组_1059" data-name="组 1059">
        <path id="直线_499" data-name="直线 499" d="M47.046,47.754-.354.354.354-.354l47.4,47.4Z" transform="translate(0.2 0.5)" fill="#595758"/>
        <g id="组_1052" data-name="组 1052">
          <path id="直线_500" data-name="直线 500" d="M28.146,28.854-.354.354.354-.354l28.5,28.5Z" transform="translate(19.4 3.3)" fill="#595758"/>
          <path id="直线_501" data-name="直线 501" d="M11.248,11.855-.352.355l.7-.71,11.6,11.5Z" transform="translate(24.4 8.3)" fill="#595758"/>
          <path id="直线_502" data-name="直线 502" d="M3.846,4.554l-4.2-4.2L.354-.354l4.2,4.2Z" transform="translate(16.3 0.2)" fill="#595758"/>
        </g>
        <g id="组_1054" data-name="组 1054">
          <g id="组_1053" data-name="组 1053">
            <path id="直线_503" data-name="直线 503" d="M13.545,14.352l-13.9-14,.71-.7,13.9,14Z" transform="translate(34 2)" fill="#595758"/>
            <path id="直线_504" data-name="直线 504" d="M3.146,3.854l-3.5-3.5L.354-.354l3.5,3.5Z" transform="translate(32.2 0.2)" fill="#595758"/>
          </g>
        </g>
        <g id="组_1056" data-name="组 1056">
          <g id="组_1055" data-name="组 1055">
            <path id="直线_505" data-name="直线 505" d="M31.846,32.554-.354.354.354-.354l32.2,32.2Z" transform="translate(-0.1 16)" fill="#595758"/>
            <path id="路径_2007" data-name="路径 2007" fill="#595758"/>
          </g>
        </g>
        <g id="组_1058" data-name="组 1058">
          <g id="组_1057" data-name="组 1057">
            <path id="直线_506" data-name="直线 506" d="M15.646,16.354l-16-16L.354-.354l16,16Z" transform="translate(0 32.2)" fill="#595758"/>
            <path id="路径_2008" data-name="路径 2008" fill="#595758"/>
            <path id="路径_2009" data-name="路径 2009" fill="#595758"/>
          </g>
        </g>
      </g>
      <path id="路径_2010" data-name="路径 2010" d="M-.2,16a.472.472,0,0,1,.5-.5H3.6a.5.5,0,1,1,0,1H.3A.472.472,0,0,1-.2,16Zm8.8,0a.472.472,0,0,1,.5-.5h3.3a.5.5,0,0,1,0,1H9.1A.472.472,0,0,1,8.6,16Zm8.7,0a.472.472,0,0,1,.5-.5h3.3a.5.5,0,1,1,0,1H17.8A.472.472,0,0,1,17.3,16Zm8.8,0a.472.472,0,0,1,.5-.5h3.3a.5.5,0,1,1,0,1H26.6A.472.472,0,0,1,26.1,16Zm8.8,0a.472.472,0,0,1,.5-.5h3.3a.5.5,0,0,1,0,1H35.4A.472.472,0,0,1,34.9,16Zm8.7,0a.472.472,0,0,1,.5-.5h3.3a.5.5,0,0,1,0,1H44.1A.472.472,0,0,1,43.6,16Z"/>
      <path id="路径_2011" data-name="路径 2011" d="M-.2,32.1a.472.472,0,0,1,.5-.5H3.6a.5.5,0,1,1,0,1H.3A.472.472,0,0,1-.2,32.1Zm8.8,0a.472.472,0,0,1,.5-.5h3.3a.5.5,0,1,1,0,1H9.1A.472.472,0,0,1,8.6,32.1Zm8.7,0a.472.472,0,0,1,.5-.5h3.3a.5.5,0,0,1,0,1H17.8A.472.472,0,0,1,17.3,32.1Zm8.8,0a.472.472,0,0,1,.5-.5h3.3a.5.5,0,0,1,0,1H26.6A.472.472,0,0,1,26.1,32.1Zm8.8,0a.472.472,0,0,1,.5-.5h3.3a.5.5,0,0,1,0,1H35.4A.472.472,0,0,1,34.9,32.1Zm8.7,0a.472.472,0,0,1,.5-.5h3.3a.5.5,0,1,1,0,1H44.1A.472.472,0,0,1,43.6,32.1Z"/>
      <path id="路径_2012" data-name="路径 2012" d="M-.2,47.5A.472.472,0,0,1,.3,47H3.6a.472.472,0,0,1,.5.5c.1.3-.1.5-.5.5H.3A.472.472,0,0,1-.2,47.5Zm8.8,0a.472.472,0,0,1,.5-.5h3.3a.5.5,0,0,1,0,1H9.1A.472.472,0,0,1,8.6,47.5Zm8.7,0a.472.472,0,0,1,.5-.5h3.3a.5.5,0,1,1,0,1H17.8A.472.472,0,0,1,17.3,47.5Zm8.8,0a.472.472,0,0,1,.5-.5h3.3a.5.5,0,1,1,0,1H26.6A.472.472,0,0,1,26.1,47.5Zm8.8,0a.472.472,0,0,1,.5-.5h3.3a.5.5,0,0,1,0,1H35.4A.472.472,0,0,1,34.9,47.5Zm8.7,0a.472.472,0,0,1,.5-.5h3.3a.5.5,0,0,1,0,1H44.1A.472.472,0,0,1,43.6,47.5Z"/>
    </g>
  </g>
</svg>
