<?xml version="1.0" encoding="utf-8"?>
<!-- Generator: Adobe Illustrator 16.0.0, SVG Export Plug-In . SVG Version: 6.00 Build 0)  -->
<!DOCTYPE svg PUBLIC "-//W3C//DTD SVG 1.1//EN" "http://www.w3.org/Graphics/SVG/1.1/DTD/svg11.dtd">
<svg version="1.1" id="图层_1" xmlns="http://www.w3.org/2000/svg" xmlns:xlink="http://www.w3.org/1999/xlink" x="0px" y="0px"
	 width="48px" height="48px" viewBox="0 0 48 48" enable-background="new 0 0 48 48" xml:space="preserve">
<g id="素填土">
	<line fill="none" stroke="#000000" stroke-miterlimit="10" x1="0" y1="0" x2="47.758" y2="47.758"/>
	<line fill="none" stroke="#000000" stroke-miterlimit="10" x1="0" y1="16.386" x2="31.613" y2="47.999"/>
	<line fill="none" stroke="#000000" stroke-miterlimit="10" x1="0.023" y1="32.193" x2="16.423" y2="47.986"/>
	<line fill="none" stroke="#000000" stroke-miterlimit="10" x1="15.807" y1="0" x2="48.032" y2="32.227"/>
	<line fill="none" stroke="#000000" stroke-miterlimit="10" x1="31.92" y1="0" x2="47.943" y2="16.024"/>
	<line fill="none" stroke="#000000" stroke-miterlimit="10" x1="0.037" y1="48" x2="47.755" y2="0.203"/>
	<line fill="none" stroke="#000000" stroke-miterlimit="10" x1="16.423" y1="47.986" x2="48.01" y2="16.347"/>
	<line fill="none" stroke="#000000" stroke-miterlimit="10" x1="32.217" y1="48" x2="48.032" y2="32.227"/>
	<line fill="none" stroke="#000000" stroke-miterlimit="10" x1="0.023" y1="32.193" x2="32.223" y2="-0.059"/>
	<line fill="none" stroke="#000000" stroke-miterlimit="10" x1="0.01" y1="16.081" x2="16.021" y2="0.044"/>
</g>
<line fill="#FFFFFF" stroke="#000000" stroke-miterlimit="10" x1="8.016" y1="1.5" x2="8.016" y2="2.5"/>
<line fill="#FFFFFF" stroke="#000000" stroke-miterlimit="10" x1="2" y1="7.563" x2="2" y2="8.563"/>
<line fill="#FFFFFF" stroke="#000000" stroke-miterlimit="10" x1="39.932" y1="46" x2="39.932" y2="47"/>
<line fill="#FFFFFF" stroke="#000000" stroke-miterlimit="10" x1="39.932" y1="31.667" x2="39.932" y2="32.667"/>
<line fill="#FFFFFF" stroke="#000000" stroke-miterlimit="10" x1="39.932" y1="15.613" x2="39.932" y2="16.613"/>
<line fill="#FFFFFF" stroke="#000000" stroke-miterlimit="10" x1="40.125" y1="2" x2="40.125" y2="3"/>
<line fill="#FFFFFF" stroke="#000000" stroke-miterlimit="10" x1="24" y1="46" x2="24" y2="47"/>
<line fill="#FFFFFF" stroke="#000000" stroke-miterlimit="10" x1="8.016" y1="44.5" x2="8.016" y2="45.5"/>
<line fill="#FFFFFF" stroke="#000000" stroke-miterlimit="10" x1="2" y1="39.59" x2="2" y2="40.59"/>
<line fill="#FFFFFF" stroke="#000000" stroke-miterlimit="10" x1="2" y1="23.379" x2="2" y2="24.379"/>
<line fill="#FFFFFF" stroke="#000000" stroke-miterlimit="10" x1="46.667" y1="39.613" x2="46.667" y2="40.613"/>
<line fill="#FFFFFF" stroke="#000000" stroke-miterlimit="10" x1="32.223" y1="39.613" x2="32.223" y2="40.613"/>
<line fill="#FFFFFF" stroke="#000000" stroke-miterlimit="10" x1="16.123" y1="40.113" x2="16.123" y2="41.113"/>
<line fill="#FFFFFF" stroke="#000000" stroke-miterlimit="10" x1="8.016" y1="32.668" x2="8.016" y2="33.668"/>
<line fill="#FFFFFF" stroke="#000000" stroke-miterlimit="10" x1="23.879" y1="32.168" x2="23.879" y2="33.168"/>
<line fill="#FFFFFF" stroke="#000000" stroke-miterlimit="10" x1="15.807" y1="23.879" x2="15.807" y2="24.879"/>
<line fill="#FFFFFF" stroke="#000000" stroke-miterlimit="10" x1="31.613" y1="23.879" x2="31.613" y2="24.879"/>
<line fill="#FFFFFF" stroke="#000000" stroke-miterlimit="10" x1="24" y1="15.524" x2="24" y2="16.524"/>
<line fill="#FFFFFF" stroke="#000000" stroke-miterlimit="10" x1="8.016" y1="16.114" x2="8.016" y2="17.114"/>
<line fill="#FFFFFF" stroke="#000000" stroke-miterlimit="10" x1="15.807" y1="8.063" x2="15.807" y2="9.063"/>
<line fill="#FFFFFF" stroke="#000000" stroke-miterlimit="10" x1="32.217" y1="8.563" x2="32.217" y2="9.563"/>
<line fill="#FFFFFF" stroke="#000000" stroke-miterlimit="10" x1="23.879" y1="2.501" x2="23.879" y2="3.501"/>
<line fill="#FFFFFF" stroke="#000000" stroke-miterlimit="10" x1="45.833" y1="8.063" x2="45.833" y2="9.063"/>
<line fill="#FFFFFF" stroke="#000000" stroke-miterlimit="10" x1="45.833" y1="23.602" x2="45.833" y2="24.602"/>
</svg>
