<svg xmlns="http://www.w3.org/2000/svg" width="48" height="48" viewBox="0 0 48 48">
  <g id="砂夹粘性土" transform="translate(-5412 -56)">
    <path id="路径_3243" data-name="路径 3243" d="M0,0H48V48H0Z" transform="translate(5412 56)" fill="none"/>
    <g id="砂夹粘性土-2" data-name="砂夹粘性土" transform="translate(5412 55.7)">
      <g id="组_1061" data-name="组 1061">
        <line id="直线_507" data-name="直线 507" x2="47" transform="translate(0.5 2.3)" fill="none"/>
        <g id="组_1060" data-name="组 1060">
          <path id="直线_508" data-name="直线 508" d="M.5.5H0A.5.5,0,0,1-.5,0,.5.5,0,0,1,0-.5H.5A.5.5,0,0,1,1,0,.5.5,0,0,1,.5.5Z" transform="translate(0.5 2.3)"/>
          <path id="直线_509" data-name="直线 509" d="M42.084.5h-.979a.5.5,0,0,1-.5-.5.5.5,0,0,1,.5-.5h.979a.5.5,0,0,1,.5.5A.5.5,0,0,1,42.084.5ZM39.148.5h-.979a.5.5,0,0,1-.5-.5.5.5,0,0,1,.5-.5h.979a.5.5,0,0,1,.5.5A.5.5,0,0,1,39.148.5ZM36.212.5h-.979a.5.5,0,0,1-.5-.5.5.5,0,0,1,.5-.5h.979a.5.5,0,0,1,.5.5A.5.5,0,0,1,36.212.5ZM33.276.5H32.3a.5.5,0,0,1-.5-.5.5.5,0,0,1,.5-.5h.979a.5.5,0,0,1,.5.5A.5.5,0,0,1,33.276.5ZM30.34.5h-.979a.5.5,0,0,1-.5-.5.5.5,0,0,1,.5-.5h.979a.5.5,0,0,1,.5.5A.5.5,0,0,1,30.34.5ZM27.4.5h-.979a.5.5,0,0,1-.5-.5.5.5,0,0,1,.5-.5H27.4a.5.5,0,0,1,.5.5A.5.5,0,0,1,27.4.5ZM24.468.5h-.979a.5.5,0,0,1-.5-.5.5.5,0,0,1,.5-.5h.979a.5.5,0,0,1,.5.5A.5.5,0,0,1,24.468.5ZM21.531.5h-.979a.5.5,0,0,1-.5-.5.5.5,0,0,1,.5-.5h.979a.5.5,0,0,1,.5.5A.5.5,0,0,1,21.531.5ZM18.6.5h-.979a.5.5,0,0,1-.5-.5.5.5,0,0,1,.5-.5H18.6a.5.5,0,0,1,.5.5A.5.5,0,0,1,18.6.5ZM15.659.5h-.979a.5.5,0,0,1-.5-.5.5.5,0,0,1,.5-.5h.979a.5.5,0,0,1,.5.5A.5.5,0,0,1,15.659.5ZM12.723.5h-.979a.5.5,0,0,1-.5-.5.5.5,0,0,1,.5-.5h.979a.5.5,0,0,1,.5.5A.5.5,0,0,1,12.723.5ZM9.787.5H8.808a.5.5,0,0,1-.5-.5.5.5,0,0,1,.5-.5h.979a.5.5,0,0,1,.5.5A.5.5,0,0,1,9.787.5ZM6.851.5H5.872a.5.5,0,0,1-.5-.5.5.5,0,0,1,.5-.5h.979a.5.5,0,0,1,.5.5A.5.5,0,0,1,6.851.5ZM3.915.5H2.936a.5.5,0,0,1-.5-.5.5.5,0,0,1,.5-.5h.979a.5.5,0,0,1,.5.5A.5.5,0,0,1,3.915.5ZM.979.5H0A.5.5,0,0,1-.5,0,.5.5,0,0,1,0-.5H.979a.5.5,0,0,1,.5.5A.5.5,0,0,1,.979.5Z" transform="translate(3 2.3)"/>
          <path id="直线_510" data-name="直线 510" d="M.5.5H0A.5.5,0,0,1-.5,0,.5.5,0,0,1,0-.5H.5A.5.5,0,0,1,1,0,.5.5,0,0,1,.5.5Z" transform="translate(47 2.3)"/>
        </g>
      </g>
      <g id="组_1063" data-name="组 1063">
        <line id="直线_511" data-name="直线 511" x2="47" transform="translate(0.5 7.2)" fill="none"/>
        <g id="组_1062" data-name="组 1062">
          <path id="直线_512" data-name="直线 512" d="M2,.5H0A.5.5,0,0,1-.5,0,.5.5,0,0,1,0-.5H2a.5.5,0,0,1,.5.5A.5.5,0,0,1,2,.5Z" transform="translate(0.5 7.2)"/>
          <path id="直线_513" data-name="直线 513" d="M39.091.5H35.182a.5.5,0,0,1-.5-.5.5.5,0,0,1,.5-.5h3.909a.5.5,0,0,1,.5.5A.5.5,0,0,1,39.091.5ZM33.227.5H29.318a.5.5,0,0,1-.5-.5.5.5,0,0,1,.5-.5h3.909a.5.5,0,0,1,.5.5A.5.5,0,0,1,33.227.5ZM27.364.5H23.454a.5.5,0,0,1-.5-.5.5.5,0,0,1,.5-.5h3.909a.5.5,0,0,1,.5.5A.5.5,0,0,1,27.364.5ZM21.5.5H17.591a.5.5,0,0,1-.5-.5.5.5,0,0,1,.5-.5H21.5A.5.5,0,0,1,22,0,.5.5,0,0,1,21.5.5ZM15.636.5H11.727a.5.5,0,0,1-.5-.5.5.5,0,0,1,.5-.5h3.909a.5.5,0,0,1,.5.5A.5.5,0,0,1,15.636.5ZM9.773.5H5.864a.5.5,0,0,1-.5-.5.5.5,0,0,1,.5-.5H9.773a.5.5,0,0,1,.5.5A.5.5,0,0,1,9.773.5ZM3.909.5H0A.5.5,0,0,1-.5,0,.5.5,0,0,1,0-.5H3.909a.5.5,0,0,1,.5.5A.5.5,0,0,1,3.909.5Z" transform="translate(4.5 7.2)"/>
          <path id="直线_514" data-name="直线 514" d="M2,.5H0A.5.5,0,0,1-.5,0,.5.5,0,0,1,0-.5H2a.5.5,0,0,1,.5.5A.5.5,0,0,1,2,.5Z" transform="translate(45.5 7.2)"/>
        </g>
      </g>
      <g id="组_1065" data-name="组 1065">
        <line id="直线_515" data-name="直线 515" x2="47" transform="translate(0.5 12)" fill="none"/>
        <g id="组_1064" data-name="组 1064">
          <path id="直线_516" data-name="直线 516" d="M.5.5H0A.5.5,0,0,1-.5,0,.5.5,0,0,1,0-.5H.5A.5.5,0,0,1,1,0,.5.5,0,0,1,.5.5Z" transform="translate(0.5 12)"/>
          <path id="直线_517" data-name="直线 517" d="M42.084.5h-.979a.5.5,0,0,1-.5-.5.5.5,0,0,1,.5-.5h.979a.5.5,0,0,1,.5.5A.5.5,0,0,1,42.084.5ZM39.148.5h-.979a.5.5,0,0,1-.5-.5.5.5,0,0,1,.5-.5h.979a.5.5,0,0,1,.5.5A.5.5,0,0,1,39.148.5ZM36.212.5h-.979a.5.5,0,0,1-.5-.5.5.5,0,0,1,.5-.5h.979a.5.5,0,0,1,.5.5A.5.5,0,0,1,36.212.5ZM33.276.5H32.3a.5.5,0,0,1-.5-.5.5.5,0,0,1,.5-.5h.979a.5.5,0,0,1,.5.5A.5.5,0,0,1,33.276.5ZM30.34.5h-.979a.5.5,0,0,1-.5-.5.5.5,0,0,1,.5-.5h.979a.5.5,0,0,1,.5.5A.5.5,0,0,1,30.34.5ZM27.4.5h-.979a.5.5,0,0,1-.5-.5.5.5,0,0,1,.5-.5H27.4a.5.5,0,0,1,.5.5A.5.5,0,0,1,27.4.5ZM24.468.5h-.979a.5.5,0,0,1-.5-.5.5.5,0,0,1,.5-.5h.979a.5.5,0,0,1,.5.5A.5.5,0,0,1,24.468.5ZM21.531.5h-.979a.5.5,0,0,1-.5-.5.5.5,0,0,1,.5-.5h.979a.5.5,0,0,1,.5.5A.5.5,0,0,1,21.531.5ZM18.6.5h-.979a.5.5,0,0,1-.5-.5.5.5,0,0,1,.5-.5H18.6a.5.5,0,0,1,.5.5A.5.5,0,0,1,18.6.5ZM15.659.5h-.979a.5.5,0,0,1-.5-.5.5.5,0,0,1,.5-.5h.979a.5.5,0,0,1,.5.5A.5.5,0,0,1,15.659.5ZM12.723.5h-.979a.5.5,0,0,1-.5-.5.5.5,0,0,1,.5-.5h.979a.5.5,0,0,1,.5.5A.5.5,0,0,1,12.723.5ZM9.787.5H8.808a.5.5,0,0,1-.5-.5.5.5,0,0,1,.5-.5h.979a.5.5,0,0,1,.5.5A.5.5,0,0,1,9.787.5ZM6.851.5H5.872a.5.5,0,0,1-.5-.5.5.5,0,0,1,.5-.5h.979a.5.5,0,0,1,.5.5A.5.5,0,0,1,6.851.5ZM3.915.5H2.936a.5.5,0,0,1-.5-.5.5.5,0,0,1,.5-.5h.979a.5.5,0,0,1,.5.5A.5.5,0,0,1,3.915.5ZM.979.5H0A.5.5,0,0,1-.5,0,.5.5,0,0,1,0-.5H.979a.5.5,0,0,1,.5.5A.5.5,0,0,1,.979.5Z" transform="translate(3 12)"/>
          <path id="直线_518" data-name="直线 518" d="M.5.5H0A.5.5,0,0,1-.5,0,.5.5,0,0,1,0-.5H.5A.5.5,0,0,1,1,0,.5.5,0,0,1,.5.5Z" transform="translate(47 12)"/>
        </g>
      </g>
      <g id="组_1067" data-name="组 1067">
        <line id="直线_519" data-name="直线 519" x2="47" transform="translate(0.5 16.8)" fill="none"/>
        <g id="组_1066" data-name="组 1066">
          <path id="直线_520" data-name="直线 520" d="M2,.5H0A.5.5,0,0,1-.5,0,.5.5,0,0,1,0-.5H2a.5.5,0,0,1,.5.5A.5.5,0,0,1,2,.5Z" transform="translate(0.5 16.8)"/>
          <path id="直线_521" data-name="直线 521" d="M39.091.5H35.182a.5.5,0,0,1-.5-.5.5.5,0,0,1,.5-.5h3.909a.5.5,0,0,1,.5.5A.5.5,0,0,1,39.091.5ZM33.227.5H29.318a.5.5,0,0,1-.5-.5.5.5,0,0,1,.5-.5h3.909a.5.5,0,0,1,.5.5A.5.5,0,0,1,33.227.5ZM27.364.5H23.454a.5.5,0,0,1-.5-.5.5.5,0,0,1,.5-.5h3.909a.5.5,0,0,1,.5.5A.5.5,0,0,1,27.364.5ZM21.5.5H17.591a.5.5,0,0,1-.5-.5.5.5,0,0,1,.5-.5H21.5A.5.5,0,0,1,22,0,.5.5,0,0,1,21.5.5ZM15.636.5H11.727a.5.5,0,0,1-.5-.5.5.5,0,0,1,.5-.5h3.909a.5.5,0,0,1,.5.5A.5.5,0,0,1,15.636.5ZM9.773.5H5.864a.5.5,0,0,1-.5-.5.5.5,0,0,1,.5-.5H9.773a.5.5,0,0,1,.5.5A.5.5,0,0,1,9.773.5ZM3.909.5H0A.5.5,0,0,1-.5,0,.5.5,0,0,1,0-.5H3.909a.5.5,0,0,1,.5.5A.5.5,0,0,1,3.909.5Z" transform="translate(4.5 16.8)"/>
          <path id="直线_522" data-name="直线 522" d="M2,.5H0A.5.5,0,0,1-.5,0,.5.5,0,0,1,0-.5H2a.5.5,0,0,1,.5.5A.5.5,0,0,1,2,.5Z" transform="translate(45.5 16.8)"/>
        </g>
      </g>
      <g id="组_1069" data-name="组 1069">
        <line id="直线_523" data-name="直线 523" x2="47" transform="translate(0.5 21.6)" fill="none"/>
        <g id="组_1068" data-name="组 1068">
          <path id="直线_524" data-name="直线 524" d="M.5.5H0A.5.5,0,0,1-.5,0,.5.5,0,0,1,0-.5H.5A.5.5,0,0,1,1,0,.5.5,0,0,1,.5.5Z" transform="translate(0.5 21.6)"/>
          <path id="直线_525" data-name="直线 525" d="M42.084.5h-.979a.5.5,0,0,1-.5-.5.5.5,0,0,1,.5-.5h.979a.5.5,0,0,1,.5.5A.5.5,0,0,1,42.084.5ZM39.148.5h-.979a.5.5,0,0,1-.5-.5.5.5,0,0,1,.5-.5h.979a.5.5,0,0,1,.5.5A.5.5,0,0,1,39.148.5ZM36.212.5h-.979a.5.5,0,0,1-.5-.5.5.5,0,0,1,.5-.5h.979a.5.5,0,0,1,.5.5A.5.5,0,0,1,36.212.5ZM33.276.5H32.3a.5.5,0,0,1-.5-.5.5.5,0,0,1,.5-.5h.979a.5.5,0,0,1,.5.5A.5.5,0,0,1,33.276.5ZM30.34.5h-.979a.5.5,0,0,1-.5-.5.5.5,0,0,1,.5-.5h.979a.5.5,0,0,1,.5.5A.5.5,0,0,1,30.34.5ZM27.4.5h-.979a.5.5,0,0,1-.5-.5.5.5,0,0,1,.5-.5H27.4a.5.5,0,0,1,.5.5A.5.5,0,0,1,27.4.5ZM24.468.5h-.979a.5.5,0,0,1-.5-.5.5.5,0,0,1,.5-.5h.979a.5.5,0,0,1,.5.5A.5.5,0,0,1,24.468.5ZM21.531.5h-.979a.5.5,0,0,1-.5-.5.5.5,0,0,1,.5-.5h.979a.5.5,0,0,1,.5.5A.5.5,0,0,1,21.531.5ZM18.6.5h-.979a.5.5,0,0,1-.5-.5.5.5,0,0,1,.5-.5H18.6a.5.5,0,0,1,.5.5A.5.5,0,0,1,18.6.5ZM15.659.5h-.979a.5.5,0,0,1-.5-.5.5.5,0,0,1,.5-.5h.979a.5.5,0,0,1,.5.5A.5.5,0,0,1,15.659.5ZM12.723.5h-.979a.5.5,0,0,1-.5-.5.5.5,0,0,1,.5-.5h.979a.5.5,0,0,1,.5.5A.5.5,0,0,1,12.723.5ZM9.787.5H8.808a.5.5,0,0,1-.5-.5.5.5,0,0,1,.5-.5h.979a.5.5,0,0,1,.5.5A.5.5,0,0,1,9.787.5ZM6.851.5H5.872a.5.5,0,0,1-.5-.5.5.5,0,0,1,.5-.5h.979a.5.5,0,0,1,.5.5A.5.5,0,0,1,6.851.5ZM3.915.5H2.936a.5.5,0,0,1-.5-.5.5.5,0,0,1,.5-.5h.979a.5.5,0,0,1,.5.5A.5.5,0,0,1,3.915.5ZM.979.5H0A.5.5,0,0,1-.5,0,.5.5,0,0,1,0-.5H.979a.5.5,0,0,1,.5.5A.5.5,0,0,1,.979.5Z" transform="translate(3 21.6)"/>
          <path id="直线_526" data-name="直线 526" d="M.5.5H0A.5.5,0,0,1-.5,0,.5.5,0,0,1,0-.5H.5A.5.5,0,0,1,1,0,.5.5,0,0,1,.5.5Z" transform="translate(47 21.6)"/>
        </g>
      </g>
      <g id="组_1071" data-name="组 1071">
        <line id="直线_527" data-name="直线 527" x2="47" transform="translate(0.5 26.4)" fill="none"/>
        <g id="组_1070" data-name="组 1070">
          <path id="直线_528" data-name="直线 528" d="M2,.5H0A.5.5,0,0,1-.5,0,.5.5,0,0,1,0-.5H2a.5.5,0,0,1,.5.5A.5.5,0,0,1,2,.5Z" transform="translate(0.5 26.4)"/>
          <path id="直线_529" data-name="直线 529" d="M39.091.5H35.182a.5.5,0,0,1-.5-.5.5.5,0,0,1,.5-.5h3.909a.5.5,0,0,1,.5.5A.5.5,0,0,1,39.091.5ZM33.227.5H29.318a.5.5,0,0,1-.5-.5.5.5,0,0,1,.5-.5h3.909a.5.5,0,0,1,.5.5A.5.5,0,0,1,33.227.5ZM27.364.5H23.454a.5.5,0,0,1-.5-.5.5.5,0,0,1,.5-.5h3.909a.5.5,0,0,1,.5.5A.5.5,0,0,1,27.364.5ZM21.5.5H17.591a.5.5,0,0,1-.5-.5.5.5,0,0,1,.5-.5H21.5A.5.5,0,0,1,22,0,.5.5,0,0,1,21.5.5ZM15.636.5H11.727a.5.5,0,0,1-.5-.5.5.5,0,0,1,.5-.5h3.909a.5.5,0,0,1,.5.5A.5.5,0,0,1,15.636.5ZM9.773.5H5.864a.5.5,0,0,1-.5-.5.5.5,0,0,1,.5-.5H9.773a.5.5,0,0,1,.5.5A.5.5,0,0,1,9.773.5ZM3.909.5H0A.5.5,0,0,1-.5,0,.5.5,0,0,1,0-.5H3.909a.5.5,0,0,1,.5.5A.5.5,0,0,1,3.909.5Z" transform="translate(4.5 26.4)"/>
          <path id="直线_530" data-name="直线 530" d="M2,.5H0A.5.5,0,0,1-.5,0,.5.5,0,0,1,0-.5H2a.5.5,0,0,1,.5.5A.5.5,0,0,1,2,.5Z" transform="translate(45.5 26.4)"/>
        </g>
      </g>
      <g id="组_1073" data-name="组 1073">
        <line id="直线_531" data-name="直线 531" x2="47" transform="translate(0.5 31.2)" fill="none"/>
        <g id="组_1072" data-name="组 1072">
          <path id="直线_532" data-name="直线 532" d="M.5.5H0A.5.5,0,0,1-.5,0,.5.5,0,0,1,0-.5H.5A.5.5,0,0,1,1,0,.5.5,0,0,1,.5.5Z" transform="translate(0.5 31.2)"/>
          <path id="直线_533" data-name="直线 533" d="M42.084.5h-.979a.5.5,0,0,1-.5-.5.5.5,0,0,1,.5-.5h.979a.5.5,0,0,1,.5.5A.5.5,0,0,1,42.084.5ZM39.148.5h-.979a.5.5,0,0,1-.5-.5.5.5,0,0,1,.5-.5h.979a.5.5,0,0,1,.5.5A.5.5,0,0,1,39.148.5ZM36.212.5h-.979a.5.5,0,0,1-.5-.5.5.5,0,0,1,.5-.5h.979a.5.5,0,0,1,.5.5A.5.5,0,0,1,36.212.5ZM33.276.5H32.3a.5.5,0,0,1-.5-.5.5.5,0,0,1,.5-.5h.979a.5.5,0,0,1,.5.5A.5.5,0,0,1,33.276.5ZM30.34.5h-.979a.5.5,0,0,1-.5-.5.5.5,0,0,1,.5-.5h.979a.5.5,0,0,1,.5.5A.5.5,0,0,1,30.34.5ZM27.4.5h-.979a.5.5,0,0,1-.5-.5.5.5,0,0,1,.5-.5H27.4a.5.5,0,0,1,.5.5A.5.5,0,0,1,27.4.5ZM24.468.5h-.979a.5.5,0,0,1-.5-.5.5.5,0,0,1,.5-.5h.979a.5.5,0,0,1,.5.5A.5.5,0,0,1,24.468.5ZM21.531.5h-.979a.5.5,0,0,1-.5-.5.5.5,0,0,1,.5-.5h.979a.5.5,0,0,1,.5.5A.5.5,0,0,1,21.531.5ZM18.6.5h-.979a.5.5,0,0,1-.5-.5.5.5,0,0,1,.5-.5H18.6a.5.5,0,0,1,.5.5A.5.5,0,0,1,18.6.5ZM15.659.5h-.979a.5.5,0,0,1-.5-.5.5.5,0,0,1,.5-.5h.979a.5.5,0,0,1,.5.5A.5.5,0,0,1,15.659.5ZM12.723.5h-.979a.5.5,0,0,1-.5-.5.5.5,0,0,1,.5-.5h.979a.5.5,0,0,1,.5.5A.5.5,0,0,1,12.723.5ZM9.787.5H8.808a.5.5,0,0,1-.5-.5.5.5,0,0,1,.5-.5h.979a.5.5,0,0,1,.5.5A.5.5,0,0,1,9.787.5ZM6.851.5H5.872a.5.5,0,0,1-.5-.5.5.5,0,0,1,.5-.5h.979a.5.5,0,0,1,.5.5A.5.5,0,0,1,6.851.5ZM3.915.5H2.936a.5.5,0,0,1-.5-.5.5.5,0,0,1,.5-.5h.979a.5.5,0,0,1,.5.5A.5.5,0,0,1,3.915.5ZM.979.5H0A.5.5,0,0,1-.5,0,.5.5,0,0,1,0-.5H.979a.5.5,0,0,1,.5.5A.5.5,0,0,1,.979.5Z" transform="translate(3 31.2)"/>
          <path id="直线_534" data-name="直线 534" d="M.5.5H0A.5.5,0,0,1-.5,0,.5.5,0,0,1,0-.5H.5A.5.5,0,0,1,1,0,.5.5,0,0,1,.5.5Z" transform="translate(47 31.2)"/>
        </g>
      </g>
      <g id="组_1075" data-name="组 1075">
        <line id="直线_535" data-name="直线 535" x2="47" transform="translate(0.5 36)" fill="none"/>
        <g id="组_1074" data-name="组 1074">
          <path id="直线_536" data-name="直线 536" d="M2,.5H0A.5.5,0,0,1-.5,0,.5.5,0,0,1,0-.5H2a.5.5,0,0,1,.5.5A.5.5,0,0,1,2,.5Z" transform="translate(0.5 36)"/>
          <path id="直线_537" data-name="直线 537" d="M39.091.5H35.182a.5.5,0,0,1-.5-.5.5.5,0,0,1,.5-.5h3.909a.5.5,0,0,1,.5.5A.5.5,0,0,1,39.091.5ZM33.227.5H29.318a.5.5,0,0,1-.5-.5.5.5,0,0,1,.5-.5h3.909a.5.5,0,0,1,.5.5A.5.5,0,0,1,33.227.5ZM27.364.5H23.454a.5.5,0,0,1-.5-.5.5.5,0,0,1,.5-.5h3.909a.5.5,0,0,1,.5.5A.5.5,0,0,1,27.364.5ZM21.5.5H17.591a.5.5,0,0,1-.5-.5.5.5,0,0,1,.5-.5H21.5A.5.5,0,0,1,22,0,.5.5,0,0,1,21.5.5ZM15.636.5H11.727a.5.5,0,0,1-.5-.5.5.5,0,0,1,.5-.5h3.909a.5.5,0,0,1,.5.5A.5.5,0,0,1,15.636.5ZM9.773.5H5.864a.5.5,0,0,1-.5-.5.5.5,0,0,1,.5-.5H9.773a.5.5,0,0,1,.5.5A.5.5,0,0,1,9.773.5ZM3.909.5H0A.5.5,0,0,1-.5,0,.5.5,0,0,1,0-.5H3.909a.5.5,0,0,1,.5.5A.5.5,0,0,1,3.909.5Z" transform="translate(4.5 36)"/>
          <path id="直线_538" data-name="直线 538" d="M2,.5H0A.5.5,0,0,1-.5,0,.5.5,0,0,1,0-.5H2a.5.5,0,0,1,.5.5A.5.5,0,0,1,2,.5Z" transform="translate(45.5 36)"/>
        </g>
      </g>
      <g id="组_1077" data-name="组 1077">
        <line id="直线_539" data-name="直线 539" x2="47" transform="translate(0.5 40.8)" fill="none"/>
        <g id="组_1076" data-name="组 1076">
          <path id="直线_540" data-name="直线 540" d="M.5.5H0A.5.5,0,0,1-.5,0,.5.5,0,0,1,0-.5H.5A.5.5,0,0,1,1,0,.5.5,0,0,1,.5.5Z" transform="translate(0.5 40.8)"/>
          <path id="直线_541" data-name="直线 541" d="M42.084.5h-.979a.5.5,0,0,1-.5-.5.5.5,0,0,1,.5-.5h.979a.5.5,0,0,1,.5.5A.5.5,0,0,1,42.084.5ZM39.148.5h-.979a.5.5,0,0,1-.5-.5.5.5,0,0,1,.5-.5h.979a.5.5,0,0,1,.5.5A.5.5,0,0,1,39.148.5ZM36.212.5h-.979a.5.5,0,0,1-.5-.5.5.5,0,0,1,.5-.5h.979a.5.5,0,0,1,.5.5A.5.5,0,0,1,36.212.5ZM33.276.5H32.3a.5.5,0,0,1-.5-.5.5.5,0,0,1,.5-.5h.979a.5.5,0,0,1,.5.5A.5.5,0,0,1,33.276.5ZM30.34.5h-.979a.5.5,0,0,1-.5-.5.5.5,0,0,1,.5-.5h.979a.5.5,0,0,1,.5.5A.5.5,0,0,1,30.34.5ZM27.4.5h-.979a.5.5,0,0,1-.5-.5.5.5,0,0,1,.5-.5H27.4a.5.5,0,0,1,.5.5A.5.5,0,0,1,27.4.5ZM24.468.5h-.979a.5.5,0,0,1-.5-.5.5.5,0,0,1,.5-.5h.979a.5.5,0,0,1,.5.5A.5.5,0,0,1,24.468.5ZM21.531.5h-.979a.5.5,0,0,1-.5-.5.5.5,0,0,1,.5-.5h.979a.5.5,0,0,1,.5.5A.5.5,0,0,1,21.531.5ZM18.6.5h-.979a.5.5,0,0,1-.5-.5.5.5,0,0,1,.5-.5H18.6a.5.5,0,0,1,.5.5A.5.5,0,0,1,18.6.5ZM15.659.5h-.979a.5.5,0,0,1-.5-.5.5.5,0,0,1,.5-.5h.979a.5.5,0,0,1,.5.5A.5.5,0,0,1,15.659.5ZM12.723.5h-.979a.5.5,0,0,1-.5-.5.5.5,0,0,1,.5-.5h.979a.5.5,0,0,1,.5.5A.5.5,0,0,1,12.723.5ZM9.787.5H8.808a.5.5,0,0,1-.5-.5.5.5,0,0,1,.5-.5h.979a.5.5,0,0,1,.5.5A.5.5,0,0,1,9.787.5ZM6.851.5H5.872a.5.5,0,0,1-.5-.5.5.5,0,0,1,.5-.5h.979a.5.5,0,0,1,.5.5A.5.5,0,0,1,6.851.5ZM3.915.5H2.936a.5.5,0,0,1-.5-.5.5.5,0,0,1,.5-.5h.979a.5.5,0,0,1,.5.5A.5.5,0,0,1,3.915.5ZM.979.5H0A.5.5,0,0,1-.5,0,.5.5,0,0,1,0-.5H.979a.5.5,0,0,1,.5.5A.5.5,0,0,1,.979.5Z" transform="translate(3 40.8)"/>
          <path id="直线_542" data-name="直线 542" d="M.5.5H0A.5.5,0,0,1-.5,0,.5.5,0,0,1,0-.5H.5A.5.5,0,0,1,1,0,.5.5,0,0,1,.5.5Z" transform="translate(47 40.8)"/>
        </g>
      </g>
      <line id="直线_543" data-name="直线 543" x2="47" transform="translate(0.5 45.7)" fill="none"/>
      <path id="直线_544" data-name="直线 544" d="M2,.5H0A.5.5,0,0,1-.5,0,.5.5,0,0,1,0-.5H2a.5.5,0,0,1,.5.5A.5.5,0,0,1,2,.5Z" transform="translate(0.5 45.7)"/>
      <path id="直线_545" data-name="直线 545" d="M39.091.5H35.182a.5.5,0,0,1-.5-.5.5.5,0,0,1,.5-.5h3.909a.5.5,0,0,1,.5.5A.5.5,0,0,1,39.091.5ZM33.227.5H29.318a.5.5,0,0,1-.5-.5.5.5,0,0,1,.5-.5h3.909a.5.5,0,0,1,.5.5A.5.5,0,0,1,33.227.5ZM27.364.5H23.454a.5.5,0,0,1-.5-.5.5.5,0,0,1,.5-.5h3.909a.5.5,0,0,1,.5.5A.5.5,0,0,1,27.364.5ZM21.5.5H17.591a.5.5,0,0,1-.5-.5.5.5,0,0,1,.5-.5H21.5A.5.5,0,0,1,22,0,.5.5,0,0,1,21.5.5ZM15.636.5H11.727a.5.5,0,0,1-.5-.5.5.5,0,0,1,.5-.5h3.909a.5.5,0,0,1,.5.5A.5.5,0,0,1,15.636.5ZM9.773.5H5.864a.5.5,0,0,1-.5-.5.5.5,0,0,1,.5-.5H9.773a.5.5,0,0,1,.5.5A.5.5,0,0,1,9.773.5ZM3.909.5H0A.5.5,0,0,1-.5,0,.5.5,0,0,1,0-.5H3.909a.5.5,0,0,1,.5.5A.5.5,0,0,1,3.909.5Z" transform="translate(4.5 45.7)"/>
      <path id="直线_546" data-name="直线 546" d="M2,.5H0A.5.5,0,0,1-.5,0,.5.5,0,0,1,0-.5H2a.5.5,0,0,1,.5.5A.5.5,0,0,1,2,.5Z" transform="translate(45.5 45.7)"/>
    </g>
  </g>
</svg>
