<svg xmlns="http://www.w3.org/2000/svg" width="48" height="48" viewBox="0 0 48 48">
  <g id="砂混砂粘土" transform="translate(-5521 -56)">
    <path id="路径_3245" data-name="路径 3245" d="M0,0H48V48H0Z" transform="translate(5521 56)" fill="none"/>
    <g id="砂混砂粘土-2" data-name="砂混砂粘土" transform="translate(5521 55.7)">
      <g id="组_1079" data-name="组 1079">
        <line id="直线_547" data-name="直线 547" x2="47" transform="translate(0.5 2.3)" fill="none"/>
        <g id="组_1078" data-name="组 1078">
          <path id="直线_548" data-name="直线 548" d="M.5.5H0A.5.5,0,0,1-.5,0,.5.5,0,0,1,0-.5H.5A.5.5,0,0,1,1,0,.5.5,0,0,1,.5.5Z" transform="translate(0.5 2.3)"/>
          <path id="直线_549" data-name="直线 549" d="M42.084.5h-.979a.5.5,0,0,1-.5-.5.5.5,0,0,1,.5-.5h.979a.5.5,0,0,1,.5.5A.5.5,0,0,1,42.084.5ZM39.148.5h-.979a.5.5,0,0,1-.5-.5.5.5,0,0,1,.5-.5h.979a.5.5,0,0,1,.5.5A.5.5,0,0,1,39.148.5ZM36.212.5h-.979a.5.5,0,0,1-.5-.5.5.5,0,0,1,.5-.5h.979a.5.5,0,0,1,.5.5A.5.5,0,0,1,36.212.5ZM33.276.5H32.3a.5.5,0,0,1-.5-.5.5.5,0,0,1,.5-.5h.979a.5.5,0,0,1,.5.5A.5.5,0,0,1,33.276.5ZM30.34.5h-.979a.5.5,0,0,1-.5-.5.5.5,0,0,1,.5-.5h.979a.5.5,0,0,1,.5.5A.5.5,0,0,1,30.34.5ZM27.4.5h-.979a.5.5,0,0,1-.5-.5.5.5,0,0,1,.5-.5H27.4a.5.5,0,0,1,.5.5A.5.5,0,0,1,27.4.5ZM24.468.5h-.979a.5.5,0,0,1-.5-.5.5.5,0,0,1,.5-.5h.979a.5.5,0,0,1,.5.5A.5.5,0,0,1,24.468.5ZM21.531.5h-.979a.5.5,0,0,1-.5-.5.5.5,0,0,1,.5-.5h.979a.5.5,0,0,1,.5.5A.5.5,0,0,1,21.531.5ZM18.6.5h-.979a.5.5,0,0,1-.5-.5.5.5,0,0,1,.5-.5H18.6a.5.5,0,0,1,.5.5A.5.5,0,0,1,18.6.5ZM15.659.5h-.979a.5.5,0,0,1-.5-.5.5.5,0,0,1,.5-.5h.979a.5.5,0,0,1,.5.5A.5.5,0,0,1,15.659.5ZM12.723.5h-.979a.5.5,0,0,1-.5-.5.5.5,0,0,1,.5-.5h.979a.5.5,0,0,1,.5.5A.5.5,0,0,1,12.723.5ZM9.787.5H8.808a.5.5,0,0,1-.5-.5.5.5,0,0,1,.5-.5h.979a.5.5,0,0,1,.5.5A.5.5,0,0,1,9.787.5ZM6.851.5H5.872a.5.5,0,0,1-.5-.5.5.5,0,0,1,.5-.5h.979a.5.5,0,0,1,.5.5A.5.5,0,0,1,6.851.5ZM3.915.5H2.936a.5.5,0,0,1-.5-.5.5.5,0,0,1,.5-.5h.979a.5.5,0,0,1,.5.5A.5.5,0,0,1,3.915.5ZM.979.5H0A.5.5,0,0,1-.5,0,.5.5,0,0,1,0-.5H.979a.5.5,0,0,1,.5.5A.5.5,0,0,1,.979.5Z" transform="translate(3 2.3)"/>
          <path id="直线_550" data-name="直线 550" d="M.5.5H0A.5.5,0,0,1-.5,0,.5.5,0,0,1,0-.5H.5A.5.5,0,0,1,1,0,.5.5,0,0,1,.5.5Z" transform="translate(47 2.3)"/>
        </g>
      </g>
      <g id="组_1081" data-name="组 1081">
        <line id="直线_551" data-name="直线 551" x2="47" transform="translate(0.5 7.2)" fill="none"/>
        <g id="组_1080" data-name="组 1080">
          <path id="直线_552" data-name="直线 552" d="M2,.5H0A.5.5,0,0,1-.5,0,.5.5,0,0,1,0-.5H2a.5.5,0,0,1,.5.5A.5.5,0,0,1,2,.5Z" transform="translate(0.5 7.2)"/>
          <path id="直线_553" data-name="直线 553" d="M39.091.5H35.182a.5.5,0,0,1-.5-.5.5.5,0,0,1,.5-.5h3.909a.5.5,0,0,1,.5.5A.5.5,0,0,1,39.091.5ZM33.227.5H29.318a.5.5,0,0,1-.5-.5.5.5,0,0,1,.5-.5h3.909a.5.5,0,0,1,.5.5A.5.5,0,0,1,33.227.5ZM27.364.5H23.454a.5.5,0,0,1-.5-.5.5.5,0,0,1,.5-.5h3.909a.5.5,0,0,1,.5.5A.5.5,0,0,1,27.364.5ZM21.5.5H17.591a.5.5,0,0,1-.5-.5.5.5,0,0,1,.5-.5H21.5A.5.5,0,0,1,22,0,.5.5,0,0,1,21.5.5ZM15.636.5H11.727a.5.5,0,0,1-.5-.5.5.5,0,0,1,.5-.5h3.909a.5.5,0,0,1,.5.5A.5.5,0,0,1,15.636.5ZM9.773.5H5.864a.5.5,0,0,1-.5-.5.5.5,0,0,1,.5-.5H9.773a.5.5,0,0,1,.5.5A.5.5,0,0,1,9.773.5ZM3.909.5H0A.5.5,0,0,1-.5,0,.5.5,0,0,1,0-.5H3.909a.5.5,0,0,1,.5.5A.5.5,0,0,1,3.909.5Z" transform="translate(4.5 7.2)"/>
          <path id="直线_554" data-name="直线 554" d="M2,.5H0A.5.5,0,0,1-.5,0,.5.5,0,0,1,0-.5H2a.5.5,0,0,1,.5.5A.5.5,0,0,1,2,.5Z" transform="translate(45.5 7.2)"/>
        </g>
      </g>
      <g id="组_1083" data-name="组 1083">
        <line id="直线_555" data-name="直线 555" x2="47" transform="translate(0.5 12)" fill="none"/>
        <g id="组_1082" data-name="组 1082">
          <path id="直线_556" data-name="直线 556" d="M.5.5H0A.5.5,0,0,1-.5,0,.5.5,0,0,1,0-.5H.5A.5.5,0,0,1,1,0,.5.5,0,0,1,.5.5Z" transform="translate(0.5 12)"/>
          <path id="直线_557" data-name="直线 557" d="M42.084.5h-.979a.5.5,0,0,1-.5-.5.5.5,0,0,1,.5-.5h.979a.5.5,0,0,1,.5.5A.5.5,0,0,1,42.084.5ZM39.148.5h-.979a.5.5,0,0,1-.5-.5.5.5,0,0,1,.5-.5h.979a.5.5,0,0,1,.5.5A.5.5,0,0,1,39.148.5ZM36.212.5h-.979a.5.5,0,0,1-.5-.5.5.5,0,0,1,.5-.5h.979a.5.5,0,0,1,.5.5A.5.5,0,0,1,36.212.5ZM33.276.5H32.3a.5.5,0,0,1-.5-.5.5.5,0,0,1,.5-.5h.979a.5.5,0,0,1,.5.5A.5.5,0,0,1,33.276.5ZM30.34.5h-.979a.5.5,0,0,1-.5-.5.5.5,0,0,1,.5-.5h.979a.5.5,0,0,1,.5.5A.5.5,0,0,1,30.34.5ZM27.4.5h-.979a.5.5,0,0,1-.5-.5.5.5,0,0,1,.5-.5H27.4a.5.5,0,0,1,.5.5A.5.5,0,0,1,27.4.5ZM24.468.5h-.979a.5.5,0,0,1-.5-.5.5.5,0,0,1,.5-.5h.979a.5.5,0,0,1,.5.5A.5.5,0,0,1,24.468.5ZM21.531.5h-.979a.5.5,0,0,1-.5-.5.5.5,0,0,1,.5-.5h.979a.5.5,0,0,1,.5.5A.5.5,0,0,1,21.531.5ZM18.6.5h-.979a.5.5,0,0,1-.5-.5.5.5,0,0,1,.5-.5H18.6a.5.5,0,0,1,.5.5A.5.5,0,0,1,18.6.5ZM15.659.5h-.979a.5.5,0,0,1-.5-.5.5.5,0,0,1,.5-.5h.979a.5.5,0,0,1,.5.5A.5.5,0,0,1,15.659.5ZM12.723.5h-.979a.5.5,0,0,1-.5-.5.5.5,0,0,1,.5-.5h.979a.5.5,0,0,1,.5.5A.5.5,0,0,1,12.723.5ZM9.787.5H8.808a.5.5,0,0,1-.5-.5.5.5,0,0,1,.5-.5h.979a.5.5,0,0,1,.5.5A.5.5,0,0,1,9.787.5ZM6.851.5H5.872a.5.5,0,0,1-.5-.5.5.5,0,0,1,.5-.5h.979a.5.5,0,0,1,.5.5A.5.5,0,0,1,6.851.5ZM3.915.5H2.936a.5.5,0,0,1-.5-.5.5.5,0,0,1,.5-.5h.979a.5.5,0,0,1,.5.5A.5.5,0,0,1,3.915.5ZM.979.5H0A.5.5,0,0,1-.5,0,.5.5,0,0,1,0-.5H.979a.5.5,0,0,1,.5.5A.5.5,0,0,1,.979.5Z" transform="translate(3 12)"/>
          <path id="直线_558" data-name="直线 558" d="M.5.5H0A.5.5,0,0,1-.5,0,.5.5,0,0,1,0-.5H.5A.5.5,0,0,1,1,0,.5.5,0,0,1,.5.5Z" transform="translate(47 12)"/>
        </g>
      </g>
      <g id="组_1085" data-name="组 1085">
        <line id="直线_559" data-name="直线 559" x2="47" transform="translate(0.5 16.8)" fill="none"/>
        <g id="组_1084" data-name="组 1084">
          <path id="直线_560" data-name="直线 560" d="M2,.5H0A.5.5,0,0,1-.5,0,.5.5,0,0,1,0-.5H2a.5.5,0,0,1,.5.5A.5.5,0,0,1,2,.5Z" transform="translate(0.5 16.8)"/>
          <path id="直线_561" data-name="直线 561" d="M39.091.5H35.182a.5.5,0,0,1-.5-.5.5.5,0,0,1,.5-.5h3.909a.5.5,0,0,1,.5.5A.5.5,0,0,1,39.091.5ZM33.227.5H29.318a.5.5,0,0,1-.5-.5.5.5,0,0,1,.5-.5h3.909a.5.5,0,0,1,.5.5A.5.5,0,0,1,33.227.5ZM27.364.5H23.454a.5.5,0,0,1-.5-.5.5.5,0,0,1,.5-.5h3.909a.5.5,0,0,1,.5.5A.5.5,0,0,1,27.364.5ZM21.5.5H17.591a.5.5,0,0,1-.5-.5.5.5,0,0,1,.5-.5H21.5A.5.5,0,0,1,22,0,.5.5,0,0,1,21.5.5ZM15.636.5H11.727a.5.5,0,0,1-.5-.5.5.5,0,0,1,.5-.5h3.909a.5.5,0,0,1,.5.5A.5.5,0,0,1,15.636.5ZM9.773.5H5.864a.5.5,0,0,1-.5-.5.5.5,0,0,1,.5-.5H9.773a.5.5,0,0,1,.5.5A.5.5,0,0,1,9.773.5ZM3.909.5H0A.5.5,0,0,1-.5,0,.5.5,0,0,1,0-.5H3.909a.5.5,0,0,1,.5.5A.5.5,0,0,1,3.909.5Z" transform="translate(4.5 16.8)"/>
          <path id="直线_562" data-name="直线 562" d="M2,.5H0A.5.5,0,0,1-.5,0,.5.5,0,0,1,0-.5H2a.5.5,0,0,1,.5.5A.5.5,0,0,1,2,.5Z" transform="translate(45.5 16.8)"/>
        </g>
      </g>
      <g id="组_1087" data-name="组 1087">
        <line id="直线_563" data-name="直线 563" x2="47" transform="translate(0.5 21.6)" fill="none"/>
        <g id="组_1086" data-name="组 1086">
          <path id="直线_564" data-name="直线 564" d="M.5.5H0A.5.5,0,0,1-.5,0,.5.5,0,0,1,0-.5H.5A.5.5,0,0,1,1,0,.5.5,0,0,1,.5.5Z" transform="translate(0.5 21.6)"/>
          <path id="直线_565" data-name="直线 565" d="M42.084.5h-.979a.5.5,0,0,1-.5-.5.5.5,0,0,1,.5-.5h.979a.5.5,0,0,1,.5.5A.5.5,0,0,1,42.084.5ZM39.148.5h-.979a.5.5,0,0,1-.5-.5.5.5,0,0,1,.5-.5h.979a.5.5,0,0,1,.5.5A.5.5,0,0,1,39.148.5ZM36.212.5h-.979a.5.5,0,0,1-.5-.5.5.5,0,0,1,.5-.5h.979a.5.5,0,0,1,.5.5A.5.5,0,0,1,36.212.5ZM33.276.5H32.3a.5.5,0,0,1-.5-.5.5.5,0,0,1,.5-.5h.979a.5.5,0,0,1,.5.5A.5.5,0,0,1,33.276.5ZM30.34.5h-.979a.5.5,0,0,1-.5-.5.5.5,0,0,1,.5-.5h.979a.5.5,0,0,1,.5.5A.5.5,0,0,1,30.34.5ZM27.4.5h-.979a.5.5,0,0,1-.5-.5.5.5,0,0,1,.5-.5H27.4a.5.5,0,0,1,.5.5A.5.5,0,0,1,27.4.5ZM24.468.5h-.979a.5.5,0,0,1-.5-.5.5.5,0,0,1,.5-.5h.979a.5.5,0,0,1,.5.5A.5.5,0,0,1,24.468.5ZM21.531.5h-.979a.5.5,0,0,1-.5-.5.5.5,0,0,1,.5-.5h.979a.5.5,0,0,1,.5.5A.5.5,0,0,1,21.531.5ZM18.6.5h-.979a.5.5,0,0,1-.5-.5.5.5,0,0,1,.5-.5H18.6a.5.5,0,0,1,.5.5A.5.5,0,0,1,18.6.5ZM15.659.5h-.979a.5.5,0,0,1-.5-.5.5.5,0,0,1,.5-.5h.979a.5.5,0,0,1,.5.5A.5.5,0,0,1,15.659.5ZM12.723.5h-.979a.5.5,0,0,1-.5-.5.5.5,0,0,1,.5-.5h.979a.5.5,0,0,1,.5.5A.5.5,0,0,1,12.723.5ZM9.787.5H8.808a.5.5,0,0,1-.5-.5.5.5,0,0,1,.5-.5h.979a.5.5,0,0,1,.5.5A.5.5,0,0,1,9.787.5ZM6.851.5H5.872a.5.5,0,0,1-.5-.5.5.5,0,0,1,.5-.5h.979a.5.5,0,0,1,.5.5A.5.5,0,0,1,6.851.5ZM3.915.5H2.936a.5.5,0,0,1-.5-.5.5.5,0,0,1,.5-.5h.979a.5.5,0,0,1,.5.5A.5.5,0,0,1,3.915.5ZM.979.5H0A.5.5,0,0,1-.5,0,.5.5,0,0,1,0-.5H.979a.5.5,0,0,1,.5.5A.5.5,0,0,1,.979.5Z" transform="translate(3 21.6)"/>
          <path id="直线_566" data-name="直线 566" d="M.5.5H0A.5.5,0,0,1-.5,0,.5.5,0,0,1,0-.5H.5A.5.5,0,0,1,1,0,.5.5,0,0,1,.5.5Z" transform="translate(47 21.6)"/>
        </g>
      </g>
      <g id="组_1089" data-name="组 1089">
        <line id="直线_567" data-name="直线 567" x2="47" transform="translate(0.5 26.4)" fill="none"/>
        <g id="组_1088" data-name="组 1088">
          <path id="直线_568" data-name="直线 568" d="M2,.5H0A.5.5,0,0,1-.5,0,.5.5,0,0,1,0-.5H2a.5.5,0,0,1,.5.5A.5.5,0,0,1,2,.5Z" transform="translate(0.5 26.4)"/>
          <path id="直线_569" data-name="直线 569" d="M39.091.5H35.182a.5.5,0,0,1-.5-.5.5.5,0,0,1,.5-.5h3.909a.5.5,0,0,1,.5.5A.5.5,0,0,1,39.091.5ZM33.227.5H29.318a.5.5,0,0,1-.5-.5.5.5,0,0,1,.5-.5h3.909a.5.5,0,0,1,.5.5A.5.5,0,0,1,33.227.5ZM27.364.5H23.454a.5.5,0,0,1-.5-.5.5.5,0,0,1,.5-.5h3.909a.5.5,0,0,1,.5.5A.5.5,0,0,1,27.364.5ZM21.5.5H17.591a.5.5,0,0,1-.5-.5.5.5,0,0,1,.5-.5H21.5A.5.5,0,0,1,22,0,.5.5,0,0,1,21.5.5ZM15.636.5H11.727a.5.5,0,0,1-.5-.5.5.5,0,0,1,.5-.5h3.909a.5.5,0,0,1,.5.5A.5.5,0,0,1,15.636.5ZM9.773.5H5.864a.5.5,0,0,1-.5-.5.5.5,0,0,1,.5-.5H9.773a.5.5,0,0,1,.5.5A.5.5,0,0,1,9.773.5ZM3.909.5H0A.5.5,0,0,1-.5,0,.5.5,0,0,1,0-.5H3.909a.5.5,0,0,1,.5.5A.5.5,0,0,1,3.909.5Z" transform="translate(4.5 26.4)"/>
          <path id="直线_570" data-name="直线 570" d="M2,.5H0A.5.5,0,0,1-.5,0,.5.5,0,0,1,0-.5H2a.5.5,0,0,1,.5.5A.5.5,0,0,1,2,.5Z" transform="translate(45.5 26.4)"/>
        </g>
      </g>
      <g id="组_1091" data-name="组 1091">
        <line id="直线_571" data-name="直线 571" x2="47" transform="translate(0.5 31.2)" fill="none"/>
        <g id="组_1090" data-name="组 1090">
          <path id="直线_572" data-name="直线 572" d="M.5.5H0A.5.5,0,0,1-.5,0,.5.5,0,0,1,0-.5H.5A.5.5,0,0,1,1,0,.5.5,0,0,1,.5.5Z" transform="translate(0.5 31.2)"/>
          <path id="直线_573" data-name="直线 573" d="M42.084.5h-.979a.5.5,0,0,1-.5-.5.5.5,0,0,1,.5-.5h.979a.5.5,0,0,1,.5.5A.5.5,0,0,1,42.084.5ZM39.148.5h-.979a.5.5,0,0,1-.5-.5.5.5,0,0,1,.5-.5h.979a.5.5,0,0,1,.5.5A.5.5,0,0,1,39.148.5ZM36.212.5h-.979a.5.5,0,0,1-.5-.5.5.5,0,0,1,.5-.5h.979a.5.5,0,0,1,.5.5A.5.5,0,0,1,36.212.5ZM33.276.5H32.3a.5.5,0,0,1-.5-.5.5.5,0,0,1,.5-.5h.979a.5.5,0,0,1,.5.5A.5.5,0,0,1,33.276.5ZM30.34.5h-.979a.5.5,0,0,1-.5-.5.5.5,0,0,1,.5-.5h.979a.5.5,0,0,1,.5.5A.5.5,0,0,1,30.34.5ZM27.4.5h-.979a.5.5,0,0,1-.5-.5.5.5,0,0,1,.5-.5H27.4a.5.5,0,0,1,.5.5A.5.5,0,0,1,27.4.5ZM24.468.5h-.979a.5.5,0,0,1-.5-.5.5.5,0,0,1,.5-.5h.979a.5.5,0,0,1,.5.5A.5.5,0,0,1,24.468.5ZM21.531.5h-.979a.5.5,0,0,1-.5-.5.5.5,0,0,1,.5-.5h.979a.5.5,0,0,1,.5.5A.5.5,0,0,1,21.531.5ZM18.6.5h-.979a.5.5,0,0,1-.5-.5.5.5,0,0,1,.5-.5H18.6a.5.5,0,0,1,.5.5A.5.5,0,0,1,18.6.5ZM15.659.5h-.979a.5.5,0,0,1-.5-.5.5.5,0,0,1,.5-.5h.979a.5.5,0,0,1,.5.5A.5.5,0,0,1,15.659.5ZM12.723.5h-.979a.5.5,0,0,1-.5-.5.5.5,0,0,1,.5-.5h.979a.5.5,0,0,1,.5.5A.5.5,0,0,1,12.723.5ZM9.787.5H8.808a.5.5,0,0,1-.5-.5.5.5,0,0,1,.5-.5h.979a.5.5,0,0,1,.5.5A.5.5,0,0,1,9.787.5ZM6.851.5H5.872a.5.5,0,0,1-.5-.5.5.5,0,0,1,.5-.5h.979a.5.5,0,0,1,.5.5A.5.5,0,0,1,6.851.5ZM3.915.5H2.936a.5.5,0,0,1-.5-.5.5.5,0,0,1,.5-.5h.979a.5.5,0,0,1,.5.5A.5.5,0,0,1,3.915.5ZM.979.5H0A.5.5,0,0,1-.5,0,.5.5,0,0,1,0-.5H.979a.5.5,0,0,1,.5.5A.5.5,0,0,1,.979.5Z" transform="translate(3 31.2)"/>
          <path id="直线_574" data-name="直线 574" d="M.5.5H0A.5.5,0,0,1-.5,0,.5.5,0,0,1,0-.5H.5A.5.5,0,0,1,1,0,.5.5,0,0,1,.5.5Z" transform="translate(47 31.2)"/>
        </g>
      </g>
      <g id="组_1093" data-name="组 1093">
        <line id="直线_575" data-name="直线 575" x2="47" transform="translate(0.5 36)" fill="none"/>
        <g id="组_1092" data-name="组 1092">
          <path id="直线_576" data-name="直线 576" d="M2,.5H0A.5.5,0,0,1-.5,0,.5.5,0,0,1,0-.5H2a.5.5,0,0,1,.5.5A.5.5,0,0,1,2,.5Z" transform="translate(0.5 36)"/>
          <path id="直线_577" data-name="直线 577" d="M39.091.5H35.182a.5.5,0,0,1-.5-.5.5.5,0,0,1,.5-.5h3.909a.5.5,0,0,1,.5.5A.5.5,0,0,1,39.091.5ZM33.227.5H29.318a.5.5,0,0,1-.5-.5.5.5,0,0,1,.5-.5h3.909a.5.5,0,0,1,.5.5A.5.5,0,0,1,33.227.5ZM27.364.5H23.454a.5.5,0,0,1-.5-.5.5.5,0,0,1,.5-.5h3.909a.5.5,0,0,1,.5.5A.5.5,0,0,1,27.364.5ZM21.5.5H17.591a.5.5,0,0,1-.5-.5.5.5,0,0,1,.5-.5H21.5A.5.5,0,0,1,22,0,.5.5,0,0,1,21.5.5ZM15.636.5H11.727a.5.5,0,0,1-.5-.5.5.5,0,0,1,.5-.5h3.909a.5.5,0,0,1,.5.5A.5.5,0,0,1,15.636.5ZM9.773.5H5.864a.5.5,0,0,1-.5-.5.5.5,0,0,1,.5-.5H9.773a.5.5,0,0,1,.5.5A.5.5,0,0,1,9.773.5ZM3.909.5H0A.5.5,0,0,1-.5,0,.5.5,0,0,1,0-.5H3.909a.5.5,0,0,1,.5.5A.5.5,0,0,1,3.909.5Z" transform="translate(4.5 36)"/>
          <path id="直线_578" data-name="直线 578" d="M2,.5H0A.5.5,0,0,1-.5,0,.5.5,0,0,1,0-.5H2a.5.5,0,0,1,.5.5A.5.5,0,0,1,2,.5Z" transform="translate(45.5 36)"/>
        </g>
      </g>
      <g id="组_1095" data-name="组 1095">
        <line id="直线_579" data-name="直线 579" x2="47" transform="translate(0.5 40.8)" fill="none"/>
        <g id="组_1094" data-name="组 1094">
          <path id="直线_580" data-name="直线 580" d="M.5.5H0A.5.5,0,0,1-.5,0,.5.5,0,0,1,0-.5H.5A.5.5,0,0,1,1,0,.5.5,0,0,1,.5.5Z" transform="translate(0.5 40.8)"/>
          <path id="直线_581" data-name="直线 581" d="M42.084.5h-.979a.5.5,0,0,1-.5-.5.5.5,0,0,1,.5-.5h.979a.5.5,0,0,1,.5.5A.5.5,0,0,1,42.084.5ZM39.148.5h-.979a.5.5,0,0,1-.5-.5.5.5,0,0,1,.5-.5h.979a.5.5,0,0,1,.5.5A.5.5,0,0,1,39.148.5ZM36.212.5h-.979a.5.5,0,0,1-.5-.5.5.5,0,0,1,.5-.5h.979a.5.5,0,0,1,.5.5A.5.5,0,0,1,36.212.5ZM33.276.5H32.3a.5.5,0,0,1-.5-.5.5.5,0,0,1,.5-.5h.979a.5.5,0,0,1,.5.5A.5.5,0,0,1,33.276.5ZM30.34.5h-.979a.5.5,0,0,1-.5-.5.5.5,0,0,1,.5-.5h.979a.5.5,0,0,1,.5.5A.5.5,0,0,1,30.34.5ZM27.4.5h-.979a.5.5,0,0,1-.5-.5.5.5,0,0,1,.5-.5H27.4a.5.5,0,0,1,.5.5A.5.5,0,0,1,27.4.5ZM24.468.5h-.979a.5.5,0,0,1-.5-.5.5.5,0,0,1,.5-.5h.979a.5.5,0,0,1,.5.5A.5.5,0,0,1,24.468.5ZM21.531.5h-.979a.5.5,0,0,1-.5-.5.5.5,0,0,1,.5-.5h.979a.5.5,0,0,1,.5.5A.5.5,0,0,1,21.531.5ZM18.6.5h-.979a.5.5,0,0,1-.5-.5.5.5,0,0,1,.5-.5H18.6a.5.5,0,0,1,.5.5A.5.5,0,0,1,18.6.5ZM15.659.5h-.979a.5.5,0,0,1-.5-.5.5.5,0,0,1,.5-.5h.979a.5.5,0,0,1,.5.5A.5.5,0,0,1,15.659.5ZM12.723.5h-.979a.5.5,0,0,1-.5-.5.5.5,0,0,1,.5-.5h.979a.5.5,0,0,1,.5.5A.5.5,0,0,1,12.723.5ZM9.787.5H8.808a.5.5,0,0,1-.5-.5.5.5,0,0,1,.5-.5h.979a.5.5,0,0,1,.5.5A.5.5,0,0,1,9.787.5ZM6.851.5H5.872a.5.5,0,0,1-.5-.5.5.5,0,0,1,.5-.5h.979a.5.5,0,0,1,.5.5A.5.5,0,0,1,6.851.5ZM3.915.5H2.936a.5.5,0,0,1-.5-.5.5.5,0,0,1,.5-.5h.979a.5.5,0,0,1,.5.5A.5.5,0,0,1,3.915.5ZM.979.5H0A.5.5,0,0,1-.5,0,.5.5,0,0,1,0-.5H.979a.5.5,0,0,1,.5.5A.5.5,0,0,1,.979.5Z" transform="translate(3 40.8)"/>
          <path id="直线_582" data-name="直线 582" d="M.5.5H0A.5.5,0,0,1-.5,0,.5.5,0,0,1,0-.5H.5A.5.5,0,0,1,1,0,.5.5,0,0,1,.5.5Z" transform="translate(47 40.8)"/>
        </g>
      </g>
      <line id="直线_583" data-name="直线 583" x2="47" transform="translate(0.5 45.7)" fill="none"/>
      <path id="直线_584" data-name="直线 584" d="M2,.5H0A.5.5,0,0,1-.5,0,.5.5,0,0,1,0-.5H2a.5.5,0,0,1,.5.5A.5.5,0,0,1,2,.5Z" transform="translate(0.5 45.7)"/>
      <path id="直线_585" data-name="直线 585" d="M39.091.5H35.182a.5.5,0,0,1-.5-.5.5.5,0,0,1,.5-.5h3.909a.5.5,0,0,1,.5.5A.5.5,0,0,1,39.091.5ZM33.227.5H29.318a.5.5,0,0,1-.5-.5.5.5,0,0,1,.5-.5h3.909a.5.5,0,0,1,.5.5A.5.5,0,0,1,33.227.5ZM27.364.5H23.454a.5.5,0,0,1-.5-.5.5.5,0,0,1,.5-.5h3.909a.5.5,0,0,1,.5.5A.5.5,0,0,1,27.364.5ZM21.5.5H17.591a.5.5,0,0,1-.5-.5.5.5,0,0,1,.5-.5H21.5A.5.5,0,0,1,22,0,.5.5,0,0,1,21.5.5ZM15.636.5H11.727a.5.5,0,0,1-.5-.5.5.5,0,0,1,.5-.5h3.909a.5.5,0,0,1,.5.5A.5.5,0,0,1,15.636.5ZM9.773.5H5.864a.5.5,0,0,1-.5-.5.5.5,0,0,1,.5-.5H9.773a.5.5,0,0,1,.5.5A.5.5,0,0,1,9.773.5ZM3.909.5H0A.5.5,0,0,1-.5,0,.5.5,0,0,1,0-.5H3.909a.5.5,0,0,1,.5.5A.5.5,0,0,1,3.909.5Z" transform="translate(4.5 45.7)"/>
      <path id="直线_586" data-name="直线 586" d="M2,.5H0A.5.5,0,0,1-.5,0,.5.5,0,0,1,0-.5H2a.5.5,0,0,1,.5.5A.5.5,0,0,1,2,.5Z" transform="translate(45.5 45.7)"/>
    </g>
  </g>
</svg>
