<svg xmlns="http://www.w3.org/2000/svg" width="48" height="48" viewBox="0 0 48 48">
  <g id="砂混粘砂土" transform="translate(-5578 -56)">
    <path id="路径_3246" data-name="路径 3246" d="M0,0H48V48H0Z" transform="translate(5578 56)" fill="none"/>
    <g id="砂混粘砂土-2" data-name="砂混粘砂土" transform="translate(5578 56)">
      <g id="组_1097" data-name="组 1097">
        <line id="直线_587" data-name="直线 587" x2="47" transform="translate(0.5 2.3)" fill="none"/>
        <g id="组_1096" data-name="组 1096">
          <path id="直线_588" data-name="直线 588" d="M.5.5H0A.5.5,0,0,1-.5,0,.5.5,0,0,1,0-.5H.5A.5.5,0,0,1,1,0,.5.5,0,0,1,.5.5Z" transform="translate(0.5 2.3)"/>
          <path id="直线_589" data-name="直线 589" d="M42.084.5h-.979a.5.5,0,0,1-.5-.5.5.5,0,0,1,.5-.5h.979a.5.5,0,0,1,.5.5A.5.5,0,0,1,42.084.5ZM39.148.5h-.979a.5.5,0,0,1-.5-.5.5.5,0,0,1,.5-.5h.979a.5.5,0,0,1,.5.5A.5.5,0,0,1,39.148.5ZM36.212.5h-.979a.5.5,0,0,1-.5-.5.5.5,0,0,1,.5-.5h.979a.5.5,0,0,1,.5.5A.5.5,0,0,1,36.212.5ZM33.276.5H32.3a.5.5,0,0,1-.5-.5.5.5,0,0,1,.5-.5h.979a.5.5,0,0,1,.5.5A.5.5,0,0,1,33.276.5ZM30.34.5h-.979a.5.5,0,0,1-.5-.5.5.5,0,0,1,.5-.5h.979a.5.5,0,0,1,.5.5A.5.5,0,0,1,30.34.5ZM27.4.5h-.979a.5.5,0,0,1-.5-.5.5.5,0,0,1,.5-.5H27.4a.5.5,0,0,1,.5.5A.5.5,0,0,1,27.4.5ZM24.468.5h-.979a.5.5,0,0,1-.5-.5.5.5,0,0,1,.5-.5h.979a.5.5,0,0,1,.5.5A.5.5,0,0,1,24.468.5ZM21.531.5h-.979a.5.5,0,0,1-.5-.5.5.5,0,0,1,.5-.5h.979a.5.5,0,0,1,.5.5A.5.5,0,0,1,21.531.5ZM18.6.5h-.979a.5.5,0,0,1-.5-.5.5.5,0,0,1,.5-.5H18.6a.5.5,0,0,1,.5.5A.5.5,0,0,1,18.6.5ZM15.659.5h-.979a.5.5,0,0,1-.5-.5.5.5,0,0,1,.5-.5h.979a.5.5,0,0,1,.5.5A.5.5,0,0,1,15.659.5ZM12.723.5h-.979a.5.5,0,0,1-.5-.5.5.5,0,0,1,.5-.5h.979a.5.5,0,0,1,.5.5A.5.5,0,0,1,12.723.5ZM9.787.5H8.808a.5.5,0,0,1-.5-.5.5.5,0,0,1,.5-.5h.979a.5.5,0,0,1,.5.5A.5.5,0,0,1,9.787.5ZM6.851.5H5.872a.5.5,0,0,1-.5-.5.5.5,0,0,1,.5-.5h.979a.5.5,0,0,1,.5.5A.5.5,0,0,1,6.851.5ZM3.915.5H2.936a.5.5,0,0,1-.5-.5.5.5,0,0,1,.5-.5h.979a.5.5,0,0,1,.5.5A.5.5,0,0,1,3.915.5ZM.979.5H0A.5.5,0,0,1-.5,0,.5.5,0,0,1,0-.5H.979a.5.5,0,0,1,.5.5A.5.5,0,0,1,.979.5Z" transform="translate(3 2.3)"/>
          <path id="直线_590" data-name="直线 590" d="M.5.5H0A.5.5,0,0,1-.5,0,.5.5,0,0,1,0-.5H.5A.5.5,0,0,1,1,0,.5.5,0,0,1,.5.5Z" transform="translate(47 2.3)"/>
        </g>
      </g>
      <g id="组_1099" data-name="组 1099">
        <line id="直线_591" data-name="直线 591" x2="47" transform="translate(0.5 7.2)" fill="none"/>
        <g id="组_1098" data-name="组 1098">
          <path id="直线_592" data-name="直线 592" d="M2,.5H0A.5.5,0,0,1-.5,0,.5.5,0,0,1,0-.5H2a.5.5,0,0,1,.5.5A.5.5,0,0,1,2,.5Z" transform="translate(0.5 7.2)"/>
          <path id="直线_593" data-name="直线 593" d="M39.091.5H35.182a.5.5,0,0,1-.5-.5.5.5,0,0,1,.5-.5h3.909a.5.5,0,0,1,.5.5A.5.5,0,0,1,39.091.5ZM33.227.5H29.318a.5.5,0,0,1-.5-.5.5.5,0,0,1,.5-.5h3.909a.5.5,0,0,1,.5.5A.5.5,0,0,1,33.227.5ZM27.364.5H23.454a.5.5,0,0,1-.5-.5.5.5,0,0,1,.5-.5h3.909a.5.5,0,0,1,.5.5A.5.5,0,0,1,27.364.5ZM21.5.5H17.591a.5.5,0,0,1-.5-.5.5.5,0,0,1,.5-.5H21.5A.5.5,0,0,1,22,0,.5.5,0,0,1,21.5.5ZM15.636.5H11.727a.5.5,0,0,1-.5-.5.5.5,0,0,1,.5-.5h3.909a.5.5,0,0,1,.5.5A.5.5,0,0,1,15.636.5ZM9.773.5H5.864a.5.5,0,0,1-.5-.5.5.5,0,0,1,.5-.5H9.773a.5.5,0,0,1,.5.5A.5.5,0,0,1,9.773.5ZM3.909.5H0A.5.5,0,0,1-.5,0,.5.5,0,0,1,0-.5H3.909a.5.5,0,0,1,.5.5A.5.5,0,0,1,3.909.5Z" transform="translate(4.5 7.2)"/>
          <path id="直线_594" data-name="直线 594" d="M2,.5H0A.5.5,0,0,1-.5,0,.5.5,0,0,1,0-.5H2a.5.5,0,0,1,.5.5A.5.5,0,0,1,2,.5Z" transform="translate(45.5 7.2)"/>
        </g>
      </g>
      <g id="组_1101" data-name="组 1101">
        <line id="直线_595" data-name="直线 595" x2="47" transform="translate(0.5 12)" fill="none"/>
        <g id="组_1100" data-name="组 1100">
          <path id="直线_596" data-name="直线 596" d="M.5.5H0A.5.5,0,0,1-.5,0,.5.5,0,0,1,0-.5H.5A.5.5,0,0,1,1,0,.5.5,0,0,1,.5.5Z" transform="translate(0.5 12)"/>
          <path id="直线_597" data-name="直线 597" d="M42.084.5h-.979a.5.5,0,0,1-.5-.5.5.5,0,0,1,.5-.5h.979a.5.5,0,0,1,.5.5A.5.5,0,0,1,42.084.5ZM39.148.5h-.979a.5.5,0,0,1-.5-.5.5.5,0,0,1,.5-.5h.979a.5.5,0,0,1,.5.5A.5.5,0,0,1,39.148.5ZM36.212.5h-.979a.5.5,0,0,1-.5-.5.5.5,0,0,1,.5-.5h.979a.5.5,0,0,1,.5.5A.5.5,0,0,1,36.212.5ZM33.276.5H32.3a.5.5,0,0,1-.5-.5.5.5,0,0,1,.5-.5h.979a.5.5,0,0,1,.5.5A.5.5,0,0,1,33.276.5ZM30.34.5h-.979a.5.5,0,0,1-.5-.5.5.5,0,0,1,.5-.5h.979a.5.5,0,0,1,.5.5A.5.5,0,0,1,30.34.5ZM27.4.5h-.979a.5.5,0,0,1-.5-.5.5.5,0,0,1,.5-.5H27.4a.5.5,0,0,1,.5.5A.5.5,0,0,1,27.4.5ZM24.468.5h-.979a.5.5,0,0,1-.5-.5.5.5,0,0,1,.5-.5h.979a.5.5,0,0,1,.5.5A.5.5,0,0,1,24.468.5ZM21.531.5h-.979a.5.5,0,0,1-.5-.5.5.5,0,0,1,.5-.5h.979a.5.5,0,0,1,.5.5A.5.5,0,0,1,21.531.5ZM18.6.5h-.979a.5.5,0,0,1-.5-.5.5.5,0,0,1,.5-.5H18.6a.5.5,0,0,1,.5.5A.5.5,0,0,1,18.6.5ZM15.659.5h-.979a.5.5,0,0,1-.5-.5.5.5,0,0,1,.5-.5h.979a.5.5,0,0,1,.5.5A.5.5,0,0,1,15.659.5ZM12.723.5h-.979a.5.5,0,0,1-.5-.5.5.5,0,0,1,.5-.5h.979a.5.5,0,0,1,.5.5A.5.5,0,0,1,12.723.5ZM9.787.5H8.808a.5.5,0,0,1-.5-.5.5.5,0,0,1,.5-.5h.979a.5.5,0,0,1,.5.5A.5.5,0,0,1,9.787.5ZM6.851.5H5.872a.5.5,0,0,1-.5-.5.5.5,0,0,1,.5-.5h.979a.5.5,0,0,1,.5.5A.5.5,0,0,1,6.851.5ZM3.915.5H2.936a.5.5,0,0,1-.5-.5.5.5,0,0,1,.5-.5h.979a.5.5,0,0,1,.5.5A.5.5,0,0,1,3.915.5ZM.979.5H0A.5.5,0,0,1-.5,0,.5.5,0,0,1,0-.5H.979a.5.5,0,0,1,.5.5A.5.5,0,0,1,.979.5Z" transform="translate(3 12)"/>
          <path id="直线_598" data-name="直线 598" d="M.5.5H0A.5.5,0,0,1-.5,0,.5.5,0,0,1,0-.5H.5A.5.5,0,0,1,1,0,.5.5,0,0,1,.5.5Z" transform="translate(47 12)"/>
        </g>
      </g>
      <g id="组_1103" data-name="组 1103">
        <line id="直线_599" data-name="直线 599" x2="47" transform="translate(0.5 16.8)" fill="none"/>
        <g id="组_1102" data-name="组 1102">
          <path id="直线_600" data-name="直线 600" d="M2,.5H0A.5.5,0,0,1-.5,0,.5.5,0,0,1,0-.5H2a.5.5,0,0,1,.5.5A.5.5,0,0,1,2,.5Z" transform="translate(0.5 16.8)"/>
          <path id="直线_601" data-name="直线 601" d="M39.091.5H35.182a.5.5,0,0,1-.5-.5.5.5,0,0,1,.5-.5h3.909a.5.5,0,0,1,.5.5A.5.5,0,0,1,39.091.5ZM33.227.5H29.318a.5.5,0,0,1-.5-.5.5.5,0,0,1,.5-.5h3.909a.5.5,0,0,1,.5.5A.5.5,0,0,1,33.227.5ZM27.364.5H23.454a.5.5,0,0,1-.5-.5.5.5,0,0,1,.5-.5h3.909a.5.5,0,0,1,.5.5A.5.5,0,0,1,27.364.5ZM21.5.5H17.591a.5.5,0,0,1-.5-.5.5.5,0,0,1,.5-.5H21.5A.5.5,0,0,1,22,0,.5.5,0,0,1,21.5.5ZM15.636.5H11.727a.5.5,0,0,1-.5-.5.5.5,0,0,1,.5-.5h3.909a.5.5,0,0,1,.5.5A.5.5,0,0,1,15.636.5ZM9.773.5H5.864a.5.5,0,0,1-.5-.5.5.5,0,0,1,.5-.5H9.773a.5.5,0,0,1,.5.5A.5.5,0,0,1,9.773.5ZM3.909.5H0A.5.5,0,0,1-.5,0,.5.5,0,0,1,0-.5H3.909a.5.5,0,0,1,.5.5A.5.5,0,0,1,3.909.5Z" transform="translate(4.5 16.8)"/>
          <path id="直线_602" data-name="直线 602" d="M2,.5H0A.5.5,0,0,1-.5,0,.5.5,0,0,1,0-.5H2a.5.5,0,0,1,.5.5A.5.5,0,0,1,2,.5Z" transform="translate(45.5 16.8)"/>
        </g>
      </g>
      <g id="组_1105" data-name="组 1105">
        <line id="直线_603" data-name="直线 603" x2="47" transform="translate(0.5 21.6)" fill="none"/>
        <g id="组_1104" data-name="组 1104">
          <path id="直线_604" data-name="直线 604" d="M.5.5H0A.5.5,0,0,1-.5,0,.5.5,0,0,1,0-.5H.5A.5.5,0,0,1,1,0,.5.5,0,0,1,.5.5Z" transform="translate(0.5 21.6)"/>
          <path id="直线_605" data-name="直线 605" d="M42.084.5h-.979a.5.5,0,0,1-.5-.5.5.5,0,0,1,.5-.5h.979a.5.5,0,0,1,.5.5A.5.5,0,0,1,42.084.5ZM39.148.5h-.979a.5.5,0,0,1-.5-.5.5.5,0,0,1,.5-.5h.979a.5.5,0,0,1,.5.5A.5.5,0,0,1,39.148.5ZM36.212.5h-.979a.5.5,0,0,1-.5-.5.5.5,0,0,1,.5-.5h.979a.5.5,0,0,1,.5.5A.5.5,0,0,1,36.212.5ZM33.276.5H32.3a.5.5,0,0,1-.5-.5.5.5,0,0,1,.5-.5h.979a.5.5,0,0,1,.5.5A.5.5,0,0,1,33.276.5ZM30.34.5h-.979a.5.5,0,0,1-.5-.5.5.5,0,0,1,.5-.5h.979a.5.5,0,0,1,.5.5A.5.5,0,0,1,30.34.5ZM27.4.5h-.979a.5.5,0,0,1-.5-.5.5.5,0,0,1,.5-.5H27.4a.5.5,0,0,1,.5.5A.5.5,0,0,1,27.4.5ZM24.468.5h-.979a.5.5,0,0,1-.5-.5.5.5,0,0,1,.5-.5h.979a.5.5,0,0,1,.5.5A.5.5,0,0,1,24.468.5ZM21.531.5h-.979a.5.5,0,0,1-.5-.5.5.5,0,0,1,.5-.5h.979a.5.5,0,0,1,.5.5A.5.5,0,0,1,21.531.5ZM18.6.5h-.979a.5.5,0,0,1-.5-.5.5.5,0,0,1,.5-.5H18.6a.5.5,0,0,1,.5.5A.5.5,0,0,1,18.6.5ZM15.659.5h-.979a.5.5,0,0,1-.5-.5.5.5,0,0,1,.5-.5h.979a.5.5,0,0,1,.5.5A.5.5,0,0,1,15.659.5ZM12.723.5h-.979a.5.5,0,0,1-.5-.5.5.5,0,0,1,.5-.5h.979a.5.5,0,0,1,.5.5A.5.5,0,0,1,12.723.5ZM9.787.5H8.808a.5.5,0,0,1-.5-.5.5.5,0,0,1,.5-.5h.979a.5.5,0,0,1,.5.5A.5.5,0,0,1,9.787.5ZM6.851.5H5.872a.5.5,0,0,1-.5-.5.5.5,0,0,1,.5-.5h.979a.5.5,0,0,1,.5.5A.5.5,0,0,1,6.851.5ZM3.915.5H2.936a.5.5,0,0,1-.5-.5.5.5,0,0,1,.5-.5h.979a.5.5,0,0,1,.5.5A.5.5,0,0,1,3.915.5ZM.979.5H0A.5.5,0,0,1-.5,0,.5.5,0,0,1,0-.5H.979a.5.5,0,0,1,.5.5A.5.5,0,0,1,.979.5Z" transform="translate(3 21.6)"/>
          <path id="直线_606" data-name="直线 606" d="M.5.5H0A.5.5,0,0,1-.5,0,.5.5,0,0,1,0-.5H.5A.5.5,0,0,1,1,0,.5.5,0,0,1,.5.5Z" transform="translate(47 21.6)"/>
        </g>
      </g>
      <g id="组_1107" data-name="组 1107">
        <line id="直线_607" data-name="直线 607" x2="47" transform="translate(0.5 26.4)" fill="none"/>
        <g id="组_1106" data-name="组 1106">
          <path id="直线_608" data-name="直线 608" d="M2,.5H0A.5.5,0,0,1-.5,0,.5.5,0,0,1,0-.5H2a.5.5,0,0,1,.5.5A.5.5,0,0,1,2,.5Z" transform="translate(0.5 26.4)"/>
          <path id="直线_609" data-name="直线 609" d="M39.091.5H35.182a.5.5,0,0,1-.5-.5.5.5,0,0,1,.5-.5h3.909a.5.5,0,0,1,.5.5A.5.5,0,0,1,39.091.5ZM33.227.5H29.318a.5.5,0,0,1-.5-.5.5.5,0,0,1,.5-.5h3.909a.5.5,0,0,1,.5.5A.5.5,0,0,1,33.227.5ZM27.364.5H23.454a.5.5,0,0,1-.5-.5.5.5,0,0,1,.5-.5h3.909a.5.5,0,0,1,.5.5A.5.5,0,0,1,27.364.5ZM21.5.5H17.591a.5.5,0,0,1-.5-.5.5.5,0,0,1,.5-.5H21.5A.5.5,0,0,1,22,0,.5.5,0,0,1,21.5.5ZM15.636.5H11.727a.5.5,0,0,1-.5-.5.5.5,0,0,1,.5-.5h3.909a.5.5,0,0,1,.5.5A.5.5,0,0,1,15.636.5ZM9.773.5H5.864a.5.5,0,0,1-.5-.5.5.5,0,0,1,.5-.5H9.773a.5.5,0,0,1,.5.5A.5.5,0,0,1,9.773.5ZM3.909.5H0A.5.5,0,0,1-.5,0,.5.5,0,0,1,0-.5H3.909a.5.5,0,0,1,.5.5A.5.5,0,0,1,3.909.5Z" transform="translate(4.5 26.4)"/>
          <path id="直线_610" data-name="直线 610" d="M2,.5H0A.5.5,0,0,1-.5,0,.5.5,0,0,1,0-.5H2a.5.5,0,0,1,.5.5A.5.5,0,0,1,2,.5Z" transform="translate(45.5 26.4)"/>
        </g>
      </g>
      <g id="组_1109" data-name="组 1109">
        <line id="直线_611" data-name="直线 611" x2="47" transform="translate(0.5 31.2)" fill="none"/>
        <g id="组_1108" data-name="组 1108">
          <path id="直线_612" data-name="直线 612" d="M.5.5H0A.5.5,0,0,1-.5,0,.5.5,0,0,1,0-.5H.5A.5.5,0,0,1,1,0,.5.5,0,0,1,.5.5Z" transform="translate(0.5 31.2)"/>
          <path id="直线_613" data-name="直线 613" d="M42.084.5h-.979a.5.5,0,0,1-.5-.5.5.5,0,0,1,.5-.5h.979a.5.5,0,0,1,.5.5A.5.5,0,0,1,42.084.5ZM39.148.5h-.979a.5.5,0,0,1-.5-.5.5.5,0,0,1,.5-.5h.979a.5.5,0,0,1,.5.5A.5.5,0,0,1,39.148.5ZM36.212.5h-.979a.5.5,0,0,1-.5-.5.5.5,0,0,1,.5-.5h.979a.5.5,0,0,1,.5.5A.5.5,0,0,1,36.212.5ZM33.276.5H32.3a.5.5,0,0,1-.5-.5.5.5,0,0,1,.5-.5h.979a.5.5,0,0,1,.5.5A.5.5,0,0,1,33.276.5ZM30.34.5h-.979a.5.5,0,0,1-.5-.5.5.5,0,0,1,.5-.5h.979a.5.5,0,0,1,.5.5A.5.5,0,0,1,30.34.5ZM27.4.5h-.979a.5.5,0,0,1-.5-.5.5.5,0,0,1,.5-.5H27.4a.5.5,0,0,1,.5.5A.5.5,0,0,1,27.4.5ZM24.468.5h-.979a.5.5,0,0,1-.5-.5.5.5,0,0,1,.5-.5h.979a.5.5,0,0,1,.5.5A.5.5,0,0,1,24.468.5ZM21.531.5h-.979a.5.5,0,0,1-.5-.5.5.5,0,0,1,.5-.5h.979a.5.5,0,0,1,.5.5A.5.5,0,0,1,21.531.5ZM18.6.5h-.979a.5.5,0,0,1-.5-.5.5.5,0,0,1,.5-.5H18.6a.5.5,0,0,1,.5.5A.5.5,0,0,1,18.6.5ZM15.659.5h-.979a.5.5,0,0,1-.5-.5.5.5,0,0,1,.5-.5h.979a.5.5,0,0,1,.5.5A.5.5,0,0,1,15.659.5ZM12.723.5h-.979a.5.5,0,0,1-.5-.5.5.5,0,0,1,.5-.5h.979a.5.5,0,0,1,.5.5A.5.5,0,0,1,12.723.5ZM9.787.5H8.808a.5.5,0,0,1-.5-.5.5.5,0,0,1,.5-.5h.979a.5.5,0,0,1,.5.5A.5.5,0,0,1,9.787.5ZM6.851.5H5.872a.5.5,0,0,1-.5-.5.5.5,0,0,1,.5-.5h.979a.5.5,0,0,1,.5.5A.5.5,0,0,1,6.851.5ZM3.915.5H2.936a.5.5,0,0,1-.5-.5.5.5,0,0,1,.5-.5h.979a.5.5,0,0,1,.5.5A.5.5,0,0,1,3.915.5ZM.979.5H0A.5.5,0,0,1-.5,0,.5.5,0,0,1,0-.5H.979a.5.5,0,0,1,.5.5A.5.5,0,0,1,.979.5Z" transform="translate(3 31.2)"/>
          <path id="直线_614" data-name="直线 614" d="M.5.5H0A.5.5,0,0,1-.5,0,.5.5,0,0,1,0-.5H.5A.5.5,0,0,1,1,0,.5.5,0,0,1,.5.5Z" transform="translate(47 31.2)"/>
        </g>
      </g>
      <g id="组_1111" data-name="组 1111">
        <line id="直线_615" data-name="直线 615" x2="47" transform="translate(0.5 36)" fill="none"/>
        <g id="组_1110" data-name="组 1110">
          <path id="直线_616" data-name="直线 616" d="M2,.5H0A.5.5,0,0,1-.5,0,.5.5,0,0,1,0-.5H2a.5.5,0,0,1,.5.5A.5.5,0,0,1,2,.5Z" transform="translate(0.5 36)"/>
          <path id="直线_617" data-name="直线 617" d="M39.091.5H35.182a.5.5,0,0,1-.5-.5.5.5,0,0,1,.5-.5h3.909a.5.5,0,0,1,.5.5A.5.5,0,0,1,39.091.5ZM33.227.5H29.318a.5.5,0,0,1-.5-.5.5.5,0,0,1,.5-.5h3.909a.5.5,0,0,1,.5.5A.5.5,0,0,1,33.227.5ZM27.364.5H23.454a.5.5,0,0,1-.5-.5.5.5,0,0,1,.5-.5h3.909a.5.5,0,0,1,.5.5A.5.5,0,0,1,27.364.5ZM21.5.5H17.591a.5.5,0,0,1-.5-.5.5.5,0,0,1,.5-.5H21.5A.5.5,0,0,1,22,0,.5.5,0,0,1,21.5.5ZM15.636.5H11.727a.5.5,0,0,1-.5-.5.5.5,0,0,1,.5-.5h3.909a.5.5,0,0,1,.5.5A.5.5,0,0,1,15.636.5ZM9.773.5H5.864a.5.5,0,0,1-.5-.5.5.5,0,0,1,.5-.5H9.773a.5.5,0,0,1,.5.5A.5.5,0,0,1,9.773.5ZM3.909.5H0A.5.5,0,0,1-.5,0,.5.5,0,0,1,0-.5H3.909a.5.5,0,0,1,.5.5A.5.5,0,0,1,3.909.5Z" transform="translate(4.5 36)"/>
          <path id="直线_618" data-name="直线 618" d="M2,.5H0A.5.5,0,0,1-.5,0,.5.5,0,0,1,0-.5H2a.5.5,0,0,1,.5.5A.5.5,0,0,1,2,.5Z" transform="translate(45.5 36)"/>
        </g>
      </g>
      <g id="组_1113" data-name="组 1113">
        <line id="直线_619" data-name="直线 619" x2="47" transform="translate(0.5 40.8)" fill="none"/>
        <g id="组_1112" data-name="组 1112">
          <path id="直线_620" data-name="直线 620" d="M.5.5H0A.5.5,0,0,1-.5,0,.5.5,0,0,1,0-.5H.5A.5.5,0,0,1,1,0,.5.5,0,0,1,.5.5Z" transform="translate(0.5 40.8)"/>
          <path id="直线_621" data-name="直线 621" d="M42.084.5h-.979a.5.5,0,0,1-.5-.5.5.5,0,0,1,.5-.5h.979a.5.5,0,0,1,.5.5A.5.5,0,0,1,42.084.5ZM39.148.5h-.979a.5.5,0,0,1-.5-.5.5.5,0,0,1,.5-.5h.979a.5.5,0,0,1,.5.5A.5.5,0,0,1,39.148.5ZM36.212.5h-.979a.5.5,0,0,1-.5-.5.5.5,0,0,1,.5-.5h.979a.5.5,0,0,1,.5.5A.5.5,0,0,1,36.212.5ZM33.276.5H32.3a.5.5,0,0,1-.5-.5.5.5,0,0,1,.5-.5h.979a.5.5,0,0,1,.5.5A.5.5,0,0,1,33.276.5ZM30.34.5h-.979a.5.5,0,0,1-.5-.5.5.5,0,0,1,.5-.5h.979a.5.5,0,0,1,.5.5A.5.5,0,0,1,30.34.5ZM27.4.5h-.979a.5.5,0,0,1-.5-.5.5.5,0,0,1,.5-.5H27.4a.5.5,0,0,1,.5.5A.5.5,0,0,1,27.4.5ZM24.468.5h-.979a.5.5,0,0,1-.5-.5.5.5,0,0,1,.5-.5h.979a.5.5,0,0,1,.5.5A.5.5,0,0,1,24.468.5ZM21.531.5h-.979a.5.5,0,0,1-.5-.5.5.5,0,0,1,.5-.5h.979a.5.5,0,0,1,.5.5A.5.5,0,0,1,21.531.5ZM18.6.5h-.979a.5.5,0,0,1-.5-.5.5.5,0,0,1,.5-.5H18.6a.5.5,0,0,1,.5.5A.5.5,0,0,1,18.6.5ZM15.659.5h-.979a.5.5,0,0,1-.5-.5.5.5,0,0,1,.5-.5h.979a.5.5,0,0,1,.5.5A.5.5,0,0,1,15.659.5ZM12.723.5h-.979a.5.5,0,0,1-.5-.5.5.5,0,0,1,.5-.5h.979a.5.5,0,0,1,.5.5A.5.5,0,0,1,12.723.5ZM9.787.5H8.808a.5.5,0,0,1-.5-.5.5.5,0,0,1,.5-.5h.979a.5.5,0,0,1,.5.5A.5.5,0,0,1,9.787.5ZM6.851.5H5.872a.5.5,0,0,1-.5-.5.5.5,0,0,1,.5-.5h.979a.5.5,0,0,1,.5.5A.5.5,0,0,1,6.851.5ZM3.915.5H2.936a.5.5,0,0,1-.5-.5.5.5,0,0,1,.5-.5h.979a.5.5,0,0,1,.5.5A.5.5,0,0,1,3.915.5ZM.979.5H0A.5.5,0,0,1-.5,0,.5.5,0,0,1,0-.5H.979a.5.5,0,0,1,.5.5A.5.5,0,0,1,.979.5Z" transform="translate(3 40.8)"/>
          <path id="直线_622" data-name="直线 622" d="M.5.5H0A.5.5,0,0,1-.5,0,.5.5,0,0,1,0-.5H.5A.5.5,0,0,1,1,0,.5.5,0,0,1,.5.5Z" transform="translate(47 40.8)"/>
        </g>
      </g>
      <line id="直线_623" data-name="直线 623" x2="47" transform="translate(0.5 45.7)" fill="none"/>
      <path id="直线_624" data-name="直线 624" d="M2,.5H0A.5.5,0,0,1-.5,0,.5.5,0,0,1,0-.5H2a.5.5,0,0,1,.5.5A.5.5,0,0,1,2,.5Z" transform="translate(0.5 45.7)"/>
      <path id="直线_625" data-name="直线 625" d="M39.091.5H35.182a.5.5,0,0,1-.5-.5.5.5,0,0,1,.5-.5h3.909a.5.5,0,0,1,.5.5A.5.5,0,0,1,39.091.5ZM33.227.5H29.318a.5.5,0,0,1-.5-.5.5.5,0,0,1,.5-.5h3.909a.5.5,0,0,1,.5.5A.5.5,0,0,1,33.227.5ZM27.364.5H23.454a.5.5,0,0,1-.5-.5.5.5,0,0,1,.5-.5h3.909a.5.5,0,0,1,.5.5A.5.5,0,0,1,27.364.5ZM21.5.5H17.591a.5.5,0,0,1-.5-.5.5.5,0,0,1,.5-.5H21.5A.5.5,0,0,1,22,0,.5.5,0,0,1,21.5.5ZM15.636.5H11.727a.5.5,0,0,1-.5-.5.5.5,0,0,1,.5-.5h3.909a.5.5,0,0,1,.5.5A.5.5,0,0,1,15.636.5ZM9.773.5H5.864a.5.5,0,0,1-.5-.5.5.5,0,0,1,.5-.5H9.773a.5.5,0,0,1,.5.5A.5.5,0,0,1,9.773.5ZM3.909.5H0A.5.5,0,0,1-.5,0,.5.5,0,0,1,0-.5H3.909a.5.5,0,0,1,.5.5A.5.5,0,0,1,3.909.5Z" transform="translate(4.5 45.7)"/>
      <path id="直线_626" data-name="直线 626" d="M2,.5H0A.5.5,0,0,1-.5,0,.5.5,0,0,1,0-.5H2a.5.5,0,0,1,.5.5A.5.5,0,0,1,2,.5Z" transform="translate(45.5 45.7)"/>
    </g>
  </g>
</svg>
