<svg xmlns="http://www.w3.org/2000/svg" width="48" height="48" viewBox="0 0 48 48">
  <g id="砂砾" transform="translate(-5635 -56)">
    <path id="路径_3247" data-name="路径 3247" d="M0,0H48V48H0Z" transform="translate(5635 56)" fill="none"/>
    <g id="砂砾-2" data-name="砂砾" transform="translate(5635.941 56.627)">
      <path id="矩形_6" data-name="矩形 6" d="M-.5-.5h47v31H-.5Zm46,1H.5v29h45Z" transform="translate(0.059 8.373)"/>
      <path id="直线_627" data-name="直线 627" d="M.5,2.114h-1V0h1Z" transform="translate(15.277 9.345)"/>
      <path id="直线_628" data-name="直线 628" d="M.5,2.114h-1V0h1Z" transform="translate(31.322 9.345)"/>
      <path id="直线_629" data-name="直线 629" d="M.5,2.018h-1V0h1Z" transform="translate(3.459 14.053)"/>
      <path id="直线_630" data-name="直线 630" d="M.5,2.018h-1V0h1Z" transform="translate(19.504 14.053)"/>
      <path id="直线_631" data-name="直线 631" d="M.5,2.018h-1V0h1Z" transform="translate(35.453 14.053)"/>
      <path id="直线_632" data-name="直线 632" d="M.5,2.018h-1V0h1Z" transform="translate(43.044 23.757)"/>
      <path id="直线_633" data-name="直线 633" d="M.5,2.114h-1V0h1Z" transform="translate(7.302 18.665)"/>
      <path id="直线_634" data-name="直线 634" d="M.5,2.114h-1V0h1Z" transform="translate(23.347 18.665)"/>
      <path id="直线_635" data-name="直线 635" d="M.5,2.114h-1V0h1Z" transform="translate(39.297 18.665)"/>
      <path id="直线_636" data-name="直线 636" d="M.5,2.018h-1V0h1Z" transform="translate(11.433 23.757)"/>
      <path id="直线_637" data-name="直线 637" d="M.5,2.018h-1V0h1Z" transform="translate(27.479 23.757)"/>
      <path id="直线_638" data-name="直线 638" d="M.5,2.114h-1V0h1Z" transform="translate(15.277 27.6)"/>
      <path id="直线_639" data-name="直线 639" d="M.5,2.114h-1V0h1Z" transform="translate(31.322 27.6)"/>
      <path id="直线_640" data-name="直线 640" d="M.5,2.114h-1V0h1Z" transform="translate(3.459 31.443)"/>
      <path id="直线_641" data-name="直线 641" d="M.5,2.114h-1V0h1Z" transform="translate(19.504 31.443)"/>
      <path id="直线_642" data-name="直线 642" d="M.5,2.114h-1V0h1Z" transform="translate(35.453 31.443)"/>
      <path id="直线_643" data-name="直线 643" d="M.5,2.114h-1V0h1Z" transform="translate(7.302 35.287)"/>
      <path id="直线_644" data-name="直线 644" d="M.5,2.114h-1V0h1Z" transform="translate(23.347 35.287)"/>
      <path id="直线_645" data-name="直线 645" d="M.5,2.114h-1V0h1Z" transform="translate(39.297 35.287)"/>
      <g id="组_1114" data-name="组 1114" transform="translate(20.561 19.241)">
        <path id="路径_2031" data-name="路径 2031" d="M21.4,27.963V19.7h1.057v8.263Z" transform="translate(-21.4 -19.7)" fill="#b466a6"/>
        <path id="路径_2031_-_轮廓" data-name="路径 2031 - 轮廓" d="M22.6,28.1h-1.34V19.558H22.6Zm-1.057-.284h.773V19.842h-.773Z" transform="translate(-21.4 -19.7)" fill="#b466a6"/>
        <path id="路径_2032" data-name="路径 2032" d="M23.4,26.32l.961-.192a1.831,1.831,0,0,0,.48.961c.288.288.576.288,1.057.288a1.726,1.726,0,0,0,1.057-.288.725.725,0,0,0,.384-.673.83.83,0,0,0-.288-.576,5.128,5.128,0,0,0-1.057-.384,15.91,15.91,0,0,1-1.537-.48,1.292,1.292,0,0,1-.673-.576,1.155,1.155,0,0,1-.192-.769,2.261,2.261,0,0,1,.192-.769c.1-.288.288-.384.48-.576A4.684,4.684,0,0,1,24.937,22a2.66,2.66,0,0,1,.865-.1,4.868,4.868,0,0,1,1.249.192,1.193,1.193,0,0,1,.769.576,2.877,2.877,0,0,1,.384.961l-.961.1a1.186,1.186,0,0,0-.384-.769,1.275,1.275,0,0,0-.961-.288,2.067,2.067,0,0,0-.961.192.753.753,0,0,0-.192.961,1.326,1.326,0,0,0,.384.288,4.014,4.014,0,0,1,.865.288c.673.192,1.249.384,1.537.48a1.292,1.292,0,0,1,.673.576,1.341,1.341,0,0,1,.288.865,1.623,1.623,0,0,1-.288.961,1.533,1.533,0,0,1-.865.673,4.767,4.767,0,0,1-1.249.288,2.853,2.853,0,0,1-1.729-.48A2.574,2.574,0,0,1,23.4,26.32Z" transform="translate(-21.478 -19.786)" fill="#b466a6"/>
        <path id="路径_2032_-_轮廓" data-name="路径 2032 - 轮廓" d="M26.09,28.383a3.007,3.007,0,0,1-1.814-.509,2.724,2.724,0,0,1-1.016-1.531l-.023-.135,1.228-.246.033.131a1.7,1.7,0,0,0,.443.895c.247.247.484.247.957.247a1.587,1.587,0,0,0,.978-.264.59.59,0,0,0,.321-.555.7.7,0,0,0-.247-.476,2.869,2.869,0,0,0-.564-.209c-.128-.04-.273-.086-.433-.14a13.694,13.694,0,0,1-1.331-.409l-.211-.074a1.453,1.453,0,0,1-.746-.632,1.3,1.3,0,0,1-.216-.847,1.778,1.778,0,0,1,.141-.647c.019-.053.039-.108.058-.167a1.086,1.086,0,0,1,.375-.5c.046-.04.094-.082.14-.128l.016-.016.021-.01a4.826,4.826,0,0,1,.691-.3,2.784,2.784,0,0,1,.91-.1,5.008,5.008,0,0,1,1.283.2,1.325,1.325,0,0,1,.852.635,3.018,3.018,0,0,1,.4,1.005l.04.159-1.28.128v-.157a1.035,1.035,0,0,0-.343-.668,1.157,1.157,0,0,0-.861-.247,1.983,1.983,0,0,0-.9.177c-.052.026-.21.1-.21.45,0,.063,0,.23.055.284a1.19,1.19,0,0,0,.323.249,4.221,4.221,0,0,1,.872.293c.673.192,1.256.387,1.536.48a1.453,1.453,0,0,1,.746.632,1.468,1.468,0,0,1,.312.943,1.77,1.77,0,0,1-.312,1.039,1.679,1.679,0,0,1-.948.731c-.111.028-.222.064-.34.1A2.98,2.98,0,0,1,26.09,28.383ZM23.569,26.43a2.531,2.531,0,0,0,.876,1.217,2.769,2.769,0,0,0,2.5.276c.117-.038.238-.078.359-.108a1.4,1.4,0,0,0,.781-.614,1.483,1.483,0,0,0,.264-.882,1.2,1.2,0,0,0-.264-.786,1.151,1.151,0,0,0-.6-.521c-.28-.093-.862-.287-1.531-.479l-.014,0a3.7,3.7,0,0,0-.812-.278H25.1l-.03-.015a1.471,1.471,0,0,1-.421-.315.692.692,0,0,1-.138-.485.714.714,0,0,1,.367-.7,2.256,2.256,0,0,1,1.024-.207,1.4,1.4,0,0,1,1.061.33,1.474,1.474,0,0,1,.411.714l.655-.065a2.451,2.451,0,0,0-.323-.758,1.048,1.048,0,0,0-.685-.518,4.712,4.712,0,0,0-1.215-.188,2.528,2.528,0,0,0-.82.089,4.426,4.426,0,0,0-.634.27c-.047.046-.093.086-.138.125a.821.821,0,0,0-.292.38c-.02.061-.041.118-.06.173a1.535,1.535,0,0,0-.125.551,1.018,1.018,0,0,0,.168.69,1.151,1.151,0,0,0,.6.521l.216.075a13.252,13.252,0,0,0,1.311.4l.01,0c.16.053.305.1.434.14a1.934,1.934,0,0,1,.679.279.968.968,0,0,1,.33.677.862.862,0,0,1-.447.791,1.883,1.883,0,0,1-1.136.312,1.394,1.394,0,0,1-1.157-.33,1.846,1.846,0,0,1-.484-.9Z" transform="translate(-21.478 -19.786)" fill="#b466a6"/>
      </g>
      <path id="椭圆_34" data-name="椭圆 34" d="M1.153-.283A1.436,1.436,0,1,1-.283,1.153,1.438,1.438,0,0,1,1.153-.283Zm0,2.306a.869.869,0,1,0-.869-.869A.87.87,0,0,0,1.153,2.022Z" transform="translate(6.149 9.345)"/>
      <path id="椭圆_35" data-name="椭圆 35" d="M1.153-.283A1.436,1.436,0,1,1-.283,1.153,1.438,1.438,0,0,1,1.153-.283Zm0,2.306a.869.869,0,1,0-.869-.869A.87.87,0,0,0,1.153,2.022Z" transform="translate(10.281 13.957)"/>
      <path id="椭圆_36" data-name="椭圆 36" d="M1.153-.283A1.436,1.436,0,1,1-.283,1.153,1.438,1.438,0,0,1,1.153-.283Zm0,2.306a.869.869,0,1,0-.869-.869A.87.87,0,0,0,1.153,2.022Z" transform="translate(1.153 20.779)"/>
      <path id="椭圆_37" data-name="椭圆 37" d="M1.153-.283A1.436,1.436,0,1,1-.283,1.153,1.438,1.438,0,0,1,1.153-.283Zm0,2.306a.869.869,0,1,0-.869-.869A.87.87,0,0,0,1.153,2.022Z" transform="translate(4.996 25.39)"/>
      <path id="椭圆_38" data-name="椭圆 38" d="M1.153-.283A1.436,1.436,0,1,1-.283,1.153,1.438,1.438,0,0,1,1.153-.283Zm0,2.306a.869.869,0,1,0-.869-.869A.87.87,0,0,0,1.153,2.022Z" transform="translate(8.743 29.714)"/>
      <path id="椭圆_39" data-name="椭圆 39" d="M1.153-.283A1.436,1.436,0,1,1-.283,1.153,1.438,1.438,0,0,1,1.153-.283Zm0,2.306a.869.869,0,1,0-.869-.869A.87.87,0,0,0,1.153,2.022Z" transform="translate(12.586 34.038)"/>
      <path id="椭圆_40" data-name="椭圆 40" d="M1.153-.283A1.436,1.436,0,1,1-.283,1.153,1.438,1.438,0,0,1,1.153-.283Zm0,2.306a.869.869,0,1,0-.869-.869A.87.87,0,0,0,1.153,2.022Z" transform="translate(14.124 18.569)"/>
      <path id="椭圆_41" data-name="椭圆 41" d="M1.153-.283A1.436,1.436,0,1,1-.283,1.153,1.438,1.438,0,0,1,1.153-.283Zm0,2.306a.869.869,0,1,0-.869-.869A.87.87,0,0,0,1.153,2.022Z" transform="translate(18.351 23.565)"/>
      <path id="椭圆_42" data-name="椭圆 42" d="M1.153-.283A1.436,1.436,0,1,1-.283,1.153,1.438,1.438,0,0,1,1.153-.283Zm0,2.306a.869.869,0,1,0-.869-.869A.87.87,0,0,0,1.153,2.022Z" transform="translate(22.194 27.504)"/>
      <path id="椭圆_43" data-name="椭圆 43" d="M1.153-.283A1.436,1.436,0,1,1-.283,1.153,1.438,1.438,0,0,1,1.153-.283Zm0,2.306a.869.869,0,1,0-.869-.869A.87.87,0,0,0,1.153,2.022Z" transform="translate(26.326 31.347)"/>
      <path id="椭圆_44" data-name="椭圆 44" d="M1.153-.283A1.436,1.436,0,1,1-.283,1.153,1.438,1.438,0,0,1,1.153-.283Zm0,2.306a.869.869,0,1,0-.869-.869A.87.87,0,0,0,1.153,2.022Z" transform="translate(30.169 35.19)"/>
      <path id="椭圆_45" data-name="椭圆 45" d="M1.153-.283A1.436,1.436,0,1,1-.283,1.153,1.438,1.438,0,0,1,1.153-.283Zm0,2.306a.869.869,0,1,0-.869-.869A.87.87,0,0,0,1.153,2.022Z" transform="translate(22.194 9.345)"/>
      <path id="椭圆_46" data-name="椭圆 46" d="M1.153-.283A1.436,1.436,0,1,1-.283,1.153,1.438,1.438,0,0,1,1.153-.283Zm0,2.306a.869.869,0,1,0-.869-.869A.87.87,0,0,0,1.153,2.022Z" transform="translate(26.326 13.957)"/>
      <path id="椭圆_47" data-name="椭圆 47" d="M1.153-.283A1.436,1.436,0,1,1-.283,1.153,1.438,1.438,0,0,1,1.153-.283Zm0,2.306a.869.869,0,1,0-.869-.869A.87.87,0,0,0,1.153,2.022Z" transform="translate(30.169 18.569)"/>
      <path id="椭圆_48" data-name="椭圆 48" d="M1.153-.283A1.436,1.436,0,1,1-.283,1.153,1.438,1.438,0,0,1,1.153-.283Zm0,2.306a.869.869,0,1,0-.869-.869A.87.87,0,0,0,1.153,2.022Z" transform="translate(34.3 23.565)"/>
      <path id="椭圆_49" data-name="椭圆 49" d="M1.153-.283A1.436,1.436,0,1,1-.283,1.153,1.438,1.438,0,0,1,1.153-.283Zm0,2.306a.869.869,0,1,0-.869-.869A.87.87,0,0,0,1.153,2.022Z" transform="translate(38.144 27.504)"/>
      <path id="椭圆_50" data-name="椭圆 50" d="M1.153-.283A1.436,1.436,0,1,1-.283,1.153,1.438,1.438,0,0,1,1.153-.283Zm0,2.306a.869.869,0,1,0-.869-.869A.87.87,0,0,0,1.153,2.022Z" transform="translate(42.179 31.347)"/>
      <path id="椭圆_51" data-name="椭圆 51" d="M1.153-.283A1.436,1.436,0,1,1-.283,1.153,1.438,1.438,0,0,1,1.153-.283Zm0,2.306a.869.869,0,1,0-.869-.869A.87.87,0,0,0,1.153,2.022Z" transform="translate(35.453 9.345)"/>
      <path id="椭圆_52" data-name="椭圆 52" d="M1.153-.283A1.436,1.436,0,1,1-.283,1.153,1.438,1.438,0,0,1,1.153-.283Zm0,2.306a.869.869,0,1,0-.869-.869A.87.87,0,0,0,1.153,2.022Z" transform="translate(39.297 13.957)"/>
      <path id="椭圆_53" data-name="椭圆 53" d="M1.153-.283A1.436,1.436,0,1,1-.283,1.153,1.438,1.438,0,0,1,1.153-.283Zm0,2.306a.869.869,0,1,0-.869-.869A.87.87,0,0,0,1.153,2.022Z" transform="translate(43.236 18.569)"/>
    </g>
  </g>
</svg>
