<?xml version='1.0' encoding='utf-8'?>
<!DOCTYPE svg PUBLIC '-//W3C//DTD SVG 1.1//EN' 'http://www.w3.org/Graphics/SVG/1.1/DTD/svg11.dtd'>
<!-- Generator: Adobe Illustrator 16.0.0, SVG Export Plug-In . SVG Version: 6.00 Build 0)  -->
<svg version="1.1" xml:space="preserve" xmlns="http://www.w3.org/2000/svg" x="0px" width="48px" viewBox="0 0 48 48" enable-background="new 0 0 48 48" y="0px" xmlns:xlink="http://www.w3.org/1999/xlink" height="48px">
    <g id="砂砾岩">
        <g id="砂砾岩_1_">
            <line y1="3.112" fill="none" stroke-miterlimit="10" x2="48" y2="3.112" stroke="#AE8047" x1="0"/>
            <line y1="43.945" fill="none" stroke-miterlimit="10" x2="48" y2="43.945" stroke="#AE8047" x1="0"/>
            <line y1="16.112" fill="none" stroke-miterlimit="10" x2="48" y2="16.112" stroke="#AE8047" x1="0"/>
            <line y1="31.195" fill="none" stroke-miterlimit="10" x2="48" y2="31.195" stroke="#AE8047" x1="0"/>
            <circle r="2.167" cx="14.566" cy="8.445" fill="none" stroke-miterlimit="10" stroke="#AE8047"/>
            <line y1="8.445" fill="none" stroke-miterlimit="10" x2="4.583" y2="8.445" stroke="#AE8047" x1="0"/>
            <line y1="8.945" fill="none" stroke-miterlimit="10" x2="27.416" y2="8.945" stroke="#AE8047" x1="22.833"/>
            <line y1="8.945" fill="none" stroke-miterlimit="10" x2="38.916" y2="8.945" stroke="#AE8047" x1="34.333"/>
            <circle r="2.167" cx="40.711" cy="38.028" fill="none" stroke-miterlimit="10" stroke="#AE8047"/>
            <line y1="38.027" fill="none" stroke-miterlimit="10" x2="6.875" y2="38.027" stroke="#AE8047" x1="2.292"/>
            <line y1="38.027" fill="none" stroke-miterlimit="10" x2="29.708" y2="38.027" stroke="#AE8047" x1="25.125"/>
            <line y1="38.027" fill="none" stroke-miterlimit="10" x2="18.041" y2="38.027" stroke="#AE8047" x1="13.458"/>
            <circle r="2.167" cx="27.417" cy="24" fill="none" stroke-miterlimit="10" stroke="#AE8047"/>
            <line y1="23.445" fill="none" stroke-miterlimit="10" x2="7.583" y2="23.445" stroke="#AE8047" x1="3"/>
            <line y1="23.445" fill="none" stroke-miterlimit="10" x2="16.858" y2="23.445" stroke="#AE8047" x1="12.275"/>
            <line y1="23.945" fill="none" stroke-miterlimit="10" x2="41.916" y2="23.945" stroke="#AE8047" x1="37.333"/>
        </g>
    </g>
</svg>
