<svg xmlns="http://www.w3.org/2000/svg" width="48.717" height="48.917" viewBox="0 0 48.717 48.917">
  <g id="砂粘土混砂" transform="translate(-5692.642 -55.642)">
    <path id="路径_3248" data-name="路径 3248" d="M0,0H48V48H0Z" transform="translate(5693 56)" fill="none"/>
    <g id="砂粘土混砂-2" data-name="砂粘土混砂" transform="translate(5693 56)">
      <path id="直线_646" data-name="直线 646" d="M.354,48.154l-.707-.707,47.8-47.8.707.707Z" transform="translate(0 0.2)" fill="#595758"/>
      <path id="直线_647" data-name="直线 647" d="M.358,32.358l-.717-.717,32-32,.717.717Z" fill="#595758"/>
      <path id="直线_648" data-name="直线 648" d="M.358,32.358l-.717-.717,32-32,.717.717Z" transform="translate(16 16.2)" fill="#595758"/>
      <path id="直线_649" data-name="直线 649" d="M.354,16.154l-.707-.707,15.8-15.8.707.707Z" transform="translate(32.2 32.2)" fill="#595758"/>
      <path id="直线_650" data-name="直线 650" d="M.354,16.354l-.707-.707,16-16,.707.707Z" transform="translate(0 0.1)" fill="#595758"/>
      <g id="组_1140" data-name="组 1140">
        <g id="组_1119" data-name="组 1119">
          <g id="组_1115" data-name="组 1115">
            <path id="路径_2033" data-name="路径 2033" d="M6,3.5A1.58,1.58,0,0,0,4.4,5.1,1.5,1.5,0,0,0,6,6.6,1.561,1.561,0,0,0,7.6,5.1,1.645,1.645,0,0,0,6,3.5Z"/>
          </g>
          <g id="组_1116" data-name="组 1116">
            <path id="路径_2034" data-name="路径 2034" d="M18.3,3.5a1.6,1.6,0,1,0,1.6,1.6,1.58,1.58,0,0,0-1.6-1.6Z"/>
          </g>
          <g id="组_1117" data-name="组 1117">
            <path id="路径_2035" data-name="路径 2035" d="M30.2,3.5a1.6,1.6,0,1,0,1.6,1.6,1.58,1.58,0,0,0-1.6-1.6Z"/>
          </g>
          <g id="组_1118" data-name="组 1118">
            <path id="路径_2036" data-name="路径 2036" d="M41.8,3.5a1.6,1.6,0,1,0,1.6,1.6,1.58,1.58,0,0,0-1.6-1.6Z"/>
          </g>
        </g>
        <g id="组_1124" data-name="组 1124">
          <g id="组_1120" data-name="组 1120">
            <path id="路径_2037" data-name="路径 2037" d="M6.1,13a1.6,1.6,0,1,0,1.6,1.6A1.58,1.58,0,0,0,6.1,13Z"/>
          </g>
          <g id="组_1121" data-name="组 1121">
            <path id="路径_2038" data-name="路径 2038" d="M18.4,13A1.6,1.6,0,1,0,20,14.6,1.58,1.58,0,0,0,18.4,13Z"/>
          </g>
          <g id="组_1122" data-name="组 1122">
            <path id="路径_2039" data-name="路径 2039" d="M30.3,13a1.6,1.6,0,1,0,1.6,1.6A1.58,1.58,0,0,0,30.3,13Z"/>
          </g>
          <g id="组_1123" data-name="组 1123">
            <path id="路径_2040" data-name="路径 2040" d="M41.9,13a1.6,1.6,0,1,0,1.6,1.6A1.58,1.58,0,0,0,41.9,13Z"/>
          </g>
        </g>
        <g id="组_1129" data-name="组 1129">
          <g id="组_1125" data-name="组 1125">
            <path id="路径_2041" data-name="路径 2041" d="M6.1,22.5a1.6,1.6,0,1,0,1.6,1.6,1.58,1.58,0,0,0-1.6-1.6Z"/>
          </g>
          <g id="组_1126" data-name="组 1126">
            <path id="路径_2042" data-name="路径 2042" d="M18.4,22.5a1.6,1.6,0,0,0,0,3.2,1.6,1.6,0,1,0,0-3.2Z"/>
          </g>
          <g id="组_1127" data-name="组 1127">
            <path id="路径_2043" data-name="路径 2043" d="M30.3,22.5a1.6,1.6,0,1,0,1.6,1.6,1.58,1.58,0,0,0-1.6-1.6Z"/>
          </g>
          <g id="组_1128" data-name="组 1128">
            <path id="路径_2044" data-name="路径 2044" d="M41.9,22.5a1.6,1.6,0,1,0,1.6,1.6,1.58,1.58,0,0,0-1.6-1.6Z"/>
          </g>
        </g>
        <g id="组_1134" data-name="组 1134">
          <g id="组_1130" data-name="组 1130">
            <path id="路径_2045" data-name="路径 2045" d="M6.1,31.9a1.6,1.6,0,1,0,1.6,1.6,1.58,1.58,0,0,0-1.6-1.6Z"/>
          </g>
          <g id="组_1131" data-name="组 1131">
            <path id="路径_2046" data-name="路径 2046" d="M18.4,31.9A1.6,1.6,0,1,0,20,33.5a1.58,1.58,0,0,0-1.6-1.6Z"/>
          </g>
          <g id="组_1132" data-name="组 1132">
            <path id="路径_2047" data-name="路径 2047" d="M30.3,31.9a1.6,1.6,0,1,0,1.6,1.6,1.58,1.58,0,0,0-1.6-1.6Z"/>
          </g>
          <g id="组_1133" data-name="组 1133">
            <path id="路径_2048" data-name="路径 2048" d="M41.9,31.9a1.6,1.6,0,1,0,1.6,1.6,1.58,1.58,0,0,0-1.6-1.6Z"/>
          </g>
        </g>
        <g id="组_1139" data-name="组 1139">
          <g id="组_1135" data-name="组 1135">
            <path id="路径_2049" data-name="路径 2049" d="M6.1,41.5a1.6,1.6,0,1,0,1.6,1.6,1.58,1.58,0,0,0-1.6-1.6Z"/>
          </g>
          <g id="组_1136" data-name="组 1136">
            <path id="路径_2050" data-name="路径 2050" d="M18.4,41.5a1.6,1.6,0,1,0,0,3.2A1.666,1.666,0,0,0,20,43a1.5,1.5,0,0,0-1.6-1.5Z"/>
          </g>
          <g id="组_1137" data-name="组 1137">
            <path id="路径_2051" data-name="路径 2051" d="M30.3,41.5a1.6,1.6,0,1,0,1.6,1.6,1.58,1.58,0,0,0-1.6-1.6Z"/>
          </g>
          <g id="组_1138" data-name="组 1138">
            <path id="路径_2052" data-name="路径 2052" d="M41.9,41.5a1.6,1.6,0,1,0,1.6,1.6,1.58,1.58,0,0,0-1.6-1.6Z"/>
          </g>
        </g>
      </g>
    </g>
  </g>
</svg>
