<svg xmlns="http://www.w3.org/2000/svg" width="48.707" height="48.607" viewBox="0 0 48.707 48.607">
  <g id="砂质粘性土" transform="translate(-5926.646 -55.646)">
    <path id="路径_3252" data-name="路径 3252" d="M0,0H48V48H0Z" transform="translate(5927 56)" fill="none"/>
    <g id="砂质粘性土-2" data-name="砂质粘性土" transform="translate(5927 55.8)">
      <path id="直线_660" data-name="直线 660" d="M.354,48.154l-.707-.707,47.8-47.8.707.707Z" transform="translate(0 0.3)" fill="#595758"/>
      <path id="直线_661" data-name="直线 661" d="M.354,16.154l-.707-.707,15.8-15.8.707.707Z" transform="translate(32.2 32.3)" fill="#595758"/>
      <path id="直线_662" data-name="直线 662" d="M.354,16.354l-.707-.707,16-16,.707.707Z" transform="translate(0 0.2)" fill="#595758"/>
      <g id="组_1156" data-name="组 1156">
        <g id="组_1155" data-name="组 1155">
          <path id="直线_663" data-name="直线 663" d="M.354,4.554l-.707-.707,4.2-4.2.707.707Z" transform="translate(0.1 27.6)" fill="#595758"/>
          <path id="直线_664" data-name="直线 664" d="M.355,11.852l-.71-.7L7.266,3.46l.71.7Z" transform="translate(12 8.4)" fill="#595758"/>
          <path id="直线_665" data-name="直线 665" d="M.354,4.554l-.707-.707,4.2-4.2.707.707Z" transform="translate(27.3 0.3)" fill="#595758"/>
        </g>
      </g>
      <g id="组_1158" data-name="组 1158">
        <g id="组_1157" data-name="组 1157">
          <path id="直线_666" data-name="直线 666" d="M.354,4.554l-.707-.707,4.2-4.2.707.707Z" transform="translate(16.5 43.9)" fill="#595758"/>
          <path id="直线_667" data-name="直线 667" d="M.354,11.754l-.707-.707L7.285,3.408l.707.707Z" transform="translate(28.4 24.8)" fill="#595758"/>
          <path id="直线_668" data-name="直线 668" d="M.354,4.554l-.707-.707,4.2-4.2.707.707Z" transform="translate(43.7 16.7)" fill="#595758"/>
        </g>
      </g>
      <g id="组_1184" data-name="组 1184">
        <g id="组_1163" data-name="组 1163">
          <g id="组_1159" data-name="组 1159">
            <path id="路径_2104" data-name="路径 2104" d="M6,3.6A1.58,1.58,0,0,0,4.4,5.2,1.5,1.5,0,0,0,6,6.7,1.561,1.561,0,0,0,7.6,5.2,1.645,1.645,0,0,0,6,3.6Z"/>
          </g>
          <g id="组_1160" data-name="组 1160">
            <path id="路径_2105" data-name="路径 2105" d="M18.3,3.6a1.6,1.6,0,1,0,1.6,1.6,1.58,1.58,0,0,0-1.6-1.6Z"/>
          </g>
          <g id="组_1161" data-name="组 1161">
            <path id="路径_2106" data-name="路径 2106" d="M30.2,3.6a1.6,1.6,0,1,0,1.6,1.6,1.58,1.58,0,0,0-1.6-1.6Z"/>
          </g>
          <g id="组_1162" data-name="组 1162">
            <path id="路径_2107" data-name="路径 2107" d="M41.8,3.6a1.6,1.6,0,1,0,1.6,1.6,1.58,1.58,0,0,0-1.6-1.6Z"/>
          </g>
        </g>
        <g id="组_1168" data-name="组 1168">
          <g id="组_1164" data-name="组 1164">
            <path id="路径_2108" data-name="路径 2108" d="M6.1,13.1a1.6,1.6,0,1,0,1.6,1.6,1.58,1.58,0,0,0-1.6-1.6Z"/>
          </g>
          <g id="组_1165" data-name="组 1165">
            <path id="路径_2109" data-name="路径 2109" d="M18.4,13.1A1.6,1.6,0,1,0,20,14.7a1.58,1.58,0,0,0-1.6-1.6Z"/>
          </g>
          <g id="组_1166" data-name="组 1166">
            <path id="路径_2110" data-name="路径 2110" d="M30.3,13.1a1.6,1.6,0,1,0,1.6,1.6,1.58,1.58,0,0,0-1.6-1.6Z"/>
          </g>
          <g id="组_1167" data-name="组 1167">
            <path id="路径_2111" data-name="路径 2111" d="M41.9,13.1a1.6,1.6,0,1,0,1.6,1.6,1.58,1.58,0,0,0-1.6-1.6Z"/>
          </g>
        </g>
        <g id="组_1173" data-name="组 1173">
          <g id="组_1169" data-name="组 1169">
            <path id="路径_2112" data-name="路径 2112" d="M6.1,22.6a1.6,1.6,0,1,0,1.6,1.6,1.58,1.58,0,0,0-1.6-1.6Z"/>
          </g>
          <g id="组_1170" data-name="组 1170">
            <path id="路径_2113" data-name="路径 2113" d="M18.4,22.6a1.6,1.6,0,0,0,0,3.2,1.6,1.6,0,1,0,0-3.2Z"/>
          </g>
          <g id="组_1171" data-name="组 1171">
            <path id="路径_2114" data-name="路径 2114" d="M30.3,22.6a1.6,1.6,0,1,0,1.6,1.6,1.58,1.58,0,0,0-1.6-1.6Z"/>
          </g>
          <g id="组_1172" data-name="组 1172">
            <path id="路径_2115" data-name="路径 2115" d="M41.9,22.6a1.6,1.6,0,1,0,1.6,1.6,1.58,1.58,0,0,0-1.6-1.6Z"/>
          </g>
        </g>
        <g id="组_1178" data-name="组 1178">
          <g id="组_1174" data-name="组 1174">
            <path id="路径_2116" data-name="路径 2116" d="M6.1,32.1a1.6,1.6,0,1,0,1.6,1.6,1.58,1.58,0,0,0-1.6-1.6Z"/>
          </g>
          <g id="组_1175" data-name="组 1175">
            <path id="路径_2117" data-name="路径 2117" d="M18.4,32.1A1.6,1.6,0,1,0,20,33.7a1.58,1.58,0,0,0-1.6-1.6Z"/>
          </g>
          <g id="组_1176" data-name="组 1176">
            <path id="路径_2118" data-name="路径 2118" d="M30.3,32.1a1.6,1.6,0,1,0,1.6,1.6,1.58,1.58,0,0,0-1.6-1.6Z"/>
          </g>
          <g id="组_1177" data-name="组 1177">
            <path id="路径_2119" data-name="路径 2119" d="M41.9,32.1a1.6,1.6,0,1,0,1.6,1.6,1.58,1.58,0,0,0-1.6-1.6Z"/>
          </g>
        </g>
        <g id="组_1183" data-name="组 1183">
          <g id="组_1179" data-name="组 1179">
            <path id="路径_2120" data-name="路径 2120" d="M6.1,41.6a1.6,1.6,0,1,0,1.6,1.6,1.58,1.58,0,0,0-1.6-1.6Z"/>
          </g>
          <g id="组_1180" data-name="组 1180">
            <path id="路径_2121" data-name="路径 2121" d="M18.4,41.6A1.6,1.6,0,1,0,20,43.2a1.58,1.58,0,0,0-1.6-1.6Z"/>
          </g>
          <g id="组_1181" data-name="组 1181">
            <path id="路径_2122" data-name="路径 2122" d="M30.3,41.6a1.6,1.6,0,1,0,1.6,1.6,1.58,1.58,0,0,0-1.6-1.6Z"/>
          </g>
          <g id="组_1182" data-name="组 1182">
            <path id="路径_2123" data-name="路径 2123" d="M41.9,41.6a1.6,1.6,0,1,0,1.6,1.6,1.58,1.58,0,0,0-1.6-1.6Z"/>
          </g>
        </g>
      </g>
    </g>
  </g>
</svg>
