<svg xmlns="http://www.w3.org/2000/svg" width="49.3" height="48" viewBox="0 0 49.3 48">
  <g id="砂质粉土素填土" transform="translate(-5867.35 -56)">
    <path id="路径_3251" data-name="路径 3251" d="M0,0H48V48H0Z" transform="translate(5868 56)" fill="none"/>
    <g id="砂质粉土素填土-2" data-name="砂质粉土素填土" transform="translate(5867.85 56)">
      <path id="路径_2076" data-name="路径 2076" d="M-.5,0"/>
      <path id="路径_2077" data-name="路径 2077" d="M19.5,27.5l-7.9,7.9a.608.608,0,0,0,0,.8.758.758,0,0,0,.4.2.758.758,0,0,0,.4-.2l7.9-7.9a.608.608,0,0,0,0-.8C20.2,27.3,19.8,27.3,19.5,27.5Z"/>
      <path id="路径_2078" data-name="路径 2078" d="M36.1,12.6a.566.566,0,1,0-.8-.8l-7.9,7.9a.608.608,0,0,0,0,.8.5.5,0,0,0,.8,0Z"/>
      <path id="路径_2079" data-name="路径 2079" d="M36.8,43.2a.608.608,0,0,0-.8,0L31.3,48H33l3.9-4A.529.529,0,0,0,36.8,43.2Z"/>
      <path id="路径_2080" data-name="路径 2080" d="M43.5,36.3a.758.758,0,0,0,.4.2.52.52,0,0,0,.4-.2L48,32.6V30.9l-4.5,4.6A.468.468,0,0,0,43.5,36.3Z"/>
      <path id="路径_2081" data-name="路径 2081" d="M4.7,11.4a.608.608,0,0,0-.8,0L0,15.2v1.7l4.7-4.6A.561.561,0,0,0,4.7,11.4Z"/>
      <path id="路径_2082" data-name="路径 2082" d="M11.6,4.6a.758.758,0,0,0,.4.2.52.52,0,0,0,.4-.2L17.2,0H15.5L11.7,3.8A.529.529,0,0,0,11.6,4.6Z"/>
      <path id="路径_2083" data-name="路径 2083" d="M4.8,27A.608.608,0,0,0,4,27L0,30.9v1.7l4.8-4.7A.561.561,0,0,0,4.8,27Z"/>
      <path id="路径_2084" data-name="路径 2084" d="M19.7,11.4l-7.8,7.8a.608.608,0,0,0,0,.8.758.758,0,0,0,.4.2.52.52,0,0,0,.4-.2l7.8-7.8a.566.566,0,1,0-.8-.8Z"/>
      <path id="路径_2085" data-name="路径 2085" d="M27.5,4.5a.758.758,0,0,0,.4.2.52.52,0,0,0,.4-.2L33,0H31.3L27.6,3.7A.529.529,0,0,0,27.5,4.5Z"/>
      <g id="组_1153" data-name="组 1153">
        <path id="路径_2086" data-name="路径 2086" d="M20.2,43.2,15.5,48h1.7l3.9-4a.608.608,0,0,0,0-.8A.563.563,0,0,0,20.2,43.2Z"/>
        <path id="路径_2087" data-name="路径 2087" d="M35.7,27.5,28,35.3a.608.608,0,0,0,0,.8.758.758,0,0,0,.4.2.52.52,0,0,0,.4-.2l7.7-7.8a.566.566,0,1,0-.8-.8Z"/>
        <path id="路径_2088" data-name="路径 2088" d="M43.4,19.8a.608.608,0,0,0,0,.8.5.5,0,0,0,.8,0L48,16.8V15.1Z"/>
      </g>
      <path id="路径_2089" data-name="路径 2089" d="M0,.8.8,0H0Z"/>
      <path id="路径_2090" data-name="路径 2090" d="M48,47.1l-.9.9H48Z"/>
      <path id="路径_2091" data-name="路径 2091" d="M48,0h-.8l-4,4s-.3.4-.1.7a.642.642,0,0,0,.9.1l4-4Z"/>
      <path id="路径_2092" data-name="路径 2092" d="M0,48H.8l4-4s.3-.4.1-.7a.642.642,0,0,0-.9-.1l-4,4Z"/>
      <path id="路径_2093" data-name="路径 2093" d="M48,.8l.8-.8H48Z"/>
      <g id="组_1154" data-name="组 1154">
        <path id="路径_2094" data-name="路径 2094" d="M9.2,9.1a.55.55,0,0,1-.5-.3L6.5,4.6,4,8.8a.54.54,0,0,1-.8.2A.443.443,0,0,1,3,8.3L5.8,3.6a.842.842,0,0,1,.7-.4,1.012,1.012,0,0,1,.7.4L9.8,8.3a.778.778,0,0,1-.2.8Z"/>
        <path id="路径_2095" data-name="路径 2095" d="M21.6,18.6a.55.55,0,0,1-.5-.3l-2.3-4.2-2.5,4.2a.583.583,0,1,1-1-.6L18.1,13a.842.842,0,0,1,.7-.4,1.012,1.012,0,0,1,.7.4l2.6,4.7a.778.778,0,0,1-.2.8A.367.367,0,0,1,21.6,18.6Z"/>
        <path id="路径_2096" data-name="路径 2096" d="M21.5,37.5a.55.55,0,0,1-.5-.3L18.8,33l-2.5,4.2a.583.583,0,1,1-1-.6l2.8-4.7a.842.842,0,0,1,.7-.4,1.012,1.012,0,0,1,.7.4l2.6,4.7a.778.778,0,0,1-.2.8A.756.756,0,0,1,21.5,37.5Z"/>
        <path id="路径_2097" data-name="路径 2097" d="M9.2,28.1a.55.55,0,0,1-.5-.3L6.4,23.6,4,27.8a.54.54,0,0,1-.8.2.54.54,0,0,1-.2-.8l2.8-4.7a.842.842,0,0,1,.7-.4,1.012,1.012,0,0,1,.7.4l2.6,4.7a.778.778,0,0,1-.2.8A.756.756,0,0,1,9.2,28.1Z"/>
        <path id="路径_2098" data-name="路径 2098" d="M9.2,47.1a.55.55,0,0,1-.5-.3L6.4,42.6,4,46.8a.54.54,0,0,1-.8.2.54.54,0,0,1-.2-.8l2.8-4.7a.842.842,0,0,1,.7-.4,1.012,1.012,0,0,1,.7.4l2.6,4.7a.778.778,0,0,1-.2.8A.756.756,0,0,1,9.2,47.1Z"/>
        <path id="路径_2099" data-name="路径 2099" d="M33.5,9.1a.55.55,0,0,1-.5-.3L30.7,4.6,28.2,8.8a.583.583,0,0,1-1-.6L30,3.5a.842.842,0,0,1,.7-.4,1.012,1.012,0,0,1,.7.4L34,8.3a.778.778,0,0,1-.2.8Z"/>
        <path id="路径_2100" data-name="路径 2100" d="M45,18.6a.55.55,0,0,1-.5-.3l-2.3-4.2-2.5,4.2a.583.583,0,0,1-1-.6L41.5,13a.842.842,0,0,1,.7-.4,1.012,1.012,0,0,1,.7.4l2.6,4.7a.778.778,0,0,1-.2.8A.367.367,0,0,1,45,18.6Z"/>
        <path id="路径_2101" data-name="路径 2101" d="M45.1,37.5a.55.55,0,0,1-.5-.3L42.4,33l-2.5,4.2a.583.583,0,1,1-1-.6l2.8-4.7a.842.842,0,0,1,.7-.4,1.012,1.012,0,0,1,.7.4l2.6,4.7a.778.778,0,0,1-.2.8A.756.756,0,0,1,45.1,37.5Z"/>
        <path id="路径_2102" data-name="路径 2102" d="M33.5,28.1a.55.55,0,0,1-.5-.3l-2.3-4.2-2.5,4.2a.583.583,0,0,1-1-.6L30,22.5a.842.842,0,0,1,.7-.4,1.012,1.012,0,0,1,.7.4L34,27.2a.778.778,0,0,1-.2.8A.367.367,0,0,1,33.5,28.1Z"/>
        <path id="路径_2103" data-name="路径 2103" d="M33.5,47.1a.55.55,0,0,1-.5-.3l-2.3-4.2-2.5,4.2a.583.583,0,1,1-1-.6L30,41.5a.842.842,0,0,1,.7-.4,1.012,1.012,0,0,1,.7.4L34,46.2a.778.778,0,0,1-.2.8A.367.367,0,0,1,33.5,47.1Z"/>
      </g>
    </g>
  </g>
</svg>
