<?xml version='1.0' encoding='utf-8'?>
<!DOCTYPE svg PUBLIC '-//W3C//DTD SVG 1.1//EN' 'http://www.w3.org/Graphics/SVG/1.1/DTD/svg11.dtd'>
<!-- Generator: Adobe Illustrator 16.0.0, SVG Export Plug-In . SVG Version: 6.00 Build 0)  -->
<svg version="1.1" xml:space="preserve" xmlns="http://www.w3.org/2000/svg" x="0px" width="48px" viewBox="0 0 48 48" enable-background="new 0 0 48 48" y="0px" xmlns:xlink="http://www.w3.org/1999/xlink" height="48px">
    <g id="砂质灰岩">
        <line y1="3.827" fill="none" stroke-miterlimit="10" x2="48" y2="3.827" stroke="#000000" x1="0"/>
        <line y1="13.833" fill="none" stroke-miterlimit="10" x2="48" y2="13.833" stroke="#000000" x1="0"/>
        <line y1="23.41" fill="none" stroke-miterlimit="10" x2="48" y2="23.41" stroke="#000000" x1="0"/>
        <line y1="33.576" fill="none" stroke-miterlimit="10" x2="48" y2="33.576" stroke="#000000" x1="0"/>
        <line y1="43.41" fill="none" stroke-miterlimit="10" x2="48" y2="43.41" stroke="#000000" x1="0"/>
        <line y1="0" fill="none" stroke-miterlimit="10" x2="16.75" y2="3.827" stroke="#000000" x1="16.75"/>
        <line y1="0.208" fill="none" stroke-miterlimit="10" x2="42.917" y2="3.619" stroke="#000000" x1="42.917"/>
        <line y1="43.41" fill="none" stroke-miterlimit="10" x2="7.25" y2="48" stroke="#000000" x1="7.25"/>
        <line y1="43.41" fill="none" stroke-miterlimit="10" x2="33.25" y2="48" stroke="#000000" x1="33.25"/>
        <line y1="3.827" fill="none" stroke-miterlimit="10" x2="7.25" y2="13.833" stroke="#000000" x1="7.25"/>
        <line y1="24" fill="none" stroke-miterlimit="10" x2="7.25" y2="33.576" stroke="#000000" x1="7.25"/>
        <line y1="3.827" fill="none" stroke-miterlimit="10" x2="33.25" y2="13.833" stroke="#000000" x1="33.25"/>
        <line y1="23.41" fill="none" stroke-miterlimit="10" x2="33.25" y2="33.576" stroke="#000000" x1="33.25"/>
        <line y1="13.833" fill="none" stroke-miterlimit="10" x2="16.75" y2="23.41" stroke="#000000" x1="16.75"/>
        <line y1="13.833" fill="none" stroke-miterlimit="10" x2="42.917" y2="23.41" stroke="#000000" x1="42.917"/>
        <line y1="33.576" fill="none" stroke-miterlimit="10" x2="16.75" y2="43.41" stroke="#000000" x1="16.75"/>
        <line y1="33.576" fill="none" stroke-miterlimit="10" x2="42.917" y2="43.41" stroke="#000000" x1="42.917"/>
        <circle r="1.5" stroke-width="0.5" cx="16.75" cy="8.83" fill="none" stroke-miterlimit="10" stroke="#000000"/>
        <circle r="1.5" stroke-width="0.5" cx="6.905" cy="18.622" fill="none" stroke-miterlimit="10" stroke="#000000"/>
        <circle r="1.5" stroke-width="0.5" cx="33.328" cy="18.456" fill="none" stroke-miterlimit="10" stroke="#000000"/>
        <circle r="1.5" stroke-width="0.5" cx="16.75" cy="28.493" fill="none" stroke-miterlimit="10" stroke="#000000"/>
        <circle r="1.5" stroke-width="0.5" cx="42.917" cy="28.493" fill="none" stroke-miterlimit="10" stroke="#000000"/>
        <circle r="1.5" stroke-width="0.5" cx="42.917" cy="8.83" fill="none" stroke-miterlimit="10" stroke="#000000"/>
        <circle r="1.5" stroke-width="0.5" cx="33.328" cy="38.493" fill="none" stroke-miterlimit="10" stroke="#000000"/>
        <circle r="1.5" stroke-width="0.5" cx="7.25" cy="38.493" fill="none" stroke-miterlimit="10" stroke="#000000"/>
        <circle r="1.5" stroke-width="0.5" cx="16.75" cy="46.214" fill="none" stroke-miterlimit="10" stroke="#000000"/>
        <circle r="1.5" stroke-width="0.5" cx="42.917" cy="46.214" fill="none" stroke-miterlimit="10" stroke="#000000"/>
        <circle r="1.5" stroke-width="0.5" cx="32.875" cy="1.5" fill="none" stroke-miterlimit="10" stroke="#000000"/>
        <circle r="1.5" stroke-width="0.5" cx="6.905" cy="1.5" fill="none" stroke-miterlimit="10" stroke="#000000"/>
    </g>
</svg>
