<svg xmlns="http://www.w3.org/2000/svg" width="48.709" height="48.707" viewBox="0 0 48.709 48.707">
  <g id="砂质粉土夹粉质粘土" transform="translate(-5808.646 -55.646)">
    <path id="路径_3250" data-name="路径 3250" d="M0,0H48V48H0Z" transform="translate(5809 56)" fill="none"/>
    <g id="砂质粉土夹粉质粘土-2" data-name="砂质粉土夹粉质粘土" transform="translate(5809 56)">
      <path id="直线_651" data-name="直线 651" d="M.354,48.253l-.708-.706,47.8-47.9.708.706Z" transform="translate(0 0.1)" fill="#595758"/>
      <path id="直线_652" data-name="直线 652" d="M.355,16.252l-.709-.7,15.8-15.9.709.7Z" transform="translate(32.2 32.1)" fill="#595758"/>
      <path id="直线_653" data-name="直线 653" d="M.354,16.154l-.707-.707,15.8-15.8.707.707Z" fill="#595758"/>
      <g id="组_1150" data-name="组 1150">
        <g id="组_1149" data-name="组 1149">
          <path id="直线_654" data-name="直线 654" d="M.354,4.554l-.707-.707,4.2-4.2.707.707Z" transform="translate(0.1 27.4)" fill="#595758"/>
          <path id="直线_655" data-name="直线 655" d="M.357,11.95l-.713-.7L7.231,3.528l.713.7Z" transform="translate(12 8.2)" fill="#595758"/>
          <path id="直线_656" data-name="直线 656" d="M.354,4.554l-.707-.707,4.2-4.2.707.707Z" transform="translate(27.3 0.1)" fill="#595758"/>
        </g>
      </g>
      <g id="组_1152" data-name="组 1152">
        <g id="组_1151" data-name="组 1151">
          <path id="直线_657" data-name="直线 657" d="M.354,4.554l-.707-.707,4.2-4.2.707.707Z" transform="translate(16.5 43.8)" fill="#595758"/>
          <path id="直线_658" data-name="直线 658" d="M.354,11.754l-.707-.707L7.285,3.408l.707.707Z" transform="translate(28.4 24.6)" fill="#595758"/>
          <path id="直线_659" data-name="直线 659" d="M.358,4.649l-.715-.7,4.2-4.3.715.7Z" transform="translate(43.7 16.5)" fill="#595758"/>
        </g>
      </g>
    </g>
  </g>
</svg>
