<svg xmlns="http://www.w3.org/2000/svg" width="48" height="48" viewBox="0 0 48 48">
  <g id="砂间淤泥" transform="translate(-5980 -56)">
    <path id="路径_3253" data-name="路径 3253" d="M0,0H48V48H0Z" transform="translate(5980 56)" fill="none"/>
    <g id="砂间淤泥-2" data-name="砂间淤泥" transform="translate(5978.6 55.547)">
      <path id="路径_2124" data-name="路径 2124" d="M8.8,11.2H7.6A1.216,1.216,0,0,1,6.4,10h0A1.216,1.216,0,0,1,7.6,8.8H8.7A1.216,1.216,0,0,1,9.9,10h0C9.8,10.7,9.4,11.2,8.8,11.2Z"/>
      <path id="路径_2125" data-name="路径 2125" d="M24.5,11.4H23.3a1.216,1.216,0,0,1-1.2-1.2h0A1.216,1.216,0,0,1,23.3,9h1.2a1.216,1.216,0,0,1,1.2,1.2h0A1.216,1.216,0,0,1,24.5,11.4Z"/>
      <path id="路径_2126" data-name="路径 2126" d="M40.7,11.4H39.5a1.216,1.216,0,0,1-1.2-1.2h0A1.216,1.216,0,0,1,39.5,9h1.2a1.216,1.216,0,0,1,1.2,1.2h0A1.216,1.216,0,0,1,40.7,11.4Z"/>
      <path id="路径_2127" data-name="路径 2127" d="M13.112,8.731A3.836,3.836,0,0,1,10.56,7.467c-1.134-1.039-2.093-1.507-2.7-1.319-.584.181-.769.954-.771.961l-.976-.216a2.394,2.394,0,0,1,1.44-1.7c.992-.314,2.232.2,3.686,1.535l0,0c.637.6,1.557,1.239,2.319.9a2,2,0,0,0,.983-1.409.43.43,0,0,0,.3.345l.316-.949a.577.577,0,0,1,.385.548,2.894,2.894,0,0,1-1.535,2.359A2.1,2.1,0,0,1,13.112,8.731Z" fill="#595758"/>
      <path id="路径_2128" data-name="路径 2128" d="M28.912,8.931A3.836,3.836,0,0,1,26.36,7.667c-1.134-1.039-2.093-1.507-2.7-1.319-.584.181-.769.954-.771.961l-.976-.216a2.394,2.394,0,0,1,1.44-1.7c.992-.314,2.232.2,3.686,1.535l0,0c.637.6,1.557,1.239,2.319.9a2,2,0,0,0,.983-1.409.43.43,0,0,0,.3.345l.316-.949a.577.577,0,0,1,.385.548,2.894,2.894,0,0,1-1.535,2.359A2.1,2.1,0,0,1,28.912,8.931Z" fill="#595758"/>
      <path id="路径_2129" data-name="路径 2129" d="M45.012,8.931A3.836,3.836,0,0,1,42.46,7.667c-1.137-1.042-2.1-1.51-2.706-1.317-.581.184-.764.949-.766.957l-.977-.214a2.394,2.394,0,0,1,1.44-1.7c.992-.314,2.232.2,3.686,1.535l0,0c.637.6,1.557,1.239,2.319.9a2,2,0,0,0,.983-1.409.43.43,0,0,0,.3.345l.316-.949a.577.577,0,0,1,.385.548,2.894,2.894,0,0,1-1.535,2.359A2.1,2.1,0,0,1,45.012,8.931Z" fill="#595758"/>
      <path id="路径_2130" data-name="路径 2130" d="M8.8,27.2H7.6A1.216,1.216,0,0,1,6.4,26h0a1.216,1.216,0,0,1,1.2-1.2H8.7A1.216,1.216,0,0,1,9.9,26h0C9.8,26.7,9.4,27.2,8.8,27.2Z"/>
      <path id="路径_2131" data-name="路径 2131" d="M24.5,27.4H23.3a1.216,1.216,0,0,1-1.2-1.2h0A1.216,1.216,0,0,1,23.3,25h1.2a1.216,1.216,0,0,1,1.2,1.2h0A1.216,1.216,0,0,1,24.5,27.4Z"/>
      <path id="路径_2132" data-name="路径 2132" d="M40.7,27.4H39.5a1.216,1.216,0,0,1-1.2-1.2h0A1.216,1.216,0,0,1,39.5,25h1.2a1.216,1.216,0,0,1,1.2,1.2h0A1.216,1.216,0,0,1,40.7,27.4Z"/>
      <path id="路径_2133" data-name="路径 2133" d="M13.112,24.731a3.836,3.836,0,0,1-2.552-1.265c-1.137-1.042-2.1-1.51-2.706-1.317-.581.184-.764.949-.766.957l-.977-.214a2.394,2.394,0,0,1,1.44-1.7c.992-.314,2.232.2,3.686,1.535l0,0c.637.6,1.557,1.239,2.319.9a2,2,0,0,0,.983-1.409.43.43,0,0,0,.3.345l.316-.949a.577.577,0,0,1,.385.548,2.894,2.894,0,0,1-1.535,2.359A2.1,2.1,0,0,1,13.112,24.731Z" fill="#595758"/>
      <path id="路径_2134" data-name="路径 2134" d="M28.912,24.931a3.836,3.836,0,0,1-2.552-1.265c-1.134-1.039-2.093-1.507-2.7-1.319-.584.181-.769.954-.771.961l-.976-.216a2.394,2.394,0,0,1,1.44-1.7c.992-.314,2.232.2,3.686,1.535l0,0c.637.6,1.557,1.239,2.319.9a2,2,0,0,0,.983-1.409.43.43,0,0,0,.3.345l.316-.949a.577.577,0,0,1,.385.548,2.894,2.894,0,0,1-1.535,2.359A2.1,2.1,0,0,1,28.912,24.931Z" fill="#595758"/>
      <path id="路径_2135" data-name="路径 2135" d="M45.012,24.931a3.836,3.836,0,0,1-2.552-1.265c-1.134-1.039-2.093-1.507-2.7-1.319-.584.181-.769.954-.771.961l-.976-.216a2.394,2.394,0,0,1,1.44-1.7c.992-.314,2.232.2,3.686,1.535l0,0c.637.6,1.557,1.239,2.319.9a2,2,0,0,0,.983-1.409.43.43,0,0,0,.3.345l.316-.949a.577.577,0,0,1,.385.548,2.894,2.894,0,0,1-1.535,2.359A2.1,2.1,0,0,1,45.012,24.931Z" fill="#595758"/>
      <path id="路径_2136" data-name="路径 2136" d="M8.8,43.1H7.6a1.216,1.216,0,0,1-1.2-1.2h0a1.216,1.216,0,0,1,1.2-1.2H8.7a1.216,1.216,0,0,1,1.2,1.2h0C9.8,42.6,9.4,43.1,8.8,43.1Z"/>
      <path id="路径_2137" data-name="路径 2137" d="M24.5,43.3H23.3a1.216,1.216,0,0,1-1.2-1.2h0a1.216,1.216,0,0,1,1.2-1.2h1.2a1.216,1.216,0,0,1,1.2,1.2h0A1.216,1.216,0,0,1,24.5,43.3Z"/>
      <path id="路径_2138" data-name="路径 2138" d="M40.7,43.3H39.5a1.216,1.216,0,0,1-1.2-1.2h0a1.216,1.216,0,0,1,1.2-1.2h1.2a1.216,1.216,0,0,1,1.2,1.2h0A1.216,1.216,0,0,1,40.7,43.3Z"/>
      <path id="路径_2139" data-name="路径 2139" d="M13.112,40.631a3.836,3.836,0,0,1-2.552-1.265c-1.137-1.042-2.1-1.51-2.706-1.317-.581.184-.764.949-.766.957l-.977-.214a2.394,2.394,0,0,1,1.44-1.7c.992-.314,2.232.2,3.686,1.535l0,0c.637.6,1.557,1.239,2.319.9a2,2,0,0,0,.983-1.409.43.43,0,0,0,.3.345l.316-.949a.577.577,0,0,1,.385.548,2.894,2.894,0,0,1-1.535,2.359A2.1,2.1,0,0,1,13.112,40.631Z" fill="#595758"/>
      <path id="路径_2140" data-name="路径 2140" d="M28.912,40.831a3.836,3.836,0,0,1-2.552-1.265c-1.134-1.039-2.093-1.507-2.7-1.319-.584.181-.769.954-.771.961l-.976-.216a2.394,2.394,0,0,1,1.44-1.7c.992-.314,2.232.2,3.686,1.535l0,0c.637.6,1.557,1.239,2.319.9a2,2,0,0,0,.983-1.409.43.43,0,0,0,.3.345l.316-.949a.577.577,0,0,1,.385.548,2.894,2.894,0,0,1-1.535,2.359A2.1,2.1,0,0,1,28.912,40.831Z" fill="#595758"/>
      <path id="路径_2141" data-name="路径 2141" d="M45.012,40.831a3.836,3.836,0,0,1-2.552-1.265c-1.137-1.042-2.1-1.51-2.706-1.317-.581.184-.764.949-.766.957l-.977-.214a2.394,2.394,0,0,1,1.44-1.7c.992-.314,2.232.2,3.686,1.535l0,0c.637.6,1.557,1.239,2.319.9a2,2,0,0,0,.983-1.409.43.43,0,0,0,.3.345l.316-.949a.577.577,0,0,1,.385.548,2.894,2.894,0,0,1-1.535,2.359A2.1,2.1,0,0,1,45.012,40.831Z" fill="#595758"/>
    </g>
  </g>
</svg>
