<svg xmlns="http://www.w3.org/2000/svg" width="48" height="48" viewBox="0 0 48 48">
  <g id="砾砂素填土" transform="translate(-6085 -56)">
    <path id="路径_3255" data-name="路径 3255" d="M0,0H48V48H0Z" transform="translate(6085 56)" fill="none"/>
    <g id="砾砂素填土-2" data-name="砾砂素填土" transform="translate(6084.904 55.248)">
      <g id="组_1189" data-name="组 1189">
        <g id="组_1185" data-name="组 1185">
          <path id="路径_2160" data-name="路径 2160" d="M8.4,7.6a.55.55,0,0,1-.5-.3L5.7,3.1,3.2,7.3a.54.54,0,0,1-.8.2.443.443,0,0,1-.2-.7L5,2.1a.842.842,0,0,1,.7-.4,1.012,1.012,0,0,1,.7.4L9,6.8a.778.778,0,0,1-.2.8Z"/>
          <circle id="椭圆_54" data-name="椭圆 54" cx="0.8" cy="0.8" r="0.8" transform="translate(4.8 9.3)"/>
        </g>
        <g id="组_1186" data-name="组 1186">
          <path id="路径_2161" data-name="路径 2161" d="M8.4,19.4a.55.55,0,0,1-.5-.3L5.7,14.9,3.2,19.1a.54.54,0,0,1-.8.2.443.443,0,0,1-.2-.7L5,13.9a.842.842,0,0,1,.7-.4,1.012,1.012,0,0,1,.7.4L9,18.6a.778.778,0,0,1-.2.8Z"/>
          <circle id="椭圆_55" data-name="椭圆 55" cx="0.8" cy="0.8" r="0.8" transform="translate(4.8 21)"/>
        </g>
        <g id="组_1187" data-name="组 1187">
          <path id="路径_2162" data-name="路径 2162" d="M8.4,31.2a.55.55,0,0,1-.5-.3L5.7,26.7,3.2,30.9a.54.54,0,0,1-.8.2.443.443,0,0,1-.2-.7L5,25.7a.842.842,0,0,1,.7-.4,1.012,1.012,0,0,1,.7.4L9,30.4a.778.778,0,0,1-.2.8Z"/>
          <circle id="椭圆_56" data-name="椭圆 56" cx="0.8" cy="0.8" r="0.8" transform="translate(4.8 32.8)"/>
        </g>
        <g id="组_1188" data-name="组 1188">
          <path id="路径_2163" data-name="路径 2163" d="M8.4,43a.55.55,0,0,1-.5-.3L5.7,38.5,3.2,42.7a.54.54,0,0,1-.8.2.443.443,0,0,1-.2-.7L5,37.5a.842.842,0,0,1,.7-.4,1.012,1.012,0,0,1,.7.4L9,42.2a.778.778,0,0,1-.2.8Z"/>
          <circle id="椭圆_57" data-name="椭圆 57" cx="0.8" cy="0.8" r="0.8" transform="translate(4.8 44.6)"/>
        </g>
      </g>
      <g id="组_1193" data-name="组 1193">
        <g id="组_1190" data-name="组 1190">
          <path id="路径_2164" data-name="路径 2164" d="M20.7,12.4a.55.55,0,0,1-.5-.3L18,7.9l-2.5,4.2a.54.54,0,0,1-.8.2.443.443,0,0,1-.2-.7l2.8-4.7a.842.842,0,0,1,.7-.4,1.012,1.012,0,0,1,.7.4l2.6,4.7a.778.778,0,0,1-.2.8Z"/>
          <circle id="椭圆_58" data-name="椭圆 58" cx="0.8" cy="0.8" r="0.8" transform="translate(17.1 14.1)"/>
        </g>
        <g id="组_1191" data-name="组 1191">
          <path id="路径_2165" data-name="路径 2165" d="M20.7,24.2a.55.55,0,0,1-.5-.3L18,19.7l-2.5,4.2a.54.54,0,0,1-.8.2.443.443,0,0,1-.2-.7l2.8-4.7a.842.842,0,0,1,.7-.4,1.012,1.012,0,0,1,.7.4l2.6,4.7a.778.778,0,0,1-.2.8Z"/>
          <circle id="椭圆_59" data-name="椭圆 59" cx="0.8" cy="0.8" r="0.8" transform="translate(17.1 25.9)"/>
        </g>
        <circle id="椭圆_60" data-name="椭圆 60" cx="0.8" cy="0.8" r="0.8" transform="translate(17.1 2.3)"/>
        <g id="组_1192" data-name="组 1192">
          <path id="路径_2166" data-name="路径 2166" d="M20.7,36a.55.55,0,0,1-.5-.3L18,31.5l-2.5,4.2a.54.54,0,0,1-.8.2.443.443,0,0,1-.2-.7l2.8-4.7a.842.842,0,0,1,.7-.4,1.012,1.012,0,0,1,.7.4l2.6,4.7a.778.778,0,0,1-.2.8Z"/>
          <circle id="椭圆_61" data-name="椭圆 61" cx="0.8" cy="0.8" r="0.8" transform="translate(17.1 37.7)"/>
        </g>
        <path id="路径_2167" data-name="路径 2167" d="M20.7,47.8a.55.55,0,0,1-.5-.3L18,43.3l-2.5,4.2a.54.54,0,0,1-.8.2.443.443,0,0,1-.2-.7l2.8-4.7a.842.842,0,0,1,.7-.4,1.012,1.012,0,0,1,.7.4L21.3,47a.778.778,0,0,1-.2.8Z"/>
      </g>
      <g id="组_1198" data-name="组 1198">
        <g id="组_1194" data-name="组 1194">
          <path id="路径_2168" data-name="路径 2168" d="M33,7.6a.55.55,0,0,1-.5-.3L30.3,3.1,27.8,7.3a.54.54,0,0,1-.8.2.443.443,0,0,1-.2-.7l2.8-4.7a.842.842,0,0,1,.7-.4,1.012,1.012,0,0,1,.7.4l2.6,4.7a.778.778,0,0,1-.2.8Z"/>
          <circle id="椭圆_62" data-name="椭圆 62" cx="0.8" cy="0.8" r="0.8" transform="translate(29.3 9.3)"/>
        </g>
        <g id="组_1195" data-name="组 1195">
          <path id="路径_2169" data-name="路径 2169" d="M33,19.4a.55.55,0,0,1-.5-.3l-2.2-4.2-2.5,4.2a.54.54,0,0,1-.8.2.443.443,0,0,1-.2-.7l2.8-4.7a.842.842,0,0,1,.7-.4,1.012,1.012,0,0,1,.7.4l2.6,4.7a.778.778,0,0,1-.2.8Z"/>
          <circle id="椭圆_63" data-name="椭圆 63" cx="0.8" cy="0.8" r="0.8" transform="translate(29.3 21)"/>
        </g>
        <g id="组_1196" data-name="组 1196">
          <path id="路径_2170" data-name="路径 2170" d="M33,31.2a.55.55,0,0,1-.5-.3l-2.2-4.2-2.5,4.2a.54.54,0,0,1-.8.2.443.443,0,0,1-.2-.7l2.8-4.7a.842.842,0,0,1,.7-.4,1.012,1.012,0,0,1,.7.4l2.6,4.7a.778.778,0,0,1-.2.8Z"/>
          <circle id="椭圆_64" data-name="椭圆 64" cx="0.8" cy="0.8" r="0.8" transform="translate(29.3 32.8)"/>
        </g>
        <g id="组_1197" data-name="组 1197">
          <path id="路径_2171" data-name="路径 2171" d="M33,43a.55.55,0,0,1-.5-.3l-2.2-4.2-2.5,4.2a.54.54,0,0,1-.8.2.443.443,0,0,1-.2-.7l2.8-4.7a.842.842,0,0,1,.7-.4,1.012,1.012,0,0,1,.7.4l2.6,4.7a.778.778,0,0,1-.2.8Z"/>
          <circle id="椭圆_65" data-name="椭圆 65" cx="0.8" cy="0.8" r="0.8" transform="translate(29.3 44.6)"/>
        </g>
      </g>
      <g id="组_1202" data-name="组 1202">
        <g id="组_1199" data-name="组 1199">
          <path id="路径_2172" data-name="路径 2172" d="M45.3,12.4a.55.55,0,0,1-.5-.3L42.6,7.9l-2.5,4.2a.54.54,0,0,1-.8.2.443.443,0,0,1-.2-.7l2.8-4.7a.842.842,0,0,1,.7-.4,1.012,1.012,0,0,1,.7.4l2.6,4.7a.778.778,0,0,1-.2.8Z"/>
          <circle id="椭圆_66" data-name="椭圆 66" cx="0.8" cy="0.8" r="0.8" transform="translate(41.6 14.1)"/>
        </g>
        <g id="组_1200" data-name="组 1200">
          <path id="路径_2173" data-name="路径 2173" d="M45.3,24.2a.55.55,0,0,1-.5-.3l-2.2-4.2-2.5,4.2a.54.54,0,0,1-.8.2.443.443,0,0,1-.2-.7l2.8-4.7a.842.842,0,0,1,.7-.4,1.012,1.012,0,0,1,.7.4l2.6,4.7a.778.778,0,0,1-.2.8Z"/>
          <circle id="椭圆_67" data-name="椭圆 67" cx="0.8" cy="0.8" r="0.8" transform="translate(41.6 25.9)"/>
        </g>
        <circle id="椭圆_68" data-name="椭圆 68" cx="0.8" cy="0.8" r="0.8" transform="translate(41.6 2.3)"/>
        <g id="组_1201" data-name="组 1201">
          <path id="路径_2174" data-name="路径 2174" d="M45.3,36a.55.55,0,0,1-.5-.3l-2.2-4.2-2.5,4.2a.54.54,0,0,1-.8.2.443.443,0,0,1-.2-.7l2.8-4.7a.842.842,0,0,1,.7-.4,1.012,1.012,0,0,1,.7.4l2.6,4.7a.778.778,0,0,1-.2.8Z"/>
          <circle id="椭圆_69" data-name="椭圆 69" cx="0.8" cy="0.8" r="0.8" transform="translate(41.6 37.7)"/>
        </g>
        <path id="路径_2175" data-name="路径 2175" d="M45.3,47.8a.55.55,0,0,1-.5-.3l-2.2-4.2-2.5,4.2a.54.54,0,0,1-.8.2.443.443,0,0,1-.2-.7l2.8-4.7a.842.842,0,0,1,.7-.4,1.012,1.012,0,0,1,.7.4L45.9,47a.778.778,0,0,1-.2.8Z"/>
      </g>
    </g>
  </g>
</svg>
