<?xml version="1.0" encoding="utf-8"?>
<!-- Generator: Adobe Illustrator 21.0.0, SVG Export Plug-In . SVG Version: 6.00 Build 0)  -->
<svg version="1.1" id="图层_1" xmlns="http://www.w3.org/2000/svg" xmlns:xlink="http://www.w3.org/1999/xlink" x="0px" y="0px"
	 width="48px" height="48px" viewBox="0 0 48 48" style="enable-background:new 0 0 48 48;" xml:space="preserve">
<style type="text/css">
	.st0{fill:none;stroke:#000000;stroke-miterlimit:10;}
</style>
<ellipse class="st0" cx="6.1" cy="4.5" rx="3" ry="2"/>
<ellipse class="st0" cx="12.8" cy="12.7" rx="3" ry="2"/>
<ellipse class="st0" cx="18.7" cy="4.5" rx="2.3" ry="1.5"/>
<ellipse class="st0" cx="24.7" cy="12.7" rx="2.3" ry="1.5"/>
<ellipse class="st0" cx="30.8" cy="4.5" rx="3" ry="2"/>
<ellipse class="st0" cx="37.3" cy="12.7" rx="3" ry="2"/>
<ellipse class="st0" cx="42.9" cy="4.5" rx="2" ry="1.3"/>
<ellipse class="st0" cx="6.1" cy="20.5" rx="3" ry="2"/>
<ellipse class="st0" cx="12.8" cy="28.8" rx="3" ry="2"/>
<ellipse class="st0" cx="18.7" cy="20.5" rx="2.3" ry="1.5"/>
<ellipse class="st0" cx="24.7" cy="28.8" rx="2.3" ry="1.5"/>
<ellipse class="st0" cx="30.8" cy="20.5" rx="3" ry="2"/>
<ellipse class="st0" cx="37.3" cy="28.8" rx="3" ry="2"/>
<ellipse class="st0" cx="42.9" cy="20.5" rx="2" ry="1.3"/>
<ellipse class="st0" cx="6.1" cy="36.1" rx="3" ry="2"/>
<ellipse class="st0" cx="12.8" cy="44.4" rx="3" ry="2"/>
<ellipse class="st0" cx="18.7" cy="36.1" rx="2.3" ry="1.5"/>
<ellipse class="st0" cx="24.7" cy="44.4" rx="2.3" ry="1.5"/>
<ellipse class="st0" cx="30.8" cy="36.1" rx="3" ry="2"/>
<ellipse class="st0" cx="37.3" cy="44.4" rx="3" ry="2"/>
<ellipse class="st0" cx="42.9" cy="36.1" rx="2" ry="1.3"/>
</svg>
