<svg xmlns="http://www.w3.org/2000/svg" width="48.707" height="48.607" viewBox="0 0 48.707 48.607">
  <g id="砾质粘性土" transform="translate(-6140.646 -55.646)">
    <path id="路径_3256" data-name="路径 3256" d="M0,0H48V48H0Z" transform="translate(6141 56)" fill="none"/>
    <g id="砾质粘性土-2" data-name="砾质粘性土" transform="translate(6141 55.8)">
      <path id="直线_669" data-name="直线 669" d="M.354,48.154l-.707-.707,47.8-47.8.707.707Z" transform="translate(0 0.3)" fill="#595758"/>
      <path id="直线_670" data-name="直线 670" d="M.354,16.154l-.707-.707,15.8-15.8.707.707Z" transform="translate(32.2 32.3)" fill="#595758"/>
      <path id="直线_671" data-name="直线 671" d="M.354,16.354l-.707-.707,16-16,.707.707Z" transform="translate(0 0.2)" fill="#595758"/>
      <g id="组_1204" data-name="组 1204">
        <g id="组_1203" data-name="组 1203">
          <path id="直线_672" data-name="直线 672" d="M.354,4.554l-.707-.707,4.2-4.2.707.707Z" transform="translate(0.1 27.6)" fill="#595758"/>
          <path id="直线_673" data-name="直线 673" d="M.355,11.852l-.71-.7L7.266,3.46l.71.7Z" transform="translate(12 8.4)" fill="#595758"/>
          <path id="直线_674" data-name="直线 674" d="M.354,4.554l-.707-.707,4.2-4.2.707.707Z" transform="translate(27.3 0.3)" fill="#595758"/>
        </g>
      </g>
      <g id="组_1206" data-name="组 1206">
        <g id="组_1205" data-name="组 1205">
          <path id="直线_675" data-name="直线 675" d="M.354,4.554l-.707-.707,4.2-4.2.707.707Z" transform="translate(16.5 43.9)" fill="#595758"/>
          <path id="直线_676" data-name="直线 676" d="M.354,11.754l-.707-.707L7.285,3.408l.707.707Z" transform="translate(28.4 24.8)" fill="#595758"/>
          <path id="直线_677" data-name="直线 677" d="M.354,4.554l-.707-.707,4.2-4.2.707.707Z" transform="translate(43.7 16.7)" fill="#595758"/>
        </g>
      </g>
      <g id="组_1232" data-name="组 1232">
        <g id="组_1211" data-name="组 1211">
          <g id="组_1207" data-name="组 1207">
            <path id="路径_2176" data-name="路径 2176" d="M6,3.6A1.58,1.58,0,0,0,4.4,5.2,1.5,1.5,0,0,0,6,6.7,1.561,1.561,0,0,0,7.6,5.2,1.645,1.645,0,0,0,6,3.6Z"/>
          </g>
          <g id="组_1208" data-name="组 1208">
            <path id="路径_2177" data-name="路径 2177" d="M18.3,3.6a1.6,1.6,0,1,0,1.6,1.6,1.58,1.58,0,0,0-1.6-1.6Z"/>
          </g>
          <g id="组_1209" data-name="组 1209">
            <path id="路径_2178" data-name="路径 2178" d="M30.2,3.6a1.6,1.6,0,1,0,1.6,1.6,1.58,1.58,0,0,0-1.6-1.6Z"/>
          </g>
          <g id="组_1210" data-name="组 1210">
            <path id="路径_2179" data-name="路径 2179" d="M41.8,3.6a1.6,1.6,0,1,0,1.6,1.6,1.58,1.58,0,0,0-1.6-1.6Z"/>
          </g>
        </g>
        <g id="组_1216" data-name="组 1216">
          <g id="组_1212" data-name="组 1212">
            <path id="路径_2180" data-name="路径 2180" d="M6.1,13.1a1.6,1.6,0,1,0,1.6,1.6,1.58,1.58,0,0,0-1.6-1.6Z"/>
          </g>
          <g id="组_1213" data-name="组 1213">
            <path id="路径_2181" data-name="路径 2181" d="M18.4,13.1A1.6,1.6,0,1,0,20,14.7a1.58,1.58,0,0,0-1.6-1.6Z"/>
          </g>
          <g id="组_1214" data-name="组 1214">
            <path id="路径_2182" data-name="路径 2182" d="M30.3,13.1a1.6,1.6,0,1,0,1.6,1.6,1.58,1.58,0,0,0-1.6-1.6Z"/>
          </g>
          <g id="组_1215" data-name="组 1215">
            <path id="路径_2183" data-name="路径 2183" d="M41.9,13.1a1.6,1.6,0,1,0,1.6,1.6,1.58,1.58,0,0,0-1.6-1.6Z"/>
          </g>
        </g>
        <g id="组_1221" data-name="组 1221">
          <g id="组_1217" data-name="组 1217">
            <path id="路径_2184" data-name="路径 2184" d="M6.1,22.6a1.6,1.6,0,1,0,1.6,1.6,1.58,1.58,0,0,0-1.6-1.6Z"/>
          </g>
          <g id="组_1218" data-name="组 1218">
            <path id="路径_2185" data-name="路径 2185" d="M18.4,22.6a1.6,1.6,0,0,0,0,3.2,1.6,1.6,0,1,0,0-3.2Z"/>
          </g>
          <g id="组_1219" data-name="组 1219">
            <path id="路径_2186" data-name="路径 2186" d="M30.3,22.6a1.6,1.6,0,1,0,1.6,1.6,1.58,1.58,0,0,0-1.6-1.6Z"/>
          </g>
          <g id="组_1220" data-name="组 1220">
            <path id="路径_2187" data-name="路径 2187" d="M41.9,22.6a1.6,1.6,0,1,0,1.6,1.6,1.58,1.58,0,0,0-1.6-1.6Z"/>
          </g>
        </g>
        <g id="组_1226" data-name="组 1226">
          <g id="组_1222" data-name="组 1222">
            <path id="路径_2188" data-name="路径 2188" d="M6.1,32.1a1.6,1.6,0,1,0,1.6,1.6,1.58,1.58,0,0,0-1.6-1.6Z"/>
          </g>
          <g id="组_1223" data-name="组 1223">
            <path id="路径_2189" data-name="路径 2189" d="M18.4,32.1A1.6,1.6,0,1,0,20,33.7a1.58,1.58,0,0,0-1.6-1.6Z"/>
          </g>
          <g id="组_1224" data-name="组 1224">
            <path id="路径_2190" data-name="路径 2190" d="M30.3,32.1a1.6,1.6,0,1,0,1.6,1.6,1.58,1.58,0,0,0-1.6-1.6Z"/>
          </g>
          <g id="组_1225" data-name="组 1225">
            <path id="路径_2191" data-name="路径 2191" d="M41.9,32.1a1.6,1.6,0,1,0,1.6,1.6,1.58,1.58,0,0,0-1.6-1.6Z"/>
          </g>
        </g>
        <g id="组_1231" data-name="组 1231">
          <g id="组_1227" data-name="组 1227">
            <path id="路径_2192" data-name="路径 2192" d="M6.1,41.6a1.6,1.6,0,1,0,1.6,1.6,1.58,1.58,0,0,0-1.6-1.6Z"/>
          </g>
          <g id="组_1228" data-name="组 1228">
            <path id="路径_2193" data-name="路径 2193" d="M18.4,41.6A1.6,1.6,0,1,0,20,43.2a1.58,1.58,0,0,0-1.6-1.6Z"/>
          </g>
          <g id="组_1229" data-name="组 1229">
            <path id="路径_2194" data-name="路径 2194" d="M30.3,41.6a1.6,1.6,0,1,0,1.6,1.6,1.58,1.58,0,0,0-1.6-1.6Z"/>
          </g>
          <g id="组_1230" data-name="组 1230">
            <path id="路径_2195" data-name="路径 2195" d="M41.9,41.6a1.6,1.6,0,1,0,1.6,1.6,1.58,1.58,0,0,0-1.6-1.6Z"/>
          </g>
        </g>
      </g>
    </g>
  </g>
</svg>
