<?xml version='1.0' encoding='utf-8'?>
<!DOCTYPE svg PUBLIC '-//W3C//DTD SVG 1.1//EN' 'http://www.w3.org/Graphics/SVG/1.1/DTD/svg11.dtd'>
<!-- Generator: Adobe Illustrator 16.0.0, SVG Export Plug-In . SVG Version: 6.00 Build 0)  -->
<svg version="1.1" xml:space="preserve" xmlns="http://www.w3.org/2000/svg" x="0px" width="48px" viewBox="0 0 48 48" enable-background="new 0 0 48 48" y="0px" xmlns:xlink="http://www.w3.org/1999/xlink" height="48px">
    <g id="硅化灰岩">
        <line y1="8.499" fill="none" stroke-miterlimit="10" x2="48" y2="8.499" stroke="#000000" x1="0"/>
        <line y1="11.083" fill="none" stroke-miterlimit="10" x2="48" y2="11.083" stroke="#000000" x1="0"/>
        <line y1="25.166" fill="none" stroke-miterlimit="10" x2="48" y2="25.166" stroke="#000000" x1="0"/>
        <line y1="27.916" fill="none" stroke-miterlimit="10" x2="48" y2="27.916" stroke="#000000" x1="0"/>
        <line y1="43.166" fill="none" stroke-miterlimit="10" x2="48" y2="43.166" stroke="#000000" x1="0"/>
        <line y1="45.083" fill="none" stroke-miterlimit="10" x2="48" y2="45.083" stroke="#000000" x1="0"/>
        <line y1="0" fill="none" stroke-miterlimit="10" x2="6.334" y2="8.083" stroke="#000000" x1="6.334"/>
        <line y1="0" fill="none" stroke-miterlimit="10" x2="31.834" y2="8.082" stroke="#000000" x1="31.834"/>
        <line y1="11" fill="none" stroke-miterlimit="10" x2="18.084" y2="25.332" stroke="#000000" x1="18.084"/>
        <line y1="11" fill="none" stroke-miterlimit="10" x2="43.584" y2="25.332" stroke="#000000" x1="43.584"/>
        <line y1="28.417" fill="none" stroke-miterlimit="10" x2="6.334" y2="42.832" stroke="#000000" x1="6.334"/>
        <line y1="28.417" fill="none" stroke-miterlimit="10" x2="31.834" y2="42.832" stroke="#000000" x1="31.834"/>
        <line y1="45.583" fill="none" stroke-miterlimit="10" x2="18.084" y2="48" stroke="#000000" x1="18.084"/>
        <line y1="45.083" fill="none" stroke-miterlimit="10" x2="43.584" y2="48" stroke="#000000" x1="43.584"/>
        <polyline fill="none" stroke-miterlimit="10" points="19.5,2.081 14.417,5.498 19.834,5.498 &#x9;" stroke="#000000"/>
        <polyline fill="none" stroke-miterlimit="10" points="43.25,2.081 38.168,5.498 43.584,5.498 &#x9;" stroke="#000000"/>
        <polyline fill="none" stroke-miterlimit="10" points="10.773,16.116 5.691,19.533 11.107,19.533 &#x9;" stroke="#000000"/>
        <polyline fill="none" stroke-miterlimit="10" points="33.717,16.116 28.635,19.533 34.051,19.533 &#x9;" stroke="#000000"/>
        <polyline fill="none" stroke-miterlimit="10" points="21.743,33.403 16.661,36.82 22.077,36.82 &#x9;" stroke="#000000"/>
        <polyline fill="none" stroke-miterlimit="10" points="43.25,33.002 38.168,36.419 43.584,36.419 &#x9;" stroke="#000000"/>
    </g>
</svg>
