<?xml version='1.0' encoding='utf-8'?>
<!DOCTYPE svg PUBLIC '-//W3C//DTD SVG 1.1//EN' 'http://www.w3.org/Graphics/SVG/1.1/DTD/svg11.dtd'>
<!-- Generator: Adobe Illustrator 16.0.0, SVG Export Plug-In . SVG Version: 6.00 Build 0)  -->
<svg version="1.1" xml:space="preserve" xmlns="http://www.w3.org/2000/svg" x="0px" width="48px" viewBox="0 0 48 48" enable-background="new 0 0 48 48" y="0px" xmlns:xlink="http://www.w3.org/1999/xlink" height="48px">
    <g id="硅质灰岩">
        <line y1="3.827" fill="none" stroke-miterlimit="10" x2="48" y2="3.827" stroke="#000000" x1="0"/>
        <line y1="13.833" fill="none" stroke-miterlimit="10" x2="48" y2="13.833" stroke="#000000" x1="0"/>
        <line y1="23.41" fill="none" stroke-miterlimit="10" x2="48" y2="23.41" stroke="#000000" x1="0"/>
        <line y1="33.576" fill="none" stroke-miterlimit="10" x2="48" y2="33.576" stroke="#000000" x1="0"/>
        <line y1="43.41" fill="none" stroke-miterlimit="10" x2="48" y2="43.41" stroke="#000000" x1="0"/>
        <line y1="0" fill="none" stroke-miterlimit="10" x2="16.75" y2="3.827" stroke="#000000" x1="16.75"/>
        <line y1="0.208" fill="none" stroke-miterlimit="10" x2="42.917" y2="3.619" stroke="#000000" x1="42.917"/>
        <line y1="43.41" fill="none" stroke-miterlimit="10" x2="7.25" y2="48" stroke="#000000" x1="7.25"/>
        <line y1="43.41" fill="none" stroke-miterlimit="10" x2="33.25" y2="48" stroke="#000000" x1="33.25"/>
        <line y1="3.827" fill="none" stroke-miterlimit="10" x2="7.25" y2="13.833" stroke="#000000" x1="7.25"/>
        <line y1="24" fill="none" stroke-miterlimit="10" x2="7.25" y2="33.576" stroke="#000000" x1="7.25"/>
        <line y1="3.827" fill="none" stroke-miterlimit="10" x2="33.25" y2="13.833" stroke="#000000" x1="33.25"/>
        <line y1="23.41" fill="none" stroke-miterlimit="10" x2="33.25" y2="33.576" stroke="#000000" x1="33.25"/>
        <line y1="13.833" fill="none" stroke-miterlimit="10" x2="16.75" y2="23.41" stroke="#000000" x1="16.75"/>
        <line y1="13.833" fill="none" stroke-miterlimit="10" x2="42.917" y2="23.41" stroke="#000000" x1="42.917"/>
        <line y1="33.576" fill="none" stroke-miterlimit="10" x2="16.75" y2="43.41" stroke="#000000" x1="16.75"/>
        <line y1="33.576" fill="none" stroke-miterlimit="10" x2="42.917" y2="43.41" stroke="#000000" x1="42.917"/>
        <polyline fill="none" stroke-miterlimit="10" points="19.833,5.994 12.333,10.744 21.167,10.744 &#x9;" stroke="#000000"/>
        <polyline fill="none" stroke-miterlimit="10" points="36.333,15.239 28.833,19.989 37.667,19.989 &#x9;" stroke="#000000"/>
        <polyline fill="none" stroke-miterlimit="10" points="19.833,25.689 12.333,30.44 21.167,30.44 &#x9;" stroke="#000000"/>
        <polyline fill="none" stroke-miterlimit="10" points="36.333,34.978 28.833,39.729 37.667,39.729 &#x9;" stroke="#000000"/>
        <polyline fill="none" stroke-miterlimit="10" points="10.333,35.688 2.833,40.439 11.667,40.439 &#x9;" stroke="#000000"/>
        <polyline fill="none" stroke-miterlimit="10" points="10.333,15.238 2.833,19.989 11.667,19.989 &#x9;" stroke="#000000"/>
        <polyline fill="none" stroke-miterlimit="10" points="45.546,5.017 38.046,9.768 46.879,9.768 &#x9;" stroke="#000000"/>
        <polyline fill="none" stroke-miterlimit="10" points="45.546,24.965 38.046,29.716 46.879,29.716 &#x9;" stroke="#000000"/>
    </g>
</svg>
