<?xml version='1.0' encoding='utf-8'?>
<!DOCTYPE svg PUBLIC '-//W3C//DTD SVG 1.1//EN' 'http://www.w3.org/Graphics/SVG/1.1/DTD/svg11.dtd'>
<!-- Generator: Adobe Illustrator 16.0.0, SVG Export Plug-In . SVG Version: 6.00 Build 0)  -->
<svg version="1.1" xml:space="preserve" xmlns="http://www.w3.org/2000/svg" x="0px" width="48px" viewBox="0 0 48 48" enable-background="new 0 0 48 48" y="0px" xmlns:xlink="http://www.w3.org/1999/xlink" height="48px">
    <g id="硅质板岩">
        <path d="M0.107,30.955c0,0,4.472-5.303,10.327-0.494&#xa;&#x9;&#x9;c1.734,0.906,3.685,2.5,9.919-0.357c2.004-0.824,6.233-3.275,11.004-0.016c1.789,1.006,4.281,2.543,8.836-0.369&#xa;&#x9;&#x9;c1.354-0.604,5.096-3.9,8.129,1.43" fill="none" stroke-miterlimit="10" stroke="#000000"/>
        <path d="M0.107,28.383c0,0,4.472-5.303,10.327-0.494&#xa;&#x9;&#x9;c1.734,0.906,3.685,2.5,9.919-0.357c2.004-0.824,6.233-3.275,11.004-0.016c1.789,1.006,4.281,2.543,8.836-0.369&#xa;&#x9;&#x9;c1.354-0.604,5.096-3.9,8.129,1.43" fill="none" stroke-miterlimit="10" stroke="#000000"/>
        <path d="M0.107,14.96c0,0,4.472-5.303,10.327-0.494&#xa;&#x9;&#x9;c1.734,0.906,3.685,2.5,9.919-0.357c2.004-0.824,6.233-3.275,11.004-0.016c1.789,1.006,4.281,2.543,8.836-0.369&#xa;&#x9;&#x9;c1.354-0.604,5.096-3.901,8.129,1.43" fill="none" stroke-miterlimit="10" stroke="#000000"/>
        <path d="M0.107,12.388c0,0,4.472-5.302,10.327-0.494&#xa;&#x9;&#x9;c1.734,0.906,3.685,2.5,9.919-0.357c2.004-0.824,6.233-3.275,11.004-0.016c1.789,1.006,4.281,2.543,8.836-0.369&#xa;&#x9;&#x9;c1.354-0.604,5.096-3.901,8.129,1.43" fill="none" stroke-miterlimit="10" stroke="#000000"/>
        <path d="M0,45.029c0,0,4.472-5.303,10.327-0.494&#xa;&#x9;&#x9;c1.734,0.906,3.685,2.5,9.919-0.357c2.004-0.824,6.233-3.275,11.004-0.016c1.789,1.006,4.281,2.543,8.836-0.369&#xa;&#x9;&#x9;c1.354-0.604,5.096-3.9,8.129,1.43" fill="none" stroke-miterlimit="10" stroke="#000000"/>
        <path d="M0,42.457c0,0,4.472-5.303,10.327-0.494&#xa;&#x9;&#x9;c1.734,0.906,3.685,2.5,9.919-0.357c2.004-0.824,6.233-3.275,11.004-0.016c1.789,1.006,4.281,2.543,8.836-0.369&#xa;&#x9;&#x9;c1.354-0.604,5.096-3.9,8.129,1.43" fill="none" stroke-miterlimit="10" stroke="#000000"/>
        <polyline fill="none" stroke-miterlimit="10" points="9.584,0.583 2.417,4.583 10.167,4.583 &#x9;" stroke="#000000"/>
        <polyline fill="none" stroke-miterlimit="10" points="33.183,2.583 26.017,6.584 33.767,6.584 &#x9;" stroke="#000000"/>
        <polyline fill="none" stroke-miterlimit="10" points="8.402,32.185 1.236,36.185 8.986,36.185 &#x9;" stroke="#000000"/>
        <polyline fill="none" stroke-miterlimit="10" points="31.042,31.73 23.876,35.73 31.626,35.73 &#x9;" stroke="#000000"/>
        <polyline fill="none" stroke-miterlimit="10" points="20.123,19.735 12.957,23.736 20.707,23.736 &#x9;" stroke="#000000"/>
        <polyline fill="none" stroke-miterlimit="10" points="44.775,15.062 37.609,19.063 45.359,19.063 &#x9;" stroke="#000000"/>
    </g>
</svg>
