<svg xmlns="http://www.w3.org/2000/svg" width="48" height="48" viewBox="0 0 48 48">
  <g id="碎石素填土" transform="translate(-6197 -56)">
    <path id="路径_3257" data-name="路径 3257" d="M0,0H48V48H0Z" transform="translate(6197 56)" fill="none"/>
    <g id="碎石素填土-2" data-name="碎石素填土" transform="translate(6196.532 55.95)">
      <path id="路径_2196" data-name="路径 2196" d="M11.2,21.4H5.8c-.2,0-.3-.1-.4-.3a.454.454,0,0,1,0-.5L8,15.8a.562.562,0,0,1,.9,0l2.7,4.9a.446.446,0,0,1,0,.5A.758.758,0,0,1,11.2,21.4Zm-4.6-1h3.7L8.5,17.1Z"/>
      <path id="路径_2197" data-name="路径 2197" d="M26.8,21.4H21.4c-.2,0-.3-.1-.4-.3a.454.454,0,0,1,0-.5l2.7-4.9a.536.536,0,0,1,.4-.3h0c.2,0,.4.1.4.3l2.7,4.9a.446.446,0,0,1,0,.5C27.1,21.2,26.9,21.4,26.8,21.4Zm-4.6-1h3.7l-1.8-3.3Z"/>
      <path id="路径_2198" data-name="路径 2198" d="M42.3,21.4H36.9c-.2,0-.3-.1-.4-.3a.454.454,0,0,1,0-.5l2.7-4.9a.563.563,0,0,1,.9,0l2.7,4.9a.446.446,0,0,1,0,.5A.85.85,0,0,1,42.3,21.4Zm-4.5-1h3.7l-1.8-3.3Z"/>
      <g id="组_1233" data-name="组 1233">
        <path id="路径_2199" data-name="路径 2199" d="M8.5,10.4H3.1c-.2,0-.3-.1-.4-.3a.454.454,0,0,1,0-.5L5.4,4.7a.562.562,0,0,1,.9,0L9,9.6a1.268,1.268,0,0,1-.1.6A.4.4,0,0,1,8.5,10.4Zm-4.6-1H7.6L5.8,6.1Z"/>
        <path id="路径_2200" data-name="路径 2200" d="M16.8,10.4H11.4c-.2,0-.3-.1-.4-.3a.454.454,0,0,1,0-.5l2.7-4.9a.536.536,0,0,1,.4-.3h0c.2,0,.4.1.4.3l2.7,4.9a.446.446,0,0,1,0,.5C17.1,10.2,17,10.4,16.8,10.4Zm-4.5-1H16L14.2,6.1Z"/>
        <path id="路径_2201" data-name="路径 2201" d="M7.6,8.3c-.1,0-.2,0-.2-.1-.3-.1-.4-.4-.2-.6L9.8,2.9c.1-.2.2-.3.4-.3h0a.52.52,0,0,1,.4.2l2.6,4.5A.663.663,0,0,1,13,8a.663.663,0,0,1-.7-.2L10.2,4,8,8A.536.536,0,0,1,7.6,8.3Z"/>
      </g>
      <path id="路径_2202" data-name="路径 2202" d="M30.5,10.4H25.1c-.2,0-.3-.1-.4-.3a.454.454,0,0,1,0-.5l2.7-4.9a.562.562,0,0,1,.9,0L31,9.6a.446.446,0,0,1,0,.5A.85.85,0,0,1,30.5,10.4ZM26,9.4h3.7L27.9,6.1Z"/>
      <path id="路径_2203" data-name="路径 2203" d="M45,10.4H39.6c-.2,0-.3-.1-.4-.3a.454.454,0,0,1,0-.5l2.7-4.9a.563.563,0,0,1,.9,0l2.7,4.9a.446.446,0,0,1,0,.5A.85.85,0,0,1,45,10.4Zm-4.5-1h3.7L42.4,6.1Z"/>
      <path id="路径_2204" data-name="路径 2204" d="M35.8,8.3c-.1,0-.2,0-.2-.1a.574.574,0,0,1-.2-.7L38,2.8c.1-.2.2-.3.4-.3h0a.52.52,0,0,1,.4.2l2.6,4.5a.663.663,0,0,1-.2.7.663.663,0,0,1-.7-.2L38.4,3.9l-2.1,4C36.1,8.2,35.9,8.3,35.8,8.3Z"/>
      <path id="路径_2205" data-name="路径 2205" d="M11.2,45.5H5.8c-.2,0-.3-.1-.4-.3a.454.454,0,0,1,0-.5L8,39.9a.563.563,0,0,1,.9,0l2.7,4.9a.446.446,0,0,1,0,.5A.758.758,0,0,1,11.2,45.5Zm-4.6-1h3.7L8.5,41.2Z"/>
      <path id="路径_2206" data-name="路径 2206" d="M26.8,45.5H21.4c-.2,0-.3-.1-.4-.3a.454.454,0,0,1,0-.5l2.7-4.9a.536.536,0,0,1,.4-.3h0c.2,0,.4.1.4.3l2.7,4.9a.446.446,0,0,1,0,.5A.536.536,0,0,1,26.8,45.5Zm-4.6-1h3.7l-1.8-3.3Z"/>
      <path id="路径_2207" data-name="路径 2207" d="M42.3,45.5H36.9c-.2,0-.3-.1-.4-.3a.454.454,0,0,1,0-.5l2.7-4.9a.563.563,0,0,1,.9,0l2.7,4.9a.446.446,0,0,1,0,.5A.55.55,0,0,1,42.3,45.5Zm-4.5-1h3.7l-1.8-3.3Z"/>
      <g id="组_1234" data-name="组 1234">
        <path id="路径_2208" data-name="路径 2208" d="M8.5,34.4H3.1c-.2,0-.3-.1-.4-.3a.454.454,0,0,1,0-.5l2.7-4.9a.563.563,0,0,1,.9,0L9,33.6a1.268,1.268,0,0,1-.1.6A.758.758,0,0,1,8.5,34.4Zm-4.6-1H7.6L5.8,30.1Z"/>
        <path id="路径_2209" data-name="路径 2209" d="M16.8,34.4H11.4c-.2,0-.3-.1-.4-.3a.454.454,0,0,1,0-.5l2.7-4.9a.536.536,0,0,1,.4-.3h0c.2,0,.4.1.4.3l2.7,4.9a.446.446,0,0,1,0,.5C17.2,34.3,17,34.4,16.8,34.4Zm-4.5-1H16l-1.8-3.3Z"/>
        <path id="路径_2210" data-name="路径 2210" d="M7.6,32.3c-.1,0-.2,0-.2-.1a.574.574,0,0,1-.2-.7l2.6-4.7c.1-.2.2-.3.4-.3h0a.52.52,0,0,1,.4.2l2.6,4.5a.663.663,0,0,1-.2.7.663.663,0,0,1-.7-.2l-2.1-3.8-2.1,4C7.9,32.2,7.7,32.3,7.6,32.3Z"/>
      </g>
      <path id="路径_2211" data-name="路径 2211" d="M30.5,34.4H25.1c-.2,0-.3-.1-.4-.3a.454.454,0,0,1,0-.5l2.7-4.9a.563.563,0,0,1,.9,0L31,33.6a.446.446,0,0,1,0,.5C30.8,34.3,30.7,34.4,30.5,34.4Zm-4.5-1h3.7l-1.8-3.3Z"/>
      <path id="路径_2212" data-name="路径 2212" d="M45,34.4H39.6c-.2,0-.3-.1-.4-.3a.454.454,0,0,1,0-.5l2.7-4.9a.563.563,0,0,1,.9,0l2.7,4.9a.446.446,0,0,1,0,.5A.55.55,0,0,1,45,34.4Zm-4.5-1h3.7l-1.8-3.3Z"/>
      <path id="路径_2213" data-name="路径 2213" d="M35.8,32.3c-.1,0-.2,0-.2-.1a.574.574,0,0,1-.2-.7L38,26.8c.1-.2.2-.3.4-.3h0a.52.52,0,0,1,.4.2l2.6,4.5a.515.515,0,0,1-.9.5l-2.1-3.8-2.1,4C36.1,32.2,35.9,32.3,35.8,32.3Z"/>
    </g>
  </g>
</svg>
