<?xml version='1.0' encoding='utf-8'?>
<!DOCTYPE svg PUBLIC '-//W3C//DTD SVG 1.1//EN' 'http://www.w3.org/Graphics/SVG/1.1/DTD/svg11.dtd'>
<!-- Generator: Adobe Illustrator 16.0.0, SVG Export Plug-In . SVG Version: 6.00 Build 0)  -->
<svg version="1.1" xml:space="preserve" xmlns="http://www.w3.org/2000/svg" x="0px" width="48px" viewBox="0 0 48 48" enable-background="new 0 0 48 48" y="0px" xmlns:xlink="http://www.w3.org/1999/xlink" height="48px">
    <g id="磷灰岩">
        <line y1="6.827" fill="none" stroke-miterlimit="10" x2="48" y2="6.827" stroke="#000000" x1="0"/>
        <line y1="16.833" fill="none" stroke-miterlimit="10" x2="48" y2="16.833" stroke="#000000" x1="0"/>
        <line y1="26.41" fill="none" stroke-miterlimit="10" x2="48" y2="26.41" stroke="#000000" x1="0"/>
        <line y1="36.576" fill="none" stroke-miterlimit="10" x2="48" y2="36.576" stroke="#000000" x1="0"/>
        <line y1="46.41" fill="none" stroke-miterlimit="10" x2="48" y2="46.41" stroke="#000000" x1="0"/>
        <text transform="matrix(1 0 0 1 20.5835 7.1821)" font-family="'SimSun'" font-size="10.668">P</text>
        <text transform="matrix(1 0 0 1 21 26.0762)" font-family="'SimSun'" font-size="12">P</text>
        <text transform="matrix(1 0 0 1 22.167 45.4932)" font-family="'SimSun'" font-size="12">P</text>
        <text transform="matrix(1 0 0 1 3.75 15.9102)" font-family="'SimSun'" font-size="12">P</text>
        <text transform="matrix(1 0 0 1 36.334 16.2437)" font-family="'SimSun'" font-size="12">P</text>
        <text transform="matrix(1 0 0 1 4.291 35.5762)" font-family="'SimSun'" font-size="12">P</text>
        <text transform="matrix(1 0 0 1 36.875 35.9102)" font-family="'SimSun'" font-size="12">P</text>
    </g>
</svg>
