<?xml version="1.0" encoding="utf-8"?>
<!-- Generator: Adobe Illustrator 22.1.0, SVG Export Plug-In . SVG Version: 6.00 Build 0)  -->
<svg version="1.1" xml:space="preserve" xmlns="http://www.w3.org/2000/svg" x="0px" width="48px" viewBox="0 0 48 48" enable-background="new 0 0 48 48" y="0px" xmlns:xlink="http://www.w3.org/1999/xlink" height="48px">
<style type="text/css">
	.st0{fill:none;stroke:#595758;stroke-miterlimit:10;}
	.st1{fill:none;stroke:#595758;stroke-miterlimit:10;stroke-dasharray:11.1199,11.1199;}
	.st2{fill:none;stroke:#595758;stroke-miterlimit:10;stroke-dasharray:10.8257,10.8257;}
	.st3{fill:none;stroke:#595758;stroke-miterlimit:10;stroke-dasharray:10.8021,10.8021;}
</style>
<path class="st0" d="M6.6,38.8c0,0,0.7-3.2,4.3,0.1c3.2,3,4.4-0.9,4.1-1"/>
<g>
	<g>
		<g>
			<line class="st0" x1="0" y1="48" x2="4.2" y2="43.8"/>
			<line class="st1" x1="12.1" y1="35.8" x2="39.6" y2="8.3"/>
			<line class="st0" x1="43.6" y1="4.3" x2="47.8" y2="0.1"/>
		</g>
	</g>
	<g>
		<g>
			<line class="st0" x1="32.2" y1="48" x2="36.4" y2="43.8"/>
			<line class="st0" x1="43.8" y1="36.3" x2="48" y2="32.1"/>
		</g>
	</g>
	<g>
		<g>
			<line class="st0" x1="0" y1="16" x2="4.2" y2="11.8"/>
			<line class="st0" x1="11.8" y1="4.2" x2="16" y2="0"/>
		</g>
	</g>
	<g>
		<g>
			<line class="st0" x1="0.1" y1="31.6" x2="4.3" y2="27.4"/>
			<line class="st2" x1="12" y1="19.8" x2="23.4" y2="8.2"/>
			<line class="st0" x1="27.3" y1="4.3" x2="31.5" y2="0.1"/>
		</g>
	</g>
	<g>
		<g>
			<line class="st0" x1="16.5" y1="48" x2="20.7" y2="43.8"/>
			<line class="st3" x1="28.4" y1="36" x2="39.8" y2="24.6"/>
			<line class="st0" x1="43.7" y1="20.8" x2="47.9" y2="16.5"/>
		</g>
	</g>
</g>
<path class="st0" d="M6.5,6.9c0,0,0.7-3.2,4.3,0.1c3.2,3,4.4-0.9,4.1-1"/>
<path class="st0" d="M22.3,7c0,0,0.7-3.2,4.3,0.1c3.2,3,4.4-0.9,4.1-1"/>
<path class="st0" d="M38.4,7c0,0,0.7-3.2,4.3,0.1c3.2,3,4.4-0.9,4.1-1"/>
<path class="st0" d="M6.5,22.8c0,0,0.7-3.2,4.3,0.1c3.2,3,4.4-0.9,4.1-1"/>
<path class="st0" d="M22.3,23c0,0,0.7-3.2,4.3,0.1c3.2,3,4.4-0.9,4.1-1"/>
<path class="st0" d="M38.4,23c0,0,0.7-3.2,4.3,0.1c3.2,3,4.4-0.9,4.1-1"/>
<path class="st0" d="M6.5,38.7c0,0,0.7-3.2,4.3,0.1c3.2,3,4.4-0.9,4.1-1"/>
<path class="st0" d="M22.3,38.9c0,0,0.7-3.2,4.3,0.1c3.2,3,4.4-0.9,4.1-1"/>
<path class="st0" d="M38.4,38.9c0,0,0.7-3.2,4.3,0.1c3.2,3,4.4-0.9,4.1-1"/>
</svg>
