<?xml version="1.0" encoding="utf-8"?>
<!-- Generator: Adobe Illustrator 22.1.0, SVG Export Plug-In . SVG Version: 6.00 Build 0)  -->
<svg version="1.1" id="图层_1" xmlns="http://www.w3.org/2000/svg" xmlns:xlink="http://www.w3.org/1999/xlink" x="0px" y="0px"
	 width="48px" height="48px" viewBox="0 0 48 48" style="enable-background:new 0 0 48 48;" xml:space="preserve">
<style type="text/css">
	.st0{fill:none;}
	.st1{fill:#595758;}
</style>
<g>
	<polygon class="st0" points="17,0 0,17 0,31.1 31,0 	"/>
	<polygon class="st0" points="48,0.9 0.9,48 15.5,48 48,15.5 	"/>
	<polygon class="st0" points="32.4,0 32.5,0.1 0.1,32.6 0,32.6 0,47.3 47.3,0 	"/>
	<polygon class="st0" points="48,17 17,48 31.2,48 48,31.2 	"/>
	<polygon class="st0" points="0,0 0,15.4 15.4,0 	"/>
	<polygon class="st0" points="32.7,48 48,48 48,32.7 	"/>
	<polygon class="st1" points="48,0 47.3,0 0,47.3 0,48 0.9,48 48,0.9 	"/>
	<polygon class="st1" points="48,31.2 31.2,48 32.7,48 48,32.7 	"/>
	<polygon class="st1" points="15.4,0 0,15.4 0,17 17,0 	"/>
	<polygon class="st1" points="32.5,0.1 32.4,0 31,0 0,31.1 0,32.6 0.1,32.6 	"/>
	<polygon class="st1" points="48,15.5 15.5,48 17,48 48,17 	"/>
</g>
<g>
	<g>
		<g>
			<path d="M6,3.6c-0.9,0-1.6,0.7-1.6,1.6S5.1,6.7,6,6.7S7.6,6,7.6,5.2S6.9,3.6,6,3.6L6,3.6z"/>
		</g>
		<g>
			<path d="M18.3,3.6c-0.9,0-1.6,0.7-1.6,1.6s0.7,1.6,1.6,1.6s1.6-0.7,1.6-1.6S19.2,3.6,18.3,3.6L18.3,3.6z"/>
		</g>
		<g>
			<path d="M30.2,3.6c-0.9,0-1.6,0.7-1.6,1.6s0.7,1.6,1.6,1.6s1.6-0.7,1.6-1.6S31.1,3.6,30.2,3.6L30.2,3.6z"/>
		</g>
		<g>
			<path d="M41.8,3.6c-0.9,0-1.6,0.7-1.6,1.6s0.7,1.6,1.6,1.6s1.6-0.7,1.6-1.6S42.7,3.6,41.8,3.6L41.8,3.6z"/>
		</g>
	</g>
	<g>
		<g>
			<path d="M6.1,13.1c-0.9,0-1.6,0.7-1.6,1.6c0,0.9,0.7,1.6,1.6,1.6s1.6-0.7,1.6-1.6S7,13.1,6.1,13.1L6.1,13.1z"/>
		</g>
		<g>
			<path d="M18.4,13.1c-0.9,0-1.6,0.7-1.6,1.6c0,0.9,0.7,1.6,1.6,1.6s1.6-0.7,1.6-1.6S19.3,13.1,18.4,13.1L18.4,13.1z"/>
		</g>
		<g>
			<path d="M30.3,13.1c-0.9,0-1.6,0.7-1.6,1.6c0,0.9,0.7,1.6,1.6,1.6s1.6-0.7,1.6-1.6S31.2,13.1,30.3,13.1L30.3,13.1z"/>
		</g>
		<g>
			<path d="M41.9,13.1c-0.9,0-1.6,0.7-1.6,1.6c0,0.9,0.7,1.6,1.6,1.6c0.9,0,1.6-0.7,1.6-1.6S42.8,13.1,41.9,13.1L41.9,13.1z"/>
		</g>
	</g>
	<g>
		<g>
			<path d="M6.1,22.6c-0.9,0-1.6,0.7-1.6,1.6s0.7,1.6,1.6,1.6s1.6-0.7,1.6-1.6S7,22.6,6.1,22.6L6.1,22.6z"/>
		</g>
		<g>
			<path d="M18.4,22.6c-0.9,0-1.6,0.7-1.6,1.6s0.7,1.6,1.6,1.6S20,25,20,24.2S19.3,22.6,18.4,22.6L18.4,22.6z"/>
		</g>
		<g>
			<path d="M30.3,22.6c-0.9,0-1.6,0.7-1.6,1.6s0.7,1.6,1.6,1.6s1.6-0.7,1.6-1.6S31.2,22.6,30.3,22.6L30.3,22.6z"/>
		</g>
		<g>
			<path d="M41.9,22.6c-0.9,0-1.6,0.7-1.6,1.6s0.7,1.6,1.6,1.6c0.9,0,1.6-0.7,1.6-1.6S42.8,22.6,41.9,22.6L41.9,22.6z"/>
		</g>
	</g>
	<g>
		<g>
			<path d="M6.1,32.1c-0.9,0-1.6,0.7-1.6,1.6c0,0.9,0.7,1.6,1.6,1.6s1.6-0.7,1.6-1.6S7,32.1,6.1,32.1L6.1,32.1z"/>
		</g>
		<g>
			<path d="M18.4,32.1c-0.9,0-1.6,0.7-1.6,1.6c0,0.9,0.7,1.6,1.6,1.6s1.6-0.7,1.6-1.6S19.3,32.1,18.4,32.1L18.4,32.1z"/>
		</g>
		<g>
			<path d="M30.3,32.1c-0.9,0-1.6,0.7-1.6,1.6c0,0.9,0.7,1.6,1.6,1.6s1.6-0.7,1.6-1.6S31.2,32.1,30.3,32.1L30.3,32.1z"/>
		</g>
		<g>
			<path d="M41.9,32.1c-0.9,0-1.6,0.7-1.6,1.6c0,0.9,0.7,1.6,1.6,1.6c0.9,0,1.6-0.7,1.6-1.6S42.8,32.1,41.9,32.1L41.9,32.1z"/>
		</g>
	</g>
	<g>
		<g>
			<path d="M6.1,41.6c-0.9,0-1.6,0.7-1.6,1.6s0.7,1.6,1.6,1.6s1.6-0.7,1.6-1.6S7,41.6,6.1,41.6L6.1,41.6z"/>
		</g>
		<g>
			<path d="M18.4,41.6c-0.9,0-1.6,0.7-1.6,1.6s0.7,1.6,1.6,1.6s1.6-0.7,1.6-1.6S19.3,41.6,18.4,41.6L18.4,41.6z"/>
		</g>
		<g>
			<path d="M30.3,41.6c-0.9,0-1.6,0.7-1.6,1.6s0.7,1.6,1.6,1.6s1.6-0.7,1.6-1.6S31.2,41.6,30.3,41.6L30.3,41.6z"/>
		</g>
		<g>
			<path d="M41.9,41.6c-0.9,0-1.6,0.7-1.6,1.6s0.7,1.6,1.6,1.6c0.9,0,1.6-0.7,1.6-1.6S42.8,41.6,41.9,41.6L41.9,41.6z"/>
		</g>
	</g>
</g>
</svg>
