<svg xmlns="http://www.w3.org/2000/svg" width="48" height="48" viewBox="0 0 48 48">
  <g id="粉砂" transform="translate(-6262 -56)">
    <path id="路径_3258" data-name="路径 3258" d="M0,0H48V48H0Z" transform="translate(6262 56)" fill="none"/>
    <g id="粉砂-2" data-name="粉砂" transform="translate(-361 -100.855)">
      <path id="路径_2214" data-name="路径 2214" d="M.3,7S1.4,4.9,3,4.7a6.1,6.1,0,0,1,3.8.9c1.7.9,2.4,1.8,4.3,1.7a3.154,3.154,0,0,0,2.6-2A3.908,3.908,0,0,1,13,7a3.289,3.289,0,0,1-2.3,1.1,9.365,9.365,0,0,1-5-1.7C2.9,4.5.3,7,.3,7Z" transform="translate(6623.021 156.313)"/>
      <path id="路径_2215" data-name="路径 2215" d="M22.9,6.6S24,4.5,25.6,4.3a6.1,6.1,0,0,1,3.8.9c1.7.9,2.4,1.8,4.3,1.7a3.154,3.154,0,0,0,2.6-2,3.367,3.367,0,0,1-.6,1.7,3.289,3.289,0,0,1-2.3,1.1,9.365,9.365,0,0,1-5-1.7C25.6,4.1,22.9,6.6,22.9,6.6Z" transform="translate(6623.021 156.313)"/>
      <path id="路径_2216" data-name="路径 2216" d="M11.5,19.2s1.1-2.1,2.7-2.3a6.1,6.1,0,0,1,3.8.9c1.7.9,2.4,1.8,4.3,1.7a3.154,3.154,0,0,0,2.6-2,3.367,3.367,0,0,1-.6,1.7A3.289,3.289,0,0,1,22,20.3a9.365,9.365,0,0,1-5-1.7C14.2,16.6,11.5,19.2,11.5,19.2Z" transform="translate(6623.021 156.313)"/>
      <path id="路径_2217" data-name="路径 2217" d="M34.4,18.8s1.1-2.1,2.7-2.3a6.1,6.1,0,0,1,3.8.9c1.7.9,2.4,1.8,4.3,1.7a3.154,3.154,0,0,0,2.6-2,3.367,3.367,0,0,1-.6,1.7,3.289,3.289,0,0,1-2.3,1.1,9.365,9.365,0,0,1-5-1.7C37.1,16.2,34.4,18.8,34.4,18.8Z" transform="translate(6623.021 156.313)"/>
      <path id="路径_2218" data-name="路径 2218" d="M11.5,43.6s1.1-2.1,2.7-2.3a6.1,6.1,0,0,1,3.8.9c1.7.9,2.4,1.8,4.3,1.7a3.154,3.154,0,0,0,2.6-2,3.367,3.367,0,0,1-.6,1.7A3.289,3.289,0,0,1,22,44.7,9.365,9.365,0,0,1,17,43C14.2,41,11.5,43.6,11.5,43.6Z" transform="translate(6623.021 156.313)"/>
      <path id="路径_2219" data-name="路径 2219" d="M34.4,43.1s1.1-2.1,2.7-2.3a6.1,6.1,0,0,1,3.8.9c1.7.9,2.4,1.8,4.3,1.7a3.154,3.154,0,0,0,2.6-2,3.367,3.367,0,0,1-.6,1.7,3.289,3.289,0,0,1-2.3,1.1,9.365,9.365,0,0,1-5-1.7C37.1,40.6,34.4,43.1,34.4,43.1Z" transform="translate(6623.021 156.313)"/>
      <path id="路径_2220" data-name="路径 2220" d="M.3,31.4S1.4,29.3,3,29.1a6.1,6.1,0,0,1,3.8.9c1.7.9,2.4,1.8,4.3,1.7a3.154,3.154,0,0,0,2.6-2,3.367,3.367,0,0,1-.6,1.7,3.289,3.289,0,0,1-2.3,1.1,9.365,9.365,0,0,1-5-1.7C2.9,28.8.3,31.4.3,31.4Z" transform="translate(6623.021 156.313)"/>
      <path id="路径_2221" data-name="路径 2221" d="M22.9,31s1.1-2.1,2.7-2.3a6.1,6.1,0,0,1,3.8.9c1.7.9,2.4,1.8,4.3,1.7a3.154,3.154,0,0,0,2.6-2,3.367,3.367,0,0,1-.6,1.7,3.289,3.289,0,0,1-2.3,1.1,9.365,9.365,0,0,1-5-1.7C25.6,28.4,22.9,31,22.9,31Z" transform="translate(6623.021 156.313)"/>
    </g>
  </g>
</svg>
