<svg xmlns="http://www.w3.org/2000/svg" width="48.707" height="48.607" viewBox="0 0 48.707 48.607">
  <g id="粉砂与淤泥质粉土互层" transform="translate(-6410.646 -55.646)">
    <path id="路径_3260" data-name="路径 3260" d="M0,0H48V48H0Z" transform="translate(6411 56)" fill="none"/>
    <g id="粉砂与淤泥质粉土互层-2" data-name="粉砂与淤泥质粉土互层" transform="translate(6411 56)">
      <path id="路径_2241" data-name="路径 2241" d="M13.112,40.431a3.837,3.837,0,0,1-2.552-1.265c-1.137-1.042-2.1-1.509-2.706-1.317-.581.184-.764.949-.766.957l-.977-.214a2.394,2.394,0,0,1,1.44-1.7c.992-.314,2.232.2,3.686,1.535l0,0c.637.6,1.557,1.239,2.319.9a2,2,0,0,0,.983-1.409.43.43,0,0,0,.3.345l.316-.949a.577.577,0,0,1,.385.548,2.894,2.894,0,0,1-1.535,2.359A2.1,2.1,0,0,1,13.112,40.431Z" fill="#595758"/>
      <g id="组_1257" data-name="组 1257">
        <g id="组_1248" data-name="组 1248">
          <g id="组_1247" data-name="组 1247">
            <path id="直线_691" data-name="直线 691" d="M.354,4.554l-.707-.707,4.2-4.2.707.707Z" transform="translate(0 43.7)" fill="#595758"/>
            <path id="直线_692" data-name="直线 692" d="M.354,27.854l-.707-.707,7.863-7.863.707.707ZM16.079,12.128l-.707-.707,7.863-7.863.707.707Z" transform="translate(12.1 8.3)" fill="#595758"/>
            <path id="直线_693" data-name="直线 693" d="M.354,4.554l-.707-.707,4.2-4.2.707.707Z" transform="translate(43.6 0.1)" fill="#595758"/>
          </g>
        </g>
        <g id="组_1250" data-name="组 1250">
          <g id="组_1249" data-name="组 1249">
            <path id="直线_694" data-name="直线 694" d="M.354,4.554l-.707-.707,4.2-4.2.707.707Z" transform="translate(32.2 43.7)" fill="#595758"/>
            <path id="直线_695" data-name="直线 695" d="M.354,4.554l-.707-.707,4.2-4.2.707.707Z" transform="translate(43.8 32.1)" fill="#595758"/>
          </g>
        </g>
        <g id="组_1252" data-name="组 1252">
          <g id="组_1251" data-name="组 1251">
            <path id="直线_696" data-name="直线 696" d="M.354,4.554l-.707-.707,4.2-4.2.707.707Z" transform="translate(0 11.8)" fill="#595758"/>
            <path id="直线_697" data-name="直线 697" d="M.354,4.554l-.707-.707,4.2-4.2.707.707Z" transform="translate(11.8)" fill="#595758"/>
          </g>
        </g>
        <g id="组_1254" data-name="组 1254">
          <g id="组_1253" data-name="组 1253">
            <path id="直线_698" data-name="直线 698" d="M.354,4.554l-.707-.707,4.2-4.2.707.707Z" transform="translate(0.1 27.4)" fill="#595758"/>
            <path id="直线_699" data-name="直线 699" d="M.355,11.852l-.71-.7L7.266,3.46l.71.7Z" transform="translate(12 8.2)" fill="#595758"/>
            <path id="直线_700" data-name="直线 700" d="M.354,4.554l-.707-.707,4.2-4.2.707.707Z" transform="translate(27.3 0.1)" fill="#595758"/>
          </g>
        </g>
        <g id="组_1256" data-name="组 1256">
          <g id="组_1255" data-name="组 1255">
            <path id="直线_701" data-name="直线 701" d="M.354,4.554l-.707-.707,4.2-4.2.707.707Z" transform="translate(16.5 43.7)" fill="#595758"/>
            <path id="直线_702" data-name="直线 702" d="M.354,11.754l-.707-.707L7.285,3.408l.707.707Z" transform="translate(28.4 24.6)" fill="#595758"/>
            <path id="直线_703" data-name="直线 703" d="M.354,4.554l-.707-.707,4.2-4.2.707.707Z" transform="translate(43.7 16.5)" fill="#595758"/>
          </g>
        </g>
      </g>
      <g id="组_1258" data-name="组 1258">
        <path id="路径_2242" data-name="路径 2242" d="M8.7,11.1H7.5A1.216,1.216,0,0,1,6.3,9.9h0A1.216,1.216,0,0,1,7.5,8.7H8.6A1.216,1.216,0,0,1,9.8,9.9h0C9.7,10.6,9.3,11.1,8.7,11.1Z"/>
        <path id="路径_2243" data-name="路径 2243" d="M24.4,11.2H23.2A1.216,1.216,0,0,1,22,10h0a1.216,1.216,0,0,1,1.2-1.2h1.2A1.216,1.216,0,0,1,25.6,10h0A1.216,1.216,0,0,1,24.4,11.2Z"/>
        <path id="路径_2244" data-name="路径 2244" d="M40.6,11.2H39.4A1.216,1.216,0,0,1,38.2,10h0a1.216,1.216,0,0,1,1.2-1.2h1.2A1.216,1.216,0,0,1,41.8,10h0A1.216,1.216,0,0,1,40.6,11.2Z"/>
        <path id="路径_2245" data-name="路径 2245" d="M13.012,8.631A3.836,3.836,0,0,1,10.46,7.367c-1.134-1.039-2.093-1.507-2.7-1.319-.584.181-.769.954-.771.961l-.976-.216a2.394,2.394,0,0,1,1.44-1.7c.992-.314,2.232.2,3.686,1.535l0,0c.637.6,1.557,1.239,2.319.9a2,2,0,0,0,.983-1.409.43.43,0,0,0,.3.345l.316-.949a.577.577,0,0,1,.385.548,2.894,2.894,0,0,1-1.535,2.359A2.1,2.1,0,0,1,13.012,8.631Z" fill="#595758"/>
        <path id="路径_2246" data-name="路径 2246" d="M28.812,8.731A3.836,3.836,0,0,1,26.26,7.467c-1.134-1.039-2.093-1.507-2.7-1.319-.584.181-.769.954-.771.961l-.976-.216a2.394,2.394,0,0,1,1.44-1.7c.992-.314,2.232.2,3.686,1.535l0,0c.637.6,1.557,1.239,2.319.9a2,2,0,0,0,.983-1.409.43.43,0,0,0,.3.345l.316-.949a.577.577,0,0,1,.385.548,2.894,2.894,0,0,1-1.535,2.359A2.1,2.1,0,0,1,28.812,8.731Z" fill="#595758"/>
        <path id="路径_2247" data-name="路径 2247" d="M44.912,8.731A3.836,3.836,0,0,1,42.36,7.467c-1.134-1.039-2.093-1.507-2.7-1.319-.584.181-.769.954-.771.961l-.976-.216a2.394,2.394,0,0,1,1.44-1.7c.992-.314,2.232.2,3.686,1.535l0,0c.637.6,1.557,1.239,2.319.9a2,2,0,0,0,.983-1.409.43.43,0,0,0,.3.345l.316-.949a.577.577,0,0,1,.385.548,2.894,2.894,0,0,1-1.535,2.359A2.1,2.1,0,0,1,44.912,8.731Z" fill="#595758"/>
        <path id="路径_2248" data-name="路径 2248" d="M8.7,27H7.5a1.216,1.216,0,0,1-1.2-1.2h0a1.216,1.216,0,0,1,1.2-1.2H8.6a1.216,1.216,0,0,1,1.2,1.2h0C9.7,26.5,9.3,27,8.7,27Z"/>
        <path id="路径_2249" data-name="路径 2249" d="M24.4,27.2H23.2A1.216,1.216,0,0,1,22,26h0a1.216,1.216,0,0,1,1.2-1.2h1.2A1.216,1.216,0,0,1,25.6,26h0A1.216,1.216,0,0,1,24.4,27.2Z"/>
        <path id="路径_2250" data-name="路径 2250" d="M40.6,27.2H39.4A1.216,1.216,0,0,1,38.2,26h0a1.216,1.216,0,0,1,1.2-1.2h1.2A1.216,1.216,0,0,1,41.8,26h0A1.216,1.216,0,0,1,40.6,27.2Z"/>
        <path id="路径_2251" data-name="路径 2251" d="M13.012,24.531a3.836,3.836,0,0,1-2.552-1.265c-1.134-1.039-2.093-1.507-2.7-1.319-.584.181-.769.954-.771.961l-.976-.216A2.394,2.394,0,0,1,7.452,21c.992-.314,2.232.2,3.686,1.535l0,0c.637.6,1.557,1.239,2.319.9a2,2,0,0,0,.983-1.409.43.43,0,0,0,.3.345l.316-.949a.577.577,0,0,1,.385.548,2.894,2.894,0,0,1-1.535,2.359A2.1,2.1,0,0,1,13.012,24.531Z" fill="#595758"/>
        <path id="路径_2252" data-name="路径 2252" d="M28.812,24.731a3.836,3.836,0,0,1-2.552-1.265c-1.134-1.039-2.093-1.507-2.7-1.319-.584.181-.769.954-.771.961l-.976-.216a2.394,2.394,0,0,1,1.44-1.7c.992-.314,2.232.2,3.686,1.535l0,0c.637.6,1.557,1.239,2.319.9a2,2,0,0,0,.983-1.409.43.43,0,0,0,.3.345l.316-.949a.577.577,0,0,1,.385.548,2.894,2.894,0,0,1-1.535,2.359A2.1,2.1,0,0,1,28.812,24.731Z" fill="#595758"/>
        <path id="路径_2253" data-name="路径 2253" d="M44.912,24.731a3.836,3.836,0,0,1-2.552-1.265c-1.134-1.039-2.093-1.507-2.7-1.319-.584.181-.769.954-.771.961l-.976-.216a2.394,2.394,0,0,1,1.44-1.7c.992-.314,2.232.2,3.686,1.535l0,0c.637.6,1.557,1.239,2.319.9a2,2,0,0,0,.983-1.409.43.43,0,0,0,.3.345l.316-.949a.577.577,0,0,1,.385.548,2.894,2.894,0,0,1-1.535,2.359A2.1,2.1,0,0,1,44.912,24.731Z" fill="#595758"/>
        <path id="路径_2254" data-name="路径 2254" d="M8.7,42.9H7.5a1.216,1.216,0,0,1-1.2-1.2h0a1.216,1.216,0,0,1,1.2-1.2H8.6a1.216,1.216,0,0,1,1.2,1.2h0C9.7,42.4,9.3,42.9,8.7,42.9Z"/>
        <path id="路径_2255" data-name="路径 2255" d="M24.4,43.1H23.2A1.216,1.216,0,0,1,22,41.9h0a1.216,1.216,0,0,1,1.2-1.2h1.2a1.216,1.216,0,0,1,1.2,1.2h0A1.216,1.216,0,0,1,24.4,43.1Z"/>
        <path id="路径_2256" data-name="路径 2256" d="M40.6,43.1H39.4a1.216,1.216,0,0,1-1.2-1.2h0a1.216,1.216,0,0,1,1.2-1.2h1.2a1.216,1.216,0,0,1,1.2,1.2h0A1.216,1.216,0,0,1,40.6,43.1Z"/>
        <path id="路径_2257" data-name="路径 2257" d="M13.012,40.431a3.837,3.837,0,0,1-2.552-1.265c-1.134-1.039-2.093-1.507-2.7-1.318-.584.181-.769.954-.771.961l-.976-.216a2.394,2.394,0,0,1,1.44-1.7c.992-.314,2.232.2,3.686,1.535l0,0c.637.6,1.557,1.239,2.319.9a2,2,0,0,0,.983-1.408.43.43,0,0,0,.3.345l.316-.949a.577.577,0,0,1,.385.548,2.894,2.894,0,0,1-1.535,2.359A2.1,2.1,0,0,1,13.012,40.431Z" fill="#595758"/>
        <path id="路径_2258" data-name="路径 2258" d="M28.812,40.631a3.836,3.836,0,0,1-2.552-1.265c-1.137-1.042-2.1-1.51-2.706-1.317-.581.184-.764.949-.766.957l-.977-.214a2.394,2.394,0,0,1,1.44-1.7c.992-.314,2.232.2,3.686,1.535l0,0c.637.6,1.557,1.239,2.319.9a2,2,0,0,0,.983-1.409.43.43,0,0,0,.3.345l.316-.949a.577.577,0,0,1,.385.548,2.894,2.894,0,0,1-1.535,2.359A2.1,2.1,0,0,1,28.812,40.631Z" fill="#595758"/>
        <path id="路径_2259" data-name="路径 2259" d="M44.912,40.631a3.836,3.836,0,0,1-2.552-1.265c-1.137-1.042-2.1-1.51-2.706-1.317-.581.184-.764.949-.766.957l-.977-.214a2.394,2.394,0,0,1,1.44-1.7c.992-.314,2.232.2,3.686,1.535l0,0c.637.6,1.557,1.239,2.319.9a2,2,0,0,0,.983-1.409.43.43,0,0,0,.3.345l.316-.949a.577.577,0,0,1,.385.548,2.894,2.894,0,0,1-1.535,2.359A2.1,2.1,0,0,1,44.912,40.631Z" fill="#595758"/>
      </g>
    </g>
  </g>
</svg>
