<svg xmlns="http://www.w3.org/2000/svg" width="48" height="48" viewBox="0 0 48 48">
  <g id="粉砂素填土" transform="translate(-7504 -56)">
    <path id="路径_3278" data-name="路径 3278" d="M0,0H48V48H0Z" transform="translate(7504 56)" fill="none"/>
    <g id="粉砂素填土-2" data-name="粉砂素填土" transform="translate(7503.982 55.248)">
      <g id="组_1390" data-name="组 1390">
        <g id="组_1386" data-name="组 1386">
          <path id="路径_2575" data-name="路径 2575" d="M8.4,7.6a.55.55,0,0,1-.5-.3L5.7,3.1,3.2,7.3a.54.54,0,0,1-.8.2.443.443,0,0,1-.2-.7L5,2.1a.842.842,0,0,1,.7-.4,1.012,1.012,0,0,1,.7.4L9,6.8a.778.778,0,0,1-.2.8Z"/>
          <circle id="椭圆_70" data-name="椭圆 70" cx="0.8" cy="0.8" r="0.8" transform="translate(4.8 9.3)"/>
        </g>
        <g id="组_1387" data-name="组 1387">
          <path id="路径_2576" data-name="路径 2576" d="M8.4,19.4a.55.55,0,0,1-.5-.3L5.7,14.9,3.2,19.1a.54.54,0,0,1-.8.2.443.443,0,0,1-.2-.7L5,13.9a.842.842,0,0,1,.7-.4,1.012,1.012,0,0,1,.7.4L9,18.6a.778.778,0,0,1-.2.8Z"/>
          <circle id="椭圆_71" data-name="椭圆 71" cx="0.8" cy="0.8" r="0.8" transform="translate(4.8 21)"/>
        </g>
        <g id="组_1388" data-name="组 1388">
          <path id="路径_2577" data-name="路径 2577" d="M8.4,31.2a.55.55,0,0,1-.5-.3L5.7,26.7,3.2,30.9a.54.54,0,0,1-.8.2.443.443,0,0,1-.2-.7L5,25.7a.842.842,0,0,1,.7-.4,1.012,1.012,0,0,1,.7.4L9,30.4a.778.778,0,0,1-.2.8Z"/>
          <circle id="椭圆_72" data-name="椭圆 72" cx="0.8" cy="0.8" r="0.8" transform="translate(4.8 32.8)"/>
        </g>
        <g id="组_1389" data-name="组 1389">
          <path id="路径_2578" data-name="路径 2578" d="M8.4,43a.55.55,0,0,1-.5-.3L5.7,38.5,3.2,42.7a.54.54,0,0,1-.8.2.443.443,0,0,1-.2-.7L5,37.5a.842.842,0,0,1,.7-.4,1.012,1.012,0,0,1,.7.4L9,42.2a.778.778,0,0,1-.2.8Z"/>
          <circle id="椭圆_73" data-name="椭圆 73" cx="0.8" cy="0.8" r="0.8" transform="translate(4.8 44.6)"/>
        </g>
      </g>
      <g id="组_1394" data-name="组 1394">
        <g id="组_1391" data-name="组 1391">
          <path id="路径_2579" data-name="路径 2579" d="M20.7,12.4a.55.55,0,0,1-.5-.3L18,7.9l-2.5,4.2a.54.54,0,0,1-.8.2.443.443,0,0,1-.2-.7l2.8-4.7a.842.842,0,0,1,.7-.4,1.012,1.012,0,0,1,.7.4l2.6,4.7a.778.778,0,0,1-.2.8Z"/>
          <circle id="椭圆_74" data-name="椭圆 74" cx="0.8" cy="0.8" r="0.8" transform="translate(17.1 14.1)"/>
        </g>
        <g id="组_1392" data-name="组 1392">
          <path id="路径_2580" data-name="路径 2580" d="M20.7,24.2a.55.55,0,0,1-.5-.3L18,19.7l-2.5,4.2a.54.54,0,0,1-.8.2.443.443,0,0,1-.2-.7l2.8-4.7a.842.842,0,0,1,.7-.4,1.012,1.012,0,0,1,.7.4l2.6,4.7a.778.778,0,0,1-.2.8Z"/>
          <circle id="椭圆_75" data-name="椭圆 75" cx="0.8" cy="0.8" r="0.8" transform="translate(17.1 25.9)"/>
        </g>
        <circle id="椭圆_76" data-name="椭圆 76" cx="0.8" cy="0.8" r="0.8" transform="translate(17.1 2.3)"/>
        <g id="组_1393" data-name="组 1393">
          <path id="路径_2581" data-name="路径 2581" d="M20.7,36a.55.55,0,0,1-.5-.3L18,31.5l-2.5,4.2a.54.54,0,0,1-.8.2.443.443,0,0,1-.2-.7l2.8-4.7a.842.842,0,0,1,.7-.4,1.012,1.012,0,0,1,.7.4l2.6,4.7a.778.778,0,0,1-.2.8Z"/>
          <circle id="椭圆_77" data-name="椭圆 77" cx="0.8" cy="0.8" r="0.8" transform="translate(17.1 37.7)"/>
        </g>
        <path id="路径_2582" data-name="路径 2582" d="M20.7,47.8a.55.55,0,0,1-.5-.3L18,43.3l-2.5,4.2a.54.54,0,0,1-.8.2.443.443,0,0,1-.2-.7l2.8-4.7a.842.842,0,0,1,.7-.4,1.012,1.012,0,0,1,.7.4L21.3,47a.778.778,0,0,1-.2.8Z"/>
      </g>
      <g id="组_1399" data-name="组 1399">
        <g id="组_1395" data-name="组 1395">
          <path id="路径_2583" data-name="路径 2583" d="M33,7.6a.55.55,0,0,1-.5-.3L30.3,3.1,27.8,7.3a.54.54,0,0,1-.8.2.443.443,0,0,1-.2-.7l2.8-4.7a.842.842,0,0,1,.7-.4,1.012,1.012,0,0,1,.7.4l2.6,4.7a.778.778,0,0,1-.2.8Z"/>
          <circle id="椭圆_78" data-name="椭圆 78" cx="0.8" cy="0.8" r="0.8" transform="translate(29.3 9.3)"/>
        </g>
        <g id="组_1396" data-name="组 1396">
          <path id="路径_2584" data-name="路径 2584" d="M33,19.4a.55.55,0,0,1-.5-.3l-2.2-4.2-2.5,4.2a.54.54,0,0,1-.8.2.443.443,0,0,1-.2-.7l2.8-4.7a.842.842,0,0,1,.7-.4,1.012,1.012,0,0,1,.7.4l2.6,4.7a.778.778,0,0,1-.2.8Z"/>
          <circle id="椭圆_79" data-name="椭圆 79" cx="0.8" cy="0.8" r="0.8" transform="translate(29.3 21)"/>
        </g>
        <g id="组_1397" data-name="组 1397">
          <path id="路径_2585" data-name="路径 2585" d="M33,31.2a.55.55,0,0,1-.5-.3l-2.2-4.2-2.5,4.2a.54.54,0,0,1-.8.2.443.443,0,0,1-.2-.7l2.8-4.7a.842.842,0,0,1,.7-.4,1.012,1.012,0,0,1,.7.4l2.6,4.7a.778.778,0,0,1-.2.8Z"/>
          <circle id="椭圆_80" data-name="椭圆 80" cx="0.8" cy="0.8" r="0.8" transform="translate(29.3 32.8)"/>
        </g>
        <g id="组_1398" data-name="组 1398">
          <path id="路径_2586" data-name="路径 2586" d="M33,43a.55.55,0,0,1-.5-.3l-2.2-4.2-2.5,4.2a.54.54,0,0,1-.8.2.443.443,0,0,1-.2-.7l2.8-4.7a.842.842,0,0,1,.7-.4,1.012,1.012,0,0,1,.7.4l2.6,4.7a.778.778,0,0,1-.2.8Z"/>
          <circle id="椭圆_81" data-name="椭圆 81" cx="0.8" cy="0.8" r="0.8" transform="translate(29.3 44.6)"/>
        </g>
      </g>
      <g id="组_1403" data-name="组 1403">
        <g id="组_1400" data-name="组 1400">
          <path id="路径_2587" data-name="路径 2587" d="M45.3,12.4a.55.55,0,0,1-.5-.3L42.6,7.9l-2.5,4.2a.54.54,0,0,1-.8.2.443.443,0,0,1-.2-.7l2.8-4.7a.842.842,0,0,1,.7-.4,1.012,1.012,0,0,1,.7.4l2.6,4.7a.778.778,0,0,1-.2.8Z"/>
          <circle id="椭圆_82" data-name="椭圆 82" cx="0.8" cy="0.8" r="0.8" transform="translate(41.6 14.1)"/>
        </g>
        <g id="组_1401" data-name="组 1401">
          <path id="路径_2588" data-name="路径 2588" d="M45.3,24.2a.55.55,0,0,1-.5-.3l-2.2-4.2-2.5,4.2a.54.54,0,0,1-.8.2.443.443,0,0,1-.2-.7l2.8-4.7a.842.842,0,0,1,.7-.4,1.012,1.012,0,0,1,.7.4l2.6,4.7a.778.778,0,0,1-.2.8Z"/>
          <circle id="椭圆_83" data-name="椭圆 83" cx="0.8" cy="0.8" r="0.8" transform="translate(41.6 25.9)"/>
        </g>
        <circle id="椭圆_84" data-name="椭圆 84" cx="0.8" cy="0.8" r="0.8" transform="translate(41.6 2.3)"/>
        <g id="组_1402" data-name="组 1402">
          <path id="路径_2589" data-name="路径 2589" d="M45.3,36a.55.55,0,0,1-.5-.3l-2.2-4.2-2.5,4.2a.54.54,0,0,1-.8.2.443.443,0,0,1-.2-.7l2.8-4.7a.842.842,0,0,1,.7-.4,1.012,1.012,0,0,1,.7.4l2.6,4.7a.778.778,0,0,1-.2.8Z"/>
          <circle id="椭圆_85" data-name="椭圆 85" cx="0.8" cy="0.8" r="0.8" transform="translate(41.6 37.7)"/>
        </g>
        <path id="路径_2590" data-name="路径 2590" d="M45.3,47.8a.55.55,0,0,1-.5-.3l-2.2-4.2-2.5,4.2a.54.54,0,0,1-.8.2.443.443,0,0,1-.2-.7l2.8-4.7a.842.842,0,0,1,.7-.4,1.012,1.012,0,0,1,.7.4L45.9,47a.778.778,0,0,1-.2.8Z"/>
      </g>
    </g>
  </g>
</svg>
