<svg xmlns="http://www.w3.org/2000/svg" width="48.709" height="48.707" viewBox="0 0 48.709 48.707">
  <g id="粉砂与淤泥质重粉质粘土互层" transform="translate(-6665.646 -55.646)">
    <path id="路径_3264" data-name="路径 3264" d="M0,0H48V48H0Z" transform="translate(6666 56)" fill="none"/>
    <g id="粉砂与淤泥质重粉质粘土互层-2" data-name="粉砂与淤泥质重粉质粘土互层" transform="translate(6666 56)">
      <g id="组_1282" data-name="组 1282">
        <path id="直线_731" data-name="直线 731" d="M.354,48.253l-.708-.706,47.8-47.9.708.706Z" transform="translate(0 0.1)" fill="#595758"/>
        <path id="直线_732" data-name="直线 732" d="M.355,16.252l-.709-.7,15.8-15.9.709.7Z" transform="translate(32.2 32.1)" fill="#595758"/>
        <path id="直线_733" data-name="直线 733" d="M.354,16.154l-.707-.707,15.8-15.8.707.707Z" fill="#595758"/>
        <g id="组_1279" data-name="组 1279">
          <g id="组_1278" data-name="组 1278">
            <path id="直线_734" data-name="直线 734" d="M.354,4.554l-.707-.707,4.2-4.2.707.707Z" transform="translate(0.1 27.4)" fill="#595758"/>
            <path id="直线_735" data-name="直线 735" d="M.357,11.95l-.713-.7L7.231,3.528l.713.7Z" transform="translate(12 8.2)" fill="#595758"/>
            <path id="直线_736" data-name="直线 736" d="M.354,4.554l-.707-.707,4.2-4.2.707.707Z" transform="translate(27.3 0.1)" fill="#595758"/>
          </g>
        </g>
        <g id="组_1281" data-name="组 1281">
          <g id="组_1280" data-name="组 1280">
            <path id="直线_737" data-name="直线 737" d="M.354,4.554l-.707-.707,4.2-4.2.707.707Z" transform="translate(16.5 43.8)" fill="#595758"/>
            <path id="直线_738" data-name="直线 738" d="M.354,11.754l-.707-.707L7.285,3.408l.707.707Z" transform="translate(28.4 24.6)" fill="#595758"/>
            <path id="直线_739" data-name="直线 739" d="M.358,4.649l-.715-.7,4.2-4.3.715.7Z" transform="translate(43.7 16.5)" fill="#595758"/>
          </g>
        </g>
      </g>
      <g id="组_1283" data-name="组 1283">
        <path id="路径_2315" data-name="路径 2315" d="M8.8,11.1H7.6A1.216,1.216,0,0,1,6.4,9.9h0A1.216,1.216,0,0,1,7.6,8.7H8.7A1.216,1.216,0,0,1,9.9,9.9h0C9.8,10.6,9.4,11.1,8.8,11.1Z"/>
        <path id="路径_2316" data-name="路径 2316" d="M24.5,11.2H23.3A1.216,1.216,0,0,1,22.1,10h0a1.216,1.216,0,0,1,1.2-1.2h1.2A1.216,1.216,0,0,1,25.7,10h0A1.216,1.216,0,0,1,24.5,11.2Z"/>
        <path id="路径_2317" data-name="路径 2317" d="M40.7,11.2H39.5A1.216,1.216,0,0,1,38.3,10h0a1.216,1.216,0,0,1,1.2-1.2h1.2A1.216,1.216,0,0,1,41.9,10h0A1.216,1.216,0,0,1,40.7,11.2Z"/>
        <path id="路径_2318" data-name="路径 2318" d="M13.112,8.631A3.836,3.836,0,0,1,10.56,7.367c-1.137-1.042-2.1-1.51-2.706-1.317-.581.184-.764.949-.766.957l-.977-.214a2.394,2.394,0,0,1,1.44-1.7c.992-.314,2.232.2,3.686,1.535l0,0c.637.6,1.557,1.239,2.319.9a2,2,0,0,0,.983-1.409.43.43,0,0,0,.3.345l.316-.949a.577.577,0,0,1,.385.548,2.894,2.894,0,0,1-1.535,2.359A2.1,2.1,0,0,1,13.112,8.631Z" fill="#595758"/>
        <path id="路径_2319" data-name="路径 2319" d="M28.912,8.731A3.836,3.836,0,0,1,26.36,7.467c-1.137-1.042-2.1-1.51-2.706-1.317-.581.184-.764.949-.766.957l-.977-.214a2.394,2.394,0,0,1,1.44-1.7c.992-.314,2.232.2,3.686,1.535l0,0c.637.6,1.557,1.239,2.319.9a2,2,0,0,0,.983-1.409.43.43,0,0,0,.3.345l.316-.949a.577.577,0,0,1,.385.548,2.894,2.894,0,0,1-1.535,2.359A2.1,2.1,0,0,1,28.912,8.731Z" fill="#595758"/>
        <path id="路径_2320" data-name="路径 2320" d="M45.012,8.731A3.836,3.836,0,0,1,42.46,7.467c-1.134-1.039-2.093-1.507-2.7-1.319-.584.181-.769.954-.771.961l-.976-.216a2.394,2.394,0,0,1,1.44-1.7c.992-.314,2.232.2,3.686,1.535l0,0c.637.6,1.557,1.239,2.319.9a2,2,0,0,0,.983-1.409.43.43,0,0,0,.3.345l.316-.949a.577.577,0,0,1,.385.548,2.894,2.894,0,0,1-1.535,2.359A2.1,2.1,0,0,1,45.012,8.731Z" fill="#595758"/>
        <path id="路径_2321" data-name="路径 2321" d="M8.8,27H7.6a1.216,1.216,0,0,1-1.2-1.2h0a1.216,1.216,0,0,1,1.2-1.2H8.7a1.216,1.216,0,0,1,1.2,1.2h0C9.8,26.5,9.4,27,8.8,27Z"/>
        <path id="路径_2322" data-name="路径 2322" d="M24.5,27.2H23.3A1.216,1.216,0,0,1,22.1,26h0a1.216,1.216,0,0,1,1.2-1.2h1.2A1.216,1.216,0,0,1,25.7,26h0A1.216,1.216,0,0,1,24.5,27.2Z"/>
        <path id="路径_2323" data-name="路径 2323" d="M40.7,27.2H39.5A1.216,1.216,0,0,1,38.3,26h0a1.216,1.216,0,0,1,1.2-1.2h1.2A1.216,1.216,0,0,1,41.9,26h0A1.216,1.216,0,0,1,40.7,27.2Z"/>
        <path id="路径_2324" data-name="路径 2324" d="M13.112,24.531a3.836,3.836,0,0,1-2.552-1.265c-1.137-1.042-2.1-1.51-2.706-1.317-.581.184-.764.949-.766.957l-.977-.214A2.394,2.394,0,0,1,7.552,21c.992-.314,2.232.2,3.686,1.535l0,0c.637.6,1.557,1.239,2.319.9a2,2,0,0,0,.983-1.409.43.43,0,0,0,.3.345l.316-.949a.577.577,0,0,1,.385.548,2.894,2.894,0,0,1-1.535,2.359A2.1,2.1,0,0,1,13.112,24.531Z" fill="#595758"/>
        <path id="路径_2325" data-name="路径 2325" d="M28.912,24.731a3.836,3.836,0,0,1-2.552-1.265c-1.134-1.039-2.093-1.507-2.7-1.319-.584.181-.769.954-.771.961l-.976-.216a2.394,2.394,0,0,1,1.44-1.7c.992-.314,2.232.2,3.686,1.535l0,0c.637.6,1.557,1.239,2.319.9a2,2,0,0,0,.983-1.409.43.43,0,0,0,.3.345l.316-.949a.577.577,0,0,1,.385.548,2.894,2.894,0,0,1-1.535,2.359A2.1,2.1,0,0,1,28.912,24.731Z" fill="#595758"/>
        <path id="路径_2326" data-name="路径 2326" d="M45.012,24.731a3.836,3.836,0,0,1-2.552-1.265c-1.134-1.039-2.093-1.507-2.7-1.319-.584.181-.769.954-.771.961l-.976-.216a2.394,2.394,0,0,1,1.44-1.7c.992-.314,2.232.2,3.686,1.535l0,0c.637.6,1.557,1.239,2.319.9a2,2,0,0,0,.983-1.409.43.43,0,0,0,.3.345l.316-.949a.577.577,0,0,1,.385.548,2.894,2.894,0,0,1-1.535,2.359A2.1,2.1,0,0,1,45.012,24.731Z" fill="#595758"/>
        <path id="路径_2327" data-name="路径 2327" d="M8.8,42.9H7.6a1.216,1.216,0,0,1-1.2-1.2h0a1.216,1.216,0,0,1,1.2-1.2H8.7a1.216,1.216,0,0,1,1.2,1.2h0C9.8,42.4,9.4,42.9,8.8,42.9Z"/>
        <path id="路径_2328" data-name="路径 2328" d="M24.5,43.1H23.3a1.216,1.216,0,0,1-1.2-1.2h0a1.216,1.216,0,0,1,1.2-1.2h1.2a1.216,1.216,0,0,1,1.2,1.2h0A1.216,1.216,0,0,1,24.5,43.1Z"/>
        <path id="路径_2329" data-name="路径 2329" d="M40.7,43.1H39.5a1.216,1.216,0,0,1-1.2-1.2h0a1.216,1.216,0,0,1,1.2-1.2h1.2a1.216,1.216,0,0,1,1.2,1.2h0A1.216,1.216,0,0,1,40.7,43.1Z"/>
        <path id="路径_2330" data-name="路径 2330" d="M13.112,40.431a3.837,3.837,0,0,1-2.552-1.265c-1.137-1.042-2.1-1.509-2.706-1.317-.581.184-.764.949-.766.957l-.977-.214a2.394,2.394,0,0,1,1.44-1.7c.992-.314,2.232.2,3.686,1.535l0,0c.637.6,1.557,1.239,2.319.9a2,2,0,0,0,.983-1.409.43.43,0,0,0,.3.345l.316-.949a.577.577,0,0,1,.385.548,2.894,2.894,0,0,1-1.535,2.359A2.1,2.1,0,0,1,13.112,40.431Z" fill="#595758"/>
        <path id="路径_2331" data-name="路径 2331" d="M28.912,40.631a3.836,3.836,0,0,1-2.552-1.265c-1.134-1.039-2.093-1.507-2.7-1.319-.584.181-.769.954-.771.961l-.976-.216a2.394,2.394,0,0,1,1.44-1.7c.992-.314,2.232.2,3.686,1.535l0,0c.637.6,1.557,1.239,2.319.9a2,2,0,0,0,.983-1.409.43.43,0,0,0,.3.345l.316-.949a.577.577,0,0,1,.385.548,2.894,2.894,0,0,1-1.535,2.359A2.1,2.1,0,0,1,28.912,40.631Z" fill="#595758"/>
        <path id="路径_2332" data-name="路径 2332" d="M45.012,40.631a3.836,3.836,0,0,1-2.552-1.265c-1.137-1.042-2.1-1.51-2.706-1.317-.581.184-.764.949-.766.957l-.977-.214a2.394,2.394,0,0,1,1.44-1.7c.992-.314,2.232.2,3.686,1.535l0,0c.637.6,1.557,1.239,2.319.9a2,2,0,0,0,.983-1.409.43.43,0,0,0,.3.345l.316-.949a.577.577,0,0,1,.385.548,2.894,2.894,0,0,1-1.535,2.359A2.1,2.1,0,0,1,45.012,40.631Z" fill="#595758"/>
      </g>
    </g>
  </g>
</svg>
