<svg xmlns="http://www.w3.org/2000/svg" width="48.179" height="48" viewBox="0 0 48.179 48">
  <g id="粉砂夹砂质粉土" transform="translate(-7163 -56)">
    <path id="路径_3272" data-name="路径 3272" d="M0,0H48V48H0Z" transform="translate(7163 56)" fill="none"/>
    <g id="粉砂夹砂质粉土-2" data-name="粉砂夹砂质粉土" transform="translate(7163.179 56)">
      <g id="组_1333" data-name="组 1333">
        <path id="路径_2462" data-name="路径 2462" d="M20.7,45.5a.6.6,0,0,1-.4-.1.483.483,0,0,1,0-.7l5.8-5.9a.495.495,0,1,1,.7.7L21,45.3C20.9,45.4,20.8,45.5,20.7,45.5Z"/>
        <path id="路径_2463" data-name="路径 2463" d="M29.6,36.5a.6.6,0,0,1-.4-.1.483.483,0,0,1,0-.7L35,29.8a.495.495,0,0,1,.7.7L30,36.4C29.9,36.5,29.8,36.5,29.6,36.5Z"/>
        <path id="路径_2464" data-name="路径 2464" d="M38.6,27.6a.6.6,0,0,1-.4-.1.483.483,0,0,1,0-.7L44,20.9a.495.495,0,1,1,.7.7l-5.8,5.9A.367.367,0,0,1,38.6,27.6Z"/>
      </g>
      <g id="组_1334" data-name="组 1334">
        <path id="路径_2465" data-name="路径 2465" d="M3.3,27.3a.6.6,0,0,1-.4-.1.483.483,0,0,1,0-.7l5.8-5.9a.495.495,0,0,1,.7.7L3.6,27.2A1.007,1.007,0,0,1,3.3,27.3Z"/>
        <path id="路径_2466" data-name="路径 2466" d="M12.2,18.3a.6.6,0,0,1-.4-.1.483.483,0,0,1,0-.7l5.8-5.9a.495.495,0,0,1,.7.7l-5.8,5.9C12.5,18.3,12.4,18.3,12.2,18.3Z"/>
        <path id="路径_2467" data-name="路径 2467" d="M21.2,9.4a.6.6,0,0,1-.4-.1.483.483,0,0,1,0-.7l5.8-5.9a.495.495,0,1,1,.7.7L21.5,9.3C21.4,9.3,21.3,9.4,21.2,9.4Z"/>
      </g>
      <g id="组_1336" data-name="组 1336">
        <g id="组_1335" data-name="组 1335">
          <path id="路径_2468" data-name="路径 2468" d="M2.6,40.2a.6.6,0,0,1-.4-.1.483.483,0,0,1,0-.7l5.8-6a.495.495,0,1,1,.7.7L2.9,40C2.8,40.2,2.7,40.2,2.6,40.2Z"/>
          <path id="路径_2469" data-name="路径 2469" d="M11.5,31.3a.6.6,0,0,1-.4-.1.483.483,0,0,1,0-.7l5.8-5.9a.495.495,0,0,1,.7.7l-5.8,5.9A1.007,1.007,0,0,1,11.5,31.3Z"/>
          <path id="路径_2470" data-name="路径 2470" d="M20.4,22.3a.6.6,0,0,1-.4-.1.483.483,0,0,1,0-.7l5.8-5.9a.495.495,0,0,1,.7.7l-5.8,5.9C20.7,22.3,20.6,22.3,20.4,22.3Z"/>
        </g>
        <path id="路径_2471" data-name="路径 2471" d="M29.3,13.4a.6.6,0,0,1-.4-.1.483.483,0,0,1,0-.7l5.8-5.9a.495.495,0,0,1,.7.7l-5.8,5.9C29.6,13.4,29.5,13.4,29.3,13.4Z"/>
      </g>
      <g id="组_1337" data-name="组 1337">
        <path id="路径_2472" data-name="路径 2472" d="M31.5,47a.6.6,0,0,1-.4-.1.483.483,0,0,1,0-.7l5.8-5.9a.495.495,0,0,1,.7.7l-5.8,5.9A.438.438,0,0,1,31.5,47Z"/>
        <path id="路径_2473" data-name="路径 2473" d="M40.5,38.1a.6.6,0,0,1-.4-.1.483.483,0,0,1,0-.7l5.8-5.9a.495.495,0,1,1,.7.7L40.8,38C40.7,38,40.6,38.1,40.5,38.1Z"/>
        <path id="路径_2474" data-name="路径 2474" d="M45.5,44.2,41.8,48h1.4l3-3.1a.483.483,0,0,0,0-.7C46.1,44,45.7,44,45.5,44.2Z"/>
      </g>
      <g id="组_1338" data-name="组 1338">
        <path id="路径_2475" data-name="路径 2475" d="M1.3,16.4a.6.6,0,0,1-.4-.1.483.483,0,0,1,0-.7L6.7,9.7a.495.495,0,0,1,.7.7L1.6,16.3C1.5,16.3,1.4,16.4,1.3,16.4Z"/>
        <path id="路径_2476" data-name="路径 2476" d="M10.2,7.5a.6.6,0,0,1-.4-.1.483.483,0,0,1,0-.7L15.6.8a.483.483,0,0,1,.7,0,.483.483,0,0,1,0,.7L10.5,7.4A1.007,1.007,0,0,1,10.2,7.5Z"/>
      </g>
      <g id="组_1339" data-name="组 1339">
        <path id="路径_2477" data-name="路径 2477" d="M6.6,47.2a.6.6,0,0,1-.4-.1.483.483,0,0,1,0-.7l.5-.4a.495.495,0,0,1,.7.7l-.4.4C6.9,47.2,6.8,47.2,6.6,47.2Zm1.8-1.8a.6.6,0,0,1-.4-.1.483.483,0,0,1,0-.7l.4-.4a.6.6,0,0,1,.8,0,.483.483,0,0,1,0,.7l-.4.4C8.7,45.4,8.6,45.4,8.4,45.4Zm1.8-1.8a.6.6,0,0,1-.4-.1.483.483,0,0,1,0-.7l.4-.4a.495.495,0,0,1,.7.7l-.4.4C10.5,43.6,10.4,43.6,10.2,43.6ZM12,41.8a.6.6,0,0,1-.4-.1.483.483,0,0,1,0-.7l.4-.4a.495.495,0,0,1,.7.7l-.4.4C12.3,41.8,12.2,41.8,12,41.8ZM13.8,40a.6.6,0,0,1-.4-.1.483.483,0,0,1,0-.7l.4-.4a.495.495,0,0,1,.7.7l-.4.4C14.1,40,14,40,13.8,40Zm1.8-1.8a.6.6,0,0,1-.4-.1.483.483,0,0,1,0-.7l.4-.4a.495.495,0,0,1,.7.7l-.3.4C15.9,38.2,15.8,38.2,15.6,38.2Zm1.8-1.8a.6.6,0,0,1-.4-.1.483.483,0,0,1,0-.7l.4-.4a.495.495,0,1,1,.7.7l-.4.4C17.7,36.4,17.6,36.4,17.4,36.4Zm1.8-1.8a.6.6,0,0,1-.4-.1.483.483,0,0,1,0-.7l.4-.4a.495.495,0,0,1,.7.7l-.4.4C19.5,34.6,19.4,34.6,19.2,34.6ZM21,32.8a.6.6,0,0,1-.4-.1.483.483,0,0,1,0-.7l.4-.4a.495.495,0,1,1,.7.7l-.4.4C21.3,32.8,21.2,32.8,21,32.8ZM22.8,31a.6.6,0,0,1-.4-.1.483.483,0,0,1,0-.7l.4-.4a.495.495,0,0,1,.7.7l-.4.4C23.1,31,23,31,22.8,31Zm1.8-1.8a.6.6,0,0,1-.4-.1.483.483,0,0,1,0-.7l.4-.4a.495.495,0,0,1,.7.7l-.3.4C24.9,29.2,24.8,29.2,24.6,29.2Zm1.8-1.8a.6.6,0,0,1-.4-.1.483.483,0,0,1,0-.7l.4-.4a.495.495,0,0,1,.7.7l-.4.4C26.7,27.4,26.6,27.4,26.4,27.4Zm1.8-1.8a.6.6,0,0,1-.4-.1.483.483,0,0,1,0-.7l.4-.4a.495.495,0,0,1,.7.7l-.4.4C28.5,25.6,28.4,25.6,28.2,25.6ZM30,23.8a.6.6,0,0,1-.4-.1.483.483,0,0,1,0-.7l.4-.4a.495.495,0,1,1,.7.7l-.4.4C30.3,23.8,30.2,23.8,30,23.8ZM31.8,22a.6.6,0,0,1-.4-.1.483.483,0,0,1,0-.7l.4-.4a.495.495,0,0,1,.7.7l-.4.4C32.1,22,32,22,31.8,22Zm1.8-1.8a.6.6,0,0,1-.4-.1.483.483,0,0,1,0-.7l.4-.4a.495.495,0,1,1,.7.7l-.3.4C33.9,20.2,33.8,20.2,33.6,20.2Zm1.8-1.8a.6.6,0,0,1-.4-.1.483.483,0,0,1,0-.7l.4-.4a.495.495,0,0,1,.7.7l-.4.4C35.7,18.4,35.6,18.4,35.4,18.4Zm1.8-1.8a.6.6,0,0,1-.4-.1.483.483,0,0,1,0-.7l.4-.4a.495.495,0,0,1,.7.7l-.4.4C37.5,16.6,37.4,16.6,37.2,16.6ZM39,14.8a.6.6,0,0,1-.4-.1.483.483,0,0,1,0-.7l.4-.4a.495.495,0,0,1,.7.7l-.4.4C39.3,14.8,39.1,14.8,39,14.8ZM40.8,13a.6.6,0,0,1-.4-.1.483.483,0,0,1,0-.7l.4-.4a.495.495,0,1,1,.7.7l-.4.4C41.1,13,40.9,13,40.8,13Zm1.8-1.8a.6.6,0,0,1-.4-.1.483.483,0,0,1,0-.7l.4-.4a.495.495,0,1,1,.7.7l-.3.4A.6.6,0,0,1,42.6,11.2Zm1.8-1.8a.6.6,0,0,1-.4-.1.483.483,0,0,1,0-.7l.4-.4a.6.6,0,0,1,.8,0,.483.483,0,0,1,0,.7l-.4.4A.6.6,0,0,1,44.4,9.4Zm1.8-1.7a.6.6,0,0,1-.4-.1.483.483,0,0,1,0-.7l.4-.4a.495.495,0,0,1,.7.7l-.4.4C46.4,7.6,46.3,7.7,46.2,7.7Z"/>
      </g>
      <g id="组_1340" data-name="组 1340">
        <path id="路径_2478" data-name="路径 2478" d="M1.7,3.2l-.4.4a.483.483,0,0,0,0,.7c.1.1.2.1.4.1s.3,0,.4-.1l.4-.4a.483.483,0,0,0,0-.7A.608.608,0,0,0,1.7,3.2Z"/>
        <path id="路径_2479" data-name="路径 2479" d="M3.5,1.4l-.4.4a.483.483,0,0,0,0,.7c.1.1.2.1.4.1s.3,0,.4-.1l.4-.4a.483.483,0,0,0,0-.7A.608.608,0,0,0,3.5,1.4Z"/>
      </g>
      <path id="路径_2480" data-name="路径 2480" d="M0,4.9V6.2a.1.1,0,0,0,.1-.1l.4-.4A.483.483,0,0,0,.5,5,.44.44,0,0,0,0,4.9Z"/>
      <path id="路径_2481" data-name="路径 2481" d="M48,6.2V4.9a.1.1,0,0,0-.1.1l-.4.4a.483.483,0,0,0,0,.7C47.6,6.3,47.8,6.3,48,6.2Z"/>
      <path id="路径_2482" data-name="路径 2482" d="M6.1,48H4.8a.1.1,0,0,1,.1-.1l.4-.4a.483.483,0,0,1,.7,0C6.2,47.6,6.2,47.8,6.1,48Z"/>
      <path id="路径_2483" data-name="路径 2483" d="M4.8,0H6.1L6,.1,5.6.6a.608.608,0,0,1-.8,0A.637.637,0,0,1,4.8,0Z"/>
      <path id="路径_2484" data-name="路径 2484" d="M39.4,3.8,43.1,0H41.7l-3,3.1a.495.495,0,1,0,.7.7Z"/>
    </g>
  </g>
</svg>
