<svg xmlns="http://www.w3.org/2000/svg" width="49.007" height="48.907" viewBox="0 0 49.007 48.907">
  <g id="粉砂夹粉土" transform="translate(-7220.825 -55.646)">
    <path id="路径_3273" data-name="路径 3273" d="M0,0H48V48H0Z" transform="translate(7221 56)" fill="none"/>
    <g id="粉砂夹粉土-2" data-name="粉砂夹粉土" transform="translate(7221.179 56)">
      <g id="组_1342" data-name="组 1342">
        <g id="组_1341" data-name="组 1341">
          <path id="直线_802" data-name="直线 802" d="M.354,4.554l-.707-.707,4.2-4.2.707.707Z" transform="translate(0 28)" fill="#595758"/>
          <path id="直线_803" data-name="直线 803" d="M.354,12.254l-.707-.707L7.56,3.633l.707.707Z" transform="translate(12.1 8.2)" fill="#595758"/>
          <path id="直线_804" data-name="直线 804" d="M.354,4.554l-.707-.707,4.2-4.2.707.707Z" transform="translate(28)" fill="#595758"/>
        </g>
      </g>
      <g id="组_1344" data-name="组 1344">
        <g id="组_1343" data-name="组 1343">
          <path id="直线_805" data-name="直线 805" d="M.354,4.554l-.707-.707,4.2-4.2.707.707Z" transform="translate(16.1 43.8)" fill="#595758"/>
          <path id="直线_806" data-name="直线 806" d="M.354,12.254l-.707-.707L7.56,3.633l.707.707Z" transform="translate(28.2 24)" fill="#595758"/>
          <path id="直线_807" data-name="直线 807" d="M.354,4.554l-.707-.707,4.2-4.2.707.707Z" transform="translate(44.1 15.8)" fill="#595758"/>
        </g>
      </g>
      <g id="组_1346" data-name="组 1346">
        <g id="组_1345" data-name="组 1345">
          <path id="直线_808" data-name="直线 808" d="M.354,3.854l-.707-.707,3.5-3.5.707.707Z" transform="translate(0 12.6)" fill="#595758"/>
          <path id="直线_809" data-name="直线 809" d="M.354,3.854l-.707-.707,3.5-3.5.707.707Z" transform="translate(12.5 0.1)" fill="#595758"/>
        </g>
      </g>
      <g id="组_1348" data-name="组 1348">
        <g id="组_1347" data-name="组 1347">
          <path id="直线_810" data-name="直线 810" d="M.354,3.854l-.707-.707,3.5-3.5.707.707Z" transform="translate(32.1 44.7)" fill="#595758"/>
          <path id="直线_811" data-name="直线 811" d="M.354,3.854l-.707-.707,3.5-3.5.707.707Z" transform="translate(44.6 32.2)" fill="#595758"/>
        </g>
      </g>
      <g id="组_1350" data-name="组 1350">
        <g id="组_1349" data-name="组 1349">
          <path id="直线_812" data-name="直线 812" d="M0,1.033A.631.631,0,0,1-.447.847a.633.633,0,0,1,0-.894l.4-.4a.633.633,0,0,1,.894,0,.633.633,0,0,1,0,.895l-.4.4A.631.631,0,0,1,0,1.033Z" transform="translate(47.3 0.4)"/>
          <path id="直线_813" data-name="直线 813" d="M1,43.032a.632.632,0,0,1-.447-1.08l.7-.7a.633.633,0,1,1,.893.9l-.7.7A.631.631,0,0,1,1,43.032Zm2.787-2.78a.632.632,0,0,1-.447-1.08l.7-.7a.633.633,0,1,1,.893.9l-.7.7A.631.631,0,0,1,3.789,40.252Zm2.787-2.78a.633.633,0,0,1-.447-1.08l.7-.7a.633.633,0,1,1,.893.9l-.7.7A.631.631,0,0,1,6.576,37.472Zm2.787-2.78a.632.632,0,0,1-.447-1.08l.7-.7a.632.632,0,1,1,.893.9l-.7.7A.631.631,0,0,1,9.363,34.691Zm2.787-2.78a.632.632,0,0,1-.447-1.08l.7-.7a.633.633,0,1,1,.893.9l-.7.7A.631.631,0,0,1,12.149,31.911Zm2.787-2.78a.633.633,0,0,1-.447-1.08l.7-.7a.633.633,0,1,1,.893.9l-.7.7A.631.631,0,0,1,14.936,29.131Zm2.787-2.78a.632.632,0,0,1-.447-1.08l.7-.7a.633.633,0,0,1,.893.9l-.7.7A.631.631,0,0,1,17.723,26.35Zm2.787-2.78a.632.632,0,0,1-.447-1.08l.7-.7a.632.632,0,0,1,.893.9l-.7.7A.631.631,0,0,1,20.51,23.57ZM23.3,20.79a.632.632,0,0,1-.447-1.08l.7-.7a.633.633,0,0,1,.893.9l-.7.7A.631.631,0,0,1,23.3,20.79Zm2.787-2.78a.632.632,0,0,1-.447-1.08l.7-.7a.632.632,0,1,1,.893.9l-.7.7A.631.631,0,0,1,26.083,18.009Zm2.787-2.78a.632.632,0,0,1-.447-1.08l.7-.7a.632.632,0,1,1,.893.9l-.7.7A.631.631,0,0,1,28.87,15.229Zm2.787-2.78a.632.632,0,0,1-.447-1.08l.7-.7a.632.632,0,0,1,.893.9l-.7.7A.631.631,0,0,1,31.656,12.449Zm2.787-2.78A.633.633,0,0,1,34,8.588l.7-.7a.633.633,0,1,1,.893.9l-.7.7A.631.631,0,0,1,34.443,9.669Zm2.787-2.78a.633.633,0,0,1-.447-1.08l.7-.7a.633.633,0,0,1,.893.9l-.7.7A.631.631,0,0,1,37.23,6.888Zm2.787-2.78a.633.633,0,0,1-.447-1.08l.7-.7a.633.633,0,0,1,.893.9l-.7.7A.631.631,0,0,1,40.017,4.108ZM42.8,1.328a.632.632,0,0,1-.447-1.08l.7-.7a.633.633,0,0,1,.894,0,.633.633,0,0,1,0,.894l-.7.7A.631.631,0,0,1,42.8,1.328Z" transform="translate(1.7 2.9)"/>
          <path id="直线_814" data-name="直线 814" d="M0,.933A.631.631,0,0,1-.506.679.632.632,0,0,1-.38-.206l.4-.3A.632.632,0,0,1,.906-.38.632.632,0,0,1,.78.506l-.4.3A.63.63,0,0,1,0,.933Z" transform="translate(0.3 47.4)"/>
        </g>
      </g>
    </g>
  </g>
</svg>
