<svg xmlns="http://www.w3.org/2000/svg" width="48.179" height="48" viewBox="0 0 48.179 48">
  <g id="粉砂夹粘土" transform="translate(-7280 -56)">
    <path id="路径_3274" data-name="路径 3274" d="M0,0H48V48H0Z" transform="translate(7280 56)" fill="none"/>
    <g id="粉砂夹粘土-2" data-name="粉砂夹粘土" transform="translate(7280.179 56)">
      <g id="组_1351" data-name="组 1351">
        <path id="路径_2485" data-name="路径 2485" d="M17,0,0,17V31.1L31,0Z" fill="none"/>
        <path id="路径_2486" data-name="路径 2486" d="M48,.9.9,48H15.5L48,15.5Z" fill="none"/>
        <path id="路径_2487" data-name="路径 2487" d="M32.4,0l.1.1L.1,32.6H0V47.3L47.3,0Z" fill="none"/>
        <path id="路径_2488" data-name="路径 2488" d="M48,17,17,48H31.2L48,31.2Z" fill="none"/>
        <path id="路径_2489" data-name="路径 2489" d="M0,0V15.4L15.4,0Z" fill="none"/>
        <path id="路径_2490" data-name="路径 2490" d="M32.7,48H48V32.7Z" fill="none"/>
        <path id="路径_2491" data-name="路径 2491" d="M48,0h-.7L0,47.3V48H.9L48,.9Z" fill="#595758"/>
        <path id="路径_2492" data-name="路径 2492" d="M48,31.2,31.2,48h1.5L48,32.7Z" fill="#595758"/>
        <path id="路径_2493" data-name="路径 2493" d="M15.4,0,0,15.4V17L17,0Z" fill="#595758"/>
        <path id="路径_2494" data-name="路径 2494" d="M32.5.1,32.4,0H31L0,31.1v1.5H.1Z" fill="#595758"/>
        <path id="路径_2495" data-name="路径 2495" d="M48,15.5,15.5,48H17L48,17Z" fill="#595758"/>
      </g>
      <g id="组_1377" data-name="组 1377">
        <g id="组_1356" data-name="组 1356">
          <g id="组_1352" data-name="组 1352">
            <path id="路径_2496" data-name="路径 2496" d="M6,3.6A1.58,1.58,0,0,0,4.4,5.2,1.5,1.5,0,0,0,6,6.7,1.561,1.561,0,0,0,7.6,5.2,1.645,1.645,0,0,0,6,3.6Z"/>
          </g>
          <g id="组_1353" data-name="组 1353">
            <path id="路径_2497" data-name="路径 2497" d="M18.3,3.6a1.6,1.6,0,1,0,1.6,1.6,1.58,1.58,0,0,0-1.6-1.6Z"/>
          </g>
          <g id="组_1354" data-name="组 1354">
            <path id="路径_2498" data-name="路径 2498" d="M30.2,3.6a1.6,1.6,0,1,0,1.6,1.6,1.58,1.58,0,0,0-1.6-1.6Z"/>
          </g>
          <g id="组_1355" data-name="组 1355">
            <path id="路径_2499" data-name="路径 2499" d="M41.8,3.6a1.6,1.6,0,1,0,1.6,1.6,1.58,1.58,0,0,0-1.6-1.6Z"/>
          </g>
        </g>
        <g id="组_1361" data-name="组 1361">
          <g id="组_1357" data-name="组 1357">
            <path id="路径_2500" data-name="路径 2500" d="M6.1,13.1a1.6,1.6,0,1,0,1.6,1.6,1.58,1.58,0,0,0-1.6-1.6Z"/>
          </g>
          <g id="组_1358" data-name="组 1358">
            <path id="路径_2501" data-name="路径 2501" d="M18.4,13.1A1.6,1.6,0,1,0,20,14.7a1.58,1.58,0,0,0-1.6-1.6Z"/>
          </g>
          <g id="组_1359" data-name="组 1359">
            <path id="路径_2502" data-name="路径 2502" d="M30.3,13.1a1.6,1.6,0,1,0,1.6,1.6,1.58,1.58,0,0,0-1.6-1.6Z"/>
          </g>
          <g id="组_1360" data-name="组 1360">
            <path id="路径_2503" data-name="路径 2503" d="M41.9,13.1a1.6,1.6,0,1,0,1.6,1.6,1.58,1.58,0,0,0-1.6-1.6Z"/>
          </g>
        </g>
        <g id="组_1366" data-name="组 1366">
          <g id="组_1362" data-name="组 1362">
            <path id="路径_2504" data-name="路径 2504" d="M6.1,22.6a1.6,1.6,0,1,0,1.6,1.6,1.58,1.58,0,0,0-1.6-1.6Z"/>
          </g>
          <g id="组_1363" data-name="组 1363">
            <path id="路径_2505" data-name="路径 2505" d="M18.4,22.6a1.6,1.6,0,0,0,0,3.2,1.6,1.6,0,1,0,0-3.2Z"/>
          </g>
          <g id="组_1364" data-name="组 1364">
            <path id="路径_2506" data-name="路径 2506" d="M30.3,22.6a1.6,1.6,0,1,0,1.6,1.6,1.58,1.58,0,0,0-1.6-1.6Z"/>
          </g>
          <g id="组_1365" data-name="组 1365">
            <path id="路径_2507" data-name="路径 2507" d="M41.9,22.6a1.6,1.6,0,1,0,1.6,1.6,1.58,1.58,0,0,0-1.6-1.6Z"/>
          </g>
        </g>
        <g id="组_1371" data-name="组 1371">
          <g id="组_1367" data-name="组 1367">
            <path id="路径_2508" data-name="路径 2508" d="M6.1,32.1a1.6,1.6,0,1,0,1.6,1.6,1.58,1.58,0,0,0-1.6-1.6Z"/>
          </g>
          <g id="组_1368" data-name="组 1368">
            <path id="路径_2509" data-name="路径 2509" d="M18.4,32.1A1.6,1.6,0,1,0,20,33.7a1.58,1.58,0,0,0-1.6-1.6Z"/>
          </g>
          <g id="组_1369" data-name="组 1369">
            <path id="路径_2510" data-name="路径 2510" d="M30.3,32.1a1.6,1.6,0,1,0,1.6,1.6,1.58,1.58,0,0,0-1.6-1.6Z"/>
          </g>
          <g id="组_1370" data-name="组 1370">
            <path id="路径_2511" data-name="路径 2511" d="M41.9,32.1a1.6,1.6,0,1,0,1.6,1.6,1.58,1.58,0,0,0-1.6-1.6Z"/>
          </g>
        </g>
        <g id="组_1376" data-name="组 1376">
          <g id="组_1372" data-name="组 1372">
            <path id="路径_2512" data-name="路径 2512" d="M6.1,41.6a1.6,1.6,0,1,0,1.6,1.6,1.58,1.58,0,0,0-1.6-1.6Z"/>
          </g>
          <g id="组_1373" data-name="组 1373">
            <path id="路径_2513" data-name="路径 2513" d="M18.4,41.6A1.6,1.6,0,1,0,20,43.2a1.58,1.58,0,0,0-1.6-1.6Z"/>
          </g>
          <g id="组_1374" data-name="组 1374">
            <path id="路径_2514" data-name="路径 2514" d="M30.3,41.6a1.6,1.6,0,1,0,1.6,1.6,1.58,1.58,0,0,0-1.6-1.6Z"/>
          </g>
          <g id="组_1375" data-name="组 1375">
            <path id="路径_2515" data-name="路径 2515" d="M41.9,41.6a1.6,1.6,0,1,0,1.6,1.6,1.58,1.58,0,0,0-1.6-1.6Z"/>
          </g>
        </g>
      </g>
    </g>
  </g>
</svg>
