<?xml version="1.0" encoding="utf-8"?>
<!-- Generator: Adobe Illustrator 22.1.0, SVG Export Plug-In . SVG Version: 6.00 Build 0)  -->
<svg version="1.1" id="图层_1" xmlns="http://www.w3.org/2000/svg" xmlns:xlink="http://www.w3.org/1999/xlink" x="0px" y="0px"
	 width="48px" height="48px" viewBox="0 0 48 48" style="enable-background:new 0 0 48 48;" xml:space="preserve">
<polygon points="0,0 0,0.8 0.8,0 "/>
<polygon points="48,48 48,47.2 47.2,48 "/>
<polygon points="33,48 48,32.6 48,30.8 31.3,48 "/>
<polygon points="17.2,48 48,17.6 48,16.9 48,15.9 15.5,48 "/>
<polygon points="15.5,0 0,15.9 0,16.9 0,17.6 17.2,0 "/>
<polygon points="31.3,0 0,30.8 0,32.5 33,0 "/>
<path d="M20.3,27.5c-0.1-0.2-0.5-0.2-0.8,0l-7.9,7.9c-0.2,0.2-0.2,0.6,0,0.8c0.1,0.1,0.3,0.2,0.4,0.2s0.3-0.1,0.4-0.2l7.9-7.9
	C20.5,28.1,20.5,27.7,20.3,27.5z"/>
<path d="M27.4,20.5c0.1,0.1,0.3,0.2,0.4,0.2c0.1,0,0.3-0.1,0.4-0.2l7.9-7.9c0.2-0.2,0.2-0.6,0-0.8c-0.2-0.2-0.6-0.2-0.8,0l-7.9,7.9
	C27.2,19.9,27.2,20.3,27.4,20.5z"/>
<path d="M47.1,0c0,0-3.7,3.7-3.9,3.9c-0.2,0.2-0.3,0.6,0.1,0.9c0.3,0.3,0.7,0,0.7,0l4-3.9V0H47.1z"/>
<path d="M4,43.3l-4,3.9V48h0.8c0,0,3.7-3.7,3.9-3.9c0.2-0.2,0.3-0.6-0.1-0.9C4.3,42.9,4,43.3,4,43.3z"/>
</svg>
