<?xml version="1.0" encoding="utf-8"?>
<!-- Generator: Adobe Illustrator 22.1.0, SVG Export Plug-In . SVG Version: 6.00 Build 0)  -->
<svg version="1.1" id="图层_1" xmlns="http://www.w3.org/2000/svg" xmlns:xlink="http://www.w3.org/1999/xlink" x="0px" y="0px"
	 width="48px" height="48px" viewBox="0 0 48 48" style="enable-background:new 0 0 48 48;" xml:space="preserve">
<style type="text/css">
	.st0{opacity:0.18;}
	.st1{fill:none;}
	.st2{fill:#FF7373;}
</style>
<g class="st0">
	<path class="st1" d="M123.6,145.7"/>
	<g>
		<circle class="st2" cx="123.4" cy="145.7" r="1.3"/>
		<circle class="st2" cx="123.4" cy="129.7" r="1.3"/>
		<circle class="st2" cx="123.4" cy="113.7" r="1.3"/>
		<circle class="st2" cx="123.4" cy="97.8" r="1.3"/>
	</g>
	<g>
		<circle class="st2" cx="123.4" cy="145.7" r="1.3"/>
		<circle class="st2" cx="107.4" cy="145.7" r="1.3"/>
		<circle class="st2" cx="91.4" cy="145.7" r="1.3"/>
		<circle class="st2" cx="75.4" cy="145.7" r="1.3"/>
	</g>
</g>
<g>
	<path d="M20.3,27.5c-0.1-0.2-0.5-0.2-0.8,0l-7.9,7.9c-0.2,0.2-0.2,0.6,0,0.8c0.1,0.1,0.3,0.2,0.4,0.2s0.3-0.1,0.4-0.2l7.9-7.9
		C20.5,28.1,20.5,27.7,20.3,27.5z"/>
	<path d="M27.4,20.5c0.1,0.1,0.3,0.2,0.4,0.2c0.1,0,0.3-0.1,0.4-0.2l7.9-7.9c0.2-0.2,0.2-0.6,0-0.8c-0.2-0.2-0.6-0.2-0.8,0l-7.9,7.9
		C27.2,19.9,27.2,20.3,27.4,20.5z"/>
	<path d="M47.1,0l-3.9,3.9c-0.3,0.2-0.3,0.6,0,0.8c0.1,0.1,0.3,0.2,0.4,0.2c0.1,0,0.3-0.1,0.4-0.2l4-4V0H47.1z"/>
	<path d="M8.7,8.8C8.8,9,9,9.1,9.2,9.1c0.1,0,0.2,0,0.3-0.1c0.3-0.1,0.4-0.5,0.2-0.8L9.5,7.9L17.2,0h-1.7L8.9,6.8L7.2,3.6
		C7,3.3,6.8,3.1,6.5,3.1c-0.3,0-0.6,0.1-0.7,0.4L3,8.3C2.8,8.5,2.9,8.9,3.2,9C3.5,9.2,3.8,9.1,4,8.8l2.5-4.2l1.6,3L0,15.9v1v0.7
		l8.7-8.9L8.7,8.8z"/>
	<path d="M16.3,37.2l2.5-4.2l2.3,4.2c0.1,0.2,0.3,0.3,0.5,0.3c0.1,0,0.2,0,0.3-0.1c0.3-0.1,0.4-0.5,0.2-0.8L19.5,32
		c-0.1-0.3-0.4-0.4-0.7-0.4c-0.3,0-0.6,0.1-0.7,0.4l-2.8,4.7c-0.2,0.3-0.1,0.6,0.2,0.8C15.8,37.6,16.1,37.5,16.3,37.2z"/>
	<path d="M8.2,24.5l7.7-7.6l-0.5,0.9c-0.2,0.3-0.1,0.6,0.2,0.8c0.3,0.2,0.6,0.1,0.8-0.2l2.5-4.2l2.3,4.2c0.1,0.2,0.3,0.3,0.5,0.3
		c0.1,0,0.2,0,0.3-0.1c0.3-0.1,0.4-0.5,0.2-0.8l-2.5-4.6L33,0h-1.7L7.6,23.4l-0.4-0.8c-0.1-0.3-0.4-0.4-0.7-0.4
		c-0.3,0-0.6,0.1-0.7,0.4L3,27.3c-0.1,0.2-0.1,0.5,0.1,0.6l-3,3v1.7l7.4-7.3l1.4,2.5C8.8,28,9,28.1,9.2,28.1c0.1,0,0.2,0,0.3-0.1
		c0.3-0.1,0.4-0.5,0.2-0.8L8.2,24.5z M5.1,25.8l1.3-2.3l0.3,0.6L5.1,25.8z"/>
	<path d="M7.2,41.6c-0.1-0.3-0.4-0.4-0.7-0.4c-0.3,0-0.6,0.1-0.7,0.4l-1.1,1.9c0,0,0-0.1-0.1-0.1C4.4,43,4,43,3.8,43.3L0,47.1V48
		h0.7l3.1-3.1L3,46.3c-0.2,0.3-0.1,0.6,0.2,0.8c0.3,0.2,0.6,0.1,0.8-0.2l2.5-4.2l2.3,4.2C8.8,47,9,47.1,9.2,47.1
		c0.1,0,0.2,0,0.3-0.1c0.3-0.1,0.4-0.5,0.2-0.8L7.2,41.6z"/>
	<path d="M30.7,3.1c-0.3,0-0.6,0.1-0.7,0.4l-2.8,4.7c-0.2,0.3-0.1,0.6,0.2,0.8c0.3,0.2,0.6,0.1,0.8-0.2l2.5-4.2L33,8.8
		c0.1,0.2,0.3,0.3,0.5,0.3c0.1,0,0.2,0,0.3-0.1C34,8.9,34.1,8.5,34,8.3l-2.6-4.7C31.3,3.3,31,3.1,30.7,3.1z"/>
	<path d="M39,18.5c0.3,0.2,0.6,0.1,0.8-0.2l2.5-4.2l2.3,4.2c0.1,0.2,0.3,0.3,0.5,0.3c0.1,0,0.2,0,0.3-0.1c0.3-0.1,0.4-0.5,0.2-0.8
		L43,13.1c-0.1-0.3-0.4-0.4-0.7-0.4c-0.3,0-0.6,0.1-0.7,0.4l-2.8,4.7C38.6,18,38.7,18.4,39,18.5z"/>
	<path d="M43.1,32c-0.1-0.3-0.4-0.4-0.7-0.4c-0.3,0-0.6,0.1-0.7,0.4l-2.8,4.7c-0.2,0.3-0.1,0.6,0.2,0.8c0.3,0.2,0.6,0.1,0.8-0.2
		l2.5-4.2l1.3,2.4l-10,10.3l-2.2-4.1c-0.1-0.3-0.4-0.4-0.7-0.4c-0.3,0-0.6,0.1-0.7,0.4l-2.8,4.7c-0.2,0.3-0.1,0.6,0.2,0.8
		c0.3,0.2,0.6,0.1,0.8-0.2l2.5-4.2l2.1,3.9L31.3,48H33l11.2-11.5l0.4,0.7c0.1,0.2,0.3,0.3,0.5,0.3c0.1,0,0.2,0,0.3-0.1
		c0.3-0.1,0.4-0.5,0.2-0.8l-0.6-1l2.9-3v-1.7l-3.5,3.6L43.1,32z"/>
	<path d="M30.7,22.1c-0.3,0-0.6,0.1-0.7,0.4l-2.8,4.7c-0.2,0.3-0.1,0.6,0.2,0.8c0.3,0.2,0.6,0.1,0.8-0.2l2.5-4.2l2.3,4.2
		c0.1,0.2,0.3,0.3,0.5,0.3c0.1,0,0.2,0,0.3-0.1c0.3-0.1,0.4-0.5,0.2-0.8l-2.6-4.7C31.3,22.3,31,22.1,30.7,22.1z"/>
	<polygon points="17.2,48 48,17.6 48,16.9 48,15.9 15.5,48 	"/>
	<polygon points="48,48 48,47.1 47.1,48 	"/>
	<polygon points="0,0 0,0.6 0.7,0 	"/>
</g>
</svg>
