<svg xmlns="http://www.w3.org/2000/svg" width="48.565" height="48" viewBox="0 0 48.565 48">
  <g id="粉质粘土与粉细砂互层" transform="translate(-7560 -56)">
    <path id="路径_3279" data-name="路径 3279" d="M0,0H48V48H0Z" transform="translate(7560 56)" fill="none"/>
    <g id="粉质粘土与粉细砂互层-2" data-name="粉质粘土与粉细砂互层" transform="translate(7560.032 56)">
      <path id="路径_2591" data-name="路径 2591" d="M4.146,15.71a.749.749,0,0,1-.395-.2.423.423,0,0,1,.1-.691l6.32-5.53a.423.423,0,0,1,.691.1.423.423,0,0,1-.1.691l-6.32,5.53c-.1,0-.2.1-.3.1ZM14.712,6.526a.749.749,0,0,1-.395-.2.423.423,0,0,1,.1-.691l6.32-5.53a.488.488,0,0,1,.691.1.423.423,0,0,1-.1.691l-6.32,5.53c-.1,0-.2.1-.3.1ZM2.369,39.607a.749.749,0,0,1-.395-.2.423.423,0,0,1,.1-.691l2.666-2.271a.423.423,0,0,1,.691.1.37.37,0,0,1,0,.592l-2.765,2.37a.363.363,0,0,1-.3.1ZM9.38,33.682a.749.749,0,0,1-.395-.2.423.423,0,0,1,.1-.691L15.5,27.362a.494.494,0,1,1,.592.79L9.676,33.583c-.1,0-.2.1-.3.1ZM19.946,24.6a.749.749,0,0,1-.395-.2.608.608,0,0,1,.1-.691l6.419-5.431a.494.494,0,1,1,.592.79L20.242,24.5c0,.1-.1.1-.3.1ZM30.61,15.512a.749.749,0,0,1-.395-.2.423.423,0,0,1,.1-.691l6.419-5.431a.488.488,0,0,1,.691.1.423.423,0,0,1-.1.691l-6.419,5.431c0,.1-.1.1-.3.1ZM41.275,6.427a.749.749,0,0,1-.395-.2.423.423,0,0,1,.1-.691L47.4.108a.488.488,0,0,1,.691.1.423.423,0,0,1-.1.691L41.571,6.329c0,.1-.2.1-.3.1ZM4.541,48a.749.749,0,0,1-.395-.2.488.488,0,0,1,.1-.691l.395-.3a.477.477,0,0,1,.691,0,.488.488,0,0,1-.1.691l-.395.3c-.1.2-.2.2-.3.2Zm4.74-3.95a.749.749,0,0,1-.395-.2.488.488,0,0,1,.1-.691l.395-.395a.521.521,0,0,1,.691.2.488.488,0,0,1-.1.691l-.395.3a.363.363,0,0,1-.3.1Zm4.74-3.95a.749.749,0,0,1-.395-.2.488.488,0,0,1,.1-.691l.395-.395a.494.494,0,0,1,.592.79L14.317,40a.363.363,0,0,1-.3.1Zm4.74-3.851a.749.749,0,0,1-.395-.2.488.488,0,0,1,.1-.691l.395-.395a.494.494,0,0,1,.592.79l-.395.395c-.1,0-.2.1-.3.1ZM23.5,32.3a.749.749,0,0,1-.395-.2.488.488,0,0,1,.1-.691l.395-.395a.494.494,0,1,1,.592.79L23.8,32.2c-.1,0-.2.1-.3.1Zm4.74-3.95a.749.749,0,0,1-.395-.2.488.488,0,0,1,.1-.691l.395-.395a.494.494,0,0,1,.592.79l-.395.395a.363.363,0,0,1-.3.1Zm4.74-3.95a.749.749,0,0,1-.395-.2.488.488,0,0,1,.1-.691l.395-.395a.494.494,0,0,1,.592.79l-.395.395A.363.363,0,0,1,32.98,24.4Zm4.74-3.95a.749.749,0,0,1-.395-.2.488.488,0,0,1,.1-.691l.395-.395a.494.494,0,0,1,.592.79l-.395.395A.363.363,0,0,1,37.72,20.45Zm4.74-3.95a.749.749,0,0,1-.395-.2.488.488,0,0,1,.1-.691l.395-.395a.494.494,0,1,1,.592.79l-.395.395A.363.363,0,0,1,42.46,16.5Zm4.74-3.851a.749.749,0,0,1-.395-.2.488.488,0,0,1,.1-.691l.395-.395a.494.494,0,1,1,.592.79l-.395.395C47.4,12.55,47.3,12.649,47.2,12.649ZM20.637,45.926a.749.749,0,0,1-.395-.2.477.477,0,0,1,0-.691l6.32-5.53a.489.489,0,0,1,.691.691l-6.32,5.53c-.1.1-.2.2-.3.2ZM31.2,36.743a.749.749,0,0,1-.395-.2.477.477,0,0,1,0-.691l6.32-5.53a.489.489,0,1,1,.691.691l-6.32,5.53C31.4,36.644,31.3,36.743,31.2,36.743Zm10.566-9.183a.749.749,0,0,1-.395-.2.477.477,0,0,1,0-.691l6.32-5.53a.489.489,0,1,1,.691.691l-6.32,5.53c-.1.1-.2.2-.3.2ZM23.4,8.2a.513.513,0,0,1-.395-.2.488.488,0,0,1,.1-.691l.3-.2a.494.494,0,0,1,.592.79l-.3.2a.363.363,0,0,1-.3.1ZM5.035,24.3a.749.749,0,0,1-.395-.2.477.477,0,0,1,0-.691l.395-.395a.489.489,0,1,1,.691.691l-.395.395c0,.2-.1.2-.3.2Zm4.641-4.049a.749.749,0,0,1-.395-.2.477.477,0,0,1,0-.691l.395-.395a.489.489,0,0,1,.691.691l-.395.395c-.1.2-.2.2-.3.2Zm4.542-3.95a.749.749,0,0,1-.395-.2.477.477,0,0,1,0-.691l.395-.395a.489.489,0,1,1,.691.691l-.395.395c0,.1-.1.2-.3.2Zm4.641-4.049a.749.749,0,0,1-.395-.2.477.477,0,0,1,0-.691l.395-.395a.489.489,0,1,1,.691.691l-.395.395c-.1.1-.2.2-.3.2ZM.69,28.152a.594.594,0,0,1-.395-.1.477.477,0,0,1,0-.691l.2-.2a.477.477,0,0,1,.691,0,.477.477,0,0,1,0,.691l-.2.2c0,.1-.2.1-.3.1ZM27.648,5.144a.594.594,0,0,1-.395-.1.477.477,0,0,1,0-.691l.2-.2a.489.489,0,0,1,.691.691l-.2.2C27.944,5.144,27.747,5.144,27.648,5.144Z" transform="translate(0 0)" fill="#333"/>
      <path id="路径_2592" data-name="路径 2592" d="M645.311,29.765a.594.594,0,0,1-.4-.1.477.477,0,0,1,0-.691l.2-.2a.489.489,0,0,1,.691.691l-.1.2A.594.594,0,0,1,645.311,29.765Z" transform="translate(-614.404 -27.287)" fill="#333"/>
      <path id="路径_2593" data-name="路径 2593" d="M592.646,653.06a.749.749,0,0,1-.4-.2.477.477,0,0,1,0-.691l.4-.395a.489.489,0,0,1,.691.691l-.395.395C592.843,652.961,592.745,653.06,592.646,653.06Zm4.542-4.147a.749.749,0,0,1-.4-.2.477.477,0,0,1,0-.691l.4-.4a.489.489,0,0,1,.691.691l-.4.4C597.484,648.912,597.386,648.912,597.188,648.912Zm4.641-4.049a.749.749,0,0,1-.4-.2.477.477,0,0,1,0-.691l.4-.4a.489.489,0,0,1,.691.691l-.395.395C602.126,644.864,601.928,644.864,601.829,644.864Zm4.641-4.049a.749.749,0,0,1-.4-.2.477.477,0,0,1,0-.691l.4-.395a.489.489,0,0,1,.691.691l-.395.4C606.668,640.815,606.569,640.815,606.47,640.815Zm4.641-4.049a.749.749,0,0,1-.395-.2.477.477,0,0,1,0-.691l.395-.395a.489.489,0,0,1,.691.691l-.4.4C611.309,636.668,611.21,636.766,611.112,636.766Z" transform="translate(-564.208 -605.553)" fill="#333"/>
    </g>
  </g>
</svg>
