<svg xmlns="http://www.w3.org/2000/svg" width="48" height="48" viewBox="0 0 48 48">
  <g id="粗_中细_砂淤泥互层" data-name="粗(中细)砂淤泥互层" transform="translate(-7619 -56)">
    <path id="路径_3280" data-name="路径 3280" d="M0,0H48V48H0Z" transform="translate(7619 56)" fill="none"/>
    <g id="粗_中细_砂淤泥互层-2" data-name="粗(中细)砂淤泥互层" transform="translate(7617.321 55.996)">
      <path id="路径_2594" data-name="路径 2594" d="M8.8,10.9H7.6A1.216,1.216,0,0,1,6.4,9.7h0A1.216,1.216,0,0,1,7.6,8.5H8.7A1.216,1.216,0,0,1,9.9,9.7h0C9.8,10.4,9.4,10.9,8.8,10.9Z"/>
      <path id="路径_2595" data-name="路径 2595" d="M24.5,11H23.3a1.216,1.216,0,0,1-1.2-1.2h0a1.216,1.216,0,0,1,1.2-1.2h1.2a1.216,1.216,0,0,1,1.2,1.2h0A1.216,1.216,0,0,1,24.5,11Z"/>
      <path id="路径_2596" data-name="路径 2596" d="M40.7,11H39.5a1.216,1.216,0,0,1-1.2-1.2h0a1.216,1.216,0,0,1,1.2-1.2h1.2a1.216,1.216,0,0,1,1.2,1.2h0A1.216,1.216,0,0,1,40.7,11Z"/>
      <path id="路径_2597" data-name="路径 2597" d="M13.112,8.431A3.836,3.836,0,0,1,10.56,7.167c-1.137-1.042-2.1-1.51-2.706-1.317-.581.184-.764.949-.766.957l-.977-.214a2.394,2.394,0,0,1,1.44-1.7c.992-.314,2.232.2,3.686,1.535l0,0c.637.6,1.557,1.239,2.319.9a2,2,0,0,0,.983-1.409.43.43,0,0,0,.3.345l.316-.949a.577.577,0,0,1,.385.548,2.894,2.894,0,0,1-1.535,2.359A2.1,2.1,0,0,1,13.112,8.431Z" fill="#595758"/>
      <path id="路径_2598" data-name="路径 2598" d="M28.912,8.531A3.836,3.836,0,0,1,26.36,7.267c-1.134-1.039-2.093-1.507-2.7-1.319-.584.181-.769.954-.771.961l-.976-.216A2.394,2.394,0,0,1,23.352,5c.992-.314,2.232.2,3.686,1.535l0,0c.637.6,1.557,1.239,2.319.9a2,2,0,0,0,.983-1.409.43.43,0,0,0,.3.345l.316-.949a.577.577,0,0,1,.385.548,2.894,2.894,0,0,1-1.535,2.359A2.1,2.1,0,0,1,28.912,8.531Z" fill="#595758"/>
      <path id="路径_2599" data-name="路径 2599" d="M45.012,8.531A3.836,3.836,0,0,1,42.46,7.267c-1.137-1.042-2.1-1.51-2.706-1.317-.581.184-.764.949-.766.957l-.977-.214A2.394,2.394,0,0,1,39.452,5c.992-.314,2.232.2,3.686,1.535l0,0c.637.6,1.557,1.239,2.319.9a2,2,0,0,0,.983-1.409.43.43,0,0,0,.3.345l.316-.949a.577.577,0,0,1,.385.548,2.894,2.894,0,0,1-1.535,2.359A2.1,2.1,0,0,1,45.012,8.531Z" fill="#595758"/>
      <path id="路径_2600" data-name="路径 2600" d="M8.8,26.8H7.6a1.216,1.216,0,0,1-1.2-1.2h0a1.216,1.216,0,0,1,1.2-1.2H8.7a1.216,1.216,0,0,1,1.2,1.2h0C9.8,26.3,9.4,26.8,8.8,26.8Z"/>
      <path id="路径_2601" data-name="路径 2601" d="M24.5,27H23.3a1.216,1.216,0,0,1-1.2-1.2h0a1.216,1.216,0,0,1,1.2-1.2h1.2a1.216,1.216,0,0,1,1.2,1.2h0A1.216,1.216,0,0,1,24.5,27Z"/>
      <path id="路径_2602" data-name="路径 2602" d="M40.7,27H39.5a1.216,1.216,0,0,1-1.2-1.2h0a1.216,1.216,0,0,1,1.2-1.2h1.2a1.216,1.216,0,0,1,1.2,1.2h0A1.216,1.216,0,0,1,40.7,27Z"/>
      <path id="路径_2603" data-name="路径 2603" d="M13.112,24.331a3.836,3.836,0,0,1-2.552-1.265c-1.134-1.039-2.093-1.507-2.7-1.319-.584.181-.769.954-.771.961l-.976-.216a2.394,2.394,0,0,1,1.44-1.7c.992-.314,2.232.2,3.686,1.535l0,0c.637.6,1.557,1.239,2.319.9a2,2,0,0,0,.983-1.409.43.43,0,0,0,.3.345l.316-.949a.577.577,0,0,1,.385.548,2.894,2.894,0,0,1-1.535,2.359A2.1,2.1,0,0,1,13.112,24.331Z" fill="#595758"/>
      <path id="路径_2604" data-name="路径 2604" d="M28.912,24.531a3.836,3.836,0,0,1-2.552-1.265c-1.134-1.039-2.093-1.507-2.7-1.319-.584.181-.769.954-.771.961l-.976-.216a2.394,2.394,0,0,1,1.44-1.7c.992-.314,2.232.2,3.686,1.535l0,0c.637.6,1.557,1.239,2.319.9a2,2,0,0,0,.983-1.409.43.43,0,0,0,.3.345l.316-.949a.577.577,0,0,1,.385.548,2.894,2.894,0,0,1-1.535,2.359A2.1,2.1,0,0,1,28.912,24.531Z" fill="#595758"/>
      <path id="路径_2605" data-name="路径 2605" d="M45.012,24.531a3.836,3.836,0,0,1-2.552-1.265c-1.134-1.039-2.093-1.507-2.7-1.319-.584.181-.769.954-.771.961l-.976-.216a2.394,2.394,0,0,1,1.44-1.7c.992-.314,2.232.2,3.686,1.535l0,0c.637.6,1.557,1.239,2.319.9a2,2,0,0,0,.983-1.409.43.43,0,0,0,.3.345l.316-.949a.577.577,0,0,1,.385.548,2.894,2.894,0,0,1-1.535,2.359A2.1,2.1,0,0,1,45.012,24.531Z" fill="#595758"/>
      <path id="路径_2606" data-name="路径 2606" d="M8.8,42.7H7.6a1.216,1.216,0,0,1-1.2-1.2h0a1.216,1.216,0,0,1,1.2-1.2H8.7a1.216,1.216,0,0,1,1.2,1.2h0C9.8,42.2,9.4,42.7,8.8,42.7Z"/>
      <path id="路径_2607" data-name="路径 2607" d="M24.5,42.9H23.3a1.216,1.216,0,0,1-1.2-1.2h0a1.216,1.216,0,0,1,1.2-1.2h1.2a1.216,1.216,0,0,1,1.2,1.2h0A1.216,1.216,0,0,1,24.5,42.9Z"/>
      <path id="路径_2608" data-name="路径 2608" d="M40.7,42.9H39.5a1.216,1.216,0,0,1-1.2-1.2h0a1.216,1.216,0,0,1,1.2-1.2h1.2a1.216,1.216,0,0,1,1.2,1.2h0A1.216,1.216,0,0,1,40.7,42.9Z"/>
      <path id="路径_2609" data-name="路径 2609" d="M13.112,40.231a3.836,3.836,0,0,1-2.552-1.265c-1.137-1.042-2.1-1.51-2.706-1.317-.581.184-.764.949-.766.957l-.977-.214a2.394,2.394,0,0,1,1.44-1.7c.992-.314,2.232.2,3.686,1.535l0,0c.637.6,1.557,1.239,2.319.9a2,2,0,0,0,.983-1.409.43.43,0,0,0,.3.345l.316-.949a.577.577,0,0,1,.385.548,2.894,2.894,0,0,1-1.535,2.359A2.1,2.1,0,0,1,13.112,40.231Z" fill="#595758"/>
      <path id="路径_2610" data-name="路径 2610" d="M28.912,40.431a3.837,3.837,0,0,1-2.552-1.265c-1.134-1.039-2.093-1.507-2.7-1.318-.584.181-.769.954-.771.961l-.976-.216a2.394,2.394,0,0,1,1.44-1.7c.992-.314,2.232.2,3.686,1.535l0,0c.637.6,1.557,1.239,2.319.9a2,2,0,0,0,.983-1.409.43.43,0,0,0,.3.345l.316-.949a.577.577,0,0,1,.385.548,2.894,2.894,0,0,1-1.535,2.359A2.1,2.1,0,0,1,28.912,40.431Z" fill="#595758"/>
      <path id="路径_2611" data-name="路径 2611" d="M45.012,40.431a3.837,3.837,0,0,1-2.552-1.265c-1.137-1.042-2.1-1.509-2.706-1.317-.581.184-.764.949-.766.957l-.977-.214a2.394,2.394,0,0,1,1.44-1.7c.992-.314,2.232.2,3.686,1.535l0,0c.637.6,1.557,1.239,2.319.9a2,2,0,0,0,.983-1.408.43.43,0,0,0,.3.345l.316-.949a.577.577,0,0,1,.385.548,2.894,2.894,0,0,1-1.535,2.359A2.1,2.1,0,0,1,45.012,40.431Z" fill="#595758"/>
    </g>
  </g>
</svg>
