<?xml version="1.0" encoding="utf-8"?>
<!-- Generator: Adobe Illustrator 22.1.0, SVG Export Plug-In . SVG Version: 6.00 Build 0)  -->
<svg version="1.1" xml:space="preserve" xmlns="http://www.w3.org/2000/svg" x="0px" y="0px" width="48px" height="48px" viewBox="0 0 48 48" enable-background="new 0 0 48 48" xmlns:xlink="http://www.w3.org/1999/xlink">
<style type="text/css">
	.st0{fill:none;stroke:#595758;stroke-miterlimit:10;}
	.st1{fill:none;stroke:#595758;stroke-miterlimit:10;stroke-dasharray:10.8257,10.8257;}
	.st2{fill:none;stroke:#595758;stroke-miterlimit:10;stroke-dasharray:10.8021,10.8021;}
</style>
<line class="st0" x1="0" y1="48.1" x2="47.8" y2="0.3"/>
<line class="st0" x1="31.8" y1="48.5" x2="48.3" y2="32"/>
<line class="st0" x1="-0.1" y1="16.4" x2="16.3" y2="-0.1"/>
<g>
	<g>
		<line class="st0" x1="-0.1" y1="32" x2="4.3" y2="27.6"/>
		<line class="st1" x1="12" y1="19.9" x2="23.4" y2="8.4"/>
		<line class="st0" x1="27.3" y1="4.5" x2="31.8" y2="0"/>
	</g>
</g>
<g>
	<g>
		<line class="st0" x1="16.3" y1="48.3" x2="20.5" y2="44.1"/>
		<line class="st2" x1="28.2" y1="36.4" x2="39.6" y2="25"/>
		<line class="st0" x1="43.5" y1="21.1" x2="48.1" y2="16.5"/>
	</g>
</g>
<g>
	<g>
		<g>
			<path d="M6,3.6c-0.9,0-1.6,0.7-1.6,1.6S5.1,6.7,6,6.7S7.6,6,7.6,5.2S6.9,3.6,6,3.6L6,3.6z"/>
		</g>
		<g>
			<path d="M18.3,3.6c-0.9,0-1.6,0.7-1.6,1.6s0.7,1.6,1.6,1.6s1.6-0.7,1.6-1.6S19.2,3.6,18.3,3.6L18.3,3.6z"/>
		</g>
		<g>
			<path d="M30.2,3.6c-0.9,0-1.6,0.7-1.6,1.6s0.7,1.6,1.6,1.6s1.6-0.7,1.6-1.6S31.1,3.6,30.2,3.6L30.2,3.6z"/>
		</g>
		<g>
			<path d="M41.8,3.6c-0.9,0-1.6,0.7-1.6,1.6s0.7,1.6,1.6,1.6s1.6-0.7,1.6-1.6S42.7,3.6,41.8,3.6L41.8,3.6z"/>
		</g>
	</g>
	<g>
		<g>
			<path d="M6.1,13.1c-0.9,0-1.6,0.7-1.6,1.6c0,0.9,0.7,1.6,1.6,1.6s1.6-0.7,1.6-1.6S7,13.1,6.1,13.1L6.1,13.1z"/>
		</g>
		<g>
			<path d="M18.4,13.1c-0.9,0-1.6,0.7-1.6,1.6c0,0.9,0.7,1.6,1.6,1.6s1.6-0.7,1.6-1.6S19.3,13.1,18.4,13.1L18.4,13.1z"/>
		</g>
		<g>
			<path d="M30.3,13.1c-0.9,0-1.6,0.7-1.6,1.6c0,0.9,0.7,1.6,1.6,1.6s1.6-0.7,1.6-1.6S31.2,13.1,30.3,13.1L30.3,13.1z"/>
		</g>
		<g>
			<path d="M41.9,13.1c-0.9,0-1.6,0.7-1.6,1.6c0,0.9,0.7,1.6,1.6,1.6c0.9,0,1.6-0.7,1.6-1.6S42.8,13.1,41.9,13.1L41.9,13.1z"/>
		</g>
	</g>
	<g>
		<g>
			<path d="M6.1,22.6c-0.9,0-1.6,0.7-1.6,1.6s0.7,1.6,1.6,1.6s1.6-0.7,1.6-1.6S7,22.6,6.1,22.6L6.1,22.6z"/>
		</g>
		<g>
			<path d="M18.4,22.6c-0.9,0-1.6,0.7-1.6,1.6s0.7,1.6,1.6,1.6S20,25,20,24.2S19.3,22.6,18.4,22.6L18.4,22.6z"/>
		</g>
		<g>
			<path d="M30.3,22.6c-0.9,0-1.6,0.7-1.6,1.6s0.7,1.6,1.6,1.6s1.6-0.7,1.6-1.6S31.2,22.6,30.3,22.6L30.3,22.6z"/>
		</g>
		<g>
			<path d="M41.9,22.6c-0.9,0-1.6,0.7-1.6,1.6s0.7,1.6,1.6,1.6c0.9,0,1.6-0.7,1.6-1.6S42.8,22.6,41.9,22.6L41.9,22.6z"/>
		</g>
	</g>
	<g>
		<g>
			<path d="M6.1,32.1c-0.9,0-1.6,0.7-1.6,1.6c0,0.9,0.7,1.6,1.6,1.6s1.6-0.7,1.6-1.6S7,32.1,6.1,32.1L6.1,32.1z"/>
		</g>
		<g>
			<path d="M18.4,32.1c-0.9,0-1.6,0.7-1.6,1.6c0,0.9,0.7,1.6,1.6,1.6s1.6-0.7,1.6-1.6S19.3,32.1,18.4,32.1L18.4,32.1z"/>
		</g>
		<g>
			<path d="M30.3,32.1c-0.9,0-1.6,0.7-1.6,1.6c0,0.9,0.7,1.6,1.6,1.6s1.6-0.7,1.6-1.6S31.2,32.1,30.3,32.1L30.3,32.1z"/>
		</g>
		<g>
			<path d="M41.9,32.1c-0.9,0-1.6,0.7-1.6,1.6c0,0.9,0.7,1.6,1.6,1.6c0.9,0,1.6-0.7,1.6-1.6S42.8,32.1,41.9,32.1L41.9,32.1z"/>
		</g>
	</g>
	<g>
		<g>
			<path d="M6.1,41.6c-0.9,0-1.6,0.7-1.6,1.6s0.7,1.6,1.6,1.6s1.6-0.7,1.6-1.6S7,41.6,6.1,41.6L6.1,41.6z"/>
		</g>
		<g>
			<path d="M18.4,41.6c-0.9,0-1.6,0.7-1.6,1.6s0.7,1.6,1.6,1.6s1.6-0.7,1.6-1.6S19.3,41.6,18.4,41.6L18.4,41.6z"/>
		</g>
		<g>
			<path d="M30.3,41.6c-0.9,0-1.6,0.7-1.6,1.6s0.7,1.6,1.6,1.6s1.6-0.7,1.6-1.6S31.2,41.6,30.3,41.6L30.3,41.6z"/>
		</g>
		<g>
			<path d="M41.9,41.6c-0.9,0-1.6,0.7-1.6,1.6s0.7,1.6,1.6,1.6c0.9,0,1.6-0.7,1.6-1.6S42.8,41.6,41.9,41.6L41.9,41.6z"/>
		</g>
	</g>
</g>
</svg>
