<?xml version="1.0" encoding="utf-8"?>
<!-- Generator: Adobe Illustrator 15.0.0, SVG Export Plug-In . SVG Version: 6.00 Build 0)  -->
<!DOCTYPE svg PUBLIC "-//W3C//DTD SVG 1.1//EN" "http://www.w3.org/Graphics/SVG/1.1/DTD/svg11.dtd">
<svg version="1.1" id="图层_1" xmlns="http://www.w3.org/2000/svg" xmlns:xlink="http://www.w3.org/1999/xlink" x="0px" y="0px"
	 width="48px" height="48px" viewBox="0 0 48 48" enable-background="new 0 0 48 48" xml:space="preserve">
<g id="粗粒混合土">
	<g id="粗粒混合土_1_">
		<line fill="none" stroke="#040000" stroke-miterlimit="10" x1="11.333" y1="0" x2="5.041" y2="6.293"/>
		<line fill="none" stroke="#040000" stroke-miterlimit="10" x1="26.667" y1="0.419" x2="17.041" y2="9.773"/>
		<line fill="none" stroke="#040000" stroke-miterlimit="10" x1="10.625" y1="16.294" x2="0" y2="26.586"/>
		<line fill="none" stroke="#040000" stroke-miterlimit="10" x1="47.348" y1="0" x2="38.687" y2="9.522"/>
		<line fill="none" stroke="#040000" stroke-miterlimit="10" x1="8.833" y1="40.086" x2="0.46" y2="48.46"/>
		<line fill="none" stroke="#040000" stroke-miterlimit="10" x1="47.348" y1="21.439" x2="37.721" y2="30.793"/>
		<line fill="none" stroke="#040000" stroke-miterlimit="10" x1="31.307" y1="37.314" x2="20.68" y2="47.605"/>
		<line fill="none" stroke="#040000" stroke-miterlimit="10" x1="44.014" y1="41.313" x2="37.721" y2="47.605"/>
		<line fill="none" stroke="#040000" stroke-miterlimit="10" x1="2.583" y1="8.503" x2="1.917" y2="9.086"/>
		<line fill="none" stroke="#040000" stroke-miterlimit="10" x1="14.75" y1="12.169" x2="13.959" y2="12.96"/>
		<line fill="none" stroke="#040000" stroke-miterlimit="10" x1="34.265" y1="14.084" x2="33.474" y2="14.875"/>
		<line fill="none" stroke="#040000" stroke-miterlimit="10" x1="13.959" y1="34.975" x2="13.168" y2="35.766"/>
		<line fill="none" stroke="#040000" stroke-miterlimit="10" x1="34.66" y1="33.676" x2="33.869" y2="34.467"/>
		<line fill="none" stroke="#040000" stroke-miterlimit="10" x1="46.619" y1="38.135" x2="45.828" y2="38.926"/>
		<circle fill="none" stroke="#040000" stroke-miterlimit="10" cx="11.917" cy="6.293" r="1.792"/>
		<circle fill="none" stroke="#040000" stroke-miterlimit="10" cx="6.396" cy="26.586" r="1.75"/>
		<circle fill="none" stroke="#040000" stroke-miterlimit="10" cx="37.721" cy="26.586" r="1.83"/>
		<circle fill="none" stroke="#040000" stroke-miterlimit="10" cx="11.917" cy="43.086" r="1.646"/>
		<circle fill="none" stroke="#040000" stroke-miterlimit="10" cx="33.869" cy="42.46" r="1.881"/>
		<circle fill="none" stroke="#040000" stroke-miterlimit="10" cx="30.158" cy="7.255" r="1.83"/>
		<line fill="none" stroke="#040000" stroke-miterlimit="10" x1="30.375" y1="18.461" x2="17.625" y2="31.212"/>
		<circle fill="none" stroke="#040000" stroke-miterlimit="10" cx="27.66" cy="25.831" r="1.83"/>
	</g>
</g>
</svg>
