<?xml version="1.0" encoding="utf-8"?>
<!-- Generator: Adobe Illustrator 22.1.0, SVG Export Plug-In . SVG Version: 6.00 Build 0)  -->
<svg version="1.1" xml:space="preserve" xmlns="http://www.w3.org/2000/svg" x="0px" y="0px" width="48px" height="48px" viewBox="0 0 48 48" enable-background="new 0 0 48 48" xmlns:xlink="http://www.w3.org/1999/xlink">
<g>
	<g>
		<path d="M8.4,7.6C8.2,7.6,8,7.5,7.9,7.3L5.7,3.1L3.2,7.3C3,7.6,2.7,7.7,2.4,7.5C2.1,7.4,2,7,2.2,6.8L5,2.1
			c0.1-0.2,0.4-0.4,0.7-0.4c0.3,0,0.5,0.2,0.7,0.4L9,6.8c0.1,0.3,0,0.6-0.2,0.8C8.6,7.6,8.5,7.6,8.4,7.6z"/>
		<circle cx="5.6" cy="10.1" r="0.8"/>
	</g>
	<g>
		<path d="M8.4,19.4c-0.2,0-0.4-0.1-0.5-0.3l-2.2-4.2l-2.5,4.2c-0.2,0.3-0.5,0.4-0.8,0.2c-0.3-0.1-0.4-0.5-0.2-0.7L5,13.9
			c0.1-0.2,0.4-0.4,0.7-0.4c0.3,0,0.5,0.2,0.7,0.4L9,18.6c0.1,0.3,0,0.6-0.2,0.8C8.6,19.4,8.5,19.4,8.4,19.4z"/>
		<circle cx="5.6" cy="21.8" r="0.8"/>
	</g>
	<g>
		<path d="M8.4,31.2c-0.2,0-0.4-0.1-0.5-0.3l-2.2-4.2l-2.5,4.2c-0.2,0.3-0.5,0.4-0.8,0.2C2.1,31,2,30.6,2.2,30.4L5,25.7
			c0.1-0.2,0.4-0.4,0.7-0.4c0.3,0,0.5,0.2,0.7,0.4L9,30.4c0.1,0.3,0,0.6-0.2,0.8C8.6,31.2,8.5,31.2,8.4,31.2z"/>
		<circle cx="5.6" cy="33.6" r="0.8"/>
	</g>
	<g>
		<path d="M8.4,43c-0.2,0-0.4-0.1-0.5-0.3l-2.2-4.2l-2.5,4.2C3,43,2.7,43.1,2.4,42.9c-0.3-0.1-0.4-0.5-0.2-0.7L5,37.5
			c0.1-0.2,0.4-0.4,0.7-0.4c0.3,0,0.5,0.2,0.7,0.4L9,42.2c0.1,0.3,0,0.6-0.2,0.8C8.6,43,8.5,43,8.4,43z"/>
		<circle cx="5.6" cy="45.4" r="0.8"/>
	</g>
</g>
<g>
	<g>
		<path d="M20.7,12.4c-0.2,0-0.4-0.1-0.5-0.3L18,7.9l-2.5,4.2c-0.2,0.3-0.5,0.4-0.8,0.2c-0.3-0.1-0.4-0.5-0.2-0.7l2.8-4.7
			c0.1-0.2,0.4-0.4,0.7-0.4s0.5,0.2,0.7,0.4l2.6,4.7c0.1,0.3,0,0.6-0.2,0.8C20.9,12.4,20.8,12.4,20.7,12.4z"/>
		<circle cx="17.9" cy="14.9" r="0.8"/>
	</g>
	<g>
		<path d="M20.7,24.2c-0.2,0-0.4-0.1-0.5-0.3L18,19.7l-2.5,4.2c-0.2,0.3-0.5,0.4-0.8,0.2c-0.3-0.1-0.4-0.5-0.2-0.7l2.8-4.7
			c0.1-0.2,0.4-0.4,0.7-0.4s0.5,0.2,0.7,0.4l2.6,4.7c0.1,0.3,0,0.6-0.2,0.8C20.9,24.2,20.8,24.2,20.7,24.2z"/>
		<circle cx="17.9" cy="26.7" r="0.8"/>
	</g>
	<circle cx="17.9" cy="3.1" r="0.8"/>
	<g>
		<path d="M20.7,36c-0.2,0-0.4-0.1-0.5-0.3L18,31.5l-2.5,4.2c-0.2,0.3-0.5,0.4-0.8,0.2c-0.3-0.1-0.4-0.5-0.2-0.7l2.8-4.7
			c0.1-0.2,0.4-0.4,0.7-0.4s0.5,0.2,0.7,0.4l2.6,4.7c0.1,0.3,0,0.6-0.2,0.8C20.9,36,20.8,36,20.7,36z"/>
		<circle cx="17.9" cy="38.5" r="0.8"/>
	</g>
	<path d="M20.7,47.8c-0.2,0-0.4-0.1-0.5-0.3L18,43.3l-2.5,4.2c-0.2,0.3-0.5,0.4-0.8,0.2c-0.3-0.1-0.4-0.5-0.2-0.7l2.8-4.7
		c0.1-0.2,0.4-0.4,0.7-0.4s0.5,0.2,0.7,0.4l2.6,4.7c0.1,0.3,0,0.6-0.2,0.8C20.9,47.8,20.8,47.8,20.7,47.8z"/>
</g>
<g>
	<g>
		<path d="M33,7.6c-0.2,0-0.4-0.1-0.5-0.3l-2.2-4.2l-2.5,4.2c-0.2,0.3-0.5,0.4-0.8,0.2c-0.3-0.1-0.4-0.5-0.2-0.7l2.8-4.7
			c0.1-0.2,0.4-0.4,0.7-0.4c0.3,0,0.5,0.2,0.7,0.4l2.6,4.7c0.1,0.3,0,0.6-0.2,0.8C33.2,7.6,33.1,7.6,33,7.6z"/>
		<circle cx="30.1" cy="10.1" r="0.8"/>
	</g>
	<g>
		<path d="M33,19.4c-0.2,0-0.4-0.1-0.5-0.3l-2.2-4.2l-2.5,4.2c-0.2,0.3-0.5,0.4-0.8,0.2c-0.3-0.1-0.4-0.5-0.2-0.7l2.8-4.7
			c0.1-0.2,0.4-0.4,0.7-0.4c0.3,0,0.5,0.2,0.7,0.4l2.6,4.7c0.1,0.3,0,0.6-0.2,0.8C33.2,19.4,33.1,19.4,33,19.4z"/>
		<circle cx="30.1" cy="21.8" r="0.8"/>
	</g>
	<g>
		<path d="M33,31.2c-0.2,0-0.4-0.1-0.5-0.3l-2.2-4.2l-2.5,4.2c-0.2,0.3-0.5,0.4-0.8,0.2c-0.3-0.1-0.4-0.5-0.2-0.7l2.8-4.7
			c0.1-0.2,0.4-0.4,0.7-0.4c0.3,0,0.5,0.2,0.7,0.4l2.6,4.7c0.1,0.3,0,0.6-0.2,0.8C33.2,31.2,33.1,31.2,33,31.2z"/>
		<circle cx="30.1" cy="33.6" r="0.8"/>
	</g>
	<g>
		<path d="M33,43c-0.2,0-0.4-0.1-0.5-0.3l-2.2-4.2l-2.5,4.2c-0.2,0.3-0.5,0.4-0.8,0.2c-0.3-0.1-0.4-0.5-0.2-0.7l2.8-4.7
			c0.1-0.2,0.4-0.4,0.7-0.4c0.3,0,0.5,0.2,0.7,0.4l2.6,4.7c0.1,0.3,0,0.6-0.2,0.8C33.2,43,33.1,43,33,43z"/>
		<circle cx="30.1" cy="45.4" r="0.8"/>
	</g>
</g>
<g>
	<g>
		<path d="M45.3,12.4c-0.2,0-0.4-0.1-0.5-0.3l-2.2-4.2l-2.5,4.2c-0.2,0.3-0.5,0.4-0.8,0.2c-0.3-0.1-0.4-0.5-0.2-0.7l2.8-4.7
			c0.1-0.2,0.4-0.4,0.7-0.4s0.5,0.2,0.7,0.4l2.6,4.7c0.1,0.3,0,0.6-0.2,0.8C45.5,12.4,45.4,12.4,45.3,12.4z"/>
		<circle cx="42.4" cy="14.9" r="0.8"/>
	</g>
	<g>
		<path d="M45.3,24.2c-0.2,0-0.4-0.1-0.5-0.3l-2.2-4.2l-2.5,4.2c-0.2,0.3-0.5,0.4-0.8,0.2c-0.3-0.1-0.4-0.5-0.2-0.7l2.8-4.7
			c0.1-0.2,0.4-0.4,0.7-0.4s0.5,0.2,0.7,0.4l2.6,4.7c0.1,0.3,0,0.6-0.2,0.8C45.5,24.2,45.4,24.2,45.3,24.2z"/>
		<circle cx="42.4" cy="26.7" r="0.8"/>
	</g>
	<circle cx="42.4" cy="3.1" r="0.8"/>
	<g>
		<path d="M45.3,36c-0.2,0-0.4-0.1-0.5-0.3l-2.2-4.2l-2.5,4.2c-0.2,0.3-0.5,0.4-0.8,0.2c-0.3-0.1-0.4-0.5-0.2-0.7l2.8-4.7
			c0.1-0.2,0.4-0.4,0.7-0.4s0.5,0.2,0.7,0.4l2.6,4.7c0.1,0.3,0,0.6-0.2,0.8C45.5,36,45.4,36,45.3,36z"/>
		<circle cx="42.4" cy="38.5" r="0.8"/>
	</g>
	<path d="M45.3,47.8c-0.2,0-0.4-0.1-0.5-0.3l-2.2-4.2l-2.5,4.2c-0.2,0.3-0.5,0.4-0.8,0.2c-0.3-0.1-0.4-0.5-0.2-0.7l2.8-4.7
		c0.1-0.2,0.4-0.4,0.7-0.4s0.5,0.2,0.7,0.4l2.6,4.7c0.1,0.3,0,0.6-0.2,0.8C45.5,47.8,45.4,47.8,45.3,47.8z"/>
</g>
</svg>
