<?xml version='1.0' encoding='utf-8'?>
<!DOCTYPE svg PUBLIC '-//W3C//DTD SVG 1.1//EN' 'http://www.w3.org/Graphics/SVG/1.1/DTD/svg11.dtd'>
<!-- Generator: Adobe Illustrator 16.0.0, SVG Export Plug-In . SVG Version: 6.00 Build 0)  -->
<svg version="1.1" xml:space="preserve" xmlns="http://www.w3.org/2000/svg" x="0px" width="48px" viewBox="0 0 48 48" enable-background="new 0 0 48 48" y="0px" xmlns:xlink="http://www.w3.org/1999/xlink" height="48px">
    <g id="粗面岩">
        <line y1="2.064" fill="none" stroke-miterlimit="10" x2="10.646" y2="6.043" stroke="#000000" x1="6.667"/>
        <line y1="6.043" fill="none" stroke-miterlimit="10" x2="18.313" y2="2.043" stroke="#000000" x1="14.313"/>
        <line y1="16.931" fill="none" stroke-miterlimit="10" x2="6.271" y2="20.668" stroke="#000000" x1="10.333"/>
        <line y1="16.931" fill="none" stroke-miterlimit="10" x2="18.417" y2="20.668" stroke="#000000" x1="14.554"/>
        <line y1="2.064" fill="none" stroke-miterlimit="10" x2="36.583" y2="6.043" stroke="#000000" x1="32.604"/>
        <line y1="6.043" fill="none" stroke-miterlimit="10" x2="43.249" y2="2.043" stroke="#000000" x1="39.249"/>
        <line y1="16.93" fill="none" stroke-miterlimit="10" x2="32.207" y2="20.668" stroke="#000000" x1="36.27"/>
        <line y1="16.93" fill="none" stroke-miterlimit="10" x2="43.353" y2="20.668" stroke="#000000" x1="39.491"/>
        <line y1="27.449" fill="none" stroke-miterlimit="10" x2="11.716" y2="31.428" stroke="#000000" x1="7.736"/>
        <line y1="31.428" fill="none" stroke-miterlimit="10" x2="19.382" y2="27.428" stroke="#000000" x1="15.382"/>
        <line y1="39.314" fill="none" stroke-miterlimit="10" x2="7.34" y2="43.053" stroke="#000000" x1="11.403"/>
        <line y1="39.314" fill="none" stroke-miterlimit="10" x2="19.486" y2="43.053" stroke="#000000" x1="15.624"/>
        <line y1="27.449" fill="none" stroke-miterlimit="10" x2="37.652" y2="31.428" stroke="#000000" x1="33.673"/>
        <line y1="31.428" fill="none" stroke-miterlimit="10" x2="44.318" y2="27.428" stroke="#000000" x1="40.318"/>
        <line y1="39.314" fill="none" stroke-miterlimit="10" x2="33.276" y2="43.053" stroke="#000000" x1="37.339"/>
        <line y1="39.314" fill="none" stroke-miterlimit="10" x2="44.422" y2="43.053" stroke="#000000" x1="40.561"/>
        <line y1="10.917" fill="none" stroke-miterlimit="10" x2="48" y2="10.917" stroke="#000000" x1="0"/>
        <line y1="24.417" fill="none" stroke-miterlimit="10" x2="48" y2="24.417" stroke="#000000" x1="0"/>
        <line y1="36.167" fill="none" stroke-miterlimit="10" x2="48" y2="36.167" stroke="#000000" x1="0"/>
        <line y1="47" fill="none" stroke-miterlimit="10" x2="48" y2="47" stroke="#000000" x1="0"/>
    </g>
</svg>
