<?xml version="1.0" encoding="utf-8"?>
<!-- Generator: Adobe Illustrator 16.0.0, SVG Export Plug-In . SVG Version: 6.00 Build 0)  -->
<!DOCTYPE svg PUBLIC "-//W3C//DTD SVG 1.1//EN" "http://www.w3.org/Graphics/SVG/1.1/DTD/svg11.dtd">
<svg version="1.1" id="图层_1" xmlns="http://www.w3.org/2000/svg" xmlns:xlink="http://www.w3.org/1999/xlink" x="0px" y="0px"
	 width="48px" height="48px" viewBox="0 0 48 48" enable-background="new 0 0 48 48" xml:space="preserve">
<line fill="none" stroke="#000000" stroke-width="2" stroke-miterlimit="10" x1="0" y1="15.958" x2="16" y2="0"/>
<line fill="none" stroke="#000000" stroke-width="2" stroke-miterlimit="10" x1="0" y1="31.917" x2="32" y2="0"/>
<line fill="none" stroke="#000000" stroke-width="2" stroke-miterlimit="10" x1="0" y1="48" x2="48" y2="0"/>
<line fill="none" stroke="#000000" stroke-width="2" stroke-miterlimit="10" x1="16" y1="48" x2="48" y2="15.958"/>
<line fill="none" stroke="#000000" stroke-width="2" stroke-miterlimit="10" x1="32" y1="48" x2="48" y2="32.208"/>
<path fill="#FFFFFF" stroke="#000000" stroke-miterlimit="10" d="M26.021,10.979c2.75-0.125,2.188,4.583-0.396,4.146
	c-2.195-0.372-1.229-3.833,0.208-4.104"/>
<path fill="#FFFFFF" stroke="#000000" stroke-miterlimit="10" d="M7.035,29.894c2.75-0.125,2.188,4.583-0.396,4.146
	c-2.195-0.372-1.229-3.833,0.208-4.104"/>
<path fill="#FFFFFF" stroke="#000000" stroke-miterlimit="10" d="M30.751,39.084c2.75-0.125,2.188,4.583-0.396,4.146
	c-2.195-0.372-1.229-3.833,0.208-4.104"/>
<path fill="#FFFFFF" stroke="#000000" stroke-miterlimit="10" d="M13.154,40.106c2.75-0.125,2.188,4.583-0.396,4.146
	c-2.195-0.372-1.229-3.833,0.208-4.104"/>
<path fill="#FFFFFF" stroke="#000000" stroke-miterlimit="10" d="M23.132,29.804c2.75-0.125,2.188,4.583-0.396,4.146
	c-2.195-0.372-1.229-3.833,0.208-4.104"/>
<path fill="#FFFFFF" stroke="#000000" stroke-miterlimit="10" d="M32.504,21.914c2.751-0.125,2.188,4.583-0.395,4.146
	c-2.195-0.372-1.229-3.833,0.207-4.104"/>
<path fill="#FFFFFF" stroke="#000000" stroke-miterlimit="10" d="M41.048,13.068c2.751-0.125,2.188,4.583-0.396,4.146
	c-2.195-0.372-1.229-3.833,0.208-4.104"/>
<path fill="#FFFFFF" stroke="#000000" stroke-miterlimit="10" d="M14.907,21.914c2.75-0.125,2.188,4.583-0.396,4.146
	c-2.195-0.372-1.229-3.833,0.208-4.104"/>
<path fill="#FFFFFF" stroke="#000000" stroke-miterlimit="10" d="M33.688,3.805c2.751-0.125,2.188,4.583-0.395,4.146
	c-2.195-0.372-1.229-3.833,0.207-4.104"/>
<path fill="#FFFFFF" stroke="#000000" stroke-miterlimit="10" d="M44.555,42.873c2.75-0.125,2.188,4.583-0.396,4.146
	c-2.195-0.372-1.229-3.833,0.209-4.104"/>
<path fill="#FFFFFF" stroke="#000000" stroke-miterlimit="10" d="M41.047,29.804c2.751-0.125,2.188,4.583-0.395,4.146
	c-2.195-0.372-1.229-3.833,0.207-4.104"/>
<path fill="#FFFFFF" stroke="#000000" stroke-miterlimit="10" d="M5.813,15.156c2.75-0.125,2.188,4.583-0.396,4.146
	c-2.195-0.372-1.229-3.833,0.208-4.104"/>
<path fill="#FFFFFF" stroke="#000000" stroke-miterlimit="10" d="M15.455,5.893c2.75-0.125,2.188,4.583-0.396,4.146
	c-2.195-0.372-1.229-3.833,0.208-4.104"/>
<path fill="#FFFFFF" stroke="#000000" stroke-miterlimit="10" d="M4.06,1.716c2.75-0.125,2.188,4.583-0.396,4.146
	C1.469,5.49,2.436,2.029,3.873,1.758"/>
</svg>
