<svg xmlns="http://www.w3.org/2000/svg" width="48" height="48" viewBox="0 0 48 48">
  <g id="粘土夹中细砂" transform="translate(-7928 -56)">
    <path id="路径_3285" data-name="路径 3285" d="M0,0H48V48H0Z" transform="translate(7928 56)" fill="none"/>
    <g id="粘土夹中细砂-2" data-name="粘土夹中细砂" transform="translate(7928 56)">
      <g id="组_1484" data-name="组 1484">
        <path id="路径_2704" data-name="路径 2704" d="M17,0,0,17V31.1L31,0Z" fill="none"/>
        <path id="路径_2705" data-name="路径 2705" d="M48,.9.9,48H15.5L48,15.5Z" fill="none"/>
        <path id="路径_2706" data-name="路径 2706" d="M32.4,0l.1.1L.1,32.6H0V47.3L47.3,0Z" fill="none"/>
        <path id="路径_2707" data-name="路径 2707" d="M48,17,17,48H31.2L48,31.2Z" fill="none"/>
        <path id="路径_2708" data-name="路径 2708" d="M0,0V15.4L15.4,0Z" fill="none"/>
        <path id="路径_2709" data-name="路径 2709" d="M32.7,48H48V32.7Z" fill="none"/>
        <path id="路径_2710" data-name="路径 2710" d="M48,0h-.7L0,47.3V48H.9L48,.9Z" fill="#595758"/>
        <path id="路径_2711" data-name="路径 2711" d="M48,31.2,31.2,48h1.5L48,32.7Z" fill="#595758"/>
        <path id="路径_2712" data-name="路径 2712" d="M15.4,0,0,15.4V17L17,0Z" fill="#595758"/>
        <path id="路径_2713" data-name="路径 2713" d="M32.5.1,32.4,0H31L0,31.1v1.5H.1Z" fill="#595758"/>
        <path id="路径_2714" data-name="路径 2714" d="M48,15.5,15.5,48H17L48,17Z" fill="#595758"/>
      </g>
      <g id="组_1510" data-name="组 1510">
        <g id="组_1489" data-name="组 1489">
          <g id="组_1485" data-name="组 1485">
            <path id="路径_2715" data-name="路径 2715" d="M6,3.6A1.58,1.58,0,0,0,4.4,5.2,1.5,1.5,0,0,0,6,6.7,1.561,1.561,0,0,0,7.6,5.2,1.645,1.645,0,0,0,6,3.6Z"/>
          </g>
          <g id="组_1486" data-name="组 1486">
            <path id="路径_2716" data-name="路径 2716" d="M18.3,3.6a1.6,1.6,0,1,0,1.6,1.6,1.58,1.58,0,0,0-1.6-1.6Z"/>
          </g>
          <g id="组_1487" data-name="组 1487">
            <path id="路径_2717" data-name="路径 2717" d="M30.2,3.6a1.6,1.6,0,1,0,1.6,1.6,1.58,1.58,0,0,0-1.6-1.6Z"/>
          </g>
          <g id="组_1488" data-name="组 1488">
            <path id="路径_2718" data-name="路径 2718" d="M41.8,3.6a1.6,1.6,0,1,0,1.6,1.6,1.58,1.58,0,0,0-1.6-1.6Z"/>
          </g>
        </g>
        <g id="组_1494" data-name="组 1494">
          <g id="组_1490" data-name="组 1490">
            <path id="路径_2719" data-name="路径 2719" d="M6.1,13.1a1.6,1.6,0,1,0,1.6,1.6,1.58,1.58,0,0,0-1.6-1.6Z"/>
          </g>
          <g id="组_1491" data-name="组 1491">
            <path id="路径_2720" data-name="路径 2720" d="M18.4,13.1A1.6,1.6,0,1,0,20,14.7a1.58,1.58,0,0,0-1.6-1.6Z"/>
          </g>
          <g id="组_1492" data-name="组 1492">
            <path id="路径_2721" data-name="路径 2721" d="M30.3,13.1a1.6,1.6,0,1,0,1.6,1.6,1.58,1.58,0,0,0-1.6-1.6Z"/>
          </g>
          <g id="组_1493" data-name="组 1493">
            <path id="路径_2722" data-name="路径 2722" d="M41.9,13.1a1.6,1.6,0,1,0,1.6,1.6,1.58,1.58,0,0,0-1.6-1.6Z"/>
          </g>
        </g>
        <g id="组_1499" data-name="组 1499">
          <g id="组_1495" data-name="组 1495">
            <path id="路径_2723" data-name="路径 2723" d="M6.1,22.6a1.6,1.6,0,1,0,1.6,1.6,1.58,1.58,0,0,0-1.6-1.6Z"/>
          </g>
          <g id="组_1496" data-name="组 1496">
            <path id="路径_2724" data-name="路径 2724" d="M18.4,22.6a1.6,1.6,0,0,0,0,3.2,1.6,1.6,0,1,0,0-3.2Z"/>
          </g>
          <g id="组_1497" data-name="组 1497">
            <path id="路径_2725" data-name="路径 2725" d="M30.3,22.6a1.6,1.6,0,1,0,1.6,1.6,1.58,1.58,0,0,0-1.6-1.6Z"/>
          </g>
          <g id="组_1498" data-name="组 1498">
            <path id="路径_2726" data-name="路径 2726" d="M41.9,22.6a1.6,1.6,0,1,0,1.6,1.6,1.58,1.58,0,0,0-1.6-1.6Z"/>
          </g>
        </g>
        <g id="组_1504" data-name="组 1504">
          <g id="组_1500" data-name="组 1500">
            <path id="路径_2727" data-name="路径 2727" d="M6.1,32.1a1.6,1.6,0,1,0,1.6,1.6,1.58,1.58,0,0,0-1.6-1.6Z"/>
          </g>
          <g id="组_1501" data-name="组 1501">
            <path id="路径_2728" data-name="路径 2728" d="M18.4,32.1A1.6,1.6,0,1,0,20,33.7a1.58,1.58,0,0,0-1.6-1.6Z"/>
          </g>
          <g id="组_1502" data-name="组 1502">
            <path id="路径_2729" data-name="路径 2729" d="M30.3,32.1a1.6,1.6,0,1,0,1.6,1.6,1.58,1.58,0,0,0-1.6-1.6Z"/>
          </g>
          <g id="组_1503" data-name="组 1503">
            <path id="路径_2730" data-name="路径 2730" d="M41.9,32.1a1.6,1.6,0,1,0,1.6,1.6,1.58,1.58,0,0,0-1.6-1.6Z"/>
          </g>
        </g>
        <g id="组_1509" data-name="组 1509">
          <g id="组_1505" data-name="组 1505">
            <path id="路径_2731" data-name="路径 2731" d="M6.1,41.6a1.6,1.6,0,1,0,1.6,1.6,1.58,1.58,0,0,0-1.6-1.6Z"/>
          </g>
          <g id="组_1506" data-name="组 1506">
            <path id="路径_2732" data-name="路径 2732" d="M18.4,41.6A1.6,1.6,0,1,0,20,43.2a1.58,1.58,0,0,0-1.6-1.6Z"/>
          </g>
          <g id="组_1507" data-name="组 1507">
            <path id="路径_2733" data-name="路径 2733" d="M30.3,41.6a1.6,1.6,0,1,0,1.6,1.6,1.58,1.58,0,0,0-1.6-1.6Z"/>
          </g>
          <g id="组_1508" data-name="组 1508">
            <path id="路径_2734" data-name="路径 2734" d="M41.9,41.6a1.6,1.6,0,1,0,1.6,1.6,1.58,1.58,0,0,0-1.6-1.6Z"/>
          </g>
        </g>
      </g>
    </g>
  </g>
</svg>
