<svg xmlns="http://www.w3.org/2000/svg" width="48" height="48" viewBox="0 0 48 48">
  <g id="粘土与粉质粘土互层" transform="translate(-7736 -56)">
    <path id="路径_3282" data-name="路径 3282" d="M0,0H48V48H0Z" transform="translate(7736 56)" fill="none"/>
    <g id="粘土与粉质粘土互层-2" data-name="粘土与粉质粘土互层" transform="translate(7736 56)">
      <path id="路径_2632" data-name="路径 2632" d="M0,0V.8L.8,0Z"/>
      <path id="路径_2633" data-name="路径 2633" d="M48,48v-.8l-.8.8Z"/>
      <path id="路径_2634" data-name="路径 2634" d="M33,48,48,32.6V30.8L31.3,48Z"/>
      <path id="路径_2635" data-name="路径 2635" d="M17.2,48,48,17.6V15.9L15.5,48Z"/>
      <path id="路径_2636" data-name="路径 2636" d="M15.5,0,0,15.9v1.7L17.2,0Z"/>
      <path id="路径_2637" data-name="路径 2637" d="M31.3,0,0,30.8v1.7L33,0Z"/>
      <path id="路径_2638" data-name="路径 2638" d="M20.3,27.5c-.1-.2-.5-.2-.8,0l-7.9,7.9a.608.608,0,0,0,0,.8.758.758,0,0,0,.4.2.758.758,0,0,0,.4-.2l7.9-7.9A.608.608,0,0,0,20.3,27.5Z"/>
      <path id="路径_2639" data-name="路径 2639" d="M27.4,20.5a.5.5,0,0,0,.8,0l7.9-7.9a.566.566,0,1,0-.8-.8l-7.9,7.9A.608.608,0,0,0,27.4,20.5Z"/>
      <path id="路径_2640" data-name="路径 2640" d="M47.1,0,43.2,3.9a.571.571,0,0,0,.1.9c.3.3.7,0,.7,0L48,.9V0Z"/>
      <path id="路径_2641" data-name="路径 2641" d="M4,43.3,0,47.2V48H.8l3.9-3.9a.571.571,0,0,0-.1-.9C4.3,42.9,4,43.3,4,43.3Z"/>
    </g>
  </g>
</svg>
