<svg xmlns="http://www.w3.org/2000/svg" width="48.279" height="48" viewBox="0 0 48.279 48">
  <g id="粘土夹粉细砂" transform="translate(-8061.721 -56)">
    <path id="路径_3287" data-name="路径 3287" d="M0,0H48V48H0Z" transform="translate(8062 56)" fill="none"/>
    <g id="粘土夹粉细砂-2" data-name="粘土夹粉细砂" transform="translate(8061.721 56)">
      <g id="组_1538" data-name="组 1538">
        <path id="路径_2766" data-name="路径 2766" d="M17,0,0,17V31.1L31,0Z" fill="none"/>
        <path id="路径_2767" data-name="路径 2767" d="M48,.9.9,48H15.5L48,15.5Z" fill="none"/>
        <path id="路径_2768" data-name="路径 2768" d="M32.4,0l.1.1L.1,32.6H0V47.3L47.3,0Z" fill="none"/>
        <path id="路径_2769" data-name="路径 2769" d="M48,17,17,48H31.2L48,31.2Z" fill="none"/>
        <path id="路径_2770" data-name="路径 2770" d="M0,0V15.4L15.4,0Z" fill="none"/>
        <path id="路径_2771" data-name="路径 2771" d="M32.7,48H48V32.7Z" fill="none"/>
        <path id="路径_2772" data-name="路径 2772" d="M48,0h-.7L0,47.3V48H.9L48,.9Z" fill="#595758"/>
        <path id="路径_2773" data-name="路径 2773" d="M48,31.2,31.2,48h1.5L48,32.7Z" fill="#595758"/>
        <path id="路径_2774" data-name="路径 2774" d="M15.4,0,0,15.4V17L17,0Z" fill="#595758"/>
        <path id="路径_2775" data-name="路径 2775" d="M32.5.1,32.4,0H31L0,31.1v1.5H.1Z" fill="#595758"/>
        <path id="路径_2776" data-name="路径 2776" d="M48,15.5,15.5,48H17L48,17Z" fill="#595758"/>
      </g>
      <g id="组_1564" data-name="组 1564">
        <g id="组_1543" data-name="组 1543">
          <g id="组_1539" data-name="组 1539">
            <path id="路径_2777" data-name="路径 2777" d="M6,3.6A1.58,1.58,0,0,0,4.4,5.2,1.5,1.5,0,0,0,6,6.7,1.561,1.561,0,0,0,7.6,5.2,1.645,1.645,0,0,0,6,3.6Z"/>
          </g>
          <g id="组_1540" data-name="组 1540">
            <path id="路径_2778" data-name="路径 2778" d="M18.3,3.6a1.6,1.6,0,1,0,1.6,1.6,1.58,1.58,0,0,0-1.6-1.6Z"/>
          </g>
          <g id="组_1541" data-name="组 1541">
            <path id="路径_2779" data-name="路径 2779" d="M30.2,3.6a1.6,1.6,0,1,0,1.6,1.6,1.58,1.58,0,0,0-1.6-1.6Z"/>
          </g>
          <g id="组_1542" data-name="组 1542">
            <path id="路径_2780" data-name="路径 2780" d="M41.8,3.6a1.6,1.6,0,1,0,1.6,1.6,1.58,1.58,0,0,0-1.6-1.6Z"/>
          </g>
        </g>
        <g id="组_1548" data-name="组 1548">
          <g id="组_1544" data-name="组 1544">
            <path id="路径_2781" data-name="路径 2781" d="M6.1,13.1a1.6,1.6,0,1,0,1.6,1.6,1.58,1.58,0,0,0-1.6-1.6Z"/>
          </g>
          <g id="组_1545" data-name="组 1545">
            <path id="路径_2782" data-name="路径 2782" d="M18.4,13.1A1.6,1.6,0,1,0,20,14.7a1.58,1.58,0,0,0-1.6-1.6Z"/>
          </g>
          <g id="组_1546" data-name="组 1546">
            <path id="路径_2783" data-name="路径 2783" d="M30.3,13.1a1.6,1.6,0,1,0,1.6,1.6,1.58,1.58,0,0,0-1.6-1.6Z"/>
          </g>
          <g id="组_1547" data-name="组 1547">
            <path id="路径_2784" data-name="路径 2784" d="M41.9,13.1a1.6,1.6,0,1,0,1.6,1.6,1.58,1.58,0,0,0-1.6-1.6Z"/>
          </g>
        </g>
        <g id="组_1553" data-name="组 1553">
          <g id="组_1549" data-name="组 1549">
            <path id="路径_2785" data-name="路径 2785" d="M6.1,22.6a1.6,1.6,0,1,0,1.6,1.6,1.58,1.58,0,0,0-1.6-1.6Z"/>
          </g>
          <g id="组_1550" data-name="组 1550">
            <path id="路径_2786" data-name="路径 2786" d="M18.4,22.6a1.6,1.6,0,0,0,0,3.2,1.6,1.6,0,1,0,0-3.2Z"/>
          </g>
          <g id="组_1551" data-name="组 1551">
            <path id="路径_2787" data-name="路径 2787" d="M30.3,22.6a1.6,1.6,0,1,0,1.6,1.6,1.58,1.58,0,0,0-1.6-1.6Z"/>
          </g>
          <g id="组_1552" data-name="组 1552">
            <path id="路径_2788" data-name="路径 2788" d="M41.9,22.6a1.6,1.6,0,1,0,1.6,1.6,1.58,1.58,0,0,0-1.6-1.6Z"/>
          </g>
        </g>
        <g id="组_1558" data-name="组 1558">
          <g id="组_1554" data-name="组 1554">
            <path id="路径_2789" data-name="路径 2789" d="M6.1,32.1a1.6,1.6,0,1,0,1.6,1.6,1.58,1.58,0,0,0-1.6-1.6Z"/>
          </g>
          <g id="组_1555" data-name="组 1555">
            <path id="路径_2790" data-name="路径 2790" d="M18.4,32.1A1.6,1.6,0,1,0,20,33.7a1.58,1.58,0,0,0-1.6-1.6Z"/>
          </g>
          <g id="组_1556" data-name="组 1556">
            <path id="路径_2791" data-name="路径 2791" d="M30.3,32.1a1.6,1.6,0,1,0,1.6,1.6,1.58,1.58,0,0,0-1.6-1.6Z"/>
          </g>
          <g id="组_1557" data-name="组 1557">
            <path id="路径_2792" data-name="路径 2792" d="M41.9,32.1a1.6,1.6,0,1,0,1.6,1.6,1.58,1.58,0,0,0-1.6-1.6Z"/>
          </g>
        </g>
        <g id="组_1563" data-name="组 1563">
          <g id="组_1559" data-name="组 1559">
            <path id="路径_2793" data-name="路径 2793" d="M6.1,41.6a1.6,1.6,0,1,0,1.6,1.6,1.58,1.58,0,0,0-1.6-1.6Z"/>
          </g>
          <g id="组_1560" data-name="组 1560">
            <path id="路径_2794" data-name="路径 2794" d="M18.4,41.6A1.6,1.6,0,1,0,20,43.2a1.58,1.58,0,0,0-1.6-1.6Z"/>
          </g>
          <g id="组_1561" data-name="组 1561">
            <path id="路径_2795" data-name="路径 2795" d="M30.3,41.6a1.6,1.6,0,1,0,1.6,1.6,1.58,1.58,0,0,0-1.6-1.6Z"/>
          </g>
          <g id="组_1562" data-name="组 1562">
            <path id="路径_2796" data-name="路径 2796" d="M41.9,41.6a1.6,1.6,0,1,0,1.6,1.6,1.58,1.58,0,0,0-1.6-1.6Z"/>
          </g>
        </g>
      </g>
    </g>
  </g>
</svg>
