<svg xmlns="http://www.w3.org/2000/svg" width="48.717" height="48.917" viewBox="0 0 48.717 48.917">
  <g id="粘土夹薄层粉砂" transform="translate(-8366.362 -55.642)">
    <path id="路径_3292" data-name="路径 3292" d="M0,0H48V48H0Z" transform="translate(8367 56)" fill="none"/>
    <g id="粘土夹薄层粉砂-2" data-name="粘土夹薄层粉砂" transform="translate(8366.721 56.1)">
      <path id="直线_825" data-name="直线 825" d="M.354,48.154l-.707-.707,47.8-47.8.707.707Z" transform="translate(0 0.1)" fill="#595758"/>
      <path id="直线_826" data-name="直线 826" d="M.358,32.358l-.717-.717,32-32,.717.717Z" transform="translate(0 -0.1)" fill="#595758"/>
      <path id="直线_827" data-name="直线 827" d="M.358,32.358l-.717-.717,32-32,.717.717Z" transform="translate(16 16.1)" fill="#595758"/>
      <path id="直线_828" data-name="直线 828" d="M.354,16.154l-.707-.707,15.8-15.8.707.707Z" transform="translate(32.2 32.1)" fill="#595758"/>
      <path id="直线_829" data-name="直线 829" d="M.354,16.354l-.707-.707,16-16,.707.707Z" fill="#595758"/>
      <g id="组_1671" data-name="组 1671">
        <g id="组_1650" data-name="组 1650">
          <g id="组_1646" data-name="组 1646">
            <path id="路径_2900" data-name="路径 2900" d="M6,3.4A1.58,1.58,0,0,0,4.4,5,1.5,1.5,0,0,0,6,6.5,1.561,1.561,0,0,0,7.6,5,1.645,1.645,0,0,0,6,3.4Z"/>
          </g>
          <g id="组_1647" data-name="组 1647">
            <path id="路径_2901" data-name="路径 2901" d="M18.3,3.4A1.6,1.6,0,1,0,19.9,5a1.58,1.58,0,0,0-1.6-1.6Z"/>
          </g>
          <g id="组_1648" data-name="组 1648">
            <path id="路径_2902" data-name="路径 2902" d="M30.2,3.4A1.6,1.6,0,1,0,31.8,5a1.58,1.58,0,0,0-1.6-1.6Z"/>
          </g>
          <g id="组_1649" data-name="组 1649">
            <path id="路径_2903" data-name="路径 2903" d="M41.8,3.4A1.6,1.6,0,1,0,43.4,5a1.58,1.58,0,0,0-1.6-1.6Z"/>
          </g>
        </g>
        <g id="组_1655" data-name="组 1655">
          <g id="组_1651" data-name="组 1651">
            <path id="路径_2904" data-name="路径 2904" d="M6.1,12.9a1.6,1.6,0,1,0,1.6,1.6,1.58,1.58,0,0,0-1.6-1.6Z"/>
          </g>
          <g id="组_1652" data-name="组 1652">
            <path id="路径_2905" data-name="路径 2905" d="M18.4,12.9A1.6,1.6,0,1,0,20,14.5a1.58,1.58,0,0,0-1.6-1.6Z"/>
          </g>
          <g id="组_1653" data-name="组 1653">
            <path id="路径_2906" data-name="路径 2906" d="M30.3,12.9a1.6,1.6,0,1,0,1.6,1.6,1.58,1.58,0,0,0-1.6-1.6Z"/>
          </g>
          <g id="组_1654" data-name="组 1654">
            <path id="路径_2907" data-name="路径 2907" d="M41.9,12.9a1.6,1.6,0,1,0,1.6,1.6,1.58,1.58,0,0,0-1.6-1.6Z"/>
          </g>
        </g>
        <g id="组_1660" data-name="组 1660">
          <g id="组_1656" data-name="组 1656">
            <path id="路径_2908" data-name="路径 2908" d="M6.1,22.4A1.6,1.6,0,1,0,7.7,24a1.58,1.58,0,0,0-1.6-1.6Z"/>
          </g>
          <g id="组_1657" data-name="组 1657">
            <path id="路径_2909" data-name="路径 2909" d="M18.4,22.4a1.6,1.6,0,0,0,0,3.2,1.6,1.6,0,1,0,0-3.2Z"/>
          </g>
          <g id="组_1658" data-name="组 1658">
            <path id="路径_2910" data-name="路径 2910" d="M30.3,22.4A1.6,1.6,0,1,0,31.9,24a1.58,1.58,0,0,0-1.6-1.6Z"/>
          </g>
          <g id="组_1659" data-name="组 1659">
            <path id="路径_2911" data-name="路径 2911" d="M41.9,22.4A1.6,1.6,0,1,0,43.5,24a1.58,1.58,0,0,0-1.6-1.6Z"/>
          </g>
        </g>
        <g id="组_1665" data-name="组 1665">
          <g id="组_1661" data-name="组 1661">
            <path id="路径_2912" data-name="路径 2912" d="M6.1,31.8a1.6,1.6,0,1,0,1.6,1.6,1.58,1.58,0,0,0-1.6-1.6Z"/>
          </g>
          <g id="组_1662" data-name="组 1662">
            <path id="路径_2913" data-name="路径 2913" d="M18.4,31.8A1.6,1.6,0,1,0,20,33.4a1.58,1.58,0,0,0-1.6-1.6Z"/>
          </g>
          <g id="组_1663" data-name="组 1663">
            <path id="路径_2914" data-name="路径 2914" d="M30.3,31.8a1.6,1.6,0,1,0,1.6,1.6,1.58,1.58,0,0,0-1.6-1.6Z"/>
          </g>
          <g id="组_1664" data-name="组 1664">
            <path id="路径_2915" data-name="路径 2915" d="M41.9,31.8a1.6,1.6,0,1,0,1.6,1.6,1.58,1.58,0,0,0-1.6-1.6Z"/>
          </g>
        </g>
        <g id="组_1670" data-name="组 1670">
          <g id="组_1666" data-name="组 1666">
            <path id="路径_2916" data-name="路径 2916" d="M6.1,41.4A1.6,1.6,0,1,0,7.7,43a1.58,1.58,0,0,0-1.6-1.6Z"/>
          </g>
          <g id="组_1667" data-name="组 1667">
            <path id="路径_2917" data-name="路径 2917" d="M18.4,41.4a1.6,1.6,0,1,0,0,3.2A1.666,1.666,0,0,0,20,42.9a1.5,1.5,0,0,0-1.6-1.5Z"/>
          </g>
          <g id="组_1668" data-name="组 1668">
            <path id="路径_2918" data-name="路径 2918" d="M30.3,41.4A1.6,1.6,0,1,0,31.9,43a1.58,1.58,0,0,0-1.6-1.6Z"/>
          </g>
          <g id="组_1669" data-name="组 1669">
            <path id="路径_2919" data-name="路径 2919" d="M41.9,41.4A1.6,1.6,0,1,0,43.5,43a1.58,1.58,0,0,0-1.6-1.6Z"/>
          </g>
        </g>
      </g>
    </g>
  </g>
</svg>
