<svg xmlns="http://www.w3.org/2000/svg" width="48.279" height="48" viewBox="0 0 48.279 48">
  <g id="粘土夹粗砂" transform="translate(-8192.721 -56)">
    <path id="路径_3289" data-name="路径 3289" d="M0,0H48V48H0Z" transform="translate(8193 56)" fill="none"/>
    <g id="粘土夹粗砂-2" data-name="粘土夹粗砂" transform="translate(8192.721 56)">
      <g id="组_1565" data-name="组 1565">
        <path id="路径_2807" data-name="路径 2807" d="M17,0,0,17V31.1L31,0Z" fill="none"/>
        <path id="路径_2808" data-name="路径 2808" d="M48,.9.9,48H15.5L48,15.5Z" fill="none"/>
        <path id="路径_2809" data-name="路径 2809" d="M32.4,0l.1.1L.1,32.6H0V47.3L47.3,0Z" fill="none"/>
        <path id="路径_2810" data-name="路径 2810" d="M48,17,17,48H31.2L48,31.2Z" fill="none"/>
        <path id="路径_2811" data-name="路径 2811" d="M0,0V15.4L15.4,0Z" fill="none"/>
        <path id="路径_2812" data-name="路径 2812" d="M32.7,48H48V32.7Z" fill="none"/>
        <path id="路径_2813" data-name="路径 2813" d="M48,0h-.7L0,47.3V48H.9L48,.9Z" fill="#595758"/>
        <path id="路径_2814" data-name="路径 2814" d="M48,31.2,31.2,48h1.5L48,32.7Z" fill="#595758"/>
        <path id="路径_2815" data-name="路径 2815" d="M15.4,0,0,15.4V17L17,0Z" fill="#595758"/>
        <path id="路径_2816" data-name="路径 2816" d="M32.5.1,32.4,0H31L0,31.1v1.5H.1Z" fill="#595758"/>
        <path id="路径_2817" data-name="路径 2817" d="M48,15.5,15.5,48H17L48,17Z" fill="#595758"/>
      </g>
      <g id="组_1591" data-name="组 1591">
        <g id="组_1570" data-name="组 1570">
          <g id="组_1566" data-name="组 1566">
            <path id="路径_2818" data-name="路径 2818" d="M6,3.6A1.58,1.58,0,0,0,4.4,5.2,1.5,1.5,0,0,0,6,6.7,1.561,1.561,0,0,0,7.6,5.2,1.645,1.645,0,0,0,6,3.6Z"/>
          </g>
          <g id="组_1567" data-name="组 1567">
            <path id="路径_2819" data-name="路径 2819" d="M18.3,3.6a1.6,1.6,0,1,0,1.6,1.6,1.58,1.58,0,0,0-1.6-1.6Z"/>
          </g>
          <g id="组_1568" data-name="组 1568">
            <path id="路径_2820" data-name="路径 2820" d="M30.2,3.6a1.6,1.6,0,1,0,1.6,1.6,1.58,1.58,0,0,0-1.6-1.6Z"/>
          </g>
          <g id="组_1569" data-name="组 1569">
            <path id="路径_2821" data-name="路径 2821" d="M41.8,3.6a1.6,1.6,0,1,0,1.6,1.6,1.58,1.58,0,0,0-1.6-1.6Z"/>
          </g>
        </g>
        <g id="组_1575" data-name="组 1575">
          <g id="组_1571" data-name="组 1571">
            <path id="路径_2822" data-name="路径 2822" d="M6.1,13.1a1.6,1.6,0,1,0,1.6,1.6,1.58,1.58,0,0,0-1.6-1.6Z"/>
          </g>
          <g id="组_1572" data-name="组 1572">
            <path id="路径_2823" data-name="路径 2823" d="M18.4,13.1A1.6,1.6,0,1,0,20,14.7a1.58,1.58,0,0,0-1.6-1.6Z"/>
          </g>
          <g id="组_1573" data-name="组 1573">
            <path id="路径_2824" data-name="路径 2824" d="M30.3,13.1a1.6,1.6,0,1,0,1.6,1.6,1.58,1.58,0,0,0-1.6-1.6Z"/>
          </g>
          <g id="组_1574" data-name="组 1574">
            <path id="路径_2825" data-name="路径 2825" d="M41.9,13.1a1.6,1.6,0,1,0,1.6,1.6,1.58,1.58,0,0,0-1.6-1.6Z"/>
          </g>
        </g>
        <g id="组_1580" data-name="组 1580">
          <g id="组_1576" data-name="组 1576">
            <path id="路径_2826" data-name="路径 2826" d="M6.1,22.6a1.6,1.6,0,1,0,1.6,1.6,1.58,1.58,0,0,0-1.6-1.6Z"/>
          </g>
          <g id="组_1577" data-name="组 1577">
            <path id="路径_2827" data-name="路径 2827" d="M18.4,22.6a1.6,1.6,0,0,0,0,3.2,1.6,1.6,0,1,0,0-3.2Z"/>
          </g>
          <g id="组_1578" data-name="组 1578">
            <path id="路径_2828" data-name="路径 2828" d="M30.3,22.6a1.6,1.6,0,1,0,1.6,1.6,1.58,1.58,0,0,0-1.6-1.6Z"/>
          </g>
          <g id="组_1579" data-name="组 1579">
            <path id="路径_2829" data-name="路径 2829" d="M41.9,22.6a1.6,1.6,0,1,0,1.6,1.6,1.58,1.58,0,0,0-1.6-1.6Z"/>
          </g>
        </g>
        <g id="组_1585" data-name="组 1585">
          <g id="组_1581" data-name="组 1581">
            <path id="路径_2830" data-name="路径 2830" d="M6.1,32.1a1.6,1.6,0,1,0,1.6,1.6,1.58,1.58,0,0,0-1.6-1.6Z"/>
          </g>
          <g id="组_1582" data-name="组 1582">
            <path id="路径_2831" data-name="路径 2831" d="M18.4,32.1A1.6,1.6,0,1,0,20,33.7a1.58,1.58,0,0,0-1.6-1.6Z"/>
          </g>
          <g id="组_1583" data-name="组 1583">
            <path id="路径_2832" data-name="路径 2832" d="M30.3,32.1a1.6,1.6,0,1,0,1.6,1.6,1.58,1.58,0,0,0-1.6-1.6Z"/>
          </g>
          <g id="组_1584" data-name="组 1584">
            <path id="路径_2833" data-name="路径 2833" d="M41.9,32.1a1.6,1.6,0,1,0,1.6,1.6,1.58,1.58,0,0,0-1.6-1.6Z"/>
          </g>
        </g>
        <g id="组_1590" data-name="组 1590">
          <g id="组_1586" data-name="组 1586">
            <path id="路径_2834" data-name="路径 2834" d="M6.1,41.6a1.6,1.6,0,1,0,1.6,1.6,1.58,1.58,0,0,0-1.6-1.6Z"/>
          </g>
          <g id="组_1587" data-name="组 1587">
            <path id="路径_2835" data-name="路径 2835" d="M18.4,41.6A1.6,1.6,0,1,0,20,43.2a1.58,1.58,0,0,0-1.6-1.6Z"/>
          </g>
          <g id="组_1588" data-name="组 1588">
            <path id="路径_2836" data-name="路径 2836" d="M30.3,41.6a1.6,1.6,0,1,0,1.6,1.6,1.58,1.58,0,0,0-1.6-1.6Z"/>
          </g>
          <g id="组_1589" data-name="组 1589">
            <path id="路径_2837" data-name="路径 2837" d="M41.9,41.6a1.6,1.6,0,1,0,1.6,1.6,1.58,1.58,0,0,0-1.6-1.6Z"/>
          </g>
        </g>
      </g>
    </g>
  </g>
</svg>
