<svg xmlns="http://www.w3.org/2000/svg" width="48.279" height="48" viewBox="0 0 48.279 48">
  <g id="粘土夹粉质粘土" transform="translate(-8134.721 -56)">
    <path id="路径_3288" data-name="路径 3288" d="M0,0H48V48H0Z" transform="translate(8135 56)" fill="none"/>
    <g id="粘土夹粉质粘土-2" data-name="粘土夹粉质粘土" transform="translate(8134.721 56)">
      <path id="路径_2797" data-name="路径 2797" d="M0,0V.8L.8,0Z"/>
      <path id="路径_2798" data-name="路径 2798" d="M48,48v-.8l-.8.8Z"/>
      <path id="路径_2799" data-name="路径 2799" d="M33,48,48,32.6V30.8L31.3,48Z"/>
      <path id="路径_2800" data-name="路径 2800" d="M17.2,48,48,17.6V15.9L15.5,48Z"/>
      <path id="路径_2801" data-name="路径 2801" d="M15.5,0,0,15.9v1.7L17.2,0Z"/>
      <path id="路径_2802" data-name="路径 2802" d="M31.3,0,0,30.8v1.7L33,0Z"/>
      <path id="路径_2803" data-name="路径 2803" d="M20.3,27.5c-.1-.2-.5-.2-.8,0l-7.9,7.9a.608.608,0,0,0,0,.8.758.758,0,0,0,.4.2.758.758,0,0,0,.4-.2l7.9-7.9A.608.608,0,0,0,20.3,27.5Z"/>
      <path id="路径_2804" data-name="路径 2804" d="M27.4,20.5a.5.5,0,0,0,.8,0l7.9-7.9a.566.566,0,1,0-.8-.8l-7.9,7.9A.608.608,0,0,0,27.4,20.5Z"/>
      <path id="路径_2805" data-name="路径 2805" d="M47.1,0,43.2,3.9a.571.571,0,0,0,.1.9c.3.3.7,0,.7,0L48,.9V0Z"/>
      <path id="路径_2806" data-name="路径 2806" d="M4,43.3,0,47.2V48H.8l3.9-3.9a.571.571,0,0,0-.1-.9C4.3,42.9,4,43.3,4,43.3Z"/>
    </g>
  </g>
</svg>
