<svg xmlns="http://www.w3.org/2000/svg" width="48.279" height="48" viewBox="0 0 48.279 48">
  <g id="粘土夹细砂" transform="translate(-8308.721 -56)">
    <path id="路径_3291" data-name="路径 3291" d="M0,0H48V48H0Z" transform="translate(8309 56)" fill="none"/>
    <g id="粘土夹细砂-2" data-name="粘土夹细砂" transform="translate(8308.721 56)">
      <g id="组_1619" data-name="组 1619">
        <path id="路径_2869" data-name="路径 2869" d="M17,0,0,17V31.1L31,0Z" fill="none"/>
        <path id="路径_2870" data-name="路径 2870" d="M48,.9.9,48H15.5L48,15.5Z" fill="none"/>
        <path id="路径_2871" data-name="路径 2871" d="M32.4,0l.1.1L.1,32.6H0V47.3L47.3,0Z" fill="none"/>
        <path id="路径_2872" data-name="路径 2872" d="M48,17,17,48H31.2L48,31.2Z" fill="none"/>
        <path id="路径_2873" data-name="路径 2873" d="M0,0V15.4L15.4,0Z" fill="none"/>
        <path id="路径_2874" data-name="路径 2874" d="M32.7,48H48V32.7Z" fill="none"/>
        <path id="路径_2875" data-name="路径 2875" d="M48,0h-.7L0,47.3V48H.9L48,.9Z" fill="#595758"/>
        <path id="路径_2876" data-name="路径 2876" d="M48,31.2,31.2,48h1.5L48,32.7Z" fill="#595758"/>
        <path id="路径_2877" data-name="路径 2877" d="M15.4,0,0,15.4V17L17,0Z" fill="#595758"/>
        <path id="路径_2878" data-name="路径 2878" d="M32.5.1,32.4,0H31L0,31.1v1.5H.1Z" fill="#595758"/>
        <path id="路径_2879" data-name="路径 2879" d="M48,15.5,15.5,48H17L48,17Z" fill="#595758"/>
      </g>
      <g id="组_1645" data-name="组 1645">
        <g id="组_1624" data-name="组 1624">
          <g id="组_1620" data-name="组 1620">
            <path id="路径_2880" data-name="路径 2880" d="M6,3.6A1.58,1.58,0,0,0,4.4,5.2,1.5,1.5,0,0,0,6,6.7,1.561,1.561,0,0,0,7.6,5.2,1.645,1.645,0,0,0,6,3.6Z"/>
          </g>
          <g id="组_1621" data-name="组 1621">
            <path id="路径_2881" data-name="路径 2881" d="M18.3,3.6a1.6,1.6,0,1,0,1.6,1.6,1.58,1.58,0,0,0-1.6-1.6Z"/>
          </g>
          <g id="组_1622" data-name="组 1622">
            <path id="路径_2882" data-name="路径 2882" d="M30.2,3.6a1.6,1.6,0,1,0,1.6,1.6,1.58,1.58,0,0,0-1.6-1.6Z"/>
          </g>
          <g id="组_1623" data-name="组 1623">
            <path id="路径_2883" data-name="路径 2883" d="M41.8,3.6a1.6,1.6,0,1,0,1.6,1.6,1.58,1.58,0,0,0-1.6-1.6Z"/>
          </g>
        </g>
        <g id="组_1629" data-name="组 1629">
          <g id="组_1625" data-name="组 1625">
            <path id="路径_2884" data-name="路径 2884" d="M6.1,13.1a1.6,1.6,0,1,0,1.6,1.6,1.58,1.58,0,0,0-1.6-1.6Z"/>
          </g>
          <g id="组_1626" data-name="组 1626">
            <path id="路径_2885" data-name="路径 2885" d="M18.4,13.1A1.6,1.6,0,1,0,20,14.7a1.58,1.58,0,0,0-1.6-1.6Z"/>
          </g>
          <g id="组_1627" data-name="组 1627">
            <path id="路径_2886" data-name="路径 2886" d="M30.3,13.1a1.6,1.6,0,1,0,1.6,1.6,1.58,1.58,0,0,0-1.6-1.6Z"/>
          </g>
          <g id="组_1628" data-name="组 1628">
            <path id="路径_2887" data-name="路径 2887" d="M41.9,13.1a1.6,1.6,0,1,0,1.6,1.6,1.58,1.58,0,0,0-1.6-1.6Z"/>
          </g>
        </g>
        <g id="组_1634" data-name="组 1634">
          <g id="组_1630" data-name="组 1630">
            <path id="路径_2888" data-name="路径 2888" d="M6.1,22.6a1.6,1.6,0,1,0,1.6,1.6,1.58,1.58,0,0,0-1.6-1.6Z"/>
          </g>
          <g id="组_1631" data-name="组 1631">
            <path id="路径_2889" data-name="路径 2889" d="M18.4,22.6a1.6,1.6,0,0,0,0,3.2,1.6,1.6,0,1,0,0-3.2Z"/>
          </g>
          <g id="组_1632" data-name="组 1632">
            <path id="路径_2890" data-name="路径 2890" d="M30.3,22.6a1.6,1.6,0,1,0,1.6,1.6,1.58,1.58,0,0,0-1.6-1.6Z"/>
          </g>
          <g id="组_1633" data-name="组 1633">
            <path id="路径_2891" data-name="路径 2891" d="M41.9,22.6a1.6,1.6,0,1,0,1.6,1.6,1.58,1.58,0,0,0-1.6-1.6Z"/>
          </g>
        </g>
        <g id="组_1639" data-name="组 1639">
          <g id="组_1635" data-name="组 1635">
            <path id="路径_2892" data-name="路径 2892" d="M6.1,32.1a1.6,1.6,0,1,0,1.6,1.6,1.58,1.58,0,0,0-1.6-1.6Z"/>
          </g>
          <g id="组_1636" data-name="组 1636">
            <path id="路径_2893" data-name="路径 2893" d="M18.4,32.1A1.6,1.6,0,1,0,20,33.7a1.58,1.58,0,0,0-1.6-1.6Z"/>
          </g>
          <g id="组_1637" data-name="组 1637">
            <path id="路径_2894" data-name="路径 2894" d="M30.3,32.1a1.6,1.6,0,1,0,1.6,1.6,1.58,1.58,0,0,0-1.6-1.6Z"/>
          </g>
          <g id="组_1638" data-name="组 1638">
            <path id="路径_2895" data-name="路径 2895" d="M41.9,32.1a1.6,1.6,0,1,0,1.6,1.6,1.58,1.58,0,0,0-1.6-1.6Z"/>
          </g>
        </g>
        <g id="组_1644" data-name="组 1644">
          <g id="组_1640" data-name="组 1640">
            <path id="路径_2896" data-name="路径 2896" d="M6.1,41.6a1.6,1.6,0,1,0,1.6,1.6,1.58,1.58,0,0,0-1.6-1.6Z"/>
          </g>
          <g id="组_1641" data-name="组 1641">
            <path id="路径_2897" data-name="路径 2897" d="M18.4,41.6A1.6,1.6,0,1,0,20,43.2a1.58,1.58,0,0,0-1.6-1.6Z"/>
          </g>
          <g id="组_1642" data-name="组 1642">
            <path id="路径_2898" data-name="路径 2898" d="M30.3,41.6a1.6,1.6,0,1,0,1.6,1.6,1.58,1.58,0,0,0-1.6-1.6Z"/>
          </g>
          <g id="组_1643" data-name="组 1643">
            <path id="路径_2899" data-name="路径 2899" d="M41.9,41.6a1.6,1.6,0,1,0,1.6,1.6,1.58,1.58,0,0,0-1.6-1.6Z"/>
          </g>
        </g>
      </g>
    </g>
  </g>
</svg>
