<svg xmlns="http://www.w3.org/2000/svg" width="48" height="48" viewBox="0 0 48 48">
  <g id="粘土夹中粗砂" transform="translate(-7864 -56)">
    <path id="路径_3284" data-name="路径 3284" d="M0,0H48V48H0Z" transform="translate(7864 56)" fill="none"/>
    <g id="粘土夹中粗砂-2" data-name="粘土夹中粗砂" transform="translate(7864 56)">
      <g id="组_1457" data-name="组 1457">
        <path id="路径_2673" data-name="路径 2673" d="M17,0,0,17V31.1L31,0Z" fill="none"/>
        <path id="路径_2674" data-name="路径 2674" d="M48,.9.9,48H15.5L48,15.5Z" fill="none"/>
        <path id="路径_2675" data-name="路径 2675" d="M32.4,0l.1.1L.1,32.6H0V47.3L47.3,0Z" fill="none"/>
        <path id="路径_2676" data-name="路径 2676" d="M48,17,17,48H31.2L48,31.2Z" fill="none"/>
        <path id="路径_2677" data-name="路径 2677" d="M0,0V15.4L15.4,0Z" fill="none"/>
        <path id="路径_2678" data-name="路径 2678" d="M32.7,48H48V32.7Z" fill="none"/>
        <path id="路径_2679" data-name="路径 2679" d="M48,0h-.7L0,47.3V48H.9L48,.9Z" fill="#595758"/>
        <path id="路径_2680" data-name="路径 2680" d="M48,31.2,31.2,48h1.5L48,32.7Z" fill="#595758"/>
        <path id="路径_2681" data-name="路径 2681" d="M15.4,0,0,15.4V17L17,0Z" fill="#595758"/>
        <path id="路径_2682" data-name="路径 2682" d="M32.5.1,32.4,0H31L0,31.1v1.5H.1Z" fill="#595758"/>
        <path id="路径_2683" data-name="路径 2683" d="M48,15.5,15.5,48H17L48,17Z" fill="#595758"/>
      </g>
      <g id="组_1483" data-name="组 1483">
        <g id="组_1462" data-name="组 1462">
          <g id="组_1458" data-name="组 1458">
            <path id="路径_2684" data-name="路径 2684" d="M6,3.6A1.58,1.58,0,0,0,4.4,5.2,1.5,1.5,0,0,0,6,6.7,1.561,1.561,0,0,0,7.6,5.2,1.645,1.645,0,0,0,6,3.6Z"/>
          </g>
          <g id="组_1459" data-name="组 1459">
            <path id="路径_2685" data-name="路径 2685" d="M18.3,3.6a1.6,1.6,0,1,0,1.6,1.6,1.58,1.58,0,0,0-1.6-1.6Z"/>
          </g>
          <g id="组_1460" data-name="组 1460">
            <path id="路径_2686" data-name="路径 2686" d="M30.2,3.6a1.6,1.6,0,1,0,1.6,1.6,1.58,1.58,0,0,0-1.6-1.6Z"/>
          </g>
          <g id="组_1461" data-name="组 1461">
            <path id="路径_2687" data-name="路径 2687" d="M41.8,3.6a1.6,1.6,0,1,0,1.6,1.6,1.58,1.58,0,0,0-1.6-1.6Z"/>
          </g>
        </g>
        <g id="组_1467" data-name="组 1467">
          <g id="组_1463" data-name="组 1463">
            <path id="路径_2688" data-name="路径 2688" d="M6.1,13.1a1.6,1.6,0,1,0,1.6,1.6,1.58,1.58,0,0,0-1.6-1.6Z"/>
          </g>
          <g id="组_1464" data-name="组 1464">
            <path id="路径_2689" data-name="路径 2689" d="M18.4,13.1A1.6,1.6,0,1,0,20,14.7a1.58,1.58,0,0,0-1.6-1.6Z"/>
          </g>
          <g id="组_1465" data-name="组 1465">
            <path id="路径_2690" data-name="路径 2690" d="M30.3,13.1a1.6,1.6,0,1,0,1.6,1.6,1.58,1.58,0,0,0-1.6-1.6Z"/>
          </g>
          <g id="组_1466" data-name="组 1466">
            <path id="路径_2691" data-name="路径 2691" d="M41.9,13.1a1.6,1.6,0,1,0,1.6,1.6,1.58,1.58,0,0,0-1.6-1.6Z"/>
          </g>
        </g>
        <g id="组_1472" data-name="组 1472">
          <g id="组_1468" data-name="组 1468">
            <path id="路径_2692" data-name="路径 2692" d="M6.1,22.6a1.6,1.6,0,1,0,1.6,1.6,1.58,1.58,0,0,0-1.6-1.6Z"/>
          </g>
          <g id="组_1469" data-name="组 1469">
            <path id="路径_2693" data-name="路径 2693" d="M18.4,22.6a1.6,1.6,0,0,0,0,3.2,1.6,1.6,0,1,0,0-3.2Z"/>
          </g>
          <g id="组_1470" data-name="组 1470">
            <path id="路径_2694" data-name="路径 2694" d="M30.3,22.6a1.6,1.6,0,1,0,1.6,1.6,1.58,1.58,0,0,0-1.6-1.6Z"/>
          </g>
          <g id="组_1471" data-name="组 1471">
            <path id="路径_2695" data-name="路径 2695" d="M41.9,22.6a1.6,1.6,0,1,0,1.6,1.6,1.58,1.58,0,0,0-1.6-1.6Z"/>
          </g>
        </g>
        <g id="组_1477" data-name="组 1477">
          <g id="组_1473" data-name="组 1473">
            <path id="路径_2696" data-name="路径 2696" d="M6.1,32.1a1.6,1.6,0,1,0,1.6,1.6,1.58,1.58,0,0,0-1.6-1.6Z"/>
          </g>
          <g id="组_1474" data-name="组 1474">
            <path id="路径_2697" data-name="路径 2697" d="M18.4,32.1A1.6,1.6,0,1,0,20,33.7a1.58,1.58,0,0,0-1.6-1.6Z"/>
          </g>
          <g id="组_1475" data-name="组 1475">
            <path id="路径_2698" data-name="路径 2698" d="M30.3,32.1a1.6,1.6,0,1,0,1.6,1.6,1.58,1.58,0,0,0-1.6-1.6Z"/>
          </g>
          <g id="组_1476" data-name="组 1476">
            <path id="路径_2699" data-name="路径 2699" d="M41.9,32.1a1.6,1.6,0,1,0,1.6,1.6,1.58,1.58,0,0,0-1.6-1.6Z"/>
          </g>
        </g>
        <g id="组_1482" data-name="组 1482">
          <g id="组_1478" data-name="组 1478">
            <path id="路径_2700" data-name="路径 2700" d="M6.1,41.6a1.6,1.6,0,1,0,1.6,1.6,1.58,1.58,0,0,0-1.6-1.6Z"/>
          </g>
          <g id="组_1479" data-name="组 1479">
            <path id="路径_2701" data-name="路径 2701" d="M18.4,41.6A1.6,1.6,0,1,0,20,43.2a1.58,1.58,0,0,0-1.6-1.6Z"/>
          </g>
          <g id="组_1480" data-name="组 1480">
            <path id="路径_2702" data-name="路径 2702" d="M30.3,41.6a1.6,1.6,0,1,0,1.6,1.6,1.58,1.58,0,0,0-1.6-1.6Z"/>
          </g>
          <g id="组_1481" data-name="组 1481">
            <path id="路径_2703" data-name="路径 2703" d="M41.9,41.6a1.6,1.6,0,1,0,1.6,1.6,1.58,1.58,0,0,0-1.6-1.6Z"/>
          </g>
        </g>
      </g>
    </g>
  </g>
</svg>
