<?xml version="1.0" encoding="utf-8"?>
<!-- Generator: Adobe Illustrator 16.0.0, SVG Export Plug-In . SVG Version: 6.00 Build 0)  -->
<!DOCTYPE svg PUBLIC "-//W3C//DTD SVG 1.1//EN" "http://www.w3.org/Graphics/SVG/1.1/DTD/svg11.dtd">
<svg version="1.1" id="图层_1" xmlns="http://www.w3.org/2000/svg" xmlns:xlink="http://www.w3.org/1999/xlink" x="0px" y="0px"
	 width="48px" height="48px" viewBox="0 0 48 48" enable-background="new 0 0 48 48" xml:space="preserve">
<line fill="none" stroke="#000000" stroke-width="2" stroke-miterlimit="10" x1="0" y1="15.958" x2="16" y2="0"/>
<line fill="none" stroke="#000000" stroke-width="2" stroke-miterlimit="10" x1="0" y1="31.917" x2="32" y2="0"/>
<line fill="none" stroke="#000000" stroke-width="2" stroke-miterlimit="10" x1="0" y1="48" x2="48" y2="0"/>
<line fill="none" stroke="#000000" stroke-width="2" stroke-miterlimit="10" x1="16" y1="48" x2="48" y2="15.958"/>
<line fill="none" stroke="#000000" stroke-width="2" stroke-miterlimit="10" x1="32" y1="48" x2="48" y2="32.208"/>
<polygon fill="#FFFFFF" stroke="#000000" stroke-miterlimit="10" points="32.689,4.979 30.738,7.979 34.572,7.979 "/>
<polygon fill="#FFFFFF" stroke="#000000" stroke-miterlimit="10" points="7.521,30.139 5.569,33.139 9.403,33.139 "/>
<polygon fill="#FFFFFF" stroke="#000000" stroke-miterlimit="10" points="41.951,28.639 40,31.639 43.834,31.639 "/>
<polygon fill="#FFFFFF" stroke="#000000" stroke-miterlimit="10" points="19.777,18.167 17.826,21.167 21.66,21.167 "/>
<polygon fill="#FFFFFF" stroke="#000000" stroke-miterlimit="10" points="38.117,15.562 36.166,18.562 40,18.562 "/>
<polygon fill="#FFFFFF" stroke="#000000" stroke-miterlimit="10" points="26.456,27.139 24.505,30.139 28.339,30.139 "/>
<polygon fill="#FFFFFF" stroke="#000000" stroke-miterlimit="10" points="15.466,38.604 13.515,41.604 17.349,41.604 "/>
<polygon fill="#FFFFFF" stroke="#000000" stroke-miterlimit="10" points="32.034,38.604 30.083,41.604 33.917,41.604 "/>
<polygon fill="#FFFFFF" stroke="#000000" stroke-miterlimit="10" points="44.347,43.105 42.396,46.105 46.229,46.105 "/>
<polygon fill="#FFFFFF" stroke="#000000" stroke-miterlimit="10" points="18.451,3.479 16.5,6.479 20.334,6.479 "/>
<polygon fill="#FFFFFF" stroke="#000000" stroke-miterlimit="10" points="8.034,13.667 6.083,16.667 9.917,16.667 "/>
<polygon fill="#FFFFFF" stroke="#000000" stroke-miterlimit="10" points="3.687,1.979 1.735,4.979 5.569,4.979 "/>
</svg>
