<svg xmlns="http://www.w3.org/2000/svg" width="48" height="48" viewBox="0 0 48 48">
  <g id="粘土素填土" transform="translate(-8425 -56)">
    <path id="路径_3293" data-name="路径 3293" d="M0,0H48V48H0Z" transform="translate(8425 56)" fill="none"/>
    <g id="粘土素填土-2" data-name="粘土素填土" transform="translate(8425 56)">
      <path id="路径_2920" data-name="路径 2920" d="M48,16.9,16.7,48H31.5L48,31.5Z" fill="none"/>
      <path id="路径_2921" data-name="路径 2921" d="M32.9,0,0,32.6V47.1L47.6,0Z" fill="none"/>
      <path id="路径_2922" data-name="路径 2922" d="M48,.9.6,48H15.2L48,15.5Z" fill="none"/>
      <path id="路径_2923" data-name="路径 2923" d="M32.9,48H48V32.9Z" fill="none"/>
      <path id="路径_2924" data-name="路径 2924" d="M0,0" fill="none"/>
      <line id="直线_830" data-name="直线 830" y1="15.2" x2="15.3" fill="none"/>
      <path id="路径_2925" data-name="路径 2925" d="M31.5,0" fill="none"/>
      <path id="路径_2926" data-name="路径 2926" d="M16.7,0,0,16.6V31.1" fill="none"/>
      <path id="路径_2927" data-name="路径 2927" d="M0,31.1v1.5L32.9,0H31.5"/>
      <path id="路径_2928" data-name="路径 2928" d="M48,16.9V15.4L15.1,48h1.4"/>
      <path id="路径_2929" data-name="路径 2929" d="M48,0h-.4L0,47.1V48H.6L48,.9Z"/>
      <path id="路径_2930" data-name="路径 2930" d="M48,31.5,31.5,48h1.4L48,32.9Z"/>
      <path id="路径_2931" data-name="路径 2931" d="M0,16.5,16.5,0H15.1L0,15.1Z"/>
      <g id="组_1672" data-name="组 1672">
        <path id="路径_2932" data-name="路径 2932" d="M9.2,9.1a.55.55,0,0,1-.5-.3L6.5,4.6,4,8.8a.54.54,0,0,1-.8.2A.443.443,0,0,1,3,8.3L5.8,3.6a.842.842,0,0,1,.7-.4,1.012,1.012,0,0,1,.7.4L9.8,8.3a.778.778,0,0,1-.2.8Z"/>
        <path id="路径_2933" data-name="路径 2933" d="M21.6,18.6a.55.55,0,0,1-.5-.3l-2.3-4.2-2.5,4.2a.583.583,0,1,1-1-.6L18.1,13a.842.842,0,0,1,.7-.4,1.012,1.012,0,0,1,.7.4l2.6,4.7a.778.778,0,0,1-.2.8A.367.367,0,0,1,21.6,18.6Z"/>
        <path id="路径_2934" data-name="路径 2934" d="M21.5,37.5a.55.55,0,0,1-.5-.3L18.8,33l-2.5,4.2a.583.583,0,1,1-1-.6l2.8-4.7a.842.842,0,0,1,.7-.4,1.012,1.012,0,0,1,.7.4l2.6,4.7a.778.778,0,0,1-.2.8A.756.756,0,0,1,21.5,37.5Z"/>
        <path id="路径_2935" data-name="路径 2935" d="M9.2,28.1a.55.55,0,0,1-.5-.3L6.4,23.6,4,27.8a.54.54,0,0,1-.8.2.54.54,0,0,1-.2-.8l2.8-4.7a.842.842,0,0,1,.7-.4,1.012,1.012,0,0,1,.7.4l2.6,4.7a.778.778,0,0,1-.2.8A.756.756,0,0,1,9.2,28.1Z"/>
        <path id="路径_2936" data-name="路径 2936" d="M9.2,47.1a.55.55,0,0,1-.5-.3L6.4,42.6,4,46.8a.54.54,0,0,1-.8.2.54.54,0,0,1-.2-.8l2.8-4.7a.842.842,0,0,1,.7-.4,1.012,1.012,0,0,1,.7.4l2.6,4.7a.778.778,0,0,1-.2.8A.756.756,0,0,1,9.2,47.1Z"/>
        <path id="路径_2937" data-name="路径 2937" d="M33.5,9.1a.55.55,0,0,1-.5-.3L30.7,4.6,28.2,8.8a.583.583,0,0,1-1-.6L30,3.5a.842.842,0,0,1,.7-.4,1.012,1.012,0,0,1,.7.4L34,8.3a.778.778,0,0,1-.2.8Z"/>
        <path id="路径_2938" data-name="路径 2938" d="M45,18.6a.55.55,0,0,1-.5-.3l-2.3-4.2-2.5,4.2a.583.583,0,0,1-1-.6L41.5,13a.842.842,0,0,1,.7-.4,1.012,1.012,0,0,1,.7.4l2.6,4.7a.778.778,0,0,1-.2.8A.367.367,0,0,1,45,18.6Z"/>
        <path id="路径_2939" data-name="路径 2939" d="M45.1,37.5a.55.55,0,0,1-.5-.3L42.4,33l-2.5,4.2a.583.583,0,1,1-1-.6l2.8-4.7a.842.842,0,0,1,.7-.4,1.012,1.012,0,0,1,.7.4l2.6,4.7a.778.778,0,0,1-.2.8A.756.756,0,0,1,45.1,37.5Z"/>
        <path id="路径_2940" data-name="路径 2940" d="M33.5,28.1a.55.55,0,0,1-.5-.3l-2.3-4.2-2.5,4.2a.583.583,0,0,1-1-.6L30,22.5a.842.842,0,0,1,.7-.4,1.012,1.012,0,0,1,.7.4L34,27.2a.778.778,0,0,1-.2.8A.367.367,0,0,1,33.5,28.1Z"/>
        <path id="路径_2941" data-name="路径 2941" d="M33.5,47.1a.55.55,0,0,1-.5-.3l-2.3-4.2-2.5,4.2a.583.583,0,1,1-1-.6L30,41.5a.842.842,0,0,1,.7-.4,1.012,1.012,0,0,1,.7.4L34,46.2a.778.778,0,0,1-.2.8A.367.367,0,0,1,33.5,47.1Z"/>
      </g>
    </g>
  </g>
</svg>
