<?xml version="1.0" encoding="utf-8"?>
<!-- Generator: Adobe Illustrator 16.0.0, SVG Export Plug-In . SVG Version: 6.00 Build 0)  -->
<!DOCTYPE svg PUBLIC "-//W3C//DTD SVG 1.1//EN" "http://www.w3.org/Graphics/SVG/1.1/DTD/svg11.dtd">
<svg version="1.1" id="图层_1" xmlns="http://www.w3.org/2000/svg" xmlns:xlink="http://www.w3.org/1999/xlink" x="0px" y="0px"
	 width="48px" height="48px" viewBox="0 0 48 48" enable-background="new 0 0 48 48" xml:space="preserve">
<line fill="none" stroke="#000000" stroke-width="2" stroke-miterlimit="10" x1="0" y1="15.958" x2="16" y2="0"/>
<line fill="none" stroke="#000000" stroke-width="2" stroke-miterlimit="10" x1="0" y1="31.917" x2="32" y2="0"/>
<line fill="none" stroke="#000000" stroke-width="2" stroke-miterlimit="10" x1="0" y1="48" x2="48" y2="0"/>
<line fill="none" stroke="#000000" stroke-width="2" stroke-miterlimit="10" x1="16" y1="48" x2="48" y2="15.958"/>
<line fill="none" stroke="#000000" stroke-width="2" stroke-miterlimit="10" x1="32" y1="48" x2="48" y2="32.208"/>
<path fill="#FFFFFF" stroke="#000000" stroke-miterlimit="10" d="M25.688,13.067c2.75-0.125,2.188,4.583-0.396,4.146
	c-2.195-0.372-1.229-3.833,0.208-4.104"/>
<path fill="#FFFFFF" stroke="#000000" stroke-miterlimit="10" d="M7.035,29.895c2.75-0.125,2.188,4.582-0.396,4.146
	c-2.195-0.372-1.229-3.833,0.208-4.104"/>
<path fill="#FFFFFF" stroke="#000000" stroke-miterlimit="10" d="M30.751,39.084c2.75-0.125,2.188,4.583-0.396,4.146
	c-2.195-0.373-1.229-3.834,0.207-4.104"/>
<path fill="#FFFFFF" stroke="#000000" stroke-miterlimit="10" d="M13.154,40.105c2.75-0.125,2.188,4.584-0.396,4.146
	c-2.195-0.372-1.229-3.833,0.208-4.104"/>
<path fill="#FFFFFF" stroke="#000000" stroke-miterlimit="10" d="M23.132,29.805c2.75-0.125,2.188,4.582-0.396,4.146
	c-2.195-0.372-1.229-3.833,0.208-4.104"/>
<path fill="#FFFFFF" stroke="#000000" stroke-miterlimit="10" d="M32.504,21.914c2.751-0.125,2.188,4.583-0.395,4.146
	c-2.195-0.373-1.229-3.833,0.207-4.104"/>
<path fill="#FFFFFF" stroke="#000000" stroke-miterlimit="10" d="M41.048,13.068c2.751-0.125,2.188,4.583-0.396,4.146
	c-2.195-0.372-1.229-3.833,0.207-4.104"/>
<path fill="#FFFFFF" stroke="#000000" stroke-miterlimit="10" d="M14.907,21.914c2.75-0.125,2.188,4.583-0.396,4.146
	c-2.195-0.373-1.229-3.833,0.208-4.104"/>
<path fill="#FFFFFF" stroke="#000000" stroke-miterlimit="10" d="M33.688,3.805c2.752-0.125,2.188,4.583-0.395,4.146
	c-2.195-0.372-1.229-3.833,0.207-4.104"/>
<path fill="#FFFFFF" stroke="#000000" stroke-miterlimit="10" d="M44.555,42.873c2.75-0.125,2.188,4.583-0.396,4.146
	c-2.195-0.373-1.229-3.834,0.209-4.104"/>
<path fill="#FFFFFF" stroke="#000000" stroke-miterlimit="10" d="M41.047,29.805c2.751-0.125,2.188,4.582-0.395,4.146
	c-2.195-0.372-1.229-3.833,0.207-4.104"/>
<path fill="#FFFFFF" stroke="#000000" stroke-miterlimit="10" d="M5.813,15.156c2.75-0.125,2.188,4.583-0.396,4.146
	c-2.195-0.372-1.229-3.833,0.208-4.104"/>
<path fill="#FFFFFF" stroke="#000000" stroke-miterlimit="10" d="M15.455,5.893c2.75-0.125,2.188,4.583-0.396,4.146
	c-2.195-0.372-1.229-3.833,0.208-4.104"/>
<path fill="#FFFFFF" stroke="#000000" stroke-miterlimit="10" d="M4.06,1.716c2.75-0.125,2.188,4.583-0.396,4.146
	C1.469,5.49,2.436,2.029,3.873,1.758"/>
<path d="M19.234,2.375c-0.558,0-0.558,1.042,0,1.042C19.792,3.417,19.792,2.375,19.234,2.375z"/>
<path d="M45.038,9.026c-0.558,0-0.558,1.042,0,1.042C45.595,10.068,45.595,9.026,45.038,9.026z"/>
<path d="M36.984,18.81c-0.558,0-0.558,1.042,0,1.042C37.541,19.851,37.541,18.81,36.984,18.81z"/>
<path d="M27.84,27.292c-0.558,0-0.558,1.042,0,1.042C28.396,28.334,28.396,27.292,27.84,27.292z"/>
<path d="M47.583,40.65c-0.558,0-0.558,1.041,0,1.041C48.14,41.691,48.14,40.65,47.583,40.65z"/>
<path d="M45.456,27.292c-0.558,0-0.558,1.042,0,1.042C46.013,28.334,46.013,27.292,45.456,27.292z"/>
<path d="M35.508,35.709c-0.558,0-0.558,1.041,0,1.041C36.064,36.75,36.064,35.709,35.508,35.709z"/>
<path d="M18.398,36.75c-0.558,0-0.558,1.041,0,1.041C18.955,37.791,18.955,36.75,18.398,36.75z"/>
<path d="M37.402,1.854c-0.558,0-0.558,1.042,0,1.042C37.959,2.896,37.959,1.854,37.402,1.854z"/>
<path d="M29.48,10.068c-0.558,0-0.558,1.042,0,1.042C30.037,11.109,30.037,10.068,29.48,10.068z"/>
<path d="M20.406,18.81c-0.558,0-0.558,1.042,0,1.042C20.963,19.851,20.963,18.81,20.406,18.81z"/>
<path d="M11.048,27.291c-0.558,0-0.558,1.042,0,1.042C11.605,28.333,11.605,27.291,11.048,27.291z"/>
<path d="M10.63,12.023c-0.558,0-0.558,1.042,0,1.042C11.187,13.065,11.187,12.023,10.63,12.023z"/>
<path d="M7.632,0c-0.558,0-0.558,1.042,0,1.042C8.188,1.042,8.188,0,7.632,0z"/>
</svg>
