<svg xmlns="http://www.w3.org/2000/svg" width="48.717" height="48.917" viewBox="0 0 48.717 48.917">
  <g id="粘土与粉砂互层" transform="translate(-7675.642 -55.642)">
    <path id="路径_3281" data-name="路径 3281" d="M0,0H48V48H0Z" transform="translate(7676 56)" fill="none"/>
    <g id="粘土与粉砂互层-2" data-name="粘土与粉砂互层" transform="translate(7676 56.1)">
      <path id="直线_820" data-name="直线 820" d="M.354,48.154l-.707-.707,47.8-47.8.707.707Z" transform="translate(0 0.1)" fill="#595758"/>
      <path id="直线_821" data-name="直线 821" d="M.358,32.358l-.717-.717,32-32,.717.717Z" transform="translate(0 -0.1)" fill="#595758"/>
      <path id="直线_822" data-name="直线 822" d="M.358,32.358l-.717-.717,32-32,.717.717Z" transform="translate(16 16.1)" fill="#595758"/>
      <path id="直线_823" data-name="直线 823" d="M.354,16.154l-.707-.707,15.8-15.8.707.707Z" transform="translate(32.2 32.1)" fill="#595758"/>
      <path id="直线_824" data-name="直线 824" d="M.354,16.354l-.707-.707,16-16,.707.707Z" fill="#595758"/>
      <g id="组_1429" data-name="组 1429">
        <g id="组_1408" data-name="组 1408">
          <g id="组_1404" data-name="组 1404">
            <path id="路径_2612" data-name="路径 2612" d="M6,3.4A1.58,1.58,0,0,0,4.4,5,1.5,1.5,0,0,0,6,6.5,1.561,1.561,0,0,0,7.6,5,1.645,1.645,0,0,0,6,3.4Z"/>
          </g>
          <g id="组_1405" data-name="组 1405">
            <path id="路径_2613" data-name="路径 2613" d="M18.3,3.4A1.6,1.6,0,1,0,19.9,5a1.58,1.58,0,0,0-1.6-1.6Z"/>
          </g>
          <g id="组_1406" data-name="组 1406">
            <path id="路径_2614" data-name="路径 2614" d="M30.2,3.4A1.6,1.6,0,1,0,31.8,5a1.58,1.58,0,0,0-1.6-1.6Z"/>
          </g>
          <g id="组_1407" data-name="组 1407">
            <path id="路径_2615" data-name="路径 2615" d="M41.8,3.4A1.6,1.6,0,1,0,43.4,5a1.58,1.58,0,0,0-1.6-1.6Z"/>
          </g>
        </g>
        <g id="组_1413" data-name="组 1413">
          <g id="组_1409" data-name="组 1409">
            <path id="路径_2616" data-name="路径 2616" d="M6.1,12.9a1.6,1.6,0,1,0,1.6,1.6,1.58,1.58,0,0,0-1.6-1.6Z"/>
          </g>
          <g id="组_1410" data-name="组 1410">
            <path id="路径_2617" data-name="路径 2617" d="M18.4,12.9A1.6,1.6,0,1,0,20,14.5a1.58,1.58,0,0,0-1.6-1.6Z"/>
          </g>
          <g id="组_1411" data-name="组 1411">
            <path id="路径_2618" data-name="路径 2618" d="M30.3,12.9a1.6,1.6,0,1,0,1.6,1.6,1.58,1.58,0,0,0-1.6-1.6Z"/>
          </g>
          <g id="组_1412" data-name="组 1412">
            <path id="路径_2619" data-name="路径 2619" d="M41.9,12.9a1.6,1.6,0,1,0,1.6,1.6,1.58,1.58,0,0,0-1.6-1.6Z"/>
          </g>
        </g>
        <g id="组_1418" data-name="组 1418">
          <g id="组_1414" data-name="组 1414">
            <path id="路径_2620" data-name="路径 2620" d="M6.1,22.4A1.6,1.6,0,1,0,7.7,24a1.58,1.58,0,0,0-1.6-1.6Z"/>
          </g>
          <g id="组_1415" data-name="组 1415">
            <path id="路径_2621" data-name="路径 2621" d="M18.4,22.4a1.6,1.6,0,0,0,0,3.2,1.6,1.6,0,1,0,0-3.2Z"/>
          </g>
          <g id="组_1416" data-name="组 1416">
            <path id="路径_2622" data-name="路径 2622" d="M30.3,22.4A1.6,1.6,0,1,0,31.9,24a1.58,1.58,0,0,0-1.6-1.6Z"/>
          </g>
          <g id="组_1417" data-name="组 1417">
            <path id="路径_2623" data-name="路径 2623" d="M41.9,22.4A1.6,1.6,0,1,0,43.5,24a1.58,1.58,0,0,0-1.6-1.6Z"/>
          </g>
        </g>
        <g id="组_1423" data-name="组 1423">
          <g id="组_1419" data-name="组 1419">
            <path id="路径_2624" data-name="路径 2624" d="M6.1,31.8a1.6,1.6,0,1,0,1.6,1.6,1.58,1.58,0,0,0-1.6-1.6Z"/>
          </g>
          <g id="组_1420" data-name="组 1420">
            <path id="路径_2625" data-name="路径 2625" d="M18.4,31.8A1.6,1.6,0,1,0,20,33.4a1.58,1.58,0,0,0-1.6-1.6Z"/>
          </g>
          <g id="组_1421" data-name="组 1421">
            <path id="路径_2626" data-name="路径 2626" d="M30.3,31.8a1.6,1.6,0,1,0,1.6,1.6,1.58,1.58,0,0,0-1.6-1.6Z"/>
          </g>
          <g id="组_1422" data-name="组 1422">
            <path id="路径_2627" data-name="路径 2627" d="M41.9,31.8a1.6,1.6,0,1,0,1.6,1.6,1.58,1.58,0,0,0-1.6-1.6Z"/>
          </g>
        </g>
        <g id="组_1428" data-name="组 1428">
          <g id="组_1424" data-name="组 1424">
            <path id="路径_2628" data-name="路径 2628" d="M6.1,41.4A1.6,1.6,0,1,0,7.7,43a1.58,1.58,0,0,0-1.6-1.6Z"/>
          </g>
          <g id="组_1425" data-name="组 1425">
            <path id="路径_2629" data-name="路径 2629" d="M18.4,41.4a1.6,1.6,0,1,0,0,3.2A1.666,1.666,0,0,0,20,42.9a1.5,1.5,0,0,0-1.6-1.5Z"/>
          </g>
          <g id="组_1426" data-name="组 1426">
            <path id="路径_2630" data-name="路径 2630" d="M30.3,41.4A1.6,1.6,0,1,0,31.9,43a1.58,1.58,0,0,0-1.6-1.6Z"/>
          </g>
          <g id="组_1427" data-name="组 1427">
            <path id="路径_2631" data-name="路径 2631" d="M41.9,41.4A1.6,1.6,0,1,0,43.5,43a1.58,1.58,0,0,0-1.6-1.6Z"/>
          </g>
        </g>
      </g>
    </g>
  </g>
</svg>
