<svg xmlns="http://www.w3.org/2000/svg" width="48" height="48" viewBox="0 0 48 48">
  <g id="粘土夹中砂" transform="translate(-7800 -56)">
    <path id="路径_3283" data-name="路径 3283" d="M0,0H48V48H0Z" transform="translate(7800 56)" fill="none"/>
    <g id="粘土夹中砂-2" data-name="粘土夹中砂" transform="translate(7800 56)">
      <g id="组_1430" data-name="组 1430">
        <path id="路径_2642" data-name="路径 2642" d="M17,0,0,17V31.1L31,0Z" fill="none"/>
        <path id="路径_2643" data-name="路径 2643" d="M48,.9.9,48H15.5L48,15.5Z" fill="none"/>
        <path id="路径_2644" data-name="路径 2644" d="M32.4,0l.1.1L.1,32.6H0V47.3L47.3,0Z" fill="none"/>
        <path id="路径_2645" data-name="路径 2645" d="M48,17,17,48H31.2L48,31.2Z" fill="none"/>
        <path id="路径_2646" data-name="路径 2646" d="M0,0V15.4L15.4,0Z" fill="none"/>
        <path id="路径_2647" data-name="路径 2647" d="M32.7,48H48V32.7Z" fill="none"/>
        <path id="路径_2648" data-name="路径 2648" d="M48,0h-.7L0,47.3V48H.9L48,.9Z" fill="#595758"/>
        <path id="路径_2649" data-name="路径 2649" d="M48,31.2,31.2,48h1.5L48,32.7Z" fill="#595758"/>
        <path id="路径_2650" data-name="路径 2650" d="M15.4,0,0,15.4V17L17,0Z" fill="#595758"/>
        <path id="路径_2651" data-name="路径 2651" d="M32.5.1,32.4,0H31L0,31.1v1.5H.1Z" fill="#595758"/>
        <path id="路径_2652" data-name="路径 2652" d="M48,15.5,15.5,48H17L48,17Z" fill="#595758"/>
      </g>
      <g id="组_1456" data-name="组 1456">
        <g id="组_1435" data-name="组 1435">
          <g id="组_1431" data-name="组 1431">
            <path id="路径_2653" data-name="路径 2653" d="M6,3.6A1.58,1.58,0,0,0,4.4,5.2,1.5,1.5,0,0,0,6,6.7,1.561,1.561,0,0,0,7.6,5.2,1.645,1.645,0,0,0,6,3.6Z"/>
          </g>
          <g id="组_1432" data-name="组 1432">
            <path id="路径_2654" data-name="路径 2654" d="M18.3,3.6a1.6,1.6,0,1,0,1.6,1.6,1.58,1.58,0,0,0-1.6-1.6Z"/>
          </g>
          <g id="组_1433" data-name="组 1433">
            <path id="路径_2655" data-name="路径 2655" d="M30.2,3.6a1.6,1.6,0,1,0,1.6,1.6,1.58,1.58,0,0,0-1.6-1.6Z"/>
          </g>
          <g id="组_1434" data-name="组 1434">
            <path id="路径_2656" data-name="路径 2656" d="M41.8,3.6a1.6,1.6,0,1,0,1.6,1.6,1.58,1.58,0,0,0-1.6-1.6Z"/>
          </g>
        </g>
        <g id="组_1440" data-name="组 1440">
          <g id="组_1436" data-name="组 1436">
            <path id="路径_2657" data-name="路径 2657" d="M6.1,13.1a1.6,1.6,0,1,0,1.6,1.6,1.58,1.58,0,0,0-1.6-1.6Z"/>
          </g>
          <g id="组_1437" data-name="组 1437">
            <path id="路径_2658" data-name="路径 2658" d="M18.4,13.1A1.6,1.6,0,1,0,20,14.7a1.58,1.58,0,0,0-1.6-1.6Z"/>
          </g>
          <g id="组_1438" data-name="组 1438">
            <path id="路径_2659" data-name="路径 2659" d="M30.3,13.1a1.6,1.6,0,1,0,1.6,1.6,1.58,1.58,0,0,0-1.6-1.6Z"/>
          </g>
          <g id="组_1439" data-name="组 1439">
            <path id="路径_2660" data-name="路径 2660" d="M41.9,13.1a1.6,1.6,0,1,0,1.6,1.6,1.58,1.58,0,0,0-1.6-1.6Z"/>
          </g>
        </g>
        <g id="组_1445" data-name="组 1445">
          <g id="组_1441" data-name="组 1441">
            <path id="路径_2661" data-name="路径 2661" d="M6.1,22.6a1.6,1.6,0,1,0,1.6,1.6,1.58,1.58,0,0,0-1.6-1.6Z"/>
          </g>
          <g id="组_1442" data-name="组 1442">
            <path id="路径_2662" data-name="路径 2662" d="M18.4,22.6a1.6,1.6,0,0,0,0,3.2,1.6,1.6,0,1,0,0-3.2Z"/>
          </g>
          <g id="组_1443" data-name="组 1443">
            <path id="路径_2663" data-name="路径 2663" d="M30.3,22.6a1.6,1.6,0,1,0,1.6,1.6,1.58,1.58,0,0,0-1.6-1.6Z"/>
          </g>
          <g id="组_1444" data-name="组 1444">
            <path id="路径_2664" data-name="路径 2664" d="M41.9,22.6a1.6,1.6,0,1,0,1.6,1.6,1.58,1.58,0,0,0-1.6-1.6Z"/>
          </g>
        </g>
        <g id="组_1450" data-name="组 1450">
          <g id="组_1446" data-name="组 1446">
            <path id="路径_2665" data-name="路径 2665" d="M6.1,32.1a1.6,1.6,0,1,0,1.6,1.6,1.58,1.58,0,0,0-1.6-1.6Z"/>
          </g>
          <g id="组_1447" data-name="组 1447">
            <path id="路径_2666" data-name="路径 2666" d="M18.4,32.1A1.6,1.6,0,1,0,20,33.7a1.58,1.58,0,0,0-1.6-1.6Z"/>
          </g>
          <g id="组_1448" data-name="组 1448">
            <path id="路径_2667" data-name="路径 2667" d="M30.3,32.1a1.6,1.6,0,1,0,1.6,1.6,1.58,1.58,0,0,0-1.6-1.6Z"/>
          </g>
          <g id="组_1449" data-name="组 1449">
            <path id="路径_2668" data-name="路径 2668" d="M41.9,32.1a1.6,1.6,0,1,0,1.6,1.6,1.58,1.58,0,0,0-1.6-1.6Z"/>
          </g>
        </g>
        <g id="组_1455" data-name="组 1455">
          <g id="组_1451" data-name="组 1451">
            <path id="路径_2669" data-name="路径 2669" d="M6.1,41.6a1.6,1.6,0,1,0,1.6,1.6,1.58,1.58,0,0,0-1.6-1.6Z"/>
          </g>
          <g id="组_1452" data-name="组 1452">
            <path id="路径_2670" data-name="路径 2670" d="M18.4,41.6A1.6,1.6,0,1,0,20,43.2a1.58,1.58,0,0,0-1.6-1.6Z"/>
          </g>
          <g id="组_1453" data-name="组 1453">
            <path id="路径_2671" data-name="路径 2671" d="M30.3,41.6a1.6,1.6,0,1,0,1.6,1.6,1.58,1.58,0,0,0-1.6-1.6Z"/>
          </g>
          <g id="组_1454" data-name="组 1454">
            <path id="路径_2672" data-name="路径 2672" d="M41.9,41.6a1.6,1.6,0,1,0,1.6,1.6,1.58,1.58,0,0,0-1.6-1.6Z"/>
          </g>
        </g>
      </g>
    </g>
  </g>
</svg>
