<svg xmlns="http://www.w3.org/2000/svg" width="48" height="48" viewBox="0 0 48 48">
  <g id="粘土夹粉砂" transform="translate(-7993 -56)">
    <path id="路径_3286" data-name="路径 3286" d="M0,0H48V48H0Z" transform="translate(7993 56)" fill="none"/>
    <g id="粘土夹粉砂-2" data-name="粘土夹粉砂" transform="translate(7993 56)">
      <g id="组_1511" data-name="组 1511">
        <path id="路径_2735" data-name="路径 2735" d="M17,0,0,17V31.1L31,0Z" fill="none"/>
        <path id="路径_2736" data-name="路径 2736" d="M48,.9.9,48H15.5L48,15.5Z" fill="none"/>
        <path id="路径_2737" data-name="路径 2737" d="M32.4,0l.1.1L.1,32.6H0V47.3L47.3,0Z" fill="none"/>
        <path id="路径_2738" data-name="路径 2738" d="M48,17,17,48H31.2L48,31.2Z" fill="none"/>
        <path id="路径_2739" data-name="路径 2739" d="M0,0V15.4L15.4,0Z" fill="none"/>
        <path id="路径_2740" data-name="路径 2740" d="M32.7,48H48V32.7Z" fill="none"/>
        <path id="路径_2741" data-name="路径 2741" d="M48,0h-.7L0,47.3V48H.9L48,.9Z" fill="#595758"/>
        <path id="路径_2742" data-name="路径 2742" d="M48,31.2,31.2,48h1.5L48,32.7Z" fill="#595758"/>
        <path id="路径_2743" data-name="路径 2743" d="M15.4,0,0,15.4V17L17,0Z" fill="#595758"/>
        <path id="路径_2744" data-name="路径 2744" d="M32.5.1,32.4,0H31L0,31.1v1.5H.1Z" fill="#595758"/>
        <path id="路径_2745" data-name="路径 2745" d="M48,15.5,15.5,48H17L48,17Z" fill="#595758"/>
      </g>
      <g id="组_1537" data-name="组 1537">
        <g id="组_1516" data-name="组 1516">
          <g id="组_1512" data-name="组 1512">
            <path id="路径_2746" data-name="路径 2746" d="M6,3.6A1.58,1.58,0,0,0,4.4,5.2,1.5,1.5,0,0,0,6,6.7,1.561,1.561,0,0,0,7.6,5.2,1.645,1.645,0,0,0,6,3.6Z"/>
          </g>
          <g id="组_1513" data-name="组 1513">
            <path id="路径_2747" data-name="路径 2747" d="M18.3,3.6a1.6,1.6,0,1,0,1.6,1.6,1.58,1.58,0,0,0-1.6-1.6Z"/>
          </g>
          <g id="组_1514" data-name="组 1514">
            <path id="路径_2748" data-name="路径 2748" d="M30.2,3.6a1.6,1.6,0,1,0,1.6,1.6,1.58,1.58,0,0,0-1.6-1.6Z"/>
          </g>
          <g id="组_1515" data-name="组 1515">
            <path id="路径_2749" data-name="路径 2749" d="M41.8,3.6a1.6,1.6,0,1,0,1.6,1.6,1.58,1.58,0,0,0-1.6-1.6Z"/>
          </g>
        </g>
        <g id="组_1521" data-name="组 1521">
          <g id="组_1517" data-name="组 1517">
            <path id="路径_2750" data-name="路径 2750" d="M6.1,13.1a1.6,1.6,0,1,0,1.6,1.6,1.58,1.58,0,0,0-1.6-1.6Z"/>
          </g>
          <g id="组_1518" data-name="组 1518">
            <path id="路径_2751" data-name="路径 2751" d="M18.4,13.1A1.6,1.6,0,1,0,20,14.7a1.58,1.58,0,0,0-1.6-1.6Z"/>
          </g>
          <g id="组_1519" data-name="组 1519">
            <path id="路径_2752" data-name="路径 2752" d="M30.3,13.1a1.6,1.6,0,1,0,1.6,1.6,1.58,1.58,0,0,0-1.6-1.6Z"/>
          </g>
          <g id="组_1520" data-name="组 1520">
            <path id="路径_2753" data-name="路径 2753" d="M41.9,13.1a1.6,1.6,0,1,0,1.6,1.6,1.58,1.58,0,0,0-1.6-1.6Z"/>
          </g>
        </g>
        <g id="组_1526" data-name="组 1526">
          <g id="组_1522" data-name="组 1522">
            <path id="路径_2754" data-name="路径 2754" d="M6.1,22.6a1.6,1.6,0,1,0,1.6,1.6,1.58,1.58,0,0,0-1.6-1.6Z"/>
          </g>
          <g id="组_1523" data-name="组 1523">
            <path id="路径_2755" data-name="路径 2755" d="M18.4,22.6a1.6,1.6,0,0,0,0,3.2,1.6,1.6,0,1,0,0-3.2Z"/>
          </g>
          <g id="组_1524" data-name="组 1524">
            <path id="路径_2756" data-name="路径 2756" d="M30.3,22.6a1.6,1.6,0,1,0,1.6,1.6,1.58,1.58,0,0,0-1.6-1.6Z"/>
          </g>
          <g id="组_1525" data-name="组 1525">
            <path id="路径_2757" data-name="路径 2757" d="M41.9,22.6a1.6,1.6,0,1,0,1.6,1.6,1.58,1.58,0,0,0-1.6-1.6Z"/>
          </g>
        </g>
        <g id="组_1531" data-name="组 1531">
          <g id="组_1527" data-name="组 1527">
            <path id="路径_2758" data-name="路径 2758" d="M6.1,32.1a1.6,1.6,0,1,0,1.6,1.6,1.58,1.58,0,0,0-1.6-1.6Z"/>
          </g>
          <g id="组_1528" data-name="组 1528">
            <path id="路径_2759" data-name="路径 2759" d="M18.4,32.1A1.6,1.6,0,1,0,20,33.7a1.58,1.58,0,0,0-1.6-1.6Z"/>
          </g>
          <g id="组_1529" data-name="组 1529">
            <path id="路径_2760" data-name="路径 2760" d="M30.3,32.1a1.6,1.6,0,1,0,1.6,1.6,1.58,1.58,0,0,0-1.6-1.6Z"/>
          </g>
          <g id="组_1530" data-name="组 1530">
            <path id="路径_2761" data-name="路径 2761" d="M41.9,32.1a1.6,1.6,0,1,0,1.6,1.6,1.58,1.58,0,0,0-1.6-1.6Z"/>
          </g>
        </g>
        <g id="组_1536" data-name="组 1536">
          <g id="组_1532" data-name="组 1532">
            <path id="路径_2762" data-name="路径 2762" d="M6.1,41.6a1.6,1.6,0,1,0,1.6,1.6,1.58,1.58,0,0,0-1.6-1.6Z"/>
          </g>
          <g id="组_1533" data-name="组 1533">
            <path id="路径_2763" data-name="路径 2763" d="M18.4,41.6A1.6,1.6,0,1,0,20,43.2a1.58,1.58,0,0,0-1.6-1.6Z"/>
          </g>
          <g id="组_1534" data-name="组 1534">
            <path id="路径_2764" data-name="路径 2764" d="M30.3,41.6a1.6,1.6,0,1,0,1.6,1.6,1.58,1.58,0,0,0-1.6-1.6Z"/>
          </g>
          <g id="组_1535" data-name="组 1535">
            <path id="路径_2765" data-name="路径 2765" d="M41.9,41.6a1.6,1.6,0,1,0,1.6,1.6,1.58,1.58,0,0,0-1.6-1.6Z"/>
          </g>
        </g>
      </g>
    </g>
  </g>
</svg>
