<svg xmlns="http://www.w3.org/2000/svg" width="48.279" height="48" viewBox="0 0 48.279 48">
  <g id="粘土夹粗砾砂" transform="translate(-8250.721 -56)">
    <path id="路径_3290" data-name="路径 3290" d="M0,0H48V48H0Z" transform="translate(8251 56)" fill="none"/>
    <g id="粘土夹粗砾砂-2" data-name="粘土夹粗砾砂" transform="translate(8250.721 56)">
      <g id="组_1592" data-name="组 1592">
        <path id="路径_2838" data-name="路径 2838" d="M17,0,0,17V31.1L31,0Z" fill="none"/>
        <path id="路径_2839" data-name="路径 2839" d="M48,.9.9,48H15.5L48,15.5Z" fill="none"/>
        <path id="路径_2840" data-name="路径 2840" d="M32.4,0l.1.1L.1,32.6H0V47.3L47.3,0Z" fill="none"/>
        <path id="路径_2841" data-name="路径 2841" d="M48,17,17,48H31.2L48,31.2Z" fill="none"/>
        <path id="路径_2842" data-name="路径 2842" d="M0,0V15.4L15.4,0Z" fill="none"/>
        <path id="路径_2843" data-name="路径 2843" d="M32.7,48H48V32.7Z" fill="none"/>
        <path id="路径_2844" data-name="路径 2844" d="M48,0h-.7L0,47.3V48H.9L48,.9Z" fill="#595758"/>
        <path id="路径_2845" data-name="路径 2845" d="M48,31.2,31.2,48h1.5L48,32.7Z" fill="#595758"/>
        <path id="路径_2846" data-name="路径 2846" d="M15.4,0,0,15.4V17L17,0Z" fill="#595758"/>
        <path id="路径_2847" data-name="路径 2847" d="M32.5.1,32.4,0H31L0,31.1v1.5H.1Z" fill="#595758"/>
        <path id="路径_2848" data-name="路径 2848" d="M48,15.5,15.5,48H17L48,17Z" fill="#595758"/>
      </g>
      <g id="组_1618" data-name="组 1618">
        <g id="组_1597" data-name="组 1597">
          <g id="组_1593" data-name="组 1593">
            <path id="路径_2849" data-name="路径 2849" d="M6,3.6A1.58,1.58,0,0,0,4.4,5.2,1.5,1.5,0,0,0,6,6.7,1.561,1.561,0,0,0,7.6,5.2,1.645,1.645,0,0,0,6,3.6Z"/>
          </g>
          <g id="组_1594" data-name="组 1594">
            <path id="路径_2850" data-name="路径 2850" d="M18.3,3.6a1.6,1.6,0,1,0,1.6,1.6,1.58,1.58,0,0,0-1.6-1.6Z"/>
          </g>
          <g id="组_1595" data-name="组 1595">
            <path id="路径_2851" data-name="路径 2851" d="M30.2,3.6a1.6,1.6,0,1,0,1.6,1.6,1.58,1.58,0,0,0-1.6-1.6Z"/>
          </g>
          <g id="组_1596" data-name="组 1596">
            <path id="路径_2852" data-name="路径 2852" d="M41.8,3.6a1.6,1.6,0,1,0,1.6,1.6,1.58,1.58,0,0,0-1.6-1.6Z"/>
          </g>
        </g>
        <g id="组_1602" data-name="组 1602">
          <g id="组_1598" data-name="组 1598">
            <path id="路径_2853" data-name="路径 2853" d="M6.1,13.1a1.6,1.6,0,1,0,1.6,1.6,1.58,1.58,0,0,0-1.6-1.6Z"/>
          </g>
          <g id="组_1599" data-name="组 1599">
            <path id="路径_2854" data-name="路径 2854" d="M18.4,13.1A1.6,1.6,0,1,0,20,14.7a1.58,1.58,0,0,0-1.6-1.6Z"/>
          </g>
          <g id="组_1600" data-name="组 1600">
            <path id="路径_2855" data-name="路径 2855" d="M30.3,13.1a1.6,1.6,0,1,0,1.6,1.6,1.58,1.58,0,0,0-1.6-1.6Z"/>
          </g>
          <g id="组_1601" data-name="组 1601">
            <path id="路径_2856" data-name="路径 2856" d="M41.9,13.1a1.6,1.6,0,1,0,1.6,1.6,1.58,1.58,0,0,0-1.6-1.6Z"/>
          </g>
        </g>
        <g id="组_1607" data-name="组 1607">
          <g id="组_1603" data-name="组 1603">
            <path id="路径_2857" data-name="路径 2857" d="M6.1,22.6a1.6,1.6,0,1,0,1.6,1.6,1.58,1.58,0,0,0-1.6-1.6Z"/>
          </g>
          <g id="组_1604" data-name="组 1604">
            <path id="路径_2858" data-name="路径 2858" d="M18.4,22.6a1.6,1.6,0,0,0,0,3.2,1.6,1.6,0,1,0,0-3.2Z"/>
          </g>
          <g id="组_1605" data-name="组 1605">
            <path id="路径_2859" data-name="路径 2859" d="M30.3,22.6a1.6,1.6,0,1,0,1.6,1.6,1.58,1.58,0,0,0-1.6-1.6Z"/>
          </g>
          <g id="组_1606" data-name="组 1606">
            <path id="路径_2860" data-name="路径 2860" d="M41.9,22.6a1.6,1.6,0,1,0,1.6,1.6,1.58,1.58,0,0,0-1.6-1.6Z"/>
          </g>
        </g>
        <g id="组_1612" data-name="组 1612">
          <g id="组_1608" data-name="组 1608">
            <path id="路径_2861" data-name="路径 2861" d="M6.1,32.1a1.6,1.6,0,1,0,1.6,1.6,1.58,1.58,0,0,0-1.6-1.6Z"/>
          </g>
          <g id="组_1609" data-name="组 1609">
            <path id="路径_2862" data-name="路径 2862" d="M18.4,32.1A1.6,1.6,0,1,0,20,33.7a1.58,1.58,0,0,0-1.6-1.6Z"/>
          </g>
          <g id="组_1610" data-name="组 1610">
            <path id="路径_2863" data-name="路径 2863" d="M30.3,32.1a1.6,1.6,0,1,0,1.6,1.6,1.58,1.58,0,0,0-1.6-1.6Z"/>
          </g>
          <g id="组_1611" data-name="组 1611">
            <path id="路径_2864" data-name="路径 2864" d="M41.9,32.1a1.6,1.6,0,1,0,1.6,1.6,1.58,1.58,0,0,0-1.6-1.6Z"/>
          </g>
        </g>
        <g id="组_1617" data-name="组 1617">
          <g id="组_1613" data-name="组 1613">
            <path id="路径_2865" data-name="路径 2865" d="M6.1,41.6a1.6,1.6,0,1,0,1.6,1.6,1.58,1.58,0,0,0-1.6-1.6Z"/>
          </g>
          <g id="组_1614" data-name="组 1614">
            <path id="路径_2866" data-name="路径 2866" d="M18.4,41.6A1.6,1.6,0,1,0,20,43.2a1.58,1.58,0,0,0-1.6-1.6Z"/>
          </g>
          <g id="组_1615" data-name="组 1615">
            <path id="路径_2867" data-name="路径 2867" d="M30.3,41.6a1.6,1.6,0,1,0,1.6,1.6,1.58,1.58,0,0,0-1.6-1.6Z"/>
          </g>
          <g id="组_1616" data-name="组 1616">
            <path id="路径_2868" data-name="路径 2868" d="M41.9,41.6a1.6,1.6,0,1,0,1.6,1.6,1.58,1.58,0,0,0-1.6-1.6Z"/>
          </g>
        </g>
      </g>
    </g>
  </g>
</svg>
