<svg xmlns="http://www.w3.org/2000/svg" width="48.707" height="48.607" viewBox="0 0 48.707 48.607">
  <g id="粘性土夹砂" transform="translate(-8482.367 -55.646)">
    <path id="路径_3294" data-name="路径 3294" d="M0,0H48V48H0Z" transform="translate(8483 56)" fill="none"/>
    <g id="粘性土夹砂-2" data-name="粘性土夹砂" transform="translate(8482.721 55.8)">
      <g id="组_1673" data-name="组 1673">
        <path id="直线_831" data-name="直线 831" d="M.354,48.154l-.707-.707,47.8-47.8.707.707Z" transform="translate(0 0.3)" fill="#595758"/>
        <path id="直线_832" data-name="直线 832" d="M.354,16.154l-.707-.707,15.8-15.8.707.707Z" transform="translate(32.2 32.3)" fill="#595758"/>
        <path id="直线_833" data-name="直线 833" d="M.354,16.354l-.707-.707,16-16,.707.707Z" transform="translate(0 0.2)" fill="#595758"/>
        <path id="直线_834" data-name="直线 834" d="M.354,31.853l-.708-.706,31.4-31.5.708.706Z" transform="translate(0.1 0.3)" fill="#595758"/>
        <path id="直线_835" data-name="直线 835" d="M.354,31.754l-.707-.707,31.4-31.4.707.707Z" transform="translate(16.5 16.7)" fill="#595758"/>
      </g>
      <g id="组_1699" data-name="组 1699">
        <g id="组_1678" data-name="组 1678">
          <g id="组_1674" data-name="组 1674">
            <path id="路径_2942" data-name="路径 2942" d="M6,3.6A1.58,1.58,0,0,0,4.4,5.2,1.5,1.5,0,0,0,6,6.7,1.561,1.561,0,0,0,7.6,5.2,1.645,1.645,0,0,0,6,3.6Z"/>
          </g>
          <g id="组_1675" data-name="组 1675">
            <path id="路径_2943" data-name="路径 2943" d="M18.3,3.6a1.6,1.6,0,1,0,1.6,1.6,1.58,1.58,0,0,0-1.6-1.6Z"/>
          </g>
          <g id="组_1676" data-name="组 1676">
            <path id="路径_2944" data-name="路径 2944" d="M30.2,3.6a1.6,1.6,0,1,0,1.6,1.6,1.58,1.58,0,0,0-1.6-1.6Z"/>
          </g>
          <g id="组_1677" data-name="组 1677">
            <path id="路径_2945" data-name="路径 2945" d="M41.8,3.6a1.6,1.6,0,1,0,1.6,1.6,1.58,1.58,0,0,0-1.6-1.6Z"/>
          </g>
        </g>
        <g id="组_1683" data-name="组 1683">
          <g id="组_1679" data-name="组 1679">
            <path id="路径_2946" data-name="路径 2946" d="M6.1,13.1a1.6,1.6,0,1,0,1.6,1.6,1.58,1.58,0,0,0-1.6-1.6Z"/>
          </g>
          <g id="组_1680" data-name="组 1680">
            <path id="路径_2947" data-name="路径 2947" d="M18.4,13.1A1.6,1.6,0,1,0,20,14.7a1.58,1.58,0,0,0-1.6-1.6Z"/>
          </g>
          <g id="组_1681" data-name="组 1681">
            <path id="路径_2948" data-name="路径 2948" d="M30.3,13.1a1.6,1.6,0,1,0,1.6,1.6,1.58,1.58,0,0,0-1.6-1.6Z"/>
          </g>
          <g id="组_1682" data-name="组 1682">
            <path id="路径_2949" data-name="路径 2949" d="M41.9,13.1a1.6,1.6,0,1,0,1.6,1.6,1.58,1.58,0,0,0-1.6-1.6Z"/>
          </g>
        </g>
        <g id="组_1688" data-name="组 1688">
          <g id="组_1684" data-name="组 1684">
            <path id="路径_2950" data-name="路径 2950" d="M6.1,22.6a1.6,1.6,0,1,0,1.6,1.6,1.58,1.58,0,0,0-1.6-1.6Z"/>
          </g>
          <g id="组_1685" data-name="组 1685">
            <path id="路径_2951" data-name="路径 2951" d="M18.4,22.6a1.6,1.6,0,0,0,0,3.2,1.6,1.6,0,1,0,0-3.2Z"/>
          </g>
          <g id="组_1686" data-name="组 1686">
            <path id="路径_2952" data-name="路径 2952" d="M30.3,22.6a1.6,1.6,0,1,0,1.6,1.6,1.58,1.58,0,0,0-1.6-1.6Z"/>
          </g>
          <g id="组_1687" data-name="组 1687">
            <path id="路径_2953" data-name="路径 2953" d="M41.9,22.6a1.6,1.6,0,1,0,1.6,1.6,1.58,1.58,0,0,0-1.6-1.6Z"/>
          </g>
        </g>
        <g id="组_1693" data-name="组 1693">
          <g id="组_1689" data-name="组 1689">
            <path id="路径_2954" data-name="路径 2954" d="M6.1,32.1a1.6,1.6,0,1,0,1.6,1.6,1.58,1.58,0,0,0-1.6-1.6Z"/>
          </g>
          <g id="组_1690" data-name="组 1690">
            <path id="路径_2955" data-name="路径 2955" d="M18.4,32.1A1.6,1.6,0,1,0,20,33.7a1.58,1.58,0,0,0-1.6-1.6Z"/>
          </g>
          <g id="组_1691" data-name="组 1691">
            <path id="路径_2956" data-name="路径 2956" d="M30.3,32.1a1.6,1.6,0,1,0,1.6,1.6,1.58,1.58,0,0,0-1.6-1.6Z"/>
          </g>
          <g id="组_1692" data-name="组 1692">
            <path id="路径_2957" data-name="路径 2957" d="M41.9,32.1a1.6,1.6,0,1,0,1.6,1.6,1.58,1.58,0,0,0-1.6-1.6Z"/>
          </g>
        </g>
        <g id="组_1698" data-name="组 1698">
          <g id="组_1694" data-name="组 1694">
            <path id="路径_2958" data-name="路径 2958" d="M6.1,41.6a1.6,1.6,0,1,0,1.6,1.6,1.58,1.58,0,0,0-1.6-1.6Z"/>
          </g>
          <g id="组_1695" data-name="组 1695">
            <path id="路径_2959" data-name="路径 2959" d="M18.4,41.6A1.6,1.6,0,1,0,20,43.2a1.58,1.58,0,0,0-1.6-1.6Z"/>
          </g>
          <g id="组_1696" data-name="组 1696">
            <path id="路径_2960" data-name="路径 2960" d="M30.3,41.6a1.6,1.6,0,1,0,1.6,1.6,1.58,1.58,0,0,0-1.6-1.6Z"/>
          </g>
          <g id="组_1697" data-name="组 1697">
            <path id="路径_2961" data-name="路径 2961" d="M41.9,41.6a1.6,1.6,0,1,0,1.6,1.6,1.58,1.58,0,0,0-1.6-1.6Z"/>
          </g>
        </g>
      </g>
    </g>
  </g>
</svg>
