<svg xmlns="http://www.w3.org/2000/svg" width="48.717" height="48.917" viewBox="0 0 48.717 48.917">
  <g id="粘砂土混砂" transform="translate(-8598.362 -55.642)">
    <path id="路径_3296" data-name="路径 3296" d="M0,0H48V48H0Z" transform="translate(8599 56)" fill="none"/>
    <g id="粘砂土混砂-2" data-name="粘砂土混砂" transform="translate(8598.721 56.1)">
      <path id="直线_844" data-name="直线 844" d="M.354,48.154l-.707-.707,47.8-47.8.707.707Z" transform="translate(0 0.1)" fill="#595758"/>
      <path id="直线_845" data-name="直线 845" d="M.358,32.358l-.717-.717,32-32,.717.717Z" transform="translate(0 -0.1)" fill="#595758"/>
      <path id="直线_846" data-name="直线 846" d="M.358,32.358l-.717-.717,32-32,.717.717Z" transform="translate(16 16.1)" fill="#595758"/>
      <path id="直线_847" data-name="直线 847" d="M.354,16.154l-.707-.707,15.8-15.8.707.707Z" transform="translate(32.2 32.1)" fill="#595758"/>
      <path id="直线_848" data-name="直线 848" d="M.354,16.354l-.707-.707,16-16,.707.707Z" fill="#595758"/>
      <g id="组_1725" data-name="组 1725">
        <g id="组_1704" data-name="组 1704">
          <g id="组_1700" data-name="组 1700">
            <path id="路径_2962" data-name="路径 2962" d="M6,3.4A1.58,1.58,0,0,0,4.4,5,1.5,1.5,0,0,0,6,6.5,1.561,1.561,0,0,0,7.6,5,1.645,1.645,0,0,0,6,3.4Z"/>
          </g>
          <g id="组_1701" data-name="组 1701">
            <path id="路径_2963" data-name="路径 2963" d="M18.3,3.4A1.6,1.6,0,1,0,19.9,5a1.58,1.58,0,0,0-1.6-1.6Z"/>
          </g>
          <g id="组_1702" data-name="组 1702">
            <path id="路径_2964" data-name="路径 2964" d="M30.2,3.4A1.6,1.6,0,1,0,31.8,5a1.58,1.58,0,0,0-1.6-1.6Z"/>
          </g>
          <g id="组_1703" data-name="组 1703">
            <path id="路径_2965" data-name="路径 2965" d="M41.8,3.4A1.6,1.6,0,1,0,43.4,5a1.58,1.58,0,0,0-1.6-1.6Z"/>
          </g>
        </g>
        <g id="组_1709" data-name="组 1709">
          <g id="组_1705" data-name="组 1705">
            <path id="路径_2966" data-name="路径 2966" d="M6.1,12.9a1.6,1.6,0,1,0,1.6,1.6,1.58,1.58,0,0,0-1.6-1.6Z"/>
          </g>
          <g id="组_1706" data-name="组 1706">
            <path id="路径_2967" data-name="路径 2967" d="M18.4,12.9A1.6,1.6,0,1,0,20,14.5a1.58,1.58,0,0,0-1.6-1.6Z"/>
          </g>
          <g id="组_1707" data-name="组 1707">
            <path id="路径_2968" data-name="路径 2968" d="M30.3,12.9a1.6,1.6,0,1,0,1.6,1.6,1.58,1.58,0,0,0-1.6-1.6Z"/>
          </g>
          <g id="组_1708" data-name="组 1708">
            <path id="路径_2969" data-name="路径 2969" d="M41.9,12.9a1.6,1.6,0,1,0,1.6,1.6,1.58,1.58,0,0,0-1.6-1.6Z"/>
          </g>
        </g>
        <g id="组_1714" data-name="组 1714">
          <g id="组_1710" data-name="组 1710">
            <path id="路径_2970" data-name="路径 2970" d="M6.1,22.4A1.6,1.6,0,1,0,7.7,24a1.58,1.58,0,0,0-1.6-1.6Z"/>
          </g>
          <g id="组_1711" data-name="组 1711">
            <path id="路径_2971" data-name="路径 2971" d="M18.4,22.4a1.6,1.6,0,0,0,0,3.2,1.6,1.6,0,1,0,0-3.2Z"/>
          </g>
          <g id="组_1712" data-name="组 1712">
            <path id="路径_2972" data-name="路径 2972" d="M30.3,22.4A1.6,1.6,0,1,0,31.9,24a1.58,1.58,0,0,0-1.6-1.6Z"/>
          </g>
          <g id="组_1713" data-name="组 1713">
            <path id="路径_2973" data-name="路径 2973" d="M41.9,22.4A1.6,1.6,0,1,0,43.5,24a1.58,1.58,0,0,0-1.6-1.6Z"/>
          </g>
        </g>
        <g id="组_1719" data-name="组 1719">
          <g id="组_1715" data-name="组 1715">
            <path id="路径_2974" data-name="路径 2974" d="M6.1,31.8a1.6,1.6,0,1,0,1.6,1.6,1.58,1.58,0,0,0-1.6-1.6Z"/>
          </g>
          <g id="组_1716" data-name="组 1716">
            <path id="路径_2975" data-name="路径 2975" d="M18.4,31.8A1.6,1.6,0,1,0,20,33.4a1.58,1.58,0,0,0-1.6-1.6Z"/>
          </g>
          <g id="组_1717" data-name="组 1717">
            <path id="路径_2976" data-name="路径 2976" d="M30.3,31.8a1.6,1.6,0,1,0,1.6,1.6,1.58,1.58,0,0,0-1.6-1.6Z"/>
          </g>
          <g id="组_1718" data-name="组 1718">
            <path id="路径_2977" data-name="路径 2977" d="M41.9,31.8a1.6,1.6,0,1,0,1.6,1.6,1.58,1.58,0,0,0-1.6-1.6Z"/>
          </g>
        </g>
        <g id="组_1724" data-name="组 1724">
          <g id="组_1720" data-name="组 1720">
            <path id="路径_2978" data-name="路径 2978" d="M6.1,41.4A1.6,1.6,0,1,0,7.7,43a1.58,1.58,0,0,0-1.6-1.6Z"/>
          </g>
          <g id="组_1721" data-name="组 1721">
            <path id="路径_2979" data-name="路径 2979" d="M18.4,41.4a1.6,1.6,0,1,0,0,3.2A1.666,1.666,0,0,0,20,42.9a1.5,1.5,0,0,0-1.6-1.5Z"/>
          </g>
          <g id="组_1722" data-name="组 1722">
            <path id="路径_2980" data-name="路径 2980" d="M30.3,41.4A1.6,1.6,0,1,0,31.9,43a1.58,1.58,0,0,0-1.6-1.6Z"/>
          </g>
          <g id="组_1723" data-name="组 1723">
            <path id="路径_2981" data-name="路径 2981" d="M41.9,41.4A1.6,1.6,0,1,0,43.5,43a1.58,1.58,0,0,0-1.6-1.6Z"/>
          </g>
        </g>
      </g>
    </g>
  </g>
</svg>
