<svg xmlns="http://www.w3.org/2000/svg" width="48.327" height="48.314" viewBox="0 0 48.327 48.314">
  <g id="粘砂土" transform="translate(-8540 -55.893)">
    <path id="路径_3295" data-name="路径 3295" d="M0,0H48V48H0Z" transform="translate(8540 56)" fill="none"/>
    <g id="粘砂土-2" data-name="粘砂土" transform="translate(8540.32 56)">
      <path id="直线_836" data-name="直线 836" d="M0,18.007a.505.505,0,0,1-.36-.149.507.507,0,0,1,0-.717l2.811-2.795a.507.507,0,0,1,.715.719L.357,17.859A.505.505,0,0,1,0,18.007Zm4.216-4.192a.507.507,0,0,1-.357-.866l2.811-2.795a.507.507,0,0,1,.715.719L4.573,13.668A.505.505,0,0,1,4.216,13.815ZM8.432,9.623a.507.507,0,0,1-.357-.866l2.811-2.795a.507.507,0,0,1,.715.719L8.789,9.476A.505.505,0,0,1,8.432,9.623Zm4.216-4.192a.507.507,0,0,1-.357-.866L15.1,1.77a.507.507,0,0,1,.715.719L13.005,5.284A.505.505,0,0,1,12.648,5.431Zm4.216-4.192a.507.507,0,0,1-.357-.866l.737-.732a.507.507,0,0,1,.717,0,.507.507,0,0,1,0,.717l-.737.732A.505.505,0,0,1,16.863,1.239Z" transform="translate(0.9 0.6)"/>
      <path id="直线_837" data-name="直线 837" d="M0,7.107a.505.505,0,0,1-.361-.151.507.507,0,0,1,.005-.717L2.468,3.457a.507.507,0,0,1,.712.722L.356,6.961A.505.505,0,0,1,0,7.107ZM4.235,2.935a.507.507,0,0,1-.356-.868L6.344-.361a.507.507,0,0,1,.717.005.507.507,0,0,1-.005.717L4.591,2.789A.505.505,0,0,1,4.235,2.935Z" transform="translate(0.9 0.9)"/>
      <path id="直线_838" data-name="直线 838" d="M0,29.807a.505.505,0,0,1-.355-.145.507.507,0,0,1-.007-.717l2.773-2.831a.507.507,0,1,1,.724.709L.362,29.655A.505.505,0,0,1,0,29.807ZM4.16,25.56A.507.507,0,0,1,3.8,24.7l2.773-2.831a.507.507,0,1,1,.724.709L4.522,25.408A.505.505,0,0,1,4.16,25.56Zm4.16-4.247a.507.507,0,0,1-.362-.862l2.773-2.831a.507.507,0,1,1,.724.709L8.683,21.16A.505.505,0,0,1,8.32,21.313Zm4.16-4.247a.507.507,0,0,1-.362-.862l2.773-2.831a.507.507,0,1,1,.724.709l-2.773,2.831A.505.505,0,0,1,12.481,17.065Zm4.16-4.247a.507.507,0,0,1-.362-.862l2.773-2.831a.507.507,0,1,1,.724.709L17,12.666A.505.505,0,0,1,16.641,12.818ZM20.8,8.571a.507.507,0,0,1-.362-.862l2.773-2.831a.507.507,0,1,1,.724.709L21.163,8.419A.505.505,0,0,1,20.8,8.571Zm4.16-4.247a.507.507,0,0,1-.362-.862L27.372.631a.507.507,0,1,1,.724.709L25.323,4.172A.505.505,0,0,1,24.961,4.324Z" transform="translate(0.4)"/>
      <path id="直线_839" data-name="直线 839" d="M0,40.707a.505.505,0,0,1-.356-.146.507.507,0,0,1,0-.717l2.1-2.129a.507.507,0,1,1,.721.712l-2.1,2.129A.505.505,0,0,1,0,40.707Zm3.495-3.539a.507.507,0,0,1-.361-.863l2.785-2.82a.507.507,0,0,1,.721.712l-2.785,2.82A.505.505,0,0,1,3.495,37.168Zm4.178-4.23a.507.507,0,0,1-.361-.863l2.785-2.82a.507.507,0,0,1,.721.712l-2.785,2.82A.505.505,0,0,1,7.672,32.938Zm4.177-4.23a.507.507,0,0,1-.361-.863l2.785-2.82a.507.507,0,0,1,.721.712l-2.785,2.82A.505.505,0,0,1,11.85,28.708Zm4.178-4.23a.507.507,0,0,1-.361-.863l2.785-2.82a.507.507,0,1,1,.721.712l-2.785,2.82A.505.505,0,0,1,16.027,24.478Zm4.177-4.23a.507.507,0,0,1-.361-.863l2.785-2.82a.507.507,0,0,1,.721.712L20.566,20.1A.505.505,0,0,1,20.2,20.248Zm4.178-4.23a.507.507,0,0,1-.361-.863l2.785-2.82a.507.507,0,1,1,.721.712l-2.785,2.82A.505.505,0,0,1,24.382,16.017Zm4.177-4.23a.507.507,0,0,1-.361-.863L30.984,8.1a.507.507,0,0,1,.721.712l-2.785,2.82A.505.505,0,0,1,28.56,11.787Zm4.178-4.23a.507.507,0,0,1-.361-.863l2.785-2.82a.507.507,0,1,1,.721.712L33.1,7.406A.505.505,0,0,1,32.737,7.557Zm4.178-4.23a.507.507,0,0,1-.361-.863l2.785-2.82a.507.507,0,0,1,.717,0,.507.507,0,0,1,0,.717l-2.785,2.82A.505.505,0,0,1,36.915,3.327Z" transform="translate(0.4 0.4)"/>
      <path id="直线_840" data-name="直线 840" d="M0,44.907a.505.505,0,0,1-.358-.148.507.507,0,0,1,0-.717l2.8-2.809a.507.507,0,0,1,.719.715l-2.8,2.809A.505.505,0,0,1,0,44.907Zm4.194-4.213a.507.507,0,0,1-.359-.865l2.8-2.809a.507.507,0,1,1,.719.715l-2.8,2.809A.505.505,0,0,1,4.194,40.694ZM8.389,36.48a.507.507,0,0,1-.359-.865l2.8-2.809a.507.507,0,1,1,.719.715l-2.8,2.809A.505.505,0,0,1,8.389,36.48Zm4.194-4.213a.507.507,0,0,1-.359-.865l2.8-2.809a.507.507,0,0,1,.719.715l-2.8,2.809A.505.505,0,0,1,12.583,32.267Zm4.194-4.213a.507.507,0,0,1-.359-.865l2.8-2.809a.507.507,0,0,1,.719.715l-2.8,2.809A.505.505,0,0,1,16.778,28.053Zm4.194-4.213a.507.507,0,0,1-.359-.865l2.8-2.809a.507.507,0,1,1,.719.715l-2.8,2.809A.505.505,0,0,1,20.972,23.84Zm4.194-4.213a.507.507,0,0,1-.359-.865l2.8-2.809a.507.507,0,0,1,.719.715l-2.8,2.809A.505.505,0,0,1,25.166,19.627Zm4.194-4.213A.507.507,0,0,1,29,14.549l2.8-2.809a.507.507,0,0,1,.719.715l-2.8,2.809A.505.505,0,0,1,29.361,15.413ZM33.555,11.2a.507.507,0,0,1-.359-.865l2.8-2.809a.507.507,0,0,1,.719.715l-2.8,2.809A.505.505,0,0,1,33.555,11.2ZM37.75,6.987a.507.507,0,0,1-.359-.865l2.8-2.809a.507.507,0,0,1,.719.715l-2.8,2.809A.505.505,0,0,1,37.75,6.987Zm4.194-4.213a.507.507,0,0,1-.359-.865L43.841-.358a.507.507,0,0,1,.717,0,.507.507,0,0,1,0,.717L42.3,2.624A.505.505,0,0,1,41.944,2.773Z" transform="translate(3.3 3.3)"/>
      <path id="直线_841" data-name="直线 841" d="M0,33.207a.505.505,0,0,1-.358-.148.507.507,0,0,1,0-.717l2.8-2.8a.507.507,0,0,1,.717.717l-2.8,2.8A.505.505,0,0,1,0,33.207ZM4.2,29a.507.507,0,0,1-.358-.865l2.8-2.8a.507.507,0,0,1,.717.717l-2.8,2.8A.505.505,0,0,1,4.2,29Zm4.2-4.2a.507.507,0,0,1-.358-.865l2.8-2.8a.507.507,0,0,1,.717.717l-2.8,2.8A.505.505,0,0,1,8.408,24.8Zm4.2-4.2a.507.507,0,0,1-.358-.865l2.8-2.8a.507.507,0,0,1,.717.717l-2.8,2.8A.505.505,0,0,1,12.612,20.6Zm4.2-4.2a.507.507,0,0,1-.358-.865l2.8-2.8a.507.507,0,0,1,.717.717l-2.8,2.8A.505.505,0,0,1,16.816,16.391Zm4.2-4.2a.507.507,0,0,1-.358-.865l2.8-2.8a.507.507,0,0,1,.717.717l-2.8,2.8A.505.505,0,0,1,21.019,12.187Zm4.2-4.2a.507.507,0,0,1-.358-.865l2.8-2.8a.507.507,0,0,1,.717.717l-2.8,2.8A.505.505,0,0,1,25.223,7.984Zm4.2-4.2a.507.507,0,0,1-.358-.865l2.8-2.8a.507.507,0,0,1,.717.717l-2.8,2.8A.505.505,0,0,1,29.427,3.78Z" transform="translate(15 14.7)"/>
      <path id="直线_842" data-name="直线 842" d="M0,22.107a.505.505,0,0,1-.359-.149.507.507,0,0,1,0-.717l2.809-2.8a.507.507,0,1,1,.715.719l-2.809,2.8A.505.505,0,0,1,0,22.107Zm4.214-4.194a.507.507,0,0,1-.358-.866l2.809-2.8a.507.507,0,1,1,.715.719l-2.809,2.8A.505.505,0,0,1,4.214,17.913Zm4.214-4.194a.507.507,0,0,1-.358-.866l2.809-2.8a.507.507,0,0,1,.715.719l-2.809,2.8A.505.505,0,0,1,8.427,13.719Zm4.214-4.194a.507.507,0,0,1-.358-.866l2.809-2.8a.507.507,0,0,1,.715.719L13,9.377A.505.505,0,0,1,12.641,9.524ZM16.854,5.33a.507.507,0,0,1-.358-.866l2.809-2.8a.507.507,0,0,1,.715.719l-2.809,2.8A.505.505,0,0,1,16.854,5.33Zm4.214-4.194A.507.507,0,0,1,20.71.27l.632-.629a.507.507,0,0,1,.717,0,.507.507,0,0,1,0,.717l-.632.629A.505.505,0,0,1,21.068,1.136Z" transform="translate(25.7 25.8)"/>
      <path id="直线_843" data-name="直线 843" d="M0,10.707a.505.505,0,0,1-.36-.15.507.507,0,0,1,0-.717L2.46,7.051a.507.507,0,0,1,.713.72L.357,10.56A.505.505,0,0,1,0,10.707ZM4.224,6.524a.507.507,0,0,1-.357-.867L6.684,2.868a.507.507,0,1,1,.713.72L4.581,6.377A.505.505,0,0,1,4.224,6.524ZM8.449,2.34a.507.507,0,0,1-.357-.867L9.943-.36a.507.507,0,0,1,.717,0,.507.507,0,0,1,0,.717L8.805,2.194A.505.505,0,0,1,8.449,2.34Z" transform="translate(36.5 37.2)"/>
    </g>
  </g>
</svg>
