<svg xmlns="http://www.w3.org/2000/svg" width="48.708" height="48.707" viewBox="0 0 48.708 48.707">
  <g id="粘质粉土夹粉质粘土" transform="translate(-8714.367 -55.646)">
    <path id="路径_3298" data-name="路径 3298" d="M0,0H48V48H0Z" transform="translate(8715 56)" fill="none"/>
    <g id="粘质粉土夹粉质粘土-2" data-name="粘质粉土夹粉质粘土" transform="translate(8714.721 56)">
      <path id="直线_849" data-name="直线 849" d="M.354,48.253l-.708-.706,47.8-47.9.708.706Z" transform="translate(0 0.1)" fill="#595758"/>
      <path id="直线_850" data-name="直线 850" d="M.355,16.252l-.709-.7,15.8-15.9.709.7Z" transform="translate(32.2 32.1)" fill="#595758"/>
      <path id="直线_851" data-name="直线 851" d="M.354,16.154l-.707-.707,15.8-15.8.707.707Z" fill="#595758"/>
      <g id="组_1735" data-name="组 1735">
        <g id="组_1734" data-name="组 1734">
          <path id="直线_852" data-name="直线 852" d="M.354,4.554l-.707-.707,4.2-4.2.707.707Z" transform="translate(0.1 27.4)" fill="#595758"/>
          <path id="直线_853" data-name="直线 853" d="M.357,11.95l-.713-.7L7.231,3.528l.713.7Z" transform="translate(12 8.2)" fill="#595758"/>
          <path id="直线_854" data-name="直线 854" d="M.354,4.554l-.707-.707,4.2-4.2.707.707Z" transform="translate(27.3 0.1)" fill="#595758"/>
        </g>
      </g>
      <g id="组_1737" data-name="组 1737">
        <g id="组_1736" data-name="组 1736">
          <path id="直线_855" data-name="直线 855" d="M.354,4.554l-.707-.707,4.2-4.2.707.707Z" transform="translate(16.5 43.8)" fill="#595758"/>
          <path id="直线_856" data-name="直线 856" d="M.354,11.754l-.707-.707L7.285,3.408l.707.707Z" transform="translate(28.4 24.6)" fill="#595758"/>
          <path id="直线_857" data-name="直线 857" d="M.358,4.649l-.715-.7,4.2-4.3.715.7Z" transform="translate(43.7 16.5)" fill="#595758"/>
        </g>
      </g>
    </g>
  </g>
</svg>
