<svg xmlns="http://www.w3.org/2000/svg" width="48.279" height="48" viewBox="0 0 48.279 48">
  <g id="粘质粉土素填土" transform="translate(-8772.721 -56)">
    <path id="路径_3299" data-name="路径 3299" d="M0,0H48V48H0Z" transform="translate(8773 56)" fill="none"/>
    <g id="组_1741" data-name="组 1741" transform="translate(8772.721 56)">
      <path id="路径_3006" data-name="路径 3006" d="M20.3,27.5c-.1-.2-.5-.2-.8,0l-7.9,7.9a.608.608,0,0,0,0,.8.758.758,0,0,0,.4.2.758.758,0,0,0,.4-.2l7.9-7.9A.608.608,0,0,0,20.3,27.5Z"/>
      <path id="路径_3007" data-name="路径 3007" d="M27.4,20.5a.5.5,0,0,0,.8,0l7.9-7.9a.566.566,0,1,0-.8-.8l-7.9,7.9A.608.608,0,0,0,27.4,20.5Z"/>
      <path id="路径_3008" data-name="路径 3008" d="M47.1,0,43.2,3.9a.468.468,0,0,0,0,.8.5.5,0,0,0,.8,0l4-4V0Z"/>
      <path id="路径_3009" data-name="路径 3009" d="M8.7,8.8a.55.55,0,0,0,.5.3A.367.367,0,0,0,9.5,9a.524.524,0,0,0,.2-.8l-.2-.3L17.2,0H15.5L8.9,6.8,7.2,3.6c-.2-.3-.4-.5-.7-.5a.67.67,0,0,0-.7.4L3,8.3a.443.443,0,0,0,.2.7A.54.54,0,0,0,4,8.8L6.5,4.6l1.6,3L0,15.9v1.7L8.7,8.7Z"/>
      <path id="路径_3010" data-name="路径 3010" d="M16.3,37.2,18.8,33l2.3,4.2a.55.55,0,0,0,.5.3.367.367,0,0,0,.3-.1.524.524,0,0,0,.2-.8L19.5,32a.813.813,0,0,0-1.4,0l-2.8,4.7a.54.54,0,0,0,.2.8A.67.67,0,0,0,16.3,37.2Z"/>
      <path id="路径_3011" data-name="路径 3011" d="M8.2,24.5l7.7-7.6-.5.9a.583.583,0,1,0,1,.6l2.5-4.2,2.3,4.2a.55.55,0,0,0,.5.3.367.367,0,0,0,.3-.1.524.524,0,0,0,.2-.8l-2.5-4.6L33,0H31.3L7.6,23.4l-.4-.8a.67.67,0,0,0-.7-.4.67.67,0,0,0-.7.4L3,27.3c-.1.2-.1.5.1.6l-3,3v1.7l7.4-7.3,1.4,2.5c-.1.2.1.3.3.3a.367.367,0,0,0,.3-.1.524.524,0,0,0,.2-.8ZM5.1,25.8l1.3-2.3.3.6Z"/>
      <path id="路径_3012" data-name="路径 3012" d="M7.2,41.6a.67.67,0,0,0-.7-.4.67.67,0,0,0-.7.4L4.7,43.5a.1.1,0,0,0-.1-.1.441.441,0,0,0-.8-.1L0,47.1V48H.7l3.1-3.1L3,46.3a.54.54,0,0,0,.2.8.54.54,0,0,0,.8-.2l2.5-4.2,2.3,4.2c0,.1.2.2.4.2a.367.367,0,0,0,.3-.1.524.524,0,0,0,.2-.8Z"/>
      <path id="路径_3013" data-name="路径 3013" d="M30.7,3.1a.67.67,0,0,0-.7.4L27.2,8.2a.583.583,0,0,0,1,.6l2.5-4.2L33,8.8a.55.55,0,0,0,.5.3.367.367,0,0,0,.3-.1.618.618,0,0,0,.2-.7L31.4,3.6A.752.752,0,0,0,30.7,3.1Z"/>
      <path id="路径_3014" data-name="路径 3014" d="M39,18.5a.54.54,0,0,0,.8-.2l2.5-4.2,2.3,4.2a.55.55,0,0,0,.5.3.367.367,0,0,0,.3-.1.524.524,0,0,0,.2-.8L43,13.1a.813.813,0,0,0-1.4,0l-2.8,4.7A.443.443,0,0,0,39,18.5Z"/>
      <path id="路径_3015" data-name="路径 3015" d="M43.1,32a.813.813,0,0,0-1.4,0l-2.8,4.7a.583.583,0,0,0,1,.6l2.5-4.2,1.3,2.4-10,10.3-2.2-4.1a.812.812,0,0,0-1.4,0l-2.8,4.7a.583.583,0,0,0,1,.6l2.5-4.2,2.1,3.9L31.3,48H33L44.2,36.5l.4.7a.55.55,0,0,0,.5.3.367.367,0,0,0,.3-.1.524.524,0,0,0,.2-.8l-.6-1,2.9-3V30.9l-3.5,3.6Z"/>
      <path id="路径_3016" data-name="路径 3016" d="M30.7,22.1a.67.67,0,0,0-.7.4l-2.8,4.7a.583.583,0,0,0,1,.6l2.5-4.2L33,27.8a.55.55,0,0,0,.5.3.367.367,0,0,0,.3-.1.524.524,0,0,0,.2-.8l-2.6-4.7A.842.842,0,0,0,30.7,22.1Z"/>
      <path id="路径_3017" data-name="路径 3017" d="M17.2,48,48,17.6V15.9L15.5,48Z"/>
      <path id="路径_3018" data-name="路径 3018" d="M48,48v-.9l-.9.9Z"/>
      <path id="路径_3019" data-name="路径 3019" d="M0,0V.6L.7,0Z"/>
    </g>
  </g>
</svg>
