<?xml version='1.0' encoding='utf-8'?>
<!DOCTYPE svg PUBLIC '-//W3C//DTD SVG 1.1//EN' 'http://www.w3.org/Graphics/SVG/1.1/DTD/svg11.dtd'>
<!-- Generator: Adobe Illustrator 16.0.0, SVG Export Plug-In . SVG Version: 6.00 Build 0)  -->
<svg version="1.1" xml:space="preserve" xmlns="http://www.w3.org/2000/svg" x="0px" width="48px" viewBox="0 0 48 48" enable-background="new 0 0 48 48" y="0px" xmlns:xlink="http://www.w3.org/1999/xlink" height="48px">
    <g id="糜棱岩">
        <line y1="0" fill="none" stroke-miterlimit="10" x2="37.334" y2="10.666" stroke="#595758" x1="48"/>
        <line y1="14.394" fill="none" stroke-miterlimit="10" x2="31.521" y2="16.852" stroke="#595758" x1="33.979"/>
        <line y1="21.602" fill="none" stroke-miterlimit="10" x2="14.356" y2="34.561" stroke="#595758" x1="27.313"/>
        <line y1="38.08" fill="none" stroke-miterlimit="10" x2="8.251" y2="40.33" stroke="#595758" x1="10.501"/>
        <line y1="42.748" fill="none" stroke-miterlimit="10" x2="0.542" y2="47.873" stroke="#595758" x1="5.667"/>
        <line y1="15.123" fill="none" stroke-miterlimit="10" x2="7.877" y2="28.081" stroke="#595758" x1="20.834"/>
        <line y1="6.351" fill="none" stroke-miterlimit="10" x2="0.542" y2="19.31" stroke="#595758" x1="13.499"/>
        <line y1="28.563" fill="none" stroke-miterlimit="10" x2="21.497" y2="41.521" stroke="#595758" x1="34.453"/>
        <line y1="36.269" fill="none" stroke-miterlimit="10" x2="30.053" y2="49.228" stroke="#595758" x1="43.01"/>
        <line y1="22.414" fill="none" stroke-miterlimit="10" x2="38.293" y2="24.872" stroke="#595758" x1="40.751"/>
        <line y1="30.248" fill="none" stroke-miterlimit="10" x2="45.542" y2="32.706" stroke="#595758" x1="48"/>
        <line y1="8.624" fill="none" stroke-miterlimit="10" x2="26.542" y2="11.082" stroke="#595758" x1="29"/>
        <line y1="0.561" fill="none" stroke-miterlimit="10" x2="18.376" y2="3.02" stroke="#595758" x1="20.834"/>
        <line y1="30.248" fill="none" stroke-miterlimit="10" x2="2.188" y2="32.706" stroke="#595758" x1="4.646"/>
        <line y1="45.311" fill="none" stroke-miterlimit="10" x2="15.553" y2="47.769" stroke="#595758" x1="18.012"/>
        <line y1="-0.128" fill="none" stroke-miterlimit="10" x2="32.021" y2="5.852" stroke="#595758" x1="38"/>
        <line y1="15.123" fill="none" stroke-miterlimit="10" x2="44.092" y2="19.31" stroke="#595758" x1="48.278"/>
        <line y1="0" fill="none" stroke-miterlimit="10" x2="0" y2="4.967" stroke="#595758" x1="4.646"/>
        <line y1="43.033" fill="none" stroke-miterlimit="10" x2="43.219" y2="48" stroke="#595758" x1="47.865"/>
    </g>
</svg>
