<svg xmlns="http://www.w3.org/2000/svg" width="48.279" height="48" viewBox="0 0 48.279 48">
  <g id="细砂夹粘土" transform="translate(-9075.721 -56)">
    <path id="路径_3303" data-name="路径 3303" d="M0,0H48V48H0Z" transform="translate(9076 56)" fill="none"/>
    <g id="细砂夹粘土-2" data-name="细砂夹粘土" transform="translate(9075.721 56)">
      <g id="组_1778" data-name="组 1778">
        <path id="路径_3076" data-name="路径 3076" d="M17,0,0,17V31.1L31,0Z" fill="none"/>
        <path id="路径_3077" data-name="路径 3077" d="M48,.9.9,48H15.5L48,15.5Z" fill="none"/>
        <path id="路径_3078" data-name="路径 3078" d="M32.4,0l.1.1L.1,32.6H0V47.3L47.3,0Z" fill="none"/>
        <path id="路径_3079" data-name="路径 3079" d="M48,17,17,48H31.2L48,31.2Z" fill="none"/>
        <path id="路径_3080" data-name="路径 3080" d="M0,0V15.4L15.4,0Z" fill="none"/>
        <path id="路径_3081" data-name="路径 3081" d="M32.7,48H48V32.7Z" fill="none"/>
        <path id="路径_3082" data-name="路径 3082" d="M48,0h-.7L0,47.3V48H.9L48,.9Z" fill="#595758"/>
        <path id="路径_3083" data-name="路径 3083" d="M48,31.2,31.2,48h1.5L48,32.7Z" fill="#595758"/>
        <path id="路径_3084" data-name="路径 3084" d="M15.4,0,0,15.4V17L17,0Z" fill="#595758"/>
        <path id="路径_3085" data-name="路径 3085" d="M32.5.1,32.4,0H31L0,31.1v1.5H.1Z" fill="#595758"/>
        <path id="路径_3086" data-name="路径 3086" d="M48,15.5,15.5,48H17L48,17Z" fill="#595758"/>
      </g>
      <g id="组_1804" data-name="组 1804">
        <g id="组_1783" data-name="组 1783">
          <g id="组_1779" data-name="组 1779">
            <path id="路径_3087" data-name="路径 3087" d="M6,3.6A1.58,1.58,0,0,0,4.4,5.2,1.5,1.5,0,0,0,6,6.7,1.561,1.561,0,0,0,7.6,5.2,1.645,1.645,0,0,0,6,3.6Z"/>
          </g>
          <g id="组_1780" data-name="组 1780">
            <path id="路径_3088" data-name="路径 3088" d="M18.3,3.6a1.6,1.6,0,1,0,1.6,1.6,1.58,1.58,0,0,0-1.6-1.6Z"/>
          </g>
          <g id="组_1781" data-name="组 1781">
            <path id="路径_3089" data-name="路径 3089" d="M30.2,3.6a1.6,1.6,0,1,0,1.6,1.6,1.58,1.58,0,0,0-1.6-1.6Z"/>
          </g>
          <g id="组_1782" data-name="组 1782">
            <path id="路径_3090" data-name="路径 3090" d="M41.8,3.6a1.6,1.6,0,1,0,1.6,1.6,1.58,1.58,0,0,0-1.6-1.6Z"/>
          </g>
        </g>
        <g id="组_1788" data-name="组 1788">
          <g id="组_1784" data-name="组 1784">
            <path id="路径_3091" data-name="路径 3091" d="M6.1,13.1a1.6,1.6,0,1,0,1.6,1.6,1.58,1.58,0,0,0-1.6-1.6Z"/>
          </g>
          <g id="组_1785" data-name="组 1785">
            <path id="路径_3092" data-name="路径 3092" d="M18.4,13.1A1.6,1.6,0,1,0,20,14.7a1.58,1.58,0,0,0-1.6-1.6Z"/>
          </g>
          <g id="组_1786" data-name="组 1786">
            <path id="路径_3093" data-name="路径 3093" d="M30.3,13.1a1.6,1.6,0,1,0,1.6,1.6,1.58,1.58,0,0,0-1.6-1.6Z"/>
          </g>
          <g id="组_1787" data-name="组 1787">
            <path id="路径_3094" data-name="路径 3094" d="M41.9,13.1a1.6,1.6,0,1,0,1.6,1.6,1.58,1.58,0,0,0-1.6-1.6Z"/>
          </g>
        </g>
        <g id="组_1793" data-name="组 1793">
          <g id="组_1789" data-name="组 1789">
            <path id="路径_3095" data-name="路径 3095" d="M6.1,22.6a1.6,1.6,0,1,0,1.6,1.6,1.58,1.58,0,0,0-1.6-1.6Z"/>
          </g>
          <g id="组_1790" data-name="组 1790">
            <path id="路径_3096" data-name="路径 3096" d="M18.4,22.6a1.6,1.6,0,0,0,0,3.2,1.6,1.6,0,1,0,0-3.2Z"/>
          </g>
          <g id="组_1791" data-name="组 1791">
            <path id="路径_3097" data-name="路径 3097" d="M30.3,22.6a1.6,1.6,0,1,0,1.6,1.6,1.58,1.58,0,0,0-1.6-1.6Z"/>
          </g>
          <g id="组_1792" data-name="组 1792">
            <path id="路径_3098" data-name="路径 3098" d="M41.9,22.6a1.6,1.6,0,1,0,1.6,1.6,1.58,1.58,0,0,0-1.6-1.6Z"/>
          </g>
        </g>
        <g id="组_1798" data-name="组 1798">
          <g id="组_1794" data-name="组 1794">
            <path id="路径_3099" data-name="路径 3099" d="M6.1,32.1a1.6,1.6,0,1,0,1.6,1.6,1.58,1.58,0,0,0-1.6-1.6Z"/>
          </g>
          <g id="组_1795" data-name="组 1795">
            <path id="路径_3100" data-name="路径 3100" d="M18.4,32.1A1.6,1.6,0,1,0,20,33.7a1.58,1.58,0,0,0-1.6-1.6Z"/>
          </g>
          <g id="组_1796" data-name="组 1796">
            <path id="路径_3101" data-name="路径 3101" d="M30.3,32.1a1.6,1.6,0,1,0,1.6,1.6,1.58,1.58,0,0,0-1.6-1.6Z"/>
          </g>
          <g id="组_1797" data-name="组 1797">
            <path id="路径_3102" data-name="路径 3102" d="M41.9,32.1a1.6,1.6,0,1,0,1.6,1.6,1.58,1.58,0,0,0-1.6-1.6Z"/>
          </g>
        </g>
        <g id="组_1803" data-name="组 1803">
          <g id="组_1799" data-name="组 1799">
            <path id="路径_3103" data-name="路径 3103" d="M6.1,41.6a1.6,1.6,0,1,0,1.6,1.6,1.58,1.58,0,0,0-1.6-1.6Z"/>
          </g>
          <g id="组_1800" data-name="组 1800">
            <path id="路径_3104" data-name="路径 3104" d="M18.4,41.6A1.6,1.6,0,1,0,20,43.2a1.58,1.58,0,0,0-1.6-1.6Z"/>
          </g>
          <g id="组_1801" data-name="组 1801">
            <path id="路径_3105" data-name="路径 3105" d="M30.3,41.6a1.6,1.6,0,1,0,1.6,1.6,1.58,1.58,0,0,0-1.6-1.6Z"/>
          </g>
          <g id="组_1802" data-name="组 1802">
            <path id="路径_3106" data-name="路径 3106" d="M41.9,41.6a1.6,1.6,0,1,0,1.6,1.6,1.58,1.58,0,0,0-1.6-1.6Z"/>
          </g>
        </g>
      </g>
    </g>
  </g>
</svg>
