<?xml version='1.0' encoding='utf-8'?>
<!DOCTYPE svg PUBLIC '-//W3C//DTD SVG 1.1//EN' 'http://www.w3.org/Graphics/SVG/1.1/DTD/svg11.dtd'>
<!-- Generator: Adobe Illustrator 16.0.0, SVG Export Plug-In . SVG Version: 6.00 Build 0)  -->
<svg version="1.1" xml:space="preserve" xmlns="http://www.w3.org/2000/svg" x="0px" width="48px" viewBox="0 0 48 48" enable-background="new 0 0 48 48" y="0px" xmlns:xlink="http://www.w3.org/1999/xlink" height="48px">
    <g id="细粒混合土">
        <g id="细粒混合土_1_">
            <line y1="0" fill="none" stroke-miterlimit="10" x2="5.041" y2="6.228" stroke="#040000" x1="11.333"/>
            <line y1="0.415" fill="none" stroke-miterlimit="10" x2="17.041" y2="9.672" stroke="#040000" x1="26.667"/>
            <line y1="16.125" fill="none" stroke-miterlimit="10" x2="0" y2="26.311" stroke="#040000" x1="10.625"/>
            <line y1="0" fill="none" stroke-miterlimit="10" x2="35.249" y2="12.619" stroke="#040000" x1="48"/>
            <line y1="39.67" fill="none" stroke-miterlimit="10" x2="0.46" y2="47.957" stroke="#040000" x1="8.833"/>
            <line y1="21.217" fill="none" stroke-miterlimit="10" x2="37.721" y2="30.475" stroke="#040000" x1="47.348"/>
            <line y1="36.927" fill="none" stroke-miterlimit="10" x2="20.68" y2="47.111" stroke="#040000" x1="31.307"/>
            <line y1="40.884" fill="none" stroke-miterlimit="10" x2="37.721" y2="47.111" stroke="#040000" x1="44.014"/>
            <line y1="8.415" fill="none" stroke-miterlimit="10" x2="1.917" y2="8.992" stroke="#040000" x1="2.583"/>
            <line y1="12.043" fill="none" stroke-miterlimit="10" x2="13.959" y2="12.826" stroke="#040000" x1="14.75"/>
            <line y1="15.733" fill="none" stroke-miterlimit="10" x2="30.91" y2="16.516" stroke="#040000" x1="31.701"/>
            <line y1="34.611" fill="none" stroke-miterlimit="10" x2="13.168" y2="35.395" stroke="#040000" x1="13.959"/>
            <line y1="33.326" fill="none" stroke-miterlimit="10" x2="33.869" y2="34.109" stroke="#040000" x1="34.66"/>
            <line y1="37.739" fill="none" stroke-miterlimit="10" x2="45.828" y2="38.521" stroke="#040000" x1="46.619"/>
            <ellipse cx="11.917" cy="6.228" fill="none" ry="1.773" stroke-miterlimit="10" stroke="#040000" rx="1.792"/>
            <ellipse cx="5.313" cy="24.924" fill="none" ry="1.732" stroke-miterlimit="10" stroke="#040000" rx="1.75"/>
            <ellipse cx="37.721" cy="26.31" fill="none" ry="1.813" stroke-miterlimit="10" stroke="#040000" rx="1.829"/>
            <ellipse cx="11.917" cy="42.639" fill="none" ry="1.63" stroke-miterlimit="10" stroke="#040000" rx="1.646"/>
            <ellipse cx="33.869" cy="42.02" fill="none" ry="1.861" stroke-miterlimit="10" stroke="#040000" rx="1.881"/>
            <ellipse cx="30.158" cy="7.18" fill="none" ry="1.812" stroke-miterlimit="10" stroke="#040000" rx="1.83"/>
            <text transform="matrix(1.7517 0 0 1 13.5635 33.3262)" fill="#040000" font-family="'SimSun'" font-size="22.1616">X</text>
        </g>
    </g>
</svg>
