<svg xmlns="http://www.w3.org/2000/svg" width="49.107" height="49.306" viewBox="0 0 49.107 49.306">
  <g id="细砂夹粉质粘土" transform="translate(-9016.366 -55.647)">
    <path id="路径_3302" data-name="路径 3302" d="M0,0H48V48H0Z" transform="translate(9017 56)" fill="none"/>
    <g id="细砂夹粉质粘土-2" data-name="细砂夹粉质粘土" transform="translate(9016.82 56.1)">
      <path id="直线_867" data-name="直线 867" d="M.354,48.154l-.707-.707,47.8-47.8.707.707Z" transform="translate(0 0.3)" fill="#595758"/>
      <path id="直线_868" data-name="直线 868" d="M.354,16.854l-.707-.707,16.5-16.5.707.707Z" transform="translate(31.8 32)" fill="#595758"/>
      <path id="直线_869" data-name="直线 869" d="M.355,16.852l-.709-.7,16.4-16.5.709.7Z" transform="translate(-0.1 -0.1)" fill="#595758"/>
      <g id="组_1749" data-name="组 1749">
        <g id="组_1748" data-name="组 1748">
          <path id="直线_870" data-name="直线 870" d="M.354,4.754l-.707-.707,4.4-4.4.707.707Z" transform="translate(-0.1 27.6)" fill="#595758"/>
          <path id="直线_871" data-name="直线 871" d="M.355,11.852l-.71-.7L7.266,3.46l.71.7Z" transform="translate(12 8.4)" fill="#595758"/>
          <path id="直线_872" data-name="直线 872" d="M.354,4.854l-.707-.707,4.5-4.5.707.707Z" transform="translate(27.3)" fill="#595758"/>
        </g>
      </g>
      <g id="组_1751" data-name="组 1751">
        <g id="组_1750" data-name="组 1750">
          <path id="直线_873" data-name="直线 873" d="M.354,4.554l-.707-.707,4.2-4.2.707.707Z" transform="translate(16.3 44.1)" fill="#595758"/>
          <path id="直线_874" data-name="直线 874" d="M.354,11.754l-.707-.707L7.285,3.408l.707.707Z" transform="translate(28.2 25)" fill="#595758"/>
          <path id="直线_875" data-name="直线 875" d="M.354,4.954l-.707-.707,4.6-4.6.707.707Z" transform="translate(43.5 16.5)" fill="#595758"/>
        </g>
      </g>
      <g id="组_1777" data-name="组 1777">
        <g id="组_1756" data-name="组 1756">
          <g id="组_1752" data-name="组 1752">
            <path id="路径_3056" data-name="路径 3056" d="M6,3.6A1.58,1.58,0,0,0,4.4,5.2,1.5,1.5,0,0,0,6,6.7,1.561,1.561,0,0,0,7.6,5.2,1.645,1.645,0,0,0,6,3.6Z"/>
          </g>
          <g id="组_1753" data-name="组 1753">
            <path id="路径_3057" data-name="路径 3057" d="M18.3,3.6a1.6,1.6,0,1,0,1.6,1.6,1.58,1.58,0,0,0-1.6-1.6Z"/>
          </g>
          <g id="组_1754" data-name="组 1754">
            <path id="路径_3058" data-name="路径 3058" d="M30.2,3.6a1.6,1.6,0,1,0,1.6,1.6,1.58,1.58,0,0,0-1.6-1.6Z"/>
          </g>
          <g id="组_1755" data-name="组 1755">
            <path id="路径_3059" data-name="路径 3059" d="M41.8,3.6a1.6,1.6,0,1,0,1.6,1.6,1.58,1.58,0,0,0-1.6-1.6Z"/>
          </g>
        </g>
        <g id="组_1761" data-name="组 1761">
          <g id="组_1757" data-name="组 1757">
            <path id="路径_3060" data-name="路径 3060" d="M6.1,13.1a1.6,1.6,0,1,0,1.6,1.6,1.58,1.58,0,0,0-1.6-1.6Z"/>
          </g>
          <g id="组_1758" data-name="组 1758">
            <path id="路径_3061" data-name="路径 3061" d="M18.4,13.1A1.6,1.6,0,1,0,20,14.7a1.58,1.58,0,0,0-1.6-1.6Z"/>
          </g>
          <g id="组_1759" data-name="组 1759">
            <path id="路径_3062" data-name="路径 3062" d="M30.3,13.1a1.6,1.6,0,1,0,1.6,1.6,1.58,1.58,0,0,0-1.6-1.6Z"/>
          </g>
          <g id="组_1760" data-name="组 1760">
            <path id="路径_3063" data-name="路径 3063" d="M41.9,13.1a1.6,1.6,0,1,0,1.6,1.6,1.58,1.58,0,0,0-1.6-1.6Z"/>
          </g>
        </g>
        <g id="组_1766" data-name="组 1766">
          <g id="组_1762" data-name="组 1762">
            <path id="路径_3064" data-name="路径 3064" d="M6.1,22.6a1.6,1.6,0,1,0,1.6,1.6,1.58,1.58,0,0,0-1.6-1.6Z"/>
          </g>
          <g id="组_1763" data-name="组 1763">
            <path id="路径_3065" data-name="路径 3065" d="M18.4,22.6a1.6,1.6,0,0,0,0,3.2,1.6,1.6,0,1,0,0-3.2Z"/>
          </g>
          <g id="组_1764" data-name="组 1764">
            <path id="路径_3066" data-name="路径 3066" d="M30.3,22.6a1.6,1.6,0,1,0,1.6,1.6,1.58,1.58,0,0,0-1.6-1.6Z"/>
          </g>
          <g id="组_1765" data-name="组 1765">
            <path id="路径_3067" data-name="路径 3067" d="M41.9,22.6a1.6,1.6,0,1,0,1.6,1.6,1.58,1.58,0,0,0-1.6-1.6Z"/>
          </g>
        </g>
        <g id="组_1771" data-name="组 1771">
          <g id="组_1767" data-name="组 1767">
            <path id="路径_3068" data-name="路径 3068" d="M6.1,32.1a1.6,1.6,0,1,0,1.6,1.6,1.58,1.58,0,0,0-1.6-1.6Z"/>
          </g>
          <g id="组_1768" data-name="组 1768">
            <path id="路径_3069" data-name="路径 3069" d="M18.4,32.1A1.6,1.6,0,1,0,20,33.7a1.58,1.58,0,0,0-1.6-1.6Z"/>
          </g>
          <g id="组_1769" data-name="组 1769">
            <path id="路径_3070" data-name="路径 3070" d="M30.3,32.1a1.6,1.6,0,1,0,1.6,1.6,1.58,1.58,0,0,0-1.6-1.6Z"/>
          </g>
          <g id="组_1770" data-name="组 1770">
            <path id="路径_3071" data-name="路径 3071" d="M41.9,32.1a1.6,1.6,0,1,0,1.6,1.6,1.58,1.58,0,0,0-1.6-1.6Z"/>
          </g>
        </g>
        <g id="组_1776" data-name="组 1776">
          <g id="组_1772" data-name="组 1772">
            <path id="路径_3072" data-name="路径 3072" d="M6.1,41.6a1.6,1.6,0,1,0,1.6,1.6,1.58,1.58,0,0,0-1.6-1.6Z"/>
          </g>
          <g id="组_1773" data-name="组 1773">
            <path id="路径_3073" data-name="路径 3073" d="M18.4,41.6A1.6,1.6,0,1,0,20,43.2a1.58,1.58,0,0,0-1.6-1.6Z"/>
          </g>
          <g id="组_1774" data-name="组 1774">
            <path id="路径_3074" data-name="路径 3074" d="M30.3,41.6a1.6,1.6,0,1,0,1.6,1.6,1.58,1.58,0,0,0-1.6-1.6Z"/>
          </g>
          <g id="组_1775" data-name="组 1775">
            <path id="路径_3075" data-name="路径 3075" d="M41.9,41.6a1.6,1.6,0,1,0,1.6,1.6,1.58,1.58,0,0,0-1.6-1.6Z"/>
          </g>
        </g>
      </g>
    </g>
  </g>
</svg>
