<svg xmlns="http://www.w3.org/2000/svg" width="48" height="48" viewBox="0 0 48 48">
  <g id="细砂素填土" transform="translate(-9242 -56)">
    <path id="路径_3306" data-name="路径 3306" d="M0,0H48V48H0Z" transform="translate(9242 56)" fill="none"/>
    <g id="细砂素填土-2" data-name="细砂素填土" transform="translate(9241.625 55.248)">
      <g id="组_1809" data-name="组 1809">
        <g id="组_1805" data-name="组 1805">
          <path id="路径_3143" data-name="路径 3143" d="M8.4,7.6a.55.55,0,0,1-.5-.3L5.7,3.1,3.2,7.3a.54.54,0,0,1-.8.2.443.443,0,0,1-.2-.7L5,2.1a.842.842,0,0,1,.7-.4,1.012,1.012,0,0,1,.7.4L9,6.8a.778.778,0,0,1-.2.8Z"/>
          <circle id="椭圆_94" data-name="椭圆 94" cx="0.8" cy="0.8" r="0.8" transform="translate(4.8 9.3)"/>
        </g>
        <g id="组_1806" data-name="组 1806">
          <path id="路径_3144" data-name="路径 3144" d="M8.4,19.4a.55.55,0,0,1-.5-.3L5.7,14.9,3.2,19.1a.54.54,0,0,1-.8.2.443.443,0,0,1-.2-.7L5,13.9a.842.842,0,0,1,.7-.4,1.012,1.012,0,0,1,.7.4L9,18.6a.778.778,0,0,1-.2.8Z"/>
          <circle id="椭圆_95" data-name="椭圆 95" cx="0.8" cy="0.8" r="0.8" transform="translate(4.8 21)"/>
        </g>
        <g id="组_1807" data-name="组 1807">
          <path id="路径_3145" data-name="路径 3145" d="M8.4,31.2a.55.55,0,0,1-.5-.3L5.7,26.7,3.2,30.9a.54.54,0,0,1-.8.2.443.443,0,0,1-.2-.7L5,25.7a.842.842,0,0,1,.7-.4,1.012,1.012,0,0,1,.7.4L9,30.4a.778.778,0,0,1-.2.8Z"/>
          <circle id="椭圆_96" data-name="椭圆 96" cx="0.8" cy="0.8" r="0.8" transform="translate(4.8 32.8)"/>
        </g>
        <g id="组_1808" data-name="组 1808">
          <path id="路径_3146" data-name="路径 3146" d="M8.4,43a.55.55,0,0,1-.5-.3L5.7,38.5,3.2,42.7a.54.54,0,0,1-.8.2.443.443,0,0,1-.2-.7L5,37.5a.842.842,0,0,1,.7-.4,1.012,1.012,0,0,1,.7.4L9,42.2a.778.778,0,0,1-.2.8Z"/>
          <circle id="椭圆_97" data-name="椭圆 97" cx="0.8" cy="0.8" r="0.8" transform="translate(4.8 44.6)"/>
        </g>
      </g>
      <g id="组_1813" data-name="组 1813">
        <g id="组_1810" data-name="组 1810">
          <path id="路径_3147" data-name="路径 3147" d="M20.7,12.4a.55.55,0,0,1-.5-.3L18,7.9l-2.5,4.2a.54.54,0,0,1-.8.2.443.443,0,0,1-.2-.7l2.8-4.7a.842.842,0,0,1,.7-.4,1.012,1.012,0,0,1,.7.4l2.6,4.7a.778.778,0,0,1-.2.8Z"/>
          <circle id="椭圆_98" data-name="椭圆 98" cx="0.8" cy="0.8" r="0.8" transform="translate(17.1 14.1)"/>
        </g>
        <g id="组_1811" data-name="组 1811">
          <path id="路径_3148" data-name="路径 3148" d="M20.7,24.2a.55.55,0,0,1-.5-.3L18,19.7l-2.5,4.2a.54.54,0,0,1-.8.2.443.443,0,0,1-.2-.7l2.8-4.7a.842.842,0,0,1,.7-.4,1.012,1.012,0,0,1,.7.4l2.6,4.7a.778.778,0,0,1-.2.8Z"/>
          <circle id="椭圆_99" data-name="椭圆 99" cx="0.8" cy="0.8" r="0.8" transform="translate(17.1 25.9)"/>
        </g>
        <circle id="椭圆_100" data-name="椭圆 100" cx="0.8" cy="0.8" r="0.8" transform="translate(17.1 2.3)"/>
        <g id="组_1812" data-name="组 1812">
          <path id="路径_3149" data-name="路径 3149" d="M20.7,36a.55.55,0,0,1-.5-.3L18,31.5l-2.5,4.2a.54.54,0,0,1-.8.2.443.443,0,0,1-.2-.7l2.8-4.7a.842.842,0,0,1,.7-.4,1.012,1.012,0,0,1,.7.4l2.6,4.7a.778.778,0,0,1-.2.8Z"/>
          <circle id="椭圆_101" data-name="椭圆 101" cx="0.8" cy="0.8" r="0.8" transform="translate(17.1 37.7)"/>
        </g>
        <path id="路径_3150" data-name="路径 3150" d="M20.7,47.8a.55.55,0,0,1-.5-.3L18,43.3l-2.5,4.2a.54.54,0,0,1-.8.2.443.443,0,0,1-.2-.7l2.8-4.7a.842.842,0,0,1,.7-.4,1.012,1.012,0,0,1,.7.4L21.3,47a.778.778,0,0,1-.2.8Z"/>
      </g>
      <g id="组_1818" data-name="组 1818">
        <g id="组_1814" data-name="组 1814">
          <path id="路径_3151" data-name="路径 3151" d="M33,7.6a.55.55,0,0,1-.5-.3L30.3,3.1,27.8,7.3a.54.54,0,0,1-.8.2.443.443,0,0,1-.2-.7l2.8-4.7a.842.842,0,0,1,.7-.4,1.012,1.012,0,0,1,.7.4l2.6,4.7a.778.778,0,0,1-.2.8Z"/>
          <circle id="椭圆_102" data-name="椭圆 102" cx="0.8" cy="0.8" r="0.8" transform="translate(29.3 9.3)"/>
        </g>
        <g id="组_1815" data-name="组 1815">
          <path id="路径_3152" data-name="路径 3152" d="M33,19.4a.55.55,0,0,1-.5-.3l-2.2-4.2-2.5,4.2a.54.54,0,0,1-.8.2.443.443,0,0,1-.2-.7l2.8-4.7a.842.842,0,0,1,.7-.4,1.012,1.012,0,0,1,.7.4l2.6,4.7a.778.778,0,0,1-.2.8Z"/>
          <circle id="椭圆_103" data-name="椭圆 103" cx="0.8" cy="0.8" r="0.8" transform="translate(29.3 21)"/>
        </g>
        <g id="组_1816" data-name="组 1816">
          <path id="路径_3153" data-name="路径 3153" d="M33,31.2a.55.55,0,0,1-.5-.3l-2.2-4.2-2.5,4.2a.54.54,0,0,1-.8.2.443.443,0,0,1-.2-.7l2.8-4.7a.842.842,0,0,1,.7-.4,1.012,1.012,0,0,1,.7.4l2.6,4.7a.778.778,0,0,1-.2.8Z"/>
          <circle id="椭圆_104" data-name="椭圆 104" cx="0.8" cy="0.8" r="0.8" transform="translate(29.3 32.8)"/>
        </g>
        <g id="组_1817" data-name="组 1817">
          <path id="路径_3154" data-name="路径 3154" d="M33,43a.55.55,0,0,1-.5-.3l-2.2-4.2-2.5,4.2a.54.54,0,0,1-.8.2.443.443,0,0,1-.2-.7l2.8-4.7a.842.842,0,0,1,.7-.4,1.012,1.012,0,0,1,.7.4l2.6,4.7a.778.778,0,0,1-.2.8Z"/>
          <circle id="椭圆_105" data-name="椭圆 105" cx="0.8" cy="0.8" r="0.8" transform="translate(29.3 44.6)"/>
        </g>
      </g>
      <g id="组_1822" data-name="组 1822">
        <g id="组_1819" data-name="组 1819">
          <path id="路径_3155" data-name="路径 3155" d="M45.3,12.4a.55.55,0,0,1-.5-.3L42.6,7.9l-2.5,4.2a.54.54,0,0,1-.8.2.443.443,0,0,1-.2-.7l2.8-4.7a.842.842,0,0,1,.7-.4,1.012,1.012,0,0,1,.7.4l2.6,4.7a.778.778,0,0,1-.2.8Z"/>
          <circle id="椭圆_106" data-name="椭圆 106" cx="0.8" cy="0.8" r="0.8" transform="translate(41.6 14.1)"/>
        </g>
        <g id="组_1820" data-name="组 1820">
          <path id="路径_3156" data-name="路径 3156" d="M45.3,24.2a.55.55,0,0,1-.5-.3l-2.2-4.2-2.5,4.2a.54.54,0,0,1-.8.2.443.443,0,0,1-.2-.7l2.8-4.7a.842.842,0,0,1,.7-.4,1.012,1.012,0,0,1,.7.4l2.6,4.7a.778.778,0,0,1-.2.8Z"/>
          <circle id="椭圆_107" data-name="椭圆 107" cx="0.8" cy="0.8" r="0.8" transform="translate(41.6 25.9)"/>
        </g>
        <circle id="椭圆_108" data-name="椭圆 108" cx="0.8" cy="0.8" r="0.8" transform="translate(41.6 2.3)"/>
        <g id="组_1821" data-name="组 1821">
          <path id="路径_3157" data-name="路径 3157" d="M45.3,36a.55.55,0,0,1-.5-.3l-2.2-4.2-2.5,4.2a.54.54,0,0,1-.8.2.443.443,0,0,1-.2-.7l2.8-4.7a.842.842,0,0,1,.7-.4,1.012,1.012,0,0,1,.7.4l2.6,4.7a.778.778,0,0,1-.2.8Z"/>
          <circle id="椭圆_109" data-name="椭圆 109" cx="0.8" cy="0.8" r="0.8" transform="translate(41.6 37.7)"/>
        </g>
        <path id="路径_3158" data-name="路径 3158" d="M45.3,47.8a.55.55,0,0,1-.5-.3l-2.2-4.2-2.5,4.2a.54.54,0,0,1-.8.2.443.443,0,0,1-.2-.7l2.8-4.7a.842.842,0,0,1,.7-.4,1.012,1.012,0,0,1,.7.4L45.9,47a.778.778,0,0,1-.2.8Z"/>
      </g>
    </g>
  </g>
</svg>
