<?xml version='1.0' encoding='utf-8'?>
<!DOCTYPE svg PUBLIC '-//W3C//DTD SVG 1.1//EN' 'http://www.w3.org/Graphics/SVG/1.1/DTD/svg11.dtd'>
<!-- Generator: Adobe Illustrator 16.0.0, SVG Export Plug-In . SVG Version: 6.00 Build 0)  -->
<svg version="1.1" xml:space="preserve" xmlns="http://www.w3.org/2000/svg" x="0px" width="48px" viewBox="0 0 48 48" enable-background="new 0 0 48 48" y="0px" xmlns:xlink="http://www.w3.org/1999/xlink" height="48px">
    <g id="绿泥石片岩">
        <path d="M0,8.262c0,0,4.472-5.303,10.327-0.495&#xa;&#x9;&#x9;c1.734,0.907,3.685,2.5,9.919-0.357c2.004-0.824,6.233-3.275,11.004-0.016c1.789,1.006,4.281,2.544,8.836-0.369&#xa;&#x9;&#x9;c1.354-0.604,5.096-3.902,8.129,1.43" fill="none" stroke-miterlimit="10" stroke="#000000"/>
        <path d="M0.108,19.84c0,0,4.472-5.303,10.327-0.494&#xa;&#x9;&#x9;c1.734,0.906,3.685,2.5,9.919-0.357c2.004-0.824,6.233-3.275,11.004-0.016c1.789,1.006,4.281,2.542,8.836-0.369&#xa;&#x9;&#x9;c1.354-0.604,5.096-3.902,8.129,1.43" fill="none" stroke-miterlimit="10" stroke="#000000"/>
        <path d="M0.108,41.505c0,0,4.472-5.303,10.327-0.494&#xa;&#x9;&#x9;c1.734,0.906,3.685,2.5,9.919-0.357c2.004-0.824,6.233-3.275,11.004-0.016c1.789,1.006,4.281,2.543,8.836-0.369&#xa;&#x9;&#x9;c1.354-0.604,5.096-3.901,8.129,1.43" fill="none" stroke-miterlimit="10" stroke="#000000"/>
        <path d="M0.001,30.986c0,0,4.472-5.303,10.327-0.494&#xa;&#x9;&#x9;c1.734,0.906,3.685,2.5,9.919-0.357c2.004-0.824,6.233-3.275,11.004-0.016c1.789,1.006,4.281,2.543,8.836-0.369&#xa;&#x9;&#x9;c1.354-0.604,5.096-3.901,8.129,1.43" fill="none" stroke-miterlimit="10" stroke="#000000"/>
        <path d="M10.76,3.688c0,0,0.726-3.212,4.274,0.096&#xa;&#x9;&#x9;c3.208,2.988,4.436-0.869,4.114-1.039" fill="none" stroke-miterlimit="10" stroke="#595758"/>
        <path d="M1.66,12.258c0,0,0.726-3.212,4.273,0.096&#xa;&#x9;&#x9;c3.209,2.988,4.436-0.869,4.115-1.039" fill="none" stroke-miterlimit="10" stroke="#595758"/>
        <path d="M23.419,12.893c0,0,0.727-3.212,4.274,0.096&#xa;&#x9;&#x9;c3.209,2.988,4.436-0.869,4.115-1.039" fill="none" stroke-miterlimit="10" stroke="#595758"/>
        <path d="M10.759,25.944c0,0,0.726-3.212,4.274,0.096&#xa;&#x9;&#x9;c3.209,2.988,4.436-0.869,4.115-1.039" fill="none" stroke-miterlimit="10" stroke="#595758"/>
        <path d="M38.373,24.631c0,0,0.726-3.212,4.273,0.096&#xa;&#x9;&#x9;c3.209,2.988,4.436-0.869,4.115-1.039" fill="none" stroke-miterlimit="10" stroke="#595758"/>
        <path d="M0.636,35.364c0,0,0.726-3.212,4.274,0.096&#xa;&#x9;&#x9;c3.209,2.988,4.436-0.869,4.115-1.039" fill="none" stroke-miterlimit="10" stroke="#595758"/>
        <path d="M22.469,34.479c0,0,0.726-3.212,4.273,0.096&#xa;&#x9;&#x9;c3.209,2.988,4.436-0.869,4.115-1.039" fill="none" stroke-miterlimit="10" stroke="#595758"/>
        <path d="M30.479,46.352c0,0,0.727-3.212,4.274,0.096&#xa;&#x9;&#x9;c3.209,2.988,4.436-0.869,4.115-1.039" fill="none" stroke-miterlimit="10" stroke="#595758"/>
    </g>
</svg>
