<?xml version='1.0' encoding='utf-8'?>
<!DOCTYPE svg PUBLIC '-//W3C//DTD SVG 1.1//EN' 'http://www.w3.org/Graphics/SVG/1.1/DTD/svg11.dtd'>
<!-- Generator: Adobe Illustrator 16.0.0, SVG Export Plug-In . SVG Version: 6.00 Build 0)  -->
<svg version="1.1" xml:space="preserve" xmlns="http://www.w3.org/2000/svg" x="0px" width="48px" viewBox="0 0 48 48" enable-background="new 0 0 48 48" y="0px" xmlns:xlink="http://www.w3.org/1999/xlink" height="48px">
    <g id="绿泥石千玫岩">
        <path d="M0,7.252c0,0,4.472-5.302,10.327-0.494&#xa;&#x9;&#x9;c1.734,0.906,3.685,2.5,9.919-0.357c2.004-0.824,6.233-3.275,11.004-0.016c1.789,1.006,4.281,2.543,8.836-0.369&#xa;&#x9;&#x9;c1.354-0.604,5.096-3.901,8.129,1.43" fill="none" stroke-miterlimit="10" stroke-dasharray="4,2" stroke="#000000"/>
        <path d="M0,32.132c0,0,4.472-5.302,10.327-0.494&#xa;&#x9;&#x9;c1.734,0.906,3.685,2.5,9.919-0.357c2.004-0.824,6.233-3.274,11.004-0.016c1.789,1.006,4.281,2.543,8.836-0.369&#xa;&#x9;&#x9;c1.354-0.604,5.096-3.9,8.129,1.43" fill="none" stroke-miterlimit="10" stroke-dasharray="4,2" stroke="#000000"/>
        <path d="M10.309,21.831c0,0,0.726-3.212,4.274,0.096&#xa;&#x9;&#x9;c3.208,2.988,4.436-0.869,4.114-1.039" fill="none" stroke-miterlimit="10" stroke="#595758"/>
        <path d="M24.309,16.09c0,0,0.726-3.212,4.274,0.096&#xa;&#x9;&#x9;c3.208,2.988,4.436-0.869,4.114-1.039" fill="none" stroke-miterlimit="10" stroke="#595758"/>
        <path d="M36.584,20.518c0,0,0.726-3.212,4.273,0.096&#xa;&#x9;&#x9;c3.208,2.988,4.436-0.869,4.114-1.039" fill="none" stroke-miterlimit="10" stroke="#595758"/>
        <path d="M0.699,15.25c0,0,0.726-3.212,4.274,0.096&#xa;&#x9;&#x9;c3.208,2.988,4.436-0.869,4.114-1.039" fill="none" stroke-miterlimit="10" stroke="#595758"/>
        <path d="M11.196,42.552c0,0,0.726-3.212,4.274,0.096&#xa;&#x9;&#x9;c3.208,2.988,4.436-0.869,4.114-1.039" fill="none" stroke-miterlimit="10" stroke="#595758"/>
        <path d="M25.195,36.811c0,0,0.727-3.212,4.274,0.096&#xa;&#x9;&#x9;c3.208,2.988,4.436-0.869,4.114-1.039" fill="none" stroke-miterlimit="10" stroke="#595758"/>
        <path d="M37.471,41.238c0,0,0.726-3.212,4.273,0.096&#xa;&#x9;&#x9;c3.208,2.988,4.436-0.869,4.114-1.039" fill="none" stroke-miterlimit="10" stroke="#595758"/>
        <path d="M1.585,35.971c0,0,0.726-3.212,4.274,0.096&#xa;&#x9;&#x9;c3.208,2.988,4.436-0.869,4.114-1.039" fill="none" stroke-miterlimit="10" stroke="#595758"/>
    </g>
</svg>
