<svg xmlns="http://www.w3.org/2000/svg" width="48" height="48" viewBox="0 0 48 48">
  <g id="老黄土" transform="translate(-9292 -56)">
    <path id="路径_3307" data-name="路径 3307" d="M0,0H48V48H0Z" transform="translate(9292 56)" fill="none"/>
    <g id="老黄土-2" data-name="老黄土" transform="translate(9291.621 56)">
      <path id="路径_3159" data-name="路径 3159" d="M18.3,45.9a.472.472,0,0,1-.5-.5v-3a.5.5,0,0,1,1,0v3A.472.472,0,0,1,18.3,45.9Zm0-8a.472.472,0,0,1-.5-.5v-3a.5.5,0,0,1,1,0v3A.472.472,0,0,1,18.3,37.9Zm0-8a.472.472,0,0,1-.5-.5v-3a.5.5,0,0,1,1,0v3A.472.472,0,0,1,18.3,29.9Zm0-8a.472.472,0,0,1-.5-.5v-3a.5.5,0,0,1,1,0v3A.472.472,0,0,1,18.3,21.9Zm0-8a.472.472,0,0,1-.5-.5v-3a.5.5,0,0,1,1,0v3A.472.472,0,0,1,18.3,13.9Zm0-8a.472.472,0,0,1-.5-.5v-3a.5.5,0,1,1,1,0v3A.472.472,0,0,1,18.3,5.9Z"/>
      <path id="路径_3160" data-name="路径 3160" d="M42.3,45.9a.472.472,0,0,1-.5-.5v-3a.5.5,0,1,1,1,0v3A.536.536,0,0,1,42.3,45.9Zm0-8a.472.472,0,0,1-.5-.5v-3a.5.5,0,1,1,1,0v3A.536.536,0,0,1,42.3,37.9Zm0-8a.472.472,0,0,1-.5-.5v-3a.5.5,0,0,1,1,0v3A.536.536,0,0,1,42.3,29.9Zm0-8a.472.472,0,0,1-.5-.5v-3a.5.5,0,0,1,1,0v3A.536.536,0,0,1,42.3,21.9Zm0-8a.472.472,0,0,1-.5-.5v-3a.5.5,0,0,1,1,0v3A.536.536,0,0,1,42.3,13.9Zm0-8a.472.472,0,0,1-.5-.5v-3a.5.5,0,1,1,1,0v3A.536.536,0,0,1,42.3,5.9Z"/>
      <path id="路径_3161" data-name="路径 3161" d="M6.4,46.1h0a.562.562,0,0,1-.5-.6V2.5a.56.56,0,0,1,.5-.6h0a.562.562,0,0,1,.5.6v43C6.8,45.8,6.6,46.1,6.4,46.1Z"/>
      <path id="路径_3162" data-name="路径 3162" d="M30.3,46.1h0a.562.562,0,0,1-.5-.6V2.5a.56.56,0,0,1,.5-.6h0a.562.562,0,0,1,.5.6v43C30.7,45.8,30.5,46.1,30.3,46.1Z"/>
    </g>
  </g>
</svg>
