<svg xmlns="http://www.w3.org/2000/svg" width="48" height="48" viewBox="0 0 48 48">
  <g id="耕填土" transform="translate(-9342 -56)">
    <path id="路径_3308" data-name="路径 3308" d="M0,0H48V48H0Z" transform="translate(9342 56)" fill="none"/>
    <g id="耕填土-2" data-name="耕填土" transform="translate(9341.65 54.9)">
      <g id="组_1823" data-name="组 1823">
        <path id="路径_3163" data-name="路径 3163" d="M6.3,14.159a.759.759,0,0,1-.447-1.373l2.681-1.95L3.889,4.551A.759.759,0,0,1,4.5,3.341h7.1a.759.759,0,0,1,.583,1.245L8.8,8.643l1.408,1.905a.759.759,0,0,1-.164,1.065l-3.3,2.4A.756.756,0,0,1,6.3,14.159Zm-.3-9.3L7.873,7.386,9.979,4.859Z"/>
        <path id="路径_3164" data-name="路径 3164" d="M22.6,14.159a.759.759,0,0,1-.438-1.38l2.766-1.953L20.289,4.551a.759.759,0,0,1,.611-1.21h7a.759.759,0,0,1,.583,1.245L25.155,8.58l1.455,1.969a.759.759,0,0,1-.173,1.071l-3.4,2.4A.756.756,0,0,1,22.6,14.159Zm-.2-9.3,1.821,2.464,2.053-2.464Z"/>
        <path id="路径_3165" data-name="路径 3165" d="M38.9,14.159a.759.759,0,0,1-.438-1.38l2.766-1.953L36.589,4.551a.759.759,0,0,1,.611-1.21h7a.759.759,0,0,1,.583,1.245L41.455,8.58l1.455,1.969a.759.759,0,0,1-.173,1.071l-3.4,2.4A.756.756,0,0,1,38.9,14.159Zm-.2-9.3,1.821,2.464,2.053-2.464Z"/>
      </g>
      <g id="组_1824" data-name="组 1824">
        <path id="路径_3166" data-name="路径 3166" d="M6.3,29.959a.759.759,0,0,1-.447-1.373l2.685-1.953L3.886,20.247A.759.759,0,0,1,4.5,19.041h7.1a.759.759,0,0,1,.589,1.238L8.812,24.429l1.4,1.924a.759.759,0,0,1-.167,1.061l-3.3,2.4A.756.756,0,0,1,6.3,29.959Zm-.308-9.4,1.894,2.6L10,20.559Z"/>
        <path id="路径_3167" data-name="路径 3167" d="M22.6,29.959a.759.759,0,0,1-.438-1.38l2.77-1.956-4.646-6.377a.759.759,0,0,1,.614-1.206h7a.759.759,0,0,1,.589,1.238l-3.325,4.084,1.449,1.989a.759.759,0,0,1-.176,1.067l-3.4,2.4A.756.756,0,0,1,22.6,29.959Zm-.208-9.4,1.847,2.535L26.3,20.559Z"/>
        <path id="路径_3168" data-name="路径 3168" d="M38.9,29.959a.759.759,0,0,1-.438-1.38l2.77-1.956-4.646-6.377a.759.759,0,0,1,.614-1.206h7a.759.759,0,0,1,.589,1.238l-3.325,4.084,1.449,1.989a.759.759,0,0,1-.176,1.067l-3.4,2.4A.756.756,0,0,1,38.9,29.959Zm-.208-9.4,1.847,2.535L42.6,20.559Z"/>
      </g>
      <g id="组_1825" data-name="组 1825">
        <path id="路径_3169" data-name="路径 3169" d="M6.3,45.759a.759.759,0,0,1-.447-1.373l2.685-1.953L3.886,36.047A.759.759,0,0,1,4.5,34.841h7.1a.759.759,0,0,1,.589,1.238L8.812,40.229l1.4,1.924a.759.759,0,0,1-.167,1.061l-3.3,2.4A.756.756,0,0,1,6.3,45.759Zm-.308-9.4,1.894,2.6L10,36.359Z"/>
        <path id="路径_3170" data-name="路径 3170" d="M22.6,45.759a.759.759,0,0,1-.438-1.38l2.77-1.956-4.646-6.377a.759.759,0,0,1,.614-1.206h7a.759.759,0,0,1,.589,1.238l-3.325,4.084,1.449,1.989a.759.759,0,0,1-.176,1.067l-3.4,2.4A.756.756,0,0,1,22.6,45.759Zm-.208-9.4,1.847,2.535L26.3,36.359Z"/>
        <path id="路径_3171" data-name="路径 3171" d="M38.9,45.759a.759.759,0,0,1-.438-1.38l2.77-1.956-4.646-6.377a.759.759,0,0,1,.614-1.206h7a.759.759,0,0,1,.589,1.238l-3.325,4.084,1.449,1.989a.759.759,0,0,1-.176,1.067l-3.4,2.4A.756.756,0,0,1,38.9,45.759Zm-.208-9.4,1.847,2.535L42.6,36.359Z"/>
      </g>
    </g>
  </g>
</svg>
