<?xml version='1.0' encoding='utf-8'?>
<!DOCTYPE svg PUBLIC '-//W3C//DTD SVG 1.1//EN' 'http://www.w3.org/Graphics/SVG/1.1/DTD/svg11.dtd'>
<!-- Generator: Adobe Illustrator 16.0.0, SVG Export Plug-In . SVG Version: 6.00 Build 0)  -->
<svg version="1.1" xml:space="preserve" xmlns="http://www.w3.org/2000/svg" x="0px" width="48px" viewBox="0 0 48 48" enable-background="new 0 0 48 48" y="0px" xmlns:xlink="http://www.w3.org/1999/xlink" height="48px">
    <g id="耕_xFF08_表_xFF09_土">
        <polyline stroke-width="0" fill="none" stroke-miterlimit="10" points="2.546,22.153 &#xa;&#x9;&#x9;7.83,21.697 13.113,22.195 18.372,21.959 23.623,21.215 28.914,21.308 34.275,22.002 36.938,22.153 39.534,21.764 42.078,21.096 &#xa;&#x9;&#x9;44.683,21.714 &#x9;" stroke="#212830" stroke-linecap="square"/>
        <rect x="2.837" fill="none" width="41.553" y="17.39" stroke-miterlimit="10" stroke="#000000" height="13.387"/>
        <polyline clip-rule="evenodd" fill-rule="evenodd" fill="#212830" points="7.513,24.672 8.739,21.646 6.786,21.646 &#x9;"/>
        <polyline clip-rule="evenodd" fill-rule="evenodd" fill="#212830" points="14.494,22.062 15.285,26.104 15.639,22.062 &#x9;"/>
        <polyline clip-rule="evenodd" fill-rule="evenodd" fill="#212830" points="38.358,22.062 39.366,23.493 38.926,25.972 &#xa;&#x9;&#x9;40.813,22.062 &#x9;"/>
        <polyline clip-rule="evenodd" fill-rule="evenodd" fill="#212830" points="29.963,21.443 34.026,21.97 31.866,24.084 30.687,27.25 &#xa;&#x9;&#x9;30.415,22.941 &#x9;"/>
        <polyline clip-rule="evenodd" fill-rule="evenodd" fill="#212830" points="20.699,21.569 24.738,21.522 23.545,22.494 &#xa;&#x9;&#x9;23.725,24.515 22.718,27.171 22.262,24.346 &#x9;"/>
    </g>
</svg>
