<?xml version='1.0' encoding='utf-8'?>
<!DOCTYPE svg PUBLIC '-//W3C//DTD SVG 1.1//EN' 'http://www.w3.org/Graphics/SVG/1.1/DTD/svg11.dtd'>
<!-- Generator: Adobe Illustrator 16.0.0, SVG Export Plug-In . SVG Version: 6.00 Build 0)  -->
<svg version="1.1" xml:space="preserve" xmlns="http://www.w3.org/2000/svg" x="0px" width="48px" viewBox="0 0 48 48" enable-background="new 0 0 48 48" y="0px" xmlns:xlink="http://www.w3.org/1999/xlink" height="48px">
    <g id="花岗片麻岩">
        <path d="M0.107,29.998c0,0,4.472-5.303,10.327-0.494&#xa;&#x9;&#x9;c1.734,0.906,3.685,2.5,9.919-0.357c2.004-0.824,6.233-3.275,11.004-0.016c1.789,1.006,4.281,2.543,8.836-0.369&#xa;&#x9;&#x9;c1.354-0.604,5.096-3.901,8.129,1.43" fill="none" stroke-miterlimit="10" stroke="#000000"/>
        <path d="M0.107,27.426c0,0,4.472-5.302,10.327-0.494&#xa;&#x9;&#x9;c1.734,0.906,3.685,2.5,9.919-0.357c2.004-0.824,6.233-3.275,11.004-0.016c1.789,1.006,4.281,2.543,8.836-0.369&#xa;&#x9;&#x9;c1.354-0.604,5.096-3.901,8.129,1.43" fill="none" stroke-miterlimit="10" stroke-dasharray="8,5" stroke="#000000"/>
        <path d="M0.107,14.002c0,0,4.472-5.303,10.327-0.494&#xa;&#x9;&#x9;c1.734,0.906,3.685,2.5,9.919-0.357c2.004-0.824,6.233-3.275,11.004-0.016c1.789,1.006,4.281,2.543,8.836-0.369&#xa;&#x9;&#x9;c1.354-0.604,5.096-3.901,8.129,1.43" fill="none" stroke-miterlimit="10" stroke="#000000"/>
        <path d="M0.107,11.43c0,0,4.472-5.302,10.327-0.494&#xa;&#x9;&#x9;c1.734,0.906,3.685,2.5,9.919-0.357c2.004-0.824,6.233-3.275,11.004-0.016c1.789,1.006,4.281,2.543,8.836-0.369&#xa;&#x9;&#x9;c1.354-0.604,5.096-3.901,8.129,1.43" fill="none" stroke-miterlimit="10" stroke-dasharray="8,5" stroke="#000000"/>
        <path d="M0,44.072c0,0,4.472-5.303,10.327-0.494&#xa;&#x9;&#x9;c1.734,0.906,3.685,2.5,9.919-0.357c2.004-0.824,6.233-3.275,11.004-0.016c1.789,1.006,4.281,2.543,8.836-0.369&#xa;&#x9;&#x9;c1.354-0.604,5.096-3.901,8.129,1.43" fill="none" stroke-miterlimit="10" stroke="#000000"/>
        <path d="M0,41.5c0,0,4.472-5.303,10.327-0.494&#xa;&#x9;&#x9;c1.734,0.906,3.685,2.5,9.919-0.357c2.004-0.824,6.233-3.275,11.004-0.016c1.789,1.006,4.281,2.543,8.836-0.369&#xa;&#x9;&#x9;c1.354-0.604,5.096-3.9,8.129,1.43" fill="none" stroke-miterlimit="10" stroke-dasharray="8,5" stroke="#000000"/>
        <line y1="3.458" fill="none" stroke-miterlimit="10" stroke-dasharray="8,5" x2="10.001" y2="3.542" stroke="#000000" x1="2.834"/>
        <line y1="0.458" fill="none" stroke-miterlimit="10" stroke-dasharray="8,5" x2="6.417" y2="6.542" stroke="#000000" x1="6.417"/>
        <line y1="6.5" fill="none" stroke-miterlimit="10" stroke-dasharray="8,5" x2="33.167" y2="6.583" stroke="#000000" x1="26.001"/>
        <line y1="3.5" fill="none" stroke-miterlimit="10" stroke-dasharray="8,5" x2="29.584" y2="9.583" stroke="#000000" x1="29.584"/>
        <line y1="22.042" fill="none" stroke-miterlimit="10" stroke-dasharray="8,5" x2="24" y2="22.125" stroke="#000000" x1="16.833"/>
        <line y1="19.042" fill="none" stroke-miterlimit="10" stroke-dasharray="8,5" x2="20.417" y2="25.125" stroke="#000000" x1="20.417"/>
        <line y1="16.877" fill="none" stroke-miterlimit="10" stroke-dasharray="8,5" x2="44.917" y2="16.959" stroke="#000000" x1="37.751"/>
        <line y1="13.876" fill="none" stroke-miterlimit="10" stroke-dasharray="8,5" x2="41.334" y2="19.959" stroke="#000000" x1="41.334"/>
        <line y1="31.293" fill="none" stroke-miterlimit="10" stroke-dasharray="8,5" x2="9.143" y2="31.375" stroke="#000000" x1="1.977"/>
        <line y1="28.293" fill="none" stroke-miterlimit="10" stroke-dasharray="8,5" x2="5.56" y2="34.375" stroke="#000000" x1="5.56"/>
        <line y1="36.209" fill="none" stroke-miterlimit="10" stroke-dasharray="8,5" x2="33.167" y2="36.291" stroke="#000000" x1="26.001"/>
        <line y1="33.209" fill="none" stroke-miterlimit="10" stroke-dasharray="8,5" x2="29.584" y2="39.291" stroke="#000000" x1="29.584"/>
    </g>
</svg>
