<?xml version='1.0' encoding='utf-8'?>
<!DOCTYPE svg PUBLIC '-//W3C//DTD SVG 1.1//EN' 'http://www.w3.org/Graphics/SVG/1.1/DTD/svg11.dtd'>
<!-- Generator: Adobe Illustrator 16.0.0, SVG Export Plug-In . SVG Version: 6.00 Build 0)  -->
<svg version="1.1" xml:space="preserve" xmlns="http://www.w3.org/2000/svg" x="0px" width="48px" viewBox="0 0 48 48" enable-background="new 0 0 48 48" y="0px" xmlns:xlink="http://www.w3.org/1999/xlink" height="48px">
    <g id="苏长岩">
        <path d="M2.729,26.134c0,0,0.726-3.212,4.274,0.094&#xa;&#x9;&#x9;c3.207,2.99,4.436-0.868,4.113-1.038" fill="none" stroke-miterlimit="10" stroke="#595758"/>
        <path d="M9.694,42.869c0,0,0.726-3.213,4.274,0.094&#xa;&#x9;&#x9;c3.207,2.99,4.436-0.867,4.113-1.037" fill="none" stroke-miterlimit="10" stroke="#595758"/>
        <line y1="5.402" fill="none" stroke-miterlimit="10" x2="15.854" y2="14.777" stroke="#595758" x1="6.479"/>
        <line y1="5.402" fill="none" stroke-miterlimit="10" x2="6.479" y2="14.777" stroke="#595758" x1="15.854"/>
        <line y1="33.408" fill="none" stroke-miterlimit="10" x2="41.604" y2="42.782" stroke="#595758" x1="32.229"/>
        <line y1="33.408" fill="none" stroke-miterlimit="10" x2="32.229" y2="42.782" stroke="#595758" x1="41.604"/>
        <line y1="17.985" fill="none" stroke-miterlimit="10" x2="28.688" y2="27.359" stroke="#595758" x1="19.313"/>
        <line y1="17.985" fill="none" stroke-miterlimit="10" x2="19.313" y2="27.359" stroke="#595758" x1="28.688"/>
        <path d="M28.479,6.802c0,0,0.726-3.213,4.274,0.094&#xa;&#x9;&#x9;c3.207,2.99,4.436-0.867,4.113-1.037" fill="none" stroke-miterlimit="10" stroke="#595758"/>
        <path d="M36.113,22.012c0,0,0.726-3.213,4.274,0.094&#xa;&#x9;&#x9;c3.207,2.99,4.436-0.867,4.113-1.037" fill="none" stroke-miterlimit="10" stroke="#595758"/>
    </g>
</svg>
