<?xml version='1.0' encoding='utf-8'?>
<!DOCTYPE svg PUBLIC '-//W3C//DTD SVG 1.1//EN' 'http://www.w3.org/Graphics/SVG/1.1/DTD/svg11.dtd'>
<!-- Generator: Adobe Illustrator 16.0.0, SVG Export Plug-In . SVG Version: 6.00 Build 0)  -->
<svg version="1.1" xml:space="preserve" xmlns="http://www.w3.org/2000/svg" x="0px" width="48px" viewBox="0 0 48 48" enable-background="new 0 0 48 48" y="0px" xmlns:xlink="http://www.w3.org/1999/xlink" height="48px">
    <g id="菱镁岩">
        <line y1="8.499" fill="none" stroke-miterlimit="10" x2="48" y2="8.499" stroke="#000000" x1="0"/>
        <line y1="11.083" fill="none" stroke-miterlimit="10" x2="48" y2="11.083" stroke="#000000" x1="0"/>
        <line y1="25.166" fill="none" stroke-miterlimit="10" x2="48" y2="25.166" stroke="#000000" x1="0"/>
        <line y1="27.916" fill="none" stroke-miterlimit="10" x2="48" y2="27.916" stroke="#000000" x1="0"/>
        <line y1="43.166" fill="none" stroke-miterlimit="10" x2="48" y2="43.166" stroke="#000000" x1="0"/>
        <line y1="45.083" fill="none" stroke-miterlimit="10" x2="48" y2="45.083" stroke="#000000" x1="0"/>
        <line y1="0" fill="none" stroke-miterlimit="10" x2="0.5" y2="7.999" stroke="#000000" x1="7"/>
        <line y1="0" fill="none" stroke-miterlimit="10" x2="3.75" y2="7.999" stroke="#000000" x1="10.334"/>
        <line y1="0" fill="none" stroke-miterlimit="10" x2="26.334" y2="7.999" stroke="#000000" x1="31.001"/>
        <line y1="0" fill="none" stroke-miterlimit="10" x2="29.584" y2="7.999" stroke="#000000" x1="34.5"/>
        <line y1="11.083" fill="none" stroke-miterlimit="10" x2="8" y2="24.666" stroke="#000000" x1="14.417"/>
        <line y1="11.083" fill="none" stroke-miterlimit="10" x2="11.75" y2="25.166" stroke="#000000" x1="18.417"/>
        <line y1="11.083" fill="none" stroke-miterlimit="10" x2="34.5" y2="24.666" stroke="#000000" x1="42.417"/>
        <line y1="11.083" fill="none" stroke-miterlimit="10" x2="37.834" y2="24.666" stroke="#000000" x1="45.834"/>
        <line y1="27.916" fill="none" stroke-miterlimit="10" x2="12.5" y2="42.832" stroke="#000000" x1="19.75"/>
        <line y1="27.916" fill="none" stroke-miterlimit="10" x2="15.667" y2="42.832" stroke="#000000" x1="23.584"/>
        <line y1="28.417" fill="none" stroke-miterlimit="10" x2="39.251" y2="42.832" stroke="#000000" x1="46.334"/>
        <line y1="31.996" fill="none" stroke-miterlimit="10" x2="42.793" y2="42.832" stroke="#000000" x1="48"/>
        <line y1="45.555" fill="none" stroke-miterlimit="10" x2="24.649" y2="47.972" stroke="#000000" x1="26.732"/>
        <line y1="45.544" fill="none" stroke-miterlimit="10" x2="27.498" y2="47.961" stroke="#000000" x1="29.914"/>
        <line y1="45.305" fill="none" stroke-miterlimit="10" x2="0.288" y2="48.222" stroke="#000000" x1="2.538"/>
        <line y1="45.183" fill="none" stroke-miterlimit="10" x2="2.796" y2="48.1" stroke="#000000" x1="4.88"/>
    </g>
</svg>
