<?xml version='1.0' encoding='utf-8'?>
<!DOCTYPE svg PUBLIC '-//W3C//DTD SVG 1.1//EN' 'http://www.w3.org/Graphics/SVG/1.1/DTD/svg11.dtd'>
<!-- Generator: Adobe Illustrator 16.0.0, SVG Export Plug-In . SVG Version: 6.00 Build 0)  -->
<svg version="1.1" xml:space="preserve" xmlns="http://www.w3.org/2000/svg" x="0px" width="48px" viewBox="0 0 48 48" enable-background="new 0 0 48 48" y="0px" xmlns:xlink="http://www.w3.org/1999/xlink" height="48px">
    <g id="虎皮状灰岩">
        <line y1="10.417" fill="none" stroke-miterlimit="10" x2="48" y2="10.417" stroke="#000000" x1="0"/>
        <line y1="22.423" fill="none" stroke-miterlimit="10" x2="48" y2="22.423" stroke="#000000" x1="0"/>
        <line y1="34" fill="none" stroke-miterlimit="10" x2="48" y2="34" stroke="#000000" x1="0"/>
        <line y1="45.166" fill="none" stroke-miterlimit="10" x2="48" y2="45.166" stroke="#000000" x1="0"/>
        <line y1="0" fill="none" stroke-miterlimit="10" x2="8.25" y2="10.417" stroke="#000000" x1="8.25"/>
        <line y1="10.417" fill="none" stroke-miterlimit="10" x2="18.75" y2="22.423" stroke="#000000" x1="18.75"/>
        <line y1="34" fill="none" stroke-miterlimit="10" x2="18.75" y2="45.166" stroke="#000000" x1="18.75"/>
        <line y1="45.166" fill="none" stroke-miterlimit="10" x2="32" y2="48" stroke="#000000" x1="32"/>
        <line y1="0" fill="none" stroke-miterlimit="10" x2="32.084" y2="10.417" stroke="#000000" x1="32.084"/>
        <line y1="10.417" fill="none" stroke-miterlimit="10" x2="40.667" y2="22.423" stroke="#000000" x1="40.667"/>
        <line y1="22.833" fill="none" stroke-miterlimit="10" x2="8.25" y2="33.651" stroke="#000000" x1="8.25"/>
        <line y1="22.833" fill="none" stroke-miterlimit="10" x2="32.084" y2="34" stroke="#000000" x1="32.084"/>
        <line y1="33.651" fill="none" stroke-miterlimit="10" x2="40.667" y2="44.817" stroke="#000000" x1="40.667"/>
        <path d="M27.674,13.085c0,0,6.994-4.328,8.568,3.016&#xa;&#x9;&#x9;c0.799,3.729-4.197,6.513-7.65,3.891" fill="none" stroke-miterlimit="10" stroke="#000000"/>
        <path d="M14.423,24.907c0,0,6.994-4.328,8.568,3.017&#xa;&#x9;&#x9;c0.799,3.729-4.197,6.512-7.65,3.891" fill="none" stroke-miterlimit="10" stroke="#000000"/>
        <path d="M36.34,24.907c0,0,6.994-4.328,8.568,3.017&#xa;&#x9;&#x9;c0.799,3.729-4.197,6.512-7.65,3.891" fill="none" stroke-miterlimit="10" stroke="#000000"/>
        <path d="M14.423,1.267c0,0,6.994-4.328,8.568,3.017&#xa;&#x9;&#x9;c0.799,3.729-4.197,6.512-7.65,3.891" fill="none" stroke-miterlimit="10" stroke="#000000"/>
        <path d="M3.923,36.248c0,0,6.995-4.328,8.569,3.017&#xa;&#x9;&#x9;c0.799,3.729-4.197,6.512-7.651,3.891" fill="none" stroke-miterlimit="10" stroke="#000000"/>
        <path d="M27.758,36.248c0,0,6.994-4.328,8.568,3.017&#xa;&#x9;&#x9;c0.799,3.729-4.197,6.512-7.65,3.891" fill="none" stroke-miterlimit="10" stroke="#000000"/>
        <path d="M3.531,13.085c0,0,6.994-4.328,8.568,3.017&#xa;&#x9;&#x9;c0.799,3.729-4.197,6.512-7.65,3.891" fill="none" stroke-miterlimit="10" stroke="#000000"/>
        <path d="M36.968,2.357c0,0,5.98-3.701,7.326,2.579&#xa;&#x9;&#x9;c0.684,3.188-3.589,5.568-6.541,3.327" fill="none" stroke-miterlimit="10" stroke="#000000"/>
        <line y1="45.583" fill="none" stroke-miterlimit="10" x2="7.857" y2="48" stroke="#000000" x1="7.857"/>
    </g>
</svg>
