<?xml version='1.0' encoding='utf-8'?>
<!DOCTYPE svg PUBLIC '-//W3C//DTD SVG 1.1//EN' 'http://www.w3.org/Graphics/SVG/1.1/DTD/svg11.dtd'>
<!-- Generator: Adobe Illustrator 16.0.0, SVG Export Plug-In . SVG Version: 6.00 Build 0)  -->
<svg version="1.1" xml:space="preserve" xmlns="http://www.w3.org/2000/svg" x="0px" width="48px" viewBox="0 0 48 48" enable-background="new 0 0 48 48" y="0px" xmlns:xlink="http://www.w3.org/1999/xlink" height="48px">
    <g id="蛇纹岩">
        <path d="M21.629,6.5c0,0,4.615,8.499,11.076,0" fill="none" stroke-miterlimit="10" stroke="#000000"/>
        <line y1="4.333" fill="none" stroke-miterlimit="10" x2="27.167" y2="10.269" stroke="#000000" x1="27.167"/>
        <path d="M2.712,6.917c0,0,4.615,8.499,11.075,0" fill="none" stroke-miterlimit="10" stroke="#000000"/>
        <line y1="4.75" fill="none" stroke-miterlimit="10" x2="8.25" y2="10.686" stroke="#000000" x1="8.25"/>
        <path d="M21.629,37.333c0,0,4.615,8.499,11.076,0" fill="none" stroke-miterlimit="10" stroke="#000000"/>
        <line y1="35.166" fill="none" stroke-miterlimit="10" x2="27.167" y2="41.102" stroke="#000000" x1="27.167"/>
        <path d="M2.712,37.75c0,0,4.615,8.499,11.075,0" fill="none" stroke-miterlimit="10" stroke="#000000"/>
        <line y1="35.583" fill="none" stroke-miterlimit="10" x2="8.25" y2="41.519" stroke="#000000" x1="8.25"/>
        <path d="M33.629,21.194c0,0,4.615,8.499,11.076,0" fill="none" stroke-miterlimit="10" stroke="#000000"/>
        <line y1="19.027" fill="none" stroke-miterlimit="10" x2="39.167" y2="24.963" stroke="#000000" x1="39.167"/>
        <path d="M14.712,21.611c0,0,4.615,8.499,11.075,0" fill="none" stroke-miterlimit="10" stroke="#000000"/>
        <line y1="19.444" fill="none" stroke-miterlimit="10" x2="20.25" y2="25.38" stroke="#000000" x1="20.25"/>
    </g>
</svg>
