<?xml version='1.0' encoding='utf-8'?>
<!DOCTYPE svg PUBLIC '-//W3C//DTD SVG 1.1//EN' 'http://www.w3.org/Graphics/SVG/1.1/DTD/svg11.dtd'>
<!-- Generator: Adobe Illustrator 16.0.0, SVG Export Plug-In . SVG Version: 6.00 Build 0)  -->
<svg version="1.1" xml:space="preserve" xmlns="http://www.w3.org/2000/svg" x="0px" width="48px" viewBox="0 0 48 48" enable-background="new 0 0 48 48" y="0px" xmlns:xlink="http://www.w3.org/1999/xlink" height="48px">
    <g id="蛇纹石片岩">
        <path d="M0,6.684c0,0,4.472-5.303,10.327-0.495&#xa;&#x9;&#x9;c1.734,0.907,3.685,2.5,9.919-0.357c2.004-0.824,6.233-3.275,11.004-0.016c1.789,1.006,4.281,2.544,8.836-0.369&#xa;&#x9;&#x9;c1.354-0.604,5.096-3.902,8.129,1.43" fill="none" stroke-miterlimit="10" stroke="#000000"/>
        <path d="M0.108,18.262c0,0,4.472-5.303,10.327-0.494&#xa;&#x9;&#x9;c1.734,0.906,3.685,2.5,9.919-0.357c2.004-0.824,6.233-3.275,11.004-0.016c1.789,1.006,4.281,2.542,8.836-0.369&#xa;&#x9;&#x9;c1.354-0.604,5.096-3.902,8.129,1.43" fill="none" stroke-miterlimit="10" stroke="#000000"/>
        <path d="M0.108,39.927c0,0,4.472-5.303,10.327-0.494&#xa;&#x9;&#x9;c1.734,0.906,3.685,2.5,9.919-0.357c2.004-0.824,6.233-3.275,11.004-0.016c1.789,1.006,4.281,2.543,8.836-0.369&#xa;&#x9;&#x9;c1.354-0.604,5.096-3.901,8.129,1.43" fill="none" stroke-miterlimit="10" stroke="#000000"/>
        <path d="M0.001,29.408c0,0,4.472-5.303,10.327-0.494&#xa;&#x9;&#x9;c1.734,0.906,3.685,2.5,9.919-0.357c2.004-0.824,6.233-3.275,11.004-0.016c1.789,1.006,4.281,2.543,8.836-0.369&#xa;&#x9;&#x9;c1.354-0.604,5.096-3.901,8.129,1.43" fill="none" stroke-miterlimit="10" stroke="#000000"/>
        <path d="M1.26,9.542c0,0,4.437,8.171,10.648,0" fill="none" stroke-miterlimit="10" stroke="#000000"/>
        <line y1="7.458" fill="none" stroke-miterlimit="10" x2="6.584" y2="13.165" stroke="#000000" x1="6.584"/>
        <path d="M24,9.875c0,0,4.438,8.172,10.648,0" fill="none" stroke-miterlimit="10" stroke="#000000"/>
        <line y1="7.792" fill="none" stroke-miterlimit="10" x2="29.324" y2="13.498" stroke="#000000" x1="29.324"/>
        <path d="M11.01,22.909c0,0,4.437,8.172,10.648,0" fill="none" stroke-miterlimit="10" stroke="#000000"/>
        <line y1="20.826" fill="none" stroke-miterlimit="10" x2="16.334" y2="26.532" stroke="#000000" x1="16.334"/>
        <path d="M36.927,21.458c0,0,4.437,8.171,10.648,0" fill="none" stroke-miterlimit="10" stroke="#000000"/>
        <line y1="19.375" fill="none" stroke-miterlimit="10" x2="42.251" y2="25.08" stroke="#000000" x1="42.251"/>
        <path d="M0.108,32.247c0,0,4.437,8.172,10.648,0" fill="none" stroke-miterlimit="10" stroke="#000000"/>
        <line y1="30.164" fill="none" stroke-miterlimit="10" x2="5.433" y2="35.87" stroke="#000000" x1="5.433"/>
        <path d="M24,32.791c0,0,4.438,8.172,10.648,0" fill="none" stroke-miterlimit="10" stroke="#000000"/>
        <line y1="30.708" fill="none" stroke-miterlimit="10" x2="29.324" y2="36.414" stroke="#000000" x1="29.324"/>
        <path d="M9.611,43.791c0,0,4.437,8.172,10.648,0" fill="none" stroke-miterlimit="10" stroke="#000000"/>
        <line y1="41.708" fill="none" stroke-miterlimit="10" x2="14.936" y2="47.414" stroke="#000000" x1="14.936"/>
        <path d="M36.927,43.787c0,0,4.437,8.172,10.648,0" fill="none" stroke-miterlimit="10" stroke="#000000"/>
        <line y1="41.704" fill="none" stroke-miterlimit="10" x2="42.251" y2="47.41" stroke="#000000" x1="42.251"/>
    </g>
</svg>
