<?xml version='1.0' encoding='utf-8'?>
<!DOCTYPE svg PUBLIC '-//W3C//DTD SVG 1.1//EN' 'http://www.w3.org/Graphics/SVG/1.1/DTD/svg11.dtd'>
<!-- Generator: Adobe Illustrator 16.0.0, SVG Export Plug-In . SVG Version: 6.00 Build 0)  -->
<svg version="1.1" xml:space="preserve" xmlns="http://www.w3.org/2000/svg" x="0px" width="48px" viewBox="0 0 48 48" enable-background="new 0 0 48 48" y="0px" xmlns:xlink="http://www.w3.org/1999/xlink" height="48px">
    <g id="蛋白岩">
        <g id="蛋白岩_1_">
            <line y1="3.896" fill="none" stroke-miterlimit="10" x2="48" y2="3.896" stroke="#7D4E22" x1="0"/>
            <line y1="43.313" fill="none" stroke-miterlimit="10" x2="48" y2="43.313" stroke="#7D4E22" x1="0"/>
            <line y1="16.562" fill="none" stroke-miterlimit="10" x2="48" y2="16.562" stroke="#7D4E22" x1="0"/>
            <line y1="31.396" fill="none" stroke-miterlimit="10" x2="48" y2="31.396" stroke="#7D4E22" x1="0"/>
            <line y1="0" fill="none" stroke-miterlimit="10" x2="3.678" y2="3.823" stroke="#7D4E22" x1="7.5"/>
            <line y1="0" fill="none" stroke-miterlimit="10" x2="7.135" y2="3.532" stroke="#7D4E22" x1="10.667"/>
            <line y1="0" fill="none" stroke-miterlimit="10" x2="21.234" y2="3.516" stroke="#7D4E22" x1="24.75"/>
            <line y1="0" fill="none" stroke-miterlimit="10" x2="24.881" y2="3.62" stroke="#7D4E22" x1="28.5"/>
            <line y1="3.896" fill="none" stroke-miterlimit="10" x2="20.084" y2="16.396" stroke="#7D4E22" x1="32.584"/>
            <line y1="3.896" fill="none" stroke-miterlimit="10" x2="23.209" y2="16.355" stroke="#7D4E22" x1="35.667"/>
            <line y1="16.896" fill="none" stroke-miterlimit="10" x2="0.198" y2="24.198" stroke="#7D4E22" x1="7.5"/>
            <line y1="16.896" fill="none" stroke-miterlimit="10" x2="0.167" y2="28.979" stroke="#7D4E22" x1="12.25"/>
            <line y1="16.896" fill="none" stroke-miterlimit="10" x2="22.209" y2="31.021" stroke="#7D4E22" x1="36.334"/>
            <line y1="16.896" fill="none" stroke-miterlimit="10" x2="26.311" y2="31.27" stroke="#7D4E22" x1="40.684"/>
            <line y1="31.396" fill="none" stroke-miterlimit="10" x2="0.875" y2="43.021" stroke="#7D4E22" x1="12.5"/>
            <line y1="31.396" fill="none" stroke-miterlimit="10" x2="4.375" y2="43.438" stroke="#7D4E22" x1="16.417"/>
            <line y1="31.813" fill="none" stroke-miterlimit="10" x2="29.501" y2="43.396" stroke="#7D4E22" x1="41.084"/>
            <line y1="31.813" fill="none" stroke-miterlimit="10" x2="33.834" y2="42.896" stroke="#7D4E22" x1="44.917"/>
            <line y1="43.438" fill="none" stroke-miterlimit="10" x2="11.511" y2="47.761" stroke="#7D4E22" x1="15.833"/>
            <line y1="43.438" fill="none" stroke-miterlimit="10" x2="14.969" y2="47.802" stroke="#7D4E22" x1="19.333"/>
            <line y1="43.438" fill="none" stroke-miterlimit="10" x2="35.053" y2="47.76" stroke="#7D4E22" x1="39.375"/>
            <line y1="43.811" fill="none" stroke-miterlimit="10" x2="39.26" y2="47.885" stroke="#7D4E22" x1="43.334"/>
        </g>
    </g>
</svg>
