<?xml version='1.0' encoding='utf-8'?>
<!DOCTYPE svg PUBLIC '-//W3C//DTD SVG 1.1//EN' 'http://www.w3.org/Graphics/SVG/1.1/DTD/svg11.dtd'>
<!-- Generator: Adobe Illustrator 16.0.0, SVG Export Plug-In . SVG Version: 6.00 Build 0)  -->
<svg version="1.1" xml:space="preserve" xmlns="http://www.w3.org/2000/svg" x="0px" width="48px" viewBox="0 0 48 48" enable-background="new 0 0 48 48" y="0px" xmlns:xlink="http://www.w3.org/1999/xlink" height="48px">
    <g id="角山石片岩">
        <path d="M0,8.262c0,0,4.472-5.303,10.327-0.495&#xa;&#x9;&#x9;c1.734,0.907,3.685,2.5,9.919-0.357c2.004-0.824,6.233-3.275,11.004-0.016c1.789,1.006,4.281,2.544,8.836-0.369&#xa;&#x9;&#x9;c1.354-0.604,5.096-3.902,8.129,1.43" fill="none" stroke-miterlimit="10" stroke="#000000"/>
        <path d="M0.108,19.84c0,0,4.472-5.303,10.327-0.494&#xa;&#x9;&#x9;c1.734,0.906,3.685,2.5,9.919-0.357c2.004-0.824,6.233-3.275,11.004-0.016c1.789,1.006,4.281,2.542,8.836-0.369&#xa;&#x9;&#x9;c1.354-0.604,5.096-3.902,8.129,1.43" fill="none" stroke-miterlimit="10" stroke="#000000"/>
        <path d="M0.108,41.505c0,0,4.472-5.303,10.327-0.494&#xa;&#x9;&#x9;c1.734,0.906,3.685,2.5,9.919-0.357c2.004-0.824,6.233-3.275,11.004-0.016c1.789,1.006,4.281,2.543,8.836-0.369&#xa;&#x9;&#x9;c1.354-0.604,5.096-3.901,8.129,1.43" fill="none" stroke-miterlimit="10" stroke="#000000"/>
        <path d="M0.001,30.986c0,0,4.472-5.303,10.327-0.494&#xa;&#x9;&#x9;c1.734,0.906,3.685,2.5,9.919-0.357c2.004-0.824,6.233-3.275,11.004-0.016c1.789,1.006,4.281,2.543,8.836-0.369&#xa;&#x9;&#x9;c1.354-0.604,5.096-3.901,8.129,1.43" fill="none" stroke-miterlimit="10" stroke="#000000"/>
        <polyline stroke-width="0.75" fill="none" stroke-miterlimit="10" points="5.362,9.036 0.993,10.97 5.649,12.792 &#xa;&#x9;&#x9;&#x9;" stroke="#000000"/>
        <polyline stroke-width="0.75" fill="none" stroke-miterlimit="10" points="16.633,24 12.264,25.934 &#xa;&#x9;&#x9;16.919,27.756 &#x9;" stroke="#000000"/>
        <polyline stroke-width="0.75" fill="none" stroke-miterlimit="10" points="27.549,9.408 23.18,11.341 &#xa;&#x9;&#x9;27.836,13.164 &#x9;" stroke="#000000"/>
        <polyline stroke-width="0.75" fill="none" stroke-miterlimit="10" points="7.099,32.796 2.73,34.729 &#xa;&#x9;&#x9;7.386,36.554 &#x9;" stroke="#000000"/>
        <polyline stroke-width="0.75" fill="none" stroke-miterlimit="10" points="43.832,22.121 39.463,24.056 &#xa;&#x9;&#x9;44.119,25.878 &#x9;" stroke="#000000"/>
        <polyline stroke-width="0.75" fill="none" stroke-miterlimit="10" points="29.04,32.797 24.671,34.73 &#xa;&#x9;&#x9;29.327,36.553 &#x9;" stroke="#000000"/>
    </g>
</svg>
