<?xml version='1.0' encoding='utf-8'?>
<!DOCTYPE svg PUBLIC '-//W3C//DTD SVG 1.1//EN' 'http://www.w3.org/Graphics/SVG/1.1/DTD/svg11.dtd'>
<!-- Generator: Adobe Illustrator 16.0.0, SVG Export Plug-In . SVG Version: 6.00 Build 0)  -->
<svg version="1.1" xml:space="preserve" xmlns="http://www.w3.org/2000/svg" x="0px" width="48px" viewBox="0 0 48 48" enable-background="new 0 0 48 48" y="0px" xmlns:xlink="http://www.w3.org/1999/xlink" height="48px">
    <g id="角砾岩">
        <g id="角砾岩_1_">
            <line y1="12.611" fill="none" stroke-miterlimit="10" x2="48" y2="12.611" stroke="#AE8047" x1="0"/>
            <line y1="29.027" fill="none" stroke-miterlimit="10" x2="48" y2="29.027" stroke="#AE8047" x1="0"/>
            <line y1="45.111" fill="none" stroke-miterlimit="10" x2="48" y2="45.111" stroke="#AE8047" x1="0"/>
            <polygon fill="none" stroke-miterlimit="10" points="4.417,9.528 8.833,2.195 13.25,9.528 &#x9;&#x9;" stroke="#AE8047"/>
            <polyline fill="none" stroke-miterlimit="10" points="33.162,2.195 37.579,9.527 28.746,9.527 33.162,2.195 &#x9;&#x9;&#xa;&#x9;&#x9;&#x9;" stroke="#AE8047"/>
            <polyline fill="none" stroke-miterlimit="10" points="24.33,17.676 28.746,25.008 19.914,25.008 24.33,17.676 &#x9;&#x9;&#xa;&#x9;&#x9;&#x9;" stroke="#AE8047"/>
            <polygon fill="none" stroke-miterlimit="10" points="10.463,41.323 14.88,33.99 19.296,41.323 &#x9;&#x9;" stroke="#AE8047"/>
            <polyline fill="none" stroke-miterlimit="10" points="40.157,33.991 44.574,41.324 35.741,41.324 40.157,33.991 &#xa;&#x9;&#x9;&#x9;&#x9;&#x9;" stroke="#AE8047"/>
        </g>
    </g>
</svg>
