<?xml version='1.0' encoding='utf-8'?>
<!DOCTYPE svg PUBLIC '-//W3C//DTD SVG 1.1//EN' 'http://www.w3.org/Graphics/SVG/1.1/DTD/svg11.dtd'>
<!-- Generator: Adobe Illustrator 16.0.0, SVG Export Plug-In . SVG Version: 6.00 Build 0)  -->
<svg version="1.1" xml:space="preserve" xmlns="http://www.w3.org/2000/svg" x="0px" width="48px" viewBox="0 0 48 48" enable-background="new 0 0 48 48" y="0px" xmlns:xlink="http://www.w3.org/1999/xlink" height="48px">
    <g id="角闪石片麻岩">
        <path d="M0.107,30.955c0,0,4.472-5.303,10.327-0.494&#xa;&#x9;&#x9;c1.734,0.906,3.685,2.5,9.919-0.357c2.004-0.824,6.233-3.275,11.004-0.016c1.789,1.006,4.281,2.543,8.836-0.369&#xa;&#x9;&#x9;c1.354-0.604,5.096-3.9,8.129,1.43" fill="none" stroke-miterlimit="10" stroke="#000000"/>
        <path d="M0.107,28.383c0,0,4.472-5.302,10.327-0.494&#xa;&#x9;&#x9;c1.734,0.906,3.685,2.5,9.919-0.357c2.004-0.824,6.233-3.275,11.004-0.016c1.789,1.006,4.281,2.543,8.836-0.369&#xa;&#x9;&#x9;c1.354-0.604,5.096-3.9,8.129,1.43" fill="none" stroke-miterlimit="10" stroke-dasharray="8,5" stroke="#000000"/>
        <path d="M0.107,14.96c0,0,4.472-5.303,10.327-0.494&#xa;&#x9;&#x9;c1.734,0.906,3.685,2.5,9.919-0.357c2.004-0.824,6.233-3.275,11.004-0.016c1.789,1.006,4.281,2.543,8.836-0.369&#xa;&#x9;&#x9;c1.354-0.604,5.096-3.901,8.129,1.43" fill="none" stroke-miterlimit="10" stroke="#000000"/>
        <path d="M0.107,12.388c0,0,4.472-5.302,10.327-0.494&#xa;&#x9;&#x9;c1.734,0.906,3.685,2.5,9.919-0.357c2.004-0.824,6.233-3.275,11.004-0.016c1.789,1.006,4.281,2.543,8.836-0.369&#xa;&#x9;&#x9;c1.354-0.604,5.096-3.901,8.129,1.43" fill="none" stroke-miterlimit="10" stroke-dasharray="8,5" stroke="#000000"/>
        <path d="M0,45.029c0,0,4.472-5.303,10.327-0.494&#xa;&#x9;&#x9;c1.734,0.906,3.685,2.5,9.919-0.357c2.004-0.824,6.233-3.275,11.004-0.016c1.789,1.006,4.281,2.543,8.836-0.369&#xa;&#x9;&#x9;c1.354-0.604,5.096-3.9,8.129,1.43" fill="none" stroke-miterlimit="10" stroke="#000000"/>
        <path d="M0,42.457c0,0,4.472-5.303,10.327-0.494&#xa;&#x9;&#x9;c1.734,0.906,3.685,2.5,9.919-0.357c2.004-0.824,6.233-3.275,11.004-0.016c1.789,1.006,4.281,2.543,8.836-0.369&#xa;&#x9;&#x9;c1.354-0.604,5.096-3.9,8.129,1.43" fill="none" stroke-miterlimit="10" stroke-dasharray="8,5" stroke="#000000"/>
        <polyline stroke-width="0.5" fill="none" stroke-miterlimit="10" points="5.834,0 2.834,4.5 7.334,6.056 &#x9;" stroke="#000000"/>
        <polyline stroke-width="0.5" fill="none" stroke-miterlimit="10" points="31.806,4.468 28.806,8.968 &#xa;&#x9;&#x9;33.306,10.525 &#x9;" stroke="#000000"/>
        <polyline stroke-width="0.5" fill="none" stroke-miterlimit="10" points="22.715,19.529 19.715,24.029 &#xa;&#x9;&#x9;24.215,25.586 &#x9;" stroke="#000000"/>
        <polyline stroke-width="0.5" fill="none" stroke-miterlimit="10" points="43.897,13.163 40.897,17.663 &#xa;&#x9;&#x9;45.397,19.219 &#x9;" stroke="#000000"/>
        <polyline stroke-width="0.5" fill="none" stroke-miterlimit="10" points="5.834,29.158 2.834,33.658 &#xa;&#x9;&#x9;7.334,35.215 &#x9;" stroke="#000000"/>
        <polyline stroke-width="0.5" fill="none" stroke-miterlimit="10" points="31.806,34.841 28.806,39.341 &#xa;&#x9;&#x9;33.306,40.897 &#x9;" stroke="#000000"/>
    </g>
</svg>
