<?xml version="1.0" standalone="no"?><!DOCTYPE svg PUBLIC "-//W3C//DTD SVG 1.1//EN" "http://www.w3.org/Graphics/SVG/1.1/DTD/svg11.dtd"><svg class="icon" width="48px" height="47.81px" viewBox="0 0 1028 1024" version="1.1" xmlns="http://www.w3.org/2000/svg"><path fill="#333333" d="M4.262231 376.814969h1021.871102v21.288981H4.262231zM4.262231 70.253638h1021.871102v21.288982H4.262231zM4.262231 874.977131h1021.871102v21.288981H4.262231zM4.262231 621.638254h1021.871102v21.288981H4.262231z"  /><path fill="#333333" d="M36.195703 206.503119m-36.191268 0a36.191268 36.191268 0 1 0 72.382537 0 36.191268 36.191268 0 1 0-72.382537 0Z"  /><path fill="#333333" d="M700.41192 206.503119m-29.804574 0a29.804574 29.804574 0 1 0 59.609147 0 29.804574 29.804574 0 1 0-59.609147 0Z"  /><path fill="#333333" d="M34.066805 515.193347m-31.933472 0a31.933472 31.933472 0 1 0 63.866944 0 31.933472 31.933472 0 1 0-63.866944 0Z"  /><path fill="#333333" d="M915.430631 515.193347m-23.41788 0a23.417879 23.417879 0 1 0 46.835759 0 23.417879 23.417879 0 1 0-46.835759 0Z"  /><path fill="#333333" d="M344.885932 747.243243m-23.417879 0a23.417879 23.417879 0 1 0 46.835759 0 23.417879 23.417879 0 1 0-46.835759 0Z"  /><path fill="#333333" d="M596.095911 747.243243m-23.417879 0a23.417879 23.417879 0 1 0 46.835759 0 23.417879 23.417879 0 1 0-46.835759 0Z"  /><path fill="#333333" d="M344.885932 515.193347m-29.804574 0a29.804574 29.804574 0 1 0 59.609148 0 29.804574 29.804574 0 1 0-59.609148 0Z"  /><path fill="#333333" d="M34.066805 989.93763m-31.933472 0a31.933472 31.933472 0 1 0 63.866944 0 31.933472 31.933472 0 1 0-63.866944 0Z"  /><path fill="#333333" d="M344.885932 989.93763m-29.804574 0a29.804574 29.804574 0 1 0 59.609148 0 29.804574 29.804574 0 1 0-59.609148 0Z"  /><path fill="#333333" d="M915.430631 210.760915m-29.804574 0a29.804574 29.804574 0 1 0 59.609147 0 29.804574 29.804574 0 1 0-59.609147 0Z"  /><path fill="#333333" d="M657.833957 585.446985c-8.515593 0-27.675676-2.128898-44.706861-17.031185-14.902287-12.773389-21.288981-31.933472-21.288981-57.480249 0-23.417879 6.386694-44.706861 21.288981-57.48025 23.417879-21.288981 53.222453-21.288981 55.351352-21.288981h6.386694l2.128898 46.835759c4.257796 0 12.773389 0 21.288981 8.515593s12.773389 19.160083 12.773389 36.191268c0 55.351351-46.835759 61.738046-48.964657 61.738045h-4.257796z m4.257796-140.507276c-8.515593 0-27.675676 4.257796-40.449064 17.031185-10.644491 10.644491-17.031185 27.675676-17.031185 48.964657 0 21.288981 6.386694 38.320166 17.031185 48.964657 17.031185 14.902287 40.449064 12.773389 40.449064 12.773389 2.128898 0 36.191268-4.257796 36.191268-48.964657 0-12.773389-2.128898-23.417879-8.515592-27.675676-6.386694-6.386694-12.773389-4.257796-14.902287-4.257796h-4.257796s-4.257796 0-6.386695 2.128898c-4.257796 2.128898-8.515593 10.644491-8.515592 34.06237h-12.773389c0-23.417879 4.257796-38.320166 14.902287-44.706861 2.128898-2.128898 4.257796-2.128898 4.257796-2.128898v-36.191268zM351.272626 289.530146c-8.515593 0-27.675676-2.128898-44.70686-17.031186-14.902287-12.773389-21.288981-31.933472-21.288982-57.480249 0-23.417879 6.386694-44.706861 21.288982-57.480249 21.288981-21.288981 53.222453-21.288981 55.351351-21.288982h6.386695l2.128898 46.835759c4.257796 0 12.773389 0 21.288981 8.515593s12.773389 19.160083 12.773389 36.191268c0 55.351351-46.835759 61.738046-48.964657 61.738046h-4.257797z m4.257797-140.507277c-8.515593 0-27.675676 4.257796-40.449065 17.031185-10.644491 10.644491-17.031185 27.675676-17.031185 48.964657 0 21.288981 6.386694 38.320166 17.031185 48.964657 17.031185 14.902287 40.449064 12.773389 40.449065 12.773389 2.128898 0 36.191268-4.257796 36.191268-48.964657 0-12.773389-2.128898-23.417879-8.515593-27.675676-6.386694-6.386694-12.773389-4.257796-14.902286-4.257796H364.046015s-4.257796 0-6.386694 2.128898c-4.257796 2.128898-8.515593 10.644491-8.515593 34.06237h-12.773388c0-21.288981 4.257796-38.320166 14.902286-44.706861 2.128898-2.128898 4.257796-2.128898 4.257797-2.128898V149.022869zM872.852668 826.012474c-8.515593 0-27.675676-2.128898-44.706861-17.031185-14.902287-12.773389-21.288981-31.933472-21.288981-57.480249 0-23.417879 6.386694-44.706861 21.288981-57.48025 21.288981-21.288981 53.222453-21.288981 55.351352-21.288981h6.386694l2.128898 46.835759c4.257796 0 12.773389 0 21.288982 8.515592s12.773389 19.160083 12.773388 36.191268c0 55.351351-46.835759 61.738046-48.964657 61.738046h-4.257796z m4.257796-140.507276c-8.515593 0-27.675676 4.257796-40.449064 17.031185-10.644491 10.644491-17.031185 27.675676-17.031185 48.964657 0 21.288981 6.386694 38.320166 17.031185 48.964656 17.031185 14.902287 40.449064 12.773389 40.449064 12.773389 2.128898 0 36.191268-4.257796 36.191269-48.964657 0-12.773389-2.128898-23.417879-8.515593-27.675675-6.386694-6.386694-12.773389-4.257796-14.902287-4.257797h-4.257796s-4.257796 0-6.386695 2.128898c-4.257796 2.128898-8.515593 10.644491-8.515592 34.062371h-12.773389c0-21.288981 4.257796-38.320166 14.902287-44.706861 2.128898-2.128898 4.257796-2.128898 4.257796-2.128898v-36.191268zM819.630215 1024h-12.773389c0-23.417879 6.386694-44.706861 21.288981-57.480249 21.288981-21.288981 53.222453-21.288981 55.351352-21.288982h6.386694l2.128898 48.964657h-12.773389l-2.128898-36.191268c-8.515593 0-27.675676 4.257796-40.449064 17.031185-10.644491 10.644491-17.031185 27.675676-17.031185 48.964657z"  /></svg>