<?xml version="1.0" standalone="no"?><!DOCTYPE svg PUBLIC "-//W3C//DTD SVG 1.1//EN" "http://www.w3.org/Graphics/SVG/1.1/DTD/svg11.dtd"><svg class="icon" width="48px" height="47.91px" viewBox="0 0 1026 1024" version="1.1" xmlns="http://www.w3.org/2000/svg"><path fill="#333333" d="M0 330.666667h1024v12.8h-1024zM0 164.266667h1024v12.8h-1024zM0 482.133333h1024v12.8h-1024zM0 633.6h1024v12.8h-1024zM0 780.8h1024v12.8h-1024zM0 942.933333h1024v12.8h-1024zM140.8 309.333333c-6.4 0-21.333333-2.133333-32-12.8-10.666667-8.533333-14.933333-23.466667-14.933333-40.533333 0-17.066667 4.266667-29.866667 14.933333-40.533333 17.066667-14.933333 38.4-14.933333 40.533333-14.933334h6.4v32c4.266667 0 10.666667 0 14.933334 4.266667 6.4 6.4 10.666667 14.933333 10.666666 27.733333 0 32-23.466667 42.666667-34.133333 44.8h-6.4z m0-96c-6.4 0-17.066667 4.266667-25.6 10.666667-6.4 8.533333-10.666667 19.2-10.666667 32 0 14.933333 4.266667 25.6 10.666667 32 10.666667 10.666667 25.6 8.533333 27.733333 8.533333 0 0 23.466667-4.266667 23.466667-32 0-8.533333-2.133333-14.933333-6.4-17.066666-4.266667-2.133333-8.533333-2.133333-8.533333-2.133334h-4.266667s-2.133333 0-4.266667 2.133334-6.4 6.4-6.4 23.466666h-8.533333c0-14.933333 4.266667-27.733333 10.666667-32l2.133333-2.133333V213.333333zM401.066667 309.333333c-6.4 0-21.333333-2.133333-32-12.8-10.666667-8.533333-14.933333-23.466667-14.933334-40.533333 0-17.066667 4.266667-29.866667 14.933334-40.533333 14.933333-14.933333 38.4-14.933333 38.4-14.933334h6.4v32c4.266667 0 10.666667 0 14.933333 4.266667 6.4 6.4 10.666667 14.933333 10.666667 27.733333 0 32-23.466667 42.666667-34.133334 44.8h-4.266666z m0-96c-6.4 0-17.066667 4.266667-25.6 10.666667-6.4 8.533333-10.666667 19.2-10.666667 32 0 14.933333 4.266667 25.6 10.666667 32 10.666667 10.666667 27.733333 8.533333 27.733333 8.533333s23.466667-4.266667 23.466667-32c0-8.533333-2.133333-14.933333-6.4-17.066666-4.266667-2.133333-8.533333-2.133333-8.533334-2.133334H407.466667s-2.133333 0-4.266667 2.133334-6.4 6.4-6.4 23.466666h-12.8c0-14.933333 4.266667-27.733333 10.666667-32l2.133333-2.133333V213.333333zM654.933333 309.333333c-6.4 0-21.333333-2.133333-32-12.8-10.666667-8.533333-14.933333-23.466667-14.933333-40.533333 0-17.066667 4.266667-29.866667 14.933333-40.533333 17.066667-14.933333 38.4-14.933333 40.533334-14.933334h6.4l2.133333 32c4.266667 0 8.533333 2.133333 12.8 4.266667 6.4 6.4 10.666667 14.933333 10.666667 27.733333 0 32-23.466667 42.666667-34.133334 44.8h-6.4z m0-96c-6.4 0-17.066667 2.133333-25.6 10.666667-8.533333 6.4-10.666667 17.066667-10.666666 32s4.266667 25.6 10.666666 32c10.666667 10.666667 27.733333 8.533333 27.733334 8.533333s23.466667-4.266667 23.466666-32c0-8.533333-2.133333-14.933333-6.4-17.066666-4.266667-2.133333-8.533333-2.133333-8.533333-2.133334h-4.266667s-2.133333 0-4.266666 2.133334-6.4 6.4-6.4 23.466666H642.133333c0-14.933333 4.266667-27.733333 10.666667-32 2.133333 0 2.133333-2.133333 4.266667-2.133333l-2.133334-23.466667zM296.533333 469.333333c-6.4 0-21.333333-2.133333-32-12.8-10.666667-8.533333-14.933333-23.466667-14.933333-40.533333 0-17.066667 4.266667-29.866667 14.933333-40.533333 17.066667-14.933333 38.4-14.933333 40.533334-14.933334h6.4l2.133333 32c4.266667 0 8.533333 2.133333 12.8 4.266667 6.4 6.4 10.666667 14.933333 10.666667 27.733333 0 32-23.466667 42.666667-34.133334 44.8h-6.4z m0-96c-6.4 0-17.066667 2.133333-25.6 10.666667-8.533333 6.4-10.666667 17.066667-10.666666 32s4.266667 25.6 10.666666 32c10.666667 10.666667 25.6 8.533333 27.733334 8.533333 0 0 23.466667-4.266667 23.466666-32 0-8.533333-2.133333-14.933333-6.4-17.066666-4.266667-2.133333-8.533333-2.133333-8.533333-2.133334h-4.266667s-2.133333 0-4.266666 2.133334-6.4 6.4-6.4 23.466666H279.466667c0-14.933333 4.266667-27.733333 10.666666-32 2.133333 0 2.133333-2.133333 4.266667-2.133333l2.133333-23.466667zM556.8 469.333333c-6.4 0-21.333333-2.133333-32-12.8-10.666667-8.533333-14.933333-23.466667-14.933333-40.533333 0-17.066667 4.266667-29.866667 14.933333-40.533333 17.066667-14.933333 38.4-14.933333 40.533333-14.933334h6.4l2.133334 32c4.266667 0 8.533333 2.133333 12.8 4.266667 6.4 6.4 10.666667 14.933333 10.666666 27.733333 0 32-23.466667 42.666667-34.133333 44.8H556.8z m0-96c-6.4 0-17.066667 2.133333-25.6 10.666667-8.533333 6.4-10.666667 17.066667-10.666667 32s4.266667 25.6 10.666667 32c10.666667 10.666667 25.6 8.533333 27.733333 8.533333 0 0 23.466667-4.266667 23.466667-32 0-8.533333-2.133333-14.933333-6.4-17.066666-4.266667-2.133333-8.533333-2.133333-8.533333-2.133334h-4.266667s-2.133333 0-4.266667 2.133334-6.4 6.4-6.4 23.466666h-12.8c0-14.933333 4.266667-27.733333 10.666667-32 2.133333 0 2.133333-2.133333 4.266667-2.133333l2.133333-23.466667zM810.666667 469.333333c-6.4 0-21.333333-2.133333-32-12.8-10.666667-8.533333-14.933333-23.466667-14.933334-40.533333 0-17.066667 4.266667-29.866667 14.933334-40.533333 17.066667-14.933333 38.4-14.933333 40.533333-14.933334h6.4l2.133333 32c4.266667 0 8.533333 2.133333 12.8 4.266667 6.4 6.4 10.666667 14.933333 10.666667 27.733333 0 32-23.466667 42.666667-34.133333 44.8h-6.4z m0-96c-6.4 0-17.066667 2.133333-25.6 10.666667-8.533333 6.4-10.666667 17.066667-10.666667 32s4.266667 25.6 10.666667 32c10.666667 10.666667 27.733333 8.533333 27.733333 8.533333s23.466667-4.266667 23.466667-32c0-8.533333-2.133333-14.933333-6.4-17.066666-4.266667-2.133333-8.533333-2.133333-8.533334-2.133334h-4.266666s-2.133333 0-4.266667 2.133334-6.4 6.4-6.4 23.466666h-12.8c0-14.933333 4.266667-27.733333 10.666667-32 2.133333 0 2.133333-2.133333 4.266666-2.133333l2.133334-23.466667zM317.866667 772.266667c-6.4 0-21.333333-2.133333-32-12.8-10.666667-8.533333-14.933333-23.466667-14.933334-40.533334 0-17.066667 4.266667-29.866667 14.933334-40.533333 17.066667-14.933333 38.4-14.933333 40.533333-14.933333h6.4l2.133333 32c4.266667 0 8.533333 2.133333 12.8 4.266666 6.4 6.4 10.666667 14.933333 10.666667 27.733334 0 32-23.466667 42.666667-34.133333 44.8h-6.4z m0-96c-6.4 0-17.066667 2.133333-25.6 10.666666-8.533333 6.4-10.666667 17.066667-10.666667 32s4.266667 25.6 10.666667 32c10.666667 10.666667 25.6 8.533333 27.733333 8.533334 0 0 23.466667-4.266667 23.466667-32 0-8.533333-2.133333-14.933333-6.4-17.066667-4.266667-2.133333-8.533333-2.133333-8.533334-2.133333h-4.266666s-2.133333 0-4.266667 2.133333-6.4 6.4-6.4 23.466667H300.8c0-14.933333 4.266667-27.733333 10.666667-32 2.133333 0 2.133333-2.133333 4.266666-2.133334l2.133334-23.466666zM578.133333 772.266667c-6.4 0-21.333333-2.133333-32-12.8-10.666667-8.533333-14.933333-23.466667-14.933333-40.533334 0-17.066667 4.266667-29.866667 14.933333-40.533333 17.066667-14.933333 38.4-14.933333 40.533334-14.933333h6.4l2.133333 32c4.266667 0 8.533333 2.133333 12.8 4.266666 6.4 6.4 10.666667 14.933333 10.666667 27.733334 0 32-23.466667 42.666667-34.133334 44.8H578.133333z m0-96c-6.4 0-17.066667 2.133333-25.6 10.666666-8.533333 6.4-10.666667 17.066667-10.666666 32s4.266667 25.6 10.666666 32c10.666667 10.666667 25.6 8.533333 27.733334 8.533334 0 0 23.466667-4.266667 23.466666-32 0-8.533333-2.133333-14.933333-6.4-17.066667-4.266667-2.133333-8.533333-2.133333-8.533333-2.133333h-4.266667s-2.133333 0-4.266666 2.133333-6.4 6.4-6.4 23.466667h-12.8c0-14.933333 4.266667-27.733333 10.666666-32 2.133333 0 2.133333-2.133333 4.266667-2.133334l2.133333-23.466666zM832 772.266667c-6.4 0-21.333333-2.133333-32-12.8-10.666667-8.533333-14.933333-23.466667-14.933333-40.533334 0-17.066667 4.266667-29.866667 14.933333-40.533333 17.066667-14.933333 38.4-14.933333 40.533333-14.933333h6.4l2.133334 32c4.266667 0 8.533333 2.133333 12.8 4.266666 6.4 6.4 10.666667 14.933333 10.666666 27.733334 0 32-23.466667 42.666667-34.133333 44.8h-6.4z m0-96c-6.4 0-17.066667 2.133333-25.6 10.666666-8.533333 6.4-10.666667 17.066667-10.666667 32s4.266667 25.6 10.666667 32c10.666667 10.666667 25.6 8.533333 27.733333 8.533334 0 0 23.466667-4.266667 23.466667-32 0-8.533333-2.133333-14.933333-6.4-17.066667-4.266667-2.133333-8.533333-2.133333-8.533333-2.133333h-4.266667s-2.133333 0-4.266667 2.133333-6.4 6.4-6.4 23.466667h-12.8c0-14.933333 4.266667-27.733333 10.666667-32 2.133333 0 2.133333-2.133333 4.266667-2.133334l2.133333-23.466666zM953.6 309.333333c-6.4 0-21.333333-2.133333-32-12.8-10.666667-8.533333-14.933333-23.466667-14.933333-40.533333 0-17.066667 4.266667-29.866667 14.933333-40.533333 17.066667-14.933333 38.4-14.933333 40.533333-14.933334h6.4l2.133334 32c4.266667 0 8.533333 2.133333 12.8 4.266667 6.4 6.4 10.666667 14.933333 10.666666 27.733333 0 32-23.466667 42.666667-34.133333 44.8h-6.4z m0-96c-6.4 0-17.066667 2.133333-25.6 10.666667-8.533333 6.4-10.666667 17.066667-10.666667 32s4.266667 25.6 10.666667 32c10.666667 10.666667 27.733333 8.533333 27.733333 8.533333s23.466667-4.266667 23.466667-32c0-8.533333-2.133333-14.933333-6.4-17.066666-4.266667-2.133333-8.533333-2.133333-8.533333-2.133334h-4.266667s-2.133333 0-4.266667 2.133334-6.4 6.4-6.4 23.466666H940.8c0-14.933333 4.266667-27.733333 10.666667-32 2.133333 0 2.133333-2.133333 4.266666-2.133333l-2.133333-23.466667zM140.8 620.8c-6.4 0-21.333333-2.133333-32-12.8-10.666667-8.533333-14.933333-23.466667-14.933333-40.533333 0-17.066667 4.266667-29.866667 14.933333-40.533334 14.933333-14.933333 38.4-14.933333 38.4-14.933333h6.4l2.133333 32c4.266667 0 8.533333 2.133333 12.8 4.266667 6.4 6.4 10.666667 14.933333 10.666667 27.733333 0 32-23.466667 42.666667-34.133333 44.8h-4.266667z m0-96c-6.4 0-17.066667 2.133333-25.6 10.666667-6.4 8.533333-10.666667 19.2-10.666667 32 0 14.933333 4.266667 25.6 10.666667 32 10.666667 10.666667 27.733333 8.533333 27.733333 8.533333s23.466667-4.266667 23.466667-32c0-8.533333-2.133333-14.933333-6.4-17.066667-4.266667-2.133333-8.533333-2.133333-8.533333-2.133333h-4.266667s-2.133333 0-4.266667 2.133333-6.4 6.4-6.4 23.466667h-8.533333c0-14.933333 4.266667-27.733333 10.666667-32 2.133333 0 2.133333-2.133333 4.266666-2.133333l-2.133333-23.466667zM401.066667 620.8c-6.4 0-21.333333-2.133333-32-12.8-10.666667-8.533333-14.933333-23.466667-14.933334-40.533333 0-17.066667 4.266667-29.866667 14.933334-40.533334 14.933333-14.933333 38.4-14.933333 38.4-14.933333h6.4l2.133333 32c4.266667 0 8.533333 2.133333 12.8 4.266667 6.4 6.4 10.666667 14.933333 10.666667 27.733333 0 32-23.466667 42.666667-34.133334 44.8h-4.266666z m0-96c-6.4 0-17.066667 2.133333-25.6 10.666667-6.4 8.533333-10.666667 19.2-10.666667 32 0 14.933333 4.266667 25.6 10.666667 32 10.666667 10.666667 25.6 8.533333 27.733333 8.533333 0 0 23.466667-4.266667 23.466667-32 0-8.533333-2.133333-14.933333-6.4-17.066667-4.266667-2.133333-8.533333-2.133333-8.533334-2.133333H407.466667s-2.133333 0-4.266667 2.133333-6.4 6.4-6.4 23.466667h-12.8c0-14.933333 4.266667-27.733333 10.666667-32 2.133333 0 2.133333-2.133333 4.266666-2.133333l2.133334-23.466667zM654.933333 620.8c-6.4 0-21.333333-2.133333-32-12.8-10.666667-8.533333-14.933333-23.466667-14.933333-40.533333 0-17.066667 4.266667-29.866667 14.933333-40.533334 17.066667-14.933333 38.4-14.933333 40.533334-14.933333h6.4l2.133333 32c4.266667 0 8.533333 2.133333 12.8 4.266667 6.4 6.4 10.666667 14.933333 10.666667 27.733333 0 32-23.466667 42.666667-34.133334 44.8h-6.4z m0-96c-6.4 0-17.066667 2.133333-25.6 10.666667-8.533333 6.4-10.666667 17.066667-10.666666 32s4.266667 25.6 10.666666 32c10.666667 10.666667 27.733333 8.533333 27.733334 8.533333s23.466667-4.266667 23.466666-32c0-8.533333-2.133333-14.933333-6.4-17.066667-4.266667-2.133333-8.533333-2.133333-8.533333-2.133333h-4.266667s-2.133333 0-4.266666 2.133333-6.4 6.4-6.4 23.466667H642.133333c0-14.933333 4.266667-27.733333 10.666667-32 2.133333 0 2.133333-2.133333 4.266667-2.133333l-2.133334-23.466667zM953.6 620.8c-6.4 0-21.333333-2.133333-32-12.8-10.666667-8.533333-14.933333-23.466667-14.933333-40.533333 0-17.066667 4.266667-29.866667 14.933333-40.533334 17.066667-14.933333 38.4-14.933333 40.533333-14.933333h6.4l2.133334 32c4.266667 0 8.533333 2.133333 12.8 4.266667 6.4 6.4 10.666667 14.933333 10.666666 27.733333 0 32-23.466667 42.666667-34.133333 44.8h-6.4z m0-96c-6.4 0-17.066667 2.133333-25.6 10.666667-8.533333 6.4-10.666667 17.066667-10.666667 32s4.266667 25.6 10.666667 32c10.666667 10.666667 27.733333 8.533333 27.733333 8.533333s23.466667-4.266667 23.466667-32c0-8.533333-2.133333-14.933333-6.4-17.066667-4.266667-2.133333-8.533333-2.133333-8.533333-2.133333h-4.266667s-2.133333 0-4.266667 2.133333-6.4 6.4-6.4 23.466667H940.8c0-14.933333 4.266667-27.733333 10.666667-32 2.133333 0 2.133333-2.133333 4.266666-2.133333l-2.133333-23.466667z"  /><path fill="#333333" d="M232.533333 179.2h12.8v157.866667h-12.8zM509.866667 179.2h12.8v157.866667h-12.8zM787.2 179.2h12.8v157.866667h-12.8zM680.533333 337.066667h12.8v155.733333h-12.8zM407.466667 337.066667h12.8v155.733333H407.466667zM142.933333 337.066667h12.8v155.733333h-12.8zM232.533333 488.533333h12.8v157.866667h-12.8zM509.866667 486.4h12.8v157.866667h-12.8zM787.2 486.4h12.8v157.866667h-12.8zM140.8 921.6c-6.4 0-21.333333-2.133333-32-12.8-10.666667-8.533333-14.933333-23.466667-14.933333-40.533333 0-17.066667 4.266667-29.866667 14.933333-40.533334 17.066667-14.933333 38.4-14.933333 40.533333-14.933333h6.4l2.133334 32c4.266667 0 8.533333 2.133333 12.8 4.266667 6.4 6.4 10.666667 14.933333 10.666666 27.733333 0 32-23.466667 42.666667-34.133333 44.8h-6.4z m0-96c-6.4 0-17.066667 2.133333-25.6 10.666667-8.533333 6.4-10.666667 17.066667-10.666667 32s4.266667 25.6 10.666667 32c10.666667 10.666667 25.6 8.533333 27.733333 8.533333 0 0 23.466667-4.266667 23.466667-32 0-8.533333-2.133333-14.933333-6.4-17.066667-4.266667-2.133333-8.533333-2.133333-8.533333-2.133333h-4.266667s-2.133333 0-4.266667 2.133333-6.4 6.4-6.4 23.466667h-8.533333c0-14.933333 4.266667-27.733333 10.666667-32 2.133333 0 2.133333-2.133333 4.266666-2.133333l-2.133333-23.466667zM401.066667 921.6c-6.4 0-21.333333-2.133333-32-12.8-10.666667-8.533333-14.933333-23.466667-14.933334-40.533333 0-17.066667 4.266667-29.866667 14.933334-40.533334 17.066667-14.933333 38.4-14.933333 40.533333-14.933333h6.4l2.133333 32c4.266667 0 8.533333 2.133333 12.8 4.266667 6.4 6.4 10.666667 14.933333 10.666667 27.733333 0 32-23.466667 42.666667-34.133333 44.8h-6.4z m0-96c-6.4 0-17.066667 2.133333-25.6 10.666667-8.533333 6.4-10.666667 17.066667-10.666667 32s4.266667 25.6 10.666667 32c10.666667 10.666667 25.6 8.533333 27.733333 8.533333 0 0 23.466667-4.266667 23.466667-32 0-8.533333-2.133333-14.933333-6.4-17.066667-4.266667-2.133333-8.533333-2.133333-8.533334-2.133333H407.466667s-2.133333 0-4.266667 2.133333-6.4 6.4-6.4 23.466667h-12.8c0-14.933333 4.266667-27.733333 10.666667-32 2.133333 0 2.133333-2.133333 4.266666-2.133333l2.133334-23.466667zM654.933333 921.6c-6.4 0-21.333333-2.133333-32-12.8-10.666667-8.533333-14.933333-23.466667-14.933333-40.533333 0-17.066667 4.266667-29.866667 14.933333-40.533334 17.066667-14.933333 38.4-14.933333 40.533334-14.933333h6.4l2.133333 32c4.266667 0 8.533333 2.133333 12.8 4.266667 6.4 6.4 10.666667 14.933333 10.666667 27.733333 0 32-23.466667 42.666667-34.133334 44.8h-6.4z m0-96c-6.4 0-17.066667 2.133333-25.6 10.666667-8.533333 6.4-10.666667 17.066667-10.666666 32s4.266667 25.6 10.666666 32c10.666667 10.666667 27.733333 8.533333 27.733334 8.533333s23.466667-4.266667 23.466666-32c0-8.533333-2.133333-14.933333-6.4-17.066667-4.266667-2.133333-8.533333-2.133333-8.533333-2.133333h-4.266667s-2.133333 0-4.266666 2.133333-6.4 6.4-6.4 23.466667H642.133333c0-14.933333 4.266667-27.733333 10.666667-32 2.133333-2.133333 2.133333-2.133333 4.266667-2.133333l-2.133334-23.466667zM953.6 921.6c-6.4 0-21.333333-2.133333-32-12.8-10.666667-8.533333-14.933333-23.466667-14.933333-40.533333 0-17.066667 4.266667-29.866667 14.933333-40.533334 17.066667-14.933333 38.4-14.933333 40.533333-14.933333h6.4l2.133334 32c4.266667 0 8.533333 2.133333 12.8 4.266667 6.4 6.4 10.666667 14.933333 10.666666 27.733333 0 32-23.466667 42.666667-34.133333 44.8h-6.4z m0-96c-6.4 0-17.066667 2.133333-25.6 10.666667-8.533333 6.4-10.666667 17.066667-10.666667 32s4.266667 25.6 10.666667 32c10.666667 10.666667 27.733333 8.533333 27.733333 8.533333s23.466667-4.266667 23.466667-32c0-8.533333-2.133333-14.933333-6.4-17.066667-4.266667-2.133333-8.533333-2.133333-8.533333-2.133333h-4.266667s-2.133333 0-4.266667 2.133333-6.4 6.4-6.4 23.466667H940.8c0-14.933333 4.266667-27.733333 10.666667-32 2.133333-2.133333 2.133333-2.133333 4.266666-2.133333l-2.133333-23.466667zM232.533333 789.333333h12.8v157.866667h-12.8zM509.866667 787.2h12.8v157.866667h-12.8zM787.2 787.2h12.8v157.866667h-12.8zM691.2 635.733333h12.8v157.866667h-12.8zM428.8 633.6h12.8v157.866667H428.8zM149.333333 633.6h12.8v157.866667h-12.8zM317.866667 149.333333c-6.4 0-21.333333-2.133333-32-12.8-10.666667-8.533333-14.933333-23.466667-14.933334-40.533333 0-17.066667 4.266667-29.866667 14.933334-40.533333 17.066667-14.933333 38.4-14.933333 40.533333-14.933334h6.4l2.133333 32c4.266667 0 8.533333 2.133333 12.8 4.266667 6.4 6.4 10.666667 14.933333 10.666667 27.733333 0 32-23.466667 42.666667-34.133333 44.8h-6.4z m0-96c-6.4 0-17.066667 2.133333-25.6 10.666667-8.533333 6.4-10.666667 17.066667-10.666667 32s4.266667 25.6 10.666667 32c10.666667 10.666667 25.6 8.533333 27.733333 8.533333 0 0 23.466667-4.266667 23.466667-32 0-8.533333-2.133333-14.933333-6.4-17.066666-2.133333-4.266667-6.4-2.133333-6.4-2.133334h-4.266667s-2.133333 0-4.266667 2.133334-6.4 6.4-6.4 23.466666h-12.8c0-14.933333 4.266667-27.733333 10.666667-32 2.133333 0 2.133333-2.133333 4.266667-2.133333V53.333333zM578.133333 149.333333c-6.4 0-21.333333-2.133333-32-12.8-10.666667-8.533333-17.066667-23.466667-17.066666-40.533333 0-17.066667 4.266667-29.866667 14.933333-40.533333 17.066667-14.933333 38.4-14.933333 40.533333-14.933334h6.4l2.133334 32c4.266667 0 8.533333 2.133333 12.8 4.266667 6.4 6.4 10.666667 14.933333 10.666666 27.733333 0 32-23.466667 42.666667-34.133333 44.8H578.133333z m0-96c-6.4 0-17.066667 2.133333-25.6 10.666667-8.533333 6.4-10.666667 17.066667-10.666666 32s4.266667 25.6 10.666666 32c10.666667 10.666667 27.733333 8.533333 27.733334 8.533333s23.466667-4.266667 23.466666-32c0-8.533333-2.133333-14.933333-6.4-17.066666-2.133333-4.266667-6.4-2.133333-6.4-2.133334h-4.266666s-2.133333 0-4.266667 2.133334c0 0-4.266667 6.4-4.266667 21.333333h-12.8c0-14.933333 4.266667-27.733333 10.666667-32 2.133333 0 2.133333-2.133333 4.266667-2.133333l-2.133334-21.333334zM832 149.333333c-6.4 0-21.333333-2.133333-32-12.8-10.666667-8.533333-14.933333-23.466667-14.933333-40.533333 0-17.066667 4.266667-29.866667 14.933333-40.533333 17.066667-14.933333 38.4-14.933333 40.533333-14.933334h6.4l2.133334 32c4.266667 0 8.533333 2.133333 12.8 4.266667 6.4 6.4 10.666667 14.933333 10.666666 27.733333 0 32-23.466667 42.666667-34.133333 44.8h-6.4z m0-96c-6.4 0-17.066667 2.133333-25.6 10.666667-8.533333 6.4-10.666667 17.066667-10.666667 32s4.266667 25.6 10.666667 32c10.666667 10.666667 27.733333 8.533333 27.733333 8.533333s23.466667-4.266667 23.466667-32c0-8.533333-2.133333-14.933333-6.4-17.066666-2.133333-4.266667-6.4-2.133333-6.4-2.133334h-4.266667s-2.133333 0-4.266666 2.133334-6.4 6.4-6.4 23.466666h-12.8c0-14.933333 4.266667-27.733333 10.666666-32 2.133333 0 2.133333-2.133333 4.266667-2.133333V53.333333zM691.2 4.266667h12.8V170.666667h-12.8zM428.8 2.133333h12.8v166.4H428.8zM149.333333 2.133333h12.8v166.4h-12.8zM904.533333 337.066667h12.8v155.733333h-12.8z"  /></svg>