<?xml version='1.0' encoding='utf-8'?>
<!DOCTYPE svg PUBLIC '-//W3C//DTD SVG 1.1//EN' 'http://www.w3.org/Graphics/SVG/1.1/DTD/svg11.dtd'>
<!-- Generator: Adobe Illustrator 16.0.0, SVG Export Plug-In . SVG Version: 6.00 Build 0)  -->
<svg version="1.1" xml:space="preserve" xmlns="http://www.w3.org/2000/svg" x="0px" width="48px" viewBox="0 0 48 48" enable-background="new 0 0 48 48" y="0px" xmlns:xlink="http://www.w3.org/1999/xlink" height="48px">
    <g id="辉绿岩">
        <polyline fill="none" stroke-miterlimit="10" points="1,11.256 7.5,11.256 13.083,7.672 13.083,14.339 &#xa;&#x9;&#x9;7.5,11.256 &#x9;" stroke="#000000"/>
        <polyline fill="none" stroke-miterlimit="10" points="21.041,11.255 27.541,11.255 33.124,7.672 33.124,14.339 &#xa;&#x9;&#x9;27.541,11.255 &#x9;" stroke="#000000"/>
        <polyline fill="none" stroke-miterlimit="10" points="1.417,39.089 7.917,39.089 13.5,35.506 13.5,42.173 &#xa;&#x9;&#x9;7.917,39.089 &#x9;" stroke="#000000"/>
        <polyline fill="none" stroke-miterlimit="10" points="21.458,39.089 27.958,39.089 33.541,35.505 33.541,42.173 &#xa;&#x9;&#x9;27.958,39.089 &#x9;" stroke="#000000"/>
        <polyline fill="none" stroke-miterlimit="10" points="13,25.256 19.5,25.256 25.083,21.672 25.083,28.34 &#xa;&#x9;&#x9;19.5,25.256 &#x9;" stroke="#000000"/>
        <polyline fill="none" stroke-miterlimit="10" points="33.041,25.256 39.541,25.256 45.124,21.672 45.124,28.34 &#xa;&#x9;&#x9;39.541,25.256 &#x9;" stroke="#000000"/>
    </g>
</svg>
