<?xml version="1.0" encoding="utf-8"?>
<!-- Generator: Adobe Illustrator 22.1.0, SVG Export Plug-In . SVG Version: 6.00 Build 0)  -->
<svg version="1.1" xml:space="preserve" xmlns="http://www.w3.org/2000/svg" x="0px" y="0px" width="48px" height="48px" viewBox="0 0 48 48" enable-background="new 0 0 48 48" xmlns:xlink="http://www.w3.org/1999/xlink">
<style type="text/css">
	.st0{fill:none;}
	.st1{opacity:0.18;}
	.st2{fill:#FF7373;}
</style>
<line class="st0" x1="0" y1="15.2" x2="15.3" y2="0"/>
<path class="st0" d="M31.5,0"/>
<line x1="48" y1="16.9" x2="48" y2="15.4"/>
<g>
	<path d="M4.6,43.3C4.4,43,4,43,3.8,43.3L0,47.1V48h0.7l3.9-3.9C4.9,43.9,4.9,43.5,4.6,43.3z"/>
	<path d="M19.5,27.5l-7.9,7.9c-0.2,0.2-0.2,0.6,0,0.8c0.1,0.1,0.3,0.2,0.4,0.2s0.3-0.1,0.4-0.2l7.9-7.9c0.2-0.2,0.2-0.6,0-0.8
		C20.2,27.3,19.8,27.3,19.5,27.5z"/>
	<path d="M36.1,12.6c0.2-0.2,0.2-0.6,0-0.8c-0.2-0.2-0.6-0.2-0.8,0l-7.9,7.9c-0.2,0.2-0.2,0.6,0,0.8c0.1,0.1,0.3,0.2,0.4,0.2
		s0.3-0.1,0.4-0.2L36.1,12.6z"/>
	<path d="M43.2,4.7c0.1,0.1,0.3,0.2,0.4,0.2c0.1,0,0.3-0.1,0.4-0.2l4-4V0h-0.9l-3.9,3.9C42.9,4.1,42.9,4.5,43.2,4.7z"/>
</g>
<path class="st0" d="M48,0"/>
<g class="st1">
	<path class="st0" d="M123.6,145.7"/>
	<g>
		<circle class="st2" cx="123.4" cy="145.7" r="1.3"/>
		<circle class="st2" cx="123.4" cy="129.7" r="1.3"/>
		<circle class="st2" cx="123.4" cy="113.7" r="1.3"/>
		<circle class="st2" cx="123.4" cy="97.8" r="1.3"/>
	</g>
	<g>
		<circle class="st2" cx="123.4" cy="145.7" r="1.3"/>
		<circle class="st2" cx="107.4" cy="145.7" r="1.3"/>
		<circle class="st2" cx="91.4" cy="145.7" r="1.3"/>
		<circle class="st2" cx="75.4" cy="145.7" r="1.3"/>
	</g>
</g>
<g>
	<path d="M9.2,9.1C9,9.1,8.8,9,8.7,8.8L6.5,4.6L4,8.8C3.8,9.1,3.5,9.2,3.2,9C2.9,8.9,2.8,8.5,3,8.3l2.8-4.7c0.1-0.2,0.4-0.4,0.7-0.4
		c0.3,0,0.5,0.2,0.7,0.4l2.6,4.7c0.1,0.3,0,0.6-0.2,0.8C9.4,9.1,9.3,9.1,9.2,9.1z"/>
	<path d="M21.6,18.6c-0.2,0-0.4-0.1-0.5-0.3l-2.3-4.2l-2.5,4.2c-0.2,0.3-0.5,0.4-0.8,0.2c-0.3-0.2-0.4-0.5-0.2-0.8l2.8-4.7
		c0.1-0.2,0.4-0.4,0.7-0.4c0.3,0,0.5,0.2,0.7,0.4l2.6,4.7c0.1,0.3,0,0.6-0.2,0.8C21.8,18.6,21.7,18.6,21.6,18.6z"/>
	<path d="M21.5,37.5c-0.2,0-0.4-0.1-0.5-0.3L18.8,33l-2.5,4.2c-0.2,0.3-0.5,0.4-0.8,0.2c-0.3-0.2-0.4-0.5-0.2-0.8l2.8-4.7
		c0.1-0.2,0.4-0.4,0.7-0.4c0.3,0,0.5,0.2,0.7,0.4l2.6,4.7c0.1,0.3,0,0.6-0.2,0.8C21.7,37.5,21.6,37.5,21.5,37.5z"/>
	<path d="M9.2,28.1c-0.2,0-0.4-0.1-0.5-0.3l-2.3-4.2L4,27.8c-0.2,0.3-0.5,0.4-0.8,0.2c-0.3-0.2-0.4-0.5-0.2-0.8l2.8-4.7
		c0.1-0.2,0.4-0.4,0.7-0.4c0.3,0,0.5,0.2,0.7,0.4l2.6,4.7c0.1,0.3,0,0.6-0.2,0.8C9.4,28.1,9.3,28.1,9.2,28.1z"/>
	<path d="M9.2,47.1c-0.2,0-0.4-0.1-0.5-0.3l-2.3-4.2L4,46.8c-0.2,0.3-0.5,0.4-0.8,0.2c-0.3-0.2-0.4-0.5-0.2-0.8l2.8-4.7
		c0.1-0.2,0.4-0.4,0.7-0.4c0.3,0,0.5,0.2,0.7,0.4l2.6,4.7c0.1,0.3,0,0.6-0.2,0.8C9.4,47.1,9.3,47.1,9.2,47.1z"/>
	<path d="M33.5,9.1c-0.2,0-0.4-0.1-0.5-0.3l-2.3-4.2l-2.5,4.2C28,9.1,27.7,9.2,27.4,9c-0.3-0.2-0.4-0.5-0.2-0.8L30,3.5
		c0.1-0.2,0.4-0.4,0.7-0.4c0.3,0,0.5,0.2,0.7,0.4L34,8.3c0.1,0.3,0,0.6-0.2,0.8C33.7,9.1,33.6,9.1,33.5,9.1z"/>
	<path d="M45,18.6c-0.2,0-0.4-0.1-0.5-0.3l-2.3-4.2l-2.5,4.2c-0.2,0.3-0.5,0.4-0.8,0.2c-0.3-0.2-0.4-0.5-0.2-0.8l2.8-4.7
		c0.1-0.2,0.4-0.4,0.7-0.4c0.3,0,0.5,0.2,0.7,0.4l2.6,4.7c0.1,0.3,0,0.6-0.2,0.8C45.2,18.6,45.1,18.6,45,18.6z"/>
	<path d="M45.1,37.5c-0.2,0-0.4-0.1-0.5-0.3L42.4,33l-2.5,4.2c-0.2,0.3-0.5,0.4-0.8,0.2c-0.3-0.2-0.4-0.5-0.2-0.8l2.8-4.7
		c0.1-0.2,0.4-0.4,0.7-0.4c0.3,0,0.5,0.2,0.7,0.4l2.6,4.7c0.1,0.3,0,0.6-0.2,0.8C45.3,37.5,45.2,37.5,45.1,37.5z"/>
	<path d="M33.5,28.1c-0.2,0-0.4-0.1-0.5-0.3l-2.3-4.2l-2.5,4.2c-0.2,0.3-0.5,0.4-0.8,0.2c-0.3-0.2-0.4-0.5-0.2-0.8l2.8-4.7
		c0.1-0.2,0.4-0.4,0.7-0.4c0.3,0,0.5,0.2,0.7,0.4l2.6,4.7c0.1,0.3,0,0.6-0.2,0.8C33.7,28.1,33.6,28.1,33.5,28.1z"/>
	<path d="M33.5,47.1c-0.2,0-0.4-0.1-0.5-0.3l-2.3-4.2l-2.5,4.2c-0.2,0.3-0.5,0.4-0.8,0.2c-0.3-0.2-0.4-0.5-0.2-0.8l2.8-4.7
		c0.1-0.2,0.4-0.4,0.7-0.4c0.3,0,0.5,0.2,0.7,0.4l2.6,4.7c0.1,0.3,0,0.6-0.2,0.8C33.7,47.1,33.6,47.1,33.5,47.1z"/>
</g>
<polygon points="0,15.9 15.5,0 17.2,0 0,17.6 "/>
<polygon points="31.3,0 33,0 0,32.6 0,30.9 "/>
<polygon points="48,32.6 33,48 31.3,48 48,30.9 "/>
<polygon points="17.3,48 15.6,48 48,15.9 48,17.6 "/>
<path class="st0" d="M31.5,48"/>
<path class="st0" d="M48,48"/>
<path class="st0" d="M-0.5,0"/>
<path class="st0" d="M-0.5,48"/>
<line x1="0" y1="16.9" x2="0" y2="15.4"/>
<path class="st0" d="M0,0"/>
<path class="st0" d="M0,48"/>
<g>
	<polygon points="0,0.7 0.8,0 0,0 	"/>
	<polygon points="48,47.1 47.1,48 48,48 	"/>
</g>
</svg>
