<svg xmlns="http://www.w3.org/2000/svg" width="48" height="48" viewBox="0 0 48 48">
  <g id="金风化石英岩" transform="translate(-9395 -56)">
    <path id="路径_3309" data-name="路径 3309" d="M0,0H48V48H0Z" transform="translate(9395 56)" fill="none"/>
    <g id="金风化石英岩-2" data-name="金风化石英岩" transform="translate(9395.834 55.406)">
      <path id="矩形_8" data-name="矩形 8" d="M-.5-.5H46.832V31.388H-.5ZM45.832.5H.5V30.388H45.832Z" transform="translate(0 8.6)"/>
      <path id="路径_3172" data-name="路径 3172" d="M36.249,20.211A66.826,66.826,0,0,1,22,18.272l-.027-.008A35.152,35.152,0,0,0,11.82,16.35,21.923,21.923,0,0,0,1.626,18.922a.25.25,0,0,1-.252-.432,19.662,19.662,0,0,1,3.071-1.359,21.5,21.5,0,0,1,7.388-1.281,35.768,35.768,0,0,1,10.3,1.942,66.175,66.175,0,0,0,14.114,1.919,20.659,20.659,0,0,0,6.792-.933,5.634,5.634,0,0,0,1.82-.929.25.25,0,0,1,.344.363C45.119,18.293,43.028,20.211,36.249,20.211Z" transform="translate(-0.052 -0.261)"/>
      <path id="路径_3173" data-name="路径 3173" d="M36.249,22.211A66.826,66.826,0,0,1,22,20.272l-.031-.01A31.743,31.743,0,0,0,11.824,18.35a21.931,21.931,0,0,0-10.2,2.572.25.25,0,0,1-.252-.432,19.662,19.662,0,0,1,3.071-1.359,21.5,21.5,0,0,1,7.388-1.281,32.342,32.342,0,0,1,10.3,1.942,66.164,66.164,0,0,0,14.112,1.919,20.659,20.659,0,0,0,6.792-.933,5.634,5.634,0,0,0,1.82-.929.25.25,0,0,1,.344.363C45.119,20.293,43.028,22.211,36.249,22.211Z" transform="translate(-0.052 -0.33)"/>
      <path id="路径_3174" data-name="路径 3174" d="M36.249,31.211A66.826,66.826,0,0,1,22,29.272l-.027-.008A35.152,35.152,0,0,0,11.82,27.35,21.923,21.923,0,0,0,1.626,29.922a.25.25,0,0,1-.252-.432,19.662,19.662,0,0,1,3.071-1.359,21.5,21.5,0,0,1,7.388-1.281,35.768,35.768,0,0,1,10.3,1.942,66.175,66.175,0,0,0,14.114,1.919,20.659,20.659,0,0,0,6.792-.933,5.634,5.634,0,0,0,1.82-.929.25.25,0,0,1,.344.363C45.119,29.293,43.028,31.211,36.249,31.211Z" transform="translate(-0.052 -0.643)"/>
      <path id="路径_3175" data-name="路径 3175" d="M36.249,33.211A66.826,66.826,0,0,1,22,31.272l-.031-.01A31.743,31.743,0,0,0,11.824,29.35a21.931,21.931,0,0,0-10.2,2.572.25.25,0,0,1-.252-.432,19.662,19.662,0,0,1,3.071-1.359,21.5,21.5,0,0,1,7.388-1.281,32.342,32.342,0,0,1,10.3,1.942,66.164,66.164,0,0,0,14.112,1.919,20.659,20.659,0,0,0,6.792-.933,5.634,5.634,0,0,0,1.82-.929.25.25,0,0,1,.344.363C45.119,31.293,43.028,33.211,36.249,33.211Z" transform="translate(-0.052 -0.712)"/>
      <g id="组_1826" data-name="组 1826" transform="translate(12.499 19.84)">
        <circle id="椭圆_110" data-name="椭圆 110" cx="0.676" cy="0.676" r="0.676" transform="translate(2.329 0.321) rotate(-13.744)" fill="#040000"/>
        <circle id="椭圆_111" data-name="椭圆 111" cx="0.676" cy="0.676" r="0.676" transform="translate(0 3.119) rotate(-13.744)" fill="#040000"/>
        <circle id="椭圆_112" data-name="椭圆 112" cx="0.676" cy="0.676" r="0.676" transform="translate(3.581 3.806) rotate(-13.744)" fill="#040000"/>
      </g>
      <g id="组_1827" data-name="组 1827" transform="translate(20.132 32.404)">
        <circle id="椭圆_113" data-name="椭圆 113" cx="0.676" cy="0.676" r="0.676" transform="translate(2.306 0.321) rotate(-13.744)" fill="#040000"/>
        <circle id="椭圆_114" data-name="椭圆 114" cx="0.676" cy="0.676" r="0.676" transform="translate(0 3.213) rotate(-13.744)" fill="#040000"/>
        <circle id="椭圆_115" data-name="椭圆 115" cx="0.676" cy="0.676" r="0.676" transform="translate(3.674 3.877) rotate(-13.744)" fill="#040000"/>
      </g>
      <g id="组_1828" data-name="组 1828" transform="translate(35.85 33.564)">
        <circle id="椭圆_116" data-name="椭圆 116" cx="0.676" cy="0.676" r="0.676" transform="translate(1.683 0.589) rotate(-25.83)" fill="#040000"/>
        <circle id="椭圆_117" data-name="椭圆 117" cx="0.676" cy="0.676" r="0.676" transform="translate(0 3.766) rotate(-25.83)" fill="#040000"/>
        <circle id="椭圆_118" data-name="椭圆 118" cx="0.676" cy="0.676" r="0.676" transform="translate(3.683 3.67) rotate(-25.83)" fill="#040000"/>
      </g>
      <g id="组_1829" data-name="组 1829" transform="translate(6.864 30.911)">
        <circle id="椭圆_119" data-name="椭圆 119" cx="0.676" cy="0.676" r="0.676" transform="translate(0.873 0.85) rotate(-38.977)" fill="#040000"/>
        <circle id="椭圆_120" data-name="椭圆 120" cx="0.676" cy="0.676" r="0.676" transform="translate(0 4.408) rotate(-38.977)" fill="#040000"/>
        <circle id="椭圆_121" data-name="椭圆 121" cx="0.676" cy="0.676" r="0.676" transform="translate(3.564 3.429) rotate(-38.977)" fill="#040000"/>
      </g>
      <g id="组_1830" data-name="组 1830" transform="translate(27.892 22.787)">
        <circle id="椭圆_122" data-name="椭圆 122" cx="0.676" cy="0.676" r="0.676" transform="matrix(0.93, -0.367, 0.367, 0.93, 1.913, 0.496)" fill="#040000"/>
        <circle id="椭圆_123" data-name="椭圆 123" cx="0.676" cy="0.676" r="0.676" transform="matrix(0.93, -0.367, 0.367, 0.93, 0, 3.681)" fill="#040000"/>
        <circle id="椭圆_124" data-name="椭圆 124" cx="0.676" cy="0.676" r="0.676" transform="matrix(0.93, -0.367, 0.367, 0.93, 3.65, 3.784)" fill="#040000"/>
      </g>
      <g id="组_1831" data-name="组 1831" transform="translate(34.908 11.36)">
        <circle id="椭圆_125" data-name="椭圆 125" cx="0.676" cy="0.676" r="0.676" transform="translate(1.759 0.561) rotate(-24.52)" fill="#040000"/>
        <circle id="椭圆_126" data-name="椭圆 126" cx="0.676" cy="0.676" r="0.676" transform="translate(0 3.744) rotate(-24.52)" fill="#040000"/>
        <circle id="椭圆_127" data-name="椭圆 127" cx="0.676" cy="0.676" r="0.676" transform="translate(3.687 3.743) rotate(-24.52)" fill="#040000"/>
      </g>
      <g id="组_1832" data-name="组 1832" transform="translate(20.352 9.939)">
        <circle id="椭圆_128" data-name="椭圆 128" cx="0.676" cy="0.676" r="0.676" transform="translate(2.401 0.256) rotate(-10.941)" fill="#040000"/>
        <circle id="椭圆_129" data-name="椭圆 129" cx="0.676" cy="0.676" r="0.676" transform="translate(0 3.045) rotate(-10.941)" fill="#040000"/>
        <circle id="椭圆_130" data-name="椭圆 130" cx="0.676" cy="0.676" r="0.676" transform="translate(3.563 3.82) rotate(-10.941)" fill="#040000"/>
      </g>
      <g id="组_1833" data-name="组 1833" transform="translate(5.066 9.214)">
        <circle id="椭圆_131" data-name="椭圆 131" cx="0.676" cy="0.676" r="0.676" transform="matrix(0.812, -0.584, 0.584, 0.812, 1.033, 0.789)" fill="#040000"/>
        <circle id="椭圆_132" data-name="椭圆 132" cx="0.676" cy="0.676" r="0.676" transform="matrix(0.812, -0.584, 0.584, 0.812, 0, 4.33)" fill="#040000"/>
        <circle id="椭圆_133" data-name="椭圆 133" cx="0.676" cy="0.676" r="0.676" transform="matrix(0.812, -0.584, 0.584, 0.812, 3.567, 3.577)" fill="#040000"/>
      </g>
      <path id="直线_881" data-name="直线 881" d="M1.665,2.469-.362.345l.723-.69L2.389,1.778Z" transform="translate(20.753 17.287)" fill="#ff47ff"/>
      <path id="直线_882" data-name="直线 882" d="M.362,2.469l-.723-.69L1.665-.345l.723.69Z" transform="translate(24.324 17.287)" fill="#ff47ff"/>
      <path id="直线_883" data-name="直线 883" d="M7.529.5H0v-1H7.529Z" transform="translate(19.788 21.148)" fill="#ff47ff"/>
      <path id="直线_884" data-name="直线 884" d="M7.625.5H0v-1H7.625Z" transform="translate(19.788 22.982)" fill="#ff47ff"/>
      <path id="直线_885" data-name="直线 885" d="M7.625.5H0v-1H7.625Z" transform="translate(19.788 25.202)" fill="#ff47ff"/>
      <path id="直线_886" data-name="直线 886" d="M.006.6l-.013-1L7.619-.5l.013,1Z" transform="translate(19.788 27.036)" fill="#ff47ff"/>
      <path id="直线_887" data-name="直线 887" d="M.5,11.969h-1V0h1Z" transform="translate(23.552 21.052)" fill="#ff47ff"/>
    </g>
  </g>
</svg>
