<?xml version='1.0' encoding='utf-8'?>
<!DOCTYPE svg PUBLIC '-//W3C//DTD SVG 1.1//EN' 'http://www.w3.org/Graphics/SVG/1.1/DTD/svg11.dtd'>
<!-- Generator: Adobe Illustrator 16.0.0, SVG Export Plug-In . SVG Version: 6.00 Build 0)  -->
<svg version="1.1" xml:space="preserve" xmlns="http://www.w3.org/2000/svg" x="0px" width="48px" viewBox="0 0 48 48" enable-background="new 0 0 48 48" y="0px" xmlns:xlink="http://www.w3.org/1999/xlink" height="48px">
    <g id="钙质砂岩">
        <g id="钙质砂岩_1_">
            <line stroke-width="0.75" y1="12.853" fill="none" stroke-miterlimit="10" x2="48" y2="12.853" stroke="#EFB134" x1="0"/>
            <line stroke-width="0.75" y1="30.354" fill="none" stroke-miterlimit="10" x2="48" y2="30.354" stroke="#EFB134" x1="0"/>
            <line stroke-width="0.75" y1="46.438" fill="none" stroke-miterlimit="10" x2="48" y2="46.438" stroke="#EFB134" x1="0"/>
            <text transform="matrix(1.2222 0 0 1 3 10.6865)" fill="#EFB134" font-family="'SimSun'" font-size="12">L</text>
            <text transform="matrix(1.2222 0 0 1 36.417 10.6865)" fill="#EFB134" font-family="'SimSun'" font-size="12">L</text>
            <text transform="matrix(1.2222 0 0 1 3 43.6875)" fill="#EFB134" font-family="'SimSun'" font-size="12">L</text>
            <text transform="matrix(1.2222 0 0 1 36.417 43.6875)" fill="#EFB134" font-family="'SimSun'" font-size="12">L</text>
            <text transform="matrix(1.2222 0 0 1 21.583 26.6875)" fill="#EFB134" font-family="'SimSun'" font-size="12">L</text>
            <circle r="1.018" stroke-width="0.5" cx="15.917" cy="6.77" fill="none" stroke-miterlimit="10" stroke="#EFB134"/>
            <circle r="0.833" stroke-width="0.5" cx="25.167" cy="6.77" fill="none" stroke-miterlimit="10" stroke="#EFB134"/>
            <circle r="0.942" stroke-width="0.5" cx="7.654" cy="22.77" fill="none" stroke-miterlimit="10" stroke="#EFB134"/>
            <circle r="0.833" stroke-width="0.5" cx="40.396" cy="22.77" fill="none" stroke-miterlimit="10" stroke="#EFB134"/>
            <circle r="1.018" stroke-width="0.5" cx="17.953" cy="39.928" fill="none" stroke-miterlimit="10" stroke="#EFB134"/>
            <circle r="0.833" stroke-width="0.5" cx="27.203" cy="39.928" fill="none" stroke-miterlimit="10" stroke="#EFB134"/>
        </g>
    </g>
</svg>
