<?xml version='1.0' encoding='utf-8'?>
<!DOCTYPE svg PUBLIC '-//W3C//DTD SVG 1.1//EN' 'http://www.w3.org/Graphics/SVG/1.1/DTD/svg11.dtd'>
<!-- Generator: Adobe Illustrator 16.0.0, SVG Export Plug-In . SVG Version: 6.00 Build 0)  -->
<svg version="1.1" xml:space="preserve" xmlns="http://www.w3.org/2000/svg" x="0px" width="48px" viewBox="0 0 48 48" enable-background="new 0 0 48 48" y="0px" xmlns:xlink="http://www.w3.org/1999/xlink" height="48px">
    <g id="锰矿层">
        <line y1="6.827" fill="none" stroke-miterlimit="10" x2="48" y2="6.827" stroke="#000000" x1="0"/>
        <line y1="16.833" fill="none" stroke-miterlimit="10" x2="48" y2="16.833" stroke="#000000" x1="0"/>
        <line y1="26.41" fill="none" stroke-miterlimit="10" x2="48" y2="26.41" stroke="#000000" x1="0"/>
        <line y1="36.576" fill="none" stroke-miterlimit="10" x2="48" y2="36.576" stroke="#000000" x1="0"/>
        <line y1="46.41" fill="none" stroke-miterlimit="10" x2="48" y2="46.41" stroke="#000000" x1="0"/>
        <text transform="matrix(1 0 0 1 21.5 6.5234)" font-family="'SimSun'" font-size="8.835">Mn</text>
        <text transform="matrix(1 0 0 1 20.3335 25.1182)" font-family="'SimSun'" font-size="9.3329">Mn</text>
        <text transform="matrix(1 0 0 1 20.6665 44.4141)" font-family="'SimSun'" font-size="9">Mn</text>
        <text transform="matrix(1 0 0 1 5.1958 14.8701)" font-family="'SimSun'" font-size="9.1074">Mn</text>
        <text transform="matrix(1 0 0 1 34.4463 15.4438)" font-family="'SimSun'" font-size="9.7744">Mn</text>
        <text transform="matrix(1 0 0 1 5.6235 34.6182)" font-family="'SimSun'" font-size="9.334">Mn</text>
        <text transform="matrix(1 0 0 1 34.959 35.1318)" font-family="'SimSun'" font-size="9.833">Mn</text>
    </g>
</svg>
