<?xml version='1.0' encoding='utf-8'?>
<!DOCTYPE svg PUBLIC '-//W3C//DTD SVG 1.1//EN' 'http://www.w3.org/Graphics/SVG/1.1/DTD/svg11.dtd'>
<!-- Generator: Adobe Illustrator 16.0.0, SVG Export Plug-In . SVG Version: 6.00 Build 0)  -->
<svg version="1.1" xml:space="preserve" xmlns="http://www.w3.org/2000/svg" x="0px" width="48px" viewBox="0 0 48 48" enable-background="new 0 0 48 48" y="0px" xmlns:xlink="http://www.w3.org/1999/xlink" height="48px">
    <g id="页状灰岩">
        <line y1="4.077" fill="none" stroke-miterlimit="10" x2="48" y2="4.077" stroke="#000000" x1="0"/>
        <line y1="6.661" fill="none" stroke-miterlimit="10" x2="48" y2="6.661" stroke="#000000" x1="0"/>
        <line y1="9.827" fill="none" stroke-miterlimit="10" x2="48" y2="9.827" stroke="#000000" x1="0"/>
        <line y1="14.833" fill="none" stroke-miterlimit="10" x2="48" y2="14.833" stroke="#000000" x1="0"/>
        <line y1="17.25" fill="none" stroke-miterlimit="10" x2="48" y2="17.25" stroke="#000000" x1="0"/>
        <line y1="19.833" fill="none" stroke-miterlimit="10" x2="48" y2="19.833" stroke="#000000" x1="0"/>
        <line y1="23" fill="none" stroke-miterlimit="10" x2="48" y2="23" stroke="#000000" x1="0"/>
        <line y1="27.41" fill="none" stroke-miterlimit="10" x2="48" y2="27.41" stroke="#000000" x1="0"/>
        <line y1="29.826" fill="none" stroke-miterlimit="10" x2="48" y2="29.826" stroke="#000000" x1="0"/>
        <line y1="32.41" fill="none" stroke-miterlimit="10" x2="48" y2="32.41" stroke="#000000" x1="0"/>
        <line y1="35.576" fill="none" stroke-miterlimit="10" x2="48" y2="35.576" stroke="#000000" x1="0"/>
        <line y1="40.41" fill="none" stroke-miterlimit="10" x2="48" y2="40.41" stroke="#000000" x1="0"/>
        <line y1="42.994" fill="none" stroke-miterlimit="10" x2="48" y2="42.994" stroke="#000000" x1="0"/>
        <line y1="46.16" fill="none" stroke-miterlimit="10" x2="48" y2="46.16" stroke="#000000" x1="0"/>
        <line y1="14.833" fill="none" stroke-miterlimit="10" x2="14.583" y2="23" stroke="#000000" x1="14.583"/>
        <line y1="14.833" fill="none" stroke-miterlimit="10" x2="39.917" y2="23" stroke="#000000" x1="39.917"/>
        <line y1="27.41" fill="none" stroke-miterlimit="10" x2="4.833" y2="35.576" stroke="#000000" x1="4.833"/>
        <line y1="27.41" fill="none" stroke-miterlimit="10" x2="33.167" y2="35.576" stroke="#000000" x1="33.167"/>
        <line y1="40.41" fill="none" stroke-miterlimit="10" x2="14.417" y2="48" stroke="#000000" x1="14.417"/>
        <line y1="40.827" fill="none" stroke-miterlimit="10" x2="39.334" y2="48" stroke="#000000" x1="39.334"/>
        <line y1="0" fill="none" stroke-miterlimit="10" x2="33.167" y2="9.41" stroke="#000000" x1="33.167"/>
        <line y1="0" fill="none" stroke-miterlimit="10" x2="4.917" y2="9.827" stroke="#000000" x1="4.917"/>
    </g>
</svg>
