<?xml version="1.0" encoding="utf-8"?>
<!-- Generator: Adobe Illustrator 22.1.0, SVG Export Plug-In . SVG Version: 6.00 Build 0)  -->
<svg version="1.1" xml:space="preserve" xmlns="http://www.w3.org/2000/svg" x="0px" y="0px" width="48px" height="48px" viewBox="0 0 48 48" enable-background="new 0 0 48 48" xmlns:xlink="http://www.w3.org/1999/xlink">
<style type="text/css">
	.st0{fill:none;stroke:#000000;stroke-width:1.561;stroke-linecap:round;stroke-miterlimit:10;}
</style>
<line class="st0" x1="4.7" y1="0.9" x2="4.7" y2="4.9"/>
<line class="st0" x1="4.6" y1="7.7" x2="4.6" y2="7.9"/>
<line class="st0" x1="4.6" y1="10.7" x2="4.6" y2="14.7"/>
<line class="st0" x1="4.6" y1="17.5" x2="4.6" y2="17.7"/>
<line class="st0" x1="4.6" y1="20.5" x2="4.6" y2="24.5"/>
<line class="st0" x1="4.6" y1="27.3" x2="4.6" y2="27.5"/>
<line class="st0" x1="4.6" y1="30.3" x2="4.6" y2="34.3"/>
<line class="st0" x1="4.6" y1="40.1" x2="4.6" y2="44.1"/>
<line class="st0" x1="4.7" y1="37.1" x2="4.7" y2="37.3"/>
<line class="st0" x1="4.6" y1="46.5" x2="4.6" y2="46.7"/>
<line class="st0" x1="14.6" y1="4.3" x2="14.6" y2="4.6"/>
<line class="st0" x1="14.6" y1="7.5" x2="14.6" y2="11.5"/>
<line class="st0" x1="14.6" y1="14.5" x2="14.6" y2="14.7"/>
<line class="st0" x1="14.6" y1="17.6" x2="14.6" y2="21.7"/>
<line class="st0" x1="14.6" y1="24.6" x2="14.6" y2="24.9"/>
<line class="st0" x1="14.6" y1="27.8" x2="14.6" y2="31.8"/>
<line class="st0" x1="14.6" y1="37.4" x2="14.6" y2="41.4"/>
<line class="st0" x1="14.6" y1="34.7" x2="14.6" y2="35"/>
<line class="st0" x1="14.6" y1="43.5" x2="14.6" y2="43.8"/>
<path d="M14.6,2.7L14.6,2.7c-0.4,0-0.8-0.3-0.8-0.8V0h1.5v2C15.3,2.4,15,2.7,14.6,2.7z"/>
<path d="M14.6,45.3L14.6,45.3c0.4,0,0.8,0.3,0.8,0.8v2h-1.5v-2C13.8,45.6,14.1,45.3,14.6,45.3z"/>
<line class="st0" x1="24.1" y1="0.9" x2="24.1" y2="4.9"/>
<line class="st0" x1="24.1" y1="7.7" x2="24.1" y2="7.9"/>
<line class="st0" x1="24.1" y1="10.7" x2="24.1" y2="14.7"/>
<line class="st0" x1="24" y1="17.5" x2="24" y2="17.7"/>
<line class="st0" x1="24" y1="20.5" x2="24" y2="24.5"/>
<line class="st0" x1="24" y1="27.3" x2="24" y2="27.5"/>
<line class="st0" x1="24" y1="30.3" x2="24" y2="34.3"/>
<line class="st0" x1="24" y1="40.1" x2="24" y2="44.1"/>
<line class="st0" x1="24.1" y1="37.1" x2="24.1" y2="37.3"/>
<line class="st0" x1="24" y1="46.5" x2="24" y2="46.7"/>
<line class="st0" x1="34" y1="4.3" x2="34" y2="4.6"/>
<line class="st0" x1="34" y1="7.5" x2="34" y2="11.5"/>
<line class="st0" x1="34" y1="14.5" x2="34" y2="14.7"/>
<line class="st0" x1="34" y1="17.6" x2="34" y2="21.7"/>
<line class="st0" x1="34" y1="24.6" x2="34" y2="24.9"/>
<line class="st0" x1="34" y1="27.8" x2="34" y2="31.8"/>
<line class="st0" x1="34" y1="37.4" x2="34" y2="41.4"/>
<line class="st0" x1="34" y1="34.7" x2="34" y2="35"/>
<line class="st0" x1="34" y1="43.5" x2="34" y2="43.8"/>
<path d="M34,2.7L34,2.7c-0.4,0-0.8-0.3-0.8-0.8V0h1.5v2C34.7,2.4,34.4,2.7,34,2.7z"/>
<path d="M34,45.3L34,45.3c0.4,0,0.8,0.3,0.8,0.8v2h-1.5v-2C33.2,45.6,33.6,45.3,34,45.3z"/>
<line class="st0" x1="43.5" y1="0.9" x2="43.5" y2="4.9"/>
<line class="st0" x1="43.4" y1="7.7" x2="43.4" y2="7.9"/>
<line class="st0" x1="43.4" y1="10.7" x2="43.4" y2="14.7"/>
<line class="st0" x1="43.4" y1="17.5" x2="43.4" y2="17.7"/>
<line class="st0" x1="43.4" y1="20.5" x2="43.4" y2="24.5"/>
<line class="st0" x1="43.4" y1="27.3" x2="43.4" y2="27.5"/>
<line class="st0" x1="43.4" y1="30.3" x2="43.4" y2="34.3"/>
<line class="st0" x1="43.4" y1="40.1" x2="43.4" y2="44.1"/>
<line class="st0" x1="43.5" y1="37.1" x2="43.5" y2="37.3"/>
<line class="st0" x1="43.4" y1="46.5" x2="43.4" y2="46.7"/>
</svg>
