<svg xmlns="http://www.w3.org/2000/svg" width="48" height="48" viewBox="0 0 48 48">
  <g id="黄土质粘土" transform="translate(-9515 -56)">
    <path id="路径_3311" data-name="路径 3311" d="M0,0H48V48H0Z" transform="translate(9515 56)" fill="none"/>
    <g id="黄土质粘土-2" data-name="黄土质粘土" transform="translate(9515.05 55.5)">
      <path id="直线_890" data-name="直线 890" d="M0,43.5A.5.5,0,0,1-.5,43V40a.5.5,0,0,1,.5-.5.5.5,0,0,1,.5.5v3A.5.5,0,0,1,0,43.5Zm0-8A.5.5,0,0,1-.5,35V32a.5.5,0,0,1,.5-.5.5.5,0,0,1,.5.5v3A.5.5,0,0,1,0,35.5Zm0-8A.5.5,0,0,1-.5,27V24a.5.5,0,0,1,.5-.5.5.5,0,0,1,.5.5v3A.5.5,0,0,1,0,27.5Zm0-8A.5.5,0,0,1-.5,19V16a.5.5,0,0,1,.5-.5.5.5,0,0,1,.5.5v3A.5.5,0,0,1,0,19.5Zm0-8A.5.5,0,0,1-.5,11V8A.5.5,0,0,1,0,7.5.5.5,0,0,1,.5,8v3A.5.5,0,0,1,0,11.5Zm0-8A.5.5,0,0,1-.5,3V0A.5.5,0,0,1,0-.5.5.5,0,0,1,.5,0V3A.5.5,0,0,1,0,3.5Z" transform="translate(6 2.8)"/>
      <path id="直线_891" data-name="直线 891" d="M0,43.5A.5.5,0,0,1-.5,43V40a.5.5,0,0,1,.5-.5.5.5,0,0,1,.5.5v3A.5.5,0,0,1,0,43.5Zm0-8A.5.5,0,0,1-.5,35V32a.5.5,0,0,1,.5-.5.5.5,0,0,1,.5.5v3A.5.5,0,0,1,0,35.5Zm0-8A.5.5,0,0,1-.5,27V24a.5.5,0,0,1,.5-.5.5.5,0,0,1,.5.5v3A.5.5,0,0,1,0,27.5Zm0-8A.5.5,0,0,1-.5,19V16a.5.5,0,0,1,.5-.5.5.5,0,0,1,.5.5v3A.5.5,0,0,1,0,19.5Zm0-8A.5.5,0,0,1-.5,11V8A.5.5,0,0,1,0,7.5.5.5,0,0,1,.5,8v3A.5.5,0,0,1,0,11.5Zm0-8A.5.5,0,0,1-.5,3V0A.5.5,0,0,1,0-.5.5.5,0,0,1,.5,0V3A.5.5,0,0,1,0,3.5Z" transform="translate(18 2.8)"/>
      <path id="直线_892" data-name="直线 892" d="M0,43.5A.5.5,0,0,1-.5,43V40a.5.5,0,0,1,.5-.5.5.5,0,0,1,.5.5v3A.5.5,0,0,1,0,43.5Zm0-8A.5.5,0,0,1-.5,35V32a.5.5,0,0,1,.5-.5.5.5,0,0,1,.5.5v3A.5.5,0,0,1,0,35.5Zm0-8A.5.5,0,0,1-.5,27V24a.5.5,0,0,1,.5-.5.5.5,0,0,1,.5.5v3A.5.5,0,0,1,0,27.5Zm0-8A.5.5,0,0,1-.5,19V16a.5.5,0,0,1,.5-.5.5.5,0,0,1,.5.5v3A.5.5,0,0,1,0,19.5Zm0-8A.5.5,0,0,1-.5,11V8A.5.5,0,0,1,0,7.5.5.5,0,0,1,.5,8v3A.5.5,0,0,1,0,11.5Zm0-8A.5.5,0,0,1-.5,3V0A.5.5,0,0,1,0-.5.5.5,0,0,1,.5,0V3A.5.5,0,0,1,0,3.5Z" transform="translate(30 2.8)"/>
      <path id="直线_893" data-name="直线 893" d="M0,43.5A.5.5,0,0,1-.5,43V40a.5.5,0,0,1,.5-.5.5.5,0,0,1,.5.5v3A.5.5,0,0,1,0,43.5Zm0-8A.5.5,0,0,1-.5,35V32a.5.5,0,0,1,.5-.5.5.5,0,0,1,.5.5v3A.5.5,0,0,1,0,35.5Zm0-8A.5.5,0,0,1-.5,27V24a.5.5,0,0,1,.5-.5.5.5,0,0,1,.5.5v3A.5.5,0,0,1,0,27.5Zm0-8A.5.5,0,0,1-.5,19V16a.5.5,0,0,1,.5-.5.5.5,0,0,1,.5.5v3A.5.5,0,0,1,0,19.5Zm0-8A.5.5,0,0,1-.5,11V8A.5.5,0,0,1,0,7.5.5.5,0,0,1,.5,8v3A.5.5,0,0,1,0,11.5Zm0-8A.5.5,0,0,1-.5,3V0A.5.5,0,0,1,0-.5.5.5,0,0,1,.5,0V3A.5.5,0,0,1,0,3.5Z" transform="translate(41.9 2.8)"/>
    </g>
  </g>
</svg>
