<svg xmlns="http://www.w3.org/2000/svg" width="48" height="48" viewBox="0 0 48 48">
  <g id="黄土质砂粘土" transform="translate(-9453 -56)">
    <path id="路径_3310" data-name="路径 3310" d="M0,0H48V48H0Z" transform="translate(9453 56)" fill="none"/>
    <g id="黄土质砂粘土-2" data-name="黄土质砂粘土" transform="translate(9452.95 56.2)">
      <path id="直线_888" data-name="直线 888" d="M0,43.5A.5.5,0,0,1-.5,43V40a.5.5,0,0,1,.5-.5.5.5,0,0,1,.5.5v3A.5.5,0,0,1,0,43.5Zm0-8A.5.5,0,0,1-.5,35V32a.5.5,0,0,1,.5-.5.5.5,0,0,1,.5.5v3A.5.5,0,0,1,0,35.5Zm0-8A.5.5,0,0,1-.5,27V24a.5.5,0,0,1,.5-.5.5.5,0,0,1,.5.5v3A.5.5,0,0,1,0,27.5Zm0-8A.5.5,0,0,1-.5,19V16a.5.5,0,0,1,.5-.5.5.5,0,0,1,.5.5v3A.5.5,0,0,1,0,19.5Zm0-8A.5.5,0,0,1-.5,11V8A.5.5,0,0,1,0,7.5.5.5,0,0,1,.5,8v3A.5.5,0,0,1,0,11.5Zm0-8A.5.5,0,0,1-.5,3V0A.5.5,0,0,1,0-.5.5.5,0,0,1,.5,0V3A.5.5,0,0,1,0,3.5Z" transform="translate(18.4 2.4)"/>
      <path id="直线_889" data-name="直线 889" d="M0,43.5A.5.5,0,0,1-.5,43V40a.5.5,0,0,1,.5-.5.5.5,0,0,1,.5.5v3A.5.5,0,0,1,0,43.5Zm0-8A.5.5,0,0,1-.5,35V32a.5.5,0,0,1,.5-.5.5.5,0,0,1,.5.5v3A.5.5,0,0,1,0,35.5Zm0-8A.5.5,0,0,1-.5,27V24a.5.5,0,0,1,.5-.5.5.5,0,0,1,.5.5v3A.5.5,0,0,1,0,27.5Zm0-8A.5.5,0,0,1-.5,19V16a.5.5,0,0,1,.5-.5.5.5,0,0,1,.5.5v3A.5.5,0,0,1,0,19.5Zm0-8A.5.5,0,0,1-.5,11V8A.5.5,0,0,1,0,7.5.5.5,0,0,1,.5,8v3A.5.5,0,0,1,0,11.5Zm0-8A.5.5,0,0,1-.5,3V0A.5.5,0,0,1,0-.5.5.5,0,0,1,.5,0V3A.5.5,0,0,1,0,3.5Z" transform="translate(42.3 2.4)"/>
      <path id="路径_3176" data-name="路径 3176" d="M6.4,46h0a.576.576,0,0,1-.6-.6V2.4a.576.576,0,0,1,.6-.6h0a.576.576,0,0,1,.6.6v43C6.9,45.7,6.7,46,6.4,46Z"/>
      <path id="路径_3177" data-name="路径 3177" d="M30.4,46h0a.576.576,0,0,1-.6-.6V2.4a.576.576,0,0,1,.6-.6h0a.576.576,0,0,1,.6.6v43C30.9,45.7,30.7,46,30.4,46Z"/>
    </g>
  </g>
</svg>
