<?xml version="1.0" encoding="utf-8"?>
<!-- Generator: Adobe Illustrator 15.0.0, SVG Export Plug-In . SVG Version: 6.00 Build 0)  -->
<!DOCTYPE svg PUBLIC "-//W3C//DTD SVG 1.1//EN" "http://www.w3.org/Graphics/SVG/1.1/DTD/svg11.dtd">
<svg version="1.1" id="图层_1" xmlns="http://www.w3.org/2000/svg" xmlns:xlink="http://www.w3.org/1999/xlink" x="0px" y="0px"
	 width="48px" height="48px" viewBox="0 0 48 48" enable-background="new 0 0 48 48" xml:space="preserve">
<path fill="none" stroke="#000000" stroke-miterlimit="10" d="M-18.472,14.684"/>
<g>
	<path fill="none" stroke="#000000" stroke-miterlimit="10" d="M1.25,13.944c0,0,0-2.699,0-6c0-3.3,2.25-6,5-6c2.75,0,5,2.7,5,6
		c0,3.3,0,6,0,6"/>
</g>
<g>
	<path fill="none" stroke="#000000" stroke-miterlimit="10" d="M3.25,13.944c0,0,0-2.25,0-5c0-2.75,1.35-5,3-5s3,2.25,3,5
		c0,2.75,0,5,0,5"/>
</g>
<g>
	<path fill="none" stroke="#000000" stroke-miterlimit="10" d="M24,13.944c0,0,0-2.7,0-6s2.25-6,5-6s5,2.7,5,6s0,6,0,6"/>
</g>
<g>
	<path fill="none" stroke="#000000" stroke-miterlimit="10" d="M26,13.944c0,0,0-2.25,0-5c0-2.75,1.351-5,3-5c1.65,0,3,2.25,3,5
		c0,2.75,0,5,0,5"/>
</g>
<g>
	<path fill="none" stroke="#000000" stroke-miterlimit="10" d="M11.817,30.684c0,0,0-2.699,0-6c0-3.299,2.25-6,5-6c2.75,0,5,2.7,5,6
		c0,3.301,0,6,0,6"/>
</g>
<g>
	<path fill="none" stroke="#000000" stroke-miterlimit="10" d="M13.817,30.684c0,0,0-2.25,0-5c0-2.75,1.35-5,3-5s3,2.25,3,5
		c0,2.75,0,5,0,5"/>
</g>
<g>
	<path fill="none" stroke="#000000" stroke-miterlimit="10" d="M34.916,30.684c0,0,0-2.699,0-6c0-3.299,2.25-6,5-6s5,2.7,5,6
		c0,3.301,0,6,0,6"/>
</g>
<g>
	<path fill="none" stroke="#000000" stroke-miterlimit="10" d="M36.916,30.684c0,0,0-2.25,0-5c0-2.75,1.351-5,3-5c1.65,0,3,2.25,3,5
		c0,2.75,0,5,0,5"/>
</g>
<g>
	<path fill="none" stroke="#000000" stroke-miterlimit="10" d="M1,45.434c0,0,0-2.699,0-6c0-3.299,2.25-6,5-6c2.75,0,5,2.701,5,6
		c0,3.301,0,6,0,6"/>
</g>
<g>
	<path fill="none" stroke="#000000" stroke-miterlimit="10" d="M3,45.434c0,0,0-2.25,0-5s1.35-5,3-5s3,2.25,3,5s0,5,0,5"/>
</g>
<g>
	<path fill="none" stroke="#000000" stroke-miterlimit="10" d="M23.333,45.184c0,0,0-2.699,0-6c0-3.3,2.25-6,5-6
		c2.749,0,4.999,2.7,4.999,6c0,3.301,0,6,0,6"/>
</g>
<g>
	<path fill="none" stroke="#000000" stroke-miterlimit="10" d="M25.334,45.184c0,0,0-2.25,0-5s1.35-5,3-5
		c1.649,0,2.999,2.25,2.999,5s0,5,0,5"/>
</g>
</svg>
