<?xml version='1.0' encoding='utf-8'?>
<!DOCTYPE svg PUBLIC '-//W3C//DTD SVG 1.1//EN' 'http://www.w3.org/Graphics/SVG/1.1/DTD/svg11.dtd'>
<!-- Generator: Adobe Illustrator 16.0.0, SVG Export Plug-In . SVG Version: 6.00 Build 0)  -->
<svg version="1.1" xml:space="preserve" xmlns="http://www.w3.org/2000/svg" x="0px" width="48px" viewBox="0 0 48 48" enable-background="new 0 0 48 48" y="0px" xmlns:xlink="http://www.w3.org/1999/xlink" height="48px">
    <g id="黑曜岩松脂岩珍珠岩">
        <path d="M4.483,9.867c0,0,1.539-4.058,4.857-1.04&#xa;&#x9;&#x9;c1.14,1.779,0.021,3.838-1.419,4.238" fill="none" stroke-miterlimit="10" stroke="#000000"/>
        <path d="M2,8.269c0,0,4.03-6.685,9.172-0.998&#xa;&#x9;&#x9;c2.276,3.553,1.332,6.896-1.362,8.195" fill="none" stroke-miterlimit="10" stroke="#000000"/>
        <path d="M25.838,8.926c0,0,1.539-4.058,4.857-1.04&#xa;&#x9;&#x9;c1.141,1.779,0.02,3.838-1.42,4.238" fill="none" stroke-miterlimit="10" stroke="#000000"/>
        <path d="M23.355,7.328c0,0,4.029-6.685,9.17-0.998&#xa;&#x9;&#x9;c2.277,3.553,1.332,6.895-1.361,8.195" fill="none" stroke-miterlimit="10" stroke="#000000"/>
        <path d="M4.483,38.508c0,0,1.539-4.058,4.857-1.039&#xa;&#x9;&#x9;c1.14,1.779,0.021,3.838-1.419,4.238" fill="none" stroke-miterlimit="10" stroke="#000000"/>
        <path d="M2,36.91c0,0,4.03-6.686,9.172-0.998&#xa;&#x9;&#x9;c2.276,3.553,1.332,6.895-1.362,8.195" fill="none" stroke-miterlimit="10" stroke="#000000"/>
        <path d="M27.838,38.567c0,0,1.539-4.058,4.857-1.04&#xa;&#x9;&#x9;c1.141,1.779,0.02,3.838-1.42,4.238" fill="none" stroke-miterlimit="10" stroke="#000000"/>
        <path d="M25.355,36.969c0,0,4.029-6.686,9.17-0.998&#xa;&#x9;&#x9;c2.277,3.553,1.332,6.895-1.361,8.195" fill="none" stroke-miterlimit="10" stroke="#000000"/>
        <path d="M16.967,24.526c0,0,1.539-4.058,4.857-1.039&#xa;&#x9;&#x9;c1.14,1.779,0.021,3.838-1.419,4.238" fill="none" stroke-miterlimit="10" stroke="#000000"/>
        <path d="M14.483,22.929c0,0,4.03-6.686,9.172-0.998&#xa;&#x9;&#x9;c2.276,3.553,1.332,6.895-1.362,8.195" fill="none" stroke-miterlimit="10" stroke="#000000"/>
        <path d="M36.321,23.586c0,0,1.539-4.058,4.857-1.04&#xa;&#x9;&#x9;c1.141,1.779,0.02,3.838-1.42,4.238" fill="none" stroke-miterlimit="10" stroke="#000000"/>
        <path d="M33.839,21.987c0,0,4.029-6.686,9.17-0.998&#xa;&#x9;&#x9;c2.277,3.553,1.332,6.895-1.361,8.195" fill="none" stroke-miterlimit="10" stroke="#000000"/>
    </g>
</svg>
